<svg width="240" height="38" viewBox="0 0 240 38" fill="none" xmlns="http://www.w3.org/2000/svg">
<path d="M27.8582 2.62269C27.4742 3.24669 27.2822 3.76269 27.2822 4.17069C27.2822 4.60269 27.3062 4.93869 27.3542 5.17869L29.4782 23.5027C29.5982 24.9187 29.7182 25.9747 29.8382 26.6707C29.8622 26.7907 30.0662 27.1627 30.4502 27.7867H26.4542C26.5742 27.2347 26.6342 26.7907 26.6342 26.4547C26.6342 26.1427 26.5982 25.7347 26.5262 25.2307L24.4742 6.15069L14.6102 29.0107L4.56624 7.01469L3.27024 24.9427V25.3027C3.27024 26.1667 3.35424 26.9947 3.52224 27.7867H0.0302383C0.294238 27.3787 0.438238 27.1267 0.462238 27.0307C0.510238 26.9107 0.594238 26.4307 0.714238 25.5907L2.51424 5.03469C2.53824 4.67469 2.55024 4.38669 2.55024 4.17069C2.55024 3.59469 2.32224 3.09069 1.86624 2.65869H5.71824L14.8262 22.9627L23.5382 2.62269H27.8582ZM44.614 12.1987C44.614 11.5267 44.41 10.9147 44.002 10.3627L47.53 9.89469V25.1947C47.53 25.9867 47.566 26.4907 47.638 26.7067C47.734 26.8987 47.95 27.1987 48.286 27.6067H44.686V25.8787C43.558 27.2707 41.986 27.9667 39.97 27.9667C37.954 27.9667 36.298 27.3787 35.002 26.2027C33.706 25.0267 33.058 23.3827 33.058 21.2707V12.3427C33.058 11.4067 32.83 10.7467 32.374 10.3627L35.866 10.0027V21.5947C35.866 22.9867 36.274 24.0907 37.09 24.9067C37.906 25.7227 38.902 26.1307 40.078 26.1307H40.186C41.386 26.1307 42.418 25.7227 43.282 24.9067C44.17 24.0907 44.614 23.0347 44.614 21.7387V12.1987ZM50.6302 27.6067C50.9182 27.1747 51.0622 26.5747 51.0622 25.8067V12.1627C51.0622 11.5627 51.0022 11.1307 50.8822 10.8667C50.7862 10.5787 50.6182 10.3147 50.3782 10.0747L53.9062 9.75069V17.3467H61.7542V12.1627C61.7542 11.5627 61.6942 11.1307 61.5742 10.8667C61.4782 10.5787 61.3102 10.3147 61.0702 10.0747L64.5982 9.75069V25.7347C64.5982 26.5507 64.7782 27.1747 65.1382 27.6067H61.3222C61.6102 27.1747 61.7542 26.5747 61.7542 25.8067V18.7147H53.9062V25.7347C53.9062 26.5507 54.0862 27.1747 54.4462 27.6067H50.6302ZM79.5351 22.6027V22.7827C79.5351 24.4867 78.7791 25.8307 77.2671 26.8147C75.7551 27.7987 73.9431 28.2907 71.8311 28.2907C69.6951 28.2907 68.0031 28.0147 66.7551 27.4627V25.3747C68.0751 26.3107 69.7551 26.7907 71.7951 26.8147C73.2831 26.8147 74.5311 26.4427 75.5391 25.6987C76.5711 24.9547 77.0871 23.9227 77.0871 22.6027C77.0631 21.5467 76.5471 20.6827 75.5391 20.0107C74.4351 19.2667 73.1391 18.8947 71.6511 18.8947C70.9791 18.8947 70.2951 19.0147 69.5991 19.2547V17.4907C70.1511 17.6107 70.6431 17.6707 71.0751 17.6707C72.9471 17.6707 74.3991 17.3707 75.4311 16.7707C76.4631 16.1707 76.9791 15.3547 76.9791 14.3227V14.2507C76.9551 13.3627 76.5231 12.6547 75.6831 12.1267C74.8431 11.5987 73.7871 11.3347 72.5151 11.3347C71.2191 11.3347 70.0791 11.5867 69.0951 12.0907V10.1827C70.0071 9.91869 71.0631 9.78669 72.2631 9.78669C74.2311 9.78669 75.8271 10.0867 77.0511 10.6867C78.5151 11.4067 79.2591 12.4987 79.2831 13.9627V14.0347C79.2831 15.9067 78.2271 17.2507 76.1151 18.0667L75.6471 18.2467L76.3311 18.4987C78.3711 19.2187 79.4391 20.5867 79.5351 22.6027ZM83.2873 30.8107C85.0633 32.5867 87.1033 33.4747 89.4073 33.4747C91.3993 33.4747 92.7913 33.0067 93.5833 32.0707C94.3993 31.1587 94.8073 30.0667 94.8073 28.7947V26.0947C93.4393 27.5107 91.6033 28.2187 89.2993 28.2187C86.9953 28.2187 85.1233 27.3187 83.6833 25.5187C82.2433 23.7187 81.5233 21.5587 81.5233 19.0387V18.8947C81.5713 16.3027 82.2913 14.0947 83.6833 12.2707C85.0993 10.4227 87.0553 9.48669 89.5513 9.46269C91.2553 9.46269 92.8633 10.0627 94.3753 11.2627L94.8073 11.5867V10.0027H98.6593C98.3473 10.4827 98.1433 10.9027 98.0473 11.2627C97.9753 11.5987 97.9393 12.2827 97.9393 13.3147V27.2827C97.9393 29.8987 97.2553 31.9147 95.8873 33.3307C94.5193 34.7467 92.5873 35.4547 90.0913 35.4547C87.2353 35.4547 84.8353 34.5547 82.8913 32.7547L83.2873 30.8107ZM94.9873 16.5547C94.9873 15.1147 94.4473 13.9267 93.3673 12.9907C92.3113 12.0307 91.0513 11.5507 89.5873 11.5507C88.1233 11.5507 86.9113 12.2467 85.9513 13.6387C84.9913 15.0307 84.5113 16.7587 84.5113 18.8227V18.9667C84.5113 21.1027 85.0033 22.8427 85.9873 24.1867C86.9713 25.5307 88.2913 26.2267 89.9473 26.2747H90.1273C91.5673 26.2747 92.7313 25.7467 93.6193 24.6907C94.5313 23.6107 94.9873 22.2667 94.9873 20.6587V16.5547ZM109.649 26.0587C111.377 26.0587 112.697 25.3987 113.609 24.0787C114.545 22.7347 115.013 20.9827 115.013 18.8227C115.013 16.6627 114.533 14.9107 113.573 13.5667C112.637 12.1987 111.305 11.5147 109.577 11.5147C108.017 11.5147 106.697 12.1627 105.617 13.4587C104.537 14.7547 103.997 16.5667 103.997 18.8947C103.997 20.9827 104.465 22.6987 105.401 24.0427C106.361 25.3867 107.777 26.0587 109.649 26.0587ZM101.369 34.4107V12.2347C101.369 11.3947 101.153 10.7347 100.721 10.2547L104.249 9.78669V12.0547C105.737 10.4227 107.573 9.60669 109.757 9.60669C112.325 9.63069 114.317 10.5307 115.733 12.3067C117.149 14.0587 117.857 16.2067 117.857 18.7507V18.8227C117.833 21.3907 117.113 23.5387 115.697 25.2667C114.281 26.9707 112.277 27.8467 109.685 27.8947C107.453 27.8947 105.581 27.0907 104.069 25.4827V34.4107H101.369ZM133.699 25.0507C133.699 26.0107 133.915 26.8627 134.347 27.6067H131.035V25.8787C130.027 27.2707 128.479 27.9667 126.391 27.9667C124.399 27.9667 122.839 27.4987 121.711 26.5627C120.583 25.6027 120.019 24.3547 120.019 22.8187C120.019 21.1627 120.523 19.9147 121.531 19.0747C122.563 18.2347 123.847 17.6947 125.383 17.4547L128.623 16.9507C130.183 16.6867 130.963 15.9667 130.963 14.7907C130.963 13.9267 130.591 13.2067 129.847 12.6307C129.103 12.0547 127.987 11.7667 126.499 11.7667C124.771 11.7667 123.139 12.3187 121.603 13.4227V10.8667C123.115 10.1707 124.771 9.82269 126.571 9.82269C129.283 9.82269 131.143 10.3267 132.151 11.3347C133.183 12.3427 133.699 13.7827 133.699 15.6547V25.0507ZM131.107 17.8867C130.651 18.3907 129.163 18.8347 126.643 19.2187C123.979 19.6507 122.647 20.8627 122.647 22.8547C122.647 23.8147 122.983 24.6187 123.655 25.2667C124.327 25.8907 125.287 26.2027 126.535 26.2027C127.783 26.1787 128.851 25.7347 129.739 24.8707C130.651 24.0067 131.107 22.8907 131.107 21.5227V17.8867ZM137.088 11.9107C137.088 11.3827 136.824 10.7947 136.296 10.1467H142.956C144.372 10.1467 145.572 10.5667 146.556 11.4067C147.54 12.2467 148.08 13.2427 148.176 14.3947V14.5027C148.176 15.8947 147.384 16.9627 145.8 17.7067L145.044 18.1027L145.8 18.2827C148.32 18.9787 149.58 20.4067 149.58 22.5667C149.58 24.1267 148.932 25.3627 147.636 26.2747C146.364 27.1627 144.612 27.6067 142.38 27.6067H136.512C136.896 27.1267 137.088 26.6347 137.088 26.1307V11.9107ZM144.504 12.2347C143.784 11.7067 142.8 11.4427 141.552 11.4427H139.644V17.5987H141.372C142.812 17.5987 143.88 17.3227 144.576 16.7707C145.296 16.2187 145.656 15.4747 145.656 14.5387V14.3947C145.608 13.4827 145.224 12.7627 144.504 12.2347ZM141.444 18.8587C140.7 18.8587 140.136 18.8947 139.752 18.9667V26.2747C140.232 26.4187 140.64 26.4907 140.976 26.4907C142.8 26.4907 144.252 26.1427 145.332 25.4467C146.436 24.7507 146.988 23.8267 146.988 22.6747V22.5667C146.94 20.1907 145.092 18.9547 141.444 18.8587ZM162.576 25.0867C162.576 26.0467 162.756 26.9347 163.116 27.7507H158.796C159.18 27.1987 159.396 26.7907 159.444 26.5267C159.492 26.2627 159.516 25.6987 159.516 24.8347V4.96269C159.516 4.17069 159.48 3.67869 159.408 3.48669C159.336 3.27069 159.168 2.95869 158.904 2.55069H166.824C168.888 2.55069 170.64 3.21069 172.08 4.53069C173.52 5.77869 174.24 7.32669 174.24 9.17469V9.35469C174.168 11.2987 173.448 12.8707 172.08 14.0707C170.736 15.3427 169.02 15.9787 166.932 15.9787H166.716C164.916 15.9067 163.536 15.5707 162.576 14.9707V25.0867ZM169.704 5.64669C168.84 4.87869 167.448 4.45869 165.528 4.38669H164.988C163.956 4.38669 163.152 4.49469 162.576 4.71069V13.9267C163.44 14.4067 164.34 14.6467 165.276 14.6467H165.528C167.232 14.5987 168.576 14.0947 169.56 13.1347C170.544 12.1747 171.036 10.9627 171.036 9.49869V9.28269C170.988 7.67469 170.544 6.46269 169.704 5.64669ZM197.403 27.2827C195.651 27.9067 193.251 28.2187 190.203 28.2187C186.315 28.2187 183.051 27.0307 180.411 24.6547C177.627 22.2067 176.223 19.0867 176.199 15.2947V15.1867C176.199 11.4907 177.579 8.41869 180.339 5.97069C183.099 3.49869 186.555 2.26269 190.707 2.26269H190.815C193.215 2.31069 195.279 2.68269 197.007 3.37869V6.04269C195.015 4.93869 192.975 4.37469 190.887 4.35069H190.563C187.395 4.35069 184.743 5.39469 182.607 7.48269C180.495 9.54669 179.427 12.1507 179.403 15.2947V15.5107C179.403 18.6547 180.507 21.2227 182.715 23.2147C184.851 25.0867 187.479 26.0227 190.599 26.0227H191.067C193.995 25.9747 196.611 25.1587 198.915 23.5747L197.403 27.2827ZM200.772 17.8147C200.772 11.6227 202.5 5.92269 205.956 0.714688H208.512C206.952 3.13869 205.764 5.74269 204.948 8.52669C204.156 11.3107 203.76 14.5387 203.76 18.2107V20.8747C203.76 26.6587 205.32 32.1307 208.44 37.2907H206.172C204.324 34.4347 202.956 31.4227 202.068 28.2547C201.204 25.0867 200.772 22.3867 200.772 20.1547V17.8147ZM223.26 4.17069C220.26 4.31469 218.664 5.74269 218.472 8.45469V8.81469C218.472 10.0147 218.904 11.0107 219.768 11.8027C220.872 12.7627 222.564 13.2427 224.844 13.2427C225.228 13.2427 225.54 13.2307 225.78 13.2067V4.60269C225.132 4.31469 224.292 4.17069 223.26 4.17069ZM210.3 27.7867C210.852 27.3787 211.344 26.9947 211.776 26.6347C212.208 26.2507 212.904 25.4467 213.864 24.2227L219.984 16.6267C220.512 15.9787 220.992 15.4507 221.424 15.0427C221.88 14.6347 222.108 14.4187 222.108 14.3947C222.084 14.3947 222.06 14.4067 222.036 14.4307H221.424C219.912 14.4307 218.58 13.9027 217.428 12.8467C216.06 11.6467 215.352 10.1587 215.304 8.38269V8.20269C215.304 6.52269 215.916 5.15469 217.14 4.09869C218.388 3.04269 219.924 2.51469 221.748 2.51469H229.668C229.38 3.06669 229.188 3.58269 229.092 4.06269C228.996 4.54269 228.948 5.20269 228.948 6.04269V24.0067C228.948 25.3747 228.972 26.2027 229.02 26.4907C229.068 26.7547 229.224 27.1507 229.488 27.6787H225.312C225.552 27.0307 225.696 26.5987 225.744 26.3827C225.792 26.1427 225.816 25.6987 225.816 25.0507V13.7827L225.744 13.8547L225.06 14.6107L214.728 27.7867H210.3ZM239.201 20.1547C239.201 22.3867 238.697 25.3027 237.689 28.9027C236.897 31.6627 235.589 34.4587 233.765 37.2907H231.533C233.117 34.6747 234.317 31.8787 235.133 28.9027C235.853 26.0947 236.213 23.4187 236.213 20.8747V18.2107C236.213 11.5867 234.629 5.75469 231.461 0.714688H233.981C235.421 2.85069 236.561 5.14269 237.401 7.59069C238.601 11.0947 239.201 14.5027 239.201 17.8147V20.1547Z" fill="#0081C9"/>
</svg>
