<svg width="162" height="33" viewBox="0 0 162 33" fill="none" xmlns="http://www.w3.org/2000/svg">
<path d="M0.200027 21.5747C2.50403 23.1587 5.12003 23.9747 8.04803 24.0227H8.51603C11.636 24.0227 14.264 23.0867 16.4 21.2147C18.416 19.3907 19.52 17.0867 19.712 14.3027H8.87603V12.0347H19.676C19.388 9.44269 18.332 7.25869 16.508 5.48269C14.372 3.39469 11.72 2.35069 8.55203 2.35069H8.22803C6.14003 2.37469 4.10003 2.93869 2.10803 4.04269V1.37869C3.83603 0.682688 5.90003 0.310688 8.30003 0.262687H8.40803C12.56 0.262687 16.016 1.49869 18.776 3.97069C21.536 6.41869 22.916 9.49069 22.916 13.1867V13.2947C22.892 17.0867 21.488 20.2067 18.704 22.6547C16.064 25.0307 12.8 26.2187 8.91203 26.2187C5.86403 26.2187 3.46403 25.9067 1.71203 25.2827L0.200027 21.5747ZM39.2806 25.1027C38.1766 25.6307 36.5566 25.8947 34.4206 25.8947C31.4926 25.8947 29.1646 25.0427 27.4366 23.3387C25.7086 21.6347 24.8446 19.4747 24.8446 16.8587C24.8446 14.4347 25.6966 12.3467 27.4006 10.5947C29.1286 8.84269 31.4326 7.96669 34.3126 7.96669C35.9446 7.96669 37.4806 8.23069 38.9206 8.75869V11.1347C37.6966 10.2707 36.1606 9.83869 34.3126 9.83869C32.3446 9.83869 30.7486 10.4987 29.5246 11.8187C28.3006 13.1387 27.6886 14.8907 27.6886 17.0747C27.6886 19.2107 28.3246 20.9027 29.5966 22.1507C30.8926 23.3987 32.5846 24.0227 34.6726 24.0227C36.5206 24.0227 38.2126 23.4947 39.7486 22.4387L39.2806 25.1027ZM55.5796 32.4107V25.7867H55.0756C55.3396 25.1387 55.5076 24.6347 55.5796 24.2747V23.4827C54.0676 25.0907 52.1956 25.8947 49.9636 25.8947C47.3716 25.8467 45.3676 24.9707 43.9516 23.2667C42.5356 21.5387 41.8156 19.3907 41.7916 16.8227V16.7507C41.7916 14.2067 42.4996 12.0587 43.9156 10.3067C45.3316 8.53069 47.3236 7.63069 49.8916 7.60669C52.0756 7.60669 53.9116 8.42269 55.3996 10.0547V8.79469C55.3036 8.60269 55.1836 8.42269 55.0396 8.25469L55.3996 8.21869V7.78669L55.6876 7.82269V4.54669C55.6876 2.93869 55.4476 1.71469 54.9676 0.874688L58.5676 0.622689L58.5316 7.78669H58.5676V8.21869L58.9276 8.25469C58.7836 8.42269 58.6636 8.60269 58.5676 8.79469V10.0547C60.0556 8.42269 61.8916 7.60669 64.0756 7.60669C66.6436 7.63069 68.6356 8.53069 70.0516 10.3067C71.4676 12.0587 72.1756 14.2067 72.1756 16.7507V16.8227C72.1516 19.3907 71.4316 21.5387 70.0156 23.2667C68.5996 24.9707 66.5956 25.8467 64.0036 25.8947C61.8676 25.8947 60.0676 25.1747 58.6036 23.7347C58.6996 24.4307 58.8916 25.1147 59.1796 25.7867H58.3876V32.4107H55.5796ZM49.9996 24.0587C51.8716 24.0587 53.2756 23.3867 54.2116 22.0427C55.1716 20.6987 55.6516 18.9827 55.6516 16.8947C55.6516 14.5667 55.1116 12.7547 54.0316 11.4587C52.9516 10.1627 51.6316 9.51469 50.0716 9.51469C48.3436 9.51469 46.9996 10.1987 46.0396 11.5667C45.1036 12.9107 44.6356 14.6627 44.6356 16.8227C44.6356 18.9827 45.0916 20.7347 46.0036 22.0787C46.9396 23.3987 48.2716 24.0587 49.9996 24.0587ZM63.9676 24.0587C65.6956 24.0587 67.0156 23.3987 67.9276 22.0787C68.8636 20.7347 69.3316 18.9827 69.3316 16.8227C69.3316 14.6627 68.8516 12.9107 67.8916 11.5667C66.9556 10.1987 65.6236 9.51469 63.8956 9.51469C62.3356 9.51469 61.0156 10.1627 59.9356 11.4587C59.2636 12.2747 58.7956 13.2947 58.5316 14.5187V19.2347C58.7476 20.3147 59.1436 21.2507 59.7196 22.0427C60.6796 23.3867 62.0956 24.0587 63.9676 24.0587ZM76.8404 15.8867C76.7924 16.5347 76.7684 17.0987 76.7684 17.5787C76.7684 19.3307 77.3204 20.8667 78.4244 22.1867C79.5284 23.4827 81.1244 24.1307 83.2124 24.1307C85.4204 24.1307 87.2324 23.5307 88.6484 22.3307L88.2884 24.8147C86.9204 25.6307 85.2044 26.0387 83.1404 26.0387C80.3324 26.0387 78.0764 25.1987 76.3724 23.5187C74.6924 21.8147 73.8524 19.5467 73.8524 16.7147C73.8524 14.1947 74.5964 12.1187 76.0844 10.4867C77.5964 8.83069 79.4444 8.00269 81.6284 8.00269H81.8084C83.9204 8.02669 85.6364 8.78269 86.9564 10.2707C88.2764 11.7347 88.9604 13.6067 89.0084 15.8867H76.8404ZM86.2724 13.9787C85.7684 11.2907 84.3044 9.94669 81.8804 9.94669H81.7724C80.6924 9.94669 79.7324 10.3067 78.8924 11.0267C78.0524 11.7227 77.5124 12.7067 77.2724 13.9787H86.2724ZM99.9743 24.0587C101.702 24.0587 103.022 23.3987 103.934 22.0787C104.87 20.7347 105.338 18.9827 105.338 16.8227C105.338 14.6627 104.858 12.9107 103.898 11.5667C102.962 10.1987 101.63 9.51469 99.9023 9.51469C98.3423 9.51469 97.0223 10.1627 95.9423 11.4587C94.8623 12.7547 94.3223 14.5667 94.3223 16.8947C94.3223 18.9827 94.7903 20.6987 95.7263 22.0427C96.6863 23.3867 98.1023 24.0587 99.9743 24.0587ZM91.6943 32.4107V10.2347C91.6943 9.39469 91.4783 8.73469 91.0463 8.25469L94.5743 7.78669V10.0547C96.0623 8.42269 97.8983 7.60669 100.082 7.60669C102.65 7.63069 104.642 8.53069 106.058 10.3067C107.474 12.0587 108.182 14.2067 108.182 16.7507V16.8227C108.158 19.3907 107.438 21.5387 106.022 23.2667C104.606 24.9707 102.602 25.8467 100.01 25.8947C97.7783 25.8947 95.9063 25.0907 94.3943 23.4827V32.4107H91.6943ZM124.024 23.0507C124.024 24.0107 124.24 24.8627 124.672 25.6067H121.36V23.8787C120.352 25.2707 118.804 25.9667 116.716 25.9667C114.724 25.9667 113.164 25.4987 112.036 24.5627C110.908 23.6027 110.344 22.3547 110.344 20.8187C110.344 19.1627 110.848 17.9147 111.856 17.0747C112.888 16.2347 114.172 15.6947 115.708 15.4547L118.948 14.9507C120.508 14.6867 121.288 13.9667 121.288 12.7907C121.288 11.9267 120.916 11.2067 120.172 10.6307C119.428 10.0547 118.312 9.76669 116.824 9.76669C115.096 9.76669 113.464 10.3187 111.928 11.4227V8.86669C113.44 8.17069 115.096 7.82269 116.896 7.82269C119.608 7.82269 121.468 8.32669 122.476 9.33469C123.508 10.3427 124.024 11.7827 124.024 13.6547V23.0507ZM121.432 15.8867C120.976 16.3907 119.488 16.8347 116.968 17.2187C114.304 17.6507 112.972 18.8627 112.972 20.8547C112.972 21.8147 113.308 22.6187 113.98 23.2667C114.652 23.8907 115.612 24.2027 116.86 24.2027C118.108 24.1787 119.176 23.7347 120.064 22.8707C120.976 22.0067 121.432 20.8907 121.432 19.5227V15.8867ZM130.833 22.6907C130.617 23.2907 130.509 23.7707 130.509 24.1307C130.509 24.4667 130.653 24.9587 130.941 25.6067H126.621C127.053 25.1747 127.377 24.7907 127.593 24.4547C127.809 24.1187 128.049 23.6387 128.313 23.0147L135.333 6.77869L143.001 23.8427C143.361 24.5627 143.805 25.1507 144.333 25.6067H139.257C139.641 25.2707 139.833 24.9587 139.833 24.6707C139.857 24.6467 139.869 24.6227 139.869 24.5987C139.869 24.2867 139.773 23.8427 139.581 23.2667L135.081 12.1067L130.833 22.6907ZM149.694 18.0827V20.9987C149.694 22.1507 150.162 23.0507 151.098 23.6987C152.058 24.3227 153.138 24.6347 154.338 24.6347C155.754 24.6347 156.954 24.2027 157.938 23.3387C158.946 22.4507 159.45 21.2027 159.45 19.5947C159.45 17.8187 158.946 16.5107 157.938 15.6707C156.93 14.8067 155.778 14.3747 154.482 14.3747C153.306 14.3747 152.214 14.7227 151.206 15.4187C150.198 16.1147 149.694 17.0027 149.694 18.0827ZM147.174 10.5947C147.174 9.65869 147.078 9.01069 146.886 8.65069C146.886 8.50669 146.742 8.30269 146.454 8.03869L149.586 7.82269V14.6267C150.81 13.6427 152.442 13.1507 154.482 13.1507C156.834 13.1507 158.67 13.7867 159.99 15.0587C161.31 16.3067 161.97 17.8187 161.97 19.5947C161.97 21.3467 161.298 22.8347 159.954 24.0587C158.61 25.2827 156.93 25.8947 154.914 25.8947C152.73 25.8947 151.014 25.3907 149.766 24.3827V25.6067H146.49C146.946 24.9587 147.174 24.2027 147.174 23.3387V10.5947Z" fill="#2C8B1C"/>
</svg>
