<svg width="88" height="30" viewBox="0 0 88 30" fill="none" xmlns="http://www.w3.org/2000/svg">
<path d="M13.436 18.0827C13.604 18.0827 13.748 18.1427 13.868 18.2627C13.988 18.3587 14.048 18.4907 14.048 18.6587V24.9227C14.048 25.1147 13.988 25.2707 13.868 25.3907C13.748 25.4867 13.604 25.5347 13.436 25.5347C13.052 25.5347 12.86 25.3307 12.86 24.9227V18.6587C12.86 18.2747 13.052 18.0827 13.436 18.0827ZM13.076 12.5027C13.244 12.3347 13.412 12.2507 13.58 12.2507C13.724 12.2507 13.832 12.2867 13.904 12.3587C14.24 12.5747 14.3 12.8507 14.084 13.1867L7.1 23.5547C6.98 23.7467 6.824 23.8427 6.632 23.8427C6.488 23.8427 6.368 23.8067 6.272 23.7347C6.152 23.6387 6.068 23.5067 6.02 23.3387C5.996 23.1707 6.032 23.0267 6.128 22.9067L13.076 12.5027ZM9.44 4.54669C8.744 4.54669 8.096 4.60669 7.496 4.72669C6.92 4.82269 6.428 5.01469 6.02 5.30269C5.612 5.56669 5.288 5.95069 5.048 6.45469C4.832 6.93469 4.724 7.55869 4.724 8.32669C4.724 9.81469 5.12 10.8347 5.912 11.3867C6.728 11.9387 7.832 12.2147 9.224 12.2147H10.34C10.508 12.2147 10.652 12.2747 10.772 12.3947C10.892 12.4907 10.952 12.6227 10.952 12.7907C10.952 12.9587 10.892 13.1027 10.772 13.2227C10.652 13.3427 10.508 13.4027 10.34 13.4027H9.224C5.432 13.4027 3.536 11.7107 3.536 8.32669C3.536 7.36669 3.68 6.57469 3.968 5.95069C4.256 5.30269 4.652 4.78669 5.156 4.40269C5.684 4.01869 6.308 3.75469 7.028 3.61069C7.772 3.44269 8.576 3.35869 9.44 3.35869H16.604C16.796 3.35869 16.94 3.41869 17.036 3.53869C17.156 3.65869 17.216 3.80269 17.216 3.97069V24.9227C17.216 25.3307 17.012 25.5347 16.604 25.5347C16.22 25.5347 16.028 25.3307 16.028 24.9227V4.54669H9.44ZM7.244 16.0667C5.084 15.7787 3.38 14.9627 2.132 13.6187C0.908 12.2507 0.296 10.4627 0.296 8.25469C0.296 5.59069 0.992 3.64669 2.384 2.42269C3.776 1.17469 5.744 0.550688 8.288 0.550688H13.4C13.784 0.550688 13.976 0.742688 13.976 1.12669C13.976 1.53469 13.784 1.73869 13.4 1.73869H8.288C6.056 1.73869 4.364 2.25469 3.212 3.28669C2.06 4.29469 1.484 5.95069 1.484 8.25469C1.484 9.28669 1.64 10.2107 1.952 11.0267C2.288 11.8427 2.756 12.5387 3.356 13.1147C3.956 13.6907 4.676 14.1347 5.516 14.4467C6.356 14.7587 7.28 14.9147 8.288 14.9147C8.528 14.9147 8.708 15.0227 8.828 15.2387C8.948 15.4787 8.936 15.6827 8.792 15.8507L2.384 25.2827C2.264 25.4507 2.096 25.5347 1.88 25.5347C1.76 25.5347 1.652 25.4987 1.556 25.4267C1.244 25.2107 1.196 24.9347 1.412 24.5987L7.244 16.0667ZM5.3 24.2747C5.348 24.2507 5.42 24.2387 5.516 24.2387C5.804 24.2387 6.008 24.3827 6.128 24.6707V24.7067C6.176 24.8747 6.152 25.0427 6.056 25.2107C5.96 25.3547 5.78 25.4627 5.516 25.5347C5.18 25.5347 4.976 25.3907 4.904 25.1027H4.868C4.82 24.9107 4.832 24.7427 4.904 24.5987C4.976 24.4307 5.108 24.3227 5.3 24.2747ZM25.7224 22.9427C25.3384 22.9427 25.1464 22.7507 25.1464 22.3667V14.6267C25.1464 14.2427 25.3384 14.0507 25.7224 14.0507H28.5304C28.8424 14.0507 29.2984 13.9667 29.8984 13.7987C30.5224 13.6307 31.1464 13.3067 31.7704 12.8267C33.2344 11.6267 33.9664 9.85069 33.9664 7.49869C33.9664 6.65869 33.8464 5.87869 33.6064 5.15869C33.3664 4.43869 33.0184 3.82669 32.5624 3.32269C32.1064 2.79469 31.5304 2.38669 30.8344 2.09869C30.1624 1.78669 29.3944 1.63069 28.5304 1.63069H25.6864C25.5184 1.63069 25.3744 1.57069 25.2544 1.45069C25.1344 1.33069 25.0744 1.18669 25.0744 1.01869C25.0744 0.850688 25.1344 0.718688 25.2544 0.622689C25.3744 0.502688 25.5184 0.442687 25.6864 0.442687H28.5304C29.5864 0.442687 30.5224 0.622688 31.3384 0.982689C32.1784 1.34269 32.8744 1.84669 33.4264 2.49469C34.0024 3.11869 34.4344 3.86269 34.7224 4.72669C35.0104 5.59069 35.1544 6.51469 35.1544 7.49869C35.1544 8.67469 34.9504 9.82669 34.5424 10.9547C34.1344 12.0587 33.4504 12.9827 32.4904 13.7267C31.7944 14.2787 31.0744 14.6747 30.3304 14.9147C29.6104 15.1307 29.0104 15.2387 28.5304 15.2387H26.3344V22.3667C26.3344 22.5347 26.2744 22.6787 26.1544 22.7987C26.0344 22.8947 25.8904 22.9427 25.7224 22.9427ZM21.9064 4.22269C21.9064 4.05469 21.9544 3.91069 22.0504 3.79069C22.1704 3.67069 22.3264 3.61069 22.5184 3.61069H27.1984C27.8464 3.61069 28.4584 3.69469 29.0344 3.86269C29.6344 4.00669 30.1504 4.24669 30.5824 4.58269C31.0144 4.91869 31.3624 5.35069 31.6264 5.87869C31.8904 6.40669 32.0224 7.03069 32.0224 7.75069C32.0224 8.47069 31.8904 9.09469 31.6264 9.62269C31.3864 10.1507 31.0384 10.6067 30.5824 10.9907C30.1504 11.3507 29.6344 11.6267 29.0344 11.8187C28.4584 11.9867 27.8464 12.0707 27.1984 12.0707H25.7224C25.3384 12.0707 25.1464 11.8787 25.1464 11.4947V8.97469C25.1464 8.59069 25.3384 8.39869 25.7224 8.39869C25.8904 8.39869 26.0344 8.45869 26.1544 8.57869C26.2744 8.67469 26.3344 8.80669 26.3344 8.97469V10.8827H27.1984C28.1824 10.8827 29.0344 10.6307 29.7544 10.1267C30.4744 9.62269 30.8344 8.83069 30.8344 7.75069C30.8344 7.19869 30.7264 6.74269 30.5104 6.38269C30.3184 5.99869 30.0544 5.68669 29.7184 5.44669C29.4064 5.20669 29.0224 5.03869 28.5664 4.94269C28.1344 4.84669 27.6784 4.79869 27.1984 4.79869H23.0944V25.1027C23.0944 25.2707 23.0344 25.4147 22.9144 25.5347C22.8184 25.6547 22.6864 25.7147 22.5184 25.7147C22.3264 25.7147 22.1704 25.6547 22.0504 25.5347C21.9544 25.4147 21.9064 25.2707 21.9064 25.1027V4.22269ZM25.5424 7.57069C25.3504 7.52269 25.2184 7.42669 25.1464 7.28269C25.0744 7.11469 25.0624 6.94669 25.1104 6.77869V6.74269C25.2304 6.45469 25.4464 6.31069 25.7584 6.31069C25.8304 6.31069 25.8904 6.32269 25.9384 6.34669C26.1304 6.39469 26.2624 6.50269 26.3344 6.67069C26.4064 6.81469 26.4184 6.98269 26.3704 7.17469H26.3344C26.2624 7.46269 26.0584 7.60669 25.7224 7.60669L25.5424 7.57069ZM37.6654 12.8627C37.6654 11.7107 37.8094 10.5707 38.0974 9.44269C38.4094 8.31469 38.8414 7.25869 39.3934 6.27469C39.9694 5.26669 40.6654 4.35469 41.4814 3.53869C42.2974 2.72269 43.2214 2.05069 44.2534 1.52269C44.3014 1.47469 44.3974 1.45069 44.5414 1.45069C44.7574 1.45069 44.9254 1.54669 45.0454 1.73869C45.1414 1.90669 45.1534 2.07469 45.0814 2.24269C45.0334 2.38669 44.9374 2.49469 44.7934 2.56669C43.8574 3.07069 43.0174 3.69469 42.2734 4.43869C41.5294 5.15869 40.9054 5.97469 40.4014 6.88669C39.8974 7.77469 39.5134 8.73469 39.2494 9.76669C38.9854 10.7747 38.8534 11.8067 38.8534 12.8627C38.8534 14.3267 39.1054 15.7547 39.6094 17.1467C40.1374 18.5147 40.8574 19.7267 41.7694 20.7827C42.7054 21.8387 43.8094 22.6907 45.0814 23.3387C46.3774 23.9627 47.7934 24.2747 49.3294 24.2747C50.8654 24.2747 52.2694 23.9627 53.5414 23.3387C54.8134 22.6907 55.9054 21.8387 56.8174 20.7827C57.7534 19.7027 58.4734 18.4787 58.9774 17.1107C59.5054 15.7427 59.7694 14.3267 59.7694 12.8627C59.7694 11.4467 59.5294 10.0787 59.0494 8.75869C58.5694 7.41469 57.8974 6.22669 57.0334 5.19469C56.1694 4.13869 55.1254 3.27469 53.9014 2.60269C52.7014 1.93069 51.3694 1.54669 49.9054 1.45069V4.00669C49.9054 4.39069 49.7134 4.58269 49.3294 4.58269C48.2254 4.58269 47.2174 4.81069 46.3054 5.26669C45.3934 5.72269 44.6134 6.33469 43.9654 7.10269C43.3414 7.87069 42.8494 8.74669 42.4894 9.73069C42.1534 10.7147 41.9854 11.7347 41.9854 12.7907C41.9854 13.8227 42.1534 14.8307 42.4894 15.8147C42.8494 16.7987 43.3534 17.6747 44.0014 18.4427C44.6494 19.2107 45.4174 19.8227 46.3054 20.2787C47.2174 20.7347 48.2254 20.9627 49.3294 20.9627C50.4334 20.9627 51.4414 20.7347 52.3534 20.2787C53.2654 19.8227 54.0454 19.2227 54.6934 18.4787C55.3414 17.7107 55.8334 16.8347 56.1694 15.8507C56.5294 14.8667 56.7094 13.8467 56.7094 12.7907C56.7094 11.0627 56.2894 9.51469 55.4494 8.14669C54.6334 6.77869 53.5174 5.78269 52.1014 5.15869C51.9574 5.11069 51.8494 5.01469 51.7774 4.87069C51.7294 4.70269 51.7414 4.54669 51.8134 4.40269C51.8854 4.16269 52.0654 4.04269 52.3534 4.04269C52.4494 4.04269 52.5214 4.05469 52.5694 4.07869C53.3854 4.43869 54.1174 4.91869 54.7654 5.51869C55.4134 6.09469 55.9654 6.76669 56.4214 7.53469C56.9014 8.27869 57.2614 9.09469 57.5014 9.98269C57.7654 10.8707 57.8974 11.8067 57.8974 12.7907C57.8974 14.0147 57.6814 15.1907 57.2494 16.3187C56.8414 17.4467 56.2654 18.4427 55.5214 19.3067C54.7774 20.1707 53.8774 20.8667 52.8214 21.3947C51.7654 21.8987 50.6014 22.1507 49.3294 22.1507C48.0574 22.1507 46.8934 21.8867 45.8374 21.3587C44.8054 20.8307 43.9054 20.1347 43.1374 19.2707C42.3934 18.4067 41.8174 17.4107 41.4094 16.2827C41.0014 15.1547 40.7974 13.9907 40.7974 12.7907C40.7974 11.6387 40.9774 10.5227 41.3374 9.44269C41.7214 8.33869 42.2614 7.36669 42.9574 6.52669C43.6534 5.66269 44.4814 4.95469 45.4414 4.40269C46.4254 3.82669 47.5174 3.50269 48.7174 3.43069V0.838689C48.7174 0.454688 48.9214 0.262687 49.3294 0.262687C51.0334 0.262687 52.5934 0.622688 54.0094 1.34269C55.4254 2.03869 56.6494 2.97469 57.6814 4.15069C58.7134 5.30269 59.5174 6.63469 60.0934 8.14669C60.6694 9.65869 60.9574 11.2307 60.9574 12.8627C60.9574 14.4947 60.6694 16.0787 60.0934 17.6147C59.5174 19.1267 58.7134 20.4707 57.6814 21.6467C56.6494 22.7987 55.4134 23.7227 53.9734 24.4187C52.5574 25.1147 51.0094 25.4627 49.3294 25.4627C47.6254 25.4627 46.0534 25.1147 44.6134 24.4187C43.1974 23.7227 41.9734 22.7987 40.9414 21.6467C39.9094 20.4707 39.1054 19.1267 38.5294 17.6147C37.9534 16.0787 37.6654 14.4947 37.6654 12.8627ZM45.8014 1.05469C45.8734 0.766689 46.0774 0.622689 46.4134 0.622689C46.5094 0.622689 46.5814 0.634689 46.6294 0.658689C46.7974 0.706688 46.9174 0.814688 46.9894 0.982689C47.0614 1.15069 47.0734 1.31869 47.0254 1.48669C46.9054 1.79869 46.7014 1.95469 46.4134 1.95469C46.1254 1.85869 45.9334 1.73869 45.8374 1.59469C45.7414 1.42669 45.7294 1.25869 45.8014 1.09069V1.05469ZM63.5798 28.6307C63.5798 29.0147 63.7838 29.2067 64.1918 29.2067C64.5758 29.2067 64.7678 29.0147 64.7678 28.6307V24.8867C64.7678 24.5027 64.5758 24.3107 64.1918 24.3107C63.7838 24.3107 63.5798 24.5027 63.5798 24.8867V28.6307ZM84.0278 0.478689H83.9198C83.5838 0.478689 83.3798 0.634688 83.3078 0.946687C83.2598 1.11469 83.2838 1.28269 83.3798 1.45069C83.4758 1.61869 83.6558 1.73869 83.9198 1.81069C84.2078 1.81069 84.4118 1.66669 84.5318 1.37869V1.34269C84.5798 1.17469 84.5678 1.00669 84.4958 0.838689C84.4238 0.694689 84.3038 0.586689 84.1358 0.514688L84.0278 0.478689ZM66.4598 21.7187V13.1867C66.4598 10.9067 66.8438 8.86669 67.6118 7.06669C67.9958 6.13069 68.5118 5.26669 69.1598 4.47469C69.8078 3.65869 70.5398 2.96269 71.3558 2.38669C72.1718 1.81069 73.0598 1.35469 74.0198 1.01869C74.9798 0.682688 75.9758 0.514688 77.0078 0.514688H80.8958C81.0638 0.514688 81.2078 0.574688 81.3278 0.694688C81.4478 0.814688 81.5078 0.958688 81.5078 1.12669C81.5078 1.29469 81.4478 1.43869 81.3278 1.55869C81.2078 1.65469 81.0638 1.70269 80.8958 1.70269H77.0078C76.2398 1.70269 75.3158 1.88269 74.2358 2.24269C73.1798 2.57869 72.1598 3.17869 71.1758 4.04269C69.8558 5.21869 68.9318 6.61069 68.4038 8.21869C67.8998 9.80269 67.6478 11.4587 67.6478 13.1867V21.1427H86.5478C86.9558 21.1427 87.1598 21.3347 87.1598 21.7187V28.5947C87.1598 28.7627 87.1118 28.9067 87.0158 29.0267C86.8958 29.1467 86.7398 29.2067 86.5478 29.2067C86.3798 29.2067 86.2478 29.1467 86.1518 29.0267C86.0318 28.9067 85.9718 28.7627 85.9718 28.5947V22.3307H67.0358C66.6518 22.3307 66.4598 22.1267 66.4598 21.7187ZM64.2638 21.0347H64.1558C63.8198 21.0347 63.6158 21.1907 63.5438 21.5027C63.4958 21.6707 63.5198 21.8387 63.6158 22.0067C63.7118 22.1747 63.8918 22.2947 64.1558 22.3667C64.4438 22.3667 64.6478 22.2227 64.7678 21.9347V21.8987C64.8158 21.7307 64.8038 21.5627 64.7318 21.3947C64.6598 21.2507 64.5398 21.1427 64.3718 21.0707L64.2638 21.0347ZM83.8838 28.6307C83.8838 28.7987 83.8238 28.9427 83.7038 29.0627C83.5838 29.1827 83.4398 29.2427 83.2718 29.2427C83.1038 29.2427 82.9598 29.1827 82.8398 29.0627C82.7438 28.9427 82.6958 28.7987 82.6958 28.6307V25.5707H68.0438V28.6307C68.0438 28.7987 67.9838 28.9427 67.8638 29.0627C67.7678 29.1827 67.6358 29.2427 67.4678 29.2427C67.2998 29.2427 67.1558 29.1827 67.0358 29.0627C66.9158 28.9427 66.8558 28.7987 66.8558 28.6307V24.9947C66.8558 24.8267 66.9158 24.6827 67.0358 24.5627C67.1558 24.4427 67.2998 24.3827 67.4678 24.3827H83.3078C83.4518 24.3827 83.5718 24.4187 83.6678 24.4907C83.6678 24.5147 83.6798 24.5267 83.7038 24.5267V24.5627H83.7398C83.7398 24.5867 83.7518 24.5987 83.7758 24.5987C83.8478 24.6947 83.8838 24.8147 83.8838 24.9587V28.6307ZM83.4158 4.76269H77.7998C77.0078 4.76269 76.2158 4.91869 75.4238 5.23069C74.6558 5.51869 73.9598 5.93869 73.3358 6.49069C72.3998 7.35469 71.7398 8.33869 71.3558 9.44269C70.9958 10.5227 70.8158 11.6867 70.8158 12.9347V19.4147C70.8158 19.5827 70.7558 19.7267 70.6358 19.8467C70.5398 19.9667 70.4078 20.0267 70.2398 20.0267C70.0718 20.0267 69.9278 19.9667 69.8078 19.8467C69.6878 19.7267 69.6278 19.5827 69.6278 19.4147V12.9347C69.6278 11.3027 69.9038 9.82669 70.4558 8.50669C71.1278 7.04269 72.0998 5.85469 73.3718 4.94269C74.6678 4.03069 76.1438 3.57469 77.7998 3.57469H84.0278C84.1958 3.57469 84.3278 3.63469 84.4238 3.75469C84.5438 3.87469 84.6038 4.01869 84.6038 4.18669V18.4787C84.6038 18.6467 84.5438 18.7907 84.4238 18.9107C84.3278 19.0307 84.1958 19.0907 84.0278 19.0907C83.8598 19.0907 83.7158 19.0307 83.5958 18.9107C83.4758 18.7907 83.4158 18.6467 83.4158 18.4787V4.76269ZM80.2838 6.92269C80.2838 6.51469 80.4758 6.31069 80.8598 6.31069C81.0278 6.31069 81.1718 6.37069 81.2918 6.49069C81.4118 6.58669 81.4718 6.73069 81.4718 6.92269V18.4427C81.4718 18.6347 81.4118 18.7907 81.2918 18.9107C81.1718 19.0067 81.0278 19.0547 80.8598 19.0547C80.4758 19.0547 80.2838 18.8507 80.2838 18.4427V6.92269Z" fill="#630EB8"/>
</svg>
