<svg width="86" height="34" viewBox="0 0 86 34" fill="none" xmlns="http://www.w3.org/2000/svg">
<path d="M0.15834 33.6067L2.79834 0.00668716H4.23834L6.87834 33.6067H5.43834L5.05434 28.8067H1.98234L1.59834 33.6067H0.15834ZM4.95834 27.3667L3.51834 9.60669L2.07834 27.3667H4.95834ZM20.0915 31.2067V2.40669C20.0915 1.67069 20.2995 1.09469 20.7155 0.678687C21.1635 0.230687 21.7555 0.00668716 22.4915 0.00668716H24.4115C25.1475 0.00668716 25.7235 0.230687 26.1395 0.678687C26.5875 1.09469 26.8115 1.67069 26.8115 2.40669V31.2067C26.8115 31.9427 26.5875 32.5347 26.1395 32.9827C25.7235 33.3987 25.1475 33.6067 24.4115 33.6067H22.4915C21.7555 33.6067 21.1635 33.3987 20.7155 32.9827C20.2995 32.5347 20.0915 31.9427 20.0915 31.2067ZM22.4915 32.1667H24.4115C25.0515 32.1667 25.3715 31.8467 25.3715 31.2067V2.40669C25.3715 1.76669 25.0515 1.44669 24.4115 1.44669H22.4915C21.8515 1.44669 21.5315 1.76669 21.5315 2.40669V31.2067C21.5315 31.8467 21.8515 32.1667 22.4915 32.1667ZM40.0246 0.00668716H44.3446C45.0806 0.00668716 45.6566 0.230687 46.0726 0.678687C46.5206 1.09469 46.7446 1.67069 46.7446 2.40669V26.4067C46.7446 27.1427 46.5206 27.7347 46.0726 28.1827C45.6566 28.5987 45.0806 28.8067 44.3446 28.8067H41.4646V33.6067H40.0246V0.00668716ZM44.3446 27.3667C44.9846 27.3667 45.3046 27.0467 45.3046 26.4067V2.40669C45.3046 1.76669 44.9846 1.44669 44.3446 1.44669H41.4646V27.3667H44.3446ZM62.3577 0.00668716H64.2777C65.0137 0.00668716 65.5897 0.230687 66.0057 0.678687C66.4537 1.09469 66.6777 1.67069 66.6777 2.40669V2.88669H65.2377V2.40669C65.2377 1.76669 64.9177 1.44669 64.2777 1.44669H62.3577C61.7177 1.44669 61.3977 1.76669 61.3977 2.40669V31.2067C61.3977 31.8467 61.7177 32.1667 62.3577 32.1667H64.2777C64.9177 32.1667 65.2377 31.8467 65.2377 31.2067V30.7267H66.6777V31.2067C66.6777 31.9427 66.4537 32.5347 66.0057 32.9827C65.5897 33.3987 65.0137 33.6067 64.2777 33.6067H62.3577C61.6217 33.6067 61.0297 33.3987 60.5817 32.9827C60.1657 32.5347 59.9577 31.9427 59.9577 31.2067V2.40669C59.9577 1.67069 60.1657 1.09469 60.5817 0.678687C61.0297 0.230687 61.6217 0.00668716 62.3577 0.00668716ZM78.4377 2.40669C78.4377 1.67069 78.6457 1.09469 79.0617 0.678687C79.5097 0.230687 80.1017 0.00668716 80.8377 0.00668716H85.1577V33.6067H83.7177V28.8067H82.5177L80.1177 33.6067H78.4377L80.8377 28.8067C80.1017 28.8067 79.5097 28.5987 79.0617 28.1827C78.6457 27.7347 78.4377 27.1427 78.4377 26.4067V2.40669ZM79.8777 26.4067C79.8777 27.0467 80.1977 27.3667 80.8377 27.3667H83.7177V1.44669H80.8377C80.1977 1.44669 79.8777 1.76669 79.8777 2.40669V26.4067Z" fill="#FF7878"/>
</svg>
