<svg width="127" height="28" viewBox="0 0 127 28" fill="none" xmlns="http://www.w3.org/2000/svg">
<path d="M20.7747 22.0587L20.4507 23.7147C20.1147 23.7147 19.8507 23.7027 19.6587 23.6787C17.9307 23.6307 16.6107 23.6067 15.6987 23.6067C13.6587 23.6067 12.2787 23.7507 11.5587 24.0387L11.7747 22.3827C12.9027 22.1667 13.6587 21.8547 14.0427 21.4467C14.4507 21.0147 14.6547 20.2947 14.6547 19.2867V14.1387H11.3427L7.9227 20.7627C7.3467 21.8667 6.7467 22.7187 6.1227 23.3187C5.5227 23.8947 4.9467 24.1827 4.3947 24.1827L0.866703 23.7867L0.758703 23.6067L0.974703 22.4187C2.1267 22.2987 3.0267 22.0347 3.6747 21.6267C4.3227 21.1947 4.9587 20.4387 5.5827 19.3587L7.8507 15.5427C8.1867 14.9907 8.4867 14.5587 8.7507 14.2467C9.0387 13.9347 9.3627 13.6707 9.7227 13.4547C7.9467 13.0467 6.5667 12.3027 5.5827 11.2227C4.6227 10.1187 4.1427 8.79869 4.1427 7.26269C4.1427 5.96669 4.4907 4.81469 5.1867 3.80669C5.9067 2.77469 6.8907 1.97069 8.1387 1.39469C9.4107 0.818688 10.8627 0.530688 12.4947 0.530688C12.8307 0.530688 13.4307 0.554688 14.2947 0.602687C15.2067 0.650688 15.8667 0.674689 16.2747 0.674689C17.5467 0.674689 18.9387 0.566689 20.4507 0.350688L20.3067 1.97069C19.5627 2.09069 19.0227 2.21069 18.6867 2.33069C18.3747 2.45069 18.1467 2.63069 18.0027 2.87069C17.8827 3.11069 17.7987 3.49469 17.7507 4.02269C17.6547 5.00669 17.5347 7.39469 17.3907 11.1867C17.2707 14.9787 17.2107 17.6427 17.2107 19.1787C17.2107 20.0187 17.2467 20.6307 17.3187 21.0147C17.4147 21.3987 17.5707 21.6627 17.7867 21.8067C18.0027 21.9507 18.3507 22.0227 18.8307 22.0227C19.2147 22.0227 19.8387 21.9867 20.7027 21.9147L20.7747 22.0587ZM14.6547 12.4107L14.6907 4.23869C14.6907 3.49469 14.4627 2.94269 14.0067 2.58269C13.5507 2.22269 12.8427 2.04269 11.8827 2.04269C10.3707 2.04269 9.1947 2.45069 8.3547 3.26669C7.5387 4.05869 7.1307 5.19869 7.1307 6.68669C7.1307 8.10269 7.5027 9.29069 8.2467 10.2507C9.0147 11.2107 10.0947 11.8707 11.4867 12.2307L14.6547 12.4107ZM24.8528 22.3467C25.6928 22.2027 26.2448 21.9867 26.5088 21.6987C26.7968 21.3867 26.9408 20.8347 26.9408 20.0427L26.9768 8.59469C26.9768 7.99469 26.9048 7.59869 26.7608 7.40669C26.6168 7.19069 26.3408 7.08269 25.9328 7.08269L24.9248 7.11869L24.8168 6.97469L25.0328 5.60669C25.1528 5.60669 25.5008 5.61869 26.0768 5.64269C26.6768 5.66669 27.4568 5.67869 28.4168 5.67869C29.0648 5.67869 29.7968 5.66669 30.6128 5.64269C31.4288 5.59469 32.0048 5.57069 32.3408 5.57069C34.5008 5.57069 36.1208 6.02669 37.2008 6.93869C38.3048 7.85069 38.8568 9.09869 38.8568 10.6827C38.8568 11.7387 38.5328 12.7467 37.8848 13.7067C37.2368 14.6667 36.3848 15.4467 35.3288 16.0467C34.2968 16.6227 33.1928 16.9107 32.0168 16.9107H29.5328L29.4968 19.4307C29.4968 20.2707 29.5208 20.8827 29.5688 21.2667C29.6408 21.6267 29.7608 21.8667 29.9288 21.9867C30.0968 22.1067 30.3848 22.1667 30.7928 22.1667C31.1048 22.1667 31.4168 22.1547 31.7288 22.1307C32.0408 22.1067 32.2448 22.0947 32.3408 22.0947L32.4128 22.2387L32.1248 23.6787C31.9088 23.6787 31.5128 23.6667 30.9368 23.6427C30.3608 23.6187 29.7728 23.6067 29.1728 23.6067C28.3808 23.6067 27.4328 23.6307 26.3288 23.6787C25.2248 23.7267 24.6608 23.7747 24.6368 23.8227L24.8528 22.3467ZM32.5928 15.3627C34.8248 15.0027 35.9408 13.6107 35.9408 11.1867C35.9408 9.84269 35.5208 8.85869 34.6808 8.23469C33.8408 7.58669 32.5088 7.26269 30.6848 7.26269C30.3488 7.26269 30.1448 7.28669 30.0728 7.33469C30.0008 7.35869 29.9528 7.47869 29.9288 7.69469C29.7368 10.7427 29.6288 13.1667 29.6048 14.9667L32.5928 15.3627ZM51.6914 24.1107C49.2674 17.5347 47.4554 12.7227 46.2554 9.67469H46.0754C45.9794 10.8267 45.7994 12.9747 45.5354 16.1187C45.2954 19.2627 45.1754 20.9907 45.1754 21.3027C45.1754 21.6147 45.2474 21.8427 45.3914 21.9867C45.5354 22.1067 45.7754 22.1667 46.1114 22.1667H47.2634L47.3354 22.2747L47.0834 23.7147C46.8674 23.7147 46.4474 23.6907 45.8234 23.6427C45.2234 23.6187 44.6234 23.6067 44.0234 23.6067C43.5434 23.6067 43.0274 23.6307 42.4754 23.6787C41.9234 23.7507 41.5634 23.7987 41.3954 23.8227L41.5394 22.3467C42.1634 22.2747 42.6074 22.0947 42.8714 21.8067C43.1354 21.4947 43.3154 20.9667 43.4114 20.2227C43.6034 18.5907 43.8554 16.2987 44.1674 13.3467C44.5034 10.3947 44.6714 8.73869 44.6714 8.37869C44.6714 7.89869 44.4794 7.55069 44.0954 7.33469C43.7354 7.09469 43.0994 6.95069 42.1874 6.90269L42.0794 6.72269L42.3314 5.53469C42.5954 5.55869 43.0634 5.59469 43.7354 5.64269C44.4074 5.66669 45.0554 5.67869 45.6794 5.67869C46.2074 5.67869 46.6874 5.66669 47.1194 5.64269C47.5754 5.61869 47.8754 5.59469 48.0194 5.57069C48.7394 7.80269 49.4354 9.90269 50.1074 11.8707C50.8034 13.8147 51.3674 15.3747 51.7994 16.5507C52.2554 17.7027 52.5434 18.4227 52.6634 18.7107H52.8434C53.1074 18.0387 53.6954 16.4667 54.6074 13.9947C55.5434 11.5227 56.5514 8.73869 57.6314 5.64269C57.7754 5.61869 57.9554 5.61869 58.1714 5.64269C58.4114 5.64269 58.6394 5.64269 58.8554 5.64269C59.1194 5.66669 59.5034 5.67869 60.0074 5.67869C60.3914 5.67869 60.9434 5.65469 61.6634 5.60669C62.4074 5.55869 62.8994 5.52269 63.1394 5.49869L63.2114 5.60669L63.0314 6.86669C62.1914 6.96269 61.6034 7.13069 61.2674 7.37069C60.9314 7.58669 60.7634 7.93469 60.7634 8.41469C60.7634 8.89469 60.8474 10.4187 61.0154 12.9867C61.1834 15.5547 61.3514 17.7387 61.5194 19.5387C61.6394 20.6187 61.7954 21.3267 61.9874 21.6627C62.1794 21.9987 62.5034 22.1667 62.9594 22.1667L63.7874 22.1307L63.8594 22.2387L63.6074 23.6787C63.4154 23.6787 63.0434 23.6667 62.4914 23.6427C61.9394 23.6187 61.3514 23.6067 60.7274 23.6067C60.1034 23.6067 59.3954 23.6427 58.6034 23.7147C57.8114 23.7867 57.3914 23.8227 57.3434 23.8227L57.4874 22.3467C58.1114 22.2747 58.5554 22.1307 58.8194 21.9147C59.0834 21.6987 59.2154 21.3747 59.2154 20.9427C59.2154 20.5107 59.0834 18.7947 58.8194 15.7947C58.5794 12.7947 58.4114 10.7547 58.3154 9.67469H58.1354C56.7194 13.2987 54.9194 18.0387 52.7354 23.8947L51.6914 24.1107ZM86.6058 22.2387L86.3178 23.6787C86.0538 23.6787 85.5498 23.6667 84.8058 23.6427C84.0858 23.6187 83.3298 23.6067 82.5378 23.6067L78.9378 23.6427L79.1898 22.2027C79.8138 22.1787 80.2818 22.0947 80.5938 21.9507C80.9058 21.8067 81.1218 21.5427 81.2418 21.1587C81.3618 20.7507 81.4218 20.1507 81.4218 19.3587L81.4578 10.9707C78.3858 14.1147 75.3858 17.3667 72.4578 20.7267C72.4818 21.2787 72.5778 21.6627 72.7458 21.8787C72.9378 22.0707 73.2618 22.1667 73.7178 22.1667C74.0058 22.1667 74.2698 22.1547 74.5098 22.1307C74.7498 22.1067 74.9058 22.0947 74.9778 22.0947L75.0498 22.2387L74.7978 23.6787C74.6058 23.6787 74.2338 23.6667 73.6818 23.6427C73.1538 23.6187 72.5898 23.6067 71.9898 23.6067C71.1258 23.6067 70.1538 23.6427 69.0738 23.7147C68.0178 23.7867 67.4778 23.8467 67.4538 23.8947L67.6338 22.4547C68.5218 22.2867 69.1098 22.0467 69.3978 21.7347C69.7098 21.3987 69.8778 20.8347 69.9018 20.0427L69.9378 8.59469C69.9378 7.99469 69.8658 7.59869 69.7218 7.40669C69.5778 7.19069 69.2778 7.08269 68.8218 7.08269C68.6298 7.08269 68.4378 7.09469 68.2458 7.11869C68.0538 7.14269 67.9218 7.15469 67.8498 7.15469L67.7778 6.97469L67.9938 5.60669C68.2338 5.60669 68.6778 5.61869 69.3258 5.64269C69.9978 5.66669 70.6698 5.67869 71.3418 5.67869C71.8938 5.67869 72.5538 5.64269 73.3218 5.57069C74.0898 5.49869 74.5938 5.45069 74.8338 5.42669L74.6898 6.90269C74.1138 6.99869 73.7058 7.11869 73.4658 7.26269C73.2258 7.38269 73.0578 7.58669 72.9618 7.87469C72.8898 8.16269 72.8418 8.63069 72.8178 9.27869C72.6258 12.6867 72.5178 15.6387 72.4938 18.1347C75.3018 15.3027 78.2898 12.0627 81.4578 8.41469C81.4338 7.88669 81.3498 7.53869 81.2058 7.37069C81.0618 7.17869 80.7738 7.08269 80.3418 7.08269C80.1498 7.08269 79.9578 7.09469 79.7658 7.11869C79.5738 7.14269 79.4418 7.15469 79.3698 7.15469L79.2978 6.97469L79.5138 5.60669C79.7298 5.63069 80.1498 5.65469 80.7738 5.67869C81.3978 5.67869 82.0098 5.67869 82.6098 5.67869C83.1858 5.67869 83.8818 5.64269 84.6978 5.57069C85.5378 5.49869 86.0898 5.45069 86.3538 5.42669L86.2458 6.90269C85.5018 6.99869 85.0098 7.15469 84.7698 7.37069C84.5538 7.56269 84.4218 7.93469 84.3738 8.48669C84.2778 10.3827 84.1818 12.5067 84.0858 14.8587C84.0138 17.1867 83.9778 18.9867 83.9778 20.2587C83.9778 21.0267 84.0618 21.5427 84.2298 21.8067C84.3978 22.0467 84.7338 22.1667 85.2378 22.1667C85.5258 22.1667 85.7898 22.1547 86.0298 22.1307C86.2698 22.1067 86.4258 22.0947 86.4978 22.0947L86.6058 22.2387ZM98.2664 23.6787L98.3744 22.3827C99.3824 22.3107 100.054 22.2027 100.39 22.0587C100.75 21.9147 100.93 21.6747 100.93 21.3387C100.93 20.9547 100.846 20.5467 100.678 20.1147L99.8144 17.3427C99.3344 17.3187 98.3384 17.3067 96.8264 17.3067C96.1304 17.3067 95.0984 17.3787 93.7304 17.5227L92.7224 20.1867C92.5544 20.7387 92.4704 21.0747 92.4704 21.1947C92.4704 21.5787 92.6024 21.8547 92.8664 22.0227C93.1304 22.1907 93.5624 22.2747 94.1624 22.2747H95.7104L95.8184 22.4187L95.6024 23.7867C95.3624 23.7627 94.8104 23.7267 93.9464 23.6787C93.1064 23.6307 92.2784 23.6067 91.4624 23.6067C90.6944 23.6067 89.9984 23.6187 89.3744 23.6427C88.7744 23.6667 88.3664 23.6787 88.1504 23.6787L88.3664 22.2027C88.8944 22.1307 89.3144 21.9507 89.6264 21.6627C89.9384 21.3507 90.2504 20.8347 90.5624 20.1147L96.2144 5.82269L98.7704 5.35469L99.0224 5.39069C99.0224 5.48669 99.5624 7.38269 100.642 11.0787C101.746 14.7747 102.73 17.8347 103.594 20.2587C103.834 20.9547 104.134 21.4467 104.494 21.7347C104.878 21.9987 105.478 22.1667 106.294 22.2387L106.366 22.3827L106.186 23.6787C105.946 23.6787 105.502 23.6667 104.854 23.6427C104.206 23.6187 103.558 23.6067 102.91 23.6067C101.926 23.6067 100.99 23.6427 100.102 23.7147C99.2144 23.7867 98.6384 23.8347 98.3744 23.8587L98.2664 23.6787ZM96.7544 15.8307C97.5944 15.8307 98.4704 15.7827 99.3824 15.6867L97.1864 8.70269H96.9344L94.3064 15.8307H96.7544ZM126.914 27.8547L125.114 27.9987L124.862 25.7307C124.766 24.8907 124.478 24.3267 123.998 24.0387C123.542 23.7507 122.81 23.6067 121.802 23.6067H111.938C111.266 23.6067 110.066 23.6907 108.338 23.8587L108.482 22.3827C109.13 22.2627 109.598 22.1307 109.886 21.9867C110.198 21.8427 110.402 21.6387 110.498 21.3747C110.618 21.0867 110.678 20.6547 110.678 20.0787L110.714 8.59469C110.714 7.99469 110.642 7.59869 110.498 7.40669C110.354 7.19069 110.054 7.08269 109.598 7.08269L108.626 7.15469L108.554 6.97469L108.77 5.60669C109.874 5.65469 110.702 5.67869 111.254 5.67869C112.862 5.67869 114.386 5.59469 115.826 5.42669L115.718 6.90269C115.07 6.99869 114.602 7.10669 114.314 7.22669C114.026 7.34669 113.834 7.55069 113.738 7.83869C113.642 8.12669 113.582 8.60669 113.558 9.27869C113.342 14.6307 113.234 18.3027 113.234 20.2947C113.234 20.8947 113.33 21.3147 113.522 21.5547C113.738 21.7947 114.122 21.9147 114.674 21.9147H118.886C119.606 21.9147 120.146 21.8547 120.506 21.7347C120.89 21.5907 121.154 21.3507 121.298 21.0147C121.442 20.6787 121.514 20.1507 121.514 19.4307L121.55 8.55869C121.55 7.98269 121.478 7.59869 121.334 7.40669C121.19 7.19069 120.878 7.08269 120.398 7.08269C120.278 7.08269 119.978 7.10669 119.498 7.15469L119.39 6.97469L119.606 5.60669C120.71 5.65469 121.514 5.67869 122.018 5.67869C123.602 5.67869 125.078 5.59469 126.446 5.42669L126.302 6.90269C125.582 7.02269 125.102 7.19069 124.862 7.40669C124.622 7.59869 124.49 7.95869 124.466 8.48669C124.178 14.1027 124.034 18.0507 124.034 20.3307C124.034 20.9067 124.106 21.3027 124.25 21.5187C124.394 21.7347 124.646 21.8547 125.006 21.8787L126.662 21.9507L126.878 22.2387L126.914 27.8547Z" fill="#EC0000"/>
</svg>
