<svg width="468" height="529" viewBox="0 0 468 529" fill="none" xmlns="http://www.w3.org/2000/svg">
<g filter="url(#filter0_dd_1397_833)">
<g clip-path="url(#clip0_1397_833)">
<path d="M74 46C74 37.1634 81.1634 30 90 30H394V395C394 403.837 386.837 411 378 411H74V46Z" fill="white"/>
<path d="M129.659 54.39C128.975 54.39 128.357 54.51 127.805 54.75C127.253 54.978 126.785 55.32 126.401 55.776C126.017 56.22 125.723 56.766 125.519 57.414C125.315 58.05 125.213 58.77 125.213 59.574C125.213 60.63 125.375 61.548 125.699 62.328C126.035 63.108 126.527 63.708 127.175 64.128C127.835 64.548 128.657 64.758 129.641 64.758C130.205 64.758 130.739 64.71 131.243 64.614C131.747 64.518 132.239 64.398 132.719 64.254V65.658C132.239 65.838 131.741 65.97 131.225 66.054C130.721 66.138 130.115 66.18 129.407 66.18C128.099 66.18 127.007 65.91 126.131 65.37C125.255 64.83 124.595 64.062 124.151 63.066C123.719 62.07 123.503 60.9 123.503 59.556C123.503 58.584 123.635 57.696 123.899 56.892C124.175 56.088 124.571 55.392 125.087 54.804C125.615 54.216 126.263 53.766 127.031 53.454C127.799 53.13 128.681 52.968 129.677 52.968C130.337 52.968 130.973 53.034 131.585 53.166C132.197 53.298 132.743 53.484 133.223 53.724L132.575 55.092C132.179 54.912 131.735 54.75 131.243 54.606C130.763 54.462 130.235 54.39 129.659 54.39ZM141.014 56.352H142.742L138.62 60.996L143.084 66H141.248L136.892 61.104V66H135.308V56.352H136.892V61.032L141.014 56.352ZM149.426 56.172C150.614 56.172 151.568 56.586 152.288 57.414C153.02 58.242 153.386 59.49 153.386 61.158C153.386 62.25 153.218 63.174 152.882 63.93C152.558 64.674 152.096 65.238 151.496 65.622C150.908 65.994 150.212 66.18 149.408 66.18C148.916 66.18 148.478 66.114 148.094 65.982C147.71 65.85 147.38 65.682 147.104 65.478C146.84 65.262 146.612 65.028 146.42 64.776H146.312C146.336 64.98 146.36 65.238 146.384 65.55C146.408 65.862 146.42 66.132 146.42 66.36V70.32H144.836V56.352H146.132L146.348 57.666H146.42C146.612 57.39 146.84 57.138 147.104 56.91C147.38 56.682 147.704 56.502 148.076 56.37C148.46 56.238 148.91 56.172 149.426 56.172ZM149.138 57.504C148.49 57.504 147.968 57.63 147.572 57.882C147.176 58.122 146.888 58.488 146.708 58.98C146.528 59.472 146.432 60.096 146.42 60.852V61.158C146.42 61.95 146.504 62.622 146.672 63.174C146.84 63.726 147.122 64.146 147.518 64.434C147.926 64.722 148.478 64.866 149.174 64.866C149.762 64.866 150.242 64.704 150.614 64.38C150.998 64.056 151.28 63.618 151.46 63.066C151.652 62.502 151.748 61.86 151.748 61.14C151.748 60.036 151.532 59.154 151.1 58.494C150.68 57.834 150.026 57.504 149.138 57.504ZM157.404 62.238C157.404 62.346 157.398 62.502 157.386 62.706C157.386 62.898 157.38 63.108 157.368 63.336C157.356 63.552 157.344 63.762 157.332 63.966C157.32 64.158 157.308 64.314 157.296 64.434L162.462 56.352H164.406V66H162.93V60.312C162.93 60.12 162.93 59.868 162.93 59.556C162.942 59.244 162.954 58.938 162.966 58.638C162.978 58.326 162.99 58.092 163.002 57.936L157.872 66H155.91V56.352H157.404V62.238ZM169.06 56.352V60.366H174.298V56.352H175.882V66H174.298V61.698H169.06V66H167.476V56.352H169.06ZM180.431 62.238C180.431 62.346 180.425 62.502 180.413 62.706C180.413 62.898 180.407 63.108 180.395 63.336C180.383 63.552 180.371 63.762 180.359 63.966C180.347 64.158 180.335 64.314 180.323 64.434L185.489 56.352H187.433V66H185.957V60.312C185.957 60.12 185.957 59.868 185.957 59.556C185.969 59.244 185.981 58.938 185.993 58.638C186.005 58.326 186.017 58.092 186.029 57.936L180.899 66H178.937V56.352H180.431V62.238ZM192.088 56.352V60.366H197.326V56.352H198.91V66H197.326V61.698H192.088V66H190.504V56.352H192.088ZM207.851 56.352V57.684H203.549V66H201.965V56.352H207.851ZM218.157 66.18C217.305 66.18 216.543 66.006 215.871 65.658C215.211 65.31 214.689 64.77 214.305 64.038C213.933 63.306 213.747 62.37 213.747 61.23C213.747 60.042 213.945 59.076 214.341 58.332C214.737 57.588 215.271 57.042 215.943 56.694C216.627 56.346 217.401 56.172 218.265 56.172C218.757 56.172 219.231 56.226 219.687 56.334C220.143 56.43 220.515 56.55 220.803 56.694L220.317 58.008C220.029 57.9 219.693 57.798 219.309 57.702C218.925 57.606 218.565 57.558 218.229 57.558C217.581 57.558 217.047 57.696 216.627 57.972C216.207 58.248 215.895 58.656 215.691 59.196C215.487 59.736 215.385 60.408 215.385 61.212C215.385 61.98 215.487 62.634 215.691 63.174C215.895 63.714 216.201 64.122 216.609 64.398C217.017 64.674 217.527 64.812 218.139 64.812C218.667 64.812 219.129 64.758 219.525 64.65C219.933 64.542 220.305 64.41 220.641 64.254V65.658C220.317 65.826 219.957 65.952 219.561 66.036C219.177 66.132 218.709 66.18 218.157 66.18ZM231.089 56.352V66H229.505V57.702H224.519V66H222.935V56.352H231.089ZM237.822 56.19C238.998 56.19 239.868 56.448 240.432 56.964C240.996 57.48 241.278 58.302 241.278 59.43V66H240.126L239.82 64.632H239.748C239.472 64.98 239.184 65.274 238.884 65.514C238.596 65.742 238.26 65.91 237.876 66.018C237.504 66.126 237.048 66.18 236.508 66.18C235.932 66.18 235.41 66.078 234.942 65.874C234.486 65.67 234.126 65.358 233.862 64.938C233.598 64.506 233.466 63.966 233.466 63.318C233.466 62.358 233.844 61.62 234.6 61.104C235.356 60.576 236.52 60.288 238.092 60.24L239.73 60.186V59.61C239.73 58.806 239.556 58.248 239.208 57.936C238.86 57.624 238.368 57.468 237.732 57.468C237.228 57.468 236.748 57.546 236.292 57.702C235.836 57.846 235.41 58.014 235.014 58.206L234.528 57.018C234.948 56.79 235.446 56.598 236.022 56.442C236.598 56.274 237.198 56.19 237.822 56.19ZM238.29 61.338C237.09 61.386 236.256 61.578 235.788 61.914C235.332 62.25 235.104 62.724 235.104 63.336C235.104 63.876 235.266 64.272 235.59 64.524C235.926 64.776 236.352 64.902 236.868 64.902C237.684 64.902 238.362 64.68 238.902 64.236C239.442 63.78 239.712 63.084 239.712 62.148V61.284L238.29 61.338ZM248.128 66.18C247.276 66.18 246.514 66.006 245.842 65.658C245.182 65.31 244.66 64.77 244.276 64.038C243.904 63.306 243.718 62.37 243.718 61.23C243.718 60.042 243.916 59.076 244.312 58.332C244.708 57.588 245.242 57.042 245.914 56.694C246.598 56.346 247.372 56.172 248.236 56.172C248.728 56.172 249.202 56.226 249.658 56.334C250.114 56.43 250.486 56.55 250.774 56.694L250.288 58.008C250 57.9 249.664 57.798 249.28 57.702C248.896 57.606 248.536 57.558 248.2 57.558C247.552 57.558 247.018 57.696 246.598 57.972C246.178 58.248 245.866 58.656 245.662 59.196C245.458 59.736 245.356 60.408 245.356 61.212C245.356 61.98 245.458 62.634 245.662 63.174C245.866 63.714 246.172 64.122 246.58 64.398C246.988 64.674 247.498 64.812 248.11 64.812C248.638 64.812 249.1 64.758 249.496 64.65C249.904 64.542 250.276 64.41 250.612 64.254V65.658C250.288 65.826 249.928 65.952 249.532 66.036C249.148 66.132 248.68 66.18 248.128 66.18ZM256.56 56.19C257.736 56.19 258.606 56.448 259.17 56.964C259.734 57.48 260.016 58.302 260.016 59.43V66H258.864L258.558 64.632H258.486C258.21 64.98 257.922 65.274 257.622 65.514C257.334 65.742 256.998 65.91 256.614 66.018C256.242 66.126 255.786 66.18 255.246 66.18C254.67 66.18 254.148 66.078 253.68 65.874C253.224 65.67 252.864 65.358 252.6 64.938C252.336 64.506 252.204 63.966 252.204 63.318C252.204 62.358 252.582 61.62 253.338 61.104C254.094 60.576 255.258 60.288 256.83 60.24L258.468 60.186V59.61C258.468 58.806 258.294 58.248 257.946 57.936C257.598 57.624 257.106 57.468 256.47 57.468C255.966 57.468 255.486 57.546 255.03 57.702C254.574 57.846 254.148 58.014 253.752 58.206L253.266 57.018C253.686 56.79 254.184 56.598 254.76 56.442C255.336 56.274 255.936 56.19 256.56 56.19ZM257.028 61.338C255.828 61.386 254.994 61.578 254.526 61.914C254.07 62.25 253.842 62.724 253.842 63.336C253.842 63.876 254.004 64.272 254.328 64.524C254.664 64.776 255.09 64.902 255.606 64.902C256.422 64.902 257.1 64.68 257.64 64.236C258.18 63.78 258.45 63.084 258.45 62.148V61.284L257.028 61.338ZM266.722 56.172C267.55 56.172 268.258 56.352 268.846 56.712C269.446 57.072 269.902 57.582 270.214 58.242C270.538 58.89 270.7 59.652 270.7 60.528V61.482H264.094C264.118 62.574 264.394 63.408 264.922 63.984C265.462 64.548 266.212 64.83 267.172 64.83C267.784 64.83 268.324 64.776 268.792 64.668C269.272 64.548 269.764 64.38 270.268 64.164V65.55C269.776 65.766 269.29 65.922 268.81 66.018C268.33 66.126 267.76 66.18 267.1 66.18C266.188 66.18 265.378 65.994 264.67 65.622C263.974 65.25 263.428 64.698 263.032 63.966C262.648 63.222 262.456 62.316 262.456 61.248C262.456 60.192 262.63 59.286 262.978 58.53C263.338 57.774 263.836 57.192 264.472 56.784C265.12 56.376 265.87 56.172 266.722 56.172ZM266.704 57.468C265.948 57.468 265.348 57.714 264.904 58.206C264.472 58.686 264.214 59.358 264.13 60.222H269.044C269.044 59.67 268.96 59.19 268.792 58.782C268.624 58.374 268.366 58.056 268.018 57.828C267.682 57.588 267.244 57.468 266.704 57.468ZM279.816 57.684H276.666V66H275.1V57.684H271.986V56.352H279.816V57.684ZM297.826 56.352L293.848 61.032L298.168 66H296.368L292.192 61.104V66H290.716V61.104L286.54 66H284.74L289.06 61.032L285.082 56.352H286.81L290.716 61.032V56.352H292.192V61.032L296.116 56.352H297.826ZM301.246 62.238C301.246 62.346 301.24 62.502 301.228 62.706C301.228 62.898 301.222 63.108 301.21 63.336C301.198 63.552 301.186 63.762 301.174 63.966C301.162 64.158 301.15 64.314 301.138 64.434L306.304 56.352H308.248V66H306.772V60.312C306.772 60.12 306.772 59.868 306.772 59.556C306.784 59.244 306.796 58.938 306.808 58.638C306.82 58.326 306.832 58.092 306.844 57.936L301.714 66H299.752V56.352H301.246V62.238ZM313.856 56.172C314.588 56.172 315.224 56.274 315.764 56.478C316.304 56.67 316.724 56.958 317.024 57.342C317.324 57.714 317.474 58.17 317.474 58.71C317.474 59.298 317.312 59.766 316.988 60.114C316.664 60.45 316.22 60.696 315.656 60.852V60.924C316.04 61.032 316.394 61.182 316.718 61.374C317.042 61.566 317.3 61.818 317.492 62.13C317.696 62.442 317.798 62.844 317.798 63.336C317.798 63.864 317.648 64.344 317.348 64.776C317.06 65.208 316.61 65.55 315.998 65.802C315.398 66.054 314.624 66.18 313.676 66.18C313.22 66.18 312.782 66.156 312.362 66.108C311.954 66.06 311.582 65.988 311.246 65.892C310.922 65.796 310.634 65.682 310.382 65.55V64.128C310.79 64.32 311.27 64.494 311.822 64.65C312.386 64.806 312.998 64.884 313.658 64.884C314.138 64.884 314.57 64.83 314.954 64.722C315.35 64.614 315.662 64.446 315.89 64.218C316.118 63.978 316.232 63.654 316.232 63.246C316.232 62.874 316.13 62.574 315.926 62.346C315.722 62.106 315.416 61.926 315.008 61.806C314.612 61.686 314.102 61.626 313.478 61.626H312.182V60.33H313.226C314.054 60.33 314.714 60.222 315.206 60.006C315.71 59.778 315.962 59.394 315.962 58.854C315.962 58.398 315.77 58.056 315.386 57.828C315.014 57.6 314.474 57.486 313.766 57.486C313.238 57.486 312.77 57.54 312.362 57.648C311.966 57.744 311.528 57.894 311.048 58.098L310.49 56.838C311.006 56.61 311.546 56.442 312.11 56.334C312.674 56.226 313.256 56.172 313.856 56.172ZM321.726 56.352V60.366H326.964V56.352H328.548V66H326.964V61.698H321.726V66H320.142V56.352H321.726ZM333.097 62.238C333.097 62.346 333.091 62.502 333.079 62.706C333.079 62.898 333.073 63.108 333.061 63.336C333.049 63.552 333.037 63.762 333.025 63.966C333.013 64.158 333.001 64.314 332.989 64.434L338.155 56.352H340.099V66H338.623V60.312C338.623 60.12 338.623 59.868 338.623 59.556C338.635 59.244 338.647 58.938 338.659 58.638C338.671 58.326 338.683 58.092 338.695 57.936L333.565 66H331.603V56.352H333.097V62.238ZM343.602 66.108C343.242 66.108 342.942 65.994 342.702 65.766C342.474 65.526 342.36 65.244 342.36 64.92C342.36 64.584 342.474 64.302 342.702 64.074C342.942 63.834 343.242 63.714 343.602 63.714C343.962 63.714 344.256 63.834 344.484 64.074C344.712 64.302 344.826 64.584 344.826 64.92C344.826 65.244 344.712 65.526 344.484 65.766C344.256 65.994 343.962 66.108 343.602 66.108ZM343.602 59.25C343.242 59.25 342.942 59.136 342.702 58.908C342.474 58.668 342.36 58.386 342.36 58.062C342.36 57.726 342.474 57.444 342.702 57.216C342.942 56.976 343.242 56.856 343.602 56.856C343.962 56.856 344.256 56.976 344.484 57.216C344.712 57.444 344.826 57.726 344.826 58.062C344.826 58.386 344.712 58.668 344.484 58.908C344.256 59.136 343.962 59.25 343.602 59.25Z" fill="#1B1642"/>
<path d="M211.163 194.97C210.09 194.97 209.245 195.329 208.629 196.048C208.013 196.767 207.705 197.751 207.705 199.002C207.705 200.243 207.99 201.228 208.559 201.956C209.138 202.675 210.001 203.034 211.149 203.034C211.588 203.034 212.003 202.997 212.395 202.922C212.787 202.847 213.17 202.754 213.543 202.642V203.734C213.17 203.874 212.783 203.977 212.381 204.042C211.989 204.107 211.518 204.14 210.967 204.14C209.95 204.14 209.101 203.93 208.419 203.51C207.738 203.09 207.225 202.493 206.879 201.718C206.543 200.943 206.375 200.033 206.375 198.988C206.375 197.98 206.557 197.093 206.921 196.328C207.295 195.553 207.841 194.951 208.559 194.522C209.278 194.083 210.151 193.864 211.177 193.864C212.232 193.864 213.151 194.06 213.935 194.452L213.431 195.516C213.123 195.376 212.778 195.25 212.395 195.138C212.022 195.026 211.611 194.97 211.163 194.97ZM221.269 204H220.023V197.518H217.811C217.69 199.095 217.522 200.369 217.307 201.34C217.093 202.301 216.808 203.001 216.453 203.44C216.099 203.879 215.651 204.098 215.109 204.098C214.988 204.098 214.867 204.089 214.745 204.07C214.633 204.061 214.54 204.037 214.465 204V203.076C214.521 203.095 214.582 203.109 214.647 203.118C214.713 203.127 214.778 203.132 214.843 203.132C215.347 203.132 215.749 202.595 216.047 201.522C216.355 200.449 216.589 198.773 216.747 196.496H221.269V204ZM222.475 196.496H223.791L225.415 200.766C225.555 201.139 225.681 201.499 225.793 201.844C225.905 202.18 225.989 202.502 226.045 202.81H226.101C226.157 202.577 226.246 202.273 226.367 201.9C226.488 201.517 226.614 201.135 226.745 200.752L228.271 196.496H229.601L226.367 205.036C226.106 205.745 225.765 206.31 225.345 206.73C224.934 207.15 224.365 207.36 223.637 207.36C223.413 207.36 223.217 207.346 223.049 207.318C222.881 207.299 222.736 207.276 222.615 207.248V206.268C222.718 206.287 222.839 206.305 222.979 206.324C223.128 206.343 223.282 206.352 223.441 206.352C223.87 206.352 224.216 206.231 224.477 205.988C224.748 205.745 224.958 205.423 225.107 205.022L225.499 204.028L222.475 196.496ZM231.866 196.496V199.226C231.866 200.085 232.346 200.514 233.308 200.514C233.774 200.514 234.199 200.444 234.582 200.304C234.964 200.155 235.356 199.959 235.758 199.716V196.496H236.99V204H235.758V200.654C235.338 200.925 234.922 201.139 234.512 201.298C234.11 201.447 233.625 201.522 233.056 201.522C232.29 201.522 231.693 201.321 231.264 200.92C230.844 200.519 230.634 199.982 230.634 199.31V196.496H231.866ZM242.216 196.37C243.13 196.37 243.807 196.571 244.246 196.972C244.684 197.373 244.904 198.013 244.904 198.89V204H244.008L243.77 202.936H243.714C243.387 203.347 243.042 203.65 242.678 203.846C242.323 204.042 241.828 204.14 241.194 204.14C240.512 204.14 239.948 203.963 239.5 203.608C239.052 203.244 238.828 202.679 238.828 201.914C238.828 201.167 239.122 200.593 239.71 200.192C240.298 199.781 241.203 199.557 242.426 199.52L243.7 199.478V199.03C243.7 198.405 243.564 197.971 243.294 197.728C243.023 197.485 242.64 197.364 242.146 197.364C241.754 197.364 241.38 197.425 241.026 197.546C240.671 197.658 240.34 197.789 240.032 197.938L239.654 197.014C239.98 196.837 240.368 196.687 240.816 196.566C241.264 196.435 241.73 196.37 242.216 196.37ZM243.686 200.332L242.58 200.374C241.646 200.411 240.998 200.561 240.634 200.822C240.279 201.083 240.102 201.452 240.102 201.928C240.102 202.348 240.228 202.656 240.48 202.852C240.741 203.048 241.072 203.146 241.474 203.146C242.108 203.146 242.636 202.973 243.056 202.628C243.476 202.273 243.686 201.732 243.686 201.004V200.332ZM250.119 196.356C250.763 196.356 251.314 196.496 251.771 196.776C252.238 197.056 252.593 197.453 252.835 197.966C253.087 198.47 253.213 199.063 253.213 199.744V200.486H248.075C248.094 201.335 248.309 201.984 248.719 202.432C249.139 202.871 249.723 203.09 250.469 203.09C250.945 203.09 251.365 203.048 251.729 202.964C252.103 202.871 252.485 202.74 252.877 202.572V203.65C252.495 203.818 252.117 203.939 251.743 204.014C251.37 204.098 250.927 204.14 250.413 204.14C249.704 204.14 249.074 203.995 248.523 203.706C247.982 203.417 247.557 202.987 247.249 202.418C246.951 201.839 246.801 201.135 246.801 200.304C246.801 199.483 246.937 198.778 247.207 198.19C247.487 197.602 247.875 197.149 248.369 196.832C248.873 196.515 249.457 196.356 250.119 196.356ZM250.105 197.364C249.517 197.364 249.051 197.555 248.705 197.938C248.369 198.311 248.169 198.834 248.103 199.506H251.925C251.916 198.871 251.767 198.358 251.477 197.966C251.188 197.565 250.731 197.364 250.105 197.364ZM261.158 198.386C261.158 198.853 261.018 199.217 260.738 199.478C260.458 199.739 260.098 199.917 259.66 200.01V200.066C260.126 200.131 260.532 200.299 260.878 200.57C261.223 200.831 261.396 201.242 261.396 201.802C261.396 202.437 261.158 202.964 260.682 203.384C260.215 203.795 259.44 204 258.358 204H255.124V196.496H258.344C258.876 196.496 259.352 196.557 259.772 196.678C260.201 196.79 260.537 196.986 260.78 197.266C261.032 197.537 261.158 197.91 261.158 198.386ZM259.912 198.54C259.912 198.185 259.781 197.929 259.52 197.77C259.268 197.602 258.852 197.518 258.274 197.518H256.356V199.576H258.05C259.291 199.576 259.912 199.231 259.912 198.54ZM260.122 201.802C260.122 201.373 259.958 201.065 259.632 200.878C259.305 200.691 258.824 200.598 258.19 200.598H256.356V203.006H258.218C258.834 203.006 259.305 202.917 259.632 202.74C259.958 202.553 260.122 202.241 260.122 201.802Z" fill="#8D9AAE"/>
<path d="M129.435 313L125.205 301.732H125.133C125.157 301.972 125.175 302.278 125.187 302.65C125.211 303.022 125.229 303.43 125.241 303.874C125.253 304.306 125.259 304.75 125.259 305.206V313H123.765V300.148H126.159L130.119 310.678H130.191L134.223 300.148H136.599V313H134.997V305.098C134.997 304.678 135.003 304.264 135.015 303.856C135.027 303.436 135.045 303.046 135.069 302.686C135.093 302.314 135.111 302.002 135.123 301.75H135.051L130.767 313H129.435ZM143.533 303.19C144.709 303.19 145.579 303.448 146.143 303.964C146.707 304.48 146.989 305.302 146.989 306.43V313H145.837L145.531 311.632H145.459C145.183 311.98 144.895 312.274 144.595 312.514C144.307 312.742 143.971 312.91 143.587 313.018C143.215 313.126 142.759 313.18 142.219 313.18C141.643 313.18 141.121 313.078 140.653 312.874C140.197 312.67 139.837 312.358 139.573 311.938C139.309 311.506 139.177 310.966 139.177 310.318C139.177 309.358 139.555 308.62 140.311 308.104C141.067 307.576 142.231 307.288 143.803 307.24L145.441 307.186V306.61C145.441 305.806 145.267 305.248 144.919 304.936C144.571 304.624 144.079 304.468 143.443 304.468C142.939 304.468 142.459 304.546 142.003 304.702C141.547 304.846 141.121 305.014 140.725 305.206L140.239 304.018C140.659 303.79 141.157 303.598 141.733 303.442C142.309 303.274 142.909 303.19 143.533 303.19ZM144.001 308.338C142.801 308.386 141.967 308.578 141.499 308.914C141.043 309.25 140.815 309.724 140.815 310.336C140.815 310.876 140.977 311.272 141.301 311.524C141.637 311.776 142.063 311.902 142.579 311.902C143.395 311.902 144.073 311.68 144.613 311.236C145.153 310.78 145.423 310.084 145.423 309.148V308.284L144.001 308.338ZM160.318 303.352V313H158.896V306.844C158.896 306.592 158.902 306.328 158.914 306.052C158.938 305.776 158.962 305.506 158.986 305.242H158.932L155.782 313H154.45L151.39 305.242H151.336C151.36 305.506 151.372 305.776 151.372 306.052C151.384 306.328 151.39 306.61 151.39 306.898V313H149.968V303.352H152.074L155.116 311.11L158.212 303.352H160.318ZM173.748 303.352V313H172.326V306.844C172.326 306.592 172.332 306.328 172.344 306.052C172.368 305.776 172.392 305.506 172.416 305.242H172.362L169.212 313H167.88L164.82 305.242H164.766C164.79 305.506 164.802 305.776 164.802 306.052C164.814 306.328 164.82 306.61 164.82 306.898V313H163.398V303.352H165.504L168.546 311.11L171.642 303.352H173.748ZM185.216 308.158C185.216 308.962 185.108 309.676 184.892 310.3C184.688 310.912 184.388 311.434 183.992 311.866C183.608 312.298 183.134 312.628 182.57 312.856C182.018 313.072 181.4 313.18 180.716 313.18C180.08 313.18 179.492 313.072 178.952 312.856C178.412 312.628 177.944 312.298 177.548 311.866C177.152 311.434 176.84 310.912 176.612 310.3C176.396 309.676 176.288 308.962 176.288 308.158C176.288 307.09 176.468 306.19 176.828 305.458C177.188 304.714 177.704 304.15 178.376 303.766C179.048 303.37 179.846 303.172 180.77 303.172C181.646 303.172 182.414 303.37 183.074 303.766C183.746 304.15 184.268 304.714 184.64 305.458C185.024 306.19 185.216 307.09 185.216 308.158ZM177.926 308.158C177.926 308.914 178.022 309.574 178.214 310.138C178.418 310.69 178.73 311.116 179.15 311.416C179.57 311.716 180.104 311.866 180.752 311.866C181.4 311.866 181.934 311.716 182.354 311.416C182.774 311.116 183.08 310.69 183.272 310.138C183.476 309.574 183.578 308.914 183.578 308.158C183.578 307.39 183.476 306.736 183.272 306.196C183.068 305.656 182.756 305.242 182.336 304.954C181.928 304.654 181.394 304.504 180.734 304.504C179.75 304.504 179.036 304.828 178.592 305.476C178.148 306.124 177.926 307.018 177.926 308.158ZM193.612 303.352V304.684H189.31V313H187.726V303.352H193.612ZM200.103 303.172C201.291 303.172 202.245 303.586 202.965 304.414C203.697 305.242 204.063 306.49 204.063 308.158C204.063 309.25 203.895 310.174 203.559 310.93C203.235 311.674 202.773 312.238 202.173 312.622C201.585 312.994 200.889 313.18 200.085 313.18C199.593 313.18 199.155 313.114 198.771 312.982C198.387 312.85 198.057 312.682 197.781 312.478C197.517 312.262 197.289 312.028 197.097 311.776H196.989C197.013 311.98 197.037 312.238 197.061 312.55C197.085 312.862 197.097 313.132 197.097 313.36V317.32H195.513V303.352H196.809L197.025 304.666H197.097C197.289 304.39 197.517 304.138 197.781 303.91C198.057 303.682 198.381 303.502 198.753 303.37C199.137 303.238 199.587 303.172 200.103 303.172ZM199.815 304.504C199.167 304.504 198.645 304.63 198.249 304.882C197.853 305.122 197.565 305.488 197.385 305.98C197.205 306.472 197.109 307.096 197.097 307.852V308.158C197.097 308.95 197.181 309.622 197.349 310.174C197.517 310.726 197.799 311.146 198.195 311.434C198.603 311.722 199.155 311.866 199.851 311.866C200.439 311.866 200.919 311.704 201.291 311.38C201.675 311.056 201.957 310.618 202.137 310.066C202.329 309.502 202.425 308.86 202.425 308.14C202.425 307.036 202.209 306.154 201.777 305.494C201.357 304.834 200.703 304.504 199.815 304.504ZM210.242 303.19C211.418 303.19 212.288 303.448 212.852 303.964C213.416 304.48 213.698 305.302 213.698 306.43V313H212.546L212.24 311.632H212.168C211.892 311.98 211.604 312.274 211.304 312.514C211.016 312.742 210.68 312.91 210.296 313.018C209.924 313.126 209.468 313.18 208.928 313.18C208.352 313.18 207.83 313.078 207.362 312.874C206.906 312.67 206.546 312.358 206.282 311.938C206.018 311.506 205.886 310.966 205.886 310.318C205.886 309.358 206.264 308.62 207.02 308.104C207.776 307.576 208.94 307.288 210.512 307.24L212.15 307.186V306.61C212.15 305.806 211.976 305.248 211.628 304.936C211.28 304.624 210.788 304.468 210.152 304.468C209.648 304.468 209.168 304.546 208.712 304.702C208.256 304.846 207.83 305.014 207.434 305.206L206.948 304.018C207.368 303.79 207.866 303.598 208.442 303.442C209.018 303.274 209.618 303.19 210.242 303.19ZM210.71 308.338C209.51 308.386 208.676 308.578 208.208 308.914C207.752 309.25 207.524 309.724 207.524 310.336C207.524 310.876 207.686 311.272 208.01 311.524C208.346 311.776 208.772 311.902 209.288 311.902C210.104 311.902 210.782 311.68 211.322 311.236C211.862 310.78 212.132 310.084 212.132 309.148V308.284L210.71 308.338ZM222.437 303.208C223.397 303.292 224.231 303.544 224.939 303.964C225.659 304.384 226.217 304.948 226.613 305.656C227.009 306.364 227.207 307.204 227.207 308.176C227.207 309.148 227.015 309.994 226.631 310.714C226.247 311.422 225.701 311.986 224.993 312.406C224.285 312.814 223.433 313.06 222.437 313.144V317.32H220.889V313.144C219.941 313.06 219.107 312.814 218.387 312.406C217.667 311.986 217.109 311.422 216.713 310.714C216.317 309.994 216.119 309.148 216.119 308.176C216.119 307.192 216.311 306.346 216.695 305.638C217.079 304.918 217.631 304.354 218.351 303.946C219.071 303.526 219.935 303.28 220.943 303.208V299.32H222.437V303.208ZM220.943 304.522C220.211 304.594 219.611 304.78 219.143 305.08C218.675 305.38 218.327 305.788 218.099 306.304C217.883 306.82 217.775 307.444 217.775 308.176C217.775 308.896 217.883 309.52 218.099 310.048C218.327 310.564 218.675 310.978 219.143 311.29C219.611 311.59 220.211 311.776 220.943 311.848V304.522ZM222.437 311.848C223.157 311.764 223.745 311.572 224.201 311.272C224.669 310.972 225.011 310.564 225.227 310.048C225.455 309.52 225.569 308.896 225.569 308.176C225.569 307.456 225.455 306.838 225.227 306.322C224.999 305.806 224.651 305.398 224.183 305.098C223.727 304.798 223.145 304.612 222.437 304.54V311.848ZM231.214 309.238C231.214 309.346 231.208 309.502 231.196 309.706C231.196 309.898 231.19 310.108 231.178 310.336C231.166 310.552 231.154 310.762 231.142 310.966C231.13 311.158 231.118 311.314 231.106 311.434L236.272 303.352H238.216V313H236.74V307.312C236.74 307.12 236.74 306.868 236.74 306.556C236.752 306.244 236.764 305.938 236.776 305.638C236.788 305.326 236.8 305.092 236.812 304.936L231.682 313H229.72V303.352H231.214V309.238ZM241.881 313H240.045L242.799 308.95C242.427 308.854 242.067 308.704 241.719 308.5C241.371 308.284 241.089 307.99 240.873 307.618C240.657 307.234 240.549 306.76 240.549 306.196C240.549 305.272 240.861 304.57 241.485 304.09C242.109 303.598 242.937 303.352 243.969 303.352H248.289V313H246.705V309.166H244.365L241.881 313ZM242.079 306.214C242.079 306.766 242.283 307.18 242.691 307.456C243.111 307.72 243.693 307.852 244.437 307.852H246.705V304.666H244.131C243.399 304.666 242.871 304.81 242.547 305.098C242.235 305.386 242.079 305.758 242.079 306.214ZM264.259 303.352V313H262.675V304.702H257.689V313H256.105V303.352H264.259ZM275.726 308.158C275.726 308.962 275.618 309.676 275.402 310.3C275.198 310.912 274.898 311.434 274.502 311.866C274.118 312.298 273.644 312.628 273.08 312.856C272.528 313.072 271.91 313.18 271.226 313.18C270.59 313.18 270.002 313.072 269.462 312.856C268.922 312.628 268.454 312.298 268.058 311.866C267.662 311.434 267.35 310.912 267.122 310.3C266.906 309.676 266.798 308.962 266.798 308.158C266.798 307.09 266.978 306.19 267.338 305.458C267.698 304.714 268.214 304.15 268.886 303.766C269.558 303.37 270.356 303.172 271.28 303.172C272.156 303.172 272.924 303.37 273.584 303.766C274.256 304.15 274.778 304.714 275.15 305.458C275.534 306.19 275.726 307.09 275.726 308.158ZM268.436 308.158C268.436 308.914 268.532 309.574 268.724 310.138C268.928 310.69 269.24 311.116 269.66 311.416C270.08 311.716 270.614 311.866 271.262 311.866C271.91 311.866 272.444 311.716 272.864 311.416C273.284 311.116 273.59 310.69 273.782 310.138C273.986 309.574 274.088 308.914 274.088 308.158C274.088 307.39 273.986 306.736 273.782 306.196C273.578 305.656 273.266 305.242 272.846 304.954C272.438 304.654 271.904 304.504 271.244 304.504C270.26 304.504 269.546 304.828 269.102 305.476C268.658 306.124 268.436 307.018 268.436 308.158ZM280.774 303.172C281.506 303.172 282.142 303.274 282.682 303.478C283.222 303.67 283.642 303.958 283.942 304.342C284.242 304.714 284.392 305.17 284.392 305.71C284.392 306.298 284.23 306.766 283.906 307.114C283.582 307.45 283.138 307.696 282.574 307.852V307.924C282.958 308.032 283.312 308.182 283.636 308.374C283.96 308.566 284.218 308.818 284.41 309.13C284.614 309.442 284.716 309.844 284.716 310.336C284.716 310.864 284.566 311.344 284.266 311.776C283.978 312.208 283.528 312.55 282.916 312.802C282.316 313.054 281.542 313.18 280.594 313.18C280.138 313.18 279.7 313.156 279.28 313.108C278.872 313.06 278.5 312.988 278.164 312.892C277.84 312.796 277.552 312.682 277.3 312.55V311.128C277.708 311.32 278.188 311.494 278.74 311.65C279.304 311.806 279.916 311.884 280.576 311.884C281.056 311.884 281.488 311.83 281.872 311.722C282.268 311.614 282.58 311.446 282.808 311.218C283.036 310.978 283.15 310.654 283.15 310.246C283.15 309.874 283.048 309.574 282.844 309.346C282.64 309.106 282.334 308.926 281.926 308.806C281.53 308.686 281.02 308.626 280.396 308.626H279.1V307.33H280.144C280.972 307.33 281.632 307.222 282.124 307.006C282.628 306.778 282.88 306.394 282.88 305.854C282.88 305.398 282.688 305.056 282.304 304.828C281.932 304.6 281.392 304.486 280.684 304.486C280.156 304.486 279.688 304.54 279.28 304.648C278.884 304.744 278.446 304.894 277.966 305.098L277.408 303.838C277.924 303.61 278.464 303.442 279.028 303.334C279.592 303.226 280.174 303.172 280.774 303.172ZM294.818 305.782C294.818 306.382 294.638 306.85 294.278 307.186C293.918 307.522 293.456 307.75 292.892 307.87V307.942C293.492 308.026 294.014 308.242 294.458 308.59C294.902 308.926 295.124 309.454 295.124 310.174C295.124 310.582 295.046 310.96 294.89 311.308C294.746 311.656 294.518 311.956 294.206 312.208C293.894 312.46 293.492 312.658 293 312.802C292.508 312.934 291.914 313 291.218 313H287.06V303.352H291.2C291.884 303.352 292.496 303.43 293.036 303.586C293.588 303.73 294.02 303.982 294.332 304.342C294.656 304.69 294.818 305.17 294.818 305.782ZM293.486 310.174C293.486 309.622 293.276 309.226 292.856 308.986C292.436 308.746 291.818 308.626 291.002 308.626H288.644V311.722H291.038C291.83 311.722 292.436 311.608 292.856 311.38C293.276 311.14 293.486 310.738 293.486 310.174ZM293.216 305.98C293.216 305.524 293.048 305.194 292.712 304.99C292.388 304.774 291.854 304.666 291.11 304.666H288.644V307.312H290.822C291.602 307.312 292.196 307.204 292.604 306.988C293.012 306.772 293.216 306.436 293.216 305.98ZM305.819 308.158C305.819 308.962 305.711 309.676 305.495 310.3C305.291 310.912 304.991 311.434 304.595 311.866C304.211 312.298 303.737 312.628 303.173 312.856C302.621 313.072 302.003 313.18 301.319 313.18C300.683 313.18 300.095 313.072 299.555 312.856C299.015 312.628 298.547 312.298 298.151 311.866C297.755 311.434 297.443 310.912 297.215 310.3C296.999 309.676 296.891 308.962 296.891 308.158C296.891 307.09 297.071 306.19 297.431 305.458C297.791 304.714 298.307 304.15 298.979 303.766C299.651 303.37 300.449 303.172 301.373 303.172C302.249 303.172 303.017 303.37 303.677 303.766C304.349 304.15 304.871 304.714 305.243 305.458C305.627 306.19 305.819 307.09 305.819 308.158ZM298.529 308.158C298.529 308.914 298.625 309.574 298.817 310.138C299.021 310.69 299.333 311.116 299.753 311.416C300.173 311.716 300.707 311.866 301.355 311.866C302.003 311.866 302.537 311.716 302.957 311.416C303.377 311.116 303.683 310.69 303.875 310.138C304.079 309.574 304.181 308.914 304.181 308.158C304.181 307.39 304.079 306.736 303.875 306.196C303.671 305.656 303.359 305.242 302.939 304.954C302.531 304.654 301.997 304.504 301.337 304.504C300.353 304.504 299.639 304.828 299.195 305.476C298.751 306.124 298.529 307.018 298.529 308.158ZM315.674 313H314.072V304.666H311.228C311.108 306.19 310.958 307.492 310.778 308.572C310.598 309.64 310.37 310.51 310.094 311.182C309.818 311.854 309.488 312.346 309.104 312.658C308.72 312.97 308.27 313.126 307.754 313.126C307.598 313.126 307.442 313.114 307.286 313.09C307.142 313.078 307.022 313.048 306.926 313V311.812C306.998 311.836 307.076 311.854 307.16 311.866C307.244 311.878 307.328 311.884 307.412 311.884C307.676 311.884 307.916 311.776 308.132 311.56C308.348 311.344 308.54 311.014 308.708 310.57C308.888 310.126 309.05 309.568 309.194 308.896C309.338 308.212 309.464 307.408 309.572 306.484C309.68 305.56 309.776 304.516 309.86 303.352H315.674V313ZM319.33 313H317.494L320.248 308.95C319.876 308.854 319.516 308.704 319.168 308.5C318.82 308.284 318.538 307.99 318.322 307.618C318.106 307.234 317.998 306.76 317.998 306.196C317.998 305.272 318.31 304.57 318.934 304.09C319.558 303.598 320.386 303.352 321.418 303.352H325.738V313H324.154V309.166H321.814L319.33 313ZM319.528 306.214C319.528 306.766 319.732 307.18 320.14 307.456C320.56 307.72 321.142 307.852 321.886 307.852H324.154V304.666H321.58C320.848 304.666 320.32 304.81 319.996 305.098C319.684 305.386 319.528 305.758 319.528 306.214ZM332.517 303.172C333.345 303.172 334.053 303.352 334.641 303.712C335.241 304.072 335.697 304.582 336.009 305.242C336.333 305.89 336.495 306.652 336.495 307.528V308.482H329.889C329.913 309.574 330.189 310.408 330.717 310.984C331.257 311.548 332.007 311.83 332.967 311.83C333.579 311.83 334.119 311.776 334.587 311.668C335.067 311.548 335.559 311.38 336.063 311.164V312.55C335.571 312.766 335.085 312.922 334.605 313.018C334.125 313.126 333.555 313.18 332.895 313.18C331.983 313.18 331.173 312.994 330.465 312.622C329.769 312.25 329.223 311.698 328.827 310.966C328.443 310.222 328.251 309.316 328.251 308.248C328.251 307.192 328.425 306.286 328.773 305.53C329.133 304.774 329.631 304.192 330.267 303.784C330.915 303.376 331.665 303.172 332.517 303.172ZM332.499 304.468C331.743 304.468 331.143 304.714 330.699 305.206C330.267 305.686 330.009 306.358 329.925 307.222H334.839C334.839 306.67 334.755 306.19 334.587 305.782C334.419 305.374 334.161 305.056 333.813 304.828C333.477 304.588 333.039 304.468 332.499 304.468ZM345.611 304.684H342.461V313H340.895V304.684H337.781V303.352H345.611V304.684ZM115.588 336.18C114.736 336.18 113.974 336.006 113.302 335.658C112.642 335.31 112.12 334.77 111.736 334.038C111.364 333.306 111.178 332.37 111.178 331.23C111.178 330.042 111.376 329.076 111.772 328.332C112.168 327.588 112.702 327.042 113.374 326.694C114.058 326.346 114.832 326.172 115.696 326.172C116.188 326.172 116.662 326.226 117.118 326.334C117.574 326.43 117.946 326.55 118.234 326.694L117.748 328.008C117.46 327.9 117.124 327.798 116.74 327.702C116.356 327.606 115.996 327.558 115.66 327.558C115.012 327.558 114.478 327.696 114.058 327.972C113.638 328.248 113.326 328.656 113.122 329.196C112.918 329.736 112.816 330.408 112.816 331.212C112.816 331.98 112.918 332.634 113.122 333.174C113.326 333.714 113.632 334.122 114.04 334.398C114.448 334.674 114.958 334.812 115.57 334.812C116.098 334.812 116.56 334.758 116.956 334.65C117.364 334.542 117.736 334.41 118.072 334.254V335.658C117.748 335.826 117.388 335.952 116.992 336.036C116.608 336.132 116.14 336.18 115.588 336.18ZM121.951 326.352V330.366H127.189V326.352H128.773V336H127.189V331.698H121.951V336H120.367V326.352H121.951ZM133.322 332.238C133.322 332.346 133.316 332.502 133.304 332.706C133.304 332.898 133.298 333.108 133.286 333.336C133.274 333.552 133.262 333.762 133.25 333.966C133.238 334.158 133.226 334.314 133.214 334.434L138.38 326.352H140.324V336H138.848V330.312C138.848 330.12 138.848 329.868 138.848 329.556C138.86 329.244 138.872 328.938 138.884 328.638C138.896 328.326 138.908 328.092 138.92 327.936L133.79 336H131.828V326.352H133.322V332.238ZM145.932 326.172C146.664 326.172 147.3 326.274 147.84 326.478C148.38 326.67 148.8 326.958 149.1 327.342C149.4 327.714 149.55 328.17 149.55 328.71C149.55 329.298 149.388 329.766 149.064 330.114C148.74 330.45 148.296 330.696 147.732 330.852V330.924C148.116 331.032 148.47 331.182 148.794 331.374C149.118 331.566 149.376 331.818 149.568 332.13C149.772 332.442 149.874 332.844 149.874 333.336C149.874 333.864 149.724 334.344 149.424 334.776C149.136 335.208 148.686 335.55 148.074 335.802C147.474 336.054 146.7 336.18 145.752 336.18C145.296 336.18 144.858 336.156 144.438 336.108C144.03 336.06 143.658 335.988 143.322 335.892C142.998 335.796 142.71 335.682 142.458 335.55V334.128C142.866 334.32 143.346 334.494 143.898 334.65C144.462 334.806 145.074 334.884 145.734 334.884C146.214 334.884 146.646 334.83 147.03 334.722C147.426 334.614 147.738 334.446 147.966 334.218C148.194 333.978 148.308 333.654 148.308 333.246C148.308 332.874 148.206 332.574 148.002 332.346C147.798 332.106 147.492 331.926 147.084 331.806C146.688 331.686 146.178 331.626 145.554 331.626H144.258V330.33H145.302C146.13 330.33 146.79 330.222 147.282 330.006C147.786 329.778 148.038 329.394 148.038 328.854C148.038 328.398 147.846 328.056 147.462 327.828C147.09 327.6 146.55 327.486 145.842 327.486C145.314 327.486 144.846 327.54 144.438 327.648C144.042 327.744 143.604 327.894 143.124 328.098L142.566 326.838C143.082 326.61 143.622 326.442 144.186 326.334C144.75 326.226 145.332 326.172 145.932 326.172ZM153.712 332.238C153.712 332.346 153.706 332.502 153.694 332.706C153.694 332.898 153.688 333.108 153.676 333.336C153.664 333.552 153.652 333.762 153.64 333.966C153.628 334.158 153.616 334.314 153.604 334.434L158.77 326.352H160.714V336H159.238V330.312C159.238 330.12 159.238 329.868 159.238 329.556C159.25 329.244 159.262 328.938 159.274 328.638C159.286 328.326 159.298 328.092 159.31 327.936L154.18 336H152.218V326.352H153.712V332.238ZM170.445 327.684H167.295V336H165.729V327.684H162.615V326.352H170.445V327.684ZM176.791 330.312C177.631 330.312 178.327 330.414 178.879 330.618C179.431 330.822 179.845 331.128 180.121 331.536C180.409 331.932 180.553 332.436 180.553 333.048C180.553 333.648 180.415 334.17 180.139 334.614C179.875 335.058 179.461 335.4 178.897 335.64C178.333 335.88 177.607 336 176.719 336H172.345V326.352H173.929V330.312H176.791ZM178.969 333.138C178.969 332.55 178.759 332.154 178.339 331.95C177.931 331.734 177.355 331.626 176.611 331.626H173.929V334.722H176.647C177.319 334.722 177.871 334.602 178.303 334.362C178.747 334.122 178.969 333.714 178.969 333.138ZM191.667 336.18C190.815 336.18 190.053 336.006 189.381 335.658C188.721 335.31 188.199 334.77 187.815 334.038C187.443 333.306 187.257 332.37 187.257 331.23C187.257 330.042 187.455 329.076 187.851 328.332C188.247 327.588 188.781 327.042 189.453 326.694C190.137 326.346 190.911 326.172 191.775 326.172C192.267 326.172 192.741 326.226 193.197 326.334C193.653 326.43 194.025 326.55 194.313 326.694L193.827 328.008C193.539 327.9 193.203 327.798 192.819 327.702C192.435 327.606 192.075 327.558 191.739 327.558C191.091 327.558 190.557 327.696 190.137 327.972C189.717 328.248 189.405 328.656 189.201 329.196C188.997 329.736 188.895 330.408 188.895 331.212C188.895 331.98 188.997 332.634 189.201 333.174C189.405 333.714 189.711 334.122 190.119 334.398C190.527 334.674 191.037 334.812 191.649 334.812C192.177 334.812 192.639 334.758 193.035 334.65C193.443 334.542 193.815 334.41 194.151 334.254V335.658C193.827 335.826 193.467 335.952 193.071 336.036C192.687 336.132 192.219 336.18 191.667 336.18ZM206.795 326.352V336H205.373V329.844C205.373 329.592 205.379 329.328 205.391 329.052C205.415 328.776 205.439 328.506 205.463 328.242H205.409L202.259 336H200.927L197.867 328.242H197.813C197.837 328.506 197.849 328.776 197.849 329.052C197.861 329.328 197.867 329.61 197.867 329.898V336H196.445V326.352H198.551L201.593 334.11L204.689 326.352H206.795ZM213.601 326.172C214.429 326.172 215.137 326.352 215.725 326.712C216.325 327.072 216.781 327.582 217.093 328.242C217.417 328.89 217.579 329.652 217.579 330.528V331.482H210.973C210.997 332.574 211.273 333.408 211.801 333.984C212.341 334.548 213.091 334.83 214.051 334.83C214.663 334.83 215.203 334.776 215.671 334.668C216.151 334.548 216.643 334.38 217.147 334.164V335.55C216.655 335.766 216.169 335.922 215.689 336.018C215.209 336.126 214.639 336.18 213.979 336.18C213.067 336.18 212.257 335.994 211.549 335.622C210.853 335.25 210.307 334.698 209.911 333.966C209.527 333.222 209.335 332.316 209.335 331.248C209.335 330.192 209.509 329.286 209.857 328.53C210.217 327.774 210.715 327.192 211.351 326.784C211.999 326.376 212.749 326.172 213.601 326.172ZM213.583 327.468C212.827 327.468 212.227 327.714 211.783 328.206C211.351 328.686 211.093 329.358 211.009 330.222H215.923C215.923 329.67 215.839 329.19 215.671 328.782C215.503 328.374 215.245 328.056 214.897 327.828C214.561 327.588 214.123 327.468 213.583 327.468ZM224.625 326.172C225.813 326.172 226.767 326.586 227.487 327.414C228.219 328.242 228.585 329.49 228.585 331.158C228.585 332.25 228.417 333.174 228.081 333.93C227.757 334.674 227.295 335.238 226.695 335.622C226.107 335.994 225.411 336.18 224.607 336.18C224.115 336.18 223.677 336.114 223.293 335.982C222.909 335.85 222.579 335.682 222.303 335.478C222.039 335.262 221.811 335.028 221.619 334.776H221.511C221.535 334.98 221.559 335.238 221.583 335.55C221.607 335.862 221.619 336.132 221.619 336.36V340.32H220.035V326.352H221.331L221.547 327.666H221.619C221.811 327.39 222.039 327.138 222.303 326.91C222.579 326.682 222.903 326.502 223.275 326.37C223.659 326.238 224.109 326.172 224.625 326.172ZM224.337 327.504C223.689 327.504 223.167 327.63 222.771 327.882C222.375 328.122 222.087 328.488 221.907 328.98C221.727 329.472 221.631 330.096 221.619 330.852V331.158C221.619 331.95 221.703 332.622 221.871 333.174C222.039 333.726 222.321 334.146 222.717 334.434C223.125 334.722 223.677 334.866 224.373 334.866C224.961 334.866 225.441 334.704 225.813 334.38C226.197 334.056 226.479 333.618 226.659 333.066C226.851 332.502 226.947 331.86 226.947 331.14C226.947 330.036 226.731 329.154 226.299 328.494C225.879 327.834 225.225 327.504 224.337 327.504ZM237.593 327.684H234.443V336H232.877V327.684H229.763V326.352H237.593V327.684ZM241.078 326.352V330.366H246.316V326.352H247.9V336H246.316V331.698H241.078V336H239.494V326.352H241.078ZM259.343 331.158C259.343 331.962 259.235 332.676 259.019 333.3C258.815 333.912 258.515 334.434 258.119 334.866C257.735 335.298 257.261 335.628 256.697 335.856C256.145 336.072 255.527 336.18 254.843 336.18C254.207 336.18 253.619 336.072 253.079 335.856C252.539 335.628 252.071 335.298 251.675 334.866C251.279 334.434 250.967 333.912 250.739 333.3C250.523 332.676 250.415 331.962 250.415 331.158C250.415 330.09 250.595 329.19 250.955 328.458C251.315 327.714 251.831 327.15 252.503 326.766C253.175 326.37 253.973 326.172 254.897 326.172C255.773 326.172 256.541 326.37 257.201 326.766C257.873 327.15 258.395 327.714 258.767 328.458C259.151 329.19 259.343 330.09 259.343 331.158ZM252.053 331.158C252.053 331.914 252.149 332.574 252.341 333.138C252.545 333.69 252.857 334.116 253.277 334.416C253.697 334.716 254.231 334.866 254.879 334.866C255.527 334.866 256.061 334.716 256.481 334.416C256.901 334.116 257.207 333.69 257.399 333.138C257.603 332.574 257.705 331.914 257.705 331.158C257.705 330.39 257.603 329.736 257.399 329.196C257.195 328.656 256.883 328.242 256.463 327.954C256.055 327.654 255.521 327.504 254.861 327.504C253.877 327.504 253.163 327.828 252.719 328.476C252.275 329.124 252.053 330.018 252.053 331.158ZM265.723 336.18C264.871 336.18 264.109 336.006 263.437 335.658C262.777 335.31 262.255 334.77 261.871 334.038C261.499 333.306 261.313 332.37 261.313 331.23C261.313 330.042 261.511 329.076 261.907 328.332C262.303 327.588 262.837 327.042 263.509 326.694C264.193 326.346 264.967 326.172 265.831 326.172C266.323 326.172 266.797 326.226 267.253 326.334C267.709 326.43 268.081 326.55 268.369 326.694L267.883 328.008C267.595 327.9 267.259 327.798 266.875 327.702C266.491 327.606 266.131 327.558 265.795 327.558C265.147 327.558 264.613 327.696 264.193 327.972C263.773 328.248 263.461 328.656 263.257 329.196C263.053 329.736 262.951 330.408 262.951 331.212C262.951 331.98 263.053 332.634 263.257 333.174C263.461 333.714 263.767 334.122 264.175 334.398C264.583 334.674 265.093 334.812 265.705 334.812C266.233 334.812 266.695 334.758 267.091 334.65C267.499 334.542 267.871 334.41 268.207 334.254V335.658C267.883 335.826 267.523 335.952 267.127 336.036C266.743 336.132 266.275 336.18 265.723 336.18ZM277.162 327.684H274.012V336H272.446V327.684H269.332V326.352H277.162V327.684ZM283.508 330.312C284.348 330.312 285.044 330.414 285.596 330.618C286.148 330.822 286.562 331.128 286.838 331.536C287.126 331.932 287.27 332.436 287.27 333.048C287.27 333.648 287.132 334.17 286.856 334.614C286.592 335.058 286.178 335.4 285.614 335.64C285.05 335.88 284.324 336 283.436 336H279.062V326.352H280.646V330.312H283.508ZM285.686 333.138C285.686 332.55 285.476 332.154 285.056 331.95C284.648 331.734 284.072 331.626 283.328 331.626H280.646V334.722H283.364C284.036 334.722 284.588 334.602 285.02 334.362C285.464 334.122 285.686 333.714 285.686 333.138ZM302.901 331.158C302.901 331.962 302.793 332.676 302.577 333.3C302.373 333.912 302.073 334.434 301.677 334.866C301.293 335.298 300.819 335.628 300.255 335.856C299.703 336.072 299.085 336.18 298.401 336.18C297.765 336.18 297.177 336.072 296.637 335.856C296.097 335.628 295.629 335.298 295.233 334.866C294.837 334.434 294.525 333.912 294.297 333.3C294.081 332.676 293.973 331.962 293.973 331.158C293.973 330.09 294.153 329.19 294.513 328.458C294.873 327.714 295.389 327.15 296.061 326.766C296.733 326.37 297.531 326.172 298.455 326.172C299.331 326.172 300.099 326.37 300.759 326.766C301.431 327.15 301.953 327.714 302.325 328.458C302.709 329.19 302.901 330.09 302.901 331.158ZM295.611 331.158C295.611 331.914 295.707 332.574 295.899 333.138C296.103 333.69 296.415 334.116 296.835 334.416C297.255 334.716 297.789 334.866 298.437 334.866C299.085 334.866 299.619 334.716 300.039 334.416C300.459 334.116 300.765 333.69 300.957 333.138C301.161 332.574 301.263 331.914 301.263 331.158C301.263 330.39 301.161 329.736 300.957 329.196C300.753 328.656 300.441 328.242 300.021 327.954C299.613 327.654 299.079 327.504 298.419 327.504C297.435 327.504 296.721 327.828 296.277 328.476C295.833 329.124 295.611 330.018 295.611 331.158ZM311.896 327.684H308.746V336H307.18V327.684H304.066V326.352H311.896V327.684ZM323.15 326.172C324.338 326.172 325.292 326.586 326.012 327.414C326.744 328.242 327.11 329.49 327.11 331.158C327.11 332.25 326.942 333.174 326.606 333.93C326.282 334.674 325.82 335.238 325.22 335.622C324.632 335.994 323.936 336.18 323.132 336.18C322.64 336.18 322.202 336.114 321.818 335.982C321.434 335.85 321.104 335.682 320.828 335.478C320.564 335.262 320.336 335.028 320.144 334.776H320.036C320.06 334.98 320.084 335.238 320.108 335.55C320.132 335.862 320.144 336.132 320.144 336.36V340.32H318.56V326.352H319.856L320.072 327.666H320.144C320.336 327.39 320.564 327.138 320.828 326.91C321.104 326.682 321.428 326.502 321.8 326.37C322.184 326.238 322.634 326.172 323.15 326.172ZM322.862 327.504C322.214 327.504 321.692 327.63 321.296 327.882C320.9 328.122 320.612 328.488 320.432 328.98C320.252 329.472 320.156 330.096 320.144 330.852V331.158C320.144 331.95 320.228 332.622 320.396 333.174C320.564 333.726 320.846 334.146 321.242 334.434C321.65 334.722 322.202 334.866 322.898 334.866C323.486 334.866 323.966 334.704 324.338 334.38C324.722 334.056 325.004 333.618 325.184 333.066C325.376 332.502 325.472 331.86 325.472 331.14C325.472 330.036 325.256 329.154 324.824 328.494C324.404 327.834 323.75 327.504 322.862 327.504ZM333.288 326.19C334.464 326.19 335.334 326.448 335.898 326.964C336.462 327.48 336.744 328.302 336.744 329.43V336H335.592L335.286 334.632H335.214C334.938 334.98 334.65 335.274 334.35 335.514C334.062 335.742 333.726 335.91 333.342 336.018C332.97 336.126 332.514 336.18 331.974 336.18C331.398 336.18 330.876 336.078 330.408 335.874C329.952 335.67 329.592 335.358 329.328 334.938C329.064 334.506 328.932 333.966 328.932 333.318C328.932 332.358 329.31 331.62 330.066 331.104C330.822 330.576 331.986 330.288 333.558 330.24L335.196 330.186V329.61C335.196 328.806 335.022 328.248 334.674 327.936C334.326 327.624 333.834 327.468 333.198 327.468C332.694 327.468 332.214 327.546 331.758 327.702C331.302 327.846 330.876 328.014 330.48 328.206L329.994 327.018C330.414 326.79 330.912 326.598 331.488 326.442C332.064 326.274 332.664 326.19 333.288 326.19ZM333.756 331.338C332.556 331.386 331.722 331.578 331.254 331.914C330.798 332.25 330.57 332.724 330.57 333.336C330.57 333.876 330.732 334.272 331.056 334.524C331.392 334.776 331.818 334.902 332.334 334.902C333.15 334.902 333.828 334.68 334.368 334.236C334.908 333.78 335.178 333.084 335.178 332.148V331.284L333.756 331.338ZM345.43 326.352H347.158L343.036 330.996L347.5 336H345.664L341.308 331.104V336H339.724V326.352H341.308V331.032L345.43 326.352ZM352.906 326.19C354.082 326.19 354.952 326.448 355.516 326.964C356.08 327.48 356.362 328.302 356.362 329.43V336H355.21L354.904 334.632H354.832C354.556 334.98 354.268 335.274 353.968 335.514C353.68 335.742 353.344 335.91 352.96 336.018C352.588 336.126 352.132 336.18 351.592 336.18C351.016 336.18 350.494 336.078 350.026 335.874C349.57 335.67 349.21 335.358 348.946 334.938C348.682 334.506 348.55 333.966 348.55 333.318C348.55 332.358 348.928 331.62 349.684 331.104C350.44 330.576 351.604 330.288 353.176 330.24L354.814 330.186V329.61C354.814 328.806 354.64 328.248 354.292 327.936C353.944 327.624 353.452 327.468 352.816 327.468C352.312 327.468 351.832 327.546 351.376 327.702C350.92 327.846 350.494 328.014 350.098 328.206L349.612 327.018C350.032 326.79 350.53 326.598 351.106 326.442C351.682 326.274 352.282 326.19 352.906 326.19ZM353.374 331.338C352.174 331.386 351.34 331.578 350.872 331.914C350.416 332.25 350.188 332.724 350.188 333.336C350.188 333.876 350.35 334.272 350.674 334.524C351.01 334.776 351.436 334.902 351.952 334.902C352.768 334.902 353.446 334.68 353.986 334.236C354.526 333.78 354.796 333.084 354.796 332.148V331.284L353.374 331.338ZM163.175 349.352V359H161.753V352.844C161.753 352.592 161.759 352.328 161.771 352.052C161.795 351.776 161.819 351.506 161.843 351.242H161.789L158.639 359H157.307L154.247 351.242H154.193C154.217 351.506 154.229 351.776 154.229 352.052C154.241 352.328 154.247 352.61 154.247 352.898V359H152.825V349.352H154.931L157.973 357.11L161.069 349.352H163.175ZM174.643 354.158C174.643 354.962 174.535 355.676 174.319 356.3C174.115 356.912 173.815 357.434 173.419 357.866C173.035 358.298 172.561 358.628 171.997 358.856C171.445 359.072 170.827 359.18 170.143 359.18C169.507 359.18 168.919 359.072 168.379 358.856C167.839 358.628 167.371 358.298 166.975 357.866C166.579 357.434 166.267 356.912 166.039 356.3C165.823 355.676 165.715 354.962 165.715 354.158C165.715 353.09 165.895 352.19 166.255 351.458C166.615 350.714 167.131 350.15 167.803 349.766C168.475 349.37 169.273 349.172 170.197 349.172C171.073 349.172 171.841 349.37 172.501 349.766C173.173 350.15 173.695 350.714 174.067 351.458C174.451 352.19 174.643 353.09 174.643 354.158ZM167.353 354.158C167.353 354.914 167.449 355.574 167.641 356.138C167.845 356.69 168.157 357.116 168.577 357.416C168.997 357.716 169.531 357.866 170.179 357.866C170.827 357.866 171.361 357.716 171.781 357.416C172.201 357.116 172.507 356.69 172.699 356.138C172.903 355.574 173.005 354.914 173.005 354.158C173.005 353.39 172.903 352.736 172.699 352.196C172.495 351.656 172.183 351.242 171.763 350.954C171.355 350.654 170.821 350.504 170.161 350.504C169.177 350.504 168.463 350.828 168.019 351.476C167.575 352.124 167.353 353.018 167.353 354.158ZM184.497 359H182.895V350.666H180.051C179.931 352.19 179.781 353.492 179.601 354.572C179.421 355.64 179.193 356.51 178.917 357.182C178.641 357.854 178.311 358.346 177.927 358.658C177.543 358.97 177.093 359.126 176.577 359.126C176.421 359.126 176.265 359.114 176.109 359.09C175.965 359.078 175.845 359.048 175.749 359V357.812C175.821 357.836 175.899 357.854 175.983 357.866C176.067 357.878 176.151 357.884 176.235 357.884C176.499 357.884 176.739 357.776 176.955 357.56C177.171 357.344 177.363 357.014 177.531 356.57C177.711 356.126 177.873 355.568 178.017 354.896C178.161 354.212 178.287 353.408 178.395 352.484C178.503 351.56 178.599 350.516 178.683 349.352H184.497V359ZM195.947 354.158C195.947 354.962 195.839 355.676 195.623 356.3C195.419 356.912 195.119 357.434 194.723 357.866C194.339 358.298 193.865 358.628 193.301 358.856C192.749 359.072 192.131 359.18 191.447 359.18C190.811 359.18 190.223 359.072 189.683 358.856C189.143 358.628 188.675 358.298 188.279 357.866C187.883 357.434 187.571 356.912 187.343 356.3C187.127 355.676 187.019 354.962 187.019 354.158C187.019 353.09 187.199 352.19 187.559 351.458C187.919 350.714 188.435 350.15 189.107 349.766C189.779 349.37 190.577 349.172 191.501 349.172C192.377 349.172 193.145 349.37 193.805 349.766C194.477 350.15 194.999 350.714 195.371 351.458C195.755 352.19 195.947 353.09 195.947 354.158ZM188.657 354.158C188.657 354.914 188.753 355.574 188.945 356.138C189.149 356.69 189.461 357.116 189.881 357.416C190.301 357.716 190.835 357.866 191.483 357.866C192.131 357.866 192.665 357.716 193.085 357.416C193.505 357.116 193.811 356.69 194.003 356.138C194.207 355.574 194.309 354.914 194.309 354.158C194.309 353.39 194.207 352.736 194.003 352.196C193.799 351.656 193.487 351.242 193.067 350.954C192.659 350.654 192.125 350.504 191.465 350.504C190.481 350.504 189.767 350.828 189.323 351.476C188.879 352.124 188.657 353.018 188.657 354.158ZM199.668 352.862C199.668 353.426 199.824 353.846 200.136 354.122C200.46 354.386 200.922 354.518 201.522 354.518C202.122 354.518 202.668 354.428 203.16 354.248C203.652 354.056 204.156 353.804 204.672 353.492V349.352H206.256V359H204.672V354.698C204.132 355.046 203.598 355.322 203.07 355.526C202.554 355.718 201.93 355.814 201.198 355.814C200.214 355.814 199.446 355.556 198.894 355.04C198.354 354.524 198.084 353.834 198.084 352.97V349.352H199.668V352.862ZM210.905 349.352V353.366H216.143V349.352H217.727V359H216.143V354.698H210.905V359H209.321V349.352H210.905ZM229.17 354.158C229.17 354.962 229.062 355.676 228.846 356.3C228.642 356.912 228.342 357.434 227.946 357.866C227.562 358.298 227.088 358.628 226.524 358.856C225.972 359.072 225.354 359.18 224.67 359.18C224.034 359.18 223.446 359.072 222.906 358.856C222.366 358.628 221.898 358.298 221.502 357.866C221.106 357.434 220.794 356.912 220.566 356.3C220.35 355.676 220.242 354.962 220.242 354.158C220.242 353.09 220.422 352.19 220.782 351.458C221.142 350.714 221.658 350.15 222.33 349.766C223.002 349.37 223.8 349.172 224.724 349.172C225.6 349.172 226.368 349.37 227.028 349.766C227.7 350.15 228.222 350.714 228.594 351.458C228.978 352.19 229.17 353.09 229.17 354.158ZM221.88 354.158C221.88 354.914 221.976 355.574 222.168 356.138C222.372 356.69 222.684 357.116 223.104 357.416C223.524 357.716 224.058 357.866 224.706 357.866C225.354 357.866 225.888 357.716 226.308 357.416C226.728 357.116 227.034 356.69 227.226 356.138C227.43 355.574 227.532 354.914 227.532 354.158C227.532 353.39 227.43 352.736 227.226 352.196C227.022 351.656 226.71 351.242 226.29 350.954C225.882 350.654 225.348 350.504 224.688 350.504C223.704 350.504 222.99 350.828 222.546 351.476C222.102 352.124 221.88 353.018 221.88 354.158ZM239.492 345.356C239.444 345.956 239.294 346.46 239.042 346.868C238.802 347.276 238.442 347.582 237.962 347.786C237.482 347.99 236.858 348.092 236.09 348.092C235.31 348.092 234.68 347.99 234.2 347.786C233.732 347.582 233.39 347.282 233.174 346.886C232.958 346.478 232.826 345.968 232.778 345.356H234.254C234.314 346.004 234.482 346.442 234.758 346.67C235.046 346.886 235.502 346.994 236.126 346.994C236.678 346.994 237.11 346.88 237.422 346.652C237.746 346.412 237.938 345.98 237.998 345.356H239.492ZM233.174 355.238C233.174 355.346 233.168 355.502 233.156 355.706C233.156 355.898 233.15 356.108 233.138 356.336C233.126 356.552 233.114 356.762 233.102 356.966C233.09 357.158 233.078 357.314 233.066 357.434L238.232 349.352H240.176V359H238.7V353.312C238.7 353.12 238.7 352.868 238.7 352.556C238.712 352.244 238.724 351.938 238.736 351.638C238.748 351.326 238.76 351.092 238.772 350.936L233.642 359H231.68V349.352H233.174V355.238ZM259.584 349.352L255.606 354.032L259.926 359H258.126L253.95 354.104V359H252.474V354.104L248.298 359H246.498L250.818 354.032L246.84 349.352H248.568L252.474 354.032V349.352H253.95V354.032L257.874 349.352H259.584ZM264.885 349.172C265.713 349.172 266.421 349.352 267.009 349.712C267.609 350.072 268.065 350.582 268.377 351.242C268.701 351.89 268.863 352.652 268.863 353.528V354.482H262.257C262.281 355.574 262.557 356.408 263.085 356.984C263.625 357.548 264.375 357.83 265.335 357.83C265.947 357.83 266.487 357.776 266.955 357.668C267.435 357.548 267.927 357.38 268.431 357.164V358.55C267.939 358.766 267.453 358.922 266.973 359.018C266.493 359.126 265.923 359.18 265.263 359.18C264.351 359.18 263.541 358.994 262.833 358.622C262.137 358.25 261.591 357.698 261.195 356.966C260.811 356.222 260.619 355.316 260.619 354.248C260.619 353.192 260.793 352.286 261.141 351.53C261.501 350.774 261.999 350.192 262.635 349.784C263.283 349.376 264.033 349.172 264.885 349.172ZM264.867 350.468C264.111 350.468 263.511 350.714 263.067 351.206C262.635 351.686 262.377 352.358 262.293 353.222H267.207C267.207 352.67 267.123 352.19 266.955 351.782C266.787 351.374 266.529 351.056 266.181 350.828C265.845 350.588 265.407 350.468 264.867 350.468ZM278.663 359H277.061V350.666H274.217C274.097 352.19 273.947 353.492 273.767 354.572C273.587 355.64 273.359 356.51 273.083 357.182C272.807 357.854 272.477 358.346 272.093 358.658C271.709 358.97 271.259 359.126 270.743 359.126C270.587 359.126 270.431 359.114 270.275 359.09C270.131 359.078 270.011 359.048 269.915 359V357.812C269.987 357.836 270.065 357.854 270.149 357.866C270.233 357.878 270.317 357.884 270.401 357.884C270.665 357.884 270.905 357.776 271.121 357.56C271.337 357.344 271.529 357.014 271.697 356.57C271.877 356.126 272.039 355.568 272.183 354.896C272.327 354.212 272.453 353.408 272.561 352.484C272.669 351.56 272.765 350.516 272.849 349.352H278.663V359ZM285.451 349.172C286.279 349.172 286.987 349.352 287.575 349.712C288.175 350.072 288.631 350.582 288.943 351.242C289.267 351.89 289.429 352.652 289.429 353.528V354.482H282.823C282.847 355.574 283.123 356.408 283.651 356.984C284.191 357.548 284.941 357.83 285.901 357.83C286.513 357.83 287.053 357.776 287.521 357.668C288.001 357.548 288.493 357.38 288.997 357.164V358.55C288.505 358.766 288.019 358.922 287.539 359.018C287.059 359.126 286.489 359.18 285.829 359.18C284.917 359.18 284.107 358.994 283.399 358.622C282.703 358.25 282.157 357.698 281.761 356.966C281.377 356.222 281.185 355.316 281.185 354.248C281.185 353.192 281.359 352.286 281.707 351.53C282.067 350.774 282.565 350.192 283.201 349.784C283.849 349.376 284.599 349.172 285.451 349.172ZM285.433 350.468C284.677 350.468 284.077 350.714 283.633 351.206C283.201 351.686 282.943 352.358 282.859 353.222H287.773C287.773 352.67 287.689 352.19 287.521 351.782C287.353 351.374 287.095 351.056 286.747 350.828C286.411 350.588 285.973 350.468 285.433 350.468ZM294.423 349.172C295.155 349.172 295.791 349.274 296.331 349.478C296.871 349.67 297.291 349.958 297.591 350.342C297.891 350.714 298.041 351.17 298.041 351.71C298.041 352.298 297.879 352.766 297.555 353.114C297.231 353.45 296.787 353.696 296.223 353.852V353.924C296.607 354.032 296.961 354.182 297.285 354.374C297.609 354.566 297.867 354.818 298.059 355.13C298.263 355.442 298.365 355.844 298.365 356.336C298.365 356.864 298.215 357.344 297.915 357.776C297.627 358.208 297.177 358.55 296.565 358.802C295.965 359.054 295.191 359.18 294.243 359.18C293.787 359.18 293.349 359.156 292.929 359.108C292.521 359.06 292.149 358.988 291.813 358.892C291.489 358.796 291.201 358.682 290.949 358.55V357.128C291.357 357.32 291.837 357.494 292.389 357.65C292.953 357.806 293.565 357.884 294.225 357.884C294.705 357.884 295.137 357.83 295.521 357.722C295.917 357.614 296.229 357.446 296.457 357.218C296.685 356.978 296.799 356.654 296.799 356.246C296.799 355.874 296.697 355.574 296.493 355.346C296.289 355.106 295.983 354.926 295.575 354.806C295.179 354.686 294.669 354.626 294.045 354.626H292.749V353.33H293.793C294.621 353.33 295.281 353.222 295.773 353.006C296.277 352.778 296.529 352.394 296.529 351.854C296.529 351.398 296.337 351.056 295.953 350.828C295.581 350.6 295.041 350.486 294.333 350.486C293.805 350.486 293.337 350.54 292.929 350.648C292.533 350.744 292.095 350.894 291.615 351.098L291.057 349.838C291.573 349.61 292.113 349.442 292.677 349.334C293.241 349.226 293.823 349.172 294.423 349.172ZM300.71 359V349.352H302.294V353.312H304.796C305.636 353.312 306.326 353.414 306.866 353.618C307.406 353.822 307.808 354.128 308.072 354.536C308.336 354.932 308.468 355.436 308.468 356.048C308.468 356.648 308.336 357.17 308.072 357.614C307.82 358.058 307.418 358.4 306.866 358.64C306.326 358.88 305.612 359 304.724 359H300.71ZM304.58 357.722C305.264 357.722 305.822 357.608 306.254 357.38C306.686 357.14 306.902 356.726 306.902 356.138C306.902 355.55 306.704 355.154 306.308 354.95C305.912 354.734 305.342 354.626 304.598 354.626H302.294V357.722H304.58ZM310.07 359V349.352H311.654V359H310.07ZM314.953 359.09C314.653 359.09 314.401 358.994 314.197 358.802C314.005 358.598 313.909 358.352 313.909 358.064C313.909 357.776 314.005 357.536 314.197 357.344C314.401 357.14 314.653 357.038 314.953 357.038C315.241 357.038 315.481 357.14 315.673 357.344C315.877 357.536 315.979 357.776 315.979 358.064C315.979 358.352 315.877 358.598 315.673 358.802C315.481 358.994 315.241 359.09 314.953 359.09Z" fill="black"/>
<circle cx="217.224" cy="93.6873" r="9.70681" transform="rotate(127.754 217.224 93.6873)" fill="#EA5858"/>
<ellipse cx="157.456" cy="242.826" rx="9.79361" ry="9.70681" transform="rotate(127.754 157.456 242.826)" fill="#EA5858"/>
<mask id="mask0_1397_833" style="mask-type:alpha" maskUnits="userSpaceOnUse" x="84" y="62" width="134" height="189">
<path d="M211.345 178.911L149 251L84.0631 222.656L161.579 62.984L217.081 76.242L217.749 143.16L211.345 178.911Z" fill="#C4C4C4"/>
</mask>
<g mask="url(#mask0_1397_833)">
<path fill-rule="evenodd" clip-rule="evenodd" d="M137.614 120.437C105.685 161.667 113.226 220.973 154.456 252.901C195.686 284.83 254.992 277.289 286.921 236.059C318.849 194.829 311.308 135.523 270.078 103.594C228.848 71.666 169.542 79.2066 137.614 120.437ZM152.963 132.323C127.599 165.076 133.59 212.188 166.342 237.552C199.095 262.916 246.208 256.925 271.571 224.173C296.935 191.42 290.945 144.307 258.192 118.944C225.439 93.58 178.327 99.5701 152.963 132.323Z" fill="#EA5858"/>
</g>
<path d="M171.226 189V186.024C172.591 184.893 173.914 183.773 175.194 182.664C176.495 181.555 177.647 180.456 178.65 179.368C179.674 178.28 180.484 177.224 181.082 176.2C181.7 175.155 182.01 174.141 182.01 173.16C182.01 172.243 181.754 171.432 181.242 170.728C180.751 170.024 179.93 169.672 178.778 169.672C177.604 169.672 176.719 170.056 176.122 170.824C175.524 171.592 175.226 172.52 175.226 173.608H171.258C171.3 171.965 171.663 170.6 172.346 169.512C173.028 168.403 173.935 167.581 175.066 167.048C176.196 166.493 177.466 166.216 178.874 166.216C181.156 166.216 182.927 166.845 184.186 168.104C185.466 169.341 186.106 170.952 186.106 172.936C186.106 174.173 185.818 175.379 185.242 176.552C184.687 177.725 183.951 178.856 183.034 179.944C182.116 181.032 181.124 182.056 180.058 183.016C178.991 183.955 177.956 184.829 176.954 185.64H186.65V189H171.226ZM199.079 189.384C197.009 189.384 195.239 188.904 193.767 187.944C192.295 186.963 191.153 185.608 190.343 183.88C189.553 182.131 189.159 180.104 189.159 177.8C189.159 175.517 189.553 173.501 190.343 171.752C191.153 170.003 192.295 168.648 193.767 167.688C195.239 166.707 197.009 166.216 199.079 166.216C201.148 166.216 202.919 166.707 204.391 167.688C205.863 168.648 206.993 170.003 207.783 171.752C208.593 173.501 208.999 175.517 208.999 177.8C208.999 180.104 208.593 182.131 207.783 183.88C206.993 185.608 205.863 186.963 204.391 187.944C202.919 188.904 201.148 189.384 199.079 189.384ZM199.079 185.704C200.764 185.704 202.14 185 203.207 183.592C204.273 182.184 204.807 180.253 204.807 177.8C204.807 175.347 204.273 173.416 203.207 172.008C202.14 170.6 200.764 169.896 199.079 169.896C197.372 169.896 195.985 170.6 194.919 172.008C193.873 173.416 193.351 175.347 193.351 177.8C193.351 180.253 193.873 182.184 194.919 183.592C195.985 185 197.372 185.704 199.079 185.704ZM212.166 181.448V178.024H225.574V181.448H212.166ZM236.817 189.384C235.345 189.384 234.011 189.128 232.817 188.616C231.622 188.083 230.662 187.272 229.937 186.184C229.211 185.096 228.827 183.731 228.785 182.088H232.817C232.838 183.176 233.19 184.093 233.873 184.84C234.577 185.565 235.558 185.928 236.817 185.928C238.011 185.928 238.929 185.597 239.569 184.936C240.209 184.275 240.529 183.443 240.529 182.44C240.529 181.267 240.102 180.381 239.249 179.784C238.417 179.165 237.339 178.856 236.017 178.856H234.353V175.496H236.049C237.137 175.496 238.043 175.24 238.769 174.728C239.494 174.216 239.857 173.459 239.857 172.456C239.857 171.624 239.579 170.963 239.025 170.472C238.491 169.96 237.745 169.704 236.785 169.704C235.739 169.704 234.918 170.013 234.321 170.632C233.745 171.251 233.425 172.008 233.361 172.904H229.361C229.446 170.835 230.161 169.203 231.505 168.008C232.87 166.813 234.63 166.216 236.785 166.216C238.321 166.216 239.611 166.493 240.657 167.048C241.723 167.581 242.523 168.296 243.057 169.192C243.611 170.088 243.889 171.08 243.889 172.168C243.889 173.427 243.537 174.493 242.833 175.368C242.15 176.221 241.297 176.797 240.273 177.096C241.531 177.352 242.555 177.971 243.345 178.952C244.134 179.912 244.529 181.128 244.529 182.6C244.529 183.837 244.23 184.968 243.633 185.992C243.035 187.016 242.161 187.837 241.009 188.456C239.878 189.075 238.481 189.384 236.817 189.384ZM257.735 189.384C255.666 189.384 253.895 188.904 252.423 187.944C250.951 186.963 249.81 185.608 248.999 183.88C248.21 182.131 247.815 180.104 247.815 177.8C247.815 175.517 248.21 173.501 248.999 171.752C249.81 170.003 250.951 168.648 252.423 167.688C253.895 166.707 255.666 166.216 257.735 166.216C259.804 166.216 261.575 166.707 263.047 167.688C264.519 168.648 265.65 170.003 266.439 171.752C267.25 173.501 267.655 175.517 267.655 177.8C267.655 180.104 267.25 182.131 266.439 183.88C265.65 185.608 264.519 186.963 263.047 187.944C261.575 188.904 259.804 189.384 257.735 189.384ZM257.735 185.704C259.42 185.704 260.796 185 261.863 183.592C262.93 182.184 263.463 180.253 263.463 177.8C263.463 175.347 262.93 173.416 261.863 172.008C260.796 170.6 259.42 169.896 257.735 169.896C256.028 169.896 254.642 170.6 253.575 172.008C252.53 173.416 252.007 175.347 252.007 177.8C252.007 180.253 252.53 182.184 253.575 183.592C254.642 185 256.028 185.704 257.735 185.704ZM275.878 177.608C274.854 177.608 273.926 177.384 273.094 176.936C272.262 176.467 271.6 175.805 271.11 174.952C270.619 174.099 270.374 173.085 270.374 171.912C270.374 170.739 270.619 169.725 271.11 168.872C271.6 168.019 272.262 167.368 273.094 166.92C273.926 166.451 274.864 166.216 275.91 166.216C276.934 166.216 277.851 166.451 278.662 166.92C279.494 167.368 280.155 168.019 280.646 168.872C281.136 169.725 281.382 170.739 281.382 171.912C281.382 173.085 281.136 174.099 280.646 174.952C280.155 175.805 279.494 176.467 278.662 176.936C277.83 177.384 276.902 177.608 275.878 177.608ZM274.662 189L287.302 166.6H291.302L278.662 189H274.662ZM275.878 174.76C276.496 174.76 277.03 174.525 277.478 174.056C277.926 173.565 278.15 172.851 278.15 171.912C278.15 170.973 277.926 170.259 277.478 169.768C277.051 169.277 276.518 169.032 275.878 169.032C275.238 169.032 274.694 169.277 274.246 169.768C273.819 170.259 273.606 170.973 273.606 171.912C273.606 172.851 273.819 173.565 274.246 174.056C274.694 174.525 275.238 174.76 275.878 174.76ZM290.214 189.384C289.19 189.384 288.262 189.16 287.43 188.712C286.598 188.243 285.936 187.581 285.446 186.728C284.955 185.875 284.71 184.861 284.71 183.688C284.71 182.515 284.955 181.512 285.446 180.68C285.936 179.827 286.598 179.176 287.43 178.728C288.262 178.259 289.2 178.024 290.246 178.024C291.27 178.024 292.187 178.259 292.998 178.728C293.83 179.176 294.491 179.827 294.982 180.68C295.472 181.512 295.718 182.515 295.718 183.688C295.718 184.861 295.472 185.875 294.982 186.728C294.491 187.581 293.83 188.243 292.998 188.712C292.187 189.16 291.259 189.384 290.214 189.384ZM290.214 186.536C290.854 186.536 291.387 186.301 291.814 185.832C292.262 185.341 292.486 184.627 292.486 183.688C292.486 182.749 292.262 182.035 291.814 181.544C291.387 181.053 290.854 180.808 290.214 180.808C289.574 180.808 289.03 181.053 288.582 181.544C288.155 182.035 287.942 182.749 287.942 183.688C287.942 184.627 288.155 185.341 288.582 185.832C289.03 186.301 289.574 186.536 290.214 186.536Z" fill="#1B1642"/>
</g>
</g>
<defs>
<filter id="filter0_dd_1397_833" x="0" y="0" width="468" height="529" filterUnits="userSpaceOnUse" color-interpolation-filters="sRGB">
<feFlood flood-opacity="0" result="BackgroundImageFix"/>
<feColorMatrix in="SourceAlpha" type="matrix" values="0 0 0 0 0 0 0 0 0 0 0 0 0 0 0 0 0 0 127 0" result="hardAlpha"/>
<feOffset dy="44"/>
<feGaussianBlur stdDeviation="37"/>
<feColorMatrix type="matrix" values="0 0 0 0 0.103299 0 0 0 0 0.0836699 0 0 0 0 0.277995 0 0 0 0.06 0"/>
<feBlend mode="normal" in2="BackgroundImageFix" result="effect1_dropShadow_1397_833"/>
<feColorMatrix in="SourceAlpha" type="matrix" values="0 0 0 0 0 0 0 0 0 0 0 0 0 0 0 0 0 0 127 0" result="hardAlpha"/>
<feOffset/>
<feGaussianBlur stdDeviation="12"/>
<feColorMatrix type="matrix" values="0 0 0 0 0 0 0 0 0 0 0 0 0 0 0 0 0 0 0.04 0"/>
<feBlend mode="normal" in2="effect1_dropShadow_1397_833" result="effect2_dropShadow_1397_833"/>
<feBlend mode="normal" in="SourceGraphic" in2="effect2_dropShadow_1397_833" result="shape"/>
</filter>
<clipPath id="clip0_1397_833">
<path d="M74 46C74 37.1634 81.1634 30 90 30H394V395C394 403.837 386.837 411 378 411H74V46Z" fill="white"/>
</clipPath>
</defs>
</svg>
