<svg width="468" height="529" viewBox="0 0 468 529" fill="none" xmlns="http://www.w3.org/2000/svg">
<g filter="url(#filter0_dd_1397_880)">
<g clip-path="url(#clip0_1397_880)">
<path d="M74 46C74 37.1634 81.1634 30 90 30H394V395C394 403.837 386.837 411 378 411H74V46Z" fill="white"/>
<path d="M130.065 54.39C129.381 54.39 128.763 54.51 128.211 54.75C127.659 54.978 127.191 55.32 126.807 55.776C126.423 56.22 126.129 56.766 125.925 57.414C125.721 58.05 125.619 58.77 125.619 59.574C125.619 60.63 125.781 61.548 126.105 62.328C126.441 63.108 126.933 63.708 127.581 64.128C128.241 64.548 129.063 64.758 130.047 64.758C130.611 64.758 131.145 64.71 131.649 64.614C132.153 64.518 132.645 64.398 133.125 64.254V65.658C132.645 65.838 132.147 65.97 131.631 66.054C131.127 66.138 130.521 66.18 129.813 66.18C128.505 66.18 127.413 65.91 126.537 65.37C125.661 64.83 125.001 64.062 124.557 63.066C124.125 62.07 123.909 60.9 123.909 59.556C123.909 58.584 124.041 57.696 124.305 56.892C124.581 56.088 124.977 55.392 125.493 54.804C126.021 54.216 126.669 53.766 127.437 53.454C128.205 53.13 129.087 52.968 130.083 52.968C130.743 52.968 131.379 53.034 131.991 53.166C132.603 53.298 133.149 53.484 133.629 53.724L132.981 55.092C132.585 54.912 132.141 54.75 131.649 54.606C131.169 54.462 130.641 54.39 130.065 54.39ZM141.42 56.352H143.148L139.026 60.996L143.49 66H141.654L137.298 61.104V66H135.714V56.352H137.298V61.032L141.42 56.352ZM149.831 56.172C151.019 56.172 151.973 56.586 152.693 57.414C153.425 58.242 153.791 59.49 153.791 61.158C153.791 62.25 153.623 63.174 153.287 63.93C152.963 64.674 152.501 65.238 151.901 65.622C151.313 65.994 150.617 66.18 149.813 66.18C149.321 66.18 148.883 66.114 148.499 65.982C148.115 65.85 147.785 65.682 147.509 65.478C147.245 65.262 147.017 65.028 146.825 64.776H146.717C146.741 64.98 146.765 65.238 146.789 65.55C146.813 65.862 146.825 66.132 146.825 66.36V70.32H145.241V56.352H146.537L146.753 57.666H146.825C147.017 57.39 147.245 57.138 147.509 56.91C147.785 56.682 148.109 56.502 148.481 56.37C148.865 56.238 149.315 56.172 149.831 56.172ZM149.543 57.504C148.895 57.504 148.373 57.63 147.977 57.882C147.581 58.122 147.293 58.488 147.113 58.98C146.933 59.472 146.837 60.096 146.825 60.852V61.158C146.825 61.95 146.909 62.622 147.077 63.174C147.245 63.726 147.527 64.146 147.923 64.434C148.331 64.722 148.883 64.866 149.579 64.866C150.167 64.866 150.647 64.704 151.019 64.38C151.403 64.056 151.685 63.618 151.865 63.066C152.057 62.502 152.153 61.86 152.153 61.14C152.153 60.036 151.937 59.154 151.505 58.494C151.085 57.834 150.431 57.504 149.543 57.504ZM157.809 62.238C157.809 62.346 157.803 62.502 157.791 62.706C157.791 62.898 157.785 63.108 157.773 63.336C157.761 63.552 157.749 63.762 157.737 63.966C157.725 64.158 157.713 64.314 157.701 64.434L162.867 56.352H164.811V66H163.335V60.312C163.335 60.12 163.335 59.868 163.335 59.556C163.347 59.244 163.359 58.938 163.371 58.638C163.383 58.326 163.395 58.092 163.407 57.936L158.277 66H156.315V56.352H157.809V62.238ZM169.466 56.352V60.366H174.704V56.352H176.288V66H174.704V61.698H169.466V66H167.882V56.352H169.466ZM180.837 62.238C180.837 62.346 180.831 62.502 180.819 62.706C180.819 62.898 180.813 63.108 180.801 63.336C180.789 63.552 180.777 63.762 180.765 63.966C180.753 64.158 180.741 64.314 180.729 64.434L185.895 56.352H187.839V66H186.363V60.312C186.363 60.12 186.363 59.868 186.363 59.556C186.375 59.244 186.387 58.938 186.399 58.638C186.411 58.326 186.423 58.092 186.435 57.936L181.305 66H179.343V56.352H180.837V62.238ZM192.493 56.352V60.366H197.731V56.352H199.315V66H197.731V61.698H192.493V66H190.909V56.352H192.493ZM208.256 56.352V57.684H203.954V66H202.37V56.352H208.256ZM218.562 66.18C217.71 66.18 216.948 66.006 216.276 65.658C215.616 65.31 215.094 64.77 214.71 64.038C214.338 63.306 214.152 62.37 214.152 61.23C214.152 60.042 214.35 59.076 214.746 58.332C215.142 57.588 215.676 57.042 216.348 56.694C217.032 56.346 217.806 56.172 218.67 56.172C219.162 56.172 219.636 56.226 220.092 56.334C220.548 56.43 220.92 56.55 221.208 56.694L220.722 58.008C220.434 57.9 220.098 57.798 219.714 57.702C219.33 57.606 218.97 57.558 218.634 57.558C217.986 57.558 217.452 57.696 217.032 57.972C216.612 58.248 216.3 58.656 216.096 59.196C215.892 59.736 215.79 60.408 215.79 61.212C215.79 61.98 215.892 62.634 216.096 63.174C216.3 63.714 216.606 64.122 217.014 64.398C217.422 64.674 217.932 64.812 218.544 64.812C219.072 64.812 219.534 64.758 219.93 64.65C220.338 64.542 220.71 64.41 221.046 64.254V65.658C220.722 65.826 220.362 65.952 219.966 66.036C219.582 66.132 219.114 66.18 218.562 66.18ZM231.495 56.352V66H229.911V57.702H224.925V66H223.341V56.352H231.495ZM238.227 56.19C239.403 56.19 240.273 56.448 240.837 56.964C241.401 57.48 241.683 58.302 241.683 59.43V66H240.531L240.225 64.632H240.153C239.877 64.98 239.589 65.274 239.289 65.514C239.001 65.742 238.665 65.91 238.281 66.018C237.909 66.126 237.453 66.18 236.913 66.18C236.337 66.18 235.815 66.078 235.347 65.874C234.891 65.67 234.531 65.358 234.267 64.938C234.003 64.506 233.871 63.966 233.871 63.318C233.871 62.358 234.249 61.62 235.005 61.104C235.761 60.576 236.925 60.288 238.497 60.24L240.135 60.186V59.61C240.135 58.806 239.961 58.248 239.613 57.936C239.265 57.624 238.773 57.468 238.137 57.468C237.633 57.468 237.153 57.546 236.697 57.702C236.241 57.846 235.815 58.014 235.419 58.206L234.933 57.018C235.353 56.79 235.851 56.598 236.427 56.442C237.003 56.274 237.603 56.19 238.227 56.19ZM238.695 61.338C237.495 61.386 236.661 61.578 236.193 61.914C235.737 62.25 235.509 62.724 235.509 63.336C235.509 63.876 235.671 64.272 235.995 64.524C236.331 64.776 236.757 64.902 237.273 64.902C238.089 64.902 238.767 64.68 239.307 64.236C239.847 63.78 240.117 63.084 240.117 62.148V61.284L238.695 61.338ZM248.533 66.18C247.681 66.18 246.919 66.006 246.247 65.658C245.587 65.31 245.065 64.77 244.681 64.038C244.309 63.306 244.123 62.37 244.123 61.23C244.123 60.042 244.321 59.076 244.717 58.332C245.113 57.588 245.647 57.042 246.319 56.694C247.003 56.346 247.777 56.172 248.641 56.172C249.133 56.172 249.607 56.226 250.063 56.334C250.519 56.43 250.891 56.55 251.179 56.694L250.693 58.008C250.405 57.9 250.069 57.798 249.685 57.702C249.301 57.606 248.941 57.558 248.605 57.558C247.957 57.558 247.423 57.696 247.003 57.972C246.583 58.248 246.271 58.656 246.067 59.196C245.863 59.736 245.761 60.408 245.761 61.212C245.761 61.98 245.863 62.634 246.067 63.174C246.271 63.714 246.577 64.122 246.985 64.398C247.393 64.674 247.903 64.812 248.515 64.812C249.043 64.812 249.505 64.758 249.901 64.65C250.309 64.542 250.681 64.41 251.017 64.254V65.658C250.693 65.826 250.333 65.952 249.937 66.036C249.553 66.132 249.085 66.18 248.533 66.18ZM256.965 56.19C258.141 56.19 259.011 56.448 259.575 56.964C260.139 57.48 260.421 58.302 260.421 59.43V66H259.269L258.963 64.632H258.891C258.615 64.98 258.327 65.274 258.027 65.514C257.739 65.742 257.403 65.91 257.019 66.018C256.647 66.126 256.191 66.18 255.651 66.18C255.075 66.18 254.553 66.078 254.085 65.874C253.629 65.67 253.269 65.358 253.005 64.938C252.741 64.506 252.609 63.966 252.609 63.318C252.609 62.358 252.987 61.62 253.743 61.104C254.499 60.576 255.663 60.288 257.235 60.24L258.873 60.186V59.61C258.873 58.806 258.699 58.248 258.351 57.936C258.003 57.624 257.511 57.468 256.875 57.468C256.371 57.468 255.891 57.546 255.435 57.702C254.979 57.846 254.553 58.014 254.157 58.206L253.671 57.018C254.091 56.79 254.589 56.598 255.165 56.442C255.741 56.274 256.341 56.19 256.965 56.19ZM257.433 61.338C256.233 61.386 255.399 61.578 254.931 61.914C254.475 62.25 254.247 62.724 254.247 63.336C254.247 63.876 254.409 64.272 254.733 64.524C255.069 64.776 255.495 64.902 256.011 64.902C256.827 64.902 257.505 64.68 258.045 64.236C258.585 63.78 258.855 63.084 258.855 62.148V61.284L257.433 61.338ZM267.127 56.172C267.955 56.172 268.663 56.352 269.251 56.712C269.851 57.072 270.307 57.582 270.619 58.242C270.943 58.89 271.105 59.652 271.105 60.528V61.482H264.499C264.523 62.574 264.799 63.408 265.327 63.984C265.867 64.548 266.617 64.83 267.577 64.83C268.189 64.83 268.729 64.776 269.197 64.668C269.677 64.548 270.169 64.38 270.673 64.164V65.55C270.181 65.766 269.695 65.922 269.215 66.018C268.735 66.126 268.165 66.18 267.505 66.18C266.593 66.18 265.783 65.994 265.075 65.622C264.379 65.25 263.833 64.698 263.437 63.966C263.053 63.222 262.861 62.316 262.861 61.248C262.861 60.192 263.035 59.286 263.383 58.53C263.743 57.774 264.241 57.192 264.877 56.784C265.525 56.376 266.275 56.172 267.127 56.172ZM267.109 57.468C266.353 57.468 265.753 57.714 265.309 58.206C264.877 58.686 264.619 59.358 264.535 60.222H269.449C269.449 59.67 269.365 59.19 269.197 58.782C269.029 58.374 268.771 58.056 268.423 57.828C268.087 57.588 267.649 57.468 267.109 57.468ZM280.221 57.684H277.071V66H275.505V57.684H272.391V56.352H280.221V57.684ZM298.231 56.352L294.253 61.032L298.573 66H296.773L292.597 61.104V66H291.121V61.104L286.945 66H285.145L289.465 61.032L285.487 56.352H287.215L291.121 61.032V56.352H292.597V61.032L296.521 56.352H298.231ZM301.651 62.238C301.651 62.346 301.645 62.502 301.633 62.706C301.633 62.898 301.627 63.108 301.615 63.336C301.603 63.552 301.591 63.762 301.579 63.966C301.567 64.158 301.555 64.314 301.543 64.434L306.709 56.352H308.653V66H307.177V60.312C307.177 60.12 307.177 59.868 307.177 59.556C307.189 59.244 307.201 58.938 307.213 58.638C307.225 58.326 307.237 58.092 307.249 57.936L302.119 66H300.157V56.352H301.651V62.238ZM314.261 56.172C314.993 56.172 315.629 56.274 316.169 56.478C316.709 56.67 317.129 56.958 317.429 57.342C317.729 57.714 317.879 58.17 317.879 58.71C317.879 59.298 317.717 59.766 317.393 60.114C317.069 60.45 316.625 60.696 316.061 60.852V60.924C316.445 61.032 316.799 61.182 317.123 61.374C317.447 61.566 317.705 61.818 317.897 62.13C318.101 62.442 318.203 62.844 318.203 63.336C318.203 63.864 318.053 64.344 317.753 64.776C317.465 65.208 317.015 65.55 316.403 65.802C315.803 66.054 315.029 66.18 314.081 66.18C313.625 66.18 313.187 66.156 312.767 66.108C312.359 66.06 311.987 65.988 311.651 65.892C311.327 65.796 311.039 65.682 310.787 65.55V64.128C311.195 64.32 311.675 64.494 312.227 64.65C312.791 64.806 313.403 64.884 314.063 64.884C314.543 64.884 314.975 64.83 315.359 64.722C315.755 64.614 316.067 64.446 316.295 64.218C316.523 63.978 316.637 63.654 316.637 63.246C316.637 62.874 316.535 62.574 316.331 62.346C316.127 62.106 315.821 61.926 315.413 61.806C315.017 61.686 314.507 61.626 313.883 61.626H312.587V60.33H313.631C314.459 60.33 315.119 60.222 315.611 60.006C316.115 59.778 316.367 59.394 316.367 58.854C316.367 58.398 316.175 58.056 315.791 57.828C315.419 57.6 314.879 57.486 314.171 57.486C313.643 57.486 313.175 57.54 312.767 57.648C312.371 57.744 311.933 57.894 311.453 58.098L310.895 56.838C311.411 56.61 311.951 56.442 312.515 56.334C313.079 56.226 313.661 56.172 314.261 56.172ZM322.132 56.352V60.366H327.37V56.352H328.954V66H327.37V61.698H322.132V66H320.548V56.352H322.132ZM333.503 62.238C333.503 62.346 333.497 62.502 333.485 62.706C333.485 62.898 333.479 63.108 333.467 63.336C333.455 63.552 333.443 63.762 333.431 63.966C333.419 64.158 333.407 64.314 333.395 64.434L338.561 56.352H340.505V66H339.029V60.312C339.029 60.12 339.029 59.868 339.029 59.556C339.041 59.244 339.053 58.938 339.065 58.638C339.077 58.326 339.089 58.092 339.101 57.936L333.971 66H332.009V56.352H333.503V62.238ZM344.007 66.108C343.647 66.108 343.347 65.994 343.107 65.766C342.879 65.526 342.765 65.244 342.765 64.92C342.765 64.584 342.879 64.302 343.107 64.074C343.347 63.834 343.647 63.714 344.007 63.714C344.367 63.714 344.661 63.834 344.889 64.074C345.117 64.302 345.231 64.584 345.231 64.92C345.231 65.244 345.117 65.526 344.889 65.766C344.661 65.994 344.367 66.108 344.007 66.108ZM344.007 59.25C343.647 59.25 343.347 59.136 343.107 58.908C342.879 58.668 342.765 58.386 342.765 58.062C342.765 57.726 342.879 57.444 343.107 57.216C343.347 56.976 343.647 56.856 344.007 56.856C344.367 56.856 344.661 56.976 344.889 57.216C345.117 57.444 345.231 57.726 345.231 58.062C345.231 58.386 345.117 58.668 344.889 58.908C344.661 59.136 344.367 59.25 344.007 59.25Z" fill="#1B1642"/>
<path d="M211.163 194.97C210.09 194.97 209.245 195.329 208.629 196.048C208.013 196.767 207.705 197.751 207.705 199.002C207.705 200.243 207.99 201.228 208.559 201.956C209.138 202.675 210.001 203.034 211.149 203.034C211.588 203.034 212.003 202.997 212.395 202.922C212.787 202.847 213.17 202.754 213.543 202.642V203.734C213.17 203.874 212.783 203.977 212.381 204.042C211.989 204.107 211.518 204.14 210.967 204.14C209.95 204.14 209.101 203.93 208.419 203.51C207.738 203.09 207.225 202.493 206.879 201.718C206.543 200.943 206.375 200.033 206.375 198.988C206.375 197.98 206.557 197.093 206.921 196.328C207.295 195.553 207.841 194.951 208.559 194.522C209.278 194.083 210.151 193.864 211.177 193.864C212.232 193.864 213.151 194.06 213.935 194.452L213.431 195.516C213.123 195.376 212.778 195.25 212.395 195.138C212.022 195.026 211.611 194.97 211.163 194.97ZM221.269 204H220.023V197.518H217.811C217.69 199.095 217.522 200.369 217.307 201.34C217.093 202.301 216.808 203.001 216.453 203.44C216.099 203.879 215.651 204.098 215.109 204.098C214.988 204.098 214.867 204.089 214.745 204.07C214.633 204.061 214.54 204.037 214.465 204V203.076C214.521 203.095 214.582 203.109 214.647 203.118C214.713 203.127 214.778 203.132 214.843 203.132C215.347 203.132 215.749 202.595 216.047 201.522C216.355 200.449 216.589 198.773 216.747 196.496H221.269V204ZM222.475 196.496H223.791L225.415 200.766C225.555 201.139 225.681 201.499 225.793 201.844C225.905 202.18 225.989 202.502 226.045 202.81H226.101C226.157 202.577 226.246 202.273 226.367 201.9C226.488 201.517 226.614 201.135 226.745 200.752L228.271 196.496H229.601L226.367 205.036C226.106 205.745 225.765 206.31 225.345 206.73C224.934 207.15 224.365 207.36 223.637 207.36C223.413 207.36 223.217 207.346 223.049 207.318C222.881 207.299 222.736 207.276 222.615 207.248V206.268C222.718 206.287 222.839 206.305 222.979 206.324C223.128 206.343 223.282 206.352 223.441 206.352C223.87 206.352 224.216 206.231 224.477 205.988C224.748 205.745 224.958 205.423 225.107 205.022L225.499 204.028L222.475 196.496ZM231.866 196.496V199.226C231.866 200.085 232.346 200.514 233.308 200.514C233.774 200.514 234.199 200.444 234.582 200.304C234.964 200.155 235.356 199.959 235.758 199.716V196.496H236.99V204H235.758V200.654C235.338 200.925 234.922 201.139 234.512 201.298C234.11 201.447 233.625 201.522 233.056 201.522C232.29 201.522 231.693 201.321 231.264 200.92C230.844 200.519 230.634 199.982 230.634 199.31V196.496H231.866ZM242.216 196.37C243.13 196.37 243.807 196.571 244.246 196.972C244.684 197.373 244.904 198.013 244.904 198.89V204H244.008L243.77 202.936H243.714C243.387 203.347 243.042 203.65 242.678 203.846C242.323 204.042 241.828 204.14 241.194 204.14C240.512 204.14 239.948 203.963 239.5 203.608C239.052 203.244 238.828 202.679 238.828 201.914C238.828 201.167 239.122 200.593 239.71 200.192C240.298 199.781 241.203 199.557 242.426 199.52L243.7 199.478V199.03C243.7 198.405 243.564 197.971 243.294 197.728C243.023 197.485 242.64 197.364 242.146 197.364C241.754 197.364 241.38 197.425 241.026 197.546C240.671 197.658 240.34 197.789 240.032 197.938L239.654 197.014C239.98 196.837 240.368 196.687 240.816 196.566C241.264 196.435 241.73 196.37 242.216 196.37ZM243.686 200.332L242.58 200.374C241.646 200.411 240.998 200.561 240.634 200.822C240.279 201.083 240.102 201.452 240.102 201.928C240.102 202.348 240.228 202.656 240.48 202.852C240.741 203.048 241.072 203.146 241.474 203.146C242.108 203.146 242.636 202.973 243.056 202.628C243.476 202.273 243.686 201.732 243.686 201.004V200.332ZM250.119 196.356C250.763 196.356 251.314 196.496 251.771 196.776C252.238 197.056 252.593 197.453 252.835 197.966C253.087 198.47 253.213 199.063 253.213 199.744V200.486H248.075C248.094 201.335 248.309 201.984 248.719 202.432C249.139 202.871 249.723 203.09 250.469 203.09C250.945 203.09 251.365 203.048 251.729 202.964C252.103 202.871 252.485 202.74 252.877 202.572V203.65C252.495 203.818 252.117 203.939 251.743 204.014C251.37 204.098 250.927 204.14 250.413 204.14C249.704 204.14 249.074 203.995 248.523 203.706C247.982 203.417 247.557 202.987 247.249 202.418C246.951 201.839 246.801 201.135 246.801 200.304C246.801 199.483 246.937 198.778 247.207 198.19C247.487 197.602 247.875 197.149 248.369 196.832C248.873 196.515 249.457 196.356 250.119 196.356ZM250.105 197.364C249.517 197.364 249.051 197.555 248.705 197.938C248.369 198.311 248.169 198.834 248.103 199.506H251.925C251.916 198.871 251.767 198.358 251.477 197.966C251.188 197.565 250.731 197.364 250.105 197.364ZM261.158 198.386C261.158 198.853 261.018 199.217 260.738 199.478C260.458 199.739 260.098 199.917 259.66 200.01V200.066C260.126 200.131 260.532 200.299 260.878 200.57C261.223 200.831 261.396 201.242 261.396 201.802C261.396 202.437 261.158 202.964 260.682 203.384C260.215 203.795 259.44 204 258.358 204H255.124V196.496H258.344C258.876 196.496 259.352 196.557 259.772 196.678C260.201 196.79 260.537 196.986 260.78 197.266C261.032 197.537 261.158 197.91 261.158 198.386ZM259.912 198.54C259.912 198.185 259.781 197.929 259.52 197.77C259.268 197.602 258.852 197.518 258.274 197.518H256.356V199.576H258.05C259.291 199.576 259.912 199.231 259.912 198.54ZM260.122 201.802C260.122 201.373 259.958 201.065 259.632 200.878C259.305 200.691 258.824 200.598 258.19 200.598H256.356V203.006H258.218C258.834 203.006 259.305 202.917 259.632 202.74C259.958 202.553 260.122 202.241 260.122 201.802Z" fill="#8D9AAE"/>
<path d="M122.973 306.556C122.973 307.552 122.847 308.458 122.595 309.274C122.343 310.078 121.965 310.774 121.461 311.362C120.969 311.95 120.351 312.4 119.607 312.712C118.875 313.024 118.023 313.18 117.051 313.18C116.043 313.18 115.167 313.024 114.423 312.712C113.679 312.388 113.061 311.938 112.569 311.362C112.077 310.774 111.711 310.072 111.471 309.256C111.231 308.44 111.111 307.534 111.111 306.538C111.111 305.218 111.327 304.066 111.759 303.082C112.191 302.098 112.845 301.33 113.721 300.778C114.609 300.226 115.725 299.95 117.069 299.95C118.353 299.95 119.433 300.226 120.309 300.778C121.185 301.318 121.845 302.086 122.289 303.082C122.745 304.066 122.973 305.224 122.973 306.556ZM112.821 306.556C112.821 307.636 112.971 308.566 113.271 309.346C113.571 310.126 114.033 310.726 114.657 311.146C115.293 311.566 116.091 311.776 117.051 311.776C118.023 311.776 118.815 311.566 119.427 311.146C120.051 310.726 120.513 310.126 120.813 309.346C121.113 308.566 121.263 307.636 121.263 306.556C121.263 304.936 120.927 303.67 120.255 302.758C119.583 301.834 118.521 301.372 117.069 301.372C116.097 301.372 115.293 301.582 114.657 302.002C114.033 302.41 113.571 303.004 113.271 303.784C112.971 304.552 112.821 305.476 112.821 306.556ZM133.759 303.352V313H132.175V304.702H127.189V313H125.605V303.352H133.759ZM141.428 303.172C142.616 303.172 143.57 303.586 144.29 304.414C145.022 305.242 145.388 306.49 145.388 308.158C145.388 309.25 145.22 310.174 144.884 310.93C144.56 311.674 144.098 312.238 143.498 312.622C142.91 312.994 142.214 313.18 141.41 313.18C140.918 313.18 140.48 313.114 140.096 312.982C139.712 312.85 139.382 312.682 139.106 312.478C138.842 312.262 138.614 312.028 138.422 311.776H138.314C138.338 311.98 138.362 312.238 138.386 312.55C138.41 312.862 138.422 313.132 138.422 313.36V317.32H136.838V303.352H138.134L138.35 304.666H138.422C138.614 304.39 138.842 304.138 139.106 303.91C139.382 303.682 139.706 303.502 140.078 303.37C140.462 303.238 140.912 303.172 141.428 303.172ZM141.14 304.504C140.492 304.504 139.97 304.63 139.574 304.882C139.178 305.122 138.89 305.488 138.71 305.98C138.53 306.472 138.434 307.096 138.422 307.852V308.158C138.422 308.95 138.506 309.622 138.674 310.174C138.842 310.726 139.124 311.146 139.52 311.434C139.928 311.722 140.48 311.866 141.176 311.866C141.764 311.866 142.244 311.704 142.616 311.38C143 311.056 143.282 310.618 143.462 310.066C143.654 309.502 143.75 308.86 143.75 308.14C143.75 307.036 143.534 306.154 143.102 305.494C142.682 304.834 142.028 304.504 141.14 304.504ZM151.638 303.172C152.466 303.172 153.174 303.352 153.762 303.712C154.362 304.072 154.818 304.582 155.13 305.242C155.454 305.89 155.616 306.652 155.616 307.528V308.482H149.01C149.034 309.574 149.31 310.408 149.838 310.984C150.378 311.548 151.128 311.83 152.088 311.83C152.7 311.83 153.24 311.776 153.708 311.668C154.188 311.548 154.68 311.38 155.184 311.164V312.55C154.692 312.766 154.206 312.922 153.726 313.018C153.246 313.126 152.676 313.18 152.016 313.18C151.104 313.18 150.294 312.994 149.586 312.622C148.89 312.25 148.344 311.698 147.948 310.966C147.564 310.222 147.372 309.316 147.372 308.248C147.372 307.192 147.546 306.286 147.894 305.53C148.254 304.774 148.752 304.192 149.388 303.784C150.036 303.376 150.786 303.172 151.638 303.172ZM151.62 304.468C150.864 304.468 150.264 304.714 149.82 305.206C149.388 305.686 149.13 306.358 149.046 307.222H153.96C153.96 306.67 153.876 306.19 153.708 305.782C153.54 305.374 153.282 305.056 152.934 304.828C152.598 304.588 152.16 304.468 151.62 304.468ZM165.236 303.352V311.668H166.64V316.348H165.11V313H158.396V316.348H156.884V311.668H157.658C158.21 310.9 158.666 310.066 159.026 309.166C159.398 308.254 159.674 307.306 159.854 306.322C160.046 305.326 160.148 304.336 160.16 303.352H165.236ZM161.564 304.594C161.516 305.41 161.39 306.256 161.186 307.132C160.982 307.996 160.718 308.824 160.394 309.616C160.082 310.408 159.716 311.092 159.296 311.668H163.706V304.594H161.564ZM172.257 303.172C173.085 303.172 173.793 303.352 174.381 303.712C174.981 304.072 175.437 304.582 175.749 305.242C176.073 305.89 176.235 306.652 176.235 307.528V308.482H169.629C169.653 309.574 169.929 310.408 170.457 310.984C170.997 311.548 171.747 311.83 172.707 311.83C173.319 311.83 173.859 311.776 174.327 311.668C174.807 311.548 175.299 311.38 175.803 311.164V312.55C175.311 312.766 174.825 312.922 174.345 313.018C173.865 313.126 173.295 313.18 172.635 313.18C171.723 313.18 170.913 312.994 170.205 312.622C169.509 312.25 168.963 311.698 168.567 310.966C168.183 310.222 167.991 309.316 167.991 308.248C167.991 307.192 168.165 306.286 168.513 305.53C168.873 304.774 169.371 304.192 170.007 303.784C170.655 303.376 171.405 303.172 172.257 303.172ZM172.239 304.468C171.483 304.468 170.883 304.714 170.439 305.206C170.007 305.686 169.749 306.358 169.665 307.222H174.579C174.579 306.67 174.495 306.19 174.327 305.782C174.159 305.374 173.901 305.056 173.553 304.828C173.217 304.588 172.779 304.468 172.239 304.468ZM186.035 313H184.433V304.666H181.589C181.469 306.19 181.319 307.492 181.139 308.572C180.959 309.64 180.731 310.51 180.455 311.182C180.179 311.854 179.849 312.346 179.465 312.658C179.081 312.97 178.631 313.126 178.115 313.126C177.959 313.126 177.803 313.114 177.647 313.09C177.503 313.078 177.383 313.048 177.287 313V311.812C177.359 311.836 177.437 311.854 177.521 311.866C177.605 311.878 177.689 311.884 177.773 311.884C178.037 311.884 178.277 311.776 178.493 311.56C178.709 311.344 178.901 311.014 179.069 310.57C179.249 310.126 179.411 309.568 179.555 308.896C179.699 308.212 179.825 307.408 179.933 306.484C180.041 305.56 180.137 304.516 180.221 303.352H186.035V313ZM192.823 303.172C193.651 303.172 194.359 303.352 194.947 303.712C195.547 304.072 196.003 304.582 196.315 305.242C196.639 305.89 196.801 306.652 196.801 307.528V308.482H190.195C190.219 309.574 190.495 310.408 191.023 310.984C191.563 311.548 192.313 311.83 193.273 311.83C193.885 311.83 194.425 311.776 194.893 311.668C195.373 311.548 195.865 311.38 196.369 311.164V312.55C195.877 312.766 195.391 312.922 194.911 313.018C194.431 313.126 193.861 313.18 193.201 313.18C192.289 313.18 191.479 312.994 190.771 312.622C190.075 312.25 189.529 311.698 189.133 310.966C188.749 310.222 188.557 309.316 188.557 308.248C188.557 307.192 188.731 306.286 189.079 305.53C189.439 304.774 189.937 304.192 190.573 303.784C191.221 303.376 191.971 303.172 192.823 303.172ZM192.805 304.468C192.049 304.468 191.449 304.714 191.005 305.206C190.573 305.686 190.315 306.358 190.231 307.222H195.145C195.145 306.67 195.061 306.19 194.893 305.782C194.725 305.374 194.467 305.056 194.119 304.828C193.783 304.588 193.345 304.468 192.805 304.468ZM200.842 303.352V307.366H206.08V303.352H207.664V313H206.08V308.698H200.842V313H199.258V303.352H200.842ZM212.212 309.238C212.212 309.346 212.206 309.502 212.194 309.706C212.194 309.898 212.188 310.108 212.176 310.336C212.164 310.552 212.152 310.762 212.14 310.966C212.128 311.158 212.116 311.314 212.104 311.434L217.27 303.352H219.214V313H217.738V307.312C217.738 307.12 217.738 306.868 217.738 306.556C217.75 306.244 217.762 305.938 217.774 305.638C217.786 305.326 217.798 305.092 217.81 304.936L212.68 313H210.718V303.352H212.212V309.238ZM222.879 313H221.043L223.797 308.95C223.425 308.854 223.065 308.704 222.717 308.5C222.369 308.284 222.087 307.99 221.871 307.618C221.655 307.234 221.547 306.76 221.547 306.196C221.547 305.272 221.859 304.57 222.483 304.09C223.107 303.598 223.935 303.352 224.967 303.352H229.287V313H227.703V309.166H225.363L222.879 313ZM223.077 306.214C223.077 306.766 223.281 307.18 223.689 307.456C224.109 307.72 224.691 307.852 225.435 307.852H227.703V304.666H225.129C224.397 304.666 223.869 304.81 223.545 305.098C223.233 305.386 223.077 305.758 223.077 306.214ZM235.591 303.352H237.283L239.371 308.842C239.491 309.166 239.599 309.478 239.695 309.778C239.803 310.078 239.899 310.372 239.983 310.66C240.067 310.936 240.133 311.206 240.181 311.47H240.253C240.325 311.17 240.439 310.78 240.595 310.3C240.751 309.808 240.913 309.316 241.081 308.824L243.043 303.352H244.753L240.595 314.332C240.367 314.932 240.097 315.454 239.785 315.898C239.485 316.354 239.113 316.702 238.669 316.942C238.237 317.194 237.709 317.32 237.085 317.32C236.797 317.32 236.545 317.302 236.329 317.266C236.113 317.242 235.927 317.212 235.771 317.176V315.916C235.903 315.94 236.059 315.964 236.239 315.988C236.431 316.012 236.629 316.024 236.833 316.024C237.205 316.024 237.523 315.952 237.787 315.808C238.063 315.676 238.297 315.478 238.489 315.214C238.681 314.962 238.843 314.662 238.975 314.314L239.479 313.036L235.591 303.352ZM250.869 303.172C252.057 303.172 253.011 303.586 253.731 304.414C254.463 305.242 254.829 306.49 254.829 308.158C254.829 309.25 254.661 310.174 254.325 310.93C254.001 311.674 253.539 312.238 252.939 312.622C252.351 312.994 251.655 313.18 250.851 313.18C250.359 313.18 249.921 313.114 249.537 312.982C249.153 312.85 248.823 312.682 248.547 312.478C248.283 312.262 248.055 312.028 247.863 311.776H247.755C247.779 311.98 247.803 312.238 247.827 312.55C247.851 312.862 247.863 313.132 247.863 313.36V317.32H246.279V303.352H247.575L247.791 304.666H247.863C248.055 304.39 248.283 304.138 248.547 303.91C248.823 303.682 249.147 303.502 249.519 303.37C249.903 303.238 250.353 303.172 250.869 303.172ZM250.581 304.504C249.933 304.504 249.411 304.63 249.015 304.882C248.619 305.122 248.331 305.488 248.151 305.98C247.971 306.472 247.875 307.096 247.863 307.852V308.158C247.863 308.95 247.947 309.622 248.115 310.174C248.283 310.726 248.565 311.146 248.961 311.434C249.369 311.722 249.921 311.866 250.617 311.866C251.205 311.866 251.685 311.704 252.057 311.38C252.441 311.056 252.723 310.618 252.903 310.066C253.095 309.502 253.191 308.86 253.191 308.14C253.191 307.036 252.975 306.154 252.543 305.494C252.123 304.834 251.469 304.504 250.581 304.504ZM265.741 308.158C265.741 308.962 265.633 309.676 265.417 310.3C265.213 310.912 264.913 311.434 264.517 311.866C264.133 312.298 263.659 312.628 263.095 312.856C262.543 313.072 261.925 313.18 261.241 313.18C260.605 313.18 260.017 313.072 259.477 312.856C258.937 312.628 258.469 312.298 258.073 311.866C257.677 311.434 257.365 310.912 257.137 310.3C256.921 309.676 256.813 308.962 256.813 308.158C256.813 307.09 256.993 306.19 257.353 305.458C257.713 304.714 258.229 304.15 258.901 303.766C259.573 303.37 260.371 303.172 261.295 303.172C262.171 303.172 262.939 303.37 263.599 303.766C264.271 304.15 264.793 304.714 265.165 305.458C265.549 306.19 265.741 307.09 265.741 308.158ZM258.451 308.158C258.451 308.914 258.547 309.574 258.739 310.138C258.943 310.69 259.255 311.116 259.675 311.416C260.095 311.716 260.629 311.866 261.277 311.866C261.925 311.866 262.459 311.716 262.879 311.416C263.299 311.116 263.605 310.69 263.797 310.138C264.001 309.574 264.103 308.914 264.103 308.158C264.103 307.39 264.001 306.736 263.797 306.196C263.593 305.656 263.281 305.242 262.861 304.954C262.453 304.654 261.919 304.504 261.259 304.504C260.275 304.504 259.561 304.828 259.117 305.476C258.673 306.124 258.451 307.018 258.451 308.158ZM276.01 305.782C276.01 306.382 275.83 306.85 275.47 307.186C275.11 307.522 274.648 307.75 274.084 307.87V307.942C274.684 308.026 275.206 308.242 275.65 308.59C276.094 308.926 276.316 309.454 276.316 310.174C276.316 310.582 276.238 310.96 276.082 311.308C275.938 311.656 275.71 311.956 275.398 312.208C275.086 312.46 274.684 312.658 274.192 312.802C273.7 312.934 273.106 313 272.41 313H268.252V303.352H272.392C273.076 303.352 273.688 303.43 274.228 303.586C274.78 303.73 275.212 303.982 275.524 304.342C275.848 304.69 276.01 305.17 276.01 305.782ZM274.678 310.174C274.678 309.622 274.468 309.226 274.048 308.986C273.628 308.746 273.01 308.626 272.194 308.626H269.836V311.722H272.23C273.022 311.722 273.628 311.608 274.048 311.38C274.468 311.14 274.678 310.738 274.678 310.174ZM274.408 305.98C274.408 305.524 274.24 305.194 273.904 304.99C273.58 304.774 273.046 304.666 272.302 304.666H269.836V307.312H272.014C272.794 307.312 273.388 307.204 273.796 306.988C274.204 306.772 274.408 306.436 274.408 305.98ZM280.207 303.352V307.366H285.445V303.352H287.029V313H285.445V308.698H280.207V313H278.623V303.352H280.207ZM290.678 313H288.842L291.596 308.95C291.224 308.854 290.864 308.704 290.516 308.5C290.168 308.284 289.886 307.99 289.67 307.618C289.454 307.234 289.346 306.76 289.346 306.196C289.346 305.272 289.658 304.57 290.282 304.09C290.906 303.598 291.734 303.352 292.766 303.352H297.086V313H295.502V309.166H293.162L290.678 313ZM290.876 306.214C290.876 306.766 291.08 307.18 291.488 307.456C291.908 307.72 292.49 307.852 293.234 307.852H295.502V304.666H292.928C292.196 304.666 291.668 304.81 291.344 305.098C291.032 305.386 290.876 305.758 290.876 306.214ZM305.118 313V300.148H314.766V313H313.164V301.57H306.738V313H305.118ZM323.792 301.39C323.108 301.39 322.49 301.51 321.938 301.75C321.386 301.978 320.918 302.32 320.534 302.776C320.15 303.22 319.856 303.766 319.652 304.414C319.448 305.05 319.346 305.77 319.346 306.574C319.346 307.63 319.508 308.548 319.832 309.328C320.168 310.108 320.66 310.708 321.308 311.128C321.968 311.548 322.79 311.758 323.774 311.758C324.338 311.758 324.872 311.71 325.376 311.614C325.88 311.518 326.372 311.398 326.852 311.254V312.658C326.372 312.838 325.874 312.97 325.358 313.054C324.854 313.138 324.248 313.18 323.54 313.18C322.232 313.18 321.14 312.91 320.264 312.37C319.388 311.83 318.728 311.062 318.284 310.066C317.852 309.07 317.636 307.9 317.636 306.556C317.636 305.584 317.768 304.696 318.032 303.892C318.308 303.088 318.704 302.392 319.22 301.804C319.748 301.216 320.396 300.766 321.164 300.454C321.932 300.13 322.814 299.968 323.81 299.968C324.47 299.968 325.106 300.034 325.718 300.166C326.33 300.298 326.876 300.484 327.356 300.724L326.708 302.092C326.312 301.912 325.868 301.75 325.376 301.606C324.896 301.462 324.368 301.39 323.792 301.39ZM337.721 313L336.173 309.022H331.079L329.549 313H327.911L332.933 300.094H334.391L339.395 313H337.721ZM334.247 303.694C334.211 303.598 334.151 303.424 334.067 303.172C333.983 302.92 333.899 302.662 333.815 302.398C333.743 302.122 333.683 301.912 333.635 301.768C333.575 302.008 333.509 302.254 333.437 302.506C333.377 302.746 333.311 302.968 333.239 303.172C333.179 303.376 333.125 303.55 333.077 303.694L331.619 307.582H335.687L334.247 303.694ZM345.935 300.148H347.447V307.204C347.447 307.504 347.441 307.834 347.429 308.194C347.429 308.542 347.423 308.89 347.411 309.238C347.399 309.586 347.381 309.898 347.357 310.174C347.345 310.438 347.333 310.642 347.321 310.786H347.393L354.467 300.148H356.267V313H354.755V306.016C354.755 305.692 354.761 305.344 354.773 304.972C354.785 304.588 354.797 304.222 354.809 303.874C354.833 303.514 354.851 303.196 354.863 302.92C354.875 302.644 354.887 302.44 354.899 302.308H354.827L347.735 313H345.935V300.148ZM113.3 332.346C112.916 333.198 112.526 333.912 112.13 334.488C111.746 335.052 111.29 335.478 110.762 335.766C110.234 336.042 109.562 336.18 108.746 336.18C108.41 336.18 108.092 336.156 107.792 336.108C107.504 336.06 107.24 335.994 107 335.91V334.308C107.24 334.416 107.498 334.506 107.774 334.578C108.05 334.638 108.338 334.668 108.638 334.668C109.082 334.668 109.46 334.608 109.772 334.488C110.096 334.356 110.378 334.146 110.618 333.858C110.87 333.57 111.104 333.186 111.32 332.706L106.37 323.148H108.152L111.734 330.222C111.782 330.306 111.83 330.408 111.878 330.528C111.926 330.636 111.974 330.75 112.022 330.87C112.082 330.99 112.13 331.104 112.166 331.212H112.238C112.274 331.128 112.31 331.032 112.346 330.924C112.394 330.804 112.436 330.69 112.472 330.582C112.52 330.462 112.562 330.36 112.598 330.276L115.694 323.148H117.404L113.3 332.346ZM126.746 326.154C126.746 327.03 126.47 327.726 125.918 328.242C125.366 328.746 124.628 329.07 123.704 329.214V329.286C124.784 329.43 125.606 329.766 126.17 330.294C126.734 330.822 127.016 331.512 127.016 332.364C127.016 333.12 126.824 333.786 126.44 334.362C126.056 334.926 125.48 335.37 124.712 335.694C123.944 336.018 122.984 336.18 121.832 336.18C121.136 336.18 120.47 336.126 119.834 336.018C119.21 335.922 118.628 335.742 118.088 335.478V334.002C118.46 334.182 118.856 334.338 119.276 334.47C119.708 334.59 120.14 334.686 120.572 334.758C121.004 334.818 121.418 334.848 121.814 334.848C122.966 334.848 123.836 334.632 124.424 334.2C125.024 333.768 125.324 333.156 125.324 332.364C125.324 331.548 124.976 330.954 124.28 330.582C123.584 330.21 122.612 330.024 121.364 330.024H119.528V328.674H121.274C122.126 328.674 122.828 328.578 123.38 328.386C123.944 328.194 124.364 327.924 124.64 327.576C124.928 327.216 125.072 326.796 125.072 326.316C125.072 325.668 124.832 325.17 124.352 324.822C123.872 324.474 123.248 324.3 122.48 324.3C121.676 324.3 121.004 324.402 120.464 324.606C119.936 324.81 119.42 325.074 118.916 325.398L118.142 324.3C118.478 324.048 118.862 323.826 119.294 323.634C119.738 323.43 120.23 323.268 120.77 323.148C121.31 323.028 121.886 322.968 122.498 322.968C123.422 322.968 124.196 323.106 124.82 323.382C125.456 323.658 125.936 324.036 126.26 324.516C126.584 324.984 126.746 325.53 126.746 326.154ZM129.75 323.148H131.262V330.204C131.262 330.504 131.256 330.834 131.244 331.194C131.244 331.542 131.238 331.89 131.226 332.238C131.214 332.586 131.196 332.898 131.172 333.174C131.16 333.438 131.148 333.642 131.136 333.786H131.208L138.282 323.148H140.082V336H138.57V329.016C138.57 328.692 138.576 328.344 138.588 327.972C138.6 327.588 138.612 327.222 138.624 326.874C138.648 326.514 138.666 326.196 138.678 325.92C138.69 325.644 138.702 325.44 138.714 325.308H138.642L131.55 336H129.75V323.148ZM156.25 326.352V336H154.666V327.702H149.68V336H148.096V326.352H156.25ZM163.919 326.172C165.107 326.172 166.061 326.586 166.781 327.414C167.513 328.242 167.879 329.49 167.879 331.158C167.879 332.25 167.711 333.174 167.375 333.93C167.051 334.674 166.589 335.238 165.989 335.622C165.401 335.994 164.705 336.18 163.901 336.18C163.409 336.18 162.971 336.114 162.587 335.982C162.203 335.85 161.873 335.682 161.597 335.478C161.333 335.262 161.105 335.028 160.913 334.776H160.805C160.829 334.98 160.853 335.238 160.877 335.55C160.901 335.862 160.913 336.132 160.913 336.36V340.32H159.329V326.352H160.625L160.841 327.666H160.913C161.105 327.39 161.333 327.138 161.597 326.91C161.873 326.682 162.197 326.502 162.569 326.37C162.953 326.238 163.403 326.172 163.919 326.172ZM163.631 327.504C162.983 327.504 162.461 327.63 162.065 327.882C161.669 328.122 161.381 328.488 161.201 328.98C161.021 329.472 160.925 330.096 160.913 330.852V331.158C160.913 331.95 160.997 332.622 161.165 333.174C161.333 333.726 161.615 334.146 162.011 334.434C162.419 334.722 162.971 334.866 163.667 334.866C164.255 334.866 164.735 334.704 165.107 334.38C165.491 334.056 165.773 333.618 165.953 333.066C166.145 332.502 166.241 331.86 166.241 331.14C166.241 330.036 166.025 329.154 165.593 328.494C165.173 327.834 164.519 327.504 163.631 327.504ZM174.129 326.172C174.957 326.172 175.665 326.352 176.253 326.712C176.853 327.072 177.309 327.582 177.621 328.242C177.945 328.89 178.107 329.652 178.107 330.528V331.482H171.501C171.525 332.574 171.801 333.408 172.329 333.984C172.869 334.548 173.619 334.83 174.579 334.83C175.191 334.83 175.731 334.776 176.199 334.668C176.679 334.548 177.171 334.38 177.675 334.164V335.55C177.183 335.766 176.697 335.922 176.217 336.018C175.737 336.126 175.167 336.18 174.507 336.18C173.595 336.18 172.785 335.994 172.077 335.622C171.381 335.25 170.835 334.698 170.439 333.966C170.055 333.222 169.863 332.316 169.863 331.248C169.863 330.192 170.037 329.286 170.385 328.53C170.745 327.774 171.243 327.192 171.879 326.784C172.527 326.376 173.277 326.172 174.129 326.172ZM174.111 327.468C173.355 327.468 172.755 327.714 172.311 328.206C171.879 328.686 171.621 329.358 171.537 330.222H176.451C176.451 329.67 176.367 329.19 176.199 328.782C176.031 328.374 175.773 328.056 175.425 327.828C175.089 327.588 174.651 327.468 174.111 327.468ZM187.727 326.352V334.668H189.131V339.348H187.601V336H180.887V339.348H179.375V334.668H180.149C180.701 333.9 181.157 333.066 181.517 332.166C181.889 331.254 182.165 330.306 182.345 329.322C182.537 328.326 182.639 327.336 182.651 326.352H187.727ZM184.055 327.594C184.007 328.41 183.881 329.256 183.677 330.132C183.473 330.996 183.209 331.824 182.885 332.616C182.573 333.408 182.207 334.092 181.787 334.668H186.197V327.594H184.055ZM194.892 336.18C194.04 336.18 193.278 336.006 192.606 335.658C191.946 335.31 191.424 334.77 191.04 334.038C190.668 333.306 190.482 332.37 190.482 331.23C190.482 330.042 190.68 329.076 191.076 328.332C191.472 327.588 192.006 327.042 192.678 326.694C193.362 326.346 194.136 326.172 195 326.172C195.492 326.172 195.966 326.226 196.422 326.334C196.878 326.43 197.25 326.55 197.538 326.694L197.052 328.008C196.764 327.9 196.428 327.798 196.044 327.702C195.66 327.606 195.3 327.558 194.964 327.558C194.316 327.558 193.782 327.696 193.362 327.972C192.942 328.248 192.63 328.656 192.426 329.196C192.222 329.736 192.12 330.408 192.12 331.212C192.12 331.98 192.222 332.634 192.426 333.174C192.63 333.714 192.936 334.122 193.344 334.398C193.752 334.674 194.262 334.812 194.874 334.812C195.402 334.812 195.864 334.758 196.26 334.65C196.668 334.542 197.04 334.41 197.376 334.254V335.658C197.052 335.826 196.692 335.952 196.296 336.036C195.912 336.132 195.444 336.18 194.892 336.18ZM206.331 327.684H203.181V336H201.615V327.684H198.501V326.352H206.331V327.684ZM211.885 326.19C213.061 326.19 213.931 326.448 214.495 326.964C215.059 327.48 215.341 328.302 215.341 329.43V336H214.189L213.883 334.632H213.811C213.535 334.98 213.247 335.274 212.947 335.514C212.659 335.742 212.323 335.91 211.939 336.018C211.567 336.126 211.111 336.18 210.571 336.18C209.995 336.18 209.473 336.078 209.005 335.874C208.549 335.67 208.189 335.358 207.925 334.938C207.661 334.506 207.529 333.966 207.529 333.318C207.529 332.358 207.907 331.62 208.663 331.104C209.419 330.576 210.583 330.288 212.155 330.24L213.793 330.186V329.61C213.793 328.806 213.619 328.248 213.271 327.936C212.923 327.624 212.431 327.468 211.795 327.468C211.291 327.468 210.811 327.546 210.355 327.702C209.899 327.846 209.473 328.014 209.077 328.206L208.591 327.018C209.011 326.79 209.509 326.598 210.085 326.442C210.661 326.274 211.261 326.19 211.885 326.19ZM212.353 331.338C211.153 331.386 210.319 331.578 209.851 331.914C209.395 332.25 209.167 332.724 209.167 333.336C209.167 333.876 209.329 334.272 209.653 334.524C209.989 334.776 210.415 334.902 210.931 334.902C211.747 334.902 212.425 334.68 212.965 334.236C213.505 333.78 213.775 333.084 213.775 332.148V331.284L212.353 331.338ZM224.981 327.684H221.831V336H220.265V327.684H217.151V326.352H224.981V327.684ZM230.432 326.172C231.26 326.172 231.968 326.352 232.556 326.712C233.156 327.072 233.612 327.582 233.924 328.242C234.248 328.89 234.41 329.652 234.41 330.528V331.482H227.804C227.828 332.574 228.104 333.408 228.632 333.984C229.172 334.548 229.922 334.83 230.882 334.83C231.494 334.83 232.034 334.776 232.502 334.668C232.982 334.548 233.474 334.38 233.978 334.164V335.55C233.486 335.766 233 335.922 232.52 336.018C232.04 336.126 231.47 336.18 230.81 336.18C229.898 336.18 229.088 335.994 228.38 335.622C227.684 335.25 227.138 334.698 226.742 333.966C226.358 333.222 226.166 332.316 226.166 331.248C226.166 330.192 226.34 329.286 226.688 328.53C227.048 327.774 227.546 327.192 228.182 326.784C228.83 326.376 229.58 326.172 230.432 326.172ZM230.414 327.468C229.658 327.468 229.058 327.714 228.614 328.206C228.182 328.686 227.924 329.358 227.84 330.222H232.754C232.754 329.67 232.67 329.19 232.502 328.782C232.334 328.374 232.076 328.056 231.728 327.828C231.392 327.588 230.954 327.468 230.414 327.468ZM244.21 336H242.608V327.666H239.764C239.644 329.19 239.494 330.492 239.314 331.572C239.134 332.64 238.906 333.51 238.63 334.182C238.354 334.854 238.024 335.346 237.64 335.658C237.256 335.97 236.806 336.126 236.29 336.126C236.134 336.126 235.978 336.114 235.822 336.09C235.678 336.078 235.558 336.048 235.462 336V334.812C235.534 334.836 235.612 334.854 235.696 334.866C235.78 334.878 235.864 334.884 235.948 334.884C236.212 334.884 236.452 334.776 236.668 334.56C236.884 334.344 237.076 334.014 237.244 333.57C237.424 333.126 237.586 332.568 237.73 331.896C237.874 331.212 238 330.408 238.108 329.484C238.216 328.56 238.312 327.516 238.396 326.352H244.21V336ZM251.718 330.312C252.558 330.312 253.254 330.414 253.806 330.618C254.358 330.822 254.772 331.128 255.048 331.536C255.336 331.932 255.48 332.436 255.48 333.048C255.48 333.648 255.342 334.17 255.066 334.614C254.802 335.058 254.388 335.4 253.824 335.64C253.26 335.88 252.534 336 251.646 336H247.272V326.352H248.856V330.312H251.718ZM253.896 333.138C253.896 332.55 253.686 332.154 253.266 331.95C252.858 331.734 252.282 331.626 251.538 331.626H248.856V334.722H251.574C252.246 334.722 252.798 334.602 253.23 334.362C253.674 334.122 253.896 333.714 253.896 333.138ZM259.544 326.352V330.366H264.782V326.352H266.366V336H264.782V331.698H259.544V336H257.96V326.352H259.544ZM277.809 331.158C277.809 331.962 277.701 332.676 277.485 333.3C277.281 333.912 276.981 334.434 276.585 334.866C276.201 335.298 275.727 335.628 275.163 335.856C274.611 336.072 273.993 336.18 273.309 336.18C272.673 336.18 272.085 336.072 271.545 335.856C271.005 335.628 270.537 335.298 270.141 334.866C269.745 334.434 269.433 333.912 269.205 333.3C268.989 332.676 268.881 331.962 268.881 331.158C268.881 330.09 269.061 329.19 269.421 328.458C269.781 327.714 270.297 327.15 270.969 326.766C271.641 326.37 272.439 326.172 273.363 326.172C274.239 326.172 275.007 326.37 275.667 326.766C276.339 327.15 276.861 327.714 277.233 328.458C277.617 329.19 277.809 330.09 277.809 331.158ZM270.519 331.158C270.519 331.914 270.615 332.574 270.807 333.138C271.011 333.69 271.323 334.116 271.743 334.416C272.163 334.716 272.697 334.866 273.345 334.866C273.993 334.866 274.527 334.716 274.947 334.416C275.367 334.116 275.673 333.69 275.865 333.138C276.069 332.574 276.171 331.914 276.171 331.158C276.171 330.39 276.069 329.736 275.865 329.196C275.661 328.656 275.349 328.242 274.929 327.954C274.521 327.654 273.987 327.504 273.327 327.504C272.343 327.504 271.629 327.828 271.185 328.476C270.741 329.124 270.519 330.018 270.519 331.158ZM288.131 322.356C288.083 322.956 287.933 323.46 287.681 323.868C287.441 324.276 287.081 324.582 286.601 324.786C286.121 324.99 285.497 325.092 284.729 325.092C283.949 325.092 283.319 324.99 282.839 324.786C282.371 324.582 282.029 324.282 281.813 323.886C281.597 323.478 281.465 322.968 281.417 322.356H282.893C282.953 323.004 283.121 323.442 283.397 323.67C283.685 323.886 284.141 323.994 284.765 323.994C285.317 323.994 285.749 323.88 286.061 323.652C286.385 323.412 286.577 322.98 286.637 322.356H288.131ZM281.813 332.238C281.813 332.346 281.807 332.502 281.795 332.706C281.795 332.898 281.789 333.108 281.777 333.336C281.765 333.552 281.753 333.762 281.741 333.966C281.729 334.158 281.717 334.314 281.705 334.434L286.871 326.352H288.815V336H287.339V330.312C287.339 330.12 287.339 329.868 287.339 329.556C287.351 329.244 287.363 328.938 287.375 328.638C287.387 328.326 287.399 328.092 287.411 327.936L282.281 336H280.319V326.352H281.813V332.238ZM308.223 326.352L304.245 331.032L308.565 336H306.765L302.589 331.104V336H301.113V331.104L296.937 336H295.137L299.457 331.032L295.479 326.352H297.207L301.113 331.032V326.352H302.589V331.032L306.513 326.352H308.223ZM313.524 326.172C314.352 326.172 315.06 326.352 315.648 326.712C316.248 327.072 316.704 327.582 317.016 328.242C317.34 328.89 317.502 329.652 317.502 330.528V331.482H310.896C310.92 332.574 311.196 333.408 311.724 333.984C312.264 334.548 313.014 334.83 313.974 334.83C314.586 334.83 315.126 334.776 315.594 334.668C316.074 334.548 316.566 334.38 317.07 334.164V335.55C316.578 335.766 316.092 335.922 315.612 336.018C315.132 336.126 314.562 336.18 313.902 336.18C312.99 336.18 312.18 335.994 311.472 335.622C310.776 335.25 310.23 334.698 309.834 333.966C309.45 333.222 309.258 332.316 309.258 331.248C309.258 330.192 309.432 329.286 309.78 328.53C310.14 327.774 310.638 327.192 311.274 326.784C311.922 326.376 312.672 326.172 313.524 326.172ZM313.506 327.468C312.75 327.468 312.15 327.714 311.706 328.206C311.274 328.686 311.016 329.358 310.932 330.222H315.846C315.846 329.67 315.762 329.19 315.594 328.782C315.426 328.374 315.168 328.056 314.82 327.828C314.484 327.588 314.046 327.468 313.506 327.468ZM327.302 336H325.7V327.666H322.856C322.736 329.19 322.586 330.492 322.406 331.572C322.226 332.64 321.998 333.51 321.722 334.182C321.446 334.854 321.116 335.346 320.732 335.658C320.348 335.97 319.898 336.126 319.382 336.126C319.226 336.126 319.07 336.114 318.914 336.09C318.77 336.078 318.65 336.048 318.554 336V334.812C318.626 334.836 318.704 334.854 318.788 334.866C318.872 334.878 318.956 334.884 319.04 334.884C319.304 334.884 319.544 334.776 319.76 334.56C319.976 334.344 320.168 334.014 320.336 333.57C320.516 333.126 320.678 332.568 320.822 331.896C320.966 331.212 321.092 330.408 321.2 329.484C321.308 328.56 321.404 327.516 321.488 326.352H327.302V336ZM334.09 326.172C334.918 326.172 335.626 326.352 336.214 326.712C336.814 327.072 337.27 327.582 337.582 328.242C337.906 328.89 338.068 329.652 338.068 330.528V331.482H331.462C331.486 332.574 331.762 333.408 332.29 333.984C332.83 334.548 333.58 334.83 334.54 334.83C335.152 334.83 335.692 334.776 336.16 334.668C336.64 334.548 337.132 334.38 337.636 334.164V335.55C337.144 335.766 336.658 335.922 336.178 336.018C335.698 336.126 335.128 336.18 334.468 336.18C333.556 336.18 332.746 335.994 332.038 335.622C331.342 335.25 330.796 334.698 330.4 333.966C330.016 333.222 329.824 332.316 329.824 331.248C329.824 330.192 329.998 329.286 330.346 328.53C330.706 327.774 331.204 327.192 331.84 326.784C332.488 326.376 333.238 326.172 334.09 326.172ZM334.072 327.468C333.316 327.468 332.716 327.714 332.272 328.206C331.84 328.686 331.582 329.358 331.498 330.222H336.412C336.412 329.67 336.328 329.19 336.16 328.782C335.992 328.374 335.734 328.056 335.386 327.828C335.05 327.588 334.612 327.468 334.072 327.468ZM343.062 326.172C343.794 326.172 344.43 326.274 344.97 326.478C345.51 326.67 345.93 326.958 346.23 327.342C346.53 327.714 346.68 328.17 346.68 328.71C346.68 329.298 346.518 329.766 346.194 330.114C345.87 330.45 345.426 330.696 344.862 330.852V330.924C345.246 331.032 345.6 331.182 345.924 331.374C346.248 331.566 346.506 331.818 346.698 332.13C346.902 332.442 347.004 332.844 347.004 333.336C347.004 333.864 346.854 334.344 346.554 334.776C346.266 335.208 345.816 335.55 345.204 335.802C344.604 336.054 343.83 336.18 342.882 336.18C342.426 336.18 341.988 336.156 341.568 336.108C341.16 336.06 340.788 335.988 340.452 335.892C340.128 335.796 339.84 335.682 339.588 335.55V334.128C339.996 334.32 340.476 334.494 341.028 334.65C341.592 334.806 342.204 334.884 342.864 334.884C343.344 334.884 343.776 334.83 344.16 334.722C344.556 334.614 344.868 334.446 345.096 334.218C345.324 333.978 345.438 333.654 345.438 333.246C345.438 332.874 345.336 332.574 345.132 332.346C344.928 332.106 344.622 331.926 344.214 331.806C343.818 331.686 343.308 331.626 342.684 331.626H341.388V330.33H342.432C343.26 330.33 343.92 330.222 344.412 330.006C344.916 329.778 345.168 329.394 345.168 328.854C345.168 328.398 344.976 328.056 344.592 327.828C344.22 327.6 343.68 327.486 342.972 327.486C342.444 327.486 341.976 327.54 341.568 327.648C341.172 327.744 340.734 327.894 340.254 328.098L339.696 326.838C340.212 326.61 340.752 326.442 341.316 326.334C341.88 326.226 342.462 326.172 343.062 326.172ZM349.348 336V326.352H350.932V330.312H353.434C354.274 330.312 354.964 330.414 355.504 330.618C356.044 330.822 356.446 331.128 356.71 331.536C356.974 331.932 357.106 332.436 357.106 333.048C357.106 333.648 356.974 334.17 356.71 334.614C356.458 335.058 356.056 335.4 355.504 335.64C354.964 335.88 354.25 336 353.362 336H349.348ZM353.218 334.722C353.902 334.722 354.46 334.608 354.892 334.38C355.324 334.14 355.54 333.726 355.54 333.138C355.54 332.55 355.342 332.154 354.946 331.95C354.55 331.734 353.98 331.626 353.236 331.626H350.932V334.722H353.218ZM358.708 336V326.352H360.292V336H358.708ZM135.121 351.782C135.121 352.382 134.941 352.85 134.581 353.186C134.221 353.522 133.759 353.75 133.195 353.87V353.942C133.795 354.026 134.317 354.242 134.761 354.59C135.205 354.926 135.427 355.454 135.427 356.174C135.427 356.582 135.349 356.96 135.193 357.308C135.049 357.656 134.821 357.956 134.509 358.208C134.197 358.46 133.795 358.658 133.303 358.802C132.811 358.934 132.217 359 131.521 359H127.363V349.352H131.503C132.187 349.352 132.799 349.43 133.339 349.586C133.891 349.73 134.323 349.982 134.635 350.342C134.959 350.69 135.121 351.17 135.121 351.782ZM133.789 356.174C133.789 355.622 133.579 355.226 133.159 354.986C132.739 354.746 132.121 354.626 131.305 354.626H128.947V357.722H131.341C132.133 357.722 132.739 357.608 133.159 357.38C133.579 357.14 133.789 356.738 133.789 356.174ZM133.519 351.98C133.519 351.524 133.351 351.194 133.015 350.99C132.691 350.774 132.157 350.666 131.413 350.666H128.947V353.312H131.125C131.905 353.312 132.499 353.204 132.907 352.988C133.315 352.772 133.519 352.436 133.519 351.98ZM137.734 359V349.352H139.318V353.312H141.82C142.66 353.312 143.35 353.414 143.89 353.618C144.43 353.822 144.832 354.128 145.096 354.536C145.36 354.932 145.492 355.436 145.492 356.048C145.492 356.648 145.36 357.17 145.096 357.614C144.844 358.058 144.442 358.4 143.89 358.64C143.35 358.88 142.636 359 141.748 359H137.734ZM141.604 357.722C142.288 357.722 142.846 357.608 143.278 357.38C143.71 357.14 143.926 356.726 143.926 356.138C143.926 355.55 143.728 355.154 143.332 354.95C142.936 354.734 142.366 354.626 141.622 354.626H139.318V357.722H141.604ZM147.094 359V349.352H148.678V359H147.094ZM152.338 359H150.502L153.256 354.95C152.884 354.854 152.524 354.704 152.176 354.5C151.828 354.284 151.546 353.99 151.33 353.618C151.114 353.234 151.006 352.76 151.006 352.196C151.006 351.272 151.318 350.57 151.942 350.09C152.566 349.598 153.394 349.352 154.426 349.352H158.746V359H157.162V355.166H154.822L152.338 359ZM152.536 352.214C152.536 352.766 152.74 353.18 153.148 353.456C153.568 353.72 154.15 353.852 154.894 353.852H157.162V350.666H154.588C153.856 350.666 153.328 350.81 153.004 351.098C152.692 351.386 152.536 351.758 152.536 352.214ZM169.557 351.782C169.557 352.382 169.377 352.85 169.017 353.186C168.657 353.522 168.195 353.75 167.631 353.87V353.942C168.231 354.026 168.753 354.242 169.197 354.59C169.641 354.926 169.863 355.454 169.863 356.174C169.863 356.582 169.785 356.96 169.629 357.308C169.485 357.656 169.257 357.956 168.945 358.208C168.633 358.46 168.231 358.658 167.739 358.802C167.247 358.934 166.653 359 165.957 359H161.799V349.352H165.939C166.623 349.352 167.235 349.43 167.775 349.586C168.327 349.73 168.759 349.982 169.071 350.342C169.395 350.69 169.557 351.17 169.557 351.782ZM168.225 356.174C168.225 355.622 168.015 355.226 167.595 354.986C167.175 354.746 166.557 354.626 165.741 354.626H163.383V357.722H165.777C166.569 357.722 167.175 357.608 167.595 357.38C168.015 357.14 168.225 356.738 168.225 356.174ZM167.955 351.98C167.955 351.524 167.787 351.194 167.451 350.99C167.127 350.774 166.593 350.666 165.849 350.666H163.383V353.312H165.561C166.341 353.312 166.935 353.204 167.343 352.988C167.751 352.772 167.955 352.436 167.955 351.98ZM179.514 359H177.912V350.666H175.068C174.948 352.19 174.798 353.492 174.618 354.572C174.438 355.64 174.21 356.51 173.934 357.182C173.658 357.854 173.328 358.346 172.944 358.658C172.56 358.97 172.11 359.126 171.594 359.126C171.438 359.126 171.282 359.114 171.126 359.09C170.982 359.078 170.862 359.048 170.766 359V357.812C170.838 357.836 170.916 357.854 171 357.866C171.084 357.878 171.168 357.884 171.252 357.884C171.516 357.884 171.756 357.776 171.972 357.56C172.188 357.344 172.38 357.014 172.548 356.57C172.728 356.126 172.89 355.568 173.034 354.896C173.178 354.212 173.304 353.408 173.412 352.484C173.52 351.56 173.616 350.516 173.7 349.352H179.514V359ZM183.17 359H181.334L184.088 354.95C183.716 354.854 183.356 354.704 183.008 354.5C182.66 354.284 182.378 353.99 182.162 353.618C181.946 353.234 181.838 352.76 181.838 352.196C181.838 351.272 182.15 350.57 182.774 350.09C183.398 349.598 184.226 349.352 185.258 349.352H189.578V359H187.994V355.166H185.654L183.17 359ZM183.368 352.214C183.368 352.766 183.572 353.18 183.98 353.456C184.4 353.72 184.982 353.852 185.726 353.852H187.994V350.666H185.42C184.688 350.666 184.16 350.81 183.836 351.098C183.524 351.386 183.368 351.758 183.368 352.214ZM196.357 349.172C197.185 349.172 197.893 349.352 198.481 349.712C199.081 350.072 199.537 350.582 199.849 351.242C200.173 351.89 200.335 352.652 200.335 353.528V354.482H193.729C193.753 355.574 194.029 356.408 194.557 356.984C195.097 357.548 195.847 357.83 196.807 357.83C197.419 357.83 197.959 357.776 198.427 357.668C198.907 357.548 199.399 357.38 199.903 357.164V358.55C199.411 358.766 198.925 358.922 198.445 359.018C197.965 359.126 197.395 359.18 196.735 359.18C195.823 359.18 195.013 358.994 194.305 358.622C193.609 358.25 193.063 357.698 192.667 356.966C192.283 356.222 192.091 355.316 192.091 354.248C192.091 353.192 192.265 352.286 192.613 351.53C192.973 350.774 193.471 350.192 194.107 349.784C194.755 349.376 195.505 349.172 196.357 349.172ZM196.339 350.468C195.583 350.468 194.983 350.714 194.539 351.206C194.107 351.686 193.849 352.358 193.765 353.222H198.679C198.679 352.67 198.595 352.19 198.427 351.782C198.259 351.374 198.001 351.056 197.653 350.828C197.317 350.588 196.879 350.468 196.339 350.468ZM209.451 350.684H206.301V359H204.735V350.684H201.621V349.352H209.451V350.684ZM220.705 349.172C221.893 349.172 222.847 349.586 223.567 350.414C224.299 351.242 224.665 352.49 224.665 354.158C224.665 355.25 224.497 356.174 224.161 356.93C223.837 357.674 223.375 358.238 222.775 358.622C222.187 358.994 221.491 359.18 220.687 359.18C220.195 359.18 219.757 359.114 219.373 358.982C218.989 358.85 218.659 358.682 218.383 358.478C218.119 358.262 217.891 358.028 217.699 357.776H217.591C217.615 357.98 217.639 358.238 217.663 358.55C217.687 358.862 217.699 359.132 217.699 359.36V363.32H216.115V349.352H217.411L217.627 350.666H217.699C217.891 350.39 218.119 350.138 218.383 349.91C218.659 349.682 218.983 349.502 219.355 349.37C219.739 349.238 220.189 349.172 220.705 349.172ZM220.417 350.504C219.769 350.504 219.247 350.63 218.851 350.882C218.455 351.122 218.167 351.488 217.987 351.98C217.807 352.472 217.711 353.096 217.699 353.852V354.158C217.699 354.95 217.783 355.622 217.951 356.174C218.119 356.726 218.401 357.146 218.797 357.434C219.205 357.722 219.757 357.866 220.453 357.866C221.041 357.866 221.521 357.704 221.893 357.38C222.277 357.056 222.559 356.618 222.739 356.066C222.931 355.502 223.027 354.86 223.027 354.14C223.027 353.036 222.811 352.154 222.379 351.494C221.959 350.834 221.305 350.504 220.417 350.504ZM230.843 349.19C232.019 349.19 232.889 349.448 233.453 349.964C234.017 350.48 234.299 351.302 234.299 352.43V359H233.147L232.841 357.632H232.769C232.493 357.98 232.205 358.274 231.905 358.514C231.617 358.742 231.281 358.91 230.897 359.018C230.525 359.126 230.069 359.18 229.529 359.18C228.953 359.18 228.431 359.078 227.963 358.874C227.507 358.67 227.147 358.358 226.883 357.938C226.619 357.506 226.487 356.966 226.487 356.318C226.487 355.358 226.865 354.62 227.621 354.104C228.377 353.576 229.541 353.288 231.113 353.24L232.751 353.186V352.61C232.751 351.806 232.577 351.248 232.229 350.936C231.881 350.624 231.389 350.468 230.753 350.468C230.249 350.468 229.769 350.546 229.313 350.702C228.857 350.846 228.431 351.014 228.035 351.206L227.549 350.018C227.969 349.79 228.467 349.598 229.043 349.442C229.619 349.274 230.219 349.19 230.843 349.19ZM231.311 354.338C230.111 354.386 229.277 354.578 228.809 354.914C228.353 355.25 228.125 355.724 228.125 356.336C228.125 356.876 228.287 357.272 228.611 357.524C228.947 357.776 229.373 357.902 229.889 357.902C230.705 357.902 231.383 357.68 231.923 357.236C232.463 356.78 232.733 356.084 232.733 355.148V354.284L231.311 354.338ZM242.985 349.352H244.713L240.591 353.996L245.055 359H243.219L238.863 354.104V359H237.279V349.352H238.863V354.032L242.985 349.352ZM253.154 349.352V353.366H258.392V349.352H259.976V359H258.392V354.698H253.154V359H251.57V349.352H253.154ZM266.685 349.19C267.861 349.19 268.731 349.448 269.295 349.964C269.859 350.48 270.141 351.302 270.141 352.43V359H268.989L268.683 357.632H268.611C268.335 357.98 268.047 358.274 267.747 358.514C267.459 358.742 267.123 358.91 266.739 359.018C266.367 359.126 265.911 359.18 265.371 359.18C264.795 359.18 264.273 359.078 263.805 358.874C263.349 358.67 262.989 358.358 262.725 357.938C262.461 357.506 262.329 356.966 262.329 356.318C262.329 355.358 262.707 354.62 263.463 354.104C264.219 353.576 265.383 353.288 266.955 353.24L268.593 353.186V352.61C268.593 351.806 268.419 351.248 268.071 350.936C267.723 350.624 267.231 350.468 266.595 350.468C266.091 350.468 265.611 350.546 265.155 350.702C264.699 350.846 264.273 351.014 263.877 351.206L263.391 350.018C263.811 349.79 264.309 349.598 264.885 349.442C265.461 349.274 266.061 349.19 266.685 349.19ZM267.153 354.338C265.953 354.386 265.119 354.578 264.651 354.914C264.195 355.25 263.967 355.724 263.967 356.336C263.967 356.876 264.129 357.272 264.453 357.524C264.789 357.776 265.215 357.902 265.731 357.902C266.547 357.902 267.225 357.68 267.765 357.236C268.305 356.78 268.575 356.084 268.575 355.148V354.284L267.153 354.338ZM282.474 349.172C283.662 349.172 284.616 349.586 285.336 350.414C286.068 351.242 286.434 352.49 286.434 354.158C286.434 355.25 286.266 356.174 285.93 356.93C285.606 357.674 285.144 358.238 284.544 358.622C283.956 358.994 283.26 359.18 282.456 359.18C281.964 359.18 281.526 359.114 281.142 358.982C280.758 358.85 280.428 358.682 280.152 358.478C279.888 358.262 279.66 358.028 279.468 357.776H279.36C279.384 357.98 279.408 358.238 279.432 358.55C279.456 358.862 279.468 359.132 279.468 359.36V363.32H277.884V349.352H279.18L279.396 350.666H279.468C279.66 350.39 279.888 350.138 280.152 349.91C280.428 349.682 280.752 349.502 281.124 349.37C281.508 349.238 281.958 349.172 282.474 349.172ZM282.186 350.504C281.538 350.504 281.016 350.63 280.62 350.882C280.224 351.122 279.936 351.488 279.756 351.98C279.576 352.472 279.48 353.096 279.468 353.852V354.158C279.468 354.95 279.552 355.622 279.72 356.174C279.888 356.726 280.17 357.146 280.566 357.434C280.974 357.722 281.526 357.866 282.222 357.866C282.81 357.866 283.29 357.704 283.662 357.38C284.046 357.056 284.328 356.618 284.508 356.066C284.7 355.502 284.796 354.86 284.796 354.14C284.796 353.036 284.58 352.154 284.148 351.494C283.728 350.834 283.074 350.504 282.186 350.504ZM292.613 349.19C293.789 349.19 294.659 349.448 295.223 349.964C295.787 350.48 296.069 351.302 296.069 352.43V359H294.917L294.611 357.632H294.539C294.263 357.98 293.975 358.274 293.675 358.514C293.387 358.742 293.051 358.91 292.667 359.018C292.295 359.126 291.839 359.18 291.299 359.18C290.723 359.18 290.201 359.078 289.733 358.874C289.277 358.67 288.917 358.358 288.653 357.938C288.389 357.506 288.257 356.966 288.257 356.318C288.257 355.358 288.635 354.62 289.391 354.104C290.147 353.576 291.311 353.288 292.883 353.24L294.521 353.186V352.61C294.521 351.806 294.347 351.248 293.999 350.936C293.651 350.624 293.159 350.468 292.523 350.468C292.019 350.468 291.539 350.546 291.083 350.702C290.627 350.846 290.201 351.014 289.805 351.206L289.319 350.018C289.739 349.79 290.237 349.598 290.813 349.442C291.389 349.274 291.989 349.19 292.613 349.19ZM293.081 354.338C291.881 354.386 291.047 354.578 290.579 354.914C290.123 355.25 289.895 355.724 289.895 356.336C289.895 356.876 290.057 357.272 290.381 357.524C290.717 357.776 291.143 357.902 291.659 357.902C292.475 357.902 293.153 357.68 293.693 357.236C294.233 356.78 294.503 356.084 294.503 355.148V354.284L293.081 354.338ZM300.633 349.352V353.366H305.871V349.352H307.455V359H305.871V354.698H300.633V359H299.049V349.352H300.633ZM312.093 349.352V353.366H317.331V349.352H318.915V359H317.331V354.698H312.093V359H310.509V349.352H312.093ZM325.696 349.172C326.524 349.172 327.232 349.352 327.82 349.712C328.42 350.072 328.876 350.582 329.188 351.242C329.512 351.89 329.674 352.652 329.674 353.528V354.482H323.068C323.092 355.574 323.368 356.408 323.896 356.984C324.436 357.548 325.186 357.83 326.146 357.83C326.758 357.83 327.298 357.776 327.766 357.668C328.246 357.548 328.738 357.38 329.242 357.164V358.55C328.75 358.766 328.264 358.922 327.784 359.018C327.304 359.126 326.734 359.18 326.074 359.18C325.162 359.18 324.352 358.994 323.644 358.622C322.948 358.25 322.402 357.698 322.006 356.966C321.622 356.222 321.43 355.316 321.43 354.248C321.43 353.192 321.604 352.286 321.952 351.53C322.312 350.774 322.81 350.192 323.446 349.784C324.094 349.376 324.844 349.172 325.696 349.172ZM325.678 350.468C324.922 350.468 324.322 350.714 323.878 351.206C323.446 351.686 323.188 352.358 323.104 353.222H328.018C328.018 352.67 327.934 352.19 327.766 351.782C327.598 351.374 327.34 351.056 326.992 350.828C326.656 350.588 326.218 350.468 325.678 350.468ZM339.943 345.356C339.895 345.956 339.745 346.46 339.493 346.868C339.253 347.276 338.893 347.582 338.413 347.786C337.933 347.99 337.309 348.092 336.541 348.092C335.761 348.092 335.131 347.99 334.651 347.786C334.183 347.582 333.841 347.282 333.625 346.886C333.409 346.478 333.277 345.968 333.229 345.356H334.705C334.765 346.004 334.933 346.442 335.209 346.67C335.497 346.886 335.953 346.994 336.577 346.994C337.129 346.994 337.561 346.88 337.873 346.652C338.197 346.412 338.389 345.98 338.449 345.356H339.943ZM333.625 355.238C333.625 355.346 333.619 355.502 333.607 355.706C333.607 355.898 333.601 356.108 333.589 356.336C333.577 356.552 333.565 356.762 333.553 356.966C333.541 357.158 333.529 357.314 333.517 357.434L338.683 349.352H340.627V359H339.151V353.312C339.151 353.12 339.151 352.868 339.151 352.556C339.163 352.244 339.175 351.938 339.187 351.638C339.199 351.326 339.211 351.092 339.223 350.936L334.093 359H332.131V349.352H333.625V355.238ZM208.955 382.18C208.103 382.18 207.341 382.006 206.669 381.658C206.009 381.31 205.487 380.77 205.103 380.038C204.731 379.306 204.545 378.37 204.545 377.23C204.545 376.042 204.743 375.076 205.139 374.332C205.535 373.588 206.069 373.042 206.741 372.694C207.425 372.346 208.199 372.172 209.063 372.172C209.555 372.172 210.029 372.226 210.485 372.334C210.941 372.43 211.313 372.55 211.601 372.694L211.115 374.008C210.827 373.9 210.491 373.798 210.107 373.702C209.723 373.606 209.363 373.558 209.027 373.558C208.379 373.558 207.845 373.696 207.425 373.972C207.005 374.248 206.693 374.656 206.489 375.196C206.285 375.736 206.183 376.408 206.183 377.212C206.183 377.98 206.285 378.634 206.489 379.174C206.693 379.714 206.999 380.122 207.407 380.398C207.815 380.674 208.325 380.812 208.937 380.812C209.465 380.812 209.927 380.758 210.323 380.65C210.731 380.542 211.103 380.41 211.439 380.254V381.658C211.115 381.826 210.755 381.952 210.359 382.036C209.975 382.132 209.507 382.18 208.955 382.18ZM220.393 373.684H217.243V382H215.677V373.684H212.563V372.352H220.393V373.684ZM225.948 372.19C227.124 372.19 227.994 372.448 228.558 372.964C229.122 373.48 229.404 374.302 229.404 375.43V382H228.252L227.946 380.632H227.874C227.598 380.98 227.31 381.274 227.01 381.514C226.722 381.742 226.386 381.91 226.002 382.018C225.63 382.126 225.174 382.18 224.634 382.18C224.058 382.18 223.536 382.078 223.068 381.874C222.612 381.67 222.252 381.358 221.988 380.938C221.724 380.506 221.592 379.966 221.592 379.318C221.592 378.358 221.97 377.62 222.726 377.104C223.482 376.576 224.646 376.288 226.218 376.24L227.856 376.186V375.61C227.856 374.806 227.682 374.248 227.334 373.936C226.986 373.624 226.494 373.468 225.858 373.468C225.354 373.468 224.874 373.546 224.418 373.702C223.962 373.846 223.536 374.014 223.14 374.206L222.654 373.018C223.074 372.79 223.572 372.598 224.148 372.442C224.724 372.274 225.324 372.19 225.948 372.19ZM226.416 377.338C225.216 377.386 224.382 377.578 223.914 377.914C223.458 378.25 223.23 378.724 223.23 379.336C223.23 379.876 223.392 380.272 223.716 380.524C224.052 380.776 224.478 380.902 224.994 380.902C225.81 380.902 226.488 380.68 227.028 380.236C227.568 379.78 227.838 379.084 227.838 378.148V377.284L226.416 377.338ZM239.548 372.352V380.668H240.952V385.348H239.422V382H232.708V385.348H231.196V380.668H231.97C232.522 379.9 232.978 379.066 233.338 378.166C233.71 377.254 233.986 376.306 234.166 375.322C234.358 374.326 234.46 373.336 234.472 372.352H239.548ZM235.876 373.594C235.828 374.41 235.702 375.256 235.498 376.132C235.294 376.996 235.03 377.824 234.706 378.616C234.394 379.408 234.028 380.092 233.608 380.668H238.018V373.594H235.876ZM244.337 378.238C244.337 378.346 244.331 378.502 244.319 378.706C244.319 378.898 244.313 379.108 244.301 379.336C244.289 379.552 244.277 379.762 244.265 379.966C244.253 380.158 244.241 380.314 244.229 380.434L249.395 372.352H251.339V382H249.863V376.312C249.863 376.12 249.863 375.868 249.863 375.556C249.875 375.244 249.887 374.938 249.899 374.638C249.911 374.326 249.923 374.092 249.935 373.936L244.805 382H242.843V372.352H244.337V378.238ZM255.903 378.238C255.903 378.346 255.897 378.502 255.885 378.706C255.885 378.898 255.879 379.108 255.867 379.336C255.855 379.552 255.843 379.762 255.831 379.966C255.819 380.158 255.807 380.314 255.795 380.434L260.961 372.352H262.905V382H261.429V376.312C261.429 376.12 261.429 375.868 261.429 375.556C261.441 375.244 261.453 374.938 261.465 374.638C261.477 374.326 261.489 374.092 261.501 373.936L256.371 382H254.409V372.352H255.903V378.238Z" fill="black"/>
<path d="M200.882 189V186.024C202.247 184.893 203.57 183.773 204.85 182.664C206.151 181.555 207.303 180.456 208.306 179.368C209.33 178.28 210.141 177.224 210.738 176.2C211.357 175.155 211.666 174.141 211.666 173.16C211.666 172.243 211.41 171.432 210.898 170.728C210.407 170.024 209.586 169.672 208.434 169.672C207.261 169.672 206.375 170.056 205.778 170.824C205.181 171.592 204.882 172.52 204.882 173.608H200.914C200.957 171.965 201.319 170.6 202.002 169.512C202.685 168.403 203.591 167.581 204.722 167.048C205.853 166.493 207.122 166.216 208.53 166.216C210.813 166.216 212.583 166.845 213.842 168.104C215.122 169.341 215.762 170.952 215.762 172.936C215.762 174.173 215.474 175.379 214.898 176.552C214.343 177.725 213.607 178.856 212.69 179.944C211.773 181.032 210.781 182.056 209.714 183.016C208.647 183.955 207.613 184.829 206.61 185.64H216.306V189H200.882ZM228.735 189.384C226.666 189.384 224.895 188.904 223.423 187.944C221.951 186.963 220.81 185.608 219.999 183.88C219.21 182.131 218.815 180.104 218.815 177.8C218.815 175.517 219.21 173.501 219.999 171.752C220.81 170.003 221.951 168.648 223.423 167.688C224.895 166.707 226.666 166.216 228.735 166.216C230.804 166.216 232.575 166.707 234.047 167.688C235.519 168.648 236.65 170.003 237.439 171.752C238.25 173.501 238.655 175.517 238.655 177.8C238.655 180.104 238.25 182.131 237.439 183.88C236.65 185.608 235.519 186.963 234.047 187.944C232.575 188.904 230.804 189.384 228.735 189.384ZM228.735 185.704C230.42 185.704 231.796 185 232.863 183.592C233.93 182.184 234.463 180.253 234.463 177.8C234.463 175.347 233.93 173.416 232.863 172.008C231.796 170.6 230.42 169.896 228.735 169.896C227.028 169.896 225.642 170.6 224.575 172.008C223.53 173.416 223.007 175.347 223.007 177.8C223.007 180.253 223.53 182.184 224.575 183.592C225.642 185 227.028 185.704 228.735 185.704ZM246.878 177.608C245.854 177.608 244.926 177.384 244.094 176.936C243.262 176.467 242.6 175.805 242.11 174.952C241.619 174.099 241.374 173.085 241.374 171.912C241.374 170.739 241.619 169.725 242.11 168.872C242.6 168.019 243.262 167.368 244.094 166.92C244.926 166.451 245.864 166.216 246.91 166.216C247.934 166.216 248.851 166.451 249.662 166.92C250.494 167.368 251.155 168.019 251.646 168.872C252.136 169.725 252.382 170.739 252.382 171.912C252.382 173.085 252.136 174.099 251.646 174.952C251.155 175.805 250.494 176.467 249.662 176.936C248.83 177.384 247.902 177.608 246.878 177.608ZM245.662 189L258.302 166.6H262.302L249.662 189H245.662ZM246.878 174.76C247.496 174.76 248.03 174.525 248.478 174.056C248.926 173.565 249.15 172.851 249.15 171.912C249.15 170.973 248.926 170.259 248.478 169.768C248.051 169.277 247.518 169.032 246.878 169.032C246.238 169.032 245.694 169.277 245.246 169.768C244.819 170.259 244.606 170.973 244.606 171.912C244.606 172.851 244.819 173.565 245.246 174.056C245.694 174.525 246.238 174.76 246.878 174.76ZM261.214 189.384C260.19 189.384 259.262 189.16 258.43 188.712C257.598 188.243 256.936 187.581 256.446 186.728C255.955 185.875 255.71 184.861 255.71 183.688C255.71 182.515 255.955 181.512 256.446 180.68C256.936 179.827 257.598 179.176 258.43 178.728C259.262 178.259 260.2 178.024 261.246 178.024C262.27 178.024 263.187 178.259 263.998 178.728C264.83 179.176 265.491 179.827 265.982 180.68C266.472 181.512 266.718 182.515 266.718 183.688C266.718 184.861 266.472 185.875 265.982 186.728C265.491 187.581 264.83 188.243 263.998 188.712C263.187 189.16 262.259 189.384 261.214 189.384ZM261.214 186.536C261.854 186.536 262.387 186.301 262.814 185.832C263.262 185.341 263.486 184.627 263.486 183.688C263.486 182.749 263.262 182.035 262.814 181.544C262.387 181.053 261.854 180.808 261.214 180.808C260.574 180.808 260.03 181.053 259.582 181.544C259.155 182.035 258.942 182.749 258.942 183.688C258.942 184.627 259.155 185.341 259.582 185.832C260.03 186.301 260.574 186.536 261.214 186.536Z" fill="#1B1642"/>
<circle cx="226.224" cy="97.6873" r="9.70681" transform="rotate(127.754 226.224 97.6873)" fill="#EA5858"/>
<path d="M208.674 274.423C204.436 271.141 203.661 264.913 206.943 260.675C210.226 256.436 216.323 255.661 220.561 258.943C224.8 262.226 225.575 268.453 222.292 272.692C219.01 276.93 212.913 277.705 208.674 274.423Z" fill="#EA5858"/>
<mask id="mask0_1397_880" style="mask-type:alpha" maskUnits="userSpaceOnUse" x="93" y="66" width="134" height="220">
<path d="M220.346 182.911L214.5 285.5L93.0635 226.656L170.579 66.9841L226.082 80.2421L226.749 147.16L220.346 182.911Z" fill="#C4C4C4"/>
</mask>
<g mask="url(#mask0_1397_880)">
<path fill-rule="evenodd" clip-rule="evenodd" d="M146.614 124.437C114.686 165.667 122.226 224.973 163.456 256.901C204.686 288.83 263.993 281.289 295.921 240.059C327.849 198.829 320.309 139.523 279.079 107.594C237.849 75.6661 178.542 83.2067 146.614 124.437ZM161.963 136.323C136.6 169.076 142.59 216.188 175.343 241.552C208.096 266.916 255.208 260.925 280.572 228.173C305.935 195.42 299.945 148.307 267.192 122.944C234.44 97.5801 187.327 103.57 161.963 136.323Z" fill="#EA5858"/>
</g>
</g>
</g>
<defs>
<filter id="filter0_dd_1397_880" x="0" y="0" width="468" height="529" filterUnits="userSpaceOnUse" color-interpolation-filters="sRGB">
<feFlood flood-opacity="0" result="BackgroundImageFix"/>
<feColorMatrix in="SourceAlpha" type="matrix" values="0 0 0 0 0 0 0 0 0 0 0 0 0 0 0 0 0 0 127 0" result="hardAlpha"/>
<feOffset dy="44"/>
<feGaussianBlur stdDeviation="37"/>
<feColorMatrix type="matrix" values="0 0 0 0 0.103299 0 0 0 0 0.0836699 0 0 0 0 0.277995 0 0 0 0.06 0"/>
<feBlend mode="normal" in2="BackgroundImageFix" result="effect1_dropShadow_1397_880"/>
<feColorMatrix in="SourceAlpha" type="matrix" values="0 0 0 0 0 0 0 0 0 0 0 0 0 0 0 0 0 0 127 0" result="hardAlpha"/>
<feOffset/>
<feGaussianBlur stdDeviation="12"/>
<feColorMatrix type="matrix" values="0 0 0 0 0 0 0 0 0 0 0 0 0 0 0 0 0 0 0.04 0"/>
<feBlend mode="normal" in2="effect1_dropShadow_1397_880" result="effect2_dropShadow_1397_880"/>
<feBlend mode="normal" in="SourceGraphic" in2="effect2_dropShadow_1397_880" result="shape"/>
</filter>
<clipPath id="clip0_1397_880">
<path d="M74 46C74 37.1634 81.1634 30 90 30H394V395C394 403.837 386.837 411 378 411H74V46Z" fill="white"/>
</clipPath>
</defs>
</svg>
