<svg width="282" height="256" viewBox="0 0 282 256" fill="none" xmlns="http://www.w3.org/2000/svg">
<path d="M0.561035 16.1177C0.561035 7.28112 7.72448 0.117676 16.561 0.117676H281.561V239.118C281.561 247.954 274.398 255.118 265.561 255.118H0.561035V16.1177Z" fill="white"/>
<path d="M38.203 27.0877C37.1297 27.0877 36.285 27.447 35.669 28.1657C35.053 28.8843 34.745 29.869 34.745 31.1197C34.745 32.361 35.0297 33.3457 35.599 34.0737C36.1777 34.7923 37.041 35.1517 38.189 35.1517C38.6277 35.1517 39.043 35.1143 39.435 35.0397C39.827 34.965 40.2097 34.8717 40.583 34.7597V35.8517C40.2097 35.9917 39.8224 36.0943 39.421 36.1597C39.029 36.225 38.5577 36.2577 38.007 36.2577C36.9897 36.2577 36.1404 36.0477 35.459 35.6277C34.7777 35.2077 34.2644 34.6103 33.919 33.8357C33.583 33.061 33.415 32.151 33.415 31.1057C33.415 30.0977 33.597 29.211 33.961 28.4457C34.3344 27.671 34.8804 27.069 35.599 26.6397C36.3177 26.201 37.1904 25.9817 38.217 25.9817C39.2717 25.9817 40.191 26.1777 40.975 26.5697L40.471 27.6337C40.163 27.4937 39.8177 27.3677 39.435 27.2557C39.0617 27.1437 38.651 27.0877 38.203 27.0877ZM47.7767 29.6497H45.3267V36.1177H44.1087V29.6497H41.6867V28.6137H47.7767V29.6497ZM52.0969 28.4877C53.0116 28.4877 53.6883 28.6883 54.1269 29.0897C54.5656 29.491 54.7849 30.1303 54.7849 31.0077V36.1177H53.8889L53.6509 35.0537H53.5949C53.2683 35.4643 52.9229 35.7677 52.5589 35.9637C52.2043 36.1597 51.7096 36.2577 51.0749 36.2577C50.3936 36.2577 49.8289 36.0803 49.3809 35.7257C48.9329 35.3617 48.7089 34.797 48.7089 34.0317C48.7089 33.285 49.0029 32.711 49.5909 32.3097C50.1789 31.899 51.0843 31.675 52.3069 31.6377L53.5809 31.5957V31.1477C53.5809 30.5223 53.4456 30.0883 53.1749 29.8457C52.9043 29.603 52.5216 29.4817 52.0269 29.4817C51.6349 29.4817 51.2616 29.5423 50.9069 29.6637C50.5523 29.7757 50.2209 29.9063 49.9129 30.0557L49.5349 29.1317C49.8616 28.9543 50.2489 28.805 50.6969 28.6837C51.1449 28.553 51.6116 28.4877 52.0969 28.4877ZM53.5669 32.4497L52.4609 32.4917C51.5276 32.529 50.8789 32.6783 50.5149 32.9397C50.1603 33.201 49.9829 33.5697 49.9829 34.0457C49.9829 34.4657 50.1089 34.7737 50.3609 34.9697C50.6223 35.1657 50.9536 35.2637 51.3549 35.2637C51.9896 35.2637 52.5169 35.091 52.9369 34.7457C53.3569 34.391 53.5669 33.8497 53.5669 33.1217V32.4497ZM62.2826 29.6497H59.8326V36.1177H58.6146V29.6497H56.1926V28.6137H62.2826V29.6497ZM64.9228 28.6137V33.1917C64.9228 33.3037 64.9181 33.4717 64.9088 33.6957C64.8995 33.9197 64.8855 34.1437 64.8668 34.3677C64.8575 34.5917 64.8481 34.769 64.8388 34.8997L68.8568 28.6137H70.3688V36.1177H69.2208V31.6937C69.2208 31.5443 69.2208 31.3483 69.2208 31.1057C69.2301 30.863 69.2395 30.625 69.2488 30.3917C69.2581 30.149 69.2675 29.967 69.2768 29.8457L65.2868 36.1177H63.7608V28.6137H64.9228ZM75.7669 36.2577C75.1042 36.2577 74.5116 36.1223 73.9889 35.8517C73.4756 35.581 73.0696 35.161 72.7709 34.5917C72.4816 34.0223 72.3369 33.2943 72.3369 32.4077C72.3369 31.4837 72.4909 30.7323 72.7989 30.1537C73.1069 29.575 73.5222 29.1503 74.0449 28.8797C74.5769 28.609 75.1789 28.4737 75.8509 28.4737C76.2336 28.4737 76.6022 28.5157 76.9569 28.5997C77.3116 28.6743 77.6009 28.7677 77.8249 28.8797L77.4469 29.9017C77.2229 29.8177 76.9616 29.7383 76.6629 29.6637C76.3642 29.589 76.0842 29.5517 75.8229 29.5517C74.3482 29.5517 73.6109 30.499 73.6109 32.3937C73.6109 33.299 73.7882 33.9943 74.1429 34.4797C74.5069 34.9557 75.0436 35.1937 75.7529 35.1937C76.1636 35.1937 76.5229 35.1517 76.8309 35.0677C77.1482 34.9837 77.4376 34.881 77.6989 34.7597V35.8517C77.4469 35.9823 77.1669 36.0803 76.8589 36.1457C76.5602 36.2203 76.1962 36.2577 75.7669 36.2577ZM84.6635 29.6497H82.2135V36.1177H80.9955V29.6497H78.5735V28.6137H84.6635V29.6497ZM87.3037 28.6137V33.1917C87.3037 33.3037 87.299 33.4717 87.2897 33.6957C87.2803 33.9197 87.2663 34.1437 87.2477 34.3677C87.2383 34.5917 87.229 34.769 87.2197 34.8997L91.2377 28.6137H92.7497V36.1177H91.6017V31.6937C91.6017 31.5443 91.6017 31.3483 91.6017 31.1057C91.611 30.863 91.6203 30.625 91.6297 30.3917C91.639 30.149 91.6483 29.967 91.6577 29.8457L87.6677 36.1177H86.1417V28.6137H87.3037ZM99.5758 28.6137H100.92L97.7138 32.2257L101.186 36.1177H99.7578L96.3698 32.3097V36.1177H95.1378V28.6137H96.3698V32.2537L99.5758 28.6137ZM105.39 28.4877C106.305 28.4877 106.981 28.6883 107.42 29.0897C107.859 29.491 108.078 30.1303 108.078 31.0077V36.1177H107.182L106.944 35.0537H106.888C106.561 35.4643 106.216 35.7677 105.852 35.9637C105.497 36.1597 105.003 36.2577 104.368 36.2577C103.687 36.2577 103.122 36.0803 102.674 35.7257C102.226 35.3617 102.002 34.797 102.002 34.0317C102.002 33.285 102.296 32.711 102.884 32.3097C103.472 31.899 104.377 31.675 105.6 31.6377L106.874 31.5957V31.1477C106.874 30.5223 106.739 30.0883 106.468 29.8457C106.197 29.603 105.815 29.4817 105.32 29.4817C104.928 29.4817 104.555 29.5423 104.2 29.6637C103.845 29.7757 103.514 29.9063 103.206 30.0557L102.828 29.1317C103.155 28.9543 103.542 28.805 103.99 28.6837C104.438 28.553 104.905 28.4877 105.39 28.4877ZM106.86 32.4497L105.754 32.4917C104.821 32.529 104.172 32.6783 103.808 32.9397C103.453 33.201 103.276 33.5697 103.276 34.0457C103.276 34.4657 103.402 34.7737 103.654 34.9697C103.915 35.1657 104.247 35.2637 104.648 35.2637C105.283 35.2637 105.81 35.091 106.23 34.7457C106.65 34.391 106.86 33.8497 106.86 33.1217V32.4497Z" fill="#1B1642"/>
<path d="M53.232 161.478C53.232 161.916 53.094 162.264 52.818 162.522C52.542 162.774 52.173 162.936 51.711 163.008V163.044C52.251 163.116 52.662 163.284 52.944 163.548C53.226 163.812 53.367 164.157 53.367 164.583C53.367 165.147 53.151 165.606 52.719 165.96C52.287 166.314 51.639 166.491 50.775 166.491C50.427 166.491 50.094 166.464 49.776 166.41C49.464 166.362 49.173 166.272 48.903 166.14V165.402C49.185 165.534 49.491 165.639 49.821 165.717C50.157 165.789 50.472 165.825 50.766 165.825C51.342 165.825 51.777 165.717 52.071 165.501C52.371 165.285 52.521 164.979 52.521 164.583C52.521 164.175 52.347 163.878 51.999 163.692C51.651 163.506 51.165 163.413 50.541 163.413H49.623V162.738H50.496C51.132 162.738 51.606 162.633 51.918 162.423C52.236 162.207 52.395 161.919 52.395 161.559C52.395 161.235 52.275 160.986 52.035 160.812C51.795 160.638 51.483 160.551 51.099 160.551C50.697 160.551 50.361 160.602 50.091 160.704C49.827 160.806 49.569 160.938 49.317 161.1L48.93 160.551C49.182 160.365 49.491 160.209 49.857 160.083C50.229 159.951 50.646 159.885 51.108 159.885C51.804 159.885 52.332 160.035 52.692 160.335C53.052 160.635 53.232 161.016 53.232 161.478ZM56.4441 161.496C57.0321 161.496 57.4671 161.625 57.7491 161.883C58.0311 162.141 58.1721 162.552 58.1721 163.116V166.401H57.5961L57.4431 165.717H57.4071C57.1971 165.981 56.9751 166.176 56.7411 166.302C56.5131 166.428 56.1951 166.491 55.7871 166.491C55.3491 166.491 54.9861 166.377 54.6981 166.149C54.4101 165.915 54.2661 165.552 54.2661 165.06C54.2661 164.58 54.4551 164.211 54.8331 163.953C55.2111 163.689 55.7931 163.545 56.5791 163.521L57.3981 163.494V163.206C57.3981 162.804 57.3111 162.525 57.1371 162.369C56.9631 162.213 56.7171 162.135 56.3991 162.135C56.1471 162.135 55.9071 162.174 55.6791 162.252C55.4511 162.324 55.2381 162.408 55.0401 162.504L54.7971 161.91C55.0071 161.796 55.2561 161.7 55.5441 161.622C55.8321 161.538 56.1321 161.496 56.4441 161.496ZM57.3891 164.043L56.6781 164.07C56.0781 164.094 55.6611 164.19 55.4271 164.358C55.1991 164.526 55.0851 164.763 55.0851 165.069C55.0851 165.339 55.1661 165.537 55.3281 165.663C55.4961 165.789 55.7091 165.852 55.9671 165.852C56.3751 165.852 56.7141 165.741 56.9841 165.519C57.2541 165.291 57.3891 164.943 57.3891 164.475V164.043ZM59.41 163.503C59.41 162.447 59.569 161.625 59.887 161.037C60.205 160.443 60.718 160.071 61.426 159.921C61.816 159.837 62.197 159.762 62.569 159.696C62.941 159.63 63.289 159.57 63.613 159.516L63.748 160.209C63.538 160.239 63.301 160.278 63.037 160.326C62.773 160.368 62.512 160.413 62.254 160.461C61.996 160.503 61.774 160.545 61.588 160.587C61.198 160.671 60.889 160.875 60.661 161.199C60.433 161.517 60.304 162.015 60.274 162.693H60.328C60.412 162.579 60.526 162.462 60.67 162.342C60.82 162.222 60.997 162.12 61.201 162.036C61.411 161.952 61.648 161.91 61.912 161.91C62.536 161.91 63.007 162.111 63.325 162.513C63.643 162.915 63.802 163.437 63.802 164.079C63.802 164.613 63.709 165.06 63.523 165.42C63.337 165.78 63.079 166.05 62.749 166.23C62.419 166.404 62.035 166.491 61.597 166.491C60.931 166.491 60.4 166.236 60.004 165.726C59.608 165.216 59.41 164.475 59.41 163.503ZM61.66 165.834C62.05 165.834 62.365 165.708 62.605 165.456C62.845 165.204 62.965 164.772 62.965 164.16C62.965 163.668 62.872 163.281 62.686 162.999C62.506 162.711 62.206 162.567 61.786 162.567C61.522 162.567 61.282 162.627 61.066 162.747C60.85 162.861 60.67 162.993 60.526 163.143C60.382 163.293 60.28 163.419 60.22 163.521C60.22 163.815 60.241 164.1 60.283 164.376C60.325 164.652 60.397 164.901 60.499 165.123C60.607 165.339 60.754 165.513 60.94 165.645C61.132 165.771 61.372 165.834 61.66 165.834ZM69.2437 163.98C69.2437 164.778 69.0397 165.396 68.6317 165.834C68.2297 166.272 67.6837 166.491 66.9937 166.491C66.5677 166.491 66.1867 166.395 65.8507 166.203C65.5207 166.005 65.2597 165.72 65.0677 165.348C64.8757 164.97 64.7797 164.514 64.7797 163.98C64.7797 163.182 64.9807 162.567 65.3827 162.135C65.7847 161.703 66.3307 161.487 67.0207 161.487C67.4587 161.487 67.8427 161.586 68.1727 161.784C68.5087 161.976 68.7697 162.258 68.9557 162.63C69.1477 162.996 69.2437 163.446 69.2437 163.98ZM65.5987 163.98C65.5987 164.55 65.7097 165.003 65.9317 165.339C66.1597 165.669 66.5197 165.834 67.0117 165.834C67.4977 165.834 67.8547 165.669 68.0827 165.339C68.3107 165.003 68.4247 164.55 68.4247 163.98C68.4247 163.41 68.3107 162.963 68.0827 162.639C67.8547 162.315 67.4947 162.153 67.0027 162.153C66.5107 162.153 66.1537 162.315 65.9317 162.639C65.7097 162.963 65.5987 163.41 65.5987 163.98ZM74.1709 166.401H73.3699V162.234H71.9479C71.8699 163.248 71.7619 164.067 71.6239 164.691C71.4859 165.309 71.3029 165.759 71.0749 166.041C70.8469 166.323 70.5589 166.464 70.2109 166.464C70.1329 166.464 70.0549 166.458 69.9769 166.446C69.9049 166.44 69.8449 166.425 69.7969 166.401V165.807C69.8329 165.819 69.8719 165.828 69.9139 165.834C69.9559 165.84 69.9979 165.843 70.0399 165.843C70.3639 165.843 70.6219 165.498 70.8139 164.808C71.0119 164.118 71.1619 163.041 71.2639 161.577H74.1709V166.401ZM77.565 161.487C77.979 161.487 78.333 161.577 78.627 161.757C78.927 161.937 79.155 162.192 79.311 162.522C79.473 162.846 79.554 163.227 79.554 163.665V164.142H76.251C76.263 164.688 76.401 165.105 76.665 165.393C76.935 165.675 77.31 165.816 77.79 165.816C78.096 165.816 78.366 165.789 78.6 165.735C78.84 165.675 79.086 165.591 79.338 165.483V166.176C79.092 166.284 78.849 166.362 78.609 166.41C78.369 166.464 78.084 166.491 77.754 166.491C77.298 166.491 76.893 166.398 76.539 166.212C76.191 166.026 75.918 165.75 75.72 165.384C75.528 165.012 75.432 164.559 75.432 164.025C75.432 163.497 75.519 163.044 75.693 162.666C75.873 162.288 76.122 161.997 76.44 161.793C76.764 161.589 77.139 161.487 77.565 161.487ZM77.556 162.135C77.178 162.135 76.878 162.258 76.656 162.504C76.44 162.744 76.311 163.08 76.269 163.512H78.726C78.72 163.104 78.624 162.774 78.438 162.522C78.252 162.264 77.958 162.135 77.556 162.135ZM84.6611 162.792C84.6611 163.092 84.5711 163.326 84.3911 163.494C84.2111 163.662 83.9801 163.776 83.6981 163.836V163.872C83.9981 163.914 84.2591 164.022 84.4811 164.196C84.7031 164.364 84.8141 164.628 84.8141 164.988C84.8141 165.396 84.6611 165.735 84.3551 166.005C84.0551 166.269 83.5571 166.401 82.8611 166.401H80.7821V161.577H82.8521C83.1941 161.577 83.5001 161.616 83.7701 161.694C84.0461 161.766 84.2621 161.892 84.4181 162.072C84.5801 162.246 84.6611 162.486 84.6611 162.792ZM83.8601 162.891C83.8601 162.663 83.7761 162.498 83.6081 162.396C83.4461 162.288 83.1791 162.234 82.8071 162.234H81.5741V163.557H82.6631C83.4611 163.557 83.8601 163.335 83.8601 162.891ZM83.9951 164.988C83.9951 164.712 83.8901 164.514 83.6801 164.394C83.4701 164.274 83.1611 164.214 82.7531 164.214H81.5741V165.762H82.7711C83.1671 165.762 83.4701 165.705 83.6801 165.591C83.8901 165.471 83.9951 165.27 83.9951 164.988ZM87.7946 161.496C88.3826 161.496 88.8176 161.625 89.0996 161.883C89.3816 162.141 89.5226 162.552 89.5226 163.116V166.401H88.9466L88.7936 165.717H88.7576C88.5476 165.981 88.3256 166.176 88.0916 166.302C87.8636 166.428 87.5456 166.491 87.1376 166.491C86.6996 166.491 86.3366 166.377 86.0486 166.149C85.7606 165.915 85.6166 165.552 85.6166 165.06C85.6166 164.58 85.8056 164.211 86.1836 163.953C86.5616 163.689 87.1436 163.545 87.9296 163.521L88.7486 163.494V163.206C88.7486 162.804 88.6616 162.525 88.4876 162.369C88.3136 162.213 88.0676 162.135 87.7496 162.135C87.4976 162.135 87.2576 162.174 87.0296 162.252C86.8016 162.324 86.5886 162.408 86.3906 162.504L86.1476 161.91C86.3576 161.796 86.6066 161.7 86.8946 161.622C87.1826 161.538 87.4826 161.496 87.7946 161.496ZM88.7396 164.043L88.0286 164.07C87.4286 164.094 87.0116 164.19 86.7776 164.358C86.5496 164.526 86.4356 164.763 86.4356 165.069C86.4356 165.339 86.5166 165.537 86.6786 165.663C86.8466 165.789 87.0596 165.852 87.3176 165.852C87.7256 165.852 88.0646 165.741 88.3346 165.519C88.6046 165.291 88.7396 164.943 88.7396 164.475V164.043ZM92.8756 161.487C93.2896 161.487 93.6436 161.577 93.9376 161.757C94.2376 161.937 94.4656 162.192 94.6216 162.522C94.7836 162.846 94.8646 163.227 94.8646 163.665V164.142H91.5616C91.5736 164.688 91.7116 165.105 91.9756 165.393C92.2456 165.675 92.6206 165.816 93.1006 165.816C93.4066 165.816 93.6766 165.789 93.9106 165.735C94.1506 165.675 94.3966 165.591 94.6486 165.483V166.176C94.4026 166.284 94.1596 166.362 93.9196 166.41C93.6796 166.464 93.3946 166.491 93.0646 166.491C92.6086 166.491 92.2036 166.398 91.8496 166.212C91.5016 166.026 91.2286 165.75 91.0306 165.384C90.8386 165.012 90.7426 164.559 90.7426 164.025C90.7426 163.497 90.8296 163.044 91.0036 162.666C91.1836 162.288 91.4326 161.997 91.7506 161.793C92.0746 161.589 92.4496 161.487 92.8756 161.487ZM92.8666 162.135C92.4886 162.135 92.1886 162.258 91.9666 162.504C91.7506 162.744 91.6216 163.08 91.5796 163.512H94.0366C94.0306 163.104 93.9346 162.774 93.7486 162.522C93.5626 162.264 93.2686 162.135 92.8666 162.135ZM101.268 161.577V166.401H100.557V163.323C100.557 163.197 100.56 163.065 100.566 162.927C100.578 162.789 100.59 162.654 100.602 162.522H100.575L98.9996 166.401H98.3336L96.8036 162.522H96.7766C96.7946 162.792 96.8036 163.068 96.8036 163.35V166.401H96.0926V161.577H97.1456L98.6666 165.456L100.215 161.577H101.268ZM107.001 163.98C107.001 164.778 106.797 165.396 106.389 165.834C105.987 166.272 105.441 166.491 104.751 166.491C104.325 166.491 103.944 166.395 103.608 166.203C103.278 166.005 103.017 165.72 102.825 165.348C102.633 164.97 102.537 164.514 102.537 163.98C102.537 163.182 102.738 162.567 103.14 162.135C103.542 161.703 104.088 161.487 104.778 161.487C105.216 161.487 105.6 161.586 105.93 161.784C106.266 161.976 106.527 162.258 106.713 162.63C106.905 162.996 107.001 163.446 107.001 163.98ZM103.356 163.98C103.356 164.55 103.467 165.003 103.689 165.339C103.917 165.669 104.277 165.834 104.769 165.834C105.255 165.834 105.612 165.669 105.84 165.339C106.068 165.003 106.182 164.55 106.182 163.98C106.182 163.41 106.068 162.963 105.84 162.639C105.612 162.315 105.252 162.153 104.76 162.153C104.268 162.153 103.911 162.315 103.689 162.639C103.467 162.963 103.356 163.41 103.356 163.98ZM110.192 166.491C109.766 166.491 109.385 166.404 109.049 166.23C108.719 166.056 108.458 165.786 108.266 165.42C108.08 165.054 107.987 164.586 107.987 164.016C107.987 163.422 108.086 162.939 108.284 162.567C108.482 162.195 108.749 161.922 109.085 161.748C109.427 161.574 109.814 161.487 110.246 161.487C110.492 161.487 110.729 161.514 110.957 161.568C111.185 161.616 111.371 161.676 111.515 161.748L111.272 162.405C111.128 162.351 110.96 162.3 110.768 162.252C110.576 162.204 110.396 162.18 110.228 162.18C109.28 162.18 108.806 162.789 108.806 164.007C108.806 164.589 108.92 165.036 109.148 165.348C109.382 165.654 109.727 165.807 110.183 165.807C110.447 165.807 110.678 165.78 110.876 165.726C111.08 165.672 111.266 165.606 111.434 165.528V166.23C111.272 166.314 111.092 166.377 110.894 166.419C110.702 166.467 110.468 166.491 110.192 166.491ZM115.911 162.243H114.336V166.401H113.553V162.243H111.996V161.577H115.911V162.243ZM117.653 163.557H119.084C120.338 163.557 120.965 164.013 120.965 164.925C120.965 165.375 120.812 165.735 120.506 166.005C120.2 166.269 119.714 166.401 119.048 166.401H116.861V161.577H117.653V163.557ZM120.173 164.97C120.173 164.676 120.068 164.478 119.858 164.376C119.654 164.268 119.366 164.214 118.994 164.214H117.653V165.762H119.012C119.348 165.762 119.624 165.702 119.84 165.582C120.062 165.462 120.173 165.258 120.173 164.97ZM126.768 161.487C127.362 161.487 127.839 161.694 128.199 162.108C128.565 162.522 128.748 163.146 128.748 163.98C128.748 164.802 128.565 165.426 128.199 165.852C127.839 166.278 127.359 166.491 126.759 166.491C126.387 166.491 126.078 166.422 125.832 166.284C125.592 166.14 125.403 165.975 125.265 165.789H125.211C125.223 165.891 125.235 166.02 125.247 166.176C125.259 166.332 125.265 166.467 125.265 166.581V168.561H124.473V161.577H125.121L125.229 162.234H125.265C125.409 162.024 125.598 161.847 125.832 161.703C126.066 161.559 126.378 161.487 126.768 161.487ZM126.624 162.153C126.132 162.153 125.784 162.291 125.58 162.567C125.382 162.843 125.277 163.263 125.265 163.827V163.98C125.265 164.574 125.361 165.033 125.553 165.357C125.751 165.675 126.114 165.834 126.642 165.834C126.936 165.834 127.176 165.753 127.362 165.591C127.554 165.429 127.695 165.21 127.785 164.934C127.881 164.652 127.929 164.331 127.929 163.971C127.929 163.419 127.821 162.978 127.605 162.648C127.395 162.318 127.068 162.153 126.624 162.153ZM131.837 161.496C132.425 161.496 132.86 161.625 133.142 161.883C133.424 162.141 133.565 162.552 133.565 163.116V166.401H132.989L132.836 165.717H132.8C132.59 165.981 132.368 166.176 132.134 166.302C131.906 166.428 131.588 166.491 131.18 166.491C130.742 166.491 130.379 166.377 130.091 166.149C129.803 165.915 129.659 165.552 129.659 165.06C129.659 164.58 129.848 164.211 130.226 163.953C130.604 163.689 131.186 163.545 131.972 163.521L132.791 163.494V163.206C132.791 162.804 132.704 162.525 132.53 162.369C132.356 162.213 132.11 162.135 131.792 162.135C131.54 162.135 131.3 162.174 131.072 162.252C130.844 162.324 130.631 162.408 130.433 162.504L130.19 161.91C130.4 161.796 130.649 161.7 130.937 161.622C131.225 161.538 131.525 161.496 131.837 161.496ZM132.782 164.043L132.071 164.07C131.471 164.094 131.054 164.19 130.82 164.358C130.592 164.526 130.478 164.763 130.478 165.069C130.478 165.339 130.559 165.537 130.721 165.663C130.889 165.789 131.102 165.852 131.36 165.852C131.768 165.852 132.107 165.741 132.377 165.519C132.647 165.291 132.782 164.943 132.782 164.475V164.043ZM137.908 161.577H138.772L136.711 163.899L138.943 166.401H138.025L135.847 163.953V166.401H135.055V161.577H135.847V163.917L137.908 161.577ZM143.836 163.98C143.836 164.778 143.632 165.396 143.224 165.834C142.822 166.272 142.276 166.491 141.586 166.491C141.16 166.491 140.779 166.395 140.443 166.203C140.113 166.005 139.852 165.72 139.66 165.348C139.468 164.97 139.372 164.514 139.372 163.98C139.372 163.182 139.573 162.567 139.975 162.135C140.377 161.703 140.923 161.487 141.613 161.487C142.051 161.487 142.435 161.586 142.765 161.784C143.101 161.976 143.362 162.258 143.548 162.63C143.74 162.996 143.836 163.446 143.836 163.98ZM140.191 163.98C140.191 164.55 140.302 165.003 140.524 165.339C140.752 165.669 141.112 165.834 141.604 165.834C142.09 165.834 142.447 165.669 142.675 165.339C142.903 165.003 143.017 164.55 143.017 163.98C143.017 163.41 142.903 162.963 142.675 162.639C142.447 162.315 142.087 162.153 141.595 162.153C141.103 162.153 140.746 162.315 140.524 162.639C140.302 162.963 140.191 163.41 140.191 163.98ZM150.267 161.577V166.401H149.556V163.323C149.556 163.197 149.559 163.065 149.565 162.927C149.577 162.789 149.589 162.654 149.601 162.522H149.574L147.999 166.401H147.333L145.803 162.522H145.776C145.794 162.792 145.803 163.068 145.803 163.35V166.401H145.092V161.577H146.145L147.666 165.456L149.214 161.577H150.267ZM158.151 161.577V166.401H157.359V162.252H154.866V166.401H154.074V161.577H158.151ZM163.884 163.98C163.884 164.778 163.68 165.396 163.272 165.834C162.87 166.272 162.324 166.491 161.634 166.491C161.208 166.491 160.827 166.395 160.491 166.203C160.161 166.005 159.9 165.72 159.708 165.348C159.516 164.97 159.42 164.514 159.42 163.98C159.42 163.182 159.621 162.567 160.023 162.135C160.425 161.703 160.971 161.487 161.661 161.487C162.099 161.487 162.483 161.586 162.813 161.784C163.149 161.976 163.41 162.258 163.596 162.63C163.788 162.996 163.884 163.446 163.884 163.98ZM160.239 163.98C160.239 164.55 160.35 165.003 160.572 165.339C160.8 165.669 161.16 165.834 161.652 165.834C162.138 165.834 162.495 165.669 162.723 165.339C162.951 165.003 163.065 164.55 163.065 163.98C163.065 163.41 162.951 162.963 162.723 162.639C162.495 162.315 162.135 162.153 161.643 162.153C161.151 162.153 160.794 162.315 160.572 162.639C160.35 162.963 160.239 163.41 160.239 163.98ZM169.216 159.975C170.056 159.975 170.668 160.14 171.052 160.47C171.436 160.8 171.628 161.265 171.628 161.865C171.628 162.219 171.547 162.552 171.385 162.864C171.229 163.17 170.962 163.419 170.584 163.611C170.212 163.803 169.705 163.899 169.063 163.899H168.325V166.401H167.515V159.975H169.216ZM169.144 160.668H168.325V163.206H168.973C169.585 163.206 170.041 163.107 170.341 162.909C170.641 162.711 170.791 162.375 170.791 161.901C170.791 161.487 170.659 161.178 170.395 160.974C170.131 160.77 169.714 160.668 169.144 160.668ZM174.719 161.487C175.133 161.487 175.487 161.577 175.781 161.757C176.081 161.937 176.309 162.192 176.465 162.522C176.627 162.846 176.708 163.227 176.708 163.665V164.142H173.405C173.417 164.688 173.555 165.105 173.819 165.393C174.089 165.675 174.464 165.816 174.944 165.816C175.25 165.816 175.52 165.789 175.754 165.735C175.994 165.675 176.24 165.591 176.492 165.483V166.176C176.246 166.284 176.003 166.362 175.763 166.41C175.523 166.464 175.238 166.491 174.908 166.491C174.452 166.491 174.047 166.398 173.693 166.212C173.345 166.026 173.072 165.75 172.874 165.384C172.682 165.012 172.586 164.559 172.586 164.025C172.586 163.497 172.673 163.044 172.847 162.666C173.027 162.288 173.276 161.997 173.594 161.793C173.918 161.589 174.293 161.487 174.719 161.487ZM174.71 162.135C174.332 162.135 174.032 162.258 173.81 162.504C173.594 162.744 173.465 163.08 173.423 163.512H175.88C175.874 163.104 175.778 162.774 175.592 162.522C175.406 162.264 175.112 162.135 174.71 162.135ZM179.871 166.491C179.445 166.491 179.064 166.404 178.728 166.23C178.398 166.056 178.137 165.786 177.945 165.42C177.759 165.054 177.666 164.586 177.666 164.016C177.666 163.422 177.765 162.939 177.963 162.567C178.161 162.195 178.428 161.922 178.764 161.748C179.106 161.574 179.493 161.487 179.925 161.487C180.171 161.487 180.408 161.514 180.636 161.568C180.864 161.616 181.05 161.676 181.194 161.748L180.951 162.405C180.807 162.351 180.639 162.3 180.447 162.252C180.255 162.204 180.075 162.18 179.907 162.18C178.959 162.18 178.485 162.789 178.485 164.007C178.485 164.589 178.599 165.036 178.827 165.348C179.061 165.654 179.406 165.807 179.862 165.807C180.126 165.807 180.357 165.78 180.555 165.726C180.759 165.672 180.945 165.606 181.113 165.528V166.23C180.951 166.314 180.771 166.377 180.573 166.419C180.381 166.467 180.147 166.491 179.871 166.491ZM186.338 161.577V166.401H185.546V162.252H183.053V166.401H182.261V161.577H186.338ZM187.121 161.577H187.967L189.011 164.322C189.101 164.562 189.182 164.793 189.254 165.015C189.326 165.231 189.38 165.438 189.416 165.636H189.452C189.488 165.486 189.545 165.291 189.623 165.051C189.701 164.805 189.782 164.559 189.866 164.313L190.847 161.577H191.702L189.623 167.067C189.455 167.523 189.236 167.886 188.966 168.156C188.702 168.426 188.336 168.561 187.868 168.561C187.724 168.561 187.598 168.552 187.49 168.534C187.382 168.522 187.289 168.507 187.211 168.489V167.859C187.277 167.871 187.355 167.883 187.445 167.895C187.541 167.907 187.64 167.913 187.742 167.913C188.018 167.913 188.24 167.835 188.408 167.679C188.582 167.523 188.717 167.316 188.813 167.058L189.065 166.419L187.121 161.577ZM192.213 163.503C192.213 162.447 192.372 161.625 192.69 161.037C193.008 160.443 193.521 160.071 194.229 159.921C194.619 159.837 195 159.762 195.372 159.696C195.744 159.63 196.092 159.57 196.416 159.516L196.551 160.209C196.341 160.239 196.104 160.278 195.84 160.326C195.576 160.368 195.315 160.413 195.057 160.461C194.799 160.503 194.577 160.545 194.391 160.587C194.001 160.671 193.692 160.875 193.464 161.199C193.236 161.517 193.107 162.015 193.077 162.693H193.131C193.215 162.579 193.329 162.462 193.473 162.342C193.623 162.222 193.8 162.12 194.004 162.036C194.214 161.952 194.451 161.91 194.715 161.91C195.339 161.91 195.81 162.111 196.128 162.513C196.446 162.915 196.605 163.437 196.605 164.079C196.605 164.613 196.512 165.06 196.326 165.42C196.14 165.78 195.882 166.05 195.552 166.23C195.222 166.404 194.838 166.491 194.4 166.491C193.734 166.491 193.203 166.236 192.807 165.726C192.411 165.216 192.213 164.475 192.213 163.503ZM194.463 165.834C194.853 165.834 195.168 165.708 195.408 165.456C195.648 165.204 195.768 164.772 195.768 164.16C195.768 163.668 195.675 163.281 195.489 162.999C195.309 162.711 195.009 162.567 194.589 162.567C194.325 162.567 194.085 162.627 193.869 162.747C193.653 162.861 193.473 162.993 193.329 163.143C193.185 163.293 193.083 163.419 193.023 163.521C193.023 163.815 193.044 164.1 193.086 164.376C193.128 164.652 193.2 164.901 193.302 165.123C193.41 165.339 193.557 165.513 193.743 165.645C193.935 165.771 194.175 165.834 194.463 165.834ZM201.524 166.401H200.723V162.234H199.301C199.223 163.248 199.115 164.067 198.977 164.691C198.839 165.309 198.656 165.759 198.428 166.041C198.2 166.323 197.912 166.464 197.564 166.464C197.486 166.464 197.408 166.458 197.33 166.446C197.258 166.44 197.198 166.425 197.15 166.401V165.807C197.186 165.819 197.225 165.828 197.267 165.834C197.309 165.84 197.351 165.843 197.393 165.843C197.717 165.843 197.975 165.498 198.167 164.808C198.365 164.118 198.515 163.041 198.617 161.577H201.524V166.401ZM203.803 161.577V164.52C203.803 164.592 203.8 164.7 203.794 164.844C203.788 164.988 203.779 165.132 203.767 165.276C203.761 165.42 203.755 165.534 203.749 165.618L206.332 161.577H207.304V166.401H206.566V163.557C206.566 163.461 206.566 163.335 206.566 163.179C206.572 163.023 206.578 162.87 206.584 162.72C206.59 162.564 206.596 162.447 206.602 162.369L204.037 166.401H203.056V161.577H203.803ZM211.692 161.577H212.556L210.495 163.899L212.727 166.401H211.809L209.631 163.953V166.401H208.839V161.577H209.631V163.917L211.692 161.577ZM215.29 161.487C215.704 161.487 216.058 161.577 216.352 161.757C216.652 161.937 216.88 162.192 217.036 162.522C217.198 162.846 217.279 163.227 217.279 163.665V164.142H213.976C213.988 164.688 214.126 165.105 214.39 165.393C214.66 165.675 215.035 165.816 215.515 165.816C215.821 165.816 216.091 165.789 216.325 165.735C216.565 165.675 216.811 165.591 217.063 165.483V166.176C216.817 166.284 216.574 166.362 216.334 166.41C216.094 166.464 215.809 166.491 215.479 166.491C215.023 166.491 214.618 166.398 214.264 166.212C213.916 166.026 213.643 165.75 213.445 165.384C213.253 165.012 213.157 164.559 213.157 164.025C213.157 163.497 213.244 163.044 213.418 162.666C213.598 162.288 213.847 161.997 214.165 161.793C214.489 161.589 214.864 161.487 215.29 161.487ZM215.281 162.135C214.903 162.135 214.603 162.258 214.381 162.504C214.165 162.744 214.036 163.08 213.994 163.512H216.451C216.445 163.104 216.349 162.774 216.163 162.522C215.977 162.264 215.683 162.135 215.281 162.135ZM223.636 160.596C222.946 160.596 222.403 160.827 222.007 161.289C221.611 161.751 221.413 162.384 221.413 163.188C221.413 163.986 221.596 164.619 221.962 165.087C222.334 165.549 222.889 165.78 223.627 165.78C223.909 165.78 224.176 165.756 224.428 165.708C224.68 165.66 224.926 165.6 225.166 165.528V166.23C224.926 166.32 224.677 166.386 224.419 166.428C224.167 166.47 223.864 166.491 223.51 166.491C222.856 166.491 222.31 166.356 221.872 166.086C221.434 165.816 221.104 165.432 220.882 164.934C220.666 164.436 220.558 163.851 220.558 163.179C220.558 162.531 220.675 161.961 220.909 161.469C221.149 160.971 221.5 160.584 221.962 160.308C222.424 160.026 222.985 159.885 223.645 159.885C224.323 159.885 224.914 160.011 225.418 160.263L225.094 160.947C224.896 160.857 224.674 160.776 224.428 160.704C224.188 160.632 223.924 160.596 223.636 160.596ZM228.288 161.496C228.876 161.496 229.311 161.625 229.593 161.883C229.875 162.141 230.016 162.552 230.016 163.116V166.401H229.44L229.287 165.717H229.251C229.041 165.981 228.819 166.176 228.585 166.302C228.357 166.428 228.039 166.491 227.631 166.491C227.193 166.491 226.83 166.377 226.542 166.149C226.254 165.915 226.11 165.552 226.11 165.06C226.11 164.58 226.299 164.211 226.677 163.953C227.055 163.689 227.637 163.545 228.423 163.521L229.242 163.494V163.206C229.242 162.804 229.155 162.525 228.981 162.369C228.807 162.213 228.561 162.135 228.243 162.135C227.991 162.135 227.751 162.174 227.523 162.252C227.295 162.324 227.082 162.408 226.884 162.504L226.641 161.91C226.851 161.796 227.1 161.7 227.388 161.622C227.676 161.538 227.976 161.496 228.288 161.496ZM229.233 164.043L228.522 164.07C227.922 164.094 227.505 164.19 227.271 164.358C227.043 164.526 226.929 164.763 226.929 165.069C226.929 165.339 227.01 165.537 227.172 165.663C227.34 165.789 227.553 165.852 227.811 165.852C228.219 165.852 228.558 165.741 228.828 165.519C229.098 165.291 229.233 164.943 229.233 164.475V164.043ZM232.649 163.935L230.984 161.577H231.884L233.126 163.395L234.359 161.577H235.25L233.585 163.935L235.34 166.401H234.44L233.126 164.475L231.794 166.401H230.903L232.649 163.935ZM238.096 161.496C238.684 161.496 239.119 161.625 239.401 161.883C239.683 162.141 239.824 162.552 239.824 163.116V166.401H239.248L239.095 165.717H239.059C238.849 165.981 238.627 166.176 238.393 166.302C238.165 166.428 237.847 166.491 237.439 166.491C237.001 166.491 236.638 166.377 236.35 166.149C236.062 165.915 235.918 165.552 235.918 165.06C235.918 164.58 236.107 164.211 236.485 163.953C236.863 163.689 237.445 163.545 238.231 163.521L239.05 163.494V163.206C239.05 162.804 238.963 162.525 238.789 162.369C238.615 162.213 238.369 162.135 238.051 162.135C237.799 162.135 237.559 162.174 237.331 162.252C237.103 162.324 236.89 162.408 236.692 162.504L236.449 161.91C236.659 161.796 236.908 161.7 237.196 161.622C237.484 161.538 237.784 161.496 238.096 161.496ZM239.041 164.043L238.33 164.07C237.73 164.094 237.313 164.19 237.079 164.358C236.851 164.526 236.737 164.763 236.737 165.069C236.737 165.339 236.818 165.537 236.98 165.663C237.148 165.789 237.361 165.852 237.619 165.852C238.027 165.852 238.366 165.741 238.636 165.519C238.906 165.291 239.041 164.943 239.041 164.475V164.043ZM50.757 187.706C50.421 187.382 50.118 187.001 49.848 186.563C49.584 186.131 49.371 185.651 49.209 185.123C49.053 184.589 48.975 184.016 48.975 183.404C48.975 182.792 49.053 182.222 49.209 181.694C49.371 181.16 49.584 180.677 49.848 180.245C50.118 179.807 50.421 179.426 50.757 179.102H51.711V179.192C51.171 179.75 50.736 180.389 50.406 181.109C50.082 181.829 49.92 182.594 49.92 183.404C49.92 184.214 50.082 184.979 50.406 185.699C50.736 186.419 51.174 187.058 51.72 187.616V187.706H50.757ZM54.8407 183.737L53.1757 186.401H52.2307L54.0307 183.593C53.8027 183.515 53.5867 183.407 53.3827 183.269C53.1847 183.131 53.0227 182.942 52.8967 182.702C52.7707 182.462 52.7077 182.153 52.7077 181.775C52.7077 181.193 52.9087 180.749 53.3107 180.443C53.7127 180.131 54.3127 179.975 55.1107 179.975H56.9107V186.401H56.1007V183.737H54.8407ZM56.1007 180.668H55.1287C54.6187 180.668 54.2257 180.758 53.9497 180.938C53.6797 181.112 53.5447 181.403 53.5447 181.811C53.5447 182.207 53.6767 182.513 53.9407 182.729C54.2047 182.945 54.6127 183.053 55.1647 183.053H56.1007V180.668ZM61.3988 181.577H62.2628L60.2018 183.899L62.4338 186.401H61.5158L59.3378 183.953V186.401H58.5458V181.577H59.3378V183.917L61.3988 181.577ZM62.5534 181.577H63.3994L64.4434 184.322C64.5334 184.562 64.6144 184.793 64.6864 185.015C64.7584 185.231 64.8124 185.438 64.8484 185.636H64.8844C64.9204 185.486 64.9774 185.291 65.0554 185.051C65.1334 184.805 65.2144 184.559 65.2984 184.313L66.2794 181.577H67.1344L65.0554 187.067C64.8874 187.523 64.6684 187.886 64.3984 188.156C64.1344 188.426 63.7684 188.561 63.3004 188.561C63.1564 188.561 63.0304 188.552 62.9224 188.534C62.8144 188.522 62.7214 188.507 62.6434 188.489V187.859C62.7094 187.871 62.7874 187.883 62.8774 187.895C62.9734 187.907 63.0724 187.913 63.1744 187.913C63.4504 187.913 63.6724 187.835 63.8404 187.679C64.0144 187.523 64.1494 187.316 64.2454 187.058L64.4974 186.419L62.5534 181.577ZM71.2273 182.243H69.6523V186.401H68.8693V182.243H67.3123V181.577H71.2273V182.243ZM72.9246 181.577V184.52C72.9246 184.592 72.9216 184.7 72.9156 184.844C72.9096 184.988 72.9006 185.132 72.8886 185.276C72.8826 185.42 72.8766 185.534 72.8706 185.618L75.4536 181.577H76.4256V186.401H75.6876V183.557C75.6876 183.461 75.6876 183.335 75.6876 183.179C75.6936 183.023 75.6996 182.87 75.7056 182.72C75.7116 182.564 75.7176 182.447 75.7236 182.369L73.1586 186.401H72.1776V181.577H72.9246ZM78.2578 186.401H77.3398L78.7168 184.376C78.5308 184.328 78.3508 184.253 78.1768 184.151C78.0028 184.043 77.8618 183.896 77.7538 183.71C77.6458 183.518 77.5918 183.281 77.5918 182.999C77.5918 182.537 77.7478 182.186 78.0598 181.946C78.3718 181.7 78.7858 181.577 79.3018 181.577H81.4618V186.401H80.6698V184.484H79.4998L78.2578 186.401ZM78.3568 183.008C78.3568 183.284 78.4588 183.491 78.6628 183.629C78.8728 183.761 79.1638 183.827 79.5358 183.827H80.6698V182.234H79.3828C79.0168 182.234 78.7528 182.306 78.5908 182.45C78.4348 182.594 78.3568 182.78 78.3568 183.008ZM83.5011 187.706C83.8371 187.382 84.1371 187.001 84.4011 186.563C84.6711 186.131 84.8841 185.651 85.0401 185.123C85.2021 184.589 85.2831 184.016 85.2831 183.404C85.2831 182.792 85.2021 182.222 85.0401 181.694C84.8841 181.16 84.6711 180.677 84.4011 180.245C84.1371 179.807 83.8371 179.426 83.5011 179.102H82.5471V179.192C83.0871 179.75 83.5191 180.389 83.8431 181.109C84.1731 181.829 84.3381 182.594 84.3381 183.404C84.3381 184.214 84.1731 184.979 83.8431 185.699C83.5191 186.419 83.0841 187.058 82.5381 187.616V187.706H83.5011ZM89.5194 181.577V183.584H92.1384V181.577H92.9304V186.401H92.1384V184.25H89.5194V186.401H88.7274V181.577H89.5194ZM96.2849 181.496C96.8729 181.496 97.3079 181.625 97.5899 181.883C97.8719 182.141 98.0129 182.552 98.0129 183.116V186.401H97.4369L97.2839 185.717H97.2479C97.0379 185.981 96.8159 186.176 96.5819 186.302C96.3539 186.428 96.0359 186.491 95.6279 186.491C95.1899 186.491 94.8269 186.377 94.5389 186.149C94.2509 185.915 94.1069 185.552 94.1069 185.06C94.1069 184.58 94.2959 184.211 94.6739 183.953C95.0519 183.689 95.6339 183.545 96.4199 183.521L97.2389 183.494V183.206C97.2389 182.804 97.1519 182.525 96.9779 182.369C96.8039 182.213 96.5579 182.135 96.2399 182.135C95.9879 182.135 95.7479 182.174 95.5199 182.252C95.2919 182.324 95.0789 182.408 94.8809 182.504L94.6379 181.91C94.8479 181.796 95.0969 181.7 95.3849 181.622C95.6729 181.538 95.9729 181.496 96.2849 181.496ZM97.2299 184.043L96.5189 184.07C95.9189 184.094 95.5019 184.19 95.2679 184.358C95.0399 184.526 94.9259 184.763 94.9259 185.069C94.9259 185.339 95.0069 185.537 95.1689 185.663C95.3369 185.789 95.5499 185.852 95.8079 185.852C96.2159 185.852 96.5549 185.741 96.8249 185.519C97.0949 185.291 97.2299 184.943 97.2299 184.475V184.043ZM102.292 186.401V181.181L101.275 181.415V180.713L102.67 180.101H103.282V186.401H102.292ZM107.082 186.509C106.512 186.509 106.02 186.374 105.606 186.104C105.198 185.828 104.883 185.447 104.661 184.961C104.445 184.469 104.337 183.899 104.337 183.251C104.337 182.603 104.445 182.036 104.661 181.55C104.883 181.058 105.198 180.677 105.606 180.407C106.02 180.131 106.512 179.993 107.082 179.993C107.652 179.993 108.141 180.131 108.549 180.407C108.957 180.677 109.269 181.058 109.485 181.55C109.707 182.036 109.818 182.603 109.818 183.251C109.818 183.899 109.707 184.469 109.485 184.961C109.269 185.447 108.957 185.828 108.549 186.104C108.141 186.374 107.652 186.509 107.082 186.509ZM107.082 185.654C107.424 185.654 107.727 185.558 107.991 185.366C108.261 185.174 108.471 184.898 108.621 184.538C108.771 184.178 108.846 183.749 108.846 183.251C108.846 182.753 108.771 182.324 108.621 181.964C108.471 181.604 108.261 181.328 107.991 181.136C107.727 180.944 107.424 180.848 107.082 180.848C106.734 180.848 106.428 180.944 106.164 181.136C105.9 181.328 105.693 181.604 105.543 181.964C105.393 182.324 105.318 182.753 105.318 183.251C105.318 183.749 105.393 184.178 105.543 184.538C105.693 184.898 105.9 185.174 106.164 185.366C106.428 185.558 106.734 185.654 107.082 185.654ZM113.402 186.509C112.832 186.509 112.34 186.374 111.926 186.104C111.518 185.828 111.203 185.447 110.981 184.961C110.765 184.469 110.657 183.899 110.657 183.251C110.657 182.603 110.765 182.036 110.981 181.55C111.203 181.058 111.518 180.677 111.926 180.407C112.34 180.131 112.832 179.993 113.402 179.993C113.972 179.993 114.461 180.131 114.869 180.407C115.277 180.677 115.589 181.058 115.805 181.55C116.027 182.036 116.138 182.603 116.138 183.251C116.138 183.899 116.027 184.469 115.805 184.961C115.589 185.447 115.277 185.828 114.869 186.104C114.461 186.374 113.972 186.509 113.402 186.509ZM113.402 185.654C113.744 185.654 114.047 185.558 114.311 185.366C114.581 185.174 114.791 184.898 114.941 184.538C115.091 184.178 115.166 183.749 115.166 183.251C115.166 182.753 115.091 182.324 114.941 181.964C114.791 181.604 114.581 181.328 114.311 181.136C114.047 180.944 113.744 180.848 113.402 180.848C113.054 180.848 112.748 180.944 112.484 181.136C112.22 181.328 112.013 181.604 111.863 181.964C111.713 182.324 111.638 182.753 111.638 183.251C111.638 183.749 111.713 184.178 111.863 184.538C112.013 184.898 112.22 185.174 112.484 185.366C112.748 185.558 113.054 185.654 113.402 185.654ZM122.925 182.243H121.35V186.401H120.567V182.243H119.01V181.577H122.925V182.243ZM123.875 186.401V181.577H124.667V183.557H125.918C126.542 183.557 127.004 183.671 127.304 183.899C127.604 184.127 127.754 184.469 127.754 184.925C127.754 185.375 127.607 185.735 127.313 186.005C127.019 186.269 126.542 186.401 125.882 186.401H123.875ZM128.555 186.401V181.577H129.347V186.401H128.555ZM124.667 185.762H125.81C126.152 185.762 126.431 185.705 126.647 185.591C126.863 185.471 126.971 185.264 126.971 184.97C126.971 184.676 126.872 184.478 126.674 184.376C126.476 184.268 126.191 184.214 125.819 184.214H124.667V185.762ZM132.815 186.491C132.389 186.491 132.008 186.404 131.672 186.23C131.342 186.056 131.081 185.786 130.889 185.42C130.703 185.054 130.61 184.586 130.61 184.016C130.61 183.422 130.709 182.939 130.907 182.567C131.105 182.195 131.372 181.922 131.708 181.748C132.05 181.574 132.437 181.487 132.869 181.487C133.115 181.487 133.352 181.514 133.58 181.568C133.808 181.616 133.994 181.676 134.138 181.748L133.895 182.405C133.751 182.351 133.583 182.3 133.391 182.252C133.199 182.204 133.019 182.18 132.851 182.18C131.903 182.18 131.429 182.789 131.429 184.007C131.429 184.589 131.543 185.036 131.771 185.348C132.005 185.654 132.35 185.807 132.806 185.807C133.07 185.807 133.301 185.78 133.499 185.726C133.703 185.672 133.889 185.606 134.057 185.528V186.23C133.895 186.314 133.715 186.377 133.517 186.419C133.325 186.467 133.091 186.491 132.815 186.491ZM135.501 186.401H134.583L135.96 184.376C135.774 184.328 135.594 184.253 135.42 184.151C135.246 184.043 135.105 183.896 134.997 183.71C134.889 183.518 134.835 183.281 134.835 182.999C134.835 182.537 134.991 182.186 135.303 181.946C135.615 181.7 136.029 181.577 136.545 181.577H138.705V186.401H137.913V184.484H136.743L135.501 186.401ZM135.6 183.008C135.6 183.284 135.702 183.491 135.906 183.629C136.116 183.761 136.407 183.827 136.779 183.827H137.913V182.234H136.626C136.26 182.234 135.996 182.306 135.834 182.45C135.678 182.594 135.6 182.78 135.6 183.008ZM140.924 181.577V183.332C140.924 183.884 141.233 184.16 141.851 184.16C142.151 184.16 142.424 184.115 142.67 184.025C142.916 183.929 143.168 183.803 143.426 183.647V181.577H144.218V186.401H143.426V184.25C143.156 184.424 142.889 184.562 142.625 184.664C142.367 184.76 142.055 184.808 141.689 184.808C141.197 184.808 140.813 184.679 140.537 184.421C140.267 184.163 140.132 183.818 140.132 183.386V181.577H140.924ZM148.81 181.577V183.584H151.429V181.577H152.221V186.401H151.429V184.25H148.81V186.401H148.018V181.577H148.81ZM155.576 181.496C156.164 181.496 156.599 181.625 156.881 181.883C157.163 182.141 157.304 182.552 157.304 183.116V186.401H156.728L156.575 185.717H156.539C156.329 185.981 156.107 186.176 155.873 186.302C155.645 186.428 155.327 186.491 154.919 186.491C154.481 186.491 154.118 186.377 153.83 186.149C153.542 185.915 153.398 185.552 153.398 185.06C153.398 184.58 153.587 184.211 153.965 183.953C154.343 183.689 154.925 183.545 155.711 183.521L156.53 183.494V183.206C156.53 182.804 156.443 182.525 156.269 182.369C156.095 182.213 155.849 182.135 155.531 182.135C155.279 182.135 155.039 182.174 154.811 182.252C154.583 182.324 154.37 182.408 154.172 182.504L153.929 181.91C154.139 181.796 154.388 181.7 154.676 181.622C154.964 181.538 155.264 181.496 155.576 181.496ZM156.521 184.043L155.81 184.07C155.21 184.094 154.793 184.19 154.559 184.358C154.331 184.526 154.217 184.763 154.217 185.069C154.217 185.339 154.298 185.537 154.46 185.663C154.628 185.789 154.841 185.852 155.099 185.852C155.507 185.852 155.846 185.741 156.116 185.519C156.386 185.291 156.521 184.943 156.521 184.475V184.043ZM160.729 186.491C160.303 186.491 159.922 186.404 159.586 186.23C159.256 186.056 158.995 185.786 158.803 185.42C158.617 185.054 158.524 184.586 158.524 184.016C158.524 183.422 158.623 182.939 158.821 182.567C159.019 182.195 159.286 181.922 159.622 181.748C159.964 181.574 160.351 181.487 160.783 181.487C161.029 181.487 161.266 181.514 161.494 181.568C161.722 181.616 161.908 181.676 162.052 181.748L161.809 182.405C161.665 182.351 161.497 182.3 161.305 182.252C161.113 182.204 160.933 182.18 160.765 182.18C159.817 182.18 159.343 182.789 159.343 184.007C159.343 184.589 159.457 185.036 159.685 185.348C159.919 185.654 160.264 185.807 160.72 185.807C160.984 185.807 161.215 185.78 161.413 185.726C161.617 185.672 161.803 185.606 161.971 185.528V186.23C161.809 186.314 161.629 186.377 161.431 186.419C161.239 186.467 161.005 186.491 160.729 186.491ZM164.981 181.487C165.395 181.487 165.749 181.577 166.043 181.757C166.343 181.937 166.571 182.192 166.727 182.522C166.889 182.846 166.97 183.227 166.97 183.665V184.142H163.667C163.679 184.688 163.817 185.105 164.081 185.393C164.351 185.675 164.726 185.816 165.206 185.816C165.512 185.816 165.782 185.789 166.016 185.735C166.256 185.675 166.502 185.591 166.754 185.483V186.176C166.508 186.284 166.265 186.362 166.025 186.41C165.785 186.464 165.5 186.491 165.17 186.491C164.714 186.491 164.309 186.398 163.955 186.212C163.607 186.026 163.334 185.75 163.136 185.384C162.944 185.012 162.848 184.559 162.848 184.025C162.848 183.497 162.935 183.044 163.109 182.666C163.289 182.288 163.538 181.997 163.856 181.793C164.18 181.589 164.555 181.487 164.981 181.487ZM164.972 182.135C164.594 182.135 164.294 182.258 164.072 182.504C163.856 182.744 163.727 183.08 163.685 183.512H166.142C166.136 183.104 166.04 182.774 165.854 182.522C165.668 182.264 165.374 182.135 164.972 182.135ZM171.87 186.401H171.069V182.234H169.647C169.569 183.248 169.461 184.067 169.323 184.691C169.185 185.309 169.002 185.759 168.774 186.041C168.546 186.323 168.258 186.464 167.91 186.464C167.832 186.464 167.754 186.458 167.676 186.446C167.604 186.44 167.544 186.425 167.496 186.401V185.807C167.532 185.819 167.571 185.828 167.613 185.834C167.655 185.84 167.697 185.843 167.739 185.843C168.063 185.843 168.321 185.498 168.513 184.808C168.711 184.118 168.861 183.041 168.963 181.577H171.87V186.401ZM175.264 181.487C175.678 181.487 176.032 181.577 176.326 181.757C176.626 181.937 176.854 182.192 177.01 182.522C177.172 182.846 177.253 183.227 177.253 183.665V184.142H173.95C173.962 184.688 174.1 185.105 174.364 185.393C174.634 185.675 175.009 185.816 175.489 185.816C175.795 185.816 176.065 185.789 176.299 185.735C176.539 185.675 176.785 185.591 177.037 185.483V186.176C176.791 186.284 176.548 186.362 176.308 186.41C176.068 186.464 175.783 186.491 175.453 186.491C174.997 186.491 174.592 186.398 174.238 186.212C173.89 186.026 173.617 185.75 173.419 185.384C173.227 185.012 173.131 184.559 173.131 184.025C173.131 183.497 173.218 183.044 173.392 182.666C173.572 182.288 173.821 181.997 174.139 181.793C174.463 181.589 174.838 181.487 175.264 181.487ZM175.255 182.135C174.877 182.135 174.577 182.258 174.355 182.504C174.139 182.744 174.01 183.08 173.968 183.512H176.425C176.419 183.104 176.323 182.774 176.137 182.522C175.951 182.264 175.657 182.135 175.255 182.135ZM179.273 181.577V183.584H181.892V181.577H182.684V186.401H181.892V184.25H179.273V186.401H178.481V181.577H179.273ZM184.959 181.577V184.52C184.959 184.592 184.956 184.7 184.95 184.844C184.944 184.988 184.935 185.132 184.923 185.276C184.917 185.42 184.911 185.534 184.905 185.618L187.488 181.577H188.46V186.401H187.722V183.557C187.722 183.461 187.722 183.335 187.722 183.179C187.728 183.023 187.734 182.87 187.74 182.72C187.746 182.564 187.752 182.447 187.758 182.369L185.193 186.401H184.212V181.577H184.959ZM190.292 186.401H189.374L190.751 184.376C190.565 184.328 190.385 184.253 190.211 184.151C190.037 184.043 189.896 183.896 189.788 183.71C189.68 183.518 189.626 183.281 189.626 182.999C189.626 182.537 189.782 182.186 190.094 181.946C190.406 181.7 190.82 181.577 191.336 181.577H193.496V186.401H192.704V184.484H191.534L190.292 186.401ZM190.391 183.008C190.391 183.284 190.493 183.491 190.697 183.629C190.907 183.761 191.198 183.827 191.57 183.827H192.704V182.234H191.417C191.051 182.234 190.787 182.306 190.625 182.45C190.469 182.594 190.391 182.78 190.391 183.008Z" fill="black"/>
<path d="M41.561 99.1177L62.561 95.6177L106.061 94.1177L124.53 90.8856C125.545 90.7081 126.526 90.3748 127.439 89.8976L144.223 81.1237C146.672 79.8438 149.541 79.6339 152.15 80.544L166.652 85.6029C168.547 86.2641 170.598 86.3395 172.537 85.8193L188.899 81.4293C189.671 81.2223 190.465 81.1085 191.263 81.0903L210.453 80.6542C211.518 80.63 212.573 80.4358 213.576 80.0789L234.561 72.6177" stroke="#EA5858" stroke-width="3"/>
<path d="M41.561 127.618L62.633 107.118L84.6628 96.6177L105.735 105.618L149.315 95.1177L169.908 75.1177L191.459 69.1177L212.531 58.6177L234.561 107.618" stroke="#EA5858" stroke-opacity="0.5" stroke-width="3"/>
<path d="M52.188 201.596C51.846 201.596 51.537 201.656 51.261 201.776C50.985 201.89 50.751 202.061 50.559 202.289C50.367 202.511 50.22 202.784 50.118 203.108C50.016 203.426 49.965 203.786 49.965 204.188C49.965 204.716 50.046 205.175 50.208 205.565C50.376 205.955 50.622 206.255 50.946 206.465C51.276 206.675 51.687 206.78 52.179 206.78C52.461 206.78 52.728 206.756 52.98 206.708C53.232 206.66 53.478 206.6 53.718 206.528V207.23C53.478 207.32 53.229 207.386 52.971 207.428C52.719 207.47 52.416 207.491 52.062 207.491C51.408 207.491 50.862 207.356 50.424 207.086C49.986 206.816 49.656 206.432 49.434 205.934C49.218 205.436 49.11 204.851 49.11 204.179C49.11 203.693 49.176 203.249 49.308 202.847C49.446 202.445 49.644 202.097 49.902 201.803C50.166 201.509 50.49 201.284 50.874 201.128C51.258 200.966 51.699 200.885 52.197 200.885C52.527 200.885 52.845 200.918 53.151 200.984C53.457 201.05 53.73 201.143 53.97 201.263L53.646 201.947C53.448 201.857 53.226 201.776 52.98 201.704C52.74 201.632 52.476 201.596 52.188 201.596ZM60.1876 202.577V207.401H59.4766V204.323C59.4766 204.197 59.4796 204.065 59.4856 203.927C59.4976 203.789 59.5096 203.654 59.5216 203.522H59.4946L57.9196 207.401H57.2536L55.7236 203.522H55.6966C55.7086 203.654 55.7146 203.789 55.7146 203.927C55.7206 204.065 55.7236 204.206 55.7236 204.35V207.401H55.0126V202.577H56.0656L57.5866 206.456L59.1346 202.577H60.1876ZM63.5904 202.487C64.0044 202.487 64.3584 202.577 64.6524 202.757C64.9524 202.937 65.1804 203.192 65.3364 203.522C65.4984 203.846 65.5794 204.227 65.5794 204.665V205.142H62.2764C62.2884 205.688 62.4264 206.105 62.6904 206.393C62.9604 206.675 63.3354 206.816 63.8154 206.816C64.1214 206.816 64.3914 206.789 64.6254 206.735C64.8654 206.675 65.1114 206.591 65.3634 206.483V207.176C65.1174 207.284 64.8744 207.362 64.6344 207.41C64.3944 207.464 64.1094 207.491 63.7794 207.491C63.3234 207.491 62.9184 207.398 62.5644 207.212C62.2164 207.026 61.9434 206.75 61.7454 206.384C61.5534 206.012 61.4574 205.559 61.4574 205.025C61.4574 204.497 61.5444 204.044 61.7184 203.666C61.8984 203.288 62.1474 202.997 62.4654 202.793C62.7894 202.589 63.1644 202.487 63.5904 202.487ZM63.5814 203.135C63.2034 203.135 62.9034 203.258 62.6814 203.504C62.4654 203.744 62.3364 204.08 62.2944 204.512H64.7514C64.7514 204.236 64.7094 203.996 64.6254 203.792C64.5414 203.588 64.4124 203.429 64.2384 203.315C64.0704 203.195 63.8514 203.135 63.5814 203.135ZM69.1025 202.487C69.6965 202.487 70.1735 202.694 70.5335 203.108C70.8995 203.522 71.0825 204.146 71.0825 204.98C71.0825 205.526 70.9985 205.988 70.8305 206.366C70.6685 206.738 70.4375 207.02 70.1375 207.212C69.8435 207.398 69.4955 207.491 69.0935 207.491C68.8475 207.491 68.6285 207.458 68.4365 207.392C68.2445 207.326 68.0795 207.242 67.9415 207.14C67.8095 207.032 67.6955 206.915 67.5995 206.789H67.5455C67.5575 206.891 67.5695 207.02 67.5815 207.176C67.5935 207.332 67.5995 207.467 67.5995 207.581V209.561H66.8075V202.577H67.4555L67.5635 203.234H67.5995C67.6955 203.096 67.8095 202.97 67.9415 202.856C68.0795 202.742 68.2415 202.652 68.4275 202.586C68.6195 202.52 68.8445 202.487 69.1025 202.487ZM68.9585 203.153C68.6345 203.153 68.3735 203.216 68.1755 203.342C67.9775 203.462 67.8335 203.645 67.7435 203.891C67.6535 204.137 67.6055 204.449 67.5995 204.827V204.98C67.5995 205.376 67.6415 205.712 67.7255 205.988C67.8095 206.264 67.9505 206.474 68.1485 206.618C68.3525 206.762 68.6285 206.834 68.9765 206.834C69.2705 206.834 69.5105 206.753 69.6965 206.591C69.8885 206.429 70.0295 206.21 70.1195 205.934C70.2155 205.652 70.2635 205.331 70.2635 204.971C70.2635 204.419 70.1555 203.978 69.9395 203.648C69.7295 203.318 69.4025 203.153 68.9585 203.153ZM75.5867 203.243H74.0117V207.401H73.2287V203.243H71.6717V202.577H75.5867V203.243ZM77.329 202.577V204.584H79.948V202.577H80.74V207.401H79.948V205.25H77.329V207.401H76.537V202.577H77.329ZM86.4614 204.98C86.4614 205.382 86.4074 205.739 86.2994 206.051C86.1974 206.357 86.0474 206.618 85.8494 206.834C85.6574 207.05 85.4204 207.215 85.1384 207.329C84.8624 207.437 84.5534 207.491 84.2114 207.491C83.8934 207.491 83.5994 207.437 83.3294 207.329C83.0594 207.215 82.8254 207.05 82.6274 206.834C82.4294 206.618 82.2734 206.357 82.1594 206.051C82.0514 205.739 81.9974 205.382 81.9974 204.98C81.9974 204.446 82.0874 203.996 82.2674 203.63C82.4474 203.258 82.7054 202.976 83.0414 202.784C83.3774 202.586 83.7764 202.487 84.2384 202.487C84.6764 202.487 85.0604 202.586 85.3904 202.784C85.7264 202.976 85.9874 203.258 86.1734 203.63C86.3654 203.996 86.4614 204.446 86.4614 204.98ZM82.8164 204.98C82.8164 205.358 82.8644 205.688 82.9604 205.97C83.0624 206.246 83.2184 206.459 83.4284 206.609C83.6384 206.759 83.9054 206.834 84.2294 206.834C84.5534 206.834 84.8204 206.759 85.0304 206.609C85.2404 206.459 85.3934 206.246 85.4894 205.97C85.5914 205.688 85.6424 205.358 85.6424 204.98C85.6424 204.596 85.5914 204.269 85.4894 203.999C85.3874 203.729 85.2314 203.522 85.0214 203.378C84.8174 203.228 84.5504 203.153 84.2204 203.153C83.7284 203.153 83.3714 203.315 83.1494 203.639C82.9274 203.963 82.8164 204.41 82.8164 204.98ZM89.6517 207.491C89.2257 207.491 88.8447 207.404 88.5087 207.23C88.1787 207.056 87.9177 206.786 87.7257 206.42C87.5397 206.054 87.4467 205.586 87.4467 205.016C87.4467 204.422 87.5457 203.939 87.7437 203.567C87.9417 203.195 88.2087 202.922 88.5447 202.748C88.8867 202.574 89.2737 202.487 89.7057 202.487C89.9517 202.487 90.1887 202.514 90.4167 202.568C90.6447 202.616 90.8307 202.676 90.9747 202.748L90.7317 203.405C90.5877 203.351 90.4197 203.3 90.2277 203.252C90.0357 203.204 89.8557 203.18 89.6877 203.18C89.3637 203.18 89.0967 203.249 88.8867 203.387C88.6767 203.525 88.5207 203.729 88.4187 203.999C88.3167 204.269 88.2657 204.605 88.2657 205.007C88.2657 205.391 88.3167 205.718 88.4187 205.988C88.5207 206.258 88.6737 206.462 88.8777 206.6C89.0817 206.738 89.3367 206.807 89.6427 206.807C89.9067 206.807 90.1377 206.78 90.3357 206.726C90.5397 206.672 90.7257 206.606 90.8937 206.528V207.23C90.7317 207.314 90.5517 207.377 90.3537 207.419C90.1617 207.467 89.9277 207.491 89.6517 207.491ZM95.3709 203.243H93.7959V207.401H93.0129V203.243H91.4559V202.577H95.3709V203.243ZM98.5442 204.557C98.9642 204.557 99.3122 204.608 99.5882 204.71C99.8642 204.812 100.071 204.965 100.209 205.169C100.353 205.367 100.425 205.619 100.425 205.925C100.425 206.225 100.356 206.486 100.218 206.708C100.086 206.93 99.8792 207.101 99.5972 207.221C99.3152 207.341 98.9522 207.401 98.5082 207.401H96.3212V202.577H97.1132V204.557H98.5442ZM99.6332 205.97C99.6332 205.676 99.5282 205.478 99.3182 205.376C99.1142 205.268 98.8262 205.214 98.4542 205.214H97.1132V206.762H98.4722C98.8082 206.762 99.0842 206.702 99.3002 206.582C99.5222 206.462 99.6332 206.258 99.6332 205.97ZM108.126 204.98C108.126 205.382 108.072 205.739 107.964 206.051C107.862 206.357 107.712 206.618 107.514 206.834C107.322 207.05 107.085 207.215 106.803 207.329C106.527 207.437 106.218 207.491 105.876 207.491C105.558 207.491 105.264 207.437 104.994 207.329C104.724 207.215 104.49 207.05 104.292 206.834C104.094 206.618 103.938 206.357 103.824 206.051C103.716 205.739 103.662 205.382 103.662 204.98C103.662 204.446 103.752 203.996 103.932 203.63C104.112 203.258 104.37 202.976 104.706 202.784C105.042 202.586 105.441 202.487 105.903 202.487C106.341 202.487 106.725 202.586 107.055 202.784C107.391 202.976 107.652 203.258 107.838 203.63C108.03 203.996 108.126 204.446 108.126 204.98ZM104.481 204.98C104.481 205.358 104.529 205.688 104.625 205.97C104.727 206.246 104.883 206.459 105.093 206.609C105.303 206.759 105.57 206.834 105.894 206.834C106.218 206.834 106.485 206.759 106.695 206.609C106.905 206.459 107.058 206.246 107.154 205.97C107.256 205.688 107.307 205.358 107.307 204.98C107.307 204.596 107.256 204.269 107.154 203.999C107.052 203.729 106.896 203.522 106.686 203.378C106.482 203.228 106.215 203.153 105.885 203.153C105.393 203.153 105.036 203.315 104.814 203.639C104.592 203.963 104.481 204.41 104.481 204.98ZM112.624 203.243H111.049V207.401H110.266V203.243H108.709V202.577H112.624V203.243ZM118.137 202.487C118.731 202.487 119.208 202.694 119.568 203.108C119.934 203.522 120.117 204.146 120.117 204.98C120.117 205.526 120.033 205.988 119.865 206.366C119.703 206.738 119.472 207.02 119.172 207.212C118.878 207.398 118.53 207.491 118.128 207.491C117.882 207.491 117.663 207.458 117.471 207.392C117.279 207.326 117.114 207.242 116.976 207.14C116.844 207.032 116.73 206.915 116.634 206.789H116.58C116.592 206.891 116.604 207.02 116.616 207.176C116.628 207.332 116.634 207.467 116.634 207.581V209.561H115.842V202.577H116.49L116.598 203.234H116.634C116.73 203.096 116.844 202.97 116.976 202.856C117.114 202.742 117.276 202.652 117.462 202.586C117.654 202.52 117.879 202.487 118.137 202.487ZM117.993 203.153C117.669 203.153 117.408 203.216 117.21 203.342C117.012 203.462 116.868 203.645 116.778 203.891C116.688 204.137 116.64 204.449 116.634 204.827V204.98C116.634 205.376 116.676 205.712 116.76 205.988C116.844 206.264 116.985 206.474 117.183 206.618C117.387 206.762 117.663 206.834 118.011 206.834C118.305 206.834 118.545 206.753 118.731 206.591C118.923 206.429 119.064 206.21 119.154 205.934C119.25 205.652 119.298 205.331 119.298 204.971C119.298 204.419 119.19 203.978 118.974 203.648C118.764 203.318 118.437 203.153 117.993 203.153ZM123.206 202.496C123.794 202.496 124.229 202.625 124.511 202.883C124.793 203.141 124.934 203.552 124.934 204.116V207.401H124.358L124.205 206.717H124.169C124.031 206.891 123.887 207.038 123.737 207.158C123.593 207.272 123.425 207.356 123.233 207.41C123.047 207.464 122.819 207.491 122.549 207.491C122.261 207.491 122 207.44 121.766 207.338C121.538 207.236 121.358 207.08 121.226 206.87C121.094 206.654 121.028 206.384 121.028 206.06C121.028 205.58 121.217 205.211 121.595 204.953C121.973 204.689 122.555 204.545 123.341 204.521L124.16 204.494V204.206C124.16 203.804 124.073 203.525 123.899 203.369C123.725 203.213 123.479 203.135 123.161 203.135C122.909 203.135 122.669 203.174 122.441 203.252C122.213 203.324 122 203.408 121.802 203.504L121.559 202.91C121.769 202.796 122.018 202.7 122.306 202.622C122.594 202.538 122.894 202.496 123.206 202.496ZM123.44 205.07C122.84 205.094 122.423 205.19 122.189 205.358C121.961 205.526 121.847 205.763 121.847 206.069C121.847 206.339 121.928 206.537 122.09 206.663C122.258 206.789 122.471 206.852 122.729 206.852C123.137 206.852 123.476 206.741 123.746 206.519C124.016 206.291 124.151 205.943 124.151 205.475V205.043L123.44 205.07ZM129.277 202.577H130.141L128.08 204.899L130.312 207.401H129.394L127.216 204.953V207.401H126.424V202.577H127.216V204.917L129.277 202.577ZM133.014 202.496C133.602 202.496 134.037 202.625 134.319 202.883C134.601 203.141 134.742 203.552 134.742 204.116V207.401H134.166L134.013 206.717H133.977C133.839 206.891 133.695 207.038 133.545 207.158C133.401 207.272 133.233 207.356 133.041 207.41C132.855 207.464 132.627 207.491 132.357 207.491C132.069 207.491 131.808 207.44 131.574 207.338C131.346 207.236 131.166 207.08 131.034 206.87C130.902 206.654 130.836 206.384 130.836 206.06C130.836 205.58 131.025 205.211 131.403 204.953C131.781 204.689 132.363 204.545 133.149 204.521L133.968 204.494V204.206C133.968 203.804 133.881 203.525 133.707 203.369C133.533 203.213 133.287 203.135 132.969 203.135C132.717 203.135 132.477 203.174 132.249 203.252C132.021 203.324 131.808 203.408 131.61 203.504L131.367 202.91C131.577 202.796 131.826 202.7 132.114 202.622C132.402 202.538 132.702 202.496 133.014 202.496ZM133.248 205.07C132.648 205.094 132.231 205.19 131.997 205.358C131.769 205.526 131.655 205.763 131.655 206.069C131.655 206.339 131.736 206.537 131.898 206.663C132.066 206.789 132.279 206.852 132.537 206.852C132.945 206.852 133.284 206.741 133.554 206.519C133.824 206.291 133.959 205.943 133.959 205.475V205.043L133.248 205.07ZM142.577 202.577V207.401H141.785V203.252H139.292V207.401H138.5V202.577H142.577ZM148.31 204.98C148.31 205.382 148.256 205.739 148.148 206.051C148.046 206.357 147.896 206.618 147.698 206.834C147.506 207.05 147.269 207.215 146.987 207.329C146.711 207.437 146.402 207.491 146.06 207.491C145.742 207.491 145.448 207.437 145.178 207.329C144.908 207.215 144.674 207.05 144.476 206.834C144.278 206.618 144.122 206.357 144.008 206.051C143.9 205.739 143.846 205.382 143.846 204.98C143.846 204.446 143.936 203.996 144.116 203.63C144.296 203.258 144.554 202.976 144.89 202.784C145.226 202.586 145.625 202.487 146.087 202.487C146.525 202.487 146.909 202.586 147.239 202.784C147.575 202.976 147.836 203.258 148.022 203.63C148.214 203.996 148.31 204.446 148.31 204.98ZM144.665 204.98C144.665 205.358 144.713 205.688 144.809 205.97C144.911 206.246 145.067 206.459 145.277 206.609C145.487 206.759 145.754 206.834 146.078 206.834C146.402 206.834 146.669 206.759 146.879 206.609C147.089 206.459 147.242 206.246 147.338 205.97C147.44 205.688 147.491 205.358 147.491 204.98C147.491 204.596 147.44 204.269 147.338 203.999C147.236 203.729 147.08 203.522 146.87 203.378C146.666 203.228 146.399 203.153 146.069 203.153C145.577 203.153 145.22 203.315 144.998 203.639C144.776 203.963 144.665 204.41 144.665 204.98ZM153.642 200.975C154.482 200.975 155.094 201.14 155.478 201.47C155.862 201.8 156.054 202.265 156.054 202.865C156.054 203.129 156.009 203.384 155.919 203.63C155.835 203.87 155.694 204.086 155.496 204.278C155.298 204.47 155.034 204.623 154.704 204.737C154.374 204.845 153.969 204.899 153.489 204.899H152.751V207.401H151.941V200.975H153.642ZM153.57 201.668H152.751V204.206H153.399C153.807 204.206 154.146 204.164 154.416 204.08C154.686 203.99 154.887 203.849 155.019 203.657C155.151 203.465 155.217 203.213 155.217 202.901C155.217 202.487 155.085 202.178 154.821 201.974C154.557 201.77 154.14 201.668 153.57 201.668ZM159.145 202.487C159.559 202.487 159.913 202.577 160.207 202.757C160.507 202.937 160.735 203.192 160.891 203.522C161.053 203.846 161.134 204.227 161.134 204.665V205.142H157.831C157.843 205.688 157.981 206.105 158.245 206.393C158.515 206.675 158.89 206.816 159.37 206.816C159.676 206.816 159.946 206.789 160.18 206.735C160.42 206.675 160.666 206.591 160.918 206.483V207.176C160.672 207.284 160.429 207.362 160.189 207.41C159.949 207.464 159.664 207.491 159.334 207.491C158.878 207.491 158.473 207.398 158.119 207.212C157.771 207.026 157.498 206.75 157.3 206.384C157.108 206.012 157.012 205.559 157.012 205.025C157.012 204.497 157.099 204.044 157.273 203.666C157.453 203.288 157.702 202.997 158.02 202.793C158.344 202.589 158.719 202.487 159.145 202.487ZM159.136 203.135C158.758 203.135 158.458 203.258 158.236 203.504C158.02 203.744 157.891 204.08 157.849 204.512H160.306C160.306 204.236 160.264 203.996 160.18 203.792C160.096 203.588 159.967 203.429 159.793 203.315C159.625 203.195 159.406 203.135 159.136 203.135ZM164.297 207.491C163.871 207.491 163.49 207.404 163.154 207.23C162.824 207.056 162.563 206.786 162.371 206.42C162.185 206.054 162.092 205.586 162.092 205.016C162.092 204.422 162.191 203.939 162.389 203.567C162.587 203.195 162.854 202.922 163.19 202.748C163.532 202.574 163.919 202.487 164.351 202.487C164.597 202.487 164.834 202.514 165.062 202.568C165.29 202.616 165.476 202.676 165.62 202.748L165.377 203.405C165.233 203.351 165.065 203.3 164.873 203.252C164.681 203.204 164.501 203.18 164.333 203.18C164.009 203.18 163.742 203.249 163.532 203.387C163.322 203.525 163.166 203.729 163.064 203.999C162.962 204.269 162.911 204.605 162.911 205.007C162.911 205.391 162.962 205.718 163.064 205.988C163.166 206.258 163.319 206.462 163.523 206.6C163.727 206.738 163.982 206.807 164.288 206.807C164.552 206.807 164.783 206.78 164.981 206.726C165.185 206.672 165.371 206.606 165.539 206.528V207.23C165.377 207.314 165.197 207.377 164.999 207.419C164.807 207.467 164.573 207.491 164.297 207.491ZM170.763 202.577V207.401H169.971V203.252H167.478V207.401H166.686V202.577H170.763ZM171.547 202.577H172.393L173.437 205.322C173.497 205.484 173.551 205.64 173.599 205.79C173.653 205.94 173.701 206.087 173.743 206.231C173.785 206.369 173.818 206.504 173.842 206.636H173.878C173.914 206.486 173.971 206.291 174.049 206.051C174.127 205.805 174.208 205.559 174.292 205.313L175.273 202.577H176.128L174.049 208.067C173.935 208.367 173.8 208.628 173.644 208.85C173.494 209.078 173.308 209.252 173.086 209.372C172.87 209.498 172.606 209.561 172.294 209.561C172.15 209.561 172.024 209.552 171.916 209.534C171.808 209.522 171.715 209.507 171.637 209.489V208.859C171.703 208.871 171.781 208.883 171.871 208.895C171.967 208.907 172.066 208.913 172.168 208.913C172.354 208.913 172.513 208.877 172.645 208.805C172.783 208.739 172.9 208.64 172.996 208.508C173.092 208.382 173.173 208.232 173.239 208.058L173.491 207.419L171.547 202.577ZM176.638 204.503C176.638 203.801 176.707 203.204 176.845 202.712C176.989 202.214 177.208 201.818 177.502 201.524C177.802 201.224 178.186 201.023 178.654 200.921C179.044 200.837 179.425 200.762 179.797 200.696C180.169 200.63 180.517 200.57 180.841 200.516L180.976 201.209C180.82 201.233 180.646 201.263 180.454 201.299C180.262 201.329 180.067 201.362 179.869 201.398C179.671 201.428 179.479 201.461 179.293 201.497C179.113 201.527 178.954 201.557 178.816 201.587C178.618 201.629 178.441 201.701 178.285 201.803C178.129 201.899 177.994 202.031 177.88 202.199C177.772 202.367 177.685 202.574 177.619 202.82C177.553 203.066 177.514 203.357 177.502 203.693H177.556C177.64 203.579 177.754 203.462 177.898 203.342C178.048 203.222 178.225 203.12 178.429 203.036C178.639 202.952 178.876 202.91 179.14 202.91C179.56 202.91 179.908 203.003 180.184 203.189C180.466 203.369 180.676 203.621 180.814 203.945C180.958 204.269 181.03 204.647 181.03 205.079C181.03 205.613 180.937 206.06 180.751 206.42C180.565 206.78 180.307 207.05 179.977 207.23C179.647 207.404 179.263 207.491 178.825 207.491C178.495 207.491 178.195 207.428 177.925 207.302C177.655 207.17 177.424 206.978 177.232 206.726C177.04 206.474 176.893 206.162 176.791 205.79C176.689 205.418 176.638 204.989 176.638 204.503ZM178.888 206.834C179.152 206.834 179.38 206.78 179.572 206.672C179.77 206.564 179.923 206.387 180.031 206.141C180.139 205.895 180.193 205.568 180.193 205.16C180.193 204.668 180.1 204.281 179.914 203.999C179.734 203.711 179.434 203.567 179.014 203.567C178.75 203.567 178.51 203.627 178.294 203.747C178.078 203.861 177.898 203.993 177.754 204.143C177.61 204.293 177.508 204.419 177.448 204.521C177.448 204.815 177.469 205.1 177.511 205.376C177.553 205.652 177.625 205.901 177.727 206.123C177.835 206.339 177.982 206.513 178.168 206.645C178.36 206.771 178.6 206.834 178.888 206.834ZM185.95 207.401H185.149V203.234H183.727C183.667 203.996 183.592 204.647 183.502 205.187C183.412 205.721 183.298 206.156 183.16 206.492C183.022 206.828 182.857 207.074 182.665 207.23C182.473 207.386 182.248 207.464 181.99 207.464C181.912 207.464 181.834 207.458 181.756 207.446C181.684 207.44 181.624 207.425 181.576 207.401V206.807C181.612 206.819 181.651 206.828 181.693 206.834C181.735 206.84 181.777 206.843 181.819 206.843C181.951 206.843 182.071 206.789 182.179 206.681C182.287 206.573 182.383 206.408 182.467 206.186C182.557 205.964 182.638 205.685 182.71 205.349C182.782 205.007 182.845 204.605 182.899 204.143C182.953 203.681 183.001 203.159 183.043 202.577H185.95V207.401ZM188.228 205.52C188.228 205.574 188.225 205.652 188.219 205.754C188.219 205.85 188.216 205.955 188.21 206.069C188.204 206.177 188.198 206.282 188.192 206.384C188.186 206.48 188.18 206.558 188.174 206.618L190.757 202.577H191.729V207.401H190.991V204.557C190.991 204.461 190.991 204.335 190.991 204.179C190.997 204.023 191.003 203.87 191.009 203.72C191.015 203.564 191.021 203.447 191.027 203.369L188.462 207.401H187.481V202.577H188.228V205.52ZM196.118 202.577H196.982L194.921 204.899L197.153 207.401H196.235L194.057 204.953V207.401H193.265V202.577H194.057V204.917L196.118 202.577ZM199.715 202.487C200.129 202.487 200.483 202.577 200.777 202.757C201.077 202.937 201.305 203.192 201.461 203.522C201.623 203.846 201.704 204.227 201.704 204.665V205.142H198.401C198.413 205.688 198.551 206.105 198.815 206.393C199.085 206.675 199.46 206.816 199.94 206.816C200.246 206.816 200.516 206.789 200.75 206.735C200.99 206.675 201.236 206.591 201.488 206.483V207.176C201.242 207.284 200.999 207.362 200.759 207.41C200.519 207.464 200.234 207.491 199.904 207.491C199.448 207.491 199.043 207.398 198.689 207.212C198.341 207.026 198.068 206.75 197.87 206.384C197.678 206.012 197.582 205.559 197.582 205.025C197.582 204.497 197.669 204.044 197.843 203.666C198.023 203.288 198.272 202.997 198.59 202.793C198.914 202.589 199.289 202.487 199.715 202.487ZM199.706 203.135C199.328 203.135 199.028 203.258 198.806 203.504C198.59 203.744 198.461 204.08 198.419 204.512H200.876C200.876 204.236 200.834 203.996 200.75 203.792C200.666 203.588 200.537 203.429 200.363 203.315C200.195 203.195 199.976 203.135 199.706 203.135ZM208.062 201.596C207.72 201.596 207.411 201.656 207.135 201.776C206.859 201.89 206.625 202.061 206.433 202.289C206.241 202.511 206.094 202.784 205.992 203.108C205.89 203.426 205.839 203.786 205.839 204.188C205.839 204.716 205.92 205.175 206.082 205.565C206.25 205.955 206.496 206.255 206.82 206.465C207.15 206.675 207.561 206.78 208.053 206.78C208.335 206.78 208.602 206.756 208.854 206.708C209.106 206.66 209.352 206.6 209.592 206.528V207.23C209.352 207.32 209.103 207.386 208.845 207.428C208.593 207.47 208.29 207.491 207.936 207.491C207.282 207.491 206.736 207.356 206.298 207.086C205.86 206.816 205.53 206.432 205.308 205.934C205.092 205.436 204.984 204.851 204.984 204.179C204.984 203.693 205.05 203.249 205.182 202.847C205.32 202.445 205.518 202.097 205.776 201.803C206.04 201.509 206.364 201.284 206.748 201.128C207.132 200.966 207.573 200.885 208.071 200.885C208.401 200.885 208.719 200.918 209.025 200.984C209.331 201.05 209.604 201.143 209.844 201.263L209.52 201.947C209.322 201.857 209.1 201.776 208.854 201.704C208.614 201.632 208.35 201.596 208.062 201.596ZM212.714 202.496C213.302 202.496 213.737 202.625 214.019 202.883C214.301 203.141 214.442 203.552 214.442 204.116V207.401H213.866L213.713 206.717H213.677C213.539 206.891 213.395 207.038 213.245 207.158C213.101 207.272 212.933 207.356 212.741 207.41C212.555 207.464 212.327 207.491 212.057 207.491C211.769 207.491 211.508 207.44 211.274 207.338C211.046 207.236 210.866 207.08 210.734 206.87C210.602 206.654 210.536 206.384 210.536 206.06C210.536 205.58 210.725 205.211 211.103 204.953C211.481 204.689 212.063 204.545 212.849 204.521L213.668 204.494V204.206C213.668 203.804 213.581 203.525 213.407 203.369C213.233 203.213 212.987 203.135 212.669 203.135C212.417 203.135 212.177 203.174 211.949 203.252C211.721 203.324 211.508 203.408 211.31 203.504L211.067 202.91C211.277 202.796 211.526 202.7 211.814 202.622C212.102 202.538 212.402 202.496 212.714 202.496ZM212.948 205.07C212.348 205.094 211.931 205.19 211.697 205.358C211.469 205.526 211.355 205.763 211.355 206.069C211.355 206.339 211.436 206.537 211.598 206.663C211.766 206.789 211.979 206.852 212.237 206.852C212.645 206.852 212.984 206.741 213.254 206.519C213.524 206.291 213.659 205.943 213.659 205.475V205.043L212.948 205.07ZM217.075 204.935L215.41 202.577H216.31L217.552 204.395L218.785 202.577H219.676L218.011 204.935L219.766 207.401H218.866L217.552 205.475L216.22 207.401H215.329L217.075 204.935ZM222.522 202.496C223.11 202.496 223.545 202.625 223.827 202.883C224.109 203.141 224.25 203.552 224.25 204.116V207.401H223.674L223.521 206.717H223.485C223.347 206.891 223.203 207.038 223.053 207.158C222.909 207.272 222.741 207.356 222.549 207.41C222.363 207.464 222.135 207.491 221.865 207.491C221.577 207.491 221.316 207.44 221.082 207.338C220.854 207.236 220.674 207.08 220.542 206.87C220.41 206.654 220.344 206.384 220.344 206.06C220.344 205.58 220.533 205.211 220.911 204.953C221.289 204.689 221.871 204.545 222.657 204.521L223.476 204.494V204.206C223.476 203.804 223.389 203.525 223.215 203.369C223.041 203.213 222.795 203.135 222.477 203.135C222.225 203.135 221.985 203.174 221.757 203.252C221.529 203.324 221.316 203.408 221.118 203.504L220.875 202.91C221.085 202.796 221.334 202.7 221.622 202.622C221.91 202.538 222.21 202.496 222.522 202.496ZM222.756 205.07C222.156 205.094 221.739 205.19 221.505 205.358C221.277 205.526 221.163 205.763 221.163 206.069C221.163 206.339 221.244 206.537 221.406 206.663C221.574 206.789 221.787 206.852 222.045 206.852C222.453 206.852 222.792 206.741 223.062 206.519C223.332 206.291 223.467 205.943 223.467 205.475V205.043L222.756 205.07ZM229.439 208.706C229.103 208.382 228.8 208.001 228.53 207.563C228.266 207.131 228.053 206.651 227.891 206.123C227.735 205.589 227.657 205.016 227.657 204.404C227.657 203.792 227.735 203.222 227.891 202.694C228.053 202.16 228.266 201.677 228.53 201.245C228.8 200.807 229.103 200.426 229.439 200.102H230.393V200.192C229.853 200.75 229.418 201.389 229.088 202.109C228.764 202.829 228.602 203.594 228.602 204.404C228.602 205.214 228.764 205.979 229.088 206.699C229.418 207.419 229.856 208.058 230.402 208.616V208.706H229.439ZM233.522 204.737L231.857 207.401H230.912L232.712 204.593C232.484 204.515 232.268 204.407 232.064 204.269C231.866 204.131 231.704 203.942 231.578 203.702C231.452 203.462 231.389 203.153 231.389 202.775C231.389 202.193 231.59 201.749 231.992 201.443C232.394 201.131 232.994 200.975 233.792 200.975H235.592V207.401H234.782V204.737H233.522ZM233.81 201.668C233.468 201.668 233.18 201.707 232.946 201.785C232.712 201.863 232.532 201.986 232.406 202.154C232.286 202.322 232.226 202.541 232.226 202.811C232.226 203.207 232.358 203.513 232.622 203.729C232.886 203.945 233.294 204.053 233.846 204.053H234.782V201.668H233.81ZM240.08 202.577H240.944L238.883 204.899L241.115 207.401H240.197L238.019 204.953V207.401H237.227V202.577H238.019V204.917L240.08 202.577ZM241.235 202.577H242.081L243.125 205.322C243.185 205.484 243.239 205.64 243.287 205.79C243.341 205.94 243.389 206.087 243.431 206.231C243.473 206.369 243.506 206.504 243.53 206.636H243.566C243.602 206.486 243.659 206.291 243.737 206.051C243.815 205.805 243.896 205.559 243.98 205.313L244.961 202.577H245.816L243.737 208.067C243.623 208.367 243.488 208.628 243.332 208.85C243.182 209.078 242.996 209.252 242.774 209.372C242.558 209.498 242.294 209.561 241.982 209.561C241.838 209.561 241.712 209.552 241.604 209.534C241.496 209.522 241.403 209.507 241.325 209.489V208.859C241.391 208.871 241.469 208.883 241.559 208.895C241.655 208.907 241.754 208.913 241.856 208.913C242.042 208.913 242.201 208.877 242.333 208.805C242.471 208.739 242.588 208.64 242.684 208.508C242.78 208.382 242.861 208.232 242.927 208.058L243.179 207.419L241.235 202.577ZM249.909 203.243H248.334V207.401H247.551V203.243H245.994V202.577H249.909V203.243ZM251.606 205.52C251.606 205.574 251.603 205.652 251.597 205.754C251.597 205.85 251.594 205.955 251.588 206.069C251.582 206.177 251.576 206.282 251.57 206.384C251.564 206.48 251.558 206.558 251.552 206.618L254.135 202.577H255.107V207.401H254.369V204.557C254.369 204.461 254.369 204.335 254.369 204.179C254.375 204.023 254.381 203.87 254.387 203.72C254.393 203.564 254.399 203.447 254.405 203.369L251.84 207.401H250.859V202.577H251.606V205.52ZM256.939 207.401H256.021L257.398 205.376C257.212 205.328 257.032 205.253 256.858 205.151C256.684 205.043 256.543 204.896 256.435 204.71C256.327 204.518 256.273 204.281 256.273 203.999C256.273 203.537 256.429 203.186 256.741 202.946C257.053 202.7 257.467 202.577 257.983 202.577H260.143V207.401H259.351V205.484H258.181L256.939 207.401ZM257.038 204.008C257.038 204.284 257.14 204.491 257.344 204.629C257.554 204.761 257.845 204.827 258.217 204.827H259.351V203.234H258.064C257.698 203.234 257.434 203.306 257.272 203.45C257.116 203.594 257.038 203.78 257.038 204.008ZM261.22 208.706V208.616C261.76 208.058 262.195 207.419 262.525 206.699C262.855 205.979 263.02 205.214 263.02 204.404C263.02 203.594 262.855 202.829 262.525 202.109C262.201 201.389 261.769 200.75 261.229 200.192V200.102H262.183C262.513 200.426 262.813 200.807 263.083 201.245C263.353 201.677 263.566 202.16 263.722 202.694C263.884 203.222 263.965 203.792 263.965 204.404C263.965 205.016 263.884 205.589 263.722 206.123C263.566 206.651 263.353 207.131 263.083 207.563C262.813 208.001 262.513 208.382 262.183 208.706H261.22ZM50.118 222.577V224.584H52.737V222.577H53.529V227.401H52.737V225.25H50.118V227.401H49.326V222.577H50.118ZM56.8835 222.496C57.4715 222.496 57.9065 222.625 58.1885 222.883C58.4705 223.141 58.6115 223.552 58.6115 224.116V227.401H58.0355L57.8825 226.717H57.8465C57.7085 226.891 57.5645 227.038 57.4145 227.158C57.2705 227.272 57.1025 227.356 56.9105 227.41C56.7245 227.464 56.4965 227.491 56.2265 227.491C55.9385 227.491 55.6775 227.44 55.4435 227.338C55.2155 227.236 55.0355 227.08 54.9035 226.87C54.7715 226.654 54.7055 226.384 54.7055 226.06C54.7055 225.58 54.8945 225.211 55.2725 224.953C55.6505 224.689 56.2325 224.545 57.0185 224.521L57.8375 224.494V224.206C57.8375 223.804 57.7505 223.525 57.5765 223.369C57.4025 223.213 57.1565 223.135 56.8385 223.135C56.5865 223.135 56.3465 223.174 56.1185 223.252C55.8905 223.324 55.6775 223.408 55.4795 223.504L55.2365 222.91C55.4465 222.796 55.6955 222.7 55.9835 222.622C56.2715 222.538 56.5715 222.496 56.8835 222.496ZM57.1175 225.07C56.5175 225.094 56.1005 225.19 55.8665 225.358C55.6385 225.526 55.5245 225.763 55.5245 226.069C55.5245 226.339 55.6055 226.537 55.7675 226.663C55.9355 226.789 56.1485 226.852 56.4065 226.852C56.8145 226.852 57.1535 226.741 57.4235 226.519C57.6935 226.291 57.8285 225.943 57.8285 225.475V225.043L57.1175 225.07ZM62.891 227.401V222.181L61.874 222.415V221.713L63.269 221.101H63.881V227.401H62.891ZM67.681 227.509C67.111 227.509 66.619 227.374 66.205 227.104C65.797 226.828 65.482 226.447 65.26 225.961C65.044 225.469 64.936 224.899 64.936 224.251C64.936 223.603 65.044 223.036 65.26 222.55C65.482 222.058 65.797 221.677 66.205 221.407C66.619 221.131 67.111 220.993 67.681 220.993C68.251 220.993 68.74 221.131 69.148 221.407C69.556 221.677 69.868 222.058 70.084 222.55C70.306 223.036 70.417 223.603 70.417 224.251C70.417 224.899 70.306 225.469 70.084 225.961C69.868 226.447 69.556 226.828 69.148 227.104C68.74 227.374 68.251 227.509 67.681 227.509ZM67.681 226.654C68.023 226.654 68.326 226.558 68.59 226.366C68.86 226.174 69.07 225.898 69.22 225.538C69.37 225.178 69.445 224.749 69.445 224.251C69.445 223.753 69.37 223.324 69.22 222.964C69.07 222.604 68.86 222.328 68.59 222.136C68.326 221.944 68.023 221.848 67.681 221.848C67.333 221.848 67.027 221.944 66.763 222.136C66.499 222.328 66.292 222.604 66.142 222.964C65.992 223.324 65.917 223.753 65.917 224.251C65.917 224.749 65.992 225.178 66.142 225.538C66.292 225.898 66.499 226.174 66.763 226.366C67.027 226.558 67.333 226.654 67.681 226.654ZM74.0003 227.509C73.4303 227.509 72.9383 227.374 72.5243 227.104C72.1163 226.828 71.8013 226.447 71.5793 225.961C71.3633 225.469 71.2553 224.899 71.2553 224.251C71.2553 223.603 71.3633 223.036 71.5793 222.55C71.8013 222.058 72.1163 221.677 72.5243 221.407C72.9383 221.131 73.4303 220.993 74.0003 220.993C74.5703 220.993 75.0593 221.131 75.4673 221.407C75.8753 221.677 76.1873 222.058 76.4033 222.55C76.6253 223.036 76.7363 223.603 76.7363 224.251C76.7363 224.899 76.6253 225.469 76.4033 225.961C76.1873 226.447 75.8753 226.828 75.4673 227.104C75.0593 227.374 74.5703 227.509 74.0003 227.509ZM74.0003 226.654C74.3423 226.654 74.6453 226.558 74.9093 226.366C75.1793 226.174 75.3893 225.898 75.5393 225.538C75.6893 225.178 75.7643 224.749 75.7643 224.251C75.7643 223.753 75.6893 223.324 75.5393 222.964C75.3893 222.604 75.1793 222.328 74.9093 222.136C74.6453 221.944 74.3423 221.848 74.0003 221.848C73.6523 221.848 73.3463 221.944 73.0823 222.136C72.8183 222.328 72.6113 222.604 72.4613 222.964C72.3113 223.324 72.2363 223.753 72.2363 224.251C72.2363 224.749 72.3113 225.178 72.4613 225.538C72.6113 225.898 72.8183 226.174 73.0823 226.366C73.3463 226.558 73.6523 226.654 74.0003 226.654ZM83.5232 223.243H81.9482V227.401H81.1652V223.243H79.6082V222.577H83.5232V223.243ZM84.4735 227.401V222.577H85.2655V224.557H86.5165C86.9365 224.557 87.2815 224.608 87.5515 224.71C87.8215 224.812 88.0225 224.965 88.1545 225.169C88.2865 225.367 88.3525 225.619 88.3525 225.925C88.3525 226.225 88.2865 226.486 88.1545 226.708C88.0285 226.93 87.8275 227.101 87.5515 227.221C87.2815 227.341 86.9245 227.401 86.4805 227.401H84.4735ZM86.4085 226.762C86.7505 226.762 87.0295 226.705 87.2455 226.591C87.4615 226.471 87.5695 226.264 87.5695 225.97C87.5695 225.676 87.4705 225.478 87.2725 225.376C87.0745 225.268 86.7895 225.214 86.4175 225.214H85.2655V226.762H86.4085ZM89.1535 227.401V222.577H89.9455V227.401H89.1535ZM93.4134 227.491C92.9874 227.491 92.6064 227.404 92.2704 227.23C91.9404 227.056 91.6794 226.786 91.4874 226.42C91.3014 226.054 91.2084 225.586 91.2084 225.016C91.2084 224.422 91.3074 223.939 91.5054 223.567C91.7034 223.195 91.9704 222.922 92.3064 222.748C92.6484 222.574 93.0354 222.487 93.4674 222.487C93.7134 222.487 93.9504 222.514 94.1784 222.568C94.4064 222.616 94.5924 222.676 94.7364 222.748L94.4934 223.405C94.3494 223.351 94.1814 223.3 93.9894 223.252C93.7974 223.204 93.6174 223.18 93.4494 223.18C93.1254 223.18 92.8584 223.249 92.6484 223.387C92.4384 223.525 92.2824 223.729 92.1804 223.999C92.0784 224.269 92.0274 224.605 92.0274 225.007C92.0274 225.391 92.0784 225.718 92.1804 225.988C92.2824 226.258 92.4354 226.462 92.6394 226.6C92.8434 226.738 93.0984 226.807 93.4044 226.807C93.6684 226.807 93.8994 226.78 94.0974 226.726C94.3014 226.672 94.4874 226.606 94.6554 226.528V227.23C94.4934 227.314 94.3134 227.377 94.1154 227.419C93.9234 227.467 93.6894 227.491 93.4134 227.491ZM96.0996 227.401H95.1816L96.5586 225.376C96.3726 225.328 96.1926 225.253 96.0186 225.151C95.8446 225.043 95.7036 224.896 95.5956 224.71C95.4876 224.518 95.4336 224.281 95.4336 223.999C95.4336 223.537 95.5896 223.186 95.9016 222.946C96.2136 222.7 96.6276 222.577 97.1436 222.577H99.3036V227.401H98.5116V225.484H97.3416L96.0996 227.401ZM96.1986 224.008C96.1986 224.284 96.3006 224.491 96.5046 224.629C96.7146 224.761 97.0056 224.827 97.3776 224.827H98.5116V223.234H97.2246C96.8586 223.234 96.5946 223.306 96.4326 223.45C96.2766 223.594 96.1986 223.78 96.1986 224.008ZM101.523 224.332C101.523 224.614 101.601 224.824 101.757 224.962C101.919 225.094 102.15 225.16 102.45 225.16C102.75 225.16 103.023 225.115 103.269 225.025C103.515 224.929 103.767 224.803 104.025 224.647V222.577H104.817V227.401H104.025V225.25C103.755 225.424 103.488 225.562 103.224 225.664C102.966 225.76 102.654 225.808 102.288 225.808C101.796 225.808 101.412 225.679 101.136 225.421C100.866 225.163 100.731 224.818 100.731 224.386V222.577H101.523V224.332ZM109.409 222.577V224.584H112.028V222.577H112.82V227.401H112.028V225.25H109.409V227.401H108.617V222.577H109.409ZM116.175 222.496C116.763 222.496 117.198 222.625 117.48 222.883C117.762 223.141 117.903 223.552 117.903 224.116V227.401H117.327L117.174 226.717H117.138C117 226.891 116.856 227.038 116.706 227.158C116.562 227.272 116.394 227.356 116.202 227.41C116.016 227.464 115.788 227.491 115.518 227.491C115.23 227.491 114.969 227.44 114.735 227.338C114.507 227.236 114.327 227.08 114.195 226.87C114.063 226.654 113.997 226.384 113.997 226.06C113.997 225.58 114.186 225.211 114.564 224.953C114.942 224.689 115.524 224.545 116.31 224.521L117.129 224.494V224.206C117.129 223.804 117.042 223.525 116.868 223.369C116.694 223.213 116.448 223.135 116.13 223.135C115.878 223.135 115.638 223.174 115.41 223.252C115.182 223.324 114.969 223.408 114.771 223.504L114.528 222.91C114.738 222.796 114.987 222.7 115.275 222.622C115.563 222.538 115.863 222.496 116.175 222.496ZM116.409 225.07C115.809 225.094 115.392 225.19 115.158 225.358C114.93 225.526 114.816 225.763 114.816 226.069C114.816 226.339 114.897 226.537 115.059 226.663C115.227 226.789 115.44 226.852 115.698 226.852C116.106 226.852 116.445 226.741 116.715 226.519C116.985 226.291 117.12 225.943 117.12 225.475V225.043L116.409 225.07ZM121.327 227.491C120.901 227.491 120.52 227.404 120.184 227.23C119.854 227.056 119.593 226.786 119.401 226.42C119.215 226.054 119.122 225.586 119.122 225.016C119.122 224.422 119.221 223.939 119.419 223.567C119.617 223.195 119.884 222.922 120.22 222.748C120.562 222.574 120.949 222.487 121.381 222.487C121.627 222.487 121.864 222.514 122.092 222.568C122.32 222.616 122.506 222.676 122.65 222.748L122.407 223.405C122.263 223.351 122.095 223.3 121.903 223.252C121.711 223.204 121.531 223.18 121.363 223.18C121.039 223.18 120.772 223.249 120.562 223.387C120.352 223.525 120.196 223.729 120.094 223.999C119.992 224.269 119.941 224.605 119.941 225.007C119.941 225.391 119.992 225.718 120.094 225.988C120.196 226.258 120.349 226.462 120.553 226.6C120.757 226.738 121.012 226.807 121.318 226.807C121.582 226.807 121.813 226.78 122.011 226.726C122.215 226.672 122.401 226.606 122.569 226.528V227.23C122.407 227.314 122.227 227.377 122.029 227.419C121.837 227.467 121.603 227.491 121.327 227.491ZM125.58 222.487C125.994 222.487 126.348 222.577 126.642 222.757C126.942 222.937 127.17 223.192 127.326 223.522C127.488 223.846 127.569 224.227 127.569 224.665V225.142H124.266C124.278 225.688 124.416 226.105 124.68 226.393C124.95 226.675 125.325 226.816 125.805 226.816C126.111 226.816 126.381 226.789 126.615 226.735C126.855 226.675 127.101 226.591 127.353 226.483V227.176C127.107 227.284 126.864 227.362 126.624 227.41C126.384 227.464 126.099 227.491 125.769 227.491C125.313 227.491 124.908 227.398 124.554 227.212C124.206 227.026 123.933 226.75 123.735 226.384C123.543 226.012 123.447 225.559 123.447 225.025C123.447 224.497 123.534 224.044 123.708 223.666C123.888 223.288 124.137 222.997 124.455 222.793C124.779 222.589 125.154 222.487 125.58 222.487ZM125.571 223.135C125.193 223.135 124.893 223.258 124.671 223.504C124.455 223.744 124.326 224.08 124.284 224.512H126.741C126.741 224.236 126.699 223.996 126.615 223.792C126.531 223.588 126.402 223.429 126.228 223.315C126.06 223.195 125.841 223.135 125.571 223.135ZM132.469 227.401H131.668V223.234H130.246C130.186 223.996 130.111 224.647 130.021 225.187C129.931 225.721 129.817 226.156 129.679 226.492C129.541 226.828 129.376 227.074 129.184 227.23C128.992 227.386 128.767 227.464 128.509 227.464C128.431 227.464 128.353 227.458 128.275 227.446C128.203 227.44 128.143 227.425 128.095 227.401V226.807C128.131 226.819 128.17 226.828 128.212 226.834C128.254 226.84 128.296 226.843 128.338 226.843C128.47 226.843 128.59 226.789 128.698 226.681C128.806 226.573 128.902 226.408 128.986 226.186C129.076 225.964 129.157 225.685 129.229 225.349C129.301 225.007 129.364 224.605 129.418 224.143C129.472 223.681 129.52 223.159 129.562 222.577H132.469V227.401ZM135.863 222.487C136.277 222.487 136.631 222.577 136.925 222.757C137.225 222.937 137.453 223.192 137.609 223.522C137.771 223.846 137.852 224.227 137.852 224.665V225.142H134.549C134.561 225.688 134.699 226.105 134.963 226.393C135.233 226.675 135.608 226.816 136.088 226.816C136.394 226.816 136.664 226.789 136.898 226.735C137.138 226.675 137.384 226.591 137.636 226.483V227.176C137.39 227.284 137.147 227.362 136.907 227.41C136.667 227.464 136.382 227.491 136.052 227.491C135.596 227.491 135.191 227.398 134.837 227.212C134.489 227.026 134.216 226.75 134.018 226.384C133.826 226.012 133.73 225.559 133.73 225.025C133.73 224.497 133.817 224.044 133.991 223.666C134.171 223.288 134.42 222.997 134.738 222.793C135.062 222.589 135.437 222.487 135.863 222.487ZM135.854 223.135C135.476 223.135 135.176 223.258 134.954 223.504C134.738 223.744 134.609 224.08 134.567 224.512H137.024C137.024 224.236 136.982 223.996 136.898 223.792C136.814 223.588 136.685 223.429 136.511 223.315C136.343 223.195 136.124 223.135 135.854 223.135ZM139.872 222.577V224.584H142.491V222.577H143.283V227.401H142.491V225.25H139.872V227.401H139.08V222.577H139.872ZM145.557 225.52C145.557 225.574 145.554 225.652 145.548 225.754C145.548 225.85 145.545 225.955 145.539 226.069C145.533 226.177 145.527 226.282 145.521 226.384C145.515 226.48 145.509 226.558 145.503 226.618L148.086 222.577H149.058V227.401H148.32V224.557C148.32 224.461 148.32 224.335 148.32 224.179C148.326 224.023 148.332 223.87 148.338 223.72C148.344 223.564 148.35 223.447 148.356 223.369L145.791 227.401H144.81V222.577H145.557V225.52ZM150.891 227.401H149.973L151.35 225.376C151.164 225.328 150.984 225.253 150.81 225.151C150.636 225.043 150.495 224.896 150.387 224.71C150.279 224.518 150.225 224.281 150.225 223.999C150.225 223.537 150.381 223.186 150.693 222.946C151.005 222.7 151.419 222.577 151.935 222.577H154.095V227.401H153.303V225.484H152.133L150.891 227.401ZM150.99 224.008C150.99 224.284 151.092 224.491 151.296 224.629C151.506 224.761 151.797 224.827 152.169 224.827H153.303V223.234H152.016C151.65 223.234 151.386 223.306 151.224 223.45C151.068 223.594 150.99 223.78 150.99 224.008Z" fill="black"/>
<circle cx="25.561" cy="165.401" r="7" fill="#EA5858"/>
<circle cx="25.561" cy="207.401" r="7" fill="#F4ABAB"/>
</svg>
