<svg width="430" height="530" viewBox="0 0 430 530" fill="none" xmlns="http://www.w3.org/2000/svg">
<g filter="url(#filter0_dd_1397_673)">
<path d="M74.561 46.1177C74.561 37.2811 81.7245 30.1177 90.561 30.1177H355.561V395.118C355.561 403.954 348.398 411.118 339.561 411.118H74.561V46.1177Z" fill="white"/>
<path d="M188.891 207.502C187.355 207.502 185.968 207.235 184.731 206.702C183.494 206.147 182.502 205.368 181.755 204.366C181.03 203.363 180.667 202.2 180.667 200.878C180.667 199.512 181.019 198.318 181.723 197.294C182.448 196.27 183.398 195.534 184.571 195.086C183.547 194.638 182.736 193.998 182.139 193.166C181.542 192.312 181.243 191.363 181.243 190.318C181.243 189.251 181.531 188.27 182.107 187.374C182.683 186.456 183.536 185.72 184.667 185.166C185.819 184.611 187.227 184.334 188.891 184.334C190.555 184.334 191.952 184.611 193.083 185.166C194.214 185.72 195.067 186.456 195.643 187.374C196.219 188.27 196.507 189.251 196.507 190.318C196.507 191.342 196.198 192.291 195.579 193.166C194.982 194.019 194.182 194.659 193.179 195.086C194.374 195.534 195.323 196.27 196.027 197.294C196.731 198.318 197.083 199.512 197.083 200.878C197.083 202.2 196.72 203.363 195.995 204.366C195.27 205.368 194.278 206.147 193.019 206.702C191.782 207.235 190.406 207.502 188.891 207.502ZM188.891 193.87C190 193.87 190.875 193.582 191.515 193.006C192.155 192.43 192.475 191.694 192.475 190.798C192.475 189.816 192.155 189.048 191.515 188.494C190.896 187.939 190.022 187.662 188.891 187.662C187.739 187.662 186.854 187.939 186.235 188.494C185.616 189.048 185.307 189.816 185.307 190.798C185.307 191.715 185.616 192.462 186.235 193.038C186.875 193.592 187.76 193.87 188.891 193.87ZM188.891 204.078C190.256 204.078 191.291 203.747 191.995 203.086C192.699 202.403 193.051 201.55 193.051 200.526C193.051 199.395 192.678 198.51 191.931 197.87C191.206 197.23 190.192 196.91 188.891 196.91C187.59 196.91 186.555 197.23 185.787 197.87C185.04 198.51 184.667 199.395 184.667 200.526C184.667 201.55 185.019 202.403 185.723 203.086C186.448 203.747 187.504 204.078 188.891 204.078ZM210.296 207.502C208.227 207.502 206.456 207.022 204.984 206.062C203.512 205.08 202.371 203.726 201.56 201.998C200.771 200.248 200.376 198.222 200.376 195.918C200.376 193.635 200.771 191.619 201.56 189.87C202.371 188.12 203.512 186.766 204.984 185.806C206.456 184.824 208.227 184.334 210.296 184.334C212.365 184.334 214.136 184.824 215.608 185.806C217.08 186.766 218.211 188.12 219 189.87C219.811 191.619 220.216 193.635 220.216 195.918C220.216 198.222 219.811 200.248 219 201.998C218.211 203.726 217.08 205.08 215.608 206.062C214.136 207.022 212.365 207.502 210.296 207.502ZM210.296 203.822C211.981 203.822 213.357 203.118 214.424 201.71C215.491 200.302 216.024 198.371 216.024 195.918C216.024 193.464 215.491 191.534 214.424 190.126C213.357 188.718 211.981 188.014 210.296 188.014C208.589 188.014 207.203 188.718 206.136 190.126C205.091 191.534 204.568 193.464 204.568 195.918C204.568 198.371 205.091 200.302 206.136 201.71C207.203 203.118 208.589 203.822 210.296 203.822ZM228.439 195.726C227.415 195.726 226.487 195.502 225.655 195.054C224.823 194.584 224.161 193.923 223.671 193.07C223.18 192.216 222.935 191.203 222.935 190.03C222.935 188.856 223.18 187.843 223.671 186.99C224.161 186.136 224.823 185.486 225.655 185.038C226.487 184.568 227.425 184.334 228.471 184.334C229.495 184.334 230.412 184.568 231.223 185.038C232.055 185.486 232.716 186.136 233.207 186.99C233.697 187.843 233.943 188.856 233.943 190.03C233.943 191.203 233.697 192.216 233.207 193.07C232.716 193.923 232.055 194.584 231.223 195.054C230.391 195.502 229.463 195.726 228.439 195.726ZM227.223 207.118L239.863 184.718H243.863L231.223 207.118H227.223ZM228.439 192.878C229.057 192.878 229.591 192.643 230.039 192.174C230.487 191.683 230.711 190.968 230.711 190.03C230.711 189.091 230.487 188.376 230.039 187.886C229.612 187.395 229.079 187.15 228.439 187.15C227.799 187.15 227.255 187.395 226.807 187.886C226.38 188.376 226.167 189.091 226.167 190.03C226.167 190.968 226.38 191.683 226.807 192.174C227.255 192.643 227.799 192.878 228.439 192.878ZM242.775 207.502C241.751 207.502 240.823 207.278 239.991 206.83C239.159 206.36 238.497 205.699 238.007 204.846C237.516 203.992 237.271 202.979 237.271 201.806C237.271 200.632 237.516 199.63 238.007 198.798C238.497 197.944 239.159 197.294 239.991 196.846C240.823 196.376 241.761 196.142 242.807 196.142C243.831 196.142 244.748 196.376 245.559 196.846C246.391 197.294 247.052 197.944 247.543 198.798C248.033 199.63 248.279 200.632 248.279 201.806C248.279 202.979 248.033 203.992 247.543 204.846C247.052 205.699 246.391 206.36 245.559 206.83C244.748 207.278 243.82 207.502 242.775 207.502ZM242.775 204.654C243.415 204.654 243.948 204.419 244.375 203.95C244.823 203.459 245.047 202.744 245.047 201.806C245.047 200.867 244.823 200.152 244.375 199.662C243.948 199.171 243.415 198.926 242.775 198.926C242.135 198.926 241.591 199.171 241.143 199.662C240.716 200.152 240.503 200.867 240.503 201.806C240.503 202.744 240.716 203.459 241.143 203.95C241.591 204.419 242.135 204.654 242.775 204.654Z" fill="#1B1642"/>
<path d="M135.217 56.0877C134.143 56.0877 133.299 56.447 132.683 57.1657C132.067 57.8843 131.759 58.869 131.759 60.1197C131.759 61.361 132.043 62.3457 132.613 63.0737C133.191 63.7923 134.055 64.1517 135.203 64.1517C135.641 64.1517 136.057 64.1143 136.449 64.0397C136.841 63.965 137.223 63.8717 137.597 63.7597V64.8517C137.223 64.9917 136.836 65.0943 136.435 65.1597C136.043 65.225 135.571 65.2577 135.021 65.2577C134.003 65.2577 133.154 65.0477 132.473 64.6277C131.791 64.2077 131.278 63.6103 130.933 62.8357C130.597 62.061 130.429 61.151 130.429 60.1057C130.429 59.0977 130.611 58.211 130.975 57.4457C131.348 56.671 131.894 56.069 132.613 55.6397C133.331 55.201 134.204 54.9817 135.231 54.9817C136.285 54.9817 137.205 55.1777 137.989 55.5697L137.485 56.6337C137.177 56.4937 136.831 56.3677 136.449 56.2557C136.075 56.1437 135.665 56.0877 135.217 56.0877ZM144.048 57.6137H145.392L142.186 61.2257L145.658 65.1177H144.23L140.842 61.3097V65.1177H139.61V57.6137H140.842V61.2537L144.048 57.6137ZM150.591 57.4737C151.515 57.4737 152.257 57.7957 152.817 58.4397C153.386 59.0837 153.671 60.0543 153.671 61.3517C153.671 62.6303 153.386 63.601 152.817 64.2637C152.257 64.9263 151.51 65.2577 150.577 65.2577C149.998 65.2577 149.517 65.1503 149.135 64.9357C148.761 64.7117 148.467 64.455 148.253 64.1657H148.169C148.187 64.3243 148.206 64.525 148.225 64.7677C148.243 65.0103 148.253 65.2203 148.253 65.3977V68.4777H147.021V57.6137H148.029L148.197 58.6357H148.253C148.477 58.309 148.771 58.0337 149.135 57.8097C149.499 57.5857 149.984 57.4737 150.591 57.4737ZM150.367 58.5097C149.601 58.5097 149.06 58.7243 148.743 59.1537C148.435 59.583 148.271 60.2363 148.253 61.1137V61.3517C148.253 62.2757 148.402 62.9897 148.701 63.4937C149.009 63.9883 149.573 64.2357 150.395 64.2357C150.852 64.2357 151.225 64.1097 151.515 63.8577C151.813 63.6057 152.033 63.265 152.173 62.8357C152.322 62.397 152.397 61.8977 152.397 61.3377C152.397 60.479 152.229 59.793 151.893 59.2797C151.566 58.7663 151.057 58.5097 150.367 58.5097ZM156.796 57.6137V62.1917C156.796 62.3037 156.791 62.4717 156.782 62.6957C156.773 62.9197 156.759 63.1437 156.74 63.3677C156.731 63.5917 156.721 63.769 156.712 63.8997L160.73 57.6137H162.242V65.1177H161.094V60.6937C161.094 60.5443 161.094 60.3483 161.094 60.1057C161.103 59.863 161.113 59.625 161.122 59.3917C161.131 59.149 161.141 58.967 161.15 58.8457L157.16 65.1177H155.634V57.6137H156.796ZM165.862 57.6137V60.7357H169.936V57.6137H171.168V65.1177H169.936V61.7717H165.862V65.1177H164.63V57.6137H165.862ZM174.706 57.6137V62.1917C174.706 62.3037 174.701 62.4717 174.692 62.6957C174.683 62.9197 174.669 63.1437 174.65 63.3677C174.641 63.5917 174.631 63.769 174.622 63.8997L178.64 57.6137H180.152V65.1177H179.004V60.6937C179.004 60.5443 179.004 60.3483 179.004 60.1057C179.013 59.863 179.023 59.625 179.032 59.3917C179.041 59.149 179.051 58.967 179.06 58.8457L175.07 65.1177H173.544V57.6137H174.706ZM183.772 57.6137V60.7357H187.846V57.6137H189.078V65.1177H187.846V61.7717H183.772V65.1177H182.54V57.6137H183.772ZM196.032 57.6137V58.6497H192.686V65.1177H191.454V57.6137H196.032ZM204.048 65.2577C203.385 65.2577 202.793 65.1223 202.27 64.8517C201.757 64.581 201.351 64.161 201.052 63.5917C200.763 63.0223 200.618 62.2943 200.618 61.4077C200.618 60.4837 200.772 59.7323 201.08 59.1537C201.388 58.575 201.803 58.1503 202.326 57.8797C202.858 57.609 203.46 57.4737 204.132 57.4737C204.515 57.4737 204.883 57.5157 205.238 57.5997C205.593 57.6743 205.882 57.7677 206.106 57.8797L205.728 58.9017C205.504 58.8177 205.243 58.7383 204.944 58.6637C204.645 58.589 204.365 58.5517 204.104 58.5517C202.629 58.5517 201.892 59.499 201.892 61.3937C201.892 62.299 202.069 62.9943 202.424 63.4797C202.788 63.9557 203.325 64.1937 204.034 64.1937C204.445 64.1937 204.804 64.1517 205.112 64.0677C205.429 63.9837 205.719 63.881 205.98 63.7597V64.8517C205.728 64.9823 205.448 65.0803 205.14 65.1457C204.841 65.2203 204.477 65.2577 204.048 65.2577ZM214.107 57.6137V65.1177H212.875V58.6637H208.997V65.1177H207.765V57.6137H214.107ZM219.343 57.4877C220.258 57.4877 220.934 57.6883 221.373 58.0897C221.812 58.491 222.031 59.1303 222.031 60.0077V65.1177H221.135L220.897 64.0537H220.841C220.514 64.4643 220.169 64.7677 219.805 64.9637C219.45 65.1597 218.956 65.2577 218.321 65.2577C217.64 65.2577 217.075 65.0803 216.627 64.7257C216.179 64.3617 215.955 63.797 215.955 63.0317C215.955 62.285 216.249 61.711 216.837 61.3097C217.425 60.899 218.33 60.675 219.553 60.6377L220.827 60.5957V60.1477C220.827 59.5223 220.692 59.0883 220.421 58.8457C220.15 58.603 219.768 58.4817 219.273 58.4817C218.881 58.4817 218.508 58.5423 218.153 58.6637C217.798 58.7757 217.467 58.9063 217.159 59.0557L216.781 58.1317C217.108 57.9543 217.495 57.805 217.943 57.6837C218.391 57.553 218.858 57.4877 219.343 57.4877ZM220.813 61.4497L219.707 61.4917C218.774 61.529 218.125 61.6783 217.761 61.9397C217.406 62.201 217.229 62.5697 217.229 63.0457C217.229 63.4657 217.355 63.7737 217.607 63.9697C217.868 64.1657 218.2 64.2637 218.601 64.2637C219.236 64.2637 219.763 64.091 220.183 63.7457C220.603 63.391 220.813 62.8497 220.813 62.1217V61.4497ZM227.359 65.2577C226.696 65.2577 226.103 65.1223 225.581 64.8517C225.067 64.581 224.661 64.161 224.363 63.5917C224.073 63.0223 223.929 62.2943 223.929 61.4077C223.929 60.4837 224.083 59.7323 224.391 59.1537C224.699 58.575 225.114 58.1503 225.637 57.8797C226.169 57.609 226.771 57.4737 227.443 57.4737C227.825 57.4737 228.194 57.5157 228.549 57.5997C228.903 57.6743 229.193 57.7677 229.417 57.8797L229.039 58.9017C228.815 58.8177 228.553 58.7383 228.255 58.6637C227.956 58.589 227.676 58.5517 227.415 58.5517C225.94 58.5517 225.203 59.499 225.203 61.3937C225.203 62.299 225.38 62.9943 225.735 63.4797C226.099 63.9557 226.635 64.1937 227.345 64.1937C227.755 64.1937 228.115 64.1517 228.423 64.0677C228.74 63.9837 229.029 63.881 229.291 63.7597V64.8517C229.039 64.9823 228.759 65.0803 228.451 65.1457C228.152 65.2203 227.788 65.2577 227.359 65.2577ZM233.917 57.4877C234.832 57.4877 235.509 57.6883 235.947 58.0897C236.386 58.491 236.605 59.1303 236.605 60.0077V65.1177H235.709L235.471 64.0537H235.415C235.089 64.4643 234.743 64.7677 234.379 64.9637C234.025 65.1597 233.53 65.2577 232.895 65.2577C232.214 65.2577 231.649 65.0803 231.201 64.7257C230.753 64.3617 230.529 63.797 230.529 63.0317C230.529 62.285 230.823 61.711 231.411 61.3097C231.999 60.899 232.905 60.675 234.127 60.6377L235.401 60.5957V60.1477C235.401 59.5223 235.266 59.0883 234.995 58.8457C234.725 58.603 234.342 58.4817 233.847 58.4817C233.455 58.4817 233.082 58.5423 232.727 58.6637C232.373 58.7757 232.041 58.9063 231.733 59.0557L231.355 58.1317C231.682 57.9543 232.069 57.805 232.517 57.6837C232.965 57.553 233.432 57.4877 233.917 57.4877ZM235.387 61.4497L234.281 61.4917C233.348 61.529 232.699 61.6783 232.335 61.9397C231.981 62.201 231.803 62.5697 231.803 63.0457C231.803 63.4657 231.929 63.7737 232.181 63.9697C232.443 64.1657 232.774 64.2637 233.175 64.2637C233.81 64.2637 234.337 64.091 234.757 63.7457C235.177 63.391 235.387 62.8497 235.387 62.1217V61.4497ZM241.821 57.4737C242.465 57.4737 243.016 57.6137 243.473 57.8937C243.94 58.1737 244.294 58.5703 244.537 59.0837C244.789 59.5877 244.915 60.1803 244.915 60.8617V61.6037H239.777C239.796 62.453 240.01 63.1017 240.421 63.5497C240.841 63.9883 241.424 64.2077 242.171 64.2077C242.647 64.2077 243.067 64.1657 243.431 64.0817C243.804 63.9883 244.187 63.8577 244.579 63.6897V64.7677C244.196 64.9357 243.818 65.057 243.445 65.1317C243.072 65.2157 242.628 65.2577 242.115 65.2577C241.406 65.2577 240.776 65.113 240.225 64.8237C239.684 64.5343 239.259 64.105 238.951 63.5357C238.652 62.957 238.503 62.2523 238.503 61.4217C238.503 60.6003 238.638 59.8957 238.909 59.3077C239.189 58.7197 239.576 58.267 240.071 57.9497C240.575 57.6323 241.158 57.4737 241.821 57.4737ZM241.807 58.4817C241.219 58.4817 240.752 58.673 240.407 59.0557C240.071 59.429 239.87 59.9517 239.805 60.6237H243.627C243.618 59.989 243.468 59.4757 243.179 59.0837C242.89 58.6823 242.432 58.4817 241.807 58.4817ZM252.005 58.6497H249.555V65.1177H248.337V58.6497H245.915V57.6137H252.005V58.6497ZM266.013 57.6137L262.919 61.2537L266.279 65.1177H264.879L261.631 61.3097V65.1177H260.483V61.3097L257.235 65.1177H255.835L259.195 61.2537L256.101 57.6137H257.445L260.483 61.2537V57.6137H261.631V61.2537L264.683 57.6137H266.013ZM268.673 57.6137V62.1917C268.673 62.3037 268.668 62.4717 268.659 62.6957C268.649 62.9197 268.635 63.1437 268.617 63.3677C268.607 63.5917 268.598 63.769 268.589 63.8997L272.607 57.6137H274.119V65.1177H272.971V60.6937C272.971 60.5443 272.971 60.3483 272.971 60.1057C272.98 59.863 272.989 59.625 272.999 59.3917C273.008 59.149 273.017 58.967 273.027 58.8457L269.037 65.1177H267.511V57.6137H268.673ZM278.481 57.4737C279.34 57.4737 280.021 57.6463 280.525 57.9917C281.038 58.3277 281.295 58.813 281.295 59.4477C281.295 59.905 281.169 60.269 280.917 60.5397C280.665 60.801 280.32 60.9923 279.881 61.1137V61.1697C280.18 61.2537 280.455 61.3703 280.707 61.5197C280.959 61.669 281.16 61.865 281.309 62.1077C281.468 62.3503 281.547 62.663 281.547 63.0457C281.547 63.671 281.286 64.1983 280.763 64.6277C280.25 65.0477 279.442 65.2577 278.341 65.2577C277.8 65.2577 277.31 65.211 276.871 65.1177C276.432 65.0337 276.068 64.917 275.779 64.7677V63.6617C276.096 63.811 276.47 63.9463 276.899 64.0677C277.338 64.189 277.814 64.2497 278.327 64.2497C278.887 64.2497 279.358 64.1563 279.741 63.9697C280.133 63.7737 280.329 63.4423 280.329 62.9757C280.329 62.1357 279.615 61.7157 278.187 61.7157H277.179V60.7077H277.991C278.635 60.7077 279.148 60.6237 279.531 60.4557C279.923 60.2783 280.119 59.9797 280.119 59.5597C280.119 59.205 279.97 58.939 279.671 58.7617C279.382 58.5843 278.962 58.4957 278.411 58.4957C278 58.4957 277.636 58.5377 277.319 58.6217C277.011 58.6963 276.67 58.813 276.297 58.9717L275.863 57.9917C276.647 57.6463 277.52 57.4737 278.481 57.4737ZM284.602 57.6137V60.7357H288.676V57.6137H289.908V65.1177H288.676V61.7717H284.602V65.1177H283.37V57.6137H284.602ZM293.446 57.6137V62.1917C293.446 62.3037 293.442 62.4717 293.432 62.6957C293.423 62.9197 293.409 63.1437 293.39 63.3677C293.381 63.5917 293.372 63.769 293.362 63.8997L297.38 57.6137H298.892V65.1177H297.744V60.6937C297.744 60.5443 297.744 60.3483 297.744 60.1057C297.754 59.863 297.763 59.625 297.772 59.3917C297.782 59.149 297.791 58.967 297.8 58.8457L293.81 65.1177H292.284V57.6137H293.446ZM301.616 65.2017C301.336 65.2017 301.103 65.113 300.916 64.9357C300.739 64.749 300.65 64.5297 300.65 64.2777C300.65 64.0163 300.739 63.797 300.916 63.6197C301.103 63.433 301.336 63.3397 301.616 63.3397C301.896 63.3397 302.125 63.433 302.302 63.6197C302.48 63.797 302.568 64.0163 302.568 64.2777C302.568 64.5297 302.48 64.749 302.302 64.9357C302.125 65.113 301.896 65.2017 301.616 65.2017ZM301.616 59.8677C301.336 59.8677 301.103 59.779 300.916 59.6017C300.739 59.415 300.65 59.1957 300.65 58.9437C300.65 58.6823 300.739 58.463 300.916 58.2857C301.103 58.099 301.336 58.0057 301.616 58.0057C301.896 58.0057 302.125 58.099 302.302 58.2857C302.48 58.463 302.568 58.6823 302.568 58.9437C302.568 59.1957 302.48 59.415 302.302 59.6017C302.125 59.779 301.896 59.8677 301.616 59.8677Z" fill="#1B1642"/>
<path d="M192.725 220.088C191.651 220.088 190.807 220.447 190.191 221.166C189.575 221.884 189.267 222.869 189.267 224.12C189.267 225.361 189.551 226.346 190.121 227.074C190.699 227.792 191.563 228.152 192.711 228.152C193.149 228.152 193.565 228.114 193.957 228.04C194.349 227.965 194.731 227.872 195.105 227.76V228.852C194.731 228.992 194.344 229.094 193.943 229.16C193.551 229.225 193.079 229.258 192.529 229.258C191.511 229.258 190.662 229.048 189.981 228.628C189.299 228.208 188.786 227.61 188.441 226.836C188.105 226.061 187.937 225.151 187.937 224.106C187.937 223.098 188.119 222.211 188.483 221.446C188.856 220.671 189.402 220.069 190.121 219.64C190.839 219.201 191.712 218.982 192.739 218.982C193.793 218.982 194.713 219.178 195.497 219.57L194.993 220.634C194.685 220.494 194.339 220.368 193.957 220.256C193.583 220.144 193.173 220.088 192.725 220.088ZM202.83 229.118H201.584V222.636H199.372C199.251 224.213 199.083 225.487 198.868 226.458C198.654 227.419 198.369 228.119 198.014 228.558C197.66 228.996 197.212 229.216 196.67 229.216C196.549 229.216 196.428 229.206 196.306 229.188C196.194 229.178 196.101 229.155 196.026 229.118V228.194C196.082 228.212 196.143 228.226 196.208 228.236C196.274 228.245 196.339 228.25 196.404 228.25C196.908 228.25 197.31 227.713 197.608 226.64C197.916 225.566 198.15 223.891 198.308 221.614H202.83V229.118ZM204.036 221.614H205.352L206.976 225.884C207.116 226.257 207.242 226.616 207.354 226.962C207.466 227.298 207.55 227.62 207.606 227.928H207.662C207.718 227.694 207.807 227.391 207.928 227.018C208.049 226.635 208.175 226.252 208.306 225.87L209.832 221.614H211.162L207.928 230.154C207.667 230.863 207.326 231.428 206.906 231.848C206.495 232.268 205.926 232.478 205.198 232.478C204.974 232.478 204.778 232.464 204.61 232.436C204.442 232.417 204.297 232.394 204.176 232.366V231.386C204.279 231.404 204.4 231.423 204.54 231.442C204.689 231.46 204.843 231.47 205.002 231.47C205.431 231.47 205.777 231.348 206.038 231.106C206.309 230.863 206.519 230.541 206.668 230.14L207.06 229.146L204.036 221.614ZM213.427 221.614V224.344C213.427 225.202 213.907 225.632 214.869 225.632C215.335 225.632 215.76 225.562 216.143 225.422C216.525 225.272 216.917 225.076 217.319 224.834V221.614H218.551V229.118H217.319V225.772C216.899 226.042 216.483 226.257 216.073 226.416C215.671 226.565 215.186 226.64 214.617 226.64C213.851 226.64 213.254 226.439 212.825 226.038C212.405 225.636 212.195 225.1 212.195 224.428V221.614H213.427ZM223.777 221.488C224.691 221.488 225.368 221.688 225.807 222.09C226.245 222.491 226.465 223.13 226.465 224.008V229.118H225.569L225.331 228.054H225.275C224.948 228.464 224.603 228.768 224.239 228.964C223.884 229.16 223.389 229.258 222.755 229.258C222.073 229.258 221.509 229.08 221.061 228.726C220.613 228.362 220.389 227.797 220.389 227.032C220.389 226.285 220.683 225.711 221.271 225.31C221.859 224.899 222.764 224.675 223.987 224.638L225.261 224.596V224.148C225.261 223.522 225.125 223.088 224.855 222.846C224.584 222.603 224.201 222.482 223.707 222.482C223.315 222.482 222.941 222.542 222.587 222.664C222.232 222.776 221.901 222.906 221.593 223.056L221.215 222.132C221.541 221.954 221.929 221.805 222.377 221.684C222.825 221.553 223.291 221.488 223.777 221.488ZM225.247 225.45L224.141 225.492C223.207 225.529 222.559 225.678 222.195 225.94C221.84 226.201 221.663 226.57 221.663 227.046C221.663 227.466 221.789 227.774 222.041 227.97C222.302 228.166 222.633 228.264 223.035 228.264C223.669 228.264 224.197 228.091 224.617 227.746C225.037 227.391 225.247 226.85 225.247 226.122V225.45ZM231.68 221.474C232.324 221.474 232.875 221.614 233.332 221.894C233.799 222.174 234.154 222.57 234.396 223.084C234.648 223.588 234.774 224.18 234.774 224.862V225.604H229.636C229.655 226.453 229.87 227.102 230.28 227.55C230.7 227.988 231.284 228.208 232.03 228.208C232.506 228.208 232.926 228.166 233.29 228.082C233.664 227.988 234.046 227.858 234.438 227.69V228.768C234.056 228.936 233.678 229.057 233.304 229.132C232.931 229.216 232.488 229.258 231.974 229.258C231.265 229.258 230.635 229.113 230.084 228.824C229.543 228.534 229.118 228.105 228.81 227.536C228.512 226.957 228.362 226.252 228.362 225.422C228.362 224.6 228.498 223.896 228.768 223.308C229.048 222.72 229.436 222.267 229.93 221.95C230.434 221.632 231.018 221.474 231.68 221.474ZM231.666 222.482C231.078 222.482 230.612 222.673 230.266 223.056C229.93 223.429 229.73 223.952 229.664 224.624H233.486C233.477 223.989 233.328 223.476 233.038 223.084C232.749 222.682 232.292 222.482 231.666 222.482ZM242.719 223.504C242.719 223.97 242.579 224.334 242.299 224.596C242.019 224.857 241.659 225.034 241.221 225.128V225.184C241.687 225.249 242.093 225.417 242.439 225.688C242.784 225.949 242.957 226.36 242.957 226.92C242.957 227.554 242.719 228.082 242.243 228.502C241.776 228.912 241.001 229.118 239.919 229.118H236.685V221.614H239.905C240.437 221.614 240.913 221.674 241.333 221.796C241.762 221.908 242.098 222.104 242.341 222.384C242.593 222.654 242.719 223.028 242.719 223.504ZM241.473 223.658C241.473 223.303 241.342 223.046 241.081 222.888C240.829 222.72 240.413 222.636 239.835 222.636H237.917V224.694H239.611C240.852 224.694 241.473 224.348 241.473 223.658ZM241.683 226.92C241.683 226.49 241.519 226.182 241.193 225.996C240.866 225.809 240.385 225.716 239.751 225.716H237.917V228.124H239.779C240.395 228.124 240.866 228.035 241.193 227.858C241.519 227.671 241.683 227.358 241.683 226.92Z" fill="#8D9AAE"/>
<path d="M110.8 334.733C109.803 334.733 109.019 335.066 108.447 335.734C107.875 336.401 107.589 337.315 107.589 338.477C107.589 339.629 107.853 340.544 108.382 341.22C108.919 341.887 109.721 342.221 110.787 342.221C111.194 342.221 111.58 342.186 111.944 342.117C112.308 342.047 112.663 341.961 113.01 341.857V342.871C112.663 343.001 112.304 343.096 111.931 343.157C111.567 343.217 111.129 343.248 110.618 343.248C109.673 343.248 108.885 343.053 108.252 342.663C107.619 342.273 107.143 341.718 106.822 340.999C106.51 340.279 106.354 339.434 106.354 338.464C106.354 337.528 106.523 336.704 106.861 335.994C107.208 335.274 107.715 334.715 108.382 334.317C109.049 333.909 109.86 333.706 110.813 333.706C111.792 333.706 112.646 333.888 113.374 334.252L112.906 335.24C112.62 335.11 112.299 334.993 111.944 334.889C111.597 334.785 111.216 334.733 110.8 334.733ZM119.001 336.15H120.249L117.272 339.504L120.496 343.118H119.17L116.024 339.582V343.118H114.88V336.15H116.024V339.53L119.001 336.15ZM125.076 336.02C125.934 336.02 126.623 336.319 127.143 336.917C127.671 337.515 127.936 338.416 127.936 339.621C127.936 340.808 127.671 341.709 127.143 342.325C126.623 342.94 125.929 343.248 125.063 343.248C124.525 343.248 124.079 343.148 123.724 342.949C123.377 342.741 123.104 342.502 122.905 342.234H122.827C122.844 342.381 122.861 342.567 122.879 342.793C122.896 343.018 122.905 343.213 122.905 343.378V346.238H121.761V336.15H122.697L122.853 337.099H122.905C123.113 336.795 123.386 336.54 123.724 336.332C124.062 336.124 124.512 336.02 125.076 336.02ZM124.868 336.982C124.157 336.982 123.654 337.181 123.36 337.58C123.074 337.978 122.922 338.585 122.905 339.4V339.621C122.905 340.479 123.043 341.142 123.321 341.61C123.607 342.069 124.131 342.299 124.894 342.299C125.318 342.299 125.665 342.182 125.934 341.948C126.211 341.714 126.415 341.397 126.545 340.999C126.683 340.591 126.753 340.128 126.753 339.608C126.753 338.81 126.597 338.173 126.285 337.697C125.981 337.22 125.509 336.982 124.868 336.982ZM130.838 336.15V340.401C130.838 340.505 130.833 340.661 130.825 340.869C130.816 341.077 130.803 341.285 130.786 341.493C130.777 341.701 130.768 341.865 130.76 341.987L134.491 336.15H135.895V343.118H134.829V339.01C134.829 338.871 134.829 338.689 134.829 338.464C134.837 338.238 134.846 338.017 134.855 337.801C134.863 337.575 134.872 337.406 134.881 337.294L131.176 343.118H129.759V336.15H130.838ZM139.256 336.15V339.049H143.039V336.15H144.183V343.118H143.039V340.011H139.256V343.118H138.112V336.15H139.256ZM147.469 336.15V340.401C147.469 340.505 147.464 340.661 147.456 340.869C147.447 341.077 147.434 341.285 147.417 341.493C147.408 341.701 147.399 341.865 147.391 341.987L151.122 336.15H152.526V343.118H151.46V339.01C151.46 338.871 151.46 338.689 151.46 338.464C151.468 338.238 151.477 338.017 151.486 337.801C151.494 337.575 151.503 337.406 151.512 337.294L147.807 343.118H146.39V336.15H147.469ZM155.887 336.15V339.049H159.67V336.15H160.814V343.118H159.67V340.011H155.887V343.118H154.743V336.15H155.887ZM167.272 336.15V337.112H164.165V343.118H163.021V336.15H167.272ZM175.4 336.02C176.258 336.02 176.947 336.319 177.467 336.917C177.996 337.515 178.26 338.416 178.26 339.621C178.26 340.808 177.996 341.709 177.467 342.325C176.947 342.94 176.254 343.248 175.387 343.248C174.85 343.248 174.403 343.148 174.048 342.949C173.701 342.741 173.428 342.502 173.229 342.234H173.151C173.168 342.381 173.186 342.567 173.203 342.793C173.22 343.018 173.229 343.213 173.229 343.378V346.238H172.085V336.15H173.021L173.177 337.099H173.229C173.437 336.795 173.71 336.54 174.048 336.332C174.386 336.124 174.837 336.02 175.4 336.02ZM175.192 336.982C174.481 336.982 173.979 337.181 173.684 337.58C173.398 337.978 173.246 338.585 173.229 339.4V339.621C173.229 340.479 173.368 341.142 173.645 341.61C173.931 342.069 174.455 342.299 175.218 342.299C175.643 342.299 175.989 342.182 176.258 341.948C176.535 341.714 176.739 341.397 176.869 340.999C177.008 340.591 177.077 340.128 177.077 339.608C177.077 338.81 176.921 338.173 176.609 337.697C176.306 337.22 175.833 336.982 175.192 336.982ZM182.722 336.033C183.571 336.033 184.2 336.219 184.607 336.592C185.014 336.964 185.218 337.558 185.218 338.373V343.118H184.386L184.165 342.13H184.113C183.81 342.511 183.489 342.793 183.151 342.975C182.822 343.157 182.362 343.248 181.773 343.248C181.14 343.248 180.616 343.083 180.2 342.754C179.784 342.416 179.576 341.891 179.576 341.181C179.576 340.487 179.849 339.954 180.395 339.582C180.941 339.2 181.782 338.992 182.917 338.958L184.1 338.919V338.503C184.1 337.922 183.974 337.519 183.723 337.294C183.472 337.068 183.116 336.956 182.657 336.956C182.293 336.956 181.946 337.012 181.617 337.125C181.288 337.229 180.98 337.35 180.694 337.489L180.343 336.631C180.646 336.466 181.006 336.327 181.422 336.215C181.838 336.093 182.271 336.033 182.722 336.033ZM184.087 339.712L183.06 339.751C182.193 339.785 181.591 339.924 181.253 340.167C180.924 340.409 180.759 340.752 180.759 341.194C180.759 341.584 180.876 341.87 181.11 342.052C181.353 342.234 181.66 342.325 182.033 342.325C182.622 342.325 183.112 342.164 183.502 341.844C183.892 341.514 184.087 341.012 184.087 340.336V339.712ZM191.491 336.15H192.739L189.762 339.504L192.986 343.118H191.66L188.514 339.582V343.118H187.37V336.15H188.514V339.53L191.491 336.15ZM196.89 336.033C197.739 336.033 198.368 336.219 198.775 336.592C199.182 336.964 199.386 337.558 199.386 338.373V343.118H198.554L198.333 342.13H198.281C197.978 342.511 197.657 342.793 197.319 342.975C196.99 343.157 196.53 343.248 195.941 343.248C195.308 343.248 194.784 343.083 194.368 342.754C193.952 342.416 193.744 341.891 193.744 341.181C193.744 340.487 194.017 339.954 194.563 339.582C195.109 339.2 195.95 338.992 197.085 338.958L198.268 338.919V338.503C198.268 337.922 198.142 337.519 197.891 337.294C197.64 337.068 197.284 336.956 196.825 336.956C196.461 336.956 196.114 337.012 195.785 337.125C195.456 337.229 195.148 337.35 194.862 337.489L194.511 336.631C194.814 336.466 195.174 336.327 195.59 336.215C196.006 336.093 196.439 336.033 196.89 336.033ZM198.255 339.712L197.228 339.751C196.361 339.785 195.759 339.924 195.421 340.167C195.092 340.409 194.927 340.752 194.927 341.194C194.927 341.584 195.044 341.87 195.278 342.052C195.521 342.234 195.828 342.325 196.201 342.325C196.79 342.325 197.28 342.164 197.67 341.844C198.06 341.514 198.255 341.012 198.255 340.336V339.712ZM214.43 336.15V343.118H204.979V336.15H206.123V342.156H209.126V336.15H210.27V342.156H213.286V336.15H214.43ZM219.349 336.02C219.947 336.02 220.459 336.15 220.883 336.41C221.317 336.67 221.646 337.038 221.871 337.515C222.105 337.983 222.222 338.533 222.222 339.166V339.855H217.451C217.469 340.643 217.668 341.246 218.049 341.662C218.439 342.069 218.981 342.273 219.674 342.273C220.116 342.273 220.506 342.234 220.844 342.156C221.191 342.069 221.546 341.948 221.91 341.792V342.793C221.555 342.949 221.204 343.061 220.857 343.131C220.511 343.209 220.099 343.248 219.622 343.248C218.964 343.248 218.379 343.113 217.867 342.845C217.365 342.576 216.97 342.177 216.684 341.649C216.407 341.111 216.268 340.457 216.268 339.686C216.268 338.923 216.394 338.269 216.645 337.723C216.905 337.177 217.265 336.756 217.724 336.462C218.192 336.167 218.734 336.02 219.349 336.02ZM219.336 336.956C218.79 336.956 218.357 337.133 218.036 337.489C217.724 337.835 217.538 338.321 217.477 338.945H221.026C221.018 338.355 220.879 337.879 220.61 337.515C220.342 337.142 219.917 336.956 219.336 336.956ZM225.075 336.15V340.401C225.075 340.505 225.071 340.661 225.062 340.869C225.053 341.077 225.04 341.285 225.023 341.493C225.014 341.701 225.006 341.865 224.997 341.987L228.728 336.15H230.132V343.118H229.066V339.01C229.066 338.871 229.066 338.689 229.066 338.464C229.075 338.238 229.083 338.017 229.092 337.801C229.101 337.575 229.109 337.406 229.118 337.294L225.413 343.118H223.996V336.15H225.075ZM229.638 333.264C229.577 333.914 229.356 334.408 228.975 334.746C228.602 335.075 228.004 335.24 227.181 335.24C226.332 335.24 225.729 335.075 225.374 334.746C225.027 334.416 224.832 333.922 224.789 333.264H225.855C225.898 333.732 226.02 334.048 226.219 334.213C226.427 334.369 226.756 334.447 227.207 334.447C227.606 334.447 227.918 334.364 228.143 334.2C228.377 334.026 228.516 333.714 228.559 333.264H229.638ZM236.471 336.15H237.719L234.742 339.504L237.966 343.118H236.64L233.494 339.582V343.118H232.35V336.15H233.494V339.53L236.471 336.15ZM240.309 336.15V340.401C240.309 340.505 240.305 340.661 240.296 340.869C240.288 341.077 240.275 341.285 240.257 341.493C240.249 341.701 240.24 341.865 240.231 341.987L243.962 336.15H245.366V343.118H244.3V339.01C244.3 338.871 244.3 338.689 244.3 338.464C244.309 338.238 244.318 338.017 244.326 337.801C244.335 337.575 244.344 337.406 244.352 337.294L240.647 343.118H239.23V336.15H240.309ZM258.499 336.15V343.118H257.472V338.672C257.472 338.49 257.477 338.299 257.485 338.1C257.503 337.9 257.52 337.705 257.537 337.515H257.498L255.223 343.118H254.261L252.051 337.515H252.012C252.038 337.905 252.051 338.303 252.051 338.711V343.118H251.024V336.15H252.545L254.742 341.753L256.978 336.15H258.499ZM263.363 336.033C264.212 336.033 264.84 336.219 265.248 336.592C265.655 336.964 265.859 337.558 265.859 338.373V343.118H265.027L264.806 342.13H264.754C264.45 342.511 264.13 342.793 263.792 342.975C263.462 343.157 263.003 343.248 262.414 343.248C261.781 343.248 261.257 343.083 260.841 342.754C260.425 342.416 260.217 341.891 260.217 341.181C260.217 340.487 260.49 339.954 261.036 339.582C261.582 339.2 262.422 338.992 263.558 338.958L264.741 338.919V338.503C264.741 337.922 264.615 337.519 264.364 337.294C264.112 337.068 263.757 336.956 263.298 336.956C262.934 336.956 262.587 337.012 262.258 337.125C261.928 337.229 261.621 337.35 261.335 337.489L260.984 336.631C261.287 336.466 261.647 336.327 262.063 336.215C262.479 336.093 262.912 336.033 263.363 336.033ZM264.728 339.712L263.701 339.751C262.834 339.785 262.232 339.924 261.894 340.167C261.564 340.409 261.4 340.752 261.4 341.194C261.4 341.584 261.517 341.87 261.751 342.052C261.993 342.234 262.301 342.325 262.674 342.325C263.263 342.325 263.753 342.164 264.143 341.844C264.533 341.514 264.728 341.012 264.728 340.336V339.712ZM272.821 337.112H270.546V343.118H269.415V337.112H267.166V336.15H272.821V337.112ZM278.314 336.15H279.562L276.585 339.504L279.809 343.118H278.483L275.337 339.582V343.118H274.193V336.15H275.337V339.53L278.314 336.15ZM282.153 336.15V340.401C282.153 340.505 282.149 340.661 282.14 340.869C282.132 341.077 282.119 341.285 282.101 341.493C282.093 341.701 282.084 341.865 282.075 341.987L285.806 336.15H287.21V343.118H286.144V339.01C286.144 338.871 286.144 338.689 286.144 338.464C286.153 338.238 286.162 338.017 286.17 337.801C286.179 337.575 286.188 337.406 286.196 337.294L282.491 343.118H281.074V336.15H282.153ZM112.555 353.15V360.118H111.411V354.125H107.81V360.118H106.666V353.15H112.555ZM120.836 356.621C120.836 357.773 120.542 358.666 119.952 359.299C119.372 359.931 118.583 360.248 117.586 360.248C116.971 360.248 116.421 360.109 115.935 359.832C115.459 359.546 115.082 359.134 114.804 358.597C114.527 358.051 114.388 357.392 114.388 356.621C114.388 355.468 114.679 354.58 115.259 353.956C115.84 353.332 116.629 353.02 117.625 353.02C118.258 353.02 118.813 353.163 119.289 353.449C119.775 353.726 120.152 354.133 120.42 354.671C120.698 355.199 120.836 355.849 120.836 356.621ZM115.571 356.621C115.571 357.444 115.732 358.098 116.052 358.584C116.382 359.06 116.902 359.299 117.612 359.299C118.314 359.299 118.83 359.06 119.159 358.584C119.489 358.098 119.653 357.444 119.653 356.621C119.653 355.797 119.489 355.152 119.159 354.684C118.83 354.216 118.31 353.982 117.599 353.982C116.889 353.982 116.373 354.216 116.052 354.684C115.732 355.152 115.571 355.797 115.571 356.621ZM124.482 353.02C125.28 353.02 125.912 353.18 126.38 353.501C126.857 353.813 127.095 354.263 127.095 354.853C127.095 355.277 126.978 355.615 126.744 355.867C126.51 356.109 126.19 356.287 125.782 356.4V356.452C126.06 356.53 126.315 356.638 126.549 356.777C126.783 356.915 126.97 357.097 127.108 357.323C127.256 357.548 127.329 357.838 127.329 358.194C127.329 358.774 127.087 359.264 126.601 359.663C126.125 360.053 125.375 360.248 124.352 360.248C123.85 360.248 123.395 360.204 122.987 360.118C122.58 360.04 122.242 359.931 121.973 359.793V358.766C122.268 358.904 122.615 359.03 123.013 359.143C123.421 359.255 123.863 359.312 124.339 359.312C124.859 359.312 125.297 359.225 125.652 359.052C126.016 358.87 126.198 358.562 126.198 358.129C126.198 357.349 125.535 356.959 124.209 356.959H123.273V356.023H124.027C124.625 356.023 125.102 355.945 125.457 355.789C125.821 355.624 126.003 355.347 126.003 354.957C126.003 354.627 125.865 354.38 125.587 354.216C125.319 354.051 124.929 353.969 124.417 353.969C124.036 353.969 123.698 354.008 123.403 354.086C123.117 354.155 122.801 354.263 122.454 354.411L122.051 353.501C122.779 353.18 123.59 353.02 124.482 353.02ZM134.625 354.905C134.625 355.338 134.495 355.676 134.235 355.919C133.975 356.161 133.642 356.326 133.234 356.413V356.465C133.668 356.525 134.045 356.681 134.365 356.933C134.686 357.175 134.846 357.557 134.846 358.077C134.846 358.666 134.625 359.156 134.183 359.546C133.75 359.927 133.031 360.118 132.025 360.118H129.022V353.15H132.012C132.506 353.15 132.948 353.206 133.338 353.319C133.737 353.423 134.049 353.605 134.274 353.865C134.508 354.116 134.625 354.463 134.625 354.905ZM133.468 355.048C133.468 354.718 133.347 354.48 133.104 354.333C132.87 354.177 132.485 354.099 131.947 354.099H130.166V356.01H131.739C132.892 356.01 133.468 355.689 133.468 355.048ZM133.663 358.077C133.663 357.678 133.512 357.392 133.208 357.219C132.905 357.045 132.459 356.959 131.869 356.959H130.166V359.195H131.895C132.467 359.195 132.905 359.112 133.208 358.948C133.512 358.774 133.663 358.484 133.663 358.077ZM142.571 356.621C142.571 357.773 142.276 358.666 141.687 359.299C141.106 359.931 140.317 360.248 139.321 360.248C138.705 360.248 138.155 360.109 137.67 359.832C137.193 359.546 136.816 359.134 136.539 358.597C136.261 358.051 136.123 357.392 136.123 356.621C136.123 355.468 136.413 354.58 136.994 353.956C137.574 353.332 138.363 353.02 139.36 353.02C139.992 353.02 140.547 353.163 141.024 353.449C141.509 353.726 141.886 354.133 142.155 354.671C142.432 355.199 142.571 355.849 142.571 356.621ZM137.306 356.621C137.306 357.444 137.466 358.098 137.787 358.584C138.116 359.06 138.636 359.299 139.347 359.299C140.049 359.299 140.564 359.06 140.894 358.584C141.223 358.098 141.388 357.444 141.388 356.621C141.388 355.797 141.223 355.152 140.894 354.684C140.564 354.216 140.044 353.982 139.334 353.982C138.623 353.982 138.107 354.216 137.787 354.684C137.466 355.152 137.306 355.797 137.306 356.621ZM149.688 360.118H148.531V354.099H146.477C146.364 355.563 146.208 356.746 146.009 357.648C145.809 358.54 145.545 359.19 145.216 359.598C144.886 360.005 144.47 360.209 143.968 360.209C143.855 360.209 143.742 360.2 143.63 360.183C143.526 360.174 143.439 360.152 143.37 360.118V359.26C143.422 359.277 143.478 359.29 143.539 359.299C143.599 359.307 143.66 359.312 143.721 359.312C144.189 359.312 144.561 358.813 144.839 357.817C145.125 356.82 145.341 355.264 145.489 353.15H149.688V360.118ZM152.328 360.118H151.002L152.991 357.193C152.723 357.123 152.463 357.015 152.211 356.868C151.96 356.712 151.756 356.499 151.6 356.231C151.444 355.953 151.366 355.611 151.366 355.204C151.366 354.536 151.592 354.029 152.042 353.683C152.493 353.327 153.091 353.15 153.836 353.15H156.956V360.118H155.812V357.349H154.122L152.328 360.118ZM152.471 355.217C152.471 355.615 152.619 355.914 152.913 356.114C153.217 356.304 153.637 356.4 154.174 356.4H155.812V354.099H153.953C153.425 354.099 153.043 354.203 152.809 354.411C152.584 354.619 152.471 354.887 152.471 355.217ZM161.852 353.02C162.45 353.02 162.961 353.15 163.386 353.41C163.819 353.67 164.149 354.038 164.374 354.515C164.608 354.983 164.725 355.533 164.725 356.166V356.855H159.954C159.971 357.643 160.171 358.246 160.552 358.662C160.942 359.069 161.484 359.273 162.177 359.273C162.619 359.273 163.009 359.234 163.347 359.156C163.694 359.069 164.049 358.948 164.413 358.792V359.793C164.058 359.949 163.707 360.061 163.36 360.131C163.013 360.209 162.602 360.248 162.125 360.248C161.466 360.248 160.881 360.113 160.37 359.845C159.867 359.576 159.473 359.177 159.187 358.649C158.91 358.111 158.771 357.457 158.771 356.686C158.771 355.923 158.897 355.269 159.148 354.723C159.408 354.177 159.768 353.756 160.227 353.462C160.695 353.167 161.237 353.02 161.852 353.02ZM161.839 353.956C161.293 353.956 160.86 354.133 160.539 354.489C160.227 354.835 160.041 355.321 159.98 355.945H163.529C163.52 355.355 163.382 354.879 163.113 354.515C162.844 354.142 162.42 353.956 161.839 353.956ZM171.309 354.112H169.034V360.118H167.903V354.112H165.654V353.15H171.309V354.112ZM178.917 360.248C178.302 360.248 177.751 360.122 177.266 359.871C176.789 359.619 176.412 359.229 176.135 358.701C175.866 358.172 175.732 357.496 175.732 356.673C175.732 355.815 175.875 355.117 176.161 354.58C176.447 354.042 176.833 353.648 177.318 353.397C177.812 353.145 178.371 353.02 178.995 353.02C179.35 353.02 179.693 353.059 180.022 353.137C180.351 353.206 180.62 353.293 180.828 353.397L180.477 354.346C180.269 354.268 180.026 354.194 179.749 354.125C179.472 354.055 179.212 354.021 178.969 354.021C177.6 354.021 176.915 354.9 176.915 356.66C176.915 357.5 177.08 358.146 177.409 358.597C177.747 359.039 178.245 359.26 178.904 359.26C179.285 359.26 179.619 359.221 179.905 359.143C180.2 359.065 180.468 358.969 180.711 358.857V359.871C180.477 359.992 180.217 360.083 179.931 360.144C179.654 360.213 179.316 360.248 178.917 360.248ZM183.512 353.15V356.049H187.295V353.15H188.439V360.118H187.295V357.011H183.512V360.118H182.368V353.15H183.512ZM191.725 353.15V357.401C191.725 357.505 191.72 357.661 191.712 357.869C191.703 358.077 191.69 358.285 191.673 358.493C191.664 358.701 191.655 358.865 191.647 358.987L195.378 353.15H196.782V360.118H195.716V356.01C195.716 355.871 195.716 355.689 195.716 355.464C195.724 355.238 195.733 355.017 195.742 354.801C195.75 354.575 195.759 354.406 195.768 354.294L192.063 360.118H190.646V353.15H191.725ZM200.832 353.02C201.629 353.02 202.262 353.18 202.73 353.501C203.207 353.813 203.445 354.263 203.445 354.853C203.445 355.277 203.328 355.615 203.094 355.867C202.86 356.109 202.539 356.287 202.132 356.4V356.452C202.409 356.53 202.665 356.638 202.899 356.777C203.133 356.915 203.319 357.097 203.458 357.323C203.605 357.548 203.679 357.838 203.679 358.194C203.679 358.774 203.436 359.264 202.951 359.663C202.474 360.053 201.725 360.248 200.702 360.248C200.199 360.248 199.744 360.204 199.337 360.118C198.93 360.04 198.592 359.931 198.323 359.793V358.766C198.618 358.904 198.964 359.03 199.363 359.143C199.77 359.255 200.212 359.312 200.689 359.312C201.209 359.312 201.647 359.225 202.002 359.052C202.366 358.87 202.548 358.562 202.548 358.129C202.548 357.349 201.885 356.959 200.559 356.959H199.623V356.023H200.377C200.975 356.023 201.452 355.945 201.807 355.789C202.171 355.624 202.353 355.347 202.353 354.957C202.353 354.627 202.214 354.38 201.937 354.216C201.668 354.051 201.278 353.969 200.767 353.969C200.386 353.969 200.048 354.008 199.753 354.086C199.467 354.155 199.151 354.263 198.804 354.411L198.401 353.501C199.129 353.18 199.939 353.02 200.832 353.02ZM206.451 353.15V357.401C206.451 357.505 206.447 357.661 206.438 357.869C206.429 358.077 206.416 358.285 206.399 358.493C206.39 358.701 206.382 358.865 206.373 358.987L210.104 353.15H211.508V360.118H210.442V356.01C210.442 355.871 210.442 355.689 210.442 355.464C210.451 355.238 210.459 355.017 210.468 354.801C210.477 354.575 210.485 354.406 210.494 354.294L206.789 360.118H205.372V353.15H206.451ZM218.536 354.112H216.261V360.118H215.13V354.112H212.881V353.15H218.536V354.112ZM221.052 356.01H223.119C224.931 356.01 225.836 356.668 225.836 357.986C225.836 358.636 225.615 359.156 225.173 359.546C224.731 359.927 224.029 360.118 223.067 360.118H219.908V353.15H221.052V356.01ZM224.692 358.051C224.692 357.626 224.541 357.34 224.237 357.193C223.943 357.037 223.527 356.959 222.989 356.959H221.052V359.195H223.015C223.501 359.195 223.899 359.108 224.211 358.935C224.532 358.761 224.692 358.467 224.692 358.051ZM108.499 370.02C109.296 370.02 109.929 370.18 110.397 370.501C110.874 370.813 111.112 371.263 111.112 371.853C111.112 372.277 110.995 372.615 110.761 372.867C110.527 373.109 110.206 373.287 109.799 373.4V373.452C110.076 373.53 110.332 373.638 110.566 373.777C110.8 373.915 110.986 374.097 111.125 374.323C111.272 374.548 111.346 374.838 111.346 375.194C111.346 375.774 111.103 376.264 110.618 376.663C110.141 377.053 109.392 377.248 108.369 377.248C107.866 377.248 107.411 377.204 107.004 377.118C106.597 377.04 106.259 376.931 105.99 376.793V375.766C106.285 375.904 106.631 376.03 107.03 376.143C107.437 376.255 107.879 376.312 108.356 376.312C108.876 376.312 109.314 376.225 109.669 376.052C110.033 375.87 110.215 375.562 110.215 375.129C110.215 374.349 109.552 373.959 108.226 373.959H107.29V373.023H108.044C108.642 373.023 109.119 372.945 109.474 372.789C109.838 372.624 110.02 372.347 110.02 371.957C110.02 371.627 109.881 371.38 109.604 371.216C109.335 371.051 108.945 370.969 108.434 370.969C108.053 370.969 107.715 371.008 107.42 371.086C107.134 371.155 106.818 371.263 106.471 371.411L106.068 370.501C106.796 370.18 107.606 370.02 108.499 370.02ZM115.678 370.033C116.527 370.033 117.156 370.219 117.563 370.592C117.97 370.964 118.174 371.558 118.174 372.373V377.118H117.342L117.121 376.13H117.069C116.766 376.511 116.445 376.793 116.107 376.975C115.778 377.157 115.318 377.248 114.729 377.248C114.096 377.248 113.572 377.083 113.156 376.754C112.74 376.416 112.532 375.891 112.532 375.181C112.532 374.487 112.805 373.954 113.351 373.582C113.897 373.2 114.738 372.992 115.873 372.958L117.056 372.919V372.503C117.056 371.922 116.93 371.519 116.679 371.294C116.428 371.068 116.072 370.956 115.613 370.956C115.249 370.956 114.902 371.012 114.573 371.125C114.244 371.229 113.936 371.35 113.65 371.489L113.299 370.631C113.602 370.466 113.962 370.327 114.378 370.215C114.794 370.093 115.227 370.033 115.678 370.033ZM117.043 373.712L116.016 373.751C115.149 373.785 114.547 373.924 114.209 374.167C113.88 374.409 113.715 374.752 113.715 375.194C113.715 375.584 113.832 375.87 114.066 376.052C114.309 376.234 114.616 376.325 114.989 376.325C115.578 376.325 116.068 376.164 116.458 375.844C116.848 375.514 117.043 375.012 117.043 374.336V373.712ZM119.962 372.932C119.962 371.406 120.192 370.219 120.651 369.37C121.111 368.512 121.852 367.974 122.874 367.758C123.438 367.636 123.988 367.528 124.525 367.433C125.063 367.337 125.565 367.251 126.033 367.173L126.228 368.174C125.925 368.217 125.583 368.273 125.201 368.343C124.82 368.403 124.443 368.468 124.07 368.538C123.698 368.598 123.377 368.659 123.108 368.72C122.545 368.841 122.099 369.136 121.769 369.604C121.44 370.063 121.254 370.782 121.21 371.762H121.288C121.41 371.597 121.574 371.428 121.782 371.255C121.999 371.081 122.255 370.934 122.549 370.813C122.853 370.691 123.195 370.631 123.576 370.631C124.478 370.631 125.158 370.921 125.617 371.502C126.077 372.082 126.306 372.836 126.306 373.764C126.306 374.535 126.172 375.181 125.903 375.701C125.635 376.221 125.262 376.611 124.785 376.871C124.309 377.122 123.754 377.248 123.121 377.248C122.159 377.248 121.392 376.879 120.82 376.143C120.248 375.406 119.962 374.336 119.962 372.932ZM123.212 376.299C123.776 376.299 124.231 376.117 124.577 375.753C124.924 375.389 125.097 374.765 125.097 373.881C125.097 373.17 124.963 372.611 124.694 372.204C124.434 371.788 124.001 371.58 123.394 371.58C123.013 371.58 122.666 371.666 122.354 371.84C122.042 372.004 121.782 372.195 121.574 372.412C121.366 372.628 121.219 372.81 121.132 372.958C121.132 373.382 121.163 373.794 121.223 374.193C121.284 374.591 121.388 374.951 121.535 375.272C121.691 375.584 121.904 375.835 122.172 376.026C122.45 376.208 122.796 376.299 123.212 376.299ZM134.166 373.621C134.166 374.773 133.872 375.666 133.282 376.299C132.702 376.931 131.913 377.248 130.916 377.248C130.301 377.248 129.751 377.109 129.265 376.832C128.789 376.546 128.412 376.134 128.134 375.597C127.857 375.051 127.718 374.392 127.718 373.621C127.718 372.468 128.009 371.58 128.589 370.956C129.17 370.332 129.959 370.02 130.955 370.02C131.588 370.02 132.143 370.163 132.619 370.449C133.105 370.726 133.482 371.133 133.75 371.671C134.028 372.199 134.166 372.849 134.166 373.621ZM128.901 373.621C128.901 374.444 129.062 375.098 129.382 375.584C129.712 376.06 130.232 376.299 130.942 376.299C131.644 376.299 132.16 376.06 132.489 375.584C132.819 375.098 132.983 374.444 132.983 373.621C132.983 372.797 132.819 372.152 132.489 371.684C132.16 371.216 131.64 370.982 130.929 370.982C130.219 370.982 129.703 371.216 129.382 371.684C129.062 372.152 128.901 372.797 128.901 373.621ZM141.284 377.118H140.127V371.099H138.073C137.96 372.563 137.804 373.746 137.605 374.648C137.405 375.54 137.141 376.19 136.812 376.598C136.482 377.005 136.066 377.209 135.564 377.209C135.451 377.209 135.338 377.2 135.226 377.183C135.122 377.174 135.035 377.152 134.966 377.118V376.26C135.018 376.277 135.074 376.29 135.135 376.299C135.195 376.307 135.256 376.312 135.317 376.312C135.785 376.312 136.157 375.813 136.435 374.817C136.721 373.82 136.937 372.264 137.085 370.15H141.284V377.118ZM146.186 370.02C146.784 370.02 147.295 370.15 147.72 370.41C148.153 370.67 148.483 371.038 148.708 371.515C148.942 371.983 149.059 372.533 149.059 373.166V373.855H144.288C144.305 374.643 144.505 375.246 144.886 375.662C145.276 376.069 145.818 376.273 146.511 376.273C146.953 376.273 147.343 376.234 147.681 376.156C148.028 376.069 148.383 375.948 148.747 375.792V376.793C148.392 376.949 148.041 377.061 147.694 377.131C147.347 377.209 146.936 377.248 146.459 377.248C145.8 377.248 145.215 377.113 144.704 376.845C144.201 376.576 143.807 376.177 143.521 375.649C143.244 375.111 143.105 374.457 143.105 373.686C143.105 372.923 143.231 372.269 143.482 371.723C143.742 371.177 144.102 370.756 144.561 370.462C145.029 370.167 145.571 370.02 146.186 370.02ZM146.173 370.956C145.627 370.956 145.194 371.133 144.873 371.489C144.561 371.835 144.375 372.321 144.314 372.945H147.863C147.854 372.355 147.716 371.879 147.447 371.515C147.178 371.142 146.754 370.956 146.173 370.956ZM156.436 371.905C156.436 372.338 156.306 372.676 156.046 372.919C155.786 373.161 155.452 373.326 155.045 373.413V373.465C155.478 373.525 155.855 373.681 156.176 373.933C156.497 374.175 156.657 374.557 156.657 375.077C156.657 375.666 156.436 376.156 155.994 376.546C155.561 376.927 154.841 377.118 153.836 377.118H150.833V370.15H153.823C154.317 370.15 154.759 370.206 155.149 370.319C155.548 370.423 155.86 370.605 156.085 370.865C156.319 371.116 156.436 371.463 156.436 371.905ZM155.279 372.048C155.279 371.718 155.158 371.48 154.915 371.333C154.681 371.177 154.295 371.099 153.758 371.099H151.977V373.01H153.55C154.703 373.01 155.279 372.689 155.279 372.048ZM155.474 375.077C155.474 374.678 155.322 374.392 155.019 374.219C154.716 374.045 154.269 373.959 153.68 373.959H151.977V376.195H153.706C154.278 376.195 154.716 376.112 155.019 375.948C155.322 375.774 155.474 375.484 155.474 375.077ZM160.962 370.033C161.812 370.033 162.44 370.219 162.847 370.592C163.255 370.964 163.458 371.558 163.458 372.373V377.118H162.626L162.405 376.13H162.353C162.05 376.511 161.729 376.793 161.391 376.975C161.062 377.157 160.603 377.248 160.013 377.248C159.381 377.248 158.856 377.083 158.44 376.754C158.024 376.416 157.816 375.891 157.816 375.181C157.816 374.487 158.089 373.954 158.635 373.582C159.181 373.2 160.022 372.992 161.157 372.958L162.34 372.919V372.503C162.34 371.922 162.215 371.519 161.963 371.294C161.712 371.068 161.357 370.956 160.897 370.956C160.533 370.956 160.187 371.012 159.857 371.125C159.528 371.229 159.22 371.35 158.934 371.489L158.583 370.631C158.887 370.466 159.246 370.327 159.662 370.215C160.078 370.093 160.512 370.033 160.962 370.033ZM162.327 373.712L161.3 373.751C160.434 373.785 159.831 373.924 159.493 374.167C159.164 374.409 158.999 374.752 158.999 375.194C158.999 375.584 159.116 375.87 159.35 376.052C159.593 376.234 159.901 376.325 160.273 376.325C160.863 376.325 161.352 376.164 161.742 375.844C162.132 375.514 162.327 375.012 162.327 374.336V373.712ZM168.301 370.02C168.899 370.02 169.411 370.15 169.835 370.41C170.269 370.67 170.598 371.038 170.823 371.515C171.057 371.983 171.174 372.533 171.174 373.166V373.855H166.403C166.421 374.643 166.62 375.246 167.001 375.662C167.391 376.069 167.933 376.273 168.626 376.273C169.068 376.273 169.458 376.234 169.796 376.156C170.143 376.069 170.498 375.948 170.862 375.792V376.793C170.507 376.949 170.156 377.061 169.809 377.131C169.463 377.209 169.051 377.248 168.574 377.248C167.916 377.248 167.331 377.113 166.819 376.845C166.317 376.576 165.922 376.177 165.636 375.649C165.359 375.111 165.22 374.457 165.22 373.686C165.22 372.923 165.346 372.269 165.597 371.723C165.857 371.177 166.217 370.756 166.676 370.462C167.144 370.167 167.686 370.02 168.301 370.02ZM168.288 370.956C167.742 370.956 167.309 371.133 166.988 371.489C166.676 371.835 166.49 372.321 166.429 372.945H169.978C169.97 372.355 169.831 371.879 169.562 371.515C169.294 371.142 168.869 370.956 168.288 370.956ZM180.423 370.15V377.118H179.396V372.672C179.396 372.49 179.401 372.299 179.409 372.1C179.427 371.9 179.444 371.705 179.461 371.515H179.422L177.147 377.118H176.185L173.975 371.515H173.936C173.962 371.905 173.975 372.303 173.975 372.711V377.118H172.948V370.15H174.469L176.666 375.753L178.902 370.15H180.423ZM188.705 373.621C188.705 374.773 188.411 375.666 187.821 376.299C187.241 376.931 186.452 377.248 185.455 377.248C184.84 377.248 184.29 377.109 183.804 376.832C183.328 376.546 182.951 376.134 182.673 375.597C182.396 375.051 182.257 374.392 182.257 373.621C182.257 372.468 182.548 371.58 183.128 370.956C183.709 370.332 184.498 370.02 185.494 370.02C186.127 370.02 186.682 370.163 187.158 370.449C187.644 370.726 188.021 371.133 188.289 371.671C188.567 372.199 188.705 372.849 188.705 373.621ZM183.44 373.621C183.44 374.444 183.601 375.098 183.921 375.584C184.251 376.06 184.771 376.299 185.481 376.299C186.183 376.299 186.699 376.06 187.028 375.584C187.358 375.098 187.522 374.444 187.522 373.621C187.522 372.797 187.358 372.152 187.028 371.684C186.699 371.216 186.179 370.982 185.468 370.982C184.758 370.982 184.242 371.216 183.921 371.684C183.601 372.152 183.44 372.797 183.44 373.621ZM193.314 377.248C192.698 377.248 192.148 377.122 191.663 376.871C191.186 376.619 190.809 376.229 190.532 375.701C190.263 375.172 190.129 374.496 190.129 373.673C190.129 372.815 190.272 372.117 190.558 371.58C190.844 371.042 191.229 370.648 191.715 370.397C192.209 370.145 192.768 370.02 193.392 370.02C193.747 370.02 194.089 370.059 194.419 370.137C194.748 370.206 195.017 370.293 195.225 370.397L194.874 371.346C194.666 371.268 194.423 371.194 194.146 371.125C193.868 371.055 193.608 371.021 193.366 371.021C191.996 371.021 191.312 371.9 191.312 373.66C191.312 374.5 191.476 375.146 191.806 375.597C192.144 376.039 192.642 376.26 193.301 376.26C193.682 376.26 194.016 376.221 194.302 376.143C194.596 376.065 194.865 375.969 195.108 375.857V376.871C194.874 376.992 194.614 377.083 194.328 377.144C194.05 377.213 193.712 377.248 193.314 377.248ZM201.575 371.112H199.3V377.118H198.169V371.112H195.92V370.15H201.575V371.112ZM204.091 373.01H206.158C207.97 373.01 208.875 373.668 208.875 374.986C208.875 375.636 208.654 376.156 208.212 376.546C207.77 376.927 207.068 377.118 206.106 377.118H202.947V370.15H204.091V373.01ZM207.731 375.051C207.731 374.626 207.58 374.34 207.276 374.193C206.982 374.037 206.566 373.959 206.028 373.959H204.091V376.195H206.054C206.54 376.195 206.938 376.108 207.25 375.935C207.571 375.761 207.731 375.467 207.731 375.051Z" fill="black"/>
<circle cx="216.752" cy="124.729" r="9.70681" fill="#EA5858"/>
<circle cx="287.752" cy="179.729" r="9.70681" fill="#EA5858"/>
<mask id="mask0_1397_673" style="mask-type:alpha" maskUnits="userSpaceOnUse" x="90" y="87" width="232" height="241">
<path d="M209.248 209.291L302.471 173.897L321.766 283.143L145.285 327.966L90.5777 159.013L218.545 87.0221L209.248 209.291Z" fill="#C4C4C4"/>
</mask>
<g mask="url(#mask0_1397_673)">
<path fill-rule="evenodd" clip-rule="evenodd" d="M208.159 303.389C260.306 303.389 302.58 261.116 302.58 208.969C302.58 156.821 260.306 114.548 208.159 114.548C156.012 114.548 113.738 156.821 113.738 208.969C113.738 261.116 156.012 303.389 208.159 303.389ZM208.159 283.976C249.584 283.976 283.166 250.394 283.166 208.969C283.166 167.543 249.584 133.962 208.159 133.962C166.734 133.962 133.152 167.543 133.152 208.969C133.152 250.394 166.734 283.976 208.159 283.976Z" fill="#EA5858"/>
</g>
</g>
<defs>
<filter id="filter0_dd_1397_673" x="0.561035" y="0.117676" width="429" height="529" filterUnits="userSpaceOnUse" color-interpolation-filters="sRGB">
<feFlood flood-opacity="0" result="BackgroundImageFix"/>
<feColorMatrix in="SourceAlpha" type="matrix" values="0 0 0 0 0 0 0 0 0 0 0 0 0 0 0 0 0 0 127 0" result="hardAlpha"/>
<feOffset dy="44"/>
<feGaussianBlur stdDeviation="37"/>
<feColorMatrix type="matrix" values="0 0 0 0 0.103299 0 0 0 0 0.0836699 0 0 0 0 0.277995 0 0 0 0.06 0"/>
<feBlend mode="normal" in2="BackgroundImageFix" result="effect1_dropShadow_1397_673"/>
<feColorMatrix in="SourceAlpha" type="matrix" values="0 0 0 0 0 0 0 0 0 0 0 0 0 0 0 0 0 0 127 0" result="hardAlpha"/>
<feOffset/>
<feGaussianBlur stdDeviation="12"/>
<feColorMatrix type="matrix" values="0 0 0 0 0 0 0 0 0 0 0 0 0 0 0 0 0 0 0.04 0"/>
<feBlend mode="normal" in2="effect1_dropShadow_1397_673" result="effect2_dropShadow_1397_673"/>
<feBlend mode="normal" in="SourceGraphic" in2="effect2_dropShadow_1397_673" result="shape"/>
</filter>
</defs>
</svg>
