<svg width="282" height="267" viewBox="0 0 282 267" fill="none" xmlns="http://www.w3.org/2000/svg">
<path d="M0.561035 16.1177C0.561035 7.28112 7.72448 0.117676 16.561 0.117676H281.561V250.118C281.561 258.954 274.398 266.118 265.561 266.118H0.561035V16.1177Z" fill="white"/>
<path d="M33.101 35.1177L32.069 32.4657H28.673L27.653 35.1177H26.561L29.909 26.5137H30.881L34.217 35.1177H33.101ZM30.785 28.9137C30.761 28.8497 30.721 28.7337 30.665 28.5657C30.609 28.3977 30.553 28.2257 30.497 28.0497C30.449 27.8657 30.409 27.7257 30.377 27.6297C30.337 27.7897 30.293 27.9537 30.245 28.1217C30.205 28.2817 30.161 28.4297 30.113 28.5657C30.073 28.7017 30.037 28.8177 30.005 28.9137L29.033 31.5057H31.745L30.785 28.9137ZM39.0491 28.6857H40.2011L37.4531 31.7817L40.4291 35.1177H39.2051L36.3011 31.8537V35.1177H35.2451V28.6857H36.3011V31.8057L39.0491 28.6857ZM46.0367 29.5737H43.9367V35.1177H42.8927V29.5737H40.8167V28.6857H46.0367V29.5737ZM48.2997 32.6097C48.2997 32.6817 48.2957 32.7857 48.2877 32.9217C48.2877 33.0497 48.2837 33.1897 48.2757 33.3417C48.2677 33.4857 48.2597 33.6257 48.2517 33.7617C48.2437 33.8897 48.2357 33.9937 48.2277 34.0737L51.6717 28.6857H52.9677V35.1177H51.9837V31.3257C51.9837 31.1977 51.9837 31.0297 51.9837 30.8217C51.9917 30.6137 51.9997 30.4097 52.0077 30.2097C52.0157 30.0017 52.0237 29.8457 52.0317 29.7417L48.6117 35.1177H47.3037V28.6857H48.2997V32.6097ZM60.1866 30.3057C60.1866 30.7057 60.0666 31.0177 59.8266 31.2417C59.5866 31.4657 59.2786 31.6177 58.9026 31.6977V31.7457C59.3026 31.8017 59.6506 31.9457 59.9466 32.1777C60.2426 32.4017 60.3906 32.7537 60.3906 33.2337C60.3906 33.5057 60.3386 33.7577 60.2346 33.9897C60.1386 34.2217 59.9866 34.4217 59.7786 34.5897C59.5706 34.7577 59.3026 34.8897 58.9746 34.9857C58.6466 35.0737 58.2506 35.1177 57.7866 35.1177H55.0146V28.6857H57.7746C58.2306 28.6857 58.6386 28.7377 58.9986 28.8417C59.3666 28.9377 59.6546 29.1057 59.8626 29.3457C60.0786 29.5777 60.1866 29.8977 60.1866 30.3057ZM59.2986 33.2337C59.2986 32.8657 59.1586 32.6017 58.8786 32.4417C58.5986 32.2817 58.1866 32.2017 57.6426 32.2017H56.0706V34.2657H57.6666C58.1946 34.2657 58.5986 34.1897 58.8786 34.0377C59.1586 33.8777 59.2986 33.6097 59.2986 33.2337ZM59.1186 30.4377C59.1186 30.1337 59.0066 29.9137 58.7826 29.7777C58.5666 29.6337 58.2106 29.5617 57.7146 29.5617H56.0706V31.3257H57.5226C58.0426 31.3257 58.4386 31.2537 58.7106 31.1097C58.9826 30.9657 59.1186 30.7417 59.1186 30.4377ZM62.9847 28.6857V31.3617H66.4767V28.6857H67.5327V35.1177H66.4767V32.2497H62.9847V35.1177H61.9287V28.6857H62.9847ZM75.1613 31.8897C75.1613 32.4257 75.0893 32.9017 74.9453 33.3177C74.8093 33.7257 74.6093 34.0737 74.3453 34.3617C74.0893 34.6497 73.7733 34.8697 73.3973 35.0217C73.0293 35.1657 72.6173 35.2377 72.1613 35.2377C71.7373 35.2377 71.3453 35.1657 70.9853 35.0217C70.6253 34.8697 70.3133 34.6497 70.0493 34.3617C69.7853 34.0737 69.5773 33.7257 69.4253 33.3177C69.2813 32.9017 69.2093 32.4257 69.2093 31.8897C69.2093 31.1777 69.3293 30.5777 69.5693 30.0897C69.8093 29.5937 70.1533 29.2177 70.6013 28.9617C71.0493 28.6977 71.5813 28.5657 72.1973 28.5657C72.7813 28.5657 73.2933 28.6977 73.7333 28.9617C74.1813 29.2177 74.5293 29.5937 74.7773 30.0897C75.0333 30.5777 75.1613 31.1777 75.1613 31.8897ZM70.3013 31.8897C70.3013 32.3937 70.3653 32.8337 70.4933 33.2097C70.6293 33.5777 70.8373 33.8617 71.1173 34.0617C71.3973 34.2617 71.7533 34.3617 72.1853 34.3617C72.6173 34.3617 72.9733 34.2617 73.2533 34.0617C73.5333 33.8617 73.7373 33.5777 73.8653 33.2097C74.0013 32.8337 74.0693 32.3937 74.0693 31.8897C74.0693 31.3777 74.0013 30.9417 73.8653 30.5817C73.7293 30.2217 73.5213 29.9457 73.2413 29.7537C72.9693 29.5537 72.6133 29.4537 72.1733 29.4537C71.5173 29.4537 71.0413 29.6697 70.7453 30.1017C70.4493 30.5337 70.3013 31.1297 70.3013 31.8897ZM79.3189 28.5657C79.8709 28.5657 80.3429 28.6857 80.7349 28.9257C81.1349 29.1657 81.4389 29.5057 81.6469 29.9457C81.8629 30.3777 81.9709 30.8857 81.9709 31.4697V32.1057H77.5669C77.5829 32.8337 77.7669 33.3897 78.1189 33.7737C78.4789 34.1497 78.9789 34.3377 79.6189 34.3377C80.0269 34.3377 80.3869 34.3017 80.6989 34.2297C81.0189 34.1497 81.3469 34.0377 81.6829 33.8937V34.8177C81.3549 34.9617 81.0309 35.0657 80.7109 35.1297C80.3909 35.2017 80.0109 35.2377 79.5709 35.2377C78.9629 35.2377 78.4229 35.1137 77.9509 34.8657C77.4869 34.6177 77.1229 34.2497 76.8589 33.7617C76.6029 33.2657 76.4749 32.6617 76.4749 31.9497C76.4749 31.2457 76.5909 30.6417 76.8229 30.1377C77.0629 29.6337 77.3949 29.2457 77.8189 28.9737C78.2509 28.7017 78.7509 28.5657 79.3189 28.5657ZM79.3069 29.4297C78.8029 29.4297 78.4029 29.5937 78.1069 29.9217C77.8189 30.2417 77.6469 30.6897 77.5909 31.2657H80.8669C80.8669 30.8977 80.8109 30.5777 80.6989 30.3057C80.5869 30.0337 80.4149 29.8217 80.1829 29.6697C79.9589 29.5097 79.6669 29.4297 79.3069 29.4297ZM91.8038 30.3057C91.8038 30.7057 91.6838 31.0177 91.4438 31.2417C91.2038 31.4657 90.8958 31.6177 90.5198 31.6977V31.7457C90.9198 31.8017 91.2678 31.9457 91.5638 32.1777C91.8598 32.4017 92.0078 32.7537 92.0078 33.2337C92.0078 33.5057 91.9558 33.7577 91.8518 33.9897C91.7558 34.2217 91.6038 34.4217 91.3958 34.5897C91.1878 34.7577 90.9198 34.8897 90.5918 34.9857C90.2638 35.0737 89.8678 35.1177 89.4038 35.1177H86.6318V28.6857H89.3918C89.8478 28.6857 90.2558 28.7377 90.6158 28.8417C90.9838 28.9377 91.2718 29.1057 91.4798 29.3457C91.6958 29.5777 91.8038 29.8977 91.8038 30.3057ZM90.9158 33.2337C90.9158 32.8657 90.7758 32.6017 90.4958 32.4417C90.2158 32.2817 89.8038 32.2017 89.2598 32.2017H87.6878V34.2657H89.2838C89.8118 34.2657 90.2158 34.1897 90.4958 34.0377C90.7758 33.8777 90.9158 33.6097 90.9158 33.2337ZM90.7358 30.4377C90.7358 30.1337 90.6238 29.9137 90.3998 29.7777C90.1838 29.6337 89.8278 29.5617 89.3318 29.5617H87.6878V31.3257H89.1398C89.6598 31.3257 90.0558 31.2537 90.3278 31.1097C90.5998 30.9657 90.7358 30.7417 90.7358 30.4377ZM93.5459 35.1177V28.6857H94.6019V31.3257H96.2699C96.8299 31.3257 97.2899 31.3937 97.6499 31.5297C98.0099 31.6657 98.2779 31.8697 98.4539 32.1417C98.6299 32.4057 98.7179 32.7417 98.7179 33.1497C98.7179 33.5497 98.6299 33.8977 98.4539 34.1937C98.2859 34.4897 98.0179 34.7177 97.6499 34.8777C97.2899 35.0377 96.8139 35.1177 96.2219 35.1177H93.5459ZM96.1259 34.2657C96.5819 34.2657 96.9539 34.1897 97.2419 34.0377C97.5299 33.8777 97.6739 33.6017 97.6739 33.2097C97.6739 32.8177 97.5419 32.5537 97.2779 32.4177C97.0139 32.2737 96.6339 32.2017 96.1379 32.2017H94.6019V34.2657H96.1259ZM99.7859 35.1177V28.6857H100.842V35.1177H99.7859ZM103.282 35.1177H102.058L103.894 32.4177C103.646 32.3537 103.406 32.2537 103.174 32.1177C102.942 31.9737 102.754 31.7777 102.61 31.5297C102.466 31.2737 102.394 30.9577 102.394 30.5817C102.394 29.9657 102.602 29.4977 103.018 29.1777C103.434 28.8497 103.986 28.6857 104.674 28.6857H107.554V35.1177H106.498V32.5617H104.938L103.282 35.1177ZM103.414 30.5937C103.414 30.9617 103.55 31.2377 103.822 31.4217C104.102 31.5977 104.49 31.6857 104.986 31.6857H106.498V29.5617H104.782C104.294 29.5617 103.942 29.6577 103.726 29.8497C103.518 30.0417 103.414 30.2897 103.414 30.5937ZM114.761 30.3057C114.761 30.7057 114.641 31.0177 114.401 31.2417C114.161 31.4657 113.853 31.6177 113.477 31.6977V31.7457C113.877 31.8017 114.225 31.9457 114.521 32.1777C114.817 32.4017 114.965 32.7537 114.965 33.2337C114.965 33.5057 114.913 33.7577 114.809 33.9897C114.713 34.2217 114.561 34.4217 114.353 34.5897C114.145 34.7577 113.877 34.8897 113.549 34.9857C113.221 35.0737 112.825 35.1177 112.361 35.1177H109.589V28.6857H112.349C112.805 28.6857 113.213 28.7377 113.573 28.8417C113.941 28.9377 114.229 29.1057 114.437 29.3457C114.653 29.5777 114.761 29.8977 114.761 30.3057ZM113.873 33.2337C113.873 32.8657 113.733 32.6017 113.453 32.4417C113.173 32.2817 112.761 32.2017 112.217 32.2017H110.645V34.2657H112.241C112.769 34.2657 113.173 34.1897 113.453 34.0377C113.733 33.8777 113.873 33.6097 113.873 33.2337ZM113.693 30.4377C113.693 30.1337 113.581 29.9137 113.357 29.7777C113.141 29.6337 112.785 29.5617 112.289 29.5617H110.645V31.3257H112.097C112.617 31.3257 113.013 31.2537 113.285 31.1097C113.557 30.9657 113.693 30.7417 113.693 30.4377ZM121.399 35.1177H120.331V29.5617H118.435C118.355 30.5777 118.255 31.4457 118.135 32.1657C118.015 32.8777 117.863 33.4577 117.679 33.9057C117.495 34.3537 117.275 34.6817 117.019 34.8897C116.763 35.0977 116.463 35.2017 116.119 35.2017C116.015 35.2017 115.911 35.1937 115.807 35.1777C115.711 35.1697 115.631 35.1497 115.567 35.1177V34.3257C115.615 34.3417 115.667 34.3537 115.723 34.3617C115.779 34.3697 115.835 34.3737 115.891 34.3737C116.067 34.3737 116.227 34.3017 116.371 34.1577C116.515 34.0137 116.643 33.7937 116.755 33.4977C116.875 33.2017 116.983 32.8297 117.079 32.3817C117.175 31.9257 117.259 31.3897 117.331 30.7737C117.403 30.1577 117.467 29.4617 117.523 28.6857H121.399V35.1177ZM125.924 28.5657C126.476 28.5657 126.948 28.6857 127.34 28.9257C127.74 29.1657 128.044 29.5057 128.252 29.9457C128.468 30.3777 128.576 30.8857 128.576 31.4697V32.1057H124.172C124.188 32.8337 124.372 33.3897 124.724 33.7737C125.084 34.1497 125.584 34.3377 126.224 34.3377C126.632 34.3377 126.992 34.3017 127.304 34.2297C127.624 34.1497 127.952 34.0377 128.288 33.8937V34.8177C127.96 34.9617 127.636 35.0657 127.316 35.1297C126.996 35.2017 126.616 35.2377 126.176 35.2377C125.568 35.2377 125.028 35.1137 124.556 34.8657C124.092 34.6177 123.728 34.2497 123.464 33.7617C123.208 33.2657 123.08 32.6617 123.08 31.9497C123.08 31.2457 123.196 30.6417 123.428 30.1377C123.668 29.6337 124 29.2457 124.424 28.9737C124.856 28.7017 125.356 28.5657 125.924 28.5657ZM125.912 29.4297C125.408 29.4297 125.008 29.5937 124.712 29.9217C124.424 30.2417 124.252 30.6897 124.196 31.2657H127.472C127.472 30.8977 127.416 30.5777 127.304 30.3057C127.192 30.0337 127.02 29.8217 126.788 29.6697C126.564 29.5097 126.272 29.4297 125.912 29.4297ZM131.27 28.6857V31.3617H134.762V28.6857H135.818V35.1177H134.762V32.2497H131.27V35.1177H130.214V28.6857H131.27ZM138.85 32.6097C138.85 32.6817 138.846 32.7857 138.838 32.9217C138.838 33.0497 138.834 33.1897 138.826 33.3417C138.818 33.4857 138.81 33.6257 138.802 33.7617C138.794 33.8897 138.786 33.9937 138.778 34.0737L142.222 28.6857H143.518V35.1177H142.534V31.3257C142.534 31.1977 142.534 31.0297 142.534 30.8217C142.542 30.6137 142.55 30.4097 142.558 30.2097C142.566 30.0017 142.574 29.8457 142.582 29.7417L139.162 35.1177H137.854V28.6857H138.85V32.6097ZM148.049 28.5657C148.601 28.5657 149.073 28.6857 149.465 28.9257C149.865 29.1657 150.169 29.5057 150.377 29.9457C150.593 30.3777 150.701 30.8857 150.701 31.4697V32.1057H146.297C146.313 32.8337 146.497 33.3897 146.849 33.7737C147.209 34.1497 147.709 34.3377 148.349 34.3377C148.757 34.3377 149.117 34.3017 149.429 34.2297C149.749 34.1497 150.077 34.0377 150.413 33.8937V34.8177C150.085 34.9617 149.761 35.0657 149.441 35.1297C149.121 35.2017 148.741 35.2377 148.301 35.2377C147.693 35.2377 147.153 35.1137 146.681 34.8657C146.217 34.6177 145.853 34.2497 145.589 33.7617C145.333 33.2657 145.205 32.6617 145.205 31.9497C145.205 31.2457 145.321 30.6417 145.553 30.1377C145.793 29.6337 146.125 29.2457 146.549 28.9737C146.981 28.7017 147.481 28.5657 148.049 28.5657ZM148.037 29.4297C147.533 29.4297 147.133 29.5937 146.837 29.9217C146.549 30.2417 146.377 30.6897 146.321 31.2657H149.597C149.597 30.8977 149.541 30.5777 149.429 30.3057C149.317 30.0337 149.145 29.8217 148.913 29.6697C148.689 29.5097 148.397 29.4297 148.037 29.4297ZM158.422 28.5657C159.214 28.5657 159.85 28.8417 160.33 29.3937C160.818 29.9457 161.062 30.7777 161.062 31.8897C161.062 32.6177 160.95 33.2337 160.726 33.7377C160.51 34.2337 160.202 34.6097 159.802 34.8657C159.41 35.1137 158.946 35.2377 158.41 35.2377C158.082 35.2377 157.79 35.1937 157.534 35.1057C157.278 35.0177 157.058 34.9057 156.874 34.7697C156.698 34.6257 156.546 34.4697 156.418 34.3017H156.346C156.362 34.4377 156.378 34.6097 156.394 34.8177C156.41 35.0257 156.418 35.2057 156.418 35.3577V37.9977H155.362V28.6857H156.226L156.37 29.5617H156.418C156.546 29.3777 156.698 29.2097 156.874 29.0577C157.058 28.9057 157.274 28.7857 157.522 28.6977C157.778 28.6097 158.078 28.5657 158.422 28.5657ZM158.23 29.4537C157.798 29.4537 157.45 29.5377 157.186 29.7057C156.922 29.8657 156.73 30.1097 156.61 30.4377C156.49 30.7657 156.426 31.1817 156.418 31.6857V31.8897C156.418 32.4177 156.474 32.8657 156.586 33.2337C156.698 33.6017 156.886 33.8817 157.15 34.0737C157.422 34.2657 157.79 34.3617 158.254 34.3617C158.646 34.3617 158.966 34.2537 159.214 34.0377C159.47 33.8217 159.658 33.5297 159.778 33.1617C159.906 32.7857 159.97 32.3577 159.97 31.8777C159.97 31.1417 159.826 30.5537 159.538 30.1137C159.258 29.6737 158.822 29.4537 158.23 29.4537ZM165.181 28.5777C165.965 28.5777 166.545 28.7497 166.921 29.0937C167.297 29.4377 167.485 29.9857 167.485 30.7377V35.1177H166.717L166.513 34.2057H166.465C166.281 34.4377 166.089 34.6337 165.889 34.7937C165.697 34.9457 165.473 35.0577 165.217 35.1297C164.969 35.2017 164.665 35.2377 164.305 35.2377C163.921 35.2377 163.573 35.1697 163.261 35.0337C162.957 34.8977 162.717 34.6897 162.541 34.4097C162.365 34.1217 162.277 33.7617 162.277 33.3297C162.277 32.6897 162.529 32.1977 163.033 31.8537C163.537 31.5017 164.313 31.3097 165.361 31.2777L166.453 31.2417V30.8577C166.453 30.3217 166.337 29.9497 166.105 29.7417C165.873 29.5337 165.545 29.4297 165.121 29.4297C164.785 29.4297 164.465 29.4817 164.161 29.5857C163.857 29.6817 163.573 29.7937 163.309 29.9217L162.985 29.1297C163.265 28.9777 163.597 28.8497 163.981 28.7457C164.365 28.6337 164.765 28.5777 165.181 28.5777ZM165.493 32.0097C164.693 32.0417 164.137 32.1697 163.825 32.3937C163.521 32.6177 163.369 32.9337 163.369 33.3417C163.369 33.7017 163.477 33.9657 163.693 34.1337C163.917 34.3017 164.201 34.3857 164.545 34.3857C165.089 34.3857 165.541 34.2377 165.901 33.9417C166.261 33.6377 166.441 33.1737 166.441 32.5497V31.9737L165.493 32.0097ZM173.276 28.6857H174.428L171.68 31.7817L174.656 35.1177H173.432L170.528 31.8537V35.1177H169.472V28.6857H170.528V31.8057L173.276 28.6857ZM178.259 28.5777C179.043 28.5777 179.623 28.7497 179.999 29.0937C180.375 29.4377 180.563 29.9857 180.563 30.7377V35.1177H179.795L179.591 34.2057H179.543C179.359 34.4377 179.167 34.6337 178.967 34.7937C178.775 34.9457 178.551 35.0577 178.295 35.1297C178.047 35.2017 177.743 35.2377 177.383 35.2377C176.999 35.2377 176.651 35.1697 176.339 35.0337C176.035 34.8977 175.795 34.6897 175.619 34.4097C175.443 34.1217 175.355 33.7617 175.355 33.3297C175.355 32.6897 175.607 32.1977 176.111 31.8537C176.615 31.5017 177.391 31.3097 178.439 31.2777L179.531 31.2417V30.8577C179.531 30.3217 179.415 29.9497 179.183 29.7417C178.951 29.5337 178.623 29.4297 178.199 29.4297C177.863 29.4297 177.543 29.4817 177.239 29.5857C176.935 29.6817 176.651 29.7937 176.387 29.9217L176.063 29.1297C176.343 28.9777 176.675 28.8497 177.059 28.7457C177.443 28.6337 177.843 28.5777 178.259 28.5777ZM178.571 32.0097C177.771 32.0417 177.215 32.1697 176.903 32.3937C176.599 32.6177 176.447 32.9337 176.447 33.3417C176.447 33.7017 176.555 33.9657 176.771 34.1337C176.995 34.3017 177.279 34.3857 177.623 34.3857C178.167 34.3857 178.619 34.2377 178.979 33.9417C179.339 33.6377 179.519 33.1737 179.519 32.5497V31.9737L178.571 32.0097ZM191.009 28.6857V35.1177H189.953V29.5857H186.629V35.1177H185.573V28.6857H191.009ZM196.122 28.5657C196.914 28.5657 197.55 28.8417 198.03 29.3937C198.518 29.9457 198.762 30.7777 198.762 31.8897C198.762 32.6177 198.65 33.2337 198.426 33.7377C198.21 34.2337 197.902 34.6097 197.502 34.8657C197.11 35.1137 196.646 35.2377 196.11 35.2377C195.782 35.2377 195.49 35.1937 195.234 35.1057C194.978 35.0177 194.758 34.9057 194.574 34.7697C194.398 34.6257 194.246 34.4697 194.118 34.3017H194.046C194.062 34.4377 194.078 34.6097 194.094 34.8177C194.11 35.0257 194.118 35.2057 194.118 35.3577V37.9977H193.062V28.6857H193.926L194.07 29.5617H194.118C194.246 29.3777 194.398 29.2097 194.574 29.0577C194.758 28.9057 194.974 28.7857 195.222 28.6977C195.478 28.6097 195.778 28.5657 196.122 28.5657ZM195.93 29.4537C195.498 29.4537 195.15 29.5377 194.886 29.7057C194.622 29.8657 194.43 30.1097 194.31 30.4377C194.19 30.7657 194.126 31.1817 194.118 31.6857V31.8897C194.118 32.4177 194.174 32.8657 194.286 33.2337C194.398 33.6017 194.586 33.8817 194.85 34.0737C195.122 34.2657 195.49 34.3617 195.954 34.3617C196.346 34.3617 196.666 34.2537 196.914 34.0377C197.17 33.8217 197.358 33.5297 197.478 33.1617C197.606 32.7857 197.67 32.3577 197.67 31.8777C197.67 31.1417 197.526 30.5537 197.238 30.1137C196.958 29.6737 196.522 29.4537 195.93 29.4537ZM201.44 32.6097C201.44 32.6817 201.436 32.7857 201.428 32.9217C201.428 33.0497 201.424 33.1897 201.416 33.3417C201.408 33.4857 201.4 33.6257 201.392 33.7617C201.384 33.8897 201.376 33.9937 201.368 34.0737L204.812 28.6857H206.108V35.1177H205.124V31.3257C205.124 31.1977 205.124 31.0297 205.124 30.8217C205.132 30.6137 205.14 30.4097 205.148 30.2097C205.156 30.0017 205.164 29.8457 205.172 29.7417L201.752 35.1177H200.444V28.6857H201.44V32.6097ZM33.017 48.6857V55.1177H31.961V49.5857H28.637V55.1177H27.581V48.6857H33.017ZM38.1293 48.5657C38.9213 48.5657 39.5573 48.8417 40.0373 49.3937C40.5253 49.9457 40.7693 50.7777 40.7693 51.8897C40.7693 52.6177 40.6573 53.2337 40.4333 53.7377C40.2173 54.2337 39.9093 54.6097 39.5093 54.8657C39.1173 55.1137 38.6533 55.2377 38.1173 55.2377C37.7893 55.2377 37.4973 55.1937 37.2413 55.1057C36.9853 55.0177 36.7653 54.9057 36.5813 54.7697C36.4053 54.6257 36.2533 54.4697 36.1253 54.3017H36.0533C36.0693 54.4377 36.0853 54.6097 36.1013 54.8177C36.1173 55.0257 36.1253 55.2057 36.1253 55.3577V57.9977H35.0693V48.6857H35.9333L36.0773 49.5617H36.1253C36.2533 49.3777 36.4053 49.2097 36.5813 49.0577C36.7653 48.9057 36.9813 48.7857 37.2293 48.6977C37.4853 48.6097 37.7853 48.5657 38.1293 48.5657ZM37.9373 49.4537C37.5053 49.4537 37.1573 49.5377 36.8933 49.7057C36.6293 49.8657 36.4373 50.1097 36.3173 50.4377C36.1973 50.7657 36.1333 51.1817 36.1253 51.6857V51.8897C36.1253 52.4177 36.1813 52.8657 36.2933 53.2337C36.4053 53.6017 36.5933 53.8817 36.8573 54.0737C37.1293 54.2657 37.4973 54.3617 37.9613 54.3617C38.3533 54.3617 38.6733 54.2537 38.9213 54.0377C39.1773 53.8217 39.3653 53.5297 39.4853 53.1617C39.6133 52.7857 39.6773 52.3577 39.6773 51.8777C39.6773 51.1417 39.5333 50.5537 39.2453 50.1137C38.9653 49.6737 38.5293 49.4537 37.9373 49.4537ZM48.0441 51.8897C48.0441 52.4257 47.9721 52.9017 47.8281 53.3177C47.6921 53.7257 47.4921 54.0737 47.2281 54.3617C46.9721 54.6497 46.6561 54.8697 46.2801 55.0217C45.9121 55.1657 45.5001 55.2377 45.0441 55.2377C44.6201 55.2377 44.2281 55.1657 43.8681 55.0217C43.5081 54.8697 43.1961 54.6497 42.9321 54.3617C42.6681 54.0737 42.4601 53.7257 42.3081 53.3177C42.1641 52.9017 42.0921 52.4257 42.0921 51.8897C42.0921 51.1777 42.2121 50.5777 42.4521 50.0897C42.6921 49.5937 43.0361 49.2177 43.4841 48.9617C43.9321 48.6977 44.4641 48.5657 45.0801 48.5657C45.6641 48.5657 46.1761 48.6977 46.6161 48.9617C47.0641 49.2177 47.4121 49.5937 47.6601 50.0897C47.9161 50.5777 48.0441 51.1777 48.0441 51.8897ZM43.1841 51.8897C43.1841 52.3937 43.2481 52.8337 43.3761 53.2097C43.5121 53.5777 43.7201 53.8617 44.0001 54.0617C44.2801 54.2617 44.6361 54.3617 45.0681 54.3617C45.5001 54.3617 45.8561 54.2617 46.1361 54.0617C46.4161 53.8617 46.6201 53.5777 46.7481 53.2097C46.8841 52.8337 46.9521 52.3937 46.9521 51.8897C46.9521 51.3777 46.8841 50.9417 46.7481 50.5817C46.6121 50.2217 46.4041 49.9457 46.1241 49.7537C45.8521 49.5537 45.4961 49.4537 45.0561 49.4537C44.4001 49.4537 43.9241 49.6697 43.6281 50.1017C43.3321 50.5337 43.1841 51.1297 43.1841 51.8897ZM53.5578 48.5897C54.1978 48.6457 54.7538 48.8137 55.2258 49.0937C55.7058 49.3737 56.0778 49.7497 56.3418 50.2217C56.6058 50.6937 56.7378 51.2537 56.7378 51.9017C56.7378 52.5497 56.6098 53.1137 56.3538 53.5937C56.0978 54.0657 55.7338 54.4417 55.2618 54.7217C54.7898 54.9937 54.2218 55.1577 53.5578 55.2137V57.9977H52.5258V55.2137C51.8938 55.1577 51.3378 54.9937 50.8578 54.7217C50.3778 54.4417 50.0058 54.0657 49.7418 53.5937C49.4778 53.1137 49.3458 52.5497 49.3458 51.9017C49.3458 51.2457 49.4738 50.6817 49.7298 50.2097C49.9858 49.7297 50.3538 49.3537 50.8338 49.0817C51.3138 48.8017 51.8898 48.6377 52.5618 48.5897V45.9977H53.5578V48.5897ZM52.5618 49.4657C52.0738 49.5137 51.6738 49.6377 51.3618 49.8377C51.0498 50.0377 50.8178 50.3097 50.6658 50.6537C50.5218 50.9977 50.4498 51.4137 50.4498 51.9017C50.4498 52.3817 50.5218 52.7977 50.6658 53.1497C50.8178 53.4937 51.0498 53.7697 51.3618 53.9777C51.6738 54.1777 52.0738 54.3017 52.5618 54.3497V49.4657ZM53.5578 54.3497C54.0378 54.2937 54.4298 54.1657 54.7338 53.9657C55.0458 53.7657 55.2738 53.4937 55.4178 53.1497C55.5698 52.7977 55.6458 52.3817 55.6458 51.9017C55.6458 51.4217 55.5698 51.0097 55.4178 50.6657C55.2658 50.3217 55.0338 50.0497 54.7218 49.8497C54.4178 49.6497 54.0298 49.5257 53.5578 49.4777V54.3497ZM59.4091 52.6097C59.4091 52.6817 59.4051 52.7857 59.3971 52.9217C59.3971 53.0497 59.3931 53.1897 59.3851 53.3417C59.3771 53.4857 59.3691 53.6257 59.3611 53.7617C59.3531 53.8897 59.3451 53.9937 59.3371 54.0737L62.7811 48.6857H64.0771V55.1177H63.0931V51.3257C63.0931 51.1977 63.0931 51.0297 63.0931 50.8217C63.1011 50.6137 63.1091 50.4097 63.1171 50.2097C63.1251 50.0017 63.1331 49.8457 63.1411 49.7417L59.7211 55.1177H58.4131V48.6857H59.4091V52.6097ZM71.02 55.1177H69.952V49.5617H68.056C67.976 50.5777 67.876 51.4457 67.756 52.1657C67.636 52.8777 67.484 53.4577 67.3 53.9057C67.116 54.3537 66.896 54.6817 66.64 54.8897C66.384 55.0977 66.084 55.2017 65.74 55.2017C65.636 55.2017 65.532 55.1937 65.428 55.1777C65.332 55.1697 65.252 55.1497 65.188 55.1177V54.3257C65.236 54.3417 65.288 54.3537 65.344 54.3617C65.4 54.3697 65.456 54.3737 65.512 54.3737C65.688 54.3737 65.848 54.3017 65.992 54.1577C66.136 54.0137 66.264 53.7937 66.376 53.4977C66.496 53.2017 66.604 52.8297 66.7 52.3817C66.796 51.9257 66.88 51.3897 66.952 50.7737C67.024 50.1577 67.088 49.4617 67.144 48.6857H71.02V55.1177ZM75.4975 48.5777C76.2815 48.5777 76.8615 48.7497 77.2375 49.0937C77.6135 49.4377 77.8015 49.9857 77.8015 50.7377V55.1177H77.0335L76.8295 54.2057H76.7815C76.5975 54.4377 76.4055 54.6337 76.2055 54.7937C76.0135 54.9457 75.7895 55.0577 75.5335 55.1297C75.2855 55.2017 74.9815 55.2377 74.6215 55.2377C74.2375 55.2377 73.8895 55.1697 73.5775 55.0337C73.2735 54.8977 73.0335 54.6897 72.8575 54.4097C72.6815 54.1217 72.5935 53.7617 72.5935 53.3297C72.5935 52.6897 72.8455 52.1977 73.3495 51.8537C73.8535 51.5017 74.6295 51.3097 75.6775 51.2777L76.7695 51.2417V50.8577C76.7695 50.3217 76.6535 49.9497 76.4215 49.7417C76.1895 49.5337 75.8615 49.4297 75.4375 49.4297C75.1015 49.4297 74.7815 49.4817 74.4775 49.5857C74.1735 49.6817 73.8895 49.7937 73.6255 49.9217L73.3015 49.1297C73.5815 48.9777 73.9135 48.8497 74.2975 48.7457C74.6815 48.6337 75.0815 48.5777 75.4975 48.5777ZM75.8095 52.0097C75.0095 52.0417 74.4535 52.1697 74.1415 52.3937C73.8375 52.6177 73.6855 52.9337 73.6855 53.3417C73.6855 53.7017 73.7935 53.9657 74.0095 54.1337C74.2335 54.3017 74.5175 54.3857 74.8615 54.3857C75.4055 54.3857 75.8575 54.2377 76.2175 53.9417C76.5775 53.6377 76.7575 53.1737 76.7575 52.5497V51.9737L75.8095 52.0097ZM83.5921 48.6857H84.7441L81.9961 51.7817L84.9721 55.1177H83.7481L80.8441 51.8537V55.1177H79.7881V48.6857H80.8441V51.8057L83.5921 48.6857ZM90.5796 49.5737H88.4796V55.1177H87.4356V49.5737H85.3596V48.6857H90.5796V49.5737ZM92.8427 52.6097C92.8427 52.6817 92.8387 52.7857 92.8307 52.9217C92.8307 53.0497 92.8267 53.1897 92.8187 53.3417C92.8107 53.4857 92.8027 53.6257 92.7947 53.7617C92.7867 53.8897 92.7787 53.9937 92.7707 54.0737L96.2147 48.6857H97.5107V55.1177H96.5267V51.3257C96.5267 51.1977 96.5267 51.0297 96.5267 50.8217C96.5347 50.6137 96.5427 50.4097 96.5507 50.2097C96.5587 50.0017 96.5667 49.8457 96.5747 49.7417L93.1547 55.1177H91.8467V48.6857H92.8427V52.6097ZM100.482 51.0257C100.482 51.4017 100.586 51.6817 100.794 51.8657C101.01 52.0417 101.318 52.1297 101.718 52.1297C102.118 52.1297 102.482 52.0697 102.81 51.9497C103.138 51.8217 103.474 51.6537 103.818 51.4457V48.6857H104.874V55.1177H103.818V52.2497C103.458 52.4817 103.102 52.6657 102.75 52.8017C102.406 52.9297 101.99 52.9937 101.502 52.9937C100.846 52.9937 100.334 52.8217 99.9656 52.4777C99.6056 52.1337 99.4256 51.6737 99.4256 51.0977V48.6857H100.482V51.0257ZM109.401 48.5657C109.953 48.5657 110.425 48.6857 110.817 48.9257C111.217 49.1657 111.521 49.5057 111.729 49.9457C111.945 50.3777 112.053 50.8857 112.053 51.4697V52.1057H107.649C107.665 52.8337 107.849 53.3897 108.201 53.7737C108.561 54.1497 109.061 54.3377 109.701 54.3377C110.109 54.3377 110.469 54.3017 110.781 54.2297C111.101 54.1497 111.429 54.0377 111.765 53.8937V54.8177C111.437 54.9617 111.113 55.0657 110.793 55.1297C110.473 55.2017 110.093 55.2377 109.653 55.2377C109.045 55.2377 108.505 55.1137 108.033 54.8657C107.569 54.6177 107.205 54.2497 106.941 53.7617C106.685 53.2657 106.557 52.6617 106.557 51.9497C106.557 51.2457 106.673 50.6417 106.905 50.1377C107.145 49.6337 107.477 49.2457 107.901 48.9737C108.333 48.7017 108.833 48.5657 109.401 48.5657ZM109.389 49.4297C108.885 49.4297 108.485 49.5937 108.189 49.9217C107.901 50.2417 107.729 50.6897 107.673 51.2657H110.949C110.949 50.8977 110.893 50.5777 110.781 50.3057C110.669 50.0337 110.497 49.8217 110.265 49.6697C110.041 49.5097 109.749 49.4297 109.389 49.4297ZM116.27 55.2377C115.702 55.2377 115.194 55.1217 114.746 54.8897C114.306 54.6577 113.958 54.2977 113.702 53.8097C113.454 53.3217 113.33 52.6977 113.33 51.9377C113.33 51.1457 113.462 50.5017 113.726 50.0057C113.99 49.5097 114.346 49.1457 114.794 48.9137C115.25 48.6817 115.766 48.5657 116.342 48.5657C116.67 48.5657 116.986 48.6017 117.29 48.6737C117.594 48.7377 117.842 48.8177 118.034 48.9137L117.71 49.7897C117.518 49.7177 117.294 49.6497 117.038 49.5857C116.782 49.5217 116.542 49.4897 116.318 49.4897C115.886 49.4897 115.53 49.5817 115.25 49.7657C114.97 49.9497 114.762 50.2217 114.626 50.5817C114.49 50.9417 114.422 51.3897 114.422 51.9257C114.422 52.4377 114.49 52.8737 114.626 53.2337C114.762 53.5937 114.966 53.8657 115.238 54.0497C115.51 54.2337 115.85 54.3257 116.258 54.3257C116.61 54.3257 116.918 54.2897 117.182 54.2177C117.454 54.1457 117.702 54.0577 117.926 53.9537V54.8897C117.71 55.0017 117.47 55.0857 117.206 55.1417C116.95 55.2057 116.638 55.2377 116.27 55.2377ZM123.26 48.6857H124.412L121.664 51.7817L124.64 55.1177H123.416L120.512 51.8537V55.1177H119.456V48.6857H120.512V51.8057L123.26 48.6857ZM126.804 52.6097C126.804 52.6817 126.8 52.7857 126.792 52.9217C126.792 53.0497 126.788 53.1897 126.78 53.3417C126.772 53.4857 126.764 53.6257 126.756 53.7617C126.748 53.8897 126.74 53.9937 126.732 54.0737L130.176 48.6857H131.472V55.1177H130.488V51.3257C130.488 51.1977 130.488 51.0297 130.488 50.8217C130.496 50.6137 130.504 50.4097 130.512 50.2097C130.52 50.0017 130.528 49.8457 130.536 49.7417L127.116 55.1177H125.808V48.6857H126.804V52.6097ZM135.043 51.8297L132.823 48.6857H134.023L135.679 51.1097L137.323 48.6857H138.511L136.291 51.8297L138.631 55.1177H137.431L135.679 52.5497L133.903 55.1177H132.715L135.043 51.8297ZM148.486 51.8897C148.486 52.4257 148.414 52.9017 148.27 53.3177C148.134 53.7257 147.934 54.0737 147.67 54.3617C147.414 54.6497 147.098 54.8697 146.722 55.0217C146.354 55.1657 145.942 55.2377 145.486 55.2377C145.062 55.2377 144.67 55.1657 144.31 55.0217C143.95 54.8697 143.638 54.6497 143.374 54.3617C143.11 54.0737 142.902 53.7257 142.75 53.3177C142.606 52.9017 142.534 52.4257 142.534 51.8897C142.534 51.1777 142.654 50.5777 142.894 50.0897C143.134 49.5937 143.478 49.2177 143.926 48.9617C144.374 48.6977 144.906 48.5657 145.522 48.5657C146.106 48.5657 146.618 48.6977 147.058 48.9617C147.506 49.2177 147.854 49.5937 148.102 50.0897C148.358 50.5777 148.486 51.1777 148.486 51.8897ZM143.626 51.8897C143.626 52.3937 143.69 52.8337 143.818 53.2097C143.954 53.5777 144.162 53.8617 144.442 54.0617C144.722 54.2617 145.078 54.3617 145.51 54.3617C145.942 54.3617 146.298 54.2617 146.578 54.0617C146.858 53.8617 147.062 53.5777 147.19 53.2097C147.326 52.8337 147.394 52.3937 147.394 51.8897C147.394 51.3777 147.326 50.9417 147.19 50.5817C147.054 50.2217 146.846 49.9457 146.566 49.7537C146.294 49.5537 145.938 49.4537 145.498 49.4537C144.842 49.4537 144.366 49.6697 144.07 50.1017C143.774 50.5337 143.626 51.1297 143.626 51.8897ZM152.739 55.2377C152.171 55.2377 151.663 55.1217 151.215 54.8897C150.775 54.6577 150.427 54.2977 150.171 53.8097C149.923 53.3217 149.799 52.6977 149.799 51.9377C149.799 51.1457 149.931 50.5017 150.195 50.0057C150.459 49.5097 150.815 49.1457 151.263 48.9137C151.719 48.6817 152.235 48.5657 152.811 48.5657C153.139 48.5657 153.455 48.6017 153.759 48.6737C154.063 48.7377 154.311 48.8177 154.503 48.9137L154.179 49.7897C153.987 49.7177 153.763 49.6497 153.507 49.5857C153.251 49.5217 153.011 49.4897 152.787 49.4897C152.355 49.4897 151.999 49.5817 151.719 49.7657C151.439 49.9497 151.231 50.2217 151.095 50.5817C150.959 50.9417 150.891 51.3897 150.891 51.9257C150.891 52.4377 150.959 52.8737 151.095 53.2337C151.231 53.5937 151.435 53.8657 151.707 54.0497C151.979 54.2337 152.319 54.3257 152.727 54.3257C153.079 54.3257 153.387 54.2897 153.651 54.2177C153.923 54.1457 154.171 54.0577 154.395 53.9537V54.8897C154.179 55.0017 153.939 55.0857 153.675 55.1417C153.419 55.2057 153.107 55.2377 152.739 55.2377ZM162.825 48.6857V55.1177H161.877V51.0137C161.877 50.8457 161.881 50.6697 161.889 50.4857C161.905 50.3017 161.921 50.1217 161.937 49.9457H161.901L159.801 55.1177H158.913L156.873 49.9457H156.837C156.853 50.1217 156.861 50.3017 156.861 50.4857C156.869 50.6697 156.873 50.8577 156.873 51.0497V55.1177H155.925V48.6857H157.329L159.357 53.8577L161.421 48.6857H162.825ZM170.47 51.8897C170.47 52.4257 170.398 52.9017 170.254 53.3177C170.118 53.7257 169.918 54.0737 169.654 54.3617C169.398 54.6497 169.082 54.8697 168.706 55.0217C168.338 55.1657 167.926 55.2377 167.47 55.2377C167.046 55.2377 166.654 55.1657 166.294 55.0217C165.934 54.8697 165.622 54.6497 165.358 54.3617C165.094 54.0737 164.886 53.7257 164.734 53.3177C164.59 52.9017 164.518 52.4257 164.518 51.8897C164.518 51.1777 164.638 50.5777 164.878 50.0897C165.118 49.5937 165.462 49.2177 165.91 48.9617C166.358 48.6977 166.89 48.5657 167.506 48.5657C168.09 48.5657 168.602 48.6977 169.042 48.9617C169.49 49.2177 169.838 49.5937 170.086 50.0897C170.342 50.5777 170.47 51.1777 170.47 51.8897ZM165.61 51.8897C165.61 52.3937 165.674 52.8337 165.802 53.2097C165.938 53.5777 166.146 53.8617 166.426 54.0617C166.706 54.2617 167.062 54.3617 167.494 54.3617C167.926 54.3617 168.282 54.2617 168.562 54.0617C168.842 53.8617 169.046 53.5777 169.174 53.2097C169.31 52.8337 169.378 52.3937 169.378 51.8897C169.378 51.3777 169.31 50.9417 169.174 50.5817C169.038 50.2217 168.83 49.9457 168.55 49.7537C168.278 49.5537 167.922 49.4537 167.482 49.4537C166.826 49.4537 166.35 49.6697 166.054 50.1017C165.758 50.5337 165.61 51.1297 165.61 51.8897ZM176.466 49.5737H174.366V55.1177H173.322V49.5737H171.246V48.6857H176.466V49.5737ZM180.793 48.5657C181.585 48.5657 182.221 48.8417 182.701 49.3937C183.189 49.9457 183.433 50.7777 183.433 51.8897C183.433 52.6177 183.321 53.2337 183.097 53.7377C182.881 54.2337 182.573 54.6097 182.173 54.8657C181.781 55.1137 181.317 55.2377 180.781 55.2377C180.453 55.2377 180.161 55.1937 179.905 55.1057C179.649 55.0177 179.429 54.9057 179.245 54.7697C179.069 54.6257 178.917 54.4697 178.789 54.3017H178.717C178.733 54.4377 178.749 54.6097 178.765 54.8177C178.781 55.0257 178.789 55.2057 178.789 55.3577V57.9977H177.733V48.6857H178.597L178.741 49.5617H178.789C178.917 49.3777 179.069 49.2097 179.245 49.0577C179.429 48.9057 179.645 48.7857 179.893 48.6977C180.149 48.6097 180.449 48.5657 180.793 48.5657ZM180.601 49.4537C180.169 49.4537 179.821 49.5377 179.557 49.7057C179.293 49.8657 179.101 50.1097 178.981 50.4377C178.861 50.7657 178.797 51.1817 178.789 51.6857V51.8897C178.789 52.4177 178.845 52.8657 178.957 53.2337C179.069 53.6017 179.257 53.8817 179.521 54.0737C179.793 54.2657 180.161 54.3617 180.625 54.3617C181.017 54.3617 181.337 54.2537 181.585 54.0377C181.841 53.8217 182.029 53.5297 182.149 53.1617C182.277 52.7857 182.341 52.3577 182.341 51.8777C182.341 51.1417 182.197 50.5537 181.909 50.1137C181.629 49.6737 181.193 49.4537 180.601 49.4537ZM187.552 48.5777C188.336 48.5777 188.916 48.7497 189.292 49.0937C189.668 49.4377 189.856 49.9857 189.856 50.7377V55.1177H189.088L188.884 54.2057H188.836C188.652 54.4377 188.46 54.6337 188.26 54.7937C188.068 54.9457 187.844 55.0577 187.588 55.1297C187.34 55.2017 187.036 55.2377 186.676 55.2377C186.292 55.2377 185.944 55.1697 185.632 55.0337C185.328 54.8977 185.088 54.6897 184.912 54.4097C184.736 54.1217 184.648 53.7617 184.648 53.3297C184.648 52.6897 184.9 52.1977 185.404 51.8537C185.908 51.5017 186.684 51.3097 187.732 51.2777L188.824 51.2417V50.8577C188.824 50.3217 188.708 49.9497 188.476 49.7417C188.244 49.5337 187.916 49.4297 187.492 49.4297C187.156 49.4297 186.836 49.4817 186.532 49.5857C186.228 49.6817 185.944 49.7937 185.68 49.9217L185.356 49.1297C185.636 48.9777 185.968 48.8497 186.352 48.7457C186.736 48.6337 187.136 48.5777 187.552 48.5777ZM187.864 52.0097C187.064 52.0417 186.508 52.1697 186.196 52.3937C185.892 52.6177 185.74 52.9337 185.74 53.3417C185.74 53.7017 185.848 53.9657 186.064 54.1337C186.288 54.3017 186.572 54.3857 186.916 54.3857C187.46 54.3857 187.912 54.2377 188.272 53.9417C188.632 53.6377 188.812 53.1737 188.812 52.5497V51.9737L187.864 52.0097ZM193.367 51.8297L191.147 48.6857H192.347L194.003 51.1097L195.647 48.6857H196.835L194.615 51.8297L196.955 55.1177H195.755L194.003 52.5497L192.227 55.1177H191.039L193.367 51.8297ZM28.637 69.6857V72.3617H32.129V69.6857H33.185V76.1177H32.129V73.2497H28.637V76.1177H27.581V69.6857H28.637ZM37.6577 69.5777C38.4417 69.5777 39.0217 69.7497 39.3977 70.0937C39.7737 70.4377 39.9617 70.9857 39.9617 71.7377V76.1177H39.1937L38.9897 75.2057H38.9417C38.7577 75.4377 38.5657 75.6337 38.3657 75.7937C38.1737 75.9457 37.9497 76.0577 37.6937 76.1297C37.4457 76.2017 37.1417 76.2377 36.7817 76.2377C36.3977 76.2377 36.0497 76.1697 35.7377 76.0337C35.4337 75.8977 35.1937 75.6897 35.0177 75.4097C34.8417 75.1217 34.7537 74.7617 34.7537 74.3297C34.7537 73.6897 35.0057 73.1977 35.5097 72.8537C36.0137 72.5017 36.7897 72.3097 37.8377 72.2777L38.9297 72.2417V71.8577C38.9297 71.3217 38.8137 70.9497 38.5817 70.7417C38.3497 70.5337 38.0217 70.4297 37.5977 70.4297C37.2617 70.4297 36.9417 70.4817 36.6377 70.5857C36.3337 70.6817 36.0497 70.7937 35.7857 70.9217L35.4617 70.1297C35.7417 69.9777 36.0737 69.8497 36.4577 69.7457C36.8417 69.6337 37.2417 69.5777 37.6577 69.5777ZM37.9697 73.0097C37.1697 73.0417 36.6137 73.1697 36.3017 73.3937C35.9977 73.6177 35.8457 73.9337 35.8457 74.3417C35.8457 74.7017 35.9537 74.9657 36.1697 75.1337C36.3937 75.3017 36.6777 75.3857 37.0217 75.3857C37.5657 75.3857 38.0177 75.2377 38.3777 74.9417C38.7377 74.6377 38.9177 74.1737 38.9177 73.5497V72.9737L37.9697 73.0097ZM44.5282 76.2377C43.9602 76.2377 43.4522 76.1217 43.0042 75.8897C42.5642 75.6577 42.2162 75.2977 41.9602 74.8097C41.7122 74.3217 41.5882 73.6977 41.5882 72.9377C41.5882 72.1457 41.7202 71.5017 41.9842 71.0057C42.2482 70.5097 42.6042 70.1457 43.0522 69.9137C43.5082 69.6817 44.0242 69.5657 44.6002 69.5657C44.9282 69.5657 45.2442 69.6017 45.5482 69.6737C45.8522 69.7377 46.1002 69.8177 46.2922 69.9137L45.9682 70.7897C45.7762 70.7177 45.5522 70.6497 45.2962 70.5857C45.0402 70.5217 44.8002 70.4897 44.5762 70.4897C44.1442 70.4897 43.7882 70.5817 43.5082 70.7657C43.2282 70.9497 43.0202 71.2217 42.8842 71.5817C42.7482 71.9417 42.6802 72.3897 42.6802 72.9257C42.6802 73.4377 42.7482 73.8737 42.8842 74.2337C43.0202 74.5937 43.2242 74.8657 43.4962 75.0497C43.7682 75.2337 44.1082 75.3257 44.5162 75.3257C44.8682 75.3257 45.1762 75.2897 45.4402 75.2177C45.7122 75.1457 45.9602 75.0577 46.1842 74.9537V75.8897C45.9682 76.0017 45.7282 76.0857 45.4642 76.1417C45.2082 76.2057 44.8962 76.2377 44.5282 76.2377ZM50.1978 69.5657C50.7498 69.5657 51.2218 69.6857 51.6138 69.9257C52.0138 70.1657 52.3178 70.5057 52.5258 70.9457C52.7418 71.3777 52.8498 71.8857 52.8498 72.4697V73.1057H48.4458C48.4618 73.8337 48.6458 74.3897 48.9978 74.7737C49.3578 75.1497 49.8578 75.3377 50.4978 75.3377C50.9058 75.3377 51.2658 75.3017 51.5778 75.2297C51.8978 75.1497 52.2258 75.0377 52.5618 74.8937V75.8177C52.2338 75.9617 51.9098 76.0657 51.5898 76.1297C51.2698 76.2017 50.8898 76.2377 50.4498 76.2377C49.8418 76.2377 49.3018 76.1137 48.8298 75.8657C48.3658 75.6177 48.0018 75.2497 47.7378 74.7617C47.4818 74.2657 47.3538 73.6617 47.3538 72.9497C47.3538 72.2457 47.4698 71.6417 47.7018 71.1377C47.9418 70.6337 48.2738 70.2457 48.6978 69.9737C49.1298 69.7017 49.6298 69.5657 50.1978 69.5657ZM50.1858 70.4297C49.6818 70.4297 49.2818 70.5937 48.9858 70.9217C48.6978 71.2417 48.5258 71.6897 48.4698 72.2657H51.7458C51.7458 71.8977 51.6898 71.5777 51.5778 71.3057C51.4658 71.0337 51.2938 70.8217 51.0618 70.6697C50.8378 70.5097 50.5458 70.4297 50.1858 70.4297ZM59.3833 76.1177H58.3153V70.5617H56.4193C56.3393 71.5777 56.2393 72.4457 56.1193 73.1657C55.9993 73.8777 55.8473 74.4577 55.6633 74.9057C55.4793 75.3537 55.2593 75.6817 55.0033 75.8897C54.7473 76.0977 54.4473 76.2017 54.1033 76.2017C53.9993 76.2017 53.8953 76.1937 53.7913 76.1777C53.6953 76.1697 53.6153 76.1497 53.5513 76.1177V75.3257C53.5993 75.3417 53.6513 75.3537 53.7073 75.3617C53.7633 75.3697 53.8193 75.3737 53.8753 75.3737C54.0513 75.3737 54.2113 75.3017 54.3553 75.1577C54.4993 75.0137 54.6273 74.7937 54.7393 74.4977C54.8593 74.2017 54.9673 73.8297 55.0633 73.3817C55.1593 72.9257 55.2433 72.3897 55.3153 71.7737C55.3873 71.1577 55.4513 70.4617 55.5073 69.6857H59.3833V76.1177ZM63.9088 69.5657C64.4608 69.5657 64.9328 69.6857 65.3248 69.9257C65.7248 70.1657 66.0288 70.5057 66.2368 70.9457C66.4528 71.3777 66.5608 71.8857 66.5608 72.4697V73.1057H62.1568C62.1728 73.8337 62.3568 74.3897 62.7088 74.7737C63.0688 75.1497 63.5688 75.3377 64.2088 75.3377C64.6168 75.3377 64.9768 75.3017 65.2888 75.2297C65.6088 75.1497 65.9368 75.0377 66.2728 74.8937V75.8177C65.9448 75.9617 65.6208 76.0657 65.3008 76.1297C64.9808 76.2017 64.6008 76.2377 64.1608 76.2377C63.5528 76.2377 63.0128 76.1137 62.5408 75.8657C62.0768 75.6177 61.7128 75.2497 61.4488 74.7617C61.1928 74.2657 61.0648 73.6617 61.0648 72.9497C61.0648 72.2457 61.1808 71.6417 61.4128 71.1377C61.6528 70.6337 61.9848 70.2457 62.4088 69.9737C62.8408 69.7017 63.3408 69.5657 63.9088 69.5657ZM63.8968 70.4297C63.3928 70.4297 62.9928 70.5937 62.6968 70.9217C62.4088 71.2417 62.2368 71.6897 62.1808 72.2657H65.4568C65.4568 71.8977 65.4008 71.5777 65.2888 71.3057C65.1768 71.0337 65.0048 70.8217 64.7728 70.6697C64.5488 70.5097 64.2568 70.4297 63.8968 70.4297ZM69.2542 69.6857V72.3617H72.7462V69.6857H73.8022V76.1177H72.7462V73.2497H69.2542V76.1177H68.1982V69.6857H69.2542ZM76.8348 73.6097C76.8348 73.6817 76.8308 73.7857 76.8228 73.9217C76.8228 74.0497 76.8188 74.1897 76.8108 74.3417C76.8028 74.4857 76.7948 74.6257 76.7868 74.7617C76.7788 74.8897 76.7708 74.9937 76.7628 75.0737L80.2068 69.6857H81.5028V76.1177H80.5188V72.3257C80.5188 72.1977 80.5188 72.0297 80.5188 71.8217C80.5268 71.6137 80.5348 71.4097 80.5428 71.2097C80.5508 71.0017 80.5588 70.8457 80.5668 70.7417L77.1468 76.1177H75.8388V69.6857H76.8348V73.6097ZM83.9458 76.1177H82.7218L84.5578 73.4177C84.3098 73.3537 84.0698 73.2537 83.8378 73.1177C83.6058 72.9737 83.4178 72.7777 83.2738 72.5297C83.1298 72.2737 83.0578 71.9577 83.0578 71.5817C83.0578 70.9657 83.2658 70.4977 83.6818 70.1777C84.0978 69.8497 84.6498 69.6857 85.3378 69.6857H88.2178V76.1177H87.1618V73.5617H85.6018L83.9458 76.1177ZM84.0778 71.5937C84.0778 71.9617 84.2138 72.2377 84.4858 72.4217C84.7658 72.5977 85.1538 72.6857 85.6498 72.6857H87.1618V70.5617H85.4458C84.9578 70.5617 84.6058 70.6577 84.3898 70.8497C84.1818 71.0417 84.0778 71.2897 84.0778 71.5937ZM98.7123 69.6857V76.1177H97.6563V70.5857H94.3323V76.1177H93.2763V69.6857H98.7123ZM106.357 72.8897C106.357 73.4257 106.285 73.9017 106.141 74.3177C106.005 74.7257 105.805 75.0737 105.541 75.3617C105.285 75.6497 104.969 75.8697 104.593 76.0217C104.225 76.1657 103.813 76.2377 103.357 76.2377C102.933 76.2377 102.541 76.1657 102.181 76.0217C101.821 75.8697 101.509 75.6497 101.245 75.3617C100.981 75.0737 100.773 74.7257 100.621 74.3177C100.477 73.9017 100.405 73.4257 100.405 72.8897C100.405 72.1777 100.525 71.5777 100.765 71.0897C101.005 70.5937 101.349 70.2177 101.797 69.9617C102.245 69.6977 102.777 69.5657 103.393 69.5657C103.977 69.5657 104.489 69.6977 104.929 69.9617C105.377 70.2177 105.725 70.5937 105.973 71.0897C106.229 71.5777 106.357 72.1777 106.357 72.8897ZM101.497 72.8897C101.497 73.3937 101.561 73.8337 101.689 74.2097C101.825 74.5777 102.033 74.8617 102.313 75.0617C102.593 75.2617 102.949 75.3617 103.381 75.3617C103.813 75.3617 104.169 75.2617 104.449 75.0617C104.729 74.8617 104.933 74.5777 105.061 74.2097C105.197 73.8337 105.265 73.3937 105.265 72.8897C105.265 72.3777 105.197 71.9417 105.061 71.5817C104.925 71.2217 104.717 70.9457 104.437 70.7537C104.165 70.5537 103.809 70.4537 103.369 70.4537C102.713 70.4537 102.237 70.6697 101.941 71.1017C101.645 71.5337 101.497 72.1297 101.497 72.8897ZM113.466 67.5497C114.586 67.5497 115.402 67.7697 115.914 68.2097C116.426 68.6497 116.682 69.2697 116.682 70.0697C116.682 70.4217 116.622 70.7617 116.502 71.0897C116.39 71.4097 116.202 71.6977 115.938 71.9537C115.674 72.2097 115.322 72.4137 114.882 72.5657C114.442 72.7097 113.902 72.7817 113.262 72.7817H112.278V76.1177H111.198V67.5497H113.466ZM113.37 68.4737H112.278V71.8577H113.142C113.686 71.8577 114.138 71.8017 114.498 71.6897C114.858 71.5697 115.126 71.3817 115.302 71.1257C115.478 70.8697 115.566 70.5337 115.566 70.1177C115.566 69.5657 115.39 69.1537 115.038 68.8817C114.686 68.6097 114.13 68.4737 113.37 68.4737ZM120.803 69.5657C121.355 69.5657 121.827 69.6857 122.219 69.9257C122.619 70.1657 122.923 70.5057 123.131 70.9457C123.347 71.3777 123.455 71.8857 123.455 72.4697V73.1057H119.051C119.067 73.8337 119.251 74.3897 119.603 74.7737C119.963 75.1497 120.463 75.3377 121.103 75.3377C121.511 75.3377 121.871 75.3017 122.183 75.2297C122.503 75.1497 122.831 75.0377 123.167 74.8937V75.8177C122.839 75.9617 122.515 76.0657 122.195 76.1297C121.875 76.2017 121.495 76.2377 121.055 76.2377C120.447 76.2377 119.907 76.1137 119.435 75.8657C118.971 75.6177 118.607 75.2497 118.343 74.7617C118.087 74.2657 117.959 73.6617 117.959 72.9497C117.959 72.2457 118.075 71.6417 118.307 71.1377C118.547 70.6337 118.879 70.2457 119.303 69.9737C119.735 69.7017 120.235 69.5657 120.803 69.5657ZM120.791 70.4297C120.287 70.4297 119.887 70.5937 119.591 70.9217C119.303 71.2417 119.131 71.6897 119.075 72.2657H122.351C122.351 71.8977 122.295 71.5777 122.183 71.3057C122.071 71.0337 121.899 70.8217 121.667 70.6697C121.443 70.5097 121.151 70.4297 120.791 70.4297ZM127.673 76.2377C127.105 76.2377 126.597 76.1217 126.149 75.8897C125.709 75.6577 125.361 75.2977 125.105 74.8097C124.857 74.3217 124.733 73.6977 124.733 72.9377C124.733 72.1457 124.865 71.5017 125.129 71.0057C125.393 70.5097 125.749 70.1457 126.197 69.9137C126.653 69.6817 127.169 69.5657 127.745 69.5657C128.073 69.5657 128.389 69.6017 128.693 69.6737C128.997 69.7377 129.245 69.8177 129.437 69.9137L129.113 70.7897C128.921 70.7177 128.697 70.6497 128.441 70.5857C128.185 70.5217 127.945 70.4897 127.721 70.4897C127.289 70.4897 126.933 70.5817 126.653 70.7657C126.373 70.9497 126.165 71.2217 126.029 71.5817C125.893 71.9417 125.825 72.3897 125.825 72.9257C125.825 73.4377 125.893 73.8737 126.029 74.2337C126.165 74.5937 126.369 74.8657 126.641 75.0497C126.913 75.2337 127.253 75.3257 127.661 75.3257C128.013 75.3257 128.321 75.2897 128.585 75.2177C128.857 75.1457 129.105 75.0577 129.329 74.9537V75.8897C129.113 76.0017 128.873 76.0857 128.609 76.1417C128.353 76.2057 128.041 76.2377 127.673 76.2377ZM136.294 69.6857V76.1177H135.238V70.5857H131.914V76.1177H130.858V69.6857H136.294ZM137.339 69.6857H138.467L139.859 73.3457C139.939 73.5617 140.011 73.7697 140.075 73.9697C140.147 74.1697 140.211 74.3657 140.267 74.5577C140.323 74.7417 140.367 74.9217 140.399 75.0977H140.447C140.495 74.8977 140.571 74.6377 140.675 74.3177C140.779 73.9897 140.887 73.6617 140.999 73.3337L142.307 69.6857H143.447L140.675 77.0057C140.523 77.4057 140.343 77.7537 140.135 78.0497C139.935 78.3537 139.687 78.5857 139.391 78.7457C139.103 78.9137 138.751 78.9977 138.335 78.9977C138.143 78.9977 137.975 78.9857 137.831 78.9617C137.687 78.9457 137.563 78.9257 137.459 78.9017V78.0617C137.547 78.0777 137.651 78.0937 137.771 78.1097C137.899 78.1257 138.031 78.1337 138.167 78.1337C138.415 78.1337 138.627 78.0857 138.803 77.9897C138.987 77.9017 139.143 77.7697 139.271 77.5937C139.399 77.4257 139.507 77.2257 139.595 76.9937L139.931 76.1417L137.339 69.6857ZM144.128 72.2537C144.128 71.3177 144.22 70.5217 144.404 69.8657C144.596 69.2017 144.888 68.6737 145.28 68.2817C145.68 67.8817 146.192 67.6137 146.816 67.4777C147.336 67.3657 147.844 67.2657 148.34 67.1777C148.836 67.0897 149.3 67.0097 149.732 66.9377L149.912 67.8617C149.704 67.8937 149.472 67.9337 149.216 67.9817C148.96 68.0217 148.7 68.0657 148.436 68.1137C148.172 68.1537 147.916 68.1977 147.668 68.2457C147.428 68.2857 147.216 68.3257 147.032 68.3657C146.768 68.4217 146.532 68.5177 146.324 68.6537C146.116 68.7817 145.936 68.9577 145.784 69.1817C145.64 69.4057 145.524 69.6817 145.436 70.0097C145.348 70.3377 145.296 70.7257 145.28 71.1737H145.352C145.464 71.0217 145.616 70.8657 145.808 70.7057C146.008 70.5457 146.244 70.4097 146.516 70.2977C146.796 70.1857 147.112 70.1297 147.464 70.1297C148.024 70.1297 148.488 70.2537 148.856 70.5017C149.232 70.7417 149.512 71.0777 149.696 71.5097C149.888 71.9417 149.984 72.4457 149.984 73.0217C149.984 73.7337 149.86 74.3297 149.612 74.8097C149.364 75.2897 149.02 75.6497 148.58 75.8897C148.14 76.1217 147.628 76.2377 147.044 76.2377C146.604 76.2377 146.204 76.1537 145.844 75.9857C145.484 75.8097 145.176 75.5537 144.92 75.2177C144.664 74.8817 144.468 74.4657 144.332 73.9697C144.196 73.4737 144.128 72.9017 144.128 72.2537ZM147.128 75.3617C147.48 75.3617 147.784 75.2897 148.04 75.1457C148.304 75.0017 148.508 74.7657 148.652 74.4377C148.796 74.1097 148.868 73.6737 148.868 73.1297C148.868 72.4737 148.744 71.9577 148.496 71.5817C148.256 71.1977 147.856 71.0057 147.296 71.0057C146.944 71.0057 146.624 71.0857 146.336 71.2457C146.048 71.3977 145.808 71.5737 145.616 71.7737C145.424 71.9737 145.288 72.1417 145.208 72.2777C145.208 72.6697 145.236 73.0497 145.292 73.4177C145.348 73.7857 145.444 74.1177 145.58 74.4137C145.724 74.7017 145.92 74.9337 146.168 75.1097C146.424 75.2777 146.744 75.3617 147.128 75.3617ZM156.543 76.1177H155.475V70.5617H153.579C153.499 71.5777 153.399 72.4457 153.279 73.1657C153.159 73.8777 153.007 74.4577 152.823 74.9057C152.639 75.3537 152.419 75.6817 152.163 75.8897C151.907 76.0977 151.607 76.2017 151.263 76.2017C151.159 76.2017 151.055 76.1937 150.951 76.1777C150.855 76.1697 150.775 76.1497 150.711 76.1177V75.3257C150.759 75.3417 150.811 75.3537 150.867 75.3617C150.923 75.3697 150.979 75.3737 151.035 75.3737C151.211 75.3737 151.371 75.3017 151.515 75.1577C151.659 75.0137 151.787 74.7937 151.899 74.4977C152.019 74.2017 152.127 73.8297 152.223 73.3817C152.319 72.9257 152.403 72.3897 152.475 71.7737C152.547 71.1577 152.611 70.4617 152.667 69.6857H156.543V76.1177ZM159.581 73.6097C159.581 73.6817 159.577 73.7857 159.569 73.9217C159.569 74.0497 159.565 74.1897 159.557 74.3417C159.549 74.4857 159.541 74.6257 159.533 74.7617C159.525 74.8897 159.517 74.9937 159.509 75.0737L162.953 69.6857H164.249V76.1177H163.265V72.3257C163.265 72.1977 163.265 72.0297 163.265 71.8217C163.273 71.6137 163.281 71.4097 163.289 71.2097C163.297 71.0017 163.305 70.8457 163.313 70.7417L159.893 76.1177H158.585V69.6857H159.581V73.6097ZM170.1 69.6857H171.252L168.504 72.7817L171.48 76.1177H170.256L167.352 72.8537V76.1177H166.296V69.6857H167.352V72.8057L170.1 69.6857ZM174.897 69.5657C175.449 69.5657 175.921 69.6857 176.313 69.9257C176.713 70.1657 177.017 70.5057 177.225 70.9457C177.441 71.3777 177.549 71.8857 177.549 72.4697V73.1057H173.145C173.161 73.8337 173.345 74.3897 173.697 74.7737C174.057 75.1497 174.557 75.3377 175.197 75.3377C175.605 75.3377 175.965 75.3017 176.277 75.2297C176.597 75.1497 176.925 75.0377 177.261 74.8937V75.8177C176.933 75.9617 176.609 76.0657 176.289 76.1297C175.969 76.2017 175.589 76.2377 175.149 76.2377C174.541 76.2377 174.001 76.1137 173.529 75.8657C173.065 75.6177 172.701 75.2497 172.437 74.7617C172.181 74.2657 172.053 73.6617 172.053 72.9497C172.053 72.2457 172.169 71.6417 172.401 71.1377C172.641 70.6337 172.973 70.2457 173.397 69.9737C173.829 69.7017 174.329 69.5657 174.897 69.5657ZM174.885 70.4297C174.381 70.4297 173.981 70.5937 173.685 70.9217C173.397 71.2417 173.225 71.6897 173.169 72.2657H176.445C176.445 71.8977 176.389 71.5777 176.277 71.3057C176.165 71.0337 175.993 70.8217 175.761 70.6697C175.537 70.5097 175.245 70.4297 174.885 70.4297ZM186.026 68.3777C185.57 68.3777 185.158 68.4577 184.79 68.6177C184.422 68.7697 184.11 68.9977 183.854 69.3017C183.598 69.5977 183.402 69.9617 183.266 70.3937C183.13 70.8177 183.062 71.2977 183.062 71.8337C183.062 72.5377 183.17 73.1497 183.386 73.6697C183.61 74.1897 183.938 74.5897 184.37 74.8697C184.81 75.1497 185.358 75.2897 186.014 75.2897C186.39 75.2897 186.746 75.2577 187.082 75.1937C187.418 75.1297 187.746 75.0497 188.066 74.9537V75.8897C187.746 76.0097 187.414 76.0977 187.07 76.1537C186.734 76.2097 186.33 76.2377 185.858 76.2377C184.986 76.2377 184.258 76.0577 183.674 75.6977C183.09 75.3377 182.65 74.8257 182.354 74.1617C182.066 73.4977 181.922 72.7177 181.922 71.8217C181.922 71.1737 182.01 70.5817 182.186 70.0457C182.37 69.5097 182.634 69.0457 182.978 68.6537C183.33 68.2617 183.762 67.9617 184.274 67.7537C184.786 67.5377 185.374 67.4297 186.038 67.4297C186.478 67.4297 186.902 67.4737 187.31 67.5617C187.718 67.6497 188.082 67.7737 188.402 67.9337L187.97 68.8457C187.706 68.7257 187.41 68.6177 187.082 68.5217C186.762 68.4257 186.41 68.3777 186.026 68.3777ZM192.228 69.5777C193.012 69.5777 193.592 69.7497 193.968 70.0937C194.344 70.4377 194.532 70.9857 194.532 71.7377V76.1177H193.764L193.56 75.2057H193.512C193.328 75.4377 193.136 75.6337 192.936 75.7937C192.744 75.9457 192.52 76.0577 192.264 76.1297C192.016 76.2017 191.712 76.2377 191.352 76.2377C190.968 76.2377 190.62 76.1697 190.308 76.0337C190.004 75.8977 189.764 75.6897 189.588 75.4097C189.412 75.1217 189.324 74.7617 189.324 74.3297C189.324 73.6897 189.576 73.1977 190.08 72.8537C190.584 72.5017 191.36 72.3097 192.408 72.2777L193.5 72.2417V71.8577C193.5 71.3217 193.384 70.9497 193.152 70.7417C192.92 70.5337 192.592 70.4297 192.168 70.4297C191.832 70.4297 191.512 70.4817 191.208 70.5857C190.904 70.6817 190.62 70.7937 190.356 70.9217L190.032 70.1297C190.312 69.9777 190.644 69.8497 191.028 69.7457C191.412 69.6337 191.812 69.5777 192.228 69.5777ZM192.54 73.0097C191.74 73.0417 191.184 73.1697 190.872 73.3937C190.568 73.6177 190.416 73.9337 190.416 74.3417C190.416 74.7017 190.524 74.9657 190.74 75.1337C190.964 75.3017 191.248 75.3857 191.592 75.3857C192.136 75.3857 192.588 75.2377 192.948 74.9417C193.308 74.6377 193.488 74.1737 193.488 73.5497V72.9737L192.54 73.0097ZM198.043 72.8297L195.823 69.6857H197.023L198.679 72.1097L200.323 69.6857H201.511L199.291 72.8297L201.631 76.1177H200.431L198.679 73.5497L196.903 76.1177H195.715L198.043 72.8297ZM205.306 69.5777C206.09 69.5777 206.67 69.7497 207.046 70.0937C207.422 70.4377 207.61 70.9857 207.61 71.7377V76.1177H206.842L206.638 75.2057H206.59C206.406 75.4377 206.214 75.6337 206.014 75.7937C205.822 75.9457 205.598 76.0577 205.342 76.1297C205.094 76.2017 204.79 76.2377 204.43 76.2377C204.046 76.2377 203.698 76.1697 203.386 76.0337C203.082 75.8977 202.842 75.6897 202.666 75.4097C202.49 75.1217 202.402 74.7617 202.402 74.3297C202.402 73.6897 202.654 73.1977 203.158 72.8537C203.662 72.5017 204.438 72.3097 205.486 72.2777L206.578 72.2417V71.8577C206.578 71.3217 206.462 70.9497 206.23 70.7417C205.998 70.5337 205.67 70.4297 205.246 70.4297C204.91 70.4297 204.59 70.4817 204.286 70.5857C203.982 70.6817 203.698 70.7937 203.434 70.9217L203.11 70.1297C203.39 69.9777 203.722 69.8497 204.106 69.7457C204.49 69.6337 204.89 69.5777 205.306 69.5777ZM205.618 73.0097C204.818 73.0417 204.262 73.1697 203.95 73.3937C203.646 73.6177 203.494 73.9337 203.494 74.3417C203.494 74.7017 203.602 74.9657 203.818 75.1337C204.042 75.3017 204.326 75.3857 204.67 75.3857C205.214 75.3857 205.666 75.2377 206.026 74.9417C206.386 74.6377 206.566 74.1737 206.566 73.5497V72.9737L205.618 73.0097ZM29.489 97.8577C29.041 97.4257 28.637 96.9177 28.277 96.3337C27.925 95.7577 27.641 95.1177 27.425 94.4137C27.217 93.7017 27.113 92.9377 27.113 92.1217C27.113 91.3057 27.217 90.5457 27.425 89.8417C27.641 89.1297 27.925 88.4857 28.277 87.9097C28.637 87.3257 29.041 86.8177 29.489 86.3857H30.761V86.5057C30.041 87.2497 29.461 88.1017 29.021 89.0617C28.589 90.0217 28.373 91.0417 28.373 92.1217C28.373 93.2017 28.589 94.2217 29.021 95.1817C29.461 96.1417 30.045 96.9937 30.773 97.7377V97.8577H29.489ZM34.9339 92.5657L32.7139 96.1177H31.4539L33.8539 92.3737C33.5499 92.2697 33.2619 92.1257 32.9899 91.9417C32.7259 91.7577 32.5099 91.5057 32.3419 91.1857C32.1739 90.8657 32.0899 90.4537 32.0899 89.9497C32.0899 89.1737 32.3579 88.5817 32.8939 88.1737C33.4299 87.7577 34.2299 87.5497 35.2939 87.5497H37.6939V96.1177H36.6139V92.5657H34.9339ZM35.3179 88.4737C34.8619 88.4737 34.4779 88.5257 34.1659 88.6297C33.8539 88.7337 33.6139 88.8977 33.4459 89.1217C33.2859 89.3457 33.2059 89.6377 33.2059 89.9977C33.2059 90.5257 33.3819 90.9337 33.7339 91.2217C34.0859 91.5097 34.6299 91.6537 35.3659 91.6537H36.6139V88.4737H35.3179ZM43.678 89.6857H44.83L42.082 92.7817L45.058 96.1177H43.834L40.93 92.8537V96.1177H39.874V89.6857H40.93V92.8057L43.678 89.6857ZM45.2176 89.6857H46.3456L47.7376 93.3457C47.8176 93.5617 47.8896 93.7697 47.9536 93.9697C48.0256 94.1697 48.0896 94.3657 48.1456 94.5577C48.2016 94.7417 48.2456 94.9217 48.2776 95.0977H48.3256C48.3736 94.8977 48.4496 94.6377 48.5536 94.3177C48.6576 93.9897 48.7656 93.6617 48.8776 93.3337L50.1856 89.6857H51.3256L48.5536 97.0057C48.4016 97.4057 48.2216 97.7537 48.0136 98.0497C47.8136 98.3537 47.5656 98.5857 47.2696 98.7457C46.9816 98.9137 46.6296 98.9977 46.2136 98.9977C46.0216 98.9977 45.8536 98.9857 45.7096 98.9617C45.5656 98.9457 45.4416 98.9257 45.3376 98.9017V98.0617C45.4256 98.0777 45.5296 98.0937 45.6496 98.1097C45.7776 98.1257 45.9096 98.1337 46.0456 98.1337C46.2936 98.1337 46.5056 98.0857 46.6816 97.9897C46.8656 97.9017 47.0216 97.7697 47.1496 97.5937C47.2776 97.4257 47.3856 97.2257 47.4736 96.9937L47.8096 96.1417L45.2176 89.6857ZM56.7828 90.5737H54.6828V96.1177H53.6388V90.5737H51.5628V89.6857H56.7828V90.5737ZM59.0458 93.6097C59.0458 93.6817 59.0418 93.7857 59.0338 93.9217C59.0338 94.0497 59.0298 94.1897 59.0218 94.3417C59.0138 94.4857 59.0058 94.6257 58.9978 94.7617C58.9898 94.8897 58.9818 94.9937 58.9738 95.0737L62.4178 89.6857H63.7138V96.1177H62.7298V92.3257C62.7298 92.1977 62.7298 92.0297 62.7298 91.8217C62.7378 91.6137 62.7458 91.4097 62.7538 91.2097C62.7618 91.0017 62.7698 90.8457 62.7778 90.7417L59.3578 96.1177H58.0498V89.6857H59.0458V93.6097ZM66.1567 96.1177H64.9327L66.7687 93.4177C66.5207 93.3537 66.2807 93.2537 66.0487 93.1177C65.8167 92.9737 65.6287 92.7777 65.4847 92.5297C65.3407 92.2737 65.2687 91.9577 65.2687 91.5817C65.2687 90.9657 65.4767 90.4977 65.8927 90.1777C66.3087 89.8497 66.8607 89.6857 67.5487 89.6857H70.4287V96.1177H69.3727V93.5617H67.8127L66.1567 96.1177ZM66.2887 91.5937C66.2887 91.9617 66.4247 92.2377 66.6967 92.4217C66.9767 92.5977 67.3647 92.6857 67.8607 92.6857H69.3727V90.5617H67.6567C67.1687 90.5617 66.8167 90.6577 66.6007 90.8497C66.3927 91.0417 66.2887 91.2897 66.2887 91.5937ZM71.8638 97.8577V97.7377C72.5838 96.9937 73.1638 96.1417 73.6038 95.1817C74.0438 94.2217 74.2638 93.2017 74.2638 92.1217C74.2638 91.0417 74.0438 90.0217 73.6038 89.0617C73.1718 88.1017 72.5958 87.2497 71.8758 86.5057V86.3857H73.1478C73.5878 86.8177 73.9878 87.3257 74.3478 87.9097C74.7078 88.4857 74.9918 89.1297 75.1998 89.8417C75.4158 90.5457 75.5238 91.3057 75.5238 92.1217C75.5238 92.9377 75.4158 93.7017 75.1998 94.4137C74.9918 95.1177 74.7078 95.7577 74.3478 96.3337C73.9878 96.9177 73.5878 97.4257 73.1478 97.8577H71.8638ZM76.1688 97.5337L76.8648 94.7017H78.1248L77.0208 97.5337H76.1688ZM84.0174 91.7257C83.6414 91.7257 83.3014 91.6417 82.9974 91.4737C82.7014 91.3057 82.4654 91.0697 82.2894 90.7657C82.1134 90.4537 82.0254 90.0817 82.0254 89.6497C82.0254 89.2257 82.1134 88.8617 82.2894 88.5577C82.4654 88.2457 82.7054 88.0057 83.0094 87.8377C83.3134 87.6697 83.6534 87.5857 84.0294 87.5857C84.3974 87.5857 84.7294 87.6697 85.0254 87.8377C85.3294 88.0057 85.5694 88.2457 85.7454 88.5577C85.9214 88.8617 86.0094 89.2257 86.0094 89.6497C86.0094 90.0817 85.9214 90.4537 85.7454 90.7657C85.5694 91.0697 85.3294 91.3057 85.0254 91.4737C84.7294 91.6417 84.3934 91.7257 84.0174 91.7257ZM83.4174 96.1177L88.2294 87.7177H89.4774L84.6774 96.1177H83.4174ZM84.0174 90.8137C84.2734 90.8137 84.4934 90.7177 84.6774 90.5257C84.8694 90.3257 84.9654 90.0337 84.9654 89.6497C84.9654 89.2657 84.8734 88.9777 84.6894 88.7857C84.5054 88.5857 84.2814 88.4857 84.0174 88.4857C83.7614 88.4857 83.5374 88.5857 83.3454 88.7857C83.1534 88.9777 83.0574 89.2657 83.0574 89.6497C83.0574 90.0337 83.1494 90.3257 83.3334 90.5257C83.5254 90.7177 83.7534 90.8137 84.0174 90.8137ZM88.9494 96.2617C88.5734 96.2617 88.2334 96.1777 87.9294 96.0097C87.6334 95.8417 87.3974 95.6057 87.2214 95.3017C87.0454 94.9897 86.9574 94.6177 86.9574 94.1857C86.9574 93.7617 87.0454 93.3937 87.2214 93.0817C87.3974 92.7697 87.6374 92.5297 87.9414 92.3617C88.2454 92.1937 88.5854 92.1097 88.9614 92.1097C89.3294 92.1097 89.6614 92.1937 89.9574 92.3617C90.2614 92.5297 90.5014 92.7697 90.6774 93.0817C90.8534 93.3937 90.9414 93.7617 90.9414 94.1857C90.9414 94.6177 90.8534 94.9897 90.6774 95.3017C90.5014 95.6057 90.2614 95.8417 89.9574 96.0097C89.6614 96.1777 89.3254 96.2617 88.9494 96.2617ZM88.9494 95.3377C89.2054 95.3377 89.4254 95.2417 89.6094 95.0497C89.8014 94.8577 89.8974 94.5697 89.8974 94.1857C89.8974 93.8017 89.8054 93.5137 89.6214 93.3217C89.4374 93.1217 89.2134 93.0217 88.9494 93.0217C88.6934 93.0217 88.4694 93.1217 88.2774 93.3217C88.0854 93.5137 87.9894 93.8017 87.9894 94.1857C87.9894 94.5697 88.0814 94.8577 88.2654 95.0497C88.4574 95.2417 88.6854 95.3377 88.9494 95.3377Z" fill="black"/>
<path d="M26.561 172.449C26.561 170.24 28.3519 168.449 30.561 168.449C32.7702 168.449 34.561 170.24 34.561 172.449V225.449C34.561 227.659 32.7702 229.449 30.561 229.449C28.3519 229.449 26.561 227.659 26.561 225.449V172.449Z" fill="#EA5858"/>
<path d="M52.561 164.449C52.561 162.24 54.3519 160.449 56.561 160.449C58.7702 160.449 60.561 162.24 60.561 164.449V225.449C60.561 227.659 58.7702 229.449 56.561 229.449C54.3519 229.449 52.561 227.659 52.561 225.449V164.449Z" fill="#EA5858"/>
<path d="M77.561 159.449C77.561 157.24 79.3519 155.449 81.561 155.449C83.7702 155.449 85.561 157.24 85.561 159.449V225.449C85.561 227.659 83.7702 229.449 81.561 229.449C79.3519 229.449 77.561 227.659 77.561 225.449V159.449Z" fill="#EA5858"/>
<path d="M103.561 153.449C103.561 151.24 105.352 149.449 107.561 149.449C109.77 149.449 111.561 151.24 111.561 153.449V225.449C111.561 227.659 109.77 229.449 107.561 229.449C105.352 229.449 103.561 227.659 103.561 225.449V153.449Z" fill="#EA5858"/>
<path d="M129.561 145.449C129.561 143.24 131.352 141.449 133.561 141.449C135.77 141.449 137.561 143.24 137.561 145.449V225.449C137.561 227.659 135.77 229.449 133.561 229.449C131.352 229.449 129.561 227.659 129.561 225.449V145.449Z" fill="#EA5858"/>
<path d="M155.561 136.449C155.561 134.24 157.352 132.449 159.561 132.449C161.77 132.449 163.561 134.24 163.561 136.449V225.449C163.561 227.659 161.77 229.449 159.561 229.449C157.352 229.449 155.561 227.659 155.561 225.449V136.449Z" fill="#EA5858"/>
<path d="M181.561 130.449C181.561 128.24 183.352 126.449 185.561 126.449C187.77 126.449 189.561 128.24 189.561 130.449V225.449C189.561 227.659 187.77 229.449 185.561 229.449C183.352 229.449 181.561 227.659 181.561 225.449V130.449Z" fill="#EA5858"/>
<path d="M206.561 115.449C206.561 113.24 208.352 111.449 210.561 111.449C212.77 111.449 214.561 113.24 214.561 115.449V225.449C214.561 227.659 212.77 229.449 210.561 229.449C208.352 229.449 206.561 227.659 206.561 225.449V115.449Z" fill="#EA5858"/>
<path d="M234.561 107.449C234.561 105.24 236.352 103.449 238.561 103.449C240.77 103.449 242.561 105.24 242.561 107.449V225.449C242.561 227.659 240.77 229.449 238.561 229.449C236.352 229.449 234.561 227.659 234.561 225.449V107.449Z" fill="#EA5858"/>
<path d="M20.074 242.449V241.765C20.482 241.441 20.872 241.114 21.244 240.784C21.616 240.454 21.946 240.13 22.234 239.812C22.528 239.488 22.759 239.173 22.927 238.867C23.095 238.555 23.179 238.255 23.179 237.967C23.179 237.775 23.146 237.595 23.08 237.427C23.014 237.253 22.906 237.115 22.756 237.013C22.606 236.905 22.405 236.851 22.153 236.851C21.775 236.851 21.49 236.971 21.298 237.211C21.112 237.451 21.022 237.739 21.028 238.075H20.101C20.107 237.631 20.2 237.259 20.38 236.959C20.566 236.659 20.812 236.431 21.118 236.275C21.43 236.119 21.781 236.041 22.171 236.041C22.765 236.041 23.239 236.209 23.593 236.545C23.953 236.875 24.133 237.337 24.133 237.931C24.133 238.285 24.046 238.636 23.872 238.984C23.704 239.332 23.482 239.668 23.206 239.992C22.936 240.31 22.645 240.61 22.333 240.892C22.021 241.174 21.724 241.429 21.442 241.657H24.322V242.449H20.074ZM27.8001 242.557C27.2301 242.557 26.7381 242.422 26.3241 242.152C25.9161 241.876 25.6011 241.495 25.3791 241.009C25.1631 240.517 25.0551 239.947 25.0551 239.299C25.0551 238.651 25.1631 238.084 25.3791 237.598C25.6011 237.106 25.9161 236.725 26.3241 236.455C26.7381 236.179 27.2301 236.041 27.8001 236.041C28.3701 236.041 28.8591 236.179 29.2671 236.455C29.6751 236.725 29.9871 237.106 30.2031 237.598C30.4251 238.084 30.5361 238.651 30.5361 239.299C30.5361 239.947 30.4251 240.517 30.2031 241.009C29.9871 241.495 29.6751 241.876 29.2671 242.152C28.8591 242.422 28.3701 242.557 27.8001 242.557ZM27.8001 241.702C28.1421 241.702 28.4451 241.606 28.7091 241.414C28.9791 241.222 29.1891 240.946 29.3391 240.586C29.4891 240.226 29.5641 239.797 29.5641 239.299C29.5641 238.801 29.4891 238.372 29.3391 238.012C29.1891 237.652 28.9791 237.376 28.7091 237.184C28.4451 236.992 28.1421 236.896 27.8001 236.896C27.4521 236.896 27.1461 236.992 26.8821 237.184C26.6181 237.376 26.4111 237.652 26.2611 238.012C26.1111 238.372 26.0361 238.801 26.0361 239.299C26.0361 239.797 26.1111 240.226 26.2611 240.586C26.4111 240.946 26.6181 241.222 26.8821 241.414C27.1461 241.606 27.4521 241.702 27.8001 241.702ZM32.2474 242.449V237.229L31.2304 237.463V236.761L32.6254 236.149H33.2374V242.449H32.2474ZM37.0374 242.557C36.4674 242.557 35.9754 242.422 35.5614 242.152C35.1534 241.876 34.8384 241.495 34.6164 241.009C34.4004 240.517 34.2924 239.947 34.2924 239.299C34.2924 238.651 34.4004 238.084 34.6164 237.598C34.8384 237.106 35.1534 236.725 35.5614 236.455C35.9754 236.179 36.4674 236.041 37.0374 236.041C37.6074 236.041 38.0964 236.179 38.5044 236.455C38.9124 236.725 39.2244 237.106 39.4404 237.598C39.6624 238.084 39.7734 238.651 39.7734 239.299C39.7734 239.947 39.6624 240.517 39.4404 241.009C39.2244 241.495 38.9124 241.876 38.5044 242.152C38.0964 242.422 37.6074 242.557 37.0374 242.557ZM37.0374 241.702C37.3794 241.702 37.6824 241.606 37.9464 241.414C38.2164 241.222 38.4264 240.946 38.5764 240.586C38.7264 240.226 38.8014 239.797 38.8014 239.299C38.8014 238.801 38.7264 238.372 38.5764 238.012C38.4264 237.652 38.2164 237.376 37.9464 237.184C37.6824 236.992 37.3794 236.896 37.0374 236.896C36.6894 236.896 36.3834 236.992 36.1194 237.184C35.8554 237.376 35.6484 237.652 35.4984 238.012C35.3484 238.372 35.2734 238.801 35.2734 239.299C35.2734 239.797 35.3484 240.226 35.4984 240.586C35.6484 240.946 35.8554 241.222 36.1194 241.414C36.3834 241.606 36.6894 241.702 37.0374 241.702Z" fill="black" fill-opacity="0.5"/>
<path d="M46.074 242.449V241.765C46.482 241.441 46.872 241.114 47.244 240.784C47.616 240.454 47.946 240.13 48.234 239.812C48.528 239.488 48.759 239.173 48.927 238.867C49.095 238.555 49.179 238.255 49.179 237.967C49.179 237.775 49.146 237.595 49.08 237.427C49.014 237.253 48.906 237.115 48.756 237.013C48.606 236.905 48.405 236.851 48.153 236.851C47.775 236.851 47.49 236.971 47.298 237.211C47.112 237.451 47.022 237.739 47.028 238.075H46.101C46.107 237.631 46.2 237.259 46.38 236.959C46.566 236.659 46.812 236.431 47.118 236.275C47.43 236.119 47.781 236.041 48.171 236.041C48.765 236.041 49.239 236.209 49.593 236.545C49.953 236.875 50.133 237.337 50.133 237.931C50.133 238.285 50.046 238.636 49.872 238.984C49.704 239.332 49.482 239.668 49.206 239.992C48.936 240.31 48.645 240.61 48.333 240.892C48.021 241.174 47.724 241.429 47.442 241.657H50.322V242.449H46.074ZM53.8001 242.557C53.2301 242.557 52.7381 242.422 52.3241 242.152C51.9161 241.876 51.6011 241.495 51.3791 241.009C51.1631 240.517 51.0551 239.947 51.0551 239.299C51.0551 238.651 51.1631 238.084 51.3791 237.598C51.6011 237.106 51.9161 236.725 52.3241 236.455C52.7381 236.179 53.2301 236.041 53.8001 236.041C54.3701 236.041 54.8591 236.179 55.2671 236.455C55.6751 236.725 55.9871 237.106 56.2031 237.598C56.4251 238.084 56.5361 238.651 56.5361 239.299C56.5361 239.947 56.4251 240.517 56.2031 241.009C55.9871 241.495 55.6751 241.876 55.2671 242.152C54.8591 242.422 54.3701 242.557 53.8001 242.557ZM53.8001 241.702C54.1421 241.702 54.4451 241.606 54.7091 241.414C54.9791 241.222 55.1891 240.946 55.3391 240.586C55.4891 240.226 55.5641 239.797 55.5641 239.299C55.5641 238.801 55.4891 238.372 55.3391 238.012C55.1891 237.652 54.9791 237.376 54.7091 237.184C54.4451 236.992 54.1421 236.896 53.8001 236.896C53.4521 236.896 53.1461 236.992 52.8821 237.184C52.6181 237.376 52.4111 237.652 52.2611 238.012C52.1111 238.372 52.0361 238.801 52.0361 239.299C52.0361 239.797 52.1111 240.226 52.2611 240.586C52.4111 240.946 52.6181 241.222 52.8821 241.414C53.1461 241.606 53.4521 241.702 53.8001 241.702ZM58.2474 242.449V237.229L57.2304 237.463V236.761L58.6254 236.149H59.2374V242.449H58.2474ZM61.1654 242.449V237.229L60.1484 237.463V236.761L61.5434 236.149H62.1554V242.449H61.1654Z" fill="black" fill-opacity="0.5"/>
<path d="M73.074 242.449V241.765C73.482 241.441 73.872 241.114 74.244 240.784C74.616 240.454 74.946 240.13 75.234 239.812C75.528 239.488 75.759 239.173 75.927 238.867C76.095 238.555 76.179 238.255 76.179 237.967C76.179 237.775 76.146 237.595 76.08 237.427C76.014 237.253 75.906 237.115 75.756 237.013C75.606 236.905 75.405 236.851 75.153 236.851C74.775 236.851 74.49 236.971 74.298 237.211C74.112 237.451 74.022 237.739 74.028 238.075H73.101C73.107 237.631 73.2 237.259 73.38 236.959C73.566 236.659 73.812 236.431 74.118 236.275C74.43 236.119 74.781 236.041 75.171 236.041C75.765 236.041 76.239 236.209 76.593 236.545C76.953 236.875 77.133 237.337 77.133 237.931C77.133 238.285 77.046 238.636 76.872 238.984C76.704 239.332 76.482 239.668 76.206 239.992C75.936 240.31 75.645 240.61 75.333 240.892C75.021 241.174 74.724 241.429 74.442 241.657H77.322V242.449H73.074ZM80.8001 242.557C80.2301 242.557 79.7381 242.422 79.3241 242.152C78.9161 241.876 78.6011 241.495 78.3791 241.009C78.1631 240.517 78.0551 239.947 78.0551 239.299C78.0551 238.651 78.1631 238.084 78.3791 237.598C78.6011 237.106 78.9161 236.725 79.3241 236.455C79.7381 236.179 80.2301 236.041 80.8001 236.041C81.3701 236.041 81.8591 236.179 82.2671 236.455C82.6751 236.725 82.9871 237.106 83.2031 237.598C83.4251 238.084 83.5361 238.651 83.5361 239.299C83.5361 239.947 83.4251 240.517 83.2031 241.009C82.9871 241.495 82.6751 241.876 82.2671 242.152C81.8591 242.422 81.3701 242.557 80.8001 242.557ZM80.8001 241.702C81.1421 241.702 81.4451 241.606 81.7091 241.414C81.9791 241.222 82.1891 240.946 82.3391 240.586C82.4891 240.226 82.5641 239.797 82.5641 239.299C82.5641 238.801 82.4891 238.372 82.3391 238.012C82.1891 237.652 81.9791 237.376 81.7091 237.184C81.4451 236.992 81.1421 236.896 80.8001 236.896C80.4521 236.896 80.1461 236.992 79.8821 237.184C79.6181 237.376 79.4111 237.652 79.2611 238.012C79.1111 238.372 79.0361 238.801 79.0361 239.299C79.0361 239.797 79.1111 240.226 79.2611 240.586C79.4111 240.946 79.6181 241.222 79.8821 241.414C80.1461 241.606 80.4521 241.702 80.8001 241.702ZM85.2474 242.449V237.229L84.2304 237.463V236.761L85.6254 236.149H86.2374V242.449H85.2474ZM87.3914 242.449V241.765C87.7994 241.441 88.1894 241.114 88.5614 240.784C88.9334 240.454 89.2634 240.13 89.5514 239.812C89.8454 239.488 90.0764 239.173 90.2444 238.867C90.4124 238.555 90.4964 238.255 90.4964 237.967C90.4964 237.775 90.4634 237.595 90.3974 237.427C90.3314 237.253 90.2234 237.115 90.0734 237.013C89.9234 236.905 89.7224 236.851 89.4704 236.851C89.0924 236.851 88.8074 236.971 88.6154 237.211C88.4294 237.451 88.3394 237.739 88.3454 238.075H87.4184C87.4244 237.631 87.5174 237.259 87.6974 236.959C87.8834 236.659 88.1294 236.431 88.4354 236.275C88.7474 236.119 89.0984 236.041 89.4884 236.041C90.0824 236.041 90.5564 236.209 90.9104 236.545C91.2704 236.875 91.4504 237.337 91.4504 237.931C91.4504 238.285 91.3634 238.636 91.1894 238.984C91.0214 239.332 90.7994 239.668 90.5234 239.992C90.2534 240.31 89.9624 240.61 89.6504 240.892C89.3384 241.174 89.0414 241.429 88.7594 241.657H91.6394V242.449H87.3914Z" fill="black" fill-opacity="0.5"/>
<path d="M99.074 242.449V241.765C99.482 241.441 99.872 241.114 100.244 240.784C100.616 240.454 100.946 240.13 101.234 239.812C101.528 239.488 101.759 239.173 101.927 238.867C102.095 238.555 102.179 238.255 102.179 237.967C102.179 237.775 102.146 237.595 102.08 237.427C102.014 237.253 101.906 237.115 101.756 237.013C101.606 236.905 101.405 236.851 101.153 236.851C100.775 236.851 100.49 236.971 100.298 237.211C100.112 237.451 100.022 237.739 100.028 238.075H99.101C99.107 237.631 99.2 237.259 99.38 236.959C99.566 236.659 99.812 236.431 100.118 236.275C100.43 236.119 100.781 236.041 101.171 236.041C101.765 236.041 102.239 236.209 102.593 236.545C102.953 236.875 103.133 237.337 103.133 237.931C103.133 238.285 103.046 238.636 102.872 238.984C102.704 239.332 102.482 239.668 102.206 239.992C101.936 240.31 101.645 240.61 101.333 240.892C101.021 241.174 100.724 241.429 100.442 241.657H103.322V242.449H99.074ZM106.8 242.557C106.23 242.557 105.738 242.422 105.324 242.152C104.916 241.876 104.601 241.495 104.379 241.009C104.163 240.517 104.055 239.947 104.055 239.299C104.055 238.651 104.163 238.084 104.379 237.598C104.601 237.106 104.916 236.725 105.324 236.455C105.738 236.179 106.23 236.041 106.8 236.041C107.37 236.041 107.859 236.179 108.267 236.455C108.675 236.725 108.987 237.106 109.203 237.598C109.425 238.084 109.536 238.651 109.536 239.299C109.536 239.947 109.425 240.517 109.203 241.009C108.987 241.495 108.675 241.876 108.267 242.152C107.859 242.422 107.37 242.557 106.8 242.557ZM106.8 241.702C107.142 241.702 107.445 241.606 107.709 241.414C107.979 241.222 108.189 240.946 108.339 240.586C108.489 240.226 108.564 239.797 108.564 239.299C108.564 238.801 108.489 238.372 108.339 238.012C108.189 237.652 107.979 237.376 107.709 237.184C107.445 236.992 107.142 236.896 106.8 236.896C106.452 236.896 106.146 236.992 105.882 237.184C105.618 237.376 105.411 237.652 105.261 238.012C105.111 238.372 105.036 238.801 105.036 239.299C105.036 239.797 105.111 240.226 105.261 240.586C105.411 240.946 105.618 241.222 105.882 241.414C106.146 241.606 106.452 241.702 106.8 241.702ZM111.247 242.449V237.229L110.23 237.463V236.761L111.625 236.149H112.237V242.449H111.247ZM115.533 242.557C115.125 242.557 114.753 242.485 114.417 242.341C114.087 242.191 113.823 241.966 113.625 241.666C113.427 241.366 113.322 240.991 113.31 240.541H114.255C114.267 240.877 114.381 241.162 114.597 241.396C114.819 241.624 115.131 241.738 115.533 241.738C115.917 241.738 116.211 241.633 116.415 241.423C116.619 241.207 116.721 240.94 116.721 240.622C116.721 240.238 116.583 239.953 116.307 239.767C116.037 239.581 115.704 239.488 115.308 239.488H114.84V238.696H115.317C115.671 238.696 115.956 238.612 116.172 238.444C116.394 238.276 116.505 238.039 116.505 237.733C116.505 237.475 116.418 237.265 116.244 237.103C116.076 236.941 115.836 236.86 115.524 236.86C115.2 236.86 114.945 236.956 114.759 237.148C114.573 237.334 114.471 237.568 114.453 237.85H113.508C113.52 237.484 113.61 237.166 113.778 236.896C113.952 236.626 114.189 236.416 114.489 236.266C114.789 236.116 115.134 236.041 115.524 236.041C115.944 236.041 116.295 236.116 116.577 236.266C116.865 236.41 117.081 236.608 117.225 236.86C117.375 237.106 117.45 237.376 117.45 237.67C117.45 238.006 117.357 238.3 117.171 238.552C116.985 238.804 116.736 238.972 116.424 239.056C116.784 239.134 117.081 239.311 117.315 239.587C117.549 239.857 117.666 240.208 117.666 240.64C117.666 240.988 117.585 241.309 117.423 241.603C117.261 241.891 117.021 242.122 116.703 242.296C116.385 242.47 115.995 242.557 115.533 242.557Z" fill="black" fill-opacity="0.5"/>
<path d="M125.074 242.449V241.765C125.482 241.441 125.872 241.114 126.244 240.784C126.616 240.454 126.946 240.13 127.234 239.812C127.528 239.488 127.759 239.173 127.927 238.867C128.095 238.555 128.179 238.255 128.179 237.967C128.179 237.775 128.146 237.595 128.08 237.427C128.014 237.253 127.906 237.115 127.756 237.013C127.606 236.905 127.405 236.851 127.153 236.851C126.775 236.851 126.49 236.971 126.298 237.211C126.112 237.451 126.022 237.739 126.028 238.075H125.101C125.107 237.631 125.2 237.259 125.38 236.959C125.566 236.659 125.812 236.431 126.118 236.275C126.43 236.119 126.781 236.041 127.171 236.041C127.765 236.041 128.239 236.209 128.593 236.545C128.953 236.875 129.133 237.337 129.133 237.931C129.133 238.285 129.046 238.636 128.872 238.984C128.704 239.332 128.482 239.668 128.206 239.992C127.936 240.31 127.645 240.61 127.333 240.892C127.021 241.174 126.724 241.429 126.442 241.657H129.322V242.449H125.074ZM132.8 242.557C132.23 242.557 131.738 242.422 131.324 242.152C130.916 241.876 130.601 241.495 130.379 241.009C130.163 240.517 130.055 239.947 130.055 239.299C130.055 238.651 130.163 238.084 130.379 237.598C130.601 237.106 130.916 236.725 131.324 236.455C131.738 236.179 132.23 236.041 132.8 236.041C133.37 236.041 133.859 236.179 134.267 236.455C134.675 236.725 134.987 237.106 135.203 237.598C135.425 238.084 135.536 238.651 135.536 239.299C135.536 239.947 135.425 240.517 135.203 241.009C134.987 241.495 134.675 241.876 134.267 242.152C133.859 242.422 133.37 242.557 132.8 242.557ZM132.8 241.702C133.142 241.702 133.445 241.606 133.709 241.414C133.979 241.222 134.189 240.946 134.339 240.586C134.489 240.226 134.564 239.797 134.564 239.299C134.564 238.801 134.489 238.372 134.339 238.012C134.189 237.652 133.979 237.376 133.709 237.184C133.445 236.992 133.142 236.896 132.8 236.896C132.452 236.896 132.146 236.992 131.882 237.184C131.618 237.376 131.411 237.652 131.261 238.012C131.111 238.372 131.036 238.801 131.036 239.299C131.036 239.797 131.111 240.226 131.261 240.586C131.411 240.946 131.618 241.222 131.882 241.414C132.146 241.606 132.452 241.702 132.8 241.702ZM137.247 242.449V237.229L136.23 237.463V236.761L137.625 236.149H138.237V242.449H137.247ZM142.388 242.449V241.189H139.229V240.433L142.235 236.149H143.333V240.361H144.215V241.189H143.333V242.449H142.388ZM140.264 240.361H142.442V237.202L140.264 240.361Z" fill="black" fill-opacity="0.5"/>
<path d="M151.074 242.449V241.765C151.482 241.441 151.872 241.114 152.244 240.784C152.616 240.454 152.946 240.13 153.234 239.812C153.528 239.488 153.759 239.173 153.927 238.867C154.095 238.555 154.179 238.255 154.179 237.967C154.179 237.775 154.146 237.595 154.08 237.427C154.014 237.253 153.906 237.115 153.756 237.013C153.606 236.905 153.405 236.851 153.153 236.851C152.775 236.851 152.49 236.971 152.298 237.211C152.112 237.451 152.022 237.739 152.028 238.075H151.101C151.107 237.631 151.2 237.259 151.38 236.959C151.566 236.659 151.812 236.431 152.118 236.275C152.43 236.119 152.781 236.041 153.171 236.041C153.765 236.041 154.239 236.209 154.593 236.545C154.953 236.875 155.133 237.337 155.133 237.931C155.133 238.285 155.046 238.636 154.872 238.984C154.704 239.332 154.482 239.668 154.206 239.992C153.936 240.31 153.645 240.61 153.333 240.892C153.021 241.174 152.724 241.429 152.442 241.657H155.322V242.449H151.074ZM158.8 242.557C158.23 242.557 157.738 242.422 157.324 242.152C156.916 241.876 156.601 241.495 156.379 241.009C156.163 240.517 156.055 239.947 156.055 239.299C156.055 238.651 156.163 238.084 156.379 237.598C156.601 237.106 156.916 236.725 157.324 236.455C157.738 236.179 158.23 236.041 158.8 236.041C159.37 236.041 159.859 236.179 160.267 236.455C160.675 236.725 160.987 237.106 161.203 237.598C161.425 238.084 161.536 238.651 161.536 239.299C161.536 239.947 161.425 240.517 161.203 241.009C160.987 241.495 160.675 241.876 160.267 242.152C159.859 242.422 159.37 242.557 158.8 242.557ZM158.8 241.702C159.142 241.702 159.445 241.606 159.709 241.414C159.979 241.222 160.189 240.946 160.339 240.586C160.489 240.226 160.564 239.797 160.564 239.299C160.564 238.801 160.489 238.372 160.339 238.012C160.189 237.652 159.979 237.376 159.709 237.184C159.445 236.992 159.142 236.896 158.8 236.896C158.452 236.896 158.146 236.992 157.882 237.184C157.618 237.376 157.411 237.652 157.261 238.012C157.111 238.372 157.036 238.801 157.036 239.299C157.036 239.797 157.111 240.226 157.261 240.586C157.411 240.946 157.618 241.222 157.882 241.414C158.146 241.606 158.452 241.702 158.8 241.702ZM163.247 242.449V237.229L162.23 237.463V236.761L163.625 236.149H164.237V242.449H163.247ZM167.713 242.557C167.269 242.557 166.885 242.479 166.561 242.323C166.237 242.161 165.979 241.942 165.787 241.666C165.601 241.384 165.487 241.066 165.445 240.712H166.381C166.441 241.012 166.591 241.261 166.831 241.459C167.071 241.651 167.368 241.747 167.722 241.747C167.986 241.747 168.214 241.684 168.406 241.558C168.598 241.426 168.748 241.252 168.856 241.036C168.964 240.82 169.018 240.577 169.018 240.307C169.018 239.881 168.898 239.542 168.658 239.29C168.418 239.032 168.115 238.903 167.749 238.903C167.437 238.903 167.17 238.978 166.948 239.128C166.726 239.272 166.564 239.455 166.462 239.677H165.553L166.093 236.149H169.495V236.986H166.813L166.489 238.669C166.627 238.513 166.816 238.384 167.056 238.282C167.302 238.174 167.578 238.12 167.884 238.12C168.31 238.12 168.676 238.219 168.982 238.417C169.288 238.609 169.522 238.87 169.684 239.2C169.852 239.53 169.936 239.896 169.936 240.298C169.936 240.718 169.846 241.099 169.666 241.441C169.486 241.783 169.228 242.056 168.892 242.26C168.562 242.458 168.169 242.557 167.713 242.557Z" fill="black" fill-opacity="0.5"/>
<path d="M178.074 242.449V241.765C178.482 241.441 178.872 241.114 179.244 240.784C179.616 240.454 179.946 240.13 180.234 239.812C180.528 239.488 180.759 239.173 180.927 238.867C181.095 238.555 181.179 238.255 181.179 237.967C181.179 237.775 181.146 237.595 181.08 237.427C181.014 237.253 180.906 237.115 180.756 237.013C180.606 236.905 180.405 236.851 180.153 236.851C179.775 236.851 179.49 236.971 179.298 237.211C179.112 237.451 179.022 237.739 179.028 238.075H178.101C178.107 237.631 178.2 237.259 178.38 236.959C178.566 236.659 178.812 236.431 179.118 236.275C179.43 236.119 179.781 236.041 180.171 236.041C180.765 236.041 181.239 236.209 181.593 236.545C181.953 236.875 182.133 237.337 182.133 237.931C182.133 238.285 182.046 238.636 181.872 238.984C181.704 239.332 181.482 239.668 181.206 239.992C180.936 240.31 180.645 240.61 180.333 240.892C180.021 241.174 179.724 241.429 179.442 241.657H182.322V242.449H178.074ZM185.8 242.557C185.23 242.557 184.738 242.422 184.324 242.152C183.916 241.876 183.601 241.495 183.379 241.009C183.163 240.517 183.055 239.947 183.055 239.299C183.055 238.651 183.163 238.084 183.379 237.598C183.601 237.106 183.916 236.725 184.324 236.455C184.738 236.179 185.23 236.041 185.8 236.041C186.37 236.041 186.859 236.179 187.267 236.455C187.675 236.725 187.987 237.106 188.203 237.598C188.425 238.084 188.536 238.651 188.536 239.299C188.536 239.947 188.425 240.517 188.203 241.009C187.987 241.495 187.675 241.876 187.267 242.152C186.859 242.422 186.37 242.557 185.8 242.557ZM185.8 241.702C186.142 241.702 186.445 241.606 186.709 241.414C186.979 241.222 187.189 240.946 187.339 240.586C187.489 240.226 187.564 239.797 187.564 239.299C187.564 238.801 187.489 238.372 187.339 238.012C187.189 237.652 186.979 237.376 186.709 237.184C186.445 236.992 186.142 236.896 185.8 236.896C185.452 236.896 185.146 236.992 184.882 237.184C184.618 237.376 184.411 237.652 184.261 238.012C184.111 238.372 184.036 238.801 184.036 239.299C184.036 239.797 184.111 240.226 184.261 240.586C184.411 240.946 184.618 241.222 184.882 241.414C185.146 241.606 185.452 241.702 185.8 241.702ZM190.247 242.449V237.229L189.23 237.463V236.761L190.625 236.149H191.237V242.449H190.247ZM194.83 242.557C194.368 242.557 193.978 242.47 193.66 242.296C193.342 242.122 193.084 241.891 192.886 241.603C192.694 241.315 192.556 240.991 192.472 240.631C192.388 240.271 192.346 239.902 192.346 239.524C192.346 238.828 192.442 238.219 192.634 237.697C192.832 237.175 193.114 236.77 193.48 236.482C193.846 236.188 194.29 236.041 194.812 236.041C195.226 236.041 195.58 236.122 195.874 236.284C196.168 236.446 196.396 236.662 196.558 236.932C196.726 237.202 196.828 237.496 196.864 237.814H195.973C195.919 237.502 195.79 237.262 195.586 237.094C195.382 236.926 195.121 236.842 194.803 236.842C194.365 236.842 194.002 237.049 193.714 237.463C193.432 237.871 193.282 238.501 193.264 239.353C193.408 239.089 193.63 238.864 193.93 238.678C194.236 238.492 194.587 238.399 194.983 238.399C195.337 238.399 195.667 238.483 195.973 238.651C196.285 238.819 196.537 239.056 196.729 239.362C196.927 239.662 197.026 240.019 197.026 240.433C197.026 240.799 196.936 241.144 196.756 241.468C196.576 241.792 196.321 242.056 195.991 242.26C195.667 242.458 195.28 242.557 194.83 242.557ZM194.776 241.729C195.028 241.729 195.253 241.675 195.451 241.567C195.649 241.459 195.805 241.312 195.919 241.126C196.033 240.934 196.09 240.718 196.09 240.478C196.09 240.094 195.964 239.788 195.712 239.56C195.466 239.332 195.151 239.218 194.767 239.218C194.515 239.218 194.287 239.275 194.083 239.389C193.885 239.503 193.729 239.656 193.615 239.848C193.501 240.034 193.444 240.241 193.444 240.469C193.444 240.715 193.501 240.934 193.615 241.126C193.735 241.312 193.894 241.459 194.092 241.567C194.296 241.675 194.524 241.729 194.776 241.729Z" fill="black" fill-opacity="0.5"/>
<path d="M202.074 242.449V241.765C202.482 241.441 202.872 241.114 203.244 240.784C203.616 240.454 203.946 240.13 204.234 239.812C204.528 239.488 204.759 239.173 204.927 238.867C205.095 238.555 205.179 238.255 205.179 237.967C205.179 237.775 205.146 237.595 205.08 237.427C205.014 237.253 204.906 237.115 204.756 237.013C204.606 236.905 204.405 236.851 204.153 236.851C203.775 236.851 203.49 236.971 203.298 237.211C203.112 237.451 203.022 237.739 203.028 238.075H202.101C202.107 237.631 202.2 237.259 202.38 236.959C202.566 236.659 202.812 236.431 203.118 236.275C203.43 236.119 203.781 236.041 204.171 236.041C204.765 236.041 205.239 236.209 205.593 236.545C205.953 236.875 206.133 237.337 206.133 237.931C206.133 238.285 206.046 238.636 205.872 238.984C205.704 239.332 205.482 239.668 205.206 239.992C204.936 240.31 204.645 240.61 204.333 240.892C204.021 241.174 203.724 241.429 203.442 241.657H206.322V242.449H202.074ZM209.8 242.557C209.23 242.557 208.738 242.422 208.324 242.152C207.916 241.876 207.601 241.495 207.379 241.009C207.163 240.517 207.055 239.947 207.055 239.299C207.055 238.651 207.163 238.084 207.379 237.598C207.601 237.106 207.916 236.725 208.324 236.455C208.738 236.179 209.23 236.041 209.8 236.041C210.37 236.041 210.859 236.179 211.267 236.455C211.675 236.725 211.987 237.106 212.203 237.598C212.425 238.084 212.536 238.651 212.536 239.299C212.536 239.947 212.425 240.517 212.203 241.009C211.987 241.495 211.675 241.876 211.267 242.152C210.859 242.422 210.37 242.557 209.8 242.557ZM209.8 241.702C210.142 241.702 210.445 241.606 210.709 241.414C210.979 241.222 211.189 240.946 211.339 240.586C211.489 240.226 211.564 239.797 211.564 239.299C211.564 238.801 211.489 238.372 211.339 238.012C211.189 237.652 210.979 237.376 210.709 237.184C210.445 236.992 210.142 236.896 209.8 236.896C209.452 236.896 209.146 236.992 208.882 237.184C208.618 237.376 208.411 237.652 208.261 238.012C208.111 238.372 208.036 238.801 208.036 239.299C208.036 239.797 208.111 240.226 208.261 240.586C208.411 240.946 208.618 241.222 208.882 241.414C209.146 241.606 209.452 241.702 209.8 241.702ZM214.247 242.449V237.229L213.23 237.463V236.761L214.625 236.149H215.237V242.449H214.247ZM216.958 242.449L219.397 236.968H216.121V236.149H220.378V236.842L217.957 242.449H216.958Z" fill="black" fill-opacity="0.5"/>
<path d="M230.074 242.449V241.765C230.482 241.441 230.872 241.114 231.244 240.784C231.616 240.454 231.946 240.13 232.234 239.812C232.528 239.488 232.759 239.173 232.927 238.867C233.095 238.555 233.179 238.255 233.179 237.967C233.179 237.775 233.146 237.595 233.08 237.427C233.014 237.253 232.906 237.115 232.756 237.013C232.606 236.905 232.405 236.851 232.153 236.851C231.775 236.851 231.49 236.971 231.298 237.211C231.112 237.451 231.022 237.739 231.028 238.075H230.101C230.107 237.631 230.2 237.259 230.38 236.959C230.566 236.659 230.812 236.431 231.118 236.275C231.43 236.119 231.781 236.041 232.171 236.041C232.765 236.041 233.239 236.209 233.593 236.545C233.953 236.875 234.133 237.337 234.133 237.931C234.133 238.285 234.046 238.636 233.872 238.984C233.704 239.332 233.482 239.668 233.206 239.992C232.936 240.31 232.645 240.61 232.333 240.892C232.021 241.174 231.724 241.429 231.442 241.657H234.322V242.449H230.074ZM237.8 242.557C237.23 242.557 236.738 242.422 236.324 242.152C235.916 241.876 235.601 241.495 235.379 241.009C235.163 240.517 235.055 239.947 235.055 239.299C235.055 238.651 235.163 238.084 235.379 237.598C235.601 237.106 235.916 236.725 236.324 236.455C236.738 236.179 237.23 236.041 237.8 236.041C238.37 236.041 238.859 236.179 239.267 236.455C239.675 236.725 239.987 237.106 240.203 237.598C240.425 238.084 240.536 238.651 240.536 239.299C240.536 239.947 240.425 240.517 240.203 241.009C239.987 241.495 239.675 241.876 239.267 242.152C238.859 242.422 238.37 242.557 237.8 242.557ZM237.8 241.702C238.142 241.702 238.445 241.606 238.709 241.414C238.979 241.222 239.189 240.946 239.339 240.586C239.489 240.226 239.564 239.797 239.564 239.299C239.564 238.801 239.489 238.372 239.339 238.012C239.189 237.652 238.979 237.376 238.709 237.184C238.445 236.992 238.142 236.896 237.8 236.896C237.452 236.896 237.146 236.992 236.882 237.184C236.618 237.376 236.411 237.652 236.261 238.012C236.111 238.372 236.036 238.801 236.036 239.299C236.036 239.797 236.111 240.226 236.261 240.586C236.411 240.946 236.618 241.222 236.882 241.414C237.146 241.606 237.452 241.702 237.8 241.702ZM242.247 242.449V237.229L241.23 237.463V236.761L242.625 236.149H243.237V242.449H242.247ZM246.668 242.557C246.248 242.557 245.867 242.482 245.525 242.332C245.189 242.176 244.919 241.96 244.715 241.684C244.517 241.408 244.418 241.084 244.418 240.712C244.418 240.334 244.523 239.995 244.733 239.695C244.949 239.395 245.234 239.191 245.588 239.083C245.27 238.957 245.024 238.774 244.85 238.534C244.676 238.288 244.589 238.018 244.589 237.724C244.589 237.418 244.67 237.139 244.832 236.887C244.994 236.629 245.228 236.425 245.534 236.275C245.846 236.119 246.224 236.041 246.668 236.041C247.112 236.041 247.487 236.119 247.793 236.275C248.105 236.425 248.342 236.629 248.504 236.887C248.666 237.139 248.747 237.418 248.747 237.724C248.747 238.012 248.657 238.282 248.477 238.534C248.303 238.78 248.057 238.963 247.739 239.083C248.093 239.197 248.375 239.404 248.585 239.704C248.801 239.998 248.909 240.334 248.909 240.712C248.909 241.084 248.81 241.408 248.612 241.684C248.414 241.96 248.144 242.176 247.802 242.332C247.466 242.482 247.088 242.557 246.668 242.557ZM246.668 238.777C247.016 238.777 247.289 238.687 247.487 238.507C247.691 238.327 247.793 238.096 247.793 237.814C247.793 237.496 247.694 237.253 247.496 237.085C247.298 236.917 247.022 236.833 246.668 236.833C246.314 236.833 246.038 236.917 245.84 237.085C245.642 237.253 245.543 237.496 245.543 237.814C245.543 238.096 245.642 238.327 245.84 238.507C246.038 238.687 246.314 238.777 246.668 238.777ZM246.668 241.747C247.1 241.747 247.424 241.645 247.64 241.441C247.856 241.231 247.964 240.964 247.964 240.64C247.964 240.28 247.847 240.004 247.613 239.812C247.385 239.614 247.07 239.515 246.668 239.515C246.266 239.515 245.948 239.614 245.714 239.812C245.48 240.004 245.363 240.28 245.363 240.64C245.363 240.964 245.471 241.231 245.687 241.441C245.909 241.645 246.236 241.747 246.668 241.747Z" fill="black" fill-opacity="0.5"/>
</svg>
