<svg width="468" height="529" viewBox="0 0 468 529" fill="none" xmlns="http://www.w3.org/2000/svg">
<g filter="url(#filter0_dd_1397_798)">
<g clip-path="url(#clip0_1397_798)">
<path d="M74 46C74 37.1634 81.1634 30 90 30H394V395C394 403.837 386.837 411 378 411H74V46Z" fill="white"/>
<path d="M129.659 54.39C128.975 54.39 128.357 54.51 127.805 54.75C127.253 54.978 126.785 55.32 126.401 55.776C126.017 56.22 125.723 56.766 125.519 57.414C125.315 58.05 125.213 58.77 125.213 59.574C125.213 60.63 125.375 61.548 125.699 62.328C126.035 63.108 126.527 63.708 127.175 64.128C127.835 64.548 128.657 64.758 129.641 64.758C130.205 64.758 130.739 64.71 131.243 64.614C131.747 64.518 132.239 64.398 132.719 64.254V65.658C132.239 65.838 131.741 65.97 131.225 66.054C130.721 66.138 130.115 66.18 129.407 66.18C128.099 66.18 127.007 65.91 126.131 65.37C125.255 64.83 124.595 64.062 124.151 63.066C123.719 62.07 123.503 60.9 123.503 59.556C123.503 58.584 123.635 57.696 123.899 56.892C124.175 56.088 124.571 55.392 125.087 54.804C125.615 54.216 126.263 53.766 127.031 53.454C127.799 53.13 128.681 52.968 129.677 52.968C130.337 52.968 130.973 53.034 131.585 53.166C132.197 53.298 132.743 53.484 133.223 53.724L132.575 55.092C132.179 54.912 131.735 54.75 131.243 54.606C130.763 54.462 130.235 54.39 129.659 54.39ZM141.014 56.352H142.742L138.62 60.996L143.084 66H141.248L136.892 61.104V66H135.308V56.352H136.892V61.032L141.014 56.352ZM149.426 56.172C150.614 56.172 151.568 56.586 152.288 57.414C153.02 58.242 153.386 59.49 153.386 61.158C153.386 62.25 153.218 63.174 152.882 63.93C152.558 64.674 152.096 65.238 151.496 65.622C150.908 65.994 150.212 66.18 149.408 66.18C148.916 66.18 148.478 66.114 148.094 65.982C147.71 65.85 147.38 65.682 147.104 65.478C146.84 65.262 146.612 65.028 146.42 64.776H146.312C146.336 64.98 146.36 65.238 146.384 65.55C146.408 65.862 146.42 66.132 146.42 66.36V70.32H144.836V56.352H146.132L146.348 57.666H146.42C146.612 57.39 146.84 57.138 147.104 56.91C147.38 56.682 147.704 56.502 148.076 56.37C148.46 56.238 148.91 56.172 149.426 56.172ZM149.138 57.504C148.49 57.504 147.968 57.63 147.572 57.882C147.176 58.122 146.888 58.488 146.708 58.98C146.528 59.472 146.432 60.096 146.42 60.852V61.158C146.42 61.95 146.504 62.622 146.672 63.174C146.84 63.726 147.122 64.146 147.518 64.434C147.926 64.722 148.478 64.866 149.174 64.866C149.762 64.866 150.242 64.704 150.614 64.38C150.998 64.056 151.28 63.618 151.46 63.066C151.652 62.502 151.748 61.86 151.748 61.14C151.748 60.036 151.532 59.154 151.1 58.494C150.68 57.834 150.026 57.504 149.138 57.504ZM157.404 62.238C157.404 62.346 157.398 62.502 157.386 62.706C157.386 62.898 157.38 63.108 157.368 63.336C157.356 63.552 157.344 63.762 157.332 63.966C157.32 64.158 157.308 64.314 157.296 64.434L162.462 56.352H164.406V66H162.93V60.312C162.93 60.12 162.93 59.868 162.93 59.556C162.942 59.244 162.954 58.938 162.966 58.638C162.978 58.326 162.99 58.092 163.002 57.936L157.872 66H155.91V56.352H157.404V62.238ZM169.06 56.352V60.366H174.298V56.352H175.882V66H174.298V61.698H169.06V66H167.476V56.352H169.06ZM180.431 62.238C180.431 62.346 180.425 62.502 180.413 62.706C180.413 62.898 180.407 63.108 180.395 63.336C180.383 63.552 180.371 63.762 180.359 63.966C180.347 64.158 180.335 64.314 180.323 64.434L185.489 56.352H187.433V66H185.957V60.312C185.957 60.12 185.957 59.868 185.957 59.556C185.969 59.244 185.981 58.938 185.993 58.638C186.005 58.326 186.017 58.092 186.029 57.936L180.899 66H178.937V56.352H180.431V62.238ZM192.088 56.352V60.366H197.326V56.352H198.91V66H197.326V61.698H192.088V66H190.504V56.352H192.088ZM207.851 56.352V57.684H203.549V66H201.965V56.352H207.851ZM218.157 66.18C217.305 66.18 216.543 66.006 215.871 65.658C215.211 65.31 214.689 64.77 214.305 64.038C213.933 63.306 213.747 62.37 213.747 61.23C213.747 60.042 213.945 59.076 214.341 58.332C214.737 57.588 215.271 57.042 215.943 56.694C216.627 56.346 217.401 56.172 218.265 56.172C218.757 56.172 219.231 56.226 219.687 56.334C220.143 56.43 220.515 56.55 220.803 56.694L220.317 58.008C220.029 57.9 219.693 57.798 219.309 57.702C218.925 57.606 218.565 57.558 218.229 57.558C217.581 57.558 217.047 57.696 216.627 57.972C216.207 58.248 215.895 58.656 215.691 59.196C215.487 59.736 215.385 60.408 215.385 61.212C215.385 61.98 215.487 62.634 215.691 63.174C215.895 63.714 216.201 64.122 216.609 64.398C217.017 64.674 217.527 64.812 218.139 64.812C218.667 64.812 219.129 64.758 219.525 64.65C219.933 64.542 220.305 64.41 220.641 64.254V65.658C220.317 65.826 219.957 65.952 219.561 66.036C219.177 66.132 218.709 66.18 218.157 66.18ZM231.089 56.352V66H229.505V57.702H224.519V66H222.935V56.352H231.089ZM237.822 56.19C238.998 56.19 239.868 56.448 240.432 56.964C240.996 57.48 241.278 58.302 241.278 59.43V66H240.126L239.82 64.632H239.748C239.472 64.98 239.184 65.274 238.884 65.514C238.596 65.742 238.26 65.91 237.876 66.018C237.504 66.126 237.048 66.18 236.508 66.18C235.932 66.18 235.41 66.078 234.942 65.874C234.486 65.67 234.126 65.358 233.862 64.938C233.598 64.506 233.466 63.966 233.466 63.318C233.466 62.358 233.844 61.62 234.6 61.104C235.356 60.576 236.52 60.288 238.092 60.24L239.73 60.186V59.61C239.73 58.806 239.556 58.248 239.208 57.936C238.86 57.624 238.368 57.468 237.732 57.468C237.228 57.468 236.748 57.546 236.292 57.702C235.836 57.846 235.41 58.014 235.014 58.206L234.528 57.018C234.948 56.79 235.446 56.598 236.022 56.442C236.598 56.274 237.198 56.19 237.822 56.19ZM238.29 61.338C237.09 61.386 236.256 61.578 235.788 61.914C235.332 62.25 235.104 62.724 235.104 63.336C235.104 63.876 235.266 64.272 235.59 64.524C235.926 64.776 236.352 64.902 236.868 64.902C237.684 64.902 238.362 64.68 238.902 64.236C239.442 63.78 239.712 63.084 239.712 62.148V61.284L238.29 61.338ZM248.128 66.18C247.276 66.18 246.514 66.006 245.842 65.658C245.182 65.31 244.66 64.77 244.276 64.038C243.904 63.306 243.718 62.37 243.718 61.23C243.718 60.042 243.916 59.076 244.312 58.332C244.708 57.588 245.242 57.042 245.914 56.694C246.598 56.346 247.372 56.172 248.236 56.172C248.728 56.172 249.202 56.226 249.658 56.334C250.114 56.43 250.486 56.55 250.774 56.694L250.288 58.008C250 57.9 249.664 57.798 249.28 57.702C248.896 57.606 248.536 57.558 248.2 57.558C247.552 57.558 247.018 57.696 246.598 57.972C246.178 58.248 245.866 58.656 245.662 59.196C245.458 59.736 245.356 60.408 245.356 61.212C245.356 61.98 245.458 62.634 245.662 63.174C245.866 63.714 246.172 64.122 246.58 64.398C246.988 64.674 247.498 64.812 248.11 64.812C248.638 64.812 249.1 64.758 249.496 64.65C249.904 64.542 250.276 64.41 250.612 64.254V65.658C250.288 65.826 249.928 65.952 249.532 66.036C249.148 66.132 248.68 66.18 248.128 66.18ZM256.56 56.19C257.736 56.19 258.606 56.448 259.17 56.964C259.734 57.48 260.016 58.302 260.016 59.43V66H258.864L258.558 64.632H258.486C258.21 64.98 257.922 65.274 257.622 65.514C257.334 65.742 256.998 65.91 256.614 66.018C256.242 66.126 255.786 66.18 255.246 66.18C254.67 66.18 254.148 66.078 253.68 65.874C253.224 65.67 252.864 65.358 252.6 64.938C252.336 64.506 252.204 63.966 252.204 63.318C252.204 62.358 252.582 61.62 253.338 61.104C254.094 60.576 255.258 60.288 256.83 60.24L258.468 60.186V59.61C258.468 58.806 258.294 58.248 257.946 57.936C257.598 57.624 257.106 57.468 256.47 57.468C255.966 57.468 255.486 57.546 255.03 57.702C254.574 57.846 254.148 58.014 253.752 58.206L253.266 57.018C253.686 56.79 254.184 56.598 254.76 56.442C255.336 56.274 255.936 56.19 256.56 56.19ZM257.028 61.338C255.828 61.386 254.994 61.578 254.526 61.914C254.07 62.25 253.842 62.724 253.842 63.336C253.842 63.876 254.004 64.272 254.328 64.524C254.664 64.776 255.09 64.902 255.606 64.902C256.422 64.902 257.1 64.68 257.64 64.236C258.18 63.78 258.45 63.084 258.45 62.148V61.284L257.028 61.338ZM266.722 56.172C267.55 56.172 268.258 56.352 268.846 56.712C269.446 57.072 269.902 57.582 270.214 58.242C270.538 58.89 270.7 59.652 270.7 60.528V61.482H264.094C264.118 62.574 264.394 63.408 264.922 63.984C265.462 64.548 266.212 64.83 267.172 64.83C267.784 64.83 268.324 64.776 268.792 64.668C269.272 64.548 269.764 64.38 270.268 64.164V65.55C269.776 65.766 269.29 65.922 268.81 66.018C268.33 66.126 267.76 66.18 267.1 66.18C266.188 66.18 265.378 65.994 264.67 65.622C263.974 65.25 263.428 64.698 263.032 63.966C262.648 63.222 262.456 62.316 262.456 61.248C262.456 60.192 262.63 59.286 262.978 58.53C263.338 57.774 263.836 57.192 264.472 56.784C265.12 56.376 265.87 56.172 266.722 56.172ZM266.704 57.468C265.948 57.468 265.348 57.714 264.904 58.206C264.472 58.686 264.214 59.358 264.13 60.222H269.044C269.044 59.67 268.96 59.19 268.792 58.782C268.624 58.374 268.366 58.056 268.018 57.828C267.682 57.588 267.244 57.468 266.704 57.468ZM279.816 57.684H276.666V66H275.1V57.684H271.986V56.352H279.816V57.684ZM297.826 56.352L293.848 61.032L298.168 66H296.368L292.192 61.104V66H290.716V61.104L286.54 66H284.74L289.06 61.032L285.082 56.352H286.81L290.716 61.032V56.352H292.192V61.032L296.116 56.352H297.826ZM301.246 62.238C301.246 62.346 301.24 62.502 301.228 62.706C301.228 62.898 301.222 63.108 301.21 63.336C301.198 63.552 301.186 63.762 301.174 63.966C301.162 64.158 301.15 64.314 301.138 64.434L306.304 56.352H308.248V66H306.772V60.312C306.772 60.12 306.772 59.868 306.772 59.556C306.784 59.244 306.796 58.938 306.808 58.638C306.82 58.326 306.832 58.092 306.844 57.936L301.714 66H299.752V56.352H301.246V62.238ZM313.856 56.172C314.588 56.172 315.224 56.274 315.764 56.478C316.304 56.67 316.724 56.958 317.024 57.342C317.324 57.714 317.474 58.17 317.474 58.71C317.474 59.298 317.312 59.766 316.988 60.114C316.664 60.45 316.22 60.696 315.656 60.852V60.924C316.04 61.032 316.394 61.182 316.718 61.374C317.042 61.566 317.3 61.818 317.492 62.13C317.696 62.442 317.798 62.844 317.798 63.336C317.798 63.864 317.648 64.344 317.348 64.776C317.06 65.208 316.61 65.55 315.998 65.802C315.398 66.054 314.624 66.18 313.676 66.18C313.22 66.18 312.782 66.156 312.362 66.108C311.954 66.06 311.582 65.988 311.246 65.892C310.922 65.796 310.634 65.682 310.382 65.55V64.128C310.79 64.32 311.27 64.494 311.822 64.65C312.386 64.806 312.998 64.884 313.658 64.884C314.138 64.884 314.57 64.83 314.954 64.722C315.35 64.614 315.662 64.446 315.89 64.218C316.118 63.978 316.232 63.654 316.232 63.246C316.232 62.874 316.13 62.574 315.926 62.346C315.722 62.106 315.416 61.926 315.008 61.806C314.612 61.686 314.102 61.626 313.478 61.626H312.182V60.33H313.226C314.054 60.33 314.714 60.222 315.206 60.006C315.71 59.778 315.962 59.394 315.962 58.854C315.962 58.398 315.77 58.056 315.386 57.828C315.014 57.6 314.474 57.486 313.766 57.486C313.238 57.486 312.77 57.54 312.362 57.648C311.966 57.744 311.528 57.894 311.048 58.098L310.49 56.838C311.006 56.61 311.546 56.442 312.11 56.334C312.674 56.226 313.256 56.172 313.856 56.172ZM321.726 56.352V60.366H326.964V56.352H328.548V66H326.964V61.698H321.726V66H320.142V56.352H321.726ZM333.097 62.238C333.097 62.346 333.091 62.502 333.079 62.706C333.079 62.898 333.073 63.108 333.061 63.336C333.049 63.552 333.037 63.762 333.025 63.966C333.013 64.158 333.001 64.314 332.989 64.434L338.155 56.352H340.099V66H338.623V60.312C338.623 60.12 338.623 59.868 338.623 59.556C338.635 59.244 338.647 58.938 338.659 58.638C338.671 58.326 338.683 58.092 338.695 57.936L333.565 66H331.603V56.352H333.097V62.238ZM343.602 66.108C343.242 66.108 342.942 65.994 342.702 65.766C342.474 65.526 342.36 65.244 342.36 64.92C342.36 64.584 342.474 64.302 342.702 64.074C342.942 63.834 343.242 63.714 343.602 63.714C343.962 63.714 344.256 63.834 344.484 64.074C344.712 64.302 344.826 64.584 344.826 64.92C344.826 65.244 344.712 65.526 344.484 65.766C344.256 65.994 343.962 66.108 343.602 66.108ZM343.602 59.25C343.242 59.25 342.942 59.136 342.702 58.908C342.474 58.668 342.36 58.386 342.36 58.062C342.36 57.726 342.474 57.444 342.702 57.216C342.942 56.976 343.242 56.856 343.602 56.856C343.962 56.856 344.256 56.976 344.484 57.216C344.712 57.444 344.826 57.726 344.826 58.062C344.826 58.386 344.712 58.668 344.484 58.908C344.256 59.136 343.962 59.25 343.602 59.25Z" fill="#1B1642"/>
<path d="M211.163 194.97C210.631 194.97 210.151 195.063 209.721 195.25C209.292 195.427 208.928 195.693 208.629 196.048C208.331 196.393 208.102 196.818 207.943 197.322C207.785 197.817 207.705 198.377 207.705 199.002C207.705 199.823 207.831 200.537 208.083 201.144C208.345 201.751 208.727 202.217 209.231 202.544C209.745 202.871 210.384 203.034 211.149 203.034C211.588 203.034 212.003 202.997 212.395 202.922C212.787 202.847 213.17 202.754 213.543 202.642V203.734C213.17 203.874 212.783 203.977 212.381 204.042C211.989 204.107 211.518 204.14 210.967 204.14C209.95 204.14 209.101 203.93 208.419 203.51C207.738 203.09 207.225 202.493 206.879 201.718C206.543 200.943 206.375 200.033 206.375 198.988C206.375 198.232 206.478 197.541 206.683 196.916C206.898 196.291 207.206 195.749 207.607 195.292C208.018 194.835 208.522 194.485 209.119 194.242C209.717 193.99 210.403 193.864 211.177 193.864C211.691 193.864 212.185 193.915 212.661 194.018C213.137 194.121 213.562 194.265 213.935 194.452L213.431 195.516C213.123 195.376 212.778 195.25 212.395 195.138C212.022 195.026 211.611 194.97 211.163 194.97ZM221.269 204H220.023V197.518H217.811C217.718 198.703 217.601 199.716 217.461 200.556C217.321 201.387 217.144 202.063 216.929 202.586C216.715 203.109 216.458 203.491 216.159 203.734C215.861 203.977 215.511 204.098 215.109 204.098C214.988 204.098 214.867 204.089 214.745 204.07C214.633 204.061 214.54 204.037 214.465 204V203.076C214.521 203.095 214.582 203.109 214.647 203.118C214.713 203.127 214.778 203.132 214.843 203.132C215.049 203.132 215.235 203.048 215.403 202.88C215.571 202.712 215.721 202.455 215.851 202.11C215.991 201.765 216.117 201.331 216.229 200.808C216.341 200.276 216.439 199.651 216.523 198.932C216.607 198.213 216.682 197.401 216.747 196.496H221.269V204ZM222.475 196.496H223.791L225.415 200.766C225.508 201.018 225.592 201.261 225.667 201.494C225.751 201.727 225.826 201.956 225.891 202.18C225.956 202.395 226.008 202.605 226.045 202.81H226.101C226.157 202.577 226.246 202.273 226.367 201.9C226.488 201.517 226.614 201.135 226.745 200.752L228.271 196.496H229.601L226.367 205.036C226.19 205.503 225.98 205.909 225.737 206.254C225.504 206.609 225.214 206.879 224.869 207.066C224.533 207.262 224.122 207.36 223.637 207.36C223.413 207.36 223.217 207.346 223.049 207.318C222.881 207.299 222.736 207.276 222.615 207.248V206.268C222.718 206.287 222.839 206.305 222.979 206.324C223.128 206.343 223.282 206.352 223.441 206.352C223.73 206.352 223.978 206.296 224.183 206.184C224.398 206.081 224.58 205.927 224.729 205.722C224.878 205.526 225.004 205.293 225.107 205.022L225.499 204.028L222.475 196.496ZM231.866 199.226C231.866 199.665 231.987 199.991 232.23 200.206C232.482 200.411 232.841 200.514 233.308 200.514C233.774 200.514 234.199 200.444 234.582 200.304C234.964 200.155 235.356 199.959 235.758 199.716V196.496H236.99V204H235.758V200.654C235.338 200.925 234.922 201.139 234.512 201.298C234.11 201.447 233.625 201.522 233.056 201.522C232.29 201.522 231.693 201.321 231.264 200.92C230.844 200.519 230.634 199.982 230.634 199.31V196.496H231.866V199.226ZM242.216 196.37C243.13 196.37 243.807 196.571 244.246 196.972C244.684 197.373 244.904 198.013 244.904 198.89V204H244.008L243.77 202.936H243.714C243.499 203.207 243.275 203.435 243.042 203.622C242.818 203.799 242.556 203.93 242.258 204.014C241.968 204.098 241.614 204.14 241.194 204.14C240.746 204.14 240.34 204.061 239.976 203.902C239.621 203.743 239.341 203.501 239.136 203.174C238.93 202.838 238.828 202.418 238.828 201.914C238.828 201.167 239.122 200.593 239.71 200.192C240.298 199.781 241.203 199.557 242.426 199.52L243.7 199.478V199.03C243.7 198.405 243.564 197.971 243.294 197.728C243.023 197.485 242.64 197.364 242.146 197.364C241.754 197.364 241.38 197.425 241.026 197.546C240.671 197.658 240.34 197.789 240.032 197.938L239.654 197.014C239.98 196.837 240.368 196.687 240.816 196.566C241.264 196.435 241.73 196.37 242.216 196.37ZM242.58 200.374C241.646 200.411 240.998 200.561 240.634 200.822C240.279 201.083 240.102 201.452 240.102 201.928C240.102 202.348 240.228 202.656 240.48 202.852C240.741 203.048 241.072 203.146 241.474 203.146C242.108 203.146 242.636 202.973 243.056 202.628C243.476 202.273 243.686 201.732 243.686 201.004V200.332L242.58 200.374ZM250.119 196.356C250.763 196.356 251.314 196.496 251.771 196.776C252.238 197.056 252.593 197.453 252.835 197.966C253.087 198.47 253.213 199.063 253.213 199.744V200.486H248.075C248.094 201.335 248.309 201.984 248.719 202.432C249.139 202.871 249.723 203.09 250.469 203.09C250.945 203.09 251.365 203.048 251.729 202.964C252.103 202.871 252.485 202.74 252.877 202.572V203.65C252.495 203.818 252.117 203.939 251.743 204.014C251.37 204.098 250.927 204.14 250.413 204.14C249.704 204.14 249.074 203.995 248.523 203.706C247.982 203.417 247.557 202.987 247.249 202.418C246.951 201.839 246.801 201.135 246.801 200.304C246.801 199.483 246.937 198.778 247.207 198.19C247.487 197.602 247.875 197.149 248.369 196.832C248.873 196.515 249.457 196.356 250.119 196.356ZM250.105 197.364C249.517 197.364 249.051 197.555 248.705 197.938C248.369 198.311 248.169 198.834 248.103 199.506H251.925C251.925 199.077 251.86 198.703 251.729 198.386C251.599 198.069 251.398 197.821 251.127 197.644C250.866 197.457 250.525 197.364 250.105 197.364ZM261.158 198.386C261.158 198.853 261.018 199.217 260.738 199.478C260.458 199.739 260.098 199.917 259.66 200.01V200.066C260.126 200.131 260.532 200.299 260.878 200.57C261.223 200.831 261.396 201.242 261.396 201.802C261.396 202.119 261.335 202.413 261.214 202.684C261.102 202.955 260.924 203.188 260.682 203.384C260.439 203.58 260.126 203.734 259.744 203.846C259.361 203.949 258.899 204 258.358 204H255.124V196.496H258.344C258.876 196.496 259.352 196.557 259.772 196.678C260.201 196.79 260.537 196.986 260.78 197.266C261.032 197.537 261.158 197.91 261.158 198.386ZM260.122 201.802C260.122 201.373 259.958 201.065 259.632 200.878C259.305 200.691 258.824 200.598 258.19 200.598H256.356V203.006H258.218C258.834 203.006 259.305 202.917 259.632 202.74C259.958 202.553 260.122 202.241 260.122 201.802ZM259.912 198.54C259.912 198.185 259.781 197.929 259.52 197.77C259.268 197.602 258.852 197.518 258.274 197.518H256.356V199.576H258.05C258.656 199.576 259.118 199.492 259.436 199.324C259.753 199.156 259.912 198.895 259.912 198.54Z" fill="#8D9AAE"/>
<path d="M119.636 313H118.016V307.006H111.428V313H109.808V300.148H111.428V305.584H118.016V300.148H119.636V313ZM124.427 309.238C124.427 309.346 124.421 309.502 124.409 309.706C124.409 309.898 124.403 310.108 124.391 310.336C124.379 310.552 124.367 310.762 124.355 310.966C124.343 311.158 124.331 311.314 124.319 311.434L129.485 303.352H131.429V313H129.953V307.312C129.953 307.12 129.953 306.868 129.953 306.556C129.965 306.244 129.977 305.938 129.989 305.638C130.001 305.326 130.013 305.092 130.025 304.936L124.895 313H122.933V303.352H124.427V309.238ZM137.038 303.172C137.77 303.172 138.406 303.274 138.946 303.478C139.486 303.67 139.906 303.958 140.206 304.342C140.506 304.714 140.656 305.17 140.656 305.71C140.656 306.298 140.494 306.766 140.17 307.114C139.846 307.45 139.402 307.696 138.838 307.852V307.924C139.222 308.032 139.576 308.182 139.9 308.374C140.224 308.566 140.482 308.818 140.674 309.13C140.878 309.442 140.98 309.844 140.98 310.336C140.98 310.864 140.83 311.344 140.53 311.776C140.242 312.208 139.792 312.55 139.18 312.802C138.58 313.054 137.806 313.18 136.858 313.18C136.402 313.18 135.964 313.156 135.544 313.108C135.136 313.06 134.764 312.988 134.428 312.892C134.104 312.796 133.816 312.682 133.564 312.55V311.128C133.972 311.32 134.452 311.494 135.004 311.65C135.568 311.806 136.18 311.884 136.84 311.884C137.32 311.884 137.752 311.83 138.136 311.722C138.532 311.614 138.844 311.446 139.072 311.218C139.3 310.978 139.414 310.654 139.414 310.246C139.414 309.874 139.312 309.574 139.108 309.346C138.904 309.106 138.598 308.926 138.19 308.806C137.794 308.686 137.284 308.626 136.66 308.626H135.364V307.33H136.408C137.236 307.33 137.896 307.222 138.388 307.006C138.892 306.778 139.144 306.394 139.144 305.854C139.144 305.398 138.952 305.056 138.568 304.828C138.196 304.6 137.656 304.486 136.948 304.486C136.42 304.486 135.952 304.54 135.544 304.648C135.148 304.744 134.71 304.894 134.23 305.098L133.672 303.838C134.188 303.61 134.728 303.442 135.292 303.334C135.856 303.226 136.438 303.172 137.038 303.172ZM149.03 303.352H150.758L146.636 307.996L151.1 313H149.264L144.908 308.104V313H143.324V303.352H144.908V308.032L149.03 303.352ZM160.888 308.158C160.888 308.962 160.78 309.676 160.564 310.3C160.36 310.912 160.06 311.434 159.664 311.866C159.28 312.298 158.806 312.628 158.242 312.856C157.69 313.072 157.072 313.18 156.388 313.18C155.752 313.18 155.164 313.072 154.624 312.856C154.084 312.628 153.616 312.298 153.22 311.866C152.824 311.434 152.512 310.912 152.284 310.3C152.068 309.676 151.96 308.962 151.96 308.158C151.96 307.09 152.14 306.19 152.5 305.458C152.86 304.714 153.376 304.15 154.048 303.766C154.72 303.37 155.518 303.172 156.442 303.172C157.318 303.172 158.086 303.37 158.746 303.766C159.418 304.15 159.94 304.714 160.312 305.458C160.696 306.19 160.888 307.09 160.888 308.158ZM153.598 308.158C153.598 308.914 153.694 309.574 153.886 310.138C154.09 310.69 154.402 311.116 154.822 311.416C155.242 311.716 155.776 311.866 156.424 311.866C157.072 311.866 157.606 311.716 158.026 311.416C158.446 311.116 158.752 310.69 158.944 310.138C159.148 309.574 159.25 308.914 159.25 308.158C159.25 307.39 159.148 306.736 158.944 306.196C158.74 305.656 158.428 305.242 158.008 304.954C157.6 304.654 157.066 304.504 156.406 304.504C155.422 304.504 154.708 304.828 154.264 305.476C153.82 306.124 153.598 307.018 153.598 308.158ZM170.562 303.352V311.668H171.966V316.348H170.436V313H163.722V316.348H162.21V311.668H162.984C163.536 310.9 163.992 310.066 164.352 309.166C164.724 308.254 165 307.306 165.18 306.322C165.372 305.326 165.474 304.336 165.486 303.352H170.562ZM166.89 304.594C166.842 305.41 166.716 306.256 166.512 307.132C166.308 307.996 166.044 308.824 165.72 309.616C165.408 310.408 165.042 311.092 164.622 311.668H169.032V304.594H166.89ZM182.245 308.158C182.245 308.962 182.137 309.676 181.921 310.3C181.717 310.912 181.417 311.434 181.021 311.866C180.637 312.298 180.163 312.628 179.599 312.856C179.047 313.072 178.429 313.18 177.745 313.18C177.109 313.18 176.521 313.072 175.981 312.856C175.441 312.628 174.973 312.298 174.577 311.866C174.181 311.434 173.869 310.912 173.641 310.3C173.425 309.676 173.317 308.962 173.317 308.158C173.317 307.09 173.497 306.19 173.857 305.458C174.217 304.714 174.733 304.15 175.405 303.766C176.077 303.37 176.875 303.172 177.799 303.172C178.675 303.172 179.443 303.37 180.103 303.766C180.775 304.15 181.297 304.714 181.669 305.458C182.053 306.19 182.245 307.09 182.245 308.158ZM174.955 308.158C174.955 308.914 175.051 309.574 175.243 310.138C175.447 310.69 175.759 311.116 176.179 311.416C176.599 311.716 177.133 311.866 177.781 311.866C178.429 311.866 178.963 311.716 179.383 311.416C179.803 311.116 180.109 310.69 180.301 310.138C180.505 309.574 180.607 308.914 180.607 308.158C180.607 307.39 180.505 306.736 180.301 306.196C180.097 305.656 179.785 305.242 179.365 304.954C178.957 304.654 178.423 304.504 177.763 304.504C176.779 304.504 176.065 304.828 175.621 305.476C175.177 306.124 174.955 307.018 174.955 308.158ZM187.294 303.172C188.026 303.172 188.662 303.274 189.202 303.478C189.742 303.67 190.162 303.958 190.462 304.342C190.762 304.714 190.912 305.17 190.912 305.71C190.912 306.298 190.75 306.766 190.426 307.114C190.102 307.45 189.658 307.696 189.094 307.852V307.924C189.478 308.032 189.832 308.182 190.156 308.374C190.48 308.566 190.738 308.818 190.93 309.13C191.134 309.442 191.236 309.844 191.236 310.336C191.236 310.864 191.086 311.344 190.786 311.776C190.498 312.208 190.048 312.55 189.436 312.802C188.836 313.054 188.062 313.18 187.114 313.18C186.658 313.18 186.22 313.156 185.8 313.108C185.392 313.06 185.02 312.988 184.684 312.892C184.36 312.796 184.072 312.682 183.82 312.55V311.128C184.228 311.32 184.708 311.494 185.26 311.65C185.824 311.806 186.436 311.884 187.096 311.884C187.576 311.884 188.008 311.83 188.392 311.722C188.788 311.614 189.1 311.446 189.328 311.218C189.556 310.978 189.67 310.654 189.67 310.246C189.67 309.874 189.568 309.574 189.364 309.346C189.16 309.106 188.854 308.926 188.446 308.806C188.05 308.686 187.54 308.626 186.916 308.626H185.62V307.33H186.664C187.492 307.33 188.152 307.222 188.644 307.006C189.148 306.778 189.4 306.394 189.4 305.854C189.4 305.398 189.208 305.056 188.824 304.828C188.452 304.6 187.912 304.486 187.204 304.486C186.676 304.486 186.208 304.54 185.8 304.648C185.404 304.744 184.966 304.894 184.486 305.098L183.928 303.838C184.444 303.61 184.984 303.442 185.548 303.334C186.112 303.226 186.694 303.172 187.294 303.172ZM195.164 303.352V307.366H200.402V303.352H201.986V313H200.402V308.698H195.164V313H193.58V303.352H195.164ZM208.695 303.19C209.871 303.19 210.741 303.448 211.305 303.964C211.869 304.48 212.151 305.302 212.151 306.43V313H210.999L210.693 311.632H210.621C210.345 311.98 210.057 312.274 209.757 312.514C209.469 312.742 209.133 312.91 208.749 313.018C208.377 313.126 207.921 313.18 207.381 313.18C206.805 313.18 206.283 313.078 205.815 312.874C205.359 312.67 204.999 312.358 204.735 311.938C204.471 311.506 204.339 310.966 204.339 310.318C204.339 309.358 204.717 308.62 205.473 308.104C206.229 307.576 207.393 307.288 208.965 307.24L210.603 307.186V306.61C210.603 305.806 210.429 305.248 210.081 304.936C209.733 304.624 209.241 304.468 208.605 304.468C208.101 304.468 207.621 304.546 207.165 304.702C206.709 304.846 206.283 305.014 205.887 305.206L205.401 304.018C205.821 303.79 206.319 303.598 206.895 303.442C207.471 303.274 208.071 303.19 208.695 303.19ZM209.163 308.338C207.963 308.386 207.129 308.578 206.661 308.914C206.205 309.25 205.977 309.724 205.977 310.336C205.977 310.876 206.139 311.272 206.463 311.524C206.799 311.776 207.225 311.902 207.741 311.902C208.557 311.902 209.235 311.68 209.775 311.236C210.315 310.78 210.585 310.084 210.585 309.148V308.284L209.163 308.338ZM215.725 313H213.889L216.643 308.95C216.271 308.854 215.911 308.704 215.563 308.5C215.215 308.284 214.933 307.99 214.717 307.618C214.501 307.234 214.393 306.76 214.393 306.196C214.393 305.272 214.705 304.57 215.329 304.09C215.953 303.598 216.781 303.352 217.813 303.352H222.133V313H220.549V309.166H218.209L215.725 313ZM215.923 306.214C215.923 306.766 216.127 307.18 216.535 307.456C216.955 307.72 217.537 307.852 218.281 307.852H220.549V304.666H217.975C217.243 304.666 216.715 304.81 216.391 305.098C216.079 305.386 215.923 305.758 215.923 306.214ZM235.655 303.352H237.383L233.261 307.996L237.725 313H235.889L231.533 308.104V313H229.949V303.352H231.533V308.032L235.655 303.352ZM247.513 308.158C247.513 308.962 247.405 309.676 247.189 310.3C246.985 310.912 246.685 311.434 246.289 311.866C245.905 312.298 245.431 312.628 244.867 312.856C244.315 313.072 243.697 313.18 243.013 313.18C242.377 313.18 241.789 313.072 241.249 312.856C240.709 312.628 240.241 312.298 239.845 311.866C239.449 311.434 239.137 310.912 238.909 310.3C238.693 309.676 238.585 308.962 238.585 308.158C238.585 307.09 238.765 306.19 239.125 305.458C239.485 304.714 240.001 304.15 240.673 303.766C241.345 303.37 242.143 303.172 243.067 303.172C243.943 303.172 244.711 303.37 245.371 303.766C246.043 304.15 246.565 304.714 246.937 305.458C247.321 306.19 247.513 307.09 247.513 308.158ZM240.223 308.158C240.223 308.914 240.319 309.574 240.511 310.138C240.715 310.69 241.027 311.116 241.447 311.416C241.867 311.716 242.401 311.866 243.049 311.866C243.697 311.866 244.231 311.716 244.651 311.416C245.071 311.116 245.377 310.69 245.569 310.138C245.773 309.574 245.875 308.914 245.875 308.158C245.875 307.39 245.773 306.736 245.569 306.196C245.365 305.656 245.053 305.242 244.633 304.954C244.225 304.654 243.691 304.504 243.031 304.504C242.047 304.504 241.333 304.828 240.889 305.476C240.445 306.124 240.223 307.018 240.223 308.158ZM260.373 303.352V313H258.951V306.844C258.951 306.592 258.957 306.328 258.969 306.052C258.993 305.776 259.017 305.506 259.041 305.242H258.987L255.837 313H254.505L251.445 305.242H251.391C251.415 305.506 251.427 305.776 251.427 306.052C251.439 306.328 251.445 306.61 251.445 306.898V313H250.023V303.352H252.129L255.171 311.11L258.267 303.352H260.373ZM271.607 303.352V313H270.023V304.702H265.037V313H263.453V303.352H271.607ZM279.131 307.312C279.971 307.312 280.667 307.414 281.219 307.618C281.771 307.822 282.185 308.128 282.461 308.536C282.749 308.932 282.893 309.436 282.893 310.048C282.893 310.648 282.755 311.17 282.479 311.614C282.215 312.058 281.801 312.4 281.237 312.64C280.673 312.88 279.947 313 279.059 313H274.685V303.352H276.269V307.312H279.131ZM281.309 310.138C281.309 309.55 281.099 309.154 280.679 308.95C280.271 308.734 279.695 308.626 278.951 308.626H276.269V311.722H278.987C279.659 311.722 280.211 311.602 280.643 311.362C281.087 311.122 281.309 310.714 281.309 310.138ZM297.901 308.158C297.901 309.226 297.727 310.138 297.379 310.894C297.031 311.638 296.539 312.208 295.903 312.604C295.267 312.988 294.511 313.18 293.635 313.18C292.819 313.18 292.105 313.012 291.493 312.676C290.881 312.328 290.395 311.824 290.035 311.164C289.675 310.492 289.465 309.67 289.405 308.698H286.957V313H285.373V303.352H286.957V307.366H289.423C289.507 306.454 289.729 305.692 290.089 305.08C290.461 304.456 290.947 303.982 291.547 303.658C292.159 303.334 292.867 303.172 293.671 303.172C294.499 303.172 295.231 303.37 295.867 303.766C296.503 304.15 297.001 304.714 297.361 305.458C297.721 306.19 297.901 307.09 297.901 308.158ZM291.025 308.158C291.025 308.962 291.115 309.64 291.295 310.192C291.487 310.744 291.775 311.164 292.159 311.452C292.543 311.728 293.041 311.866 293.653 311.866C294.265 311.866 294.763 311.728 295.147 311.452C295.531 311.164 295.813 310.744 295.993 310.192C296.173 309.64 296.263 308.962 296.263 308.158C296.263 307.354 296.173 306.682 295.993 306.142C295.813 305.602 295.531 305.194 295.147 304.918C294.763 304.642 294.265 304.504 293.653 304.504C293.041 304.504 292.543 304.642 292.159 304.918C291.775 305.194 291.487 305.602 291.295 306.142C291.115 306.682 291.025 307.354 291.025 308.158ZM306.904 304.684H303.754V313H302.188V304.684H299.074V303.352H306.904V304.684ZM312.355 303.172C313.183 303.172 313.891 303.352 314.479 303.712C315.079 304.072 315.535 304.582 315.847 305.242C316.171 305.89 316.333 306.652 316.333 307.528V308.482H309.727C309.751 309.574 310.027 310.408 310.555 310.984C311.095 311.548 311.845 311.83 312.805 311.83C313.417 311.83 313.957 311.776 314.425 311.668C314.905 311.548 315.397 311.38 315.901 311.164V312.55C315.409 312.766 314.923 312.922 314.443 313.018C313.963 313.126 313.393 313.18 312.733 313.18C311.821 313.18 311.011 312.994 310.303 312.622C309.607 312.25 309.061 311.698 308.665 310.966C308.281 310.222 308.089 309.316 308.089 308.248C308.089 307.192 308.263 306.286 308.611 305.53C308.971 304.774 309.469 304.192 310.105 303.784C310.753 303.376 311.503 303.172 312.355 303.172ZM312.337 304.468C311.581 304.468 310.981 304.714 310.537 305.206C310.105 305.686 309.847 306.358 309.763 307.222H314.677C314.677 306.67 314.593 306.19 314.425 305.782C314.257 305.374 313.999 305.056 313.651 304.828C313.315 304.588 312.877 304.468 312.337 304.468ZM323.379 303.172C324.567 303.172 325.521 303.586 326.241 304.414C326.973 305.242 327.339 306.49 327.339 308.158C327.339 309.25 327.171 310.174 326.835 310.93C326.511 311.674 326.049 312.238 325.449 312.622C324.861 312.994 324.165 313.18 323.361 313.18C322.869 313.18 322.431 313.114 322.047 312.982C321.663 312.85 321.333 312.682 321.057 312.478C320.793 312.262 320.565 312.028 320.373 311.776H320.265C320.289 311.98 320.313 312.238 320.337 312.55C320.361 312.862 320.373 313.132 320.373 313.36V317.32H318.789V303.352H320.085L320.301 304.666H320.373C320.565 304.39 320.793 304.138 321.057 303.91C321.333 303.682 321.657 303.502 322.029 303.37C322.413 303.238 322.863 303.172 323.379 303.172ZM323.091 304.504C322.443 304.504 321.921 304.63 321.525 304.882C321.129 305.122 320.841 305.488 320.661 305.98C320.481 306.472 320.385 307.096 320.373 307.852V308.158C320.373 308.95 320.457 309.622 320.625 310.174C320.793 310.726 321.075 311.146 321.471 311.434C321.879 311.722 322.431 311.866 323.127 311.866C323.715 311.866 324.195 311.704 324.567 311.38C324.951 311.056 325.233 310.618 325.413 310.066C325.605 309.502 325.701 308.86 325.701 308.14C325.701 307.036 325.485 306.154 325.053 305.494C324.633 304.834 323.979 304.504 323.091 304.504ZM331.447 303.352V307.366H336.685V303.352H338.269V313H336.685V308.698H331.447V313H329.863V303.352H331.447ZM344.978 303.19C346.154 303.19 347.024 303.448 347.588 303.964C348.152 304.48 348.434 305.302 348.434 306.43V313H347.282L346.976 311.632H346.904C346.628 311.98 346.34 312.274 346.04 312.514C345.752 312.742 345.416 312.91 345.032 313.018C344.66 313.126 344.204 313.18 343.664 313.18C343.088 313.18 342.566 313.078 342.098 312.874C341.642 312.67 341.282 312.358 341.018 311.938C340.754 311.506 340.622 310.966 340.622 310.318C340.622 309.358 341 308.62 341.756 308.104C342.512 307.576 343.676 307.288 345.248 307.24L346.886 307.186V306.61C346.886 305.806 346.712 305.248 346.364 304.936C346.016 304.624 345.524 304.468 344.888 304.468C344.384 304.468 343.904 304.546 343.448 304.702C342.992 304.846 342.566 305.014 342.17 305.206L341.684 304.018C342.104 303.79 342.602 303.598 343.178 303.442C343.754 303.274 344.354 303.19 344.978 303.19ZM345.446 308.338C344.246 308.386 343.412 308.578 342.944 308.914C342.488 309.25 342.26 309.724 342.26 310.336C342.26 310.876 342.422 311.272 342.746 311.524C343.082 311.776 343.508 311.902 344.024 311.902C344.84 311.902 345.518 311.68 346.058 311.236C346.598 310.78 346.868 310.084 346.868 309.148V308.284L345.446 308.338ZM352.008 313H350.172L352.926 308.95C352.554 308.854 352.194 308.704 351.846 308.5C351.498 308.284 351.216 307.99 351 307.618C350.784 307.234 350.676 306.76 350.676 306.196C350.676 305.272 350.988 304.57 351.612 304.09C352.236 303.598 353.064 303.352 354.096 303.352H358.416V313H356.832V309.166H354.492L352.008 313ZM352.206 306.214C352.206 306.766 352.41 307.18 352.818 307.456C353.238 307.72 353.82 307.852 354.564 307.852H356.832V304.666H354.258C353.526 304.666 352.998 304.81 352.674 305.098C352.362 305.386 352.206 305.758 352.206 306.214ZM117.992 327.684H114.842V336H113.276V327.684H110.162V326.352H117.992V327.684ZM128.105 331.158C128.105 331.962 127.997 332.676 127.781 333.3C127.577 333.912 127.277 334.434 126.881 334.866C126.497 335.298 126.023 335.628 125.459 335.856C124.907 336.072 124.289 336.18 123.605 336.18C122.969 336.18 122.381 336.072 121.841 335.856C121.301 335.628 120.833 335.298 120.437 334.866C120.041 334.434 119.729 333.912 119.501 333.3C119.285 332.676 119.177 331.962 119.177 331.158C119.177 330.09 119.357 329.19 119.717 328.458C120.077 327.714 120.593 327.15 121.265 326.766C121.937 326.37 122.735 326.172 123.659 326.172C124.535 326.172 125.303 326.37 125.963 326.766C126.635 327.15 127.157 327.714 127.529 328.458C127.913 329.19 128.105 330.09 128.105 331.158ZM120.815 331.158C120.815 331.914 120.911 332.574 121.103 333.138C121.307 333.69 121.619 334.116 122.039 334.416C122.459 334.716 122.993 334.866 123.641 334.866C124.289 334.866 124.823 334.716 125.243 334.416C125.663 334.116 125.969 333.69 126.161 333.138C126.365 332.574 126.467 331.914 126.467 331.158C126.467 330.39 126.365 329.736 126.161 329.196C125.957 328.656 125.645 328.242 125.225 327.954C124.817 327.654 124.283 327.504 123.623 327.504C122.639 327.504 121.925 327.828 121.481 328.476C121.037 329.124 120.815 330.018 120.815 331.158ZM140.965 326.352V336H139.543V329.844C139.543 329.592 139.549 329.328 139.561 329.052C139.585 328.776 139.609 328.506 139.633 328.242H139.579L136.429 336H135.097L132.037 328.242H131.983C132.007 328.506 132.019 328.776 132.019 329.052C132.031 329.328 132.037 329.61 132.037 329.898V336H130.615V326.352H132.721L135.763 334.11L138.859 326.352H140.965ZM152.433 331.158C152.433 331.962 152.325 332.676 152.109 333.3C151.905 333.912 151.605 334.434 151.209 334.866C150.825 335.298 150.351 335.628 149.787 335.856C149.235 336.072 148.617 336.18 147.933 336.18C147.297 336.18 146.709 336.072 146.169 335.856C145.629 335.628 145.161 335.298 144.765 334.866C144.369 334.434 144.057 333.912 143.829 333.3C143.613 332.676 143.505 331.962 143.505 331.158C143.505 330.09 143.685 329.19 144.045 328.458C144.405 327.714 144.921 327.15 145.593 326.766C146.265 326.37 147.063 326.172 147.987 326.172C148.863 326.172 149.631 326.37 150.291 326.766C150.963 327.15 151.485 327.714 151.857 328.458C152.241 329.19 152.433 330.09 152.433 331.158ZM145.143 331.158C145.143 331.914 145.239 332.574 145.431 333.138C145.635 333.69 145.947 334.116 146.367 334.416C146.787 334.716 147.321 334.866 147.969 334.866C148.617 334.866 149.151 334.716 149.571 334.416C149.991 334.116 150.297 333.69 150.489 333.138C150.693 332.574 150.795 331.914 150.795 331.158C150.795 330.39 150.693 329.736 150.489 329.196C150.285 328.656 149.973 328.242 149.553 327.954C149.145 327.654 148.611 327.504 147.951 327.504C146.967 327.504 146.253 327.828 145.809 328.476C145.365 329.124 145.143 330.018 145.143 331.158ZM160.829 326.352V327.684H156.527V336H154.943V326.352H160.829ZM167.32 326.172C168.508 326.172 169.462 326.586 170.182 327.414C170.914 328.242 171.28 329.49 171.28 331.158C171.28 332.25 171.112 333.174 170.776 333.93C170.452 334.674 169.99 335.238 169.39 335.622C168.802 335.994 168.106 336.18 167.302 336.18C166.81 336.18 166.372 336.114 165.988 335.982C165.604 335.85 165.274 335.682 164.998 335.478C164.734 335.262 164.506 335.028 164.314 334.776H164.206C164.23 334.98 164.254 335.238 164.278 335.55C164.302 335.862 164.314 336.132 164.314 336.36V340.32H162.73V326.352H164.026L164.242 327.666H164.314C164.506 327.39 164.734 327.138 164.998 326.91C165.274 326.682 165.598 326.502 165.97 326.37C166.354 326.238 166.804 326.172 167.32 326.172ZM167.032 327.504C166.384 327.504 165.862 327.63 165.466 327.882C165.07 328.122 164.782 328.488 164.602 328.98C164.422 329.472 164.326 330.096 164.314 330.852V331.158C164.314 331.95 164.398 332.622 164.566 333.174C164.734 333.726 165.016 334.146 165.412 334.434C165.82 334.722 166.372 334.866 167.068 334.866C167.656 334.866 168.136 334.704 168.508 334.38C168.892 334.056 169.174 333.618 169.354 333.066C169.546 332.502 169.642 331.86 169.642 331.14C169.642 330.036 169.426 329.154 168.994 328.494C168.574 327.834 167.92 327.504 167.032 327.504ZM177.458 326.19C178.634 326.19 179.504 326.448 180.068 326.964C180.632 327.48 180.914 328.302 180.914 329.43V336H179.762L179.456 334.632H179.384C179.108 334.98 178.82 335.274 178.52 335.514C178.232 335.742 177.896 335.91 177.512 336.018C177.14 336.126 176.684 336.18 176.144 336.18C175.568 336.18 175.046 336.078 174.578 335.874C174.122 335.67 173.762 335.358 173.498 334.938C173.234 334.506 173.102 333.966 173.102 333.318C173.102 332.358 173.48 331.62 174.236 331.104C174.992 330.576 176.156 330.288 177.728 330.24L179.366 330.186V329.61C179.366 328.806 179.192 328.248 178.844 327.936C178.496 327.624 178.004 327.468 177.368 327.468C176.864 327.468 176.384 327.546 175.928 327.702C175.472 327.846 175.046 328.014 174.65 328.206L174.164 327.018C174.584 326.79 175.082 326.598 175.658 326.442C176.234 326.274 176.834 326.19 177.458 326.19ZM177.926 331.338C176.726 331.386 175.892 331.578 175.424 331.914C174.968 332.25 174.74 332.724 174.74 333.336C174.74 333.876 174.902 334.272 175.226 334.524C175.562 334.776 175.988 334.902 176.504 334.902C177.32 334.902 177.998 334.68 178.538 334.236C179.078 333.78 179.348 333.084 179.348 332.148V331.284L177.926 331.338ZM189.654 326.208C190.614 326.292 191.448 326.544 192.156 326.964C192.876 327.384 193.434 327.948 193.83 328.656C194.226 329.364 194.424 330.204 194.424 331.176C194.424 332.148 194.232 332.994 193.848 333.714C193.464 334.422 192.918 334.986 192.21 335.406C191.502 335.814 190.65 336.06 189.654 336.144V340.32H188.106V336.144C187.158 336.06 186.324 335.814 185.604 335.406C184.884 334.986 184.326 334.422 183.93 333.714C183.534 332.994 183.336 332.148 183.336 331.176C183.336 330.192 183.528 329.346 183.912 328.638C184.296 327.918 184.848 327.354 185.568 326.946C186.288 326.526 187.152 326.28 188.16 326.208V322.32H189.654V326.208ZM188.16 327.522C187.428 327.594 186.828 327.78 186.36 328.08C185.892 328.38 185.544 328.788 185.316 329.304C185.1 329.82 184.992 330.444 184.992 331.176C184.992 331.896 185.1 332.52 185.316 333.048C185.544 333.564 185.892 333.978 186.36 334.29C186.828 334.59 187.428 334.776 188.16 334.848V327.522ZM189.654 334.848C190.374 334.764 190.962 334.572 191.418 334.272C191.886 333.972 192.228 333.564 192.444 333.048C192.672 332.52 192.786 331.896 192.786 331.176C192.786 330.456 192.672 329.838 192.444 329.322C192.216 328.806 191.868 328.398 191.4 328.098C190.944 327.798 190.362 327.612 189.654 327.54V334.848ZM198.431 332.238C198.431 332.346 198.425 332.502 198.413 332.706C198.413 332.898 198.407 333.108 198.395 333.336C198.383 333.552 198.371 333.762 198.359 333.966C198.347 334.158 198.335 334.314 198.323 334.434L203.489 326.352H205.433V336H203.957V330.312C203.957 330.12 203.957 329.868 203.957 329.556C203.969 329.244 203.981 328.938 203.993 328.638C204.005 328.326 204.017 328.092 204.029 327.936L198.899 336H196.937V326.352H198.431V332.238ZM209.098 336H207.262L210.016 331.95C209.644 331.854 209.284 331.704 208.936 331.5C208.588 331.284 208.306 330.99 208.09 330.618C207.874 330.234 207.766 329.76 207.766 329.196C207.766 328.272 208.078 327.57 208.702 327.09C209.326 326.598 210.154 326.352 211.186 326.352H215.506V336H213.922V332.166H211.582L209.098 336ZM209.296 329.214C209.296 329.766 209.5 330.18 209.908 330.456C210.328 330.72 210.91 330.852 211.654 330.852H213.922V327.666H211.348C210.616 327.666 210.088 327.81 209.764 328.098C209.452 328.386 209.296 328.758 209.296 329.214ZM229.208 326.352V327.684H224.906V336H223.322V326.352H229.208ZM235.699 326.172C236.887 326.172 237.841 326.586 238.561 327.414C239.293 328.242 239.659 329.49 239.659 331.158C239.659 332.25 239.491 333.174 239.155 333.93C238.831 334.674 238.369 335.238 237.769 335.622C237.181 335.994 236.485 336.18 235.681 336.18C235.189 336.18 234.751 336.114 234.367 335.982C233.983 335.85 233.653 335.682 233.377 335.478C233.113 335.262 232.885 335.028 232.693 334.776H232.585C232.609 334.98 232.633 335.238 232.657 335.55C232.681 335.862 232.693 336.132 232.693 336.36V340.32H231.109V326.352H232.405L232.621 327.666H232.693C232.885 327.39 233.113 327.138 233.377 326.91C233.653 326.682 233.977 326.502 234.349 326.37C234.733 326.238 235.183 326.172 235.699 326.172ZM235.411 327.504C234.763 327.504 234.241 327.63 233.845 327.882C233.449 328.122 233.161 328.488 232.981 328.98C232.801 329.472 232.705 330.096 232.693 330.852V331.158C232.693 331.95 232.777 332.622 232.945 333.174C233.113 333.726 233.395 334.146 233.791 334.434C234.199 334.722 234.751 334.866 235.447 334.866C236.035 334.866 236.515 334.704 236.887 334.38C237.271 334.056 237.553 333.618 237.733 333.066C237.925 332.502 238.021 331.86 238.021 331.14C238.021 330.036 237.805 329.154 237.373 328.494C236.953 327.834 236.299 327.504 235.411 327.504ZM240.496 326.352H242.188L244.276 331.842C244.396 332.166 244.504 332.478 244.6 332.778C244.708 333.078 244.804 333.372 244.888 333.66C244.972 333.936 245.038 334.206 245.086 334.47H245.158C245.23 334.17 245.344 333.78 245.5 333.3C245.656 332.808 245.818 332.316 245.986 331.824L247.948 326.352H249.658L245.5 337.332C245.272 337.932 245.002 338.454 244.69 338.898C244.39 339.354 244.018 339.702 243.574 339.942C243.142 340.194 242.614 340.32 241.99 340.32C241.702 340.32 241.45 340.302 241.234 340.266C241.018 340.242 240.832 340.212 240.676 340.176V338.916C240.808 338.94 240.964 338.964 241.144 338.988C241.336 339.012 241.534 339.024 241.738 339.024C242.11 339.024 242.428 338.952 242.692 338.808C242.968 338.676 243.202 338.478 243.394 338.214C243.586 337.962 243.748 337.662 243.88 337.314L244.384 336.036L240.496 326.352ZM257.996 326.352V334.668H259.4V339.348H257.87V336H251.156V339.348H249.644V334.668H250.418C250.97 333.9 251.426 333.066 251.786 332.166C252.158 331.254 252.434 330.306 252.614 329.322C252.806 328.326 252.908 327.336 252.92 326.352H257.996ZM254.324 327.594C254.276 328.41 254.15 329.256 253.946 330.132C253.742 330.996 253.478 331.824 253.154 332.616C252.842 333.408 252.476 334.092 252.056 334.668H256.466V327.594H254.324ZM262.875 326.352V330.366H268.113V326.352H269.697V336H268.113V331.698H262.875V336H261.291V326.352H262.875ZM281.14 331.158C281.14 331.962 281.032 332.676 280.816 333.3C280.612 333.912 280.312 334.434 279.916 334.866C279.532 335.298 279.058 335.628 278.494 335.856C277.942 336.072 277.324 336.18 276.64 336.18C276.004 336.18 275.416 336.072 274.876 335.856C274.336 335.628 273.868 335.298 273.472 334.866C273.076 334.434 272.764 333.912 272.536 333.3C272.32 332.676 272.212 331.962 272.212 331.158C272.212 330.09 272.392 329.19 272.752 328.458C273.112 327.714 273.628 327.15 274.3 326.766C274.972 326.37 275.77 326.172 276.694 326.172C277.57 326.172 278.338 326.37 278.998 326.766C279.67 327.15 280.192 327.714 280.564 328.458C280.948 329.19 281.14 330.09 281.14 331.158ZM273.85 331.158C273.85 331.914 273.946 332.574 274.138 333.138C274.342 333.69 274.654 334.116 275.074 334.416C275.494 334.716 276.028 334.866 276.676 334.866C277.324 334.866 277.858 334.716 278.278 334.416C278.698 334.116 279.004 333.69 279.196 333.138C279.4 332.574 279.502 331.914 279.502 331.158C279.502 330.39 279.4 329.736 279.196 329.196C278.992 328.656 278.68 328.242 278.26 327.954C277.852 327.654 277.318 327.504 276.658 327.504C275.674 327.504 274.96 327.828 274.516 328.476C274.072 329.124 273.85 330.018 273.85 331.158ZM291.462 322.356C291.414 322.956 291.264 323.46 291.012 323.868C290.772 324.276 290.412 324.582 289.932 324.786C289.452 324.99 288.828 325.092 288.06 325.092C287.28 325.092 286.65 324.99 286.17 324.786C285.702 324.582 285.36 324.282 285.144 323.886C284.928 323.478 284.796 322.968 284.748 322.356H286.224C286.284 323.004 286.452 323.442 286.728 323.67C287.016 323.886 287.472 323.994 288.096 323.994C288.648 323.994 289.08 323.88 289.392 323.652C289.716 323.412 289.908 322.98 289.968 322.356H291.462ZM285.144 332.238C285.144 332.346 285.138 332.502 285.126 332.706C285.126 332.898 285.12 333.108 285.108 333.336C285.096 333.552 285.084 333.762 285.072 333.966C285.06 334.158 285.048 334.314 285.036 334.434L290.202 326.352H292.146V336H290.67V330.312C290.67 330.12 290.67 329.868 290.67 329.556C290.682 329.244 290.694 328.938 290.706 328.638C290.718 328.326 290.73 328.092 290.742 327.936L285.612 336H283.65V326.352H285.144V332.238ZM305.686 326.352H307.414L303.292 330.996L307.756 336H305.92L301.564 331.104V336H299.98V326.352H301.564V331.032L305.686 326.352ZM316.852 336H315.25V327.666H312.406C312.286 329.19 312.136 330.492 311.956 331.572C311.776 332.64 311.548 333.51 311.272 334.182C310.996 334.854 310.666 335.346 310.282 335.658C309.898 335.97 309.448 336.126 308.932 336.126C308.776 336.126 308.62 336.114 308.464 336.09C308.32 336.078 308.2 336.048 308.104 336V334.812C308.176 334.836 308.254 334.854 308.338 334.866C308.422 334.878 308.506 334.884 308.59 334.884C308.854 334.884 309.094 334.776 309.31 334.56C309.526 334.344 309.718 334.014 309.886 333.57C310.066 333.126 310.228 332.568 310.372 331.896C310.516 331.212 310.642 330.408 310.75 329.484C310.858 328.56 310.954 327.516 311.038 326.352H316.852V336ZM323.64 326.172C324.468 326.172 325.176 326.352 325.764 326.712C326.364 327.072 326.82 327.582 327.132 328.242C327.456 328.89 327.618 329.652 327.618 330.528V331.482H321.012C321.036 332.574 321.312 333.408 321.84 333.984C322.38 334.548 323.13 334.83 324.09 334.83C324.702 334.83 325.242 334.776 325.71 334.668C326.19 334.548 326.682 334.38 327.186 334.164V335.55C326.694 335.766 326.208 335.922 325.728 336.018C325.248 336.126 324.678 336.18 324.018 336.18C323.106 336.18 322.296 335.994 321.588 335.622C320.892 335.25 320.346 334.698 319.95 333.966C319.566 333.222 319.374 332.316 319.374 331.248C319.374 330.192 319.548 329.286 319.896 328.53C320.256 327.774 320.754 327.192 321.39 326.784C322.038 326.376 322.788 326.172 323.64 326.172ZM323.622 327.468C322.866 327.468 322.266 327.714 321.822 328.206C321.39 328.686 321.132 329.358 321.048 330.222H325.962C325.962 329.67 325.878 329.19 325.71 328.782C325.542 328.374 325.284 328.056 324.936 327.828C324.6 327.588 324.162 327.468 323.622 327.468ZM336.734 327.684H333.584V336H332.018V327.684H328.904V326.352H336.734V327.684ZM344.34 326.352H346.068L341.946 330.996L346.41 336H344.574L340.218 331.104V336H338.634V326.352H340.218V331.032L344.34 326.352ZM349.656 332.238C349.656 332.346 349.65 332.502 349.638 332.706C349.638 332.898 349.632 333.108 349.62 333.336C349.608 333.552 349.596 333.762 349.584 333.966C349.572 334.158 349.56 334.314 349.548 334.434L354.714 326.352H356.658V336H355.182V330.312C355.182 330.12 355.182 329.868 355.182 329.556C355.194 329.244 355.206 328.938 355.218 328.638C355.23 328.326 355.242 328.092 355.254 327.936L350.124 336H348.162V326.352H349.656V332.238ZM114.253 359.18C113.401 359.18 112.639 359.006 111.967 358.658C111.307 358.31 110.785 357.77 110.401 357.038C110.029 356.306 109.843 355.37 109.843 354.23C109.843 353.042 110.041 352.076 110.437 351.332C110.833 350.588 111.367 350.042 112.039 349.694C112.723 349.346 113.497 349.172 114.361 349.172C114.853 349.172 115.327 349.226 115.783 349.334C116.239 349.43 116.611 349.55 116.899 349.694L116.413 351.008C116.125 350.9 115.789 350.798 115.405 350.702C115.021 350.606 114.661 350.558 114.325 350.558C113.677 350.558 113.143 350.696 112.723 350.972C112.303 351.248 111.991 351.656 111.787 352.196C111.583 352.736 111.481 353.408 111.481 354.212C111.481 354.98 111.583 355.634 111.787 356.174C111.991 356.714 112.297 357.122 112.705 357.398C113.113 357.674 113.623 357.812 114.235 357.812C114.763 357.812 115.225 357.758 115.621 357.65C116.029 357.542 116.401 357.41 116.737 357.254V358.658C116.413 358.826 116.053 358.952 115.657 359.036C115.273 359.132 114.805 359.18 114.253 359.18ZM120.615 349.352V353.366H125.853V349.352H127.437V359H125.853V354.698H120.615V359H119.031V349.352H120.615ZM131.986 355.238C131.986 355.346 131.98 355.502 131.968 355.706C131.968 355.898 131.962 356.108 131.95 356.336C131.938 356.552 131.926 356.762 131.914 356.966C131.902 357.158 131.89 357.314 131.878 357.434L137.044 349.352H138.988V359H137.512V353.312C137.512 353.12 137.512 352.868 137.512 352.556C137.524 352.244 137.536 351.938 137.548 351.638C137.56 351.326 137.572 351.092 137.584 350.936L132.454 359H130.492V349.352H131.986V355.238ZM153.632 349.352L149.654 354.032L153.974 359H152.174L147.998 354.104V359H146.522V354.104L142.346 359H140.546L144.866 354.032L140.888 349.352H142.616L146.522 354.032V349.352H147.998V354.032L151.922 349.352H153.632ZM159.212 349.19C160.388 349.19 161.258 349.448 161.822 349.964C162.386 350.48 162.668 351.302 162.668 352.43V359H161.516L161.21 357.632H161.138C160.862 357.98 160.574 358.274 160.274 358.514C159.986 358.742 159.65 358.91 159.266 359.018C158.894 359.126 158.438 359.18 157.898 359.18C157.322 359.18 156.8 359.078 156.332 358.874C155.876 358.67 155.516 358.358 155.252 357.938C154.988 357.506 154.856 356.966 154.856 356.318C154.856 355.358 155.234 354.62 155.99 354.104C156.746 353.576 157.91 353.288 159.482 353.24L161.12 353.186V352.61C161.12 351.806 160.946 351.248 160.598 350.936C160.25 350.624 159.758 350.468 159.122 350.468C158.618 350.468 158.138 350.546 157.682 350.702C157.226 350.846 156.8 351.014 156.404 351.206L155.918 350.018C156.338 349.79 156.836 349.598 157.412 349.442C157.988 349.274 158.588 349.19 159.212 349.19ZM159.68 354.338C158.48 354.386 157.646 354.578 157.178 354.914C156.722 355.25 156.494 355.724 156.494 356.336C156.494 356.876 156.656 357.272 156.98 357.524C157.316 357.776 157.742 357.902 158.258 357.902C159.074 357.902 159.752 357.68 160.292 357.236C160.832 356.78 161.102 356.084 161.102 355.148V354.284L159.68 354.338ZM169.374 349.172C170.202 349.172 170.91 349.352 171.498 349.712C172.098 350.072 172.554 350.582 172.866 351.242C173.19 351.89 173.352 352.652 173.352 353.528V354.482H166.746C166.77 355.574 167.046 356.408 167.574 356.984C168.114 357.548 168.864 357.83 169.824 357.83C170.436 357.83 170.976 357.776 171.444 357.668C171.924 357.548 172.416 357.38 172.92 357.164V358.55C172.428 358.766 171.942 358.922 171.462 359.018C170.982 359.126 170.412 359.18 169.752 359.18C168.84 359.18 168.03 358.994 167.322 358.622C166.626 358.25 166.08 357.698 165.684 356.966C165.3 356.222 165.108 355.316 165.108 354.248C165.108 353.192 165.282 352.286 165.63 351.53C165.99 350.774 166.488 350.192 167.124 349.784C167.772 349.376 168.522 349.172 169.374 349.172ZM169.356 350.468C168.6 350.468 168 350.714 167.556 351.206C167.124 351.686 166.866 352.358 166.782 353.222H171.696C171.696 352.67 171.612 352.19 171.444 351.782C171.276 351.374 171.018 351.056 170.67 350.828C170.334 350.588 169.896 350.468 169.356 350.468ZM182.468 350.684H179.318V359H177.752V350.684H174.638V349.352H182.468V350.684ZM193.003 359.18C192.151 359.18 191.389 359.006 190.717 358.658C190.057 358.31 189.535 357.77 189.151 357.038C188.779 356.306 188.593 355.37 188.593 354.23C188.593 353.042 188.791 352.076 189.187 351.332C189.583 350.588 190.117 350.042 190.789 349.694C191.473 349.346 192.247 349.172 193.111 349.172C193.603 349.172 194.077 349.226 194.533 349.334C194.989 349.43 195.361 349.55 195.649 349.694L195.163 351.008C194.875 350.9 194.539 350.798 194.155 350.702C193.771 350.606 193.411 350.558 193.075 350.558C192.427 350.558 191.893 350.696 191.473 350.972C191.053 351.248 190.741 351.656 190.537 352.196C190.333 352.736 190.231 353.408 190.231 354.212C190.231 354.98 190.333 355.634 190.537 356.174C190.741 356.714 191.047 357.122 191.455 357.398C191.863 357.674 192.373 357.812 192.985 357.812C193.513 357.812 193.975 357.758 194.371 357.65C194.779 357.542 195.151 357.41 195.487 357.254V358.658C195.163 358.826 194.803 358.952 194.407 359.036C194.023 359.132 193.555 359.18 193.003 359.18ZM208.131 349.352V359H206.709V352.844C206.709 352.592 206.715 352.328 206.727 352.052C206.751 351.776 206.775 351.506 206.799 351.242H206.745L203.595 359H202.263L199.203 351.242H199.149C199.173 351.506 199.185 351.776 199.185 352.052C199.197 352.328 199.203 352.61 199.203 352.898V359H197.781V349.352H199.887L202.929 357.11L206.025 349.352H208.131ZM214.937 349.172C215.765 349.172 216.473 349.352 217.061 349.712C217.661 350.072 218.117 350.582 218.429 351.242C218.753 351.89 218.915 352.652 218.915 353.528V354.482H212.309C212.333 355.574 212.609 356.408 213.137 356.984C213.677 357.548 214.427 357.83 215.387 357.83C215.999 357.83 216.539 357.776 217.007 357.668C217.487 357.548 217.979 357.38 218.483 357.164V358.55C217.991 358.766 217.505 358.922 217.025 359.018C216.545 359.126 215.975 359.18 215.315 359.18C214.403 359.18 213.593 358.994 212.885 358.622C212.189 358.25 211.643 357.698 211.247 356.966C210.863 356.222 210.671 355.316 210.671 354.248C210.671 353.192 210.845 352.286 211.193 351.53C211.553 350.774 212.051 350.192 212.687 349.784C213.335 349.376 214.085 349.172 214.937 349.172ZM214.919 350.468C214.163 350.468 213.563 350.714 213.119 351.206C212.687 351.686 212.429 352.358 212.345 353.222H217.259C217.259 352.67 217.175 352.19 217.007 351.782C216.839 351.374 216.581 351.056 216.233 350.828C215.897 350.588 215.459 350.468 214.919 350.468ZM225.961 349.172C227.149 349.172 228.103 349.586 228.823 350.414C229.555 351.242 229.921 352.49 229.921 354.158C229.921 355.25 229.753 356.174 229.417 356.93C229.093 357.674 228.631 358.238 228.031 358.622C227.443 358.994 226.747 359.18 225.943 359.18C225.451 359.18 225.013 359.114 224.629 358.982C224.245 358.85 223.915 358.682 223.639 358.478C223.375 358.262 223.147 358.028 222.955 357.776H222.847C222.871 357.98 222.895 358.238 222.919 358.55C222.943 358.862 222.955 359.132 222.955 359.36V363.32H221.371V349.352H222.667L222.883 350.666H222.955C223.147 350.39 223.375 350.138 223.639 349.91C223.915 349.682 224.239 349.502 224.611 349.37C224.995 349.238 225.445 349.172 225.961 349.172ZM225.673 350.504C225.025 350.504 224.503 350.63 224.107 350.882C223.711 351.122 223.423 351.488 223.243 351.98C223.063 352.472 222.967 353.096 222.955 353.852V354.158C222.955 354.95 223.039 355.622 223.207 356.174C223.375 356.726 223.657 357.146 224.053 357.434C224.461 357.722 225.013 357.866 225.709 357.866C226.297 357.866 226.777 357.704 227.149 357.38C227.533 357.056 227.815 356.618 227.995 356.066C228.187 355.502 228.283 354.86 228.283 354.14C228.283 353.036 228.067 352.154 227.635 351.494C227.215 350.834 226.561 350.504 225.673 350.504ZM238.929 350.684H235.779V359H234.213V350.684H231.099V349.352H238.929V350.684ZM242.414 349.352V353.366H247.652V349.352H249.236V359H247.652V354.698H242.414V359H240.83V349.352H242.414ZM260.679 354.158C260.679 354.962 260.571 355.676 260.355 356.3C260.151 356.912 259.851 357.434 259.455 357.866C259.071 358.298 258.597 358.628 258.033 358.856C257.481 359.072 256.863 359.18 256.179 359.18C255.543 359.18 254.955 359.072 254.415 358.856C253.875 358.628 253.407 358.298 253.011 357.866C252.615 357.434 252.303 356.912 252.075 356.3C251.859 355.676 251.751 354.962 251.751 354.158C251.751 353.09 251.931 352.19 252.291 351.458C252.651 350.714 253.167 350.15 253.839 349.766C254.511 349.37 255.309 349.172 256.233 349.172C257.109 349.172 257.877 349.37 258.537 349.766C259.209 350.15 259.731 350.714 260.103 351.458C260.487 352.19 260.679 353.09 260.679 354.158ZM253.389 354.158C253.389 354.914 253.485 355.574 253.677 356.138C253.881 356.69 254.193 357.116 254.613 357.416C255.033 357.716 255.567 357.866 256.215 357.866C256.863 357.866 257.397 357.716 257.817 357.416C258.237 357.116 258.543 356.69 258.735 356.138C258.939 355.574 259.041 354.914 259.041 354.158C259.041 353.39 258.939 352.736 258.735 352.196C258.531 351.656 258.219 351.242 257.799 350.954C257.391 350.654 256.857 350.504 256.197 350.504C255.213 350.504 254.499 350.828 254.055 351.476C253.611 352.124 253.389 353.018 253.389 354.158ZM267.059 359.18C266.207 359.18 265.445 359.006 264.773 358.658C264.113 358.31 263.591 357.77 263.207 357.038C262.835 356.306 262.649 355.37 262.649 354.23C262.649 353.042 262.847 352.076 263.243 351.332C263.639 350.588 264.173 350.042 264.845 349.694C265.529 349.346 266.303 349.172 267.167 349.172C267.659 349.172 268.133 349.226 268.589 349.334C269.045 349.43 269.417 349.55 269.705 349.694L269.219 351.008C268.931 350.9 268.595 350.798 268.211 350.702C267.827 350.606 267.467 350.558 267.131 350.558C266.483 350.558 265.949 350.696 265.529 350.972C265.109 351.248 264.797 351.656 264.593 352.196C264.389 352.736 264.287 353.408 264.287 354.212C264.287 354.98 264.389 355.634 264.593 356.174C264.797 356.714 265.103 357.122 265.511 357.398C265.919 357.674 266.429 357.812 267.041 357.812C267.569 357.812 268.031 357.758 268.427 357.65C268.835 357.542 269.207 357.41 269.543 357.254V358.658C269.219 358.826 268.859 358.952 268.463 359.036C268.079 359.132 267.611 359.18 267.059 359.18ZM278.498 350.684H275.348V359H273.782V350.684H270.668V349.352H278.498V350.684ZM284.844 353.312C285.684 353.312 286.38 353.414 286.932 353.618C287.484 353.822 287.898 354.128 288.174 354.536C288.462 354.932 288.606 355.436 288.606 356.048C288.606 356.648 288.468 357.17 288.192 357.614C287.928 358.058 287.514 358.4 286.95 358.64C286.386 358.88 285.66 359 284.772 359H280.398V349.352H281.982V353.312H284.844ZM287.022 356.138C287.022 355.55 286.812 355.154 286.392 354.95C285.984 354.734 285.408 354.626 284.664 354.626H281.982V357.722H284.7C285.372 357.722 285.924 357.602 286.356 357.362C286.8 357.122 287.022 356.714 287.022 356.138ZM304.237 354.158C304.237 354.962 304.129 355.676 303.913 356.3C303.709 356.912 303.409 357.434 303.013 357.866C302.629 358.298 302.155 358.628 301.591 358.856C301.039 359.072 300.421 359.18 299.737 359.18C299.101 359.18 298.513 359.072 297.973 358.856C297.433 358.628 296.965 358.298 296.569 357.866C296.173 357.434 295.861 356.912 295.633 356.3C295.417 355.676 295.309 354.962 295.309 354.158C295.309 353.09 295.489 352.19 295.849 351.458C296.209 350.714 296.725 350.15 297.397 349.766C298.069 349.37 298.867 349.172 299.791 349.172C300.667 349.172 301.435 349.37 302.095 349.766C302.767 350.15 303.289 350.714 303.661 351.458C304.045 352.19 304.237 353.09 304.237 354.158ZM296.947 354.158C296.947 354.914 297.043 355.574 297.235 356.138C297.439 356.69 297.751 357.116 298.171 357.416C298.591 357.716 299.125 357.866 299.773 357.866C300.421 357.866 300.955 357.716 301.375 357.416C301.795 357.116 302.101 356.69 302.293 356.138C302.497 355.574 302.599 354.914 302.599 354.158C302.599 353.39 302.497 352.736 302.293 352.196C302.089 351.656 301.777 351.242 301.357 350.954C300.949 350.654 300.415 350.504 299.755 350.504C298.771 350.504 298.057 350.828 297.613 351.476C297.169 352.124 296.947 353.018 296.947 354.158ZM313.232 350.684H310.082V359H308.516V350.684H305.402V349.352H313.232V350.684ZM324.486 349.172C325.674 349.172 326.628 349.586 327.348 350.414C328.08 351.242 328.446 352.49 328.446 354.158C328.446 355.25 328.278 356.174 327.942 356.93C327.618 357.674 327.156 358.238 326.556 358.622C325.968 358.994 325.272 359.18 324.468 359.18C323.976 359.18 323.538 359.114 323.154 358.982C322.77 358.85 322.44 358.682 322.164 358.478C321.9 358.262 321.672 358.028 321.48 357.776H321.372C321.396 357.98 321.42 358.238 321.444 358.55C321.468 358.862 321.48 359.132 321.48 359.36V363.32H319.896V349.352H321.192L321.408 350.666H321.48C321.672 350.39 321.9 350.138 322.164 349.91C322.44 349.682 322.764 349.502 323.136 349.37C323.52 349.238 323.97 349.172 324.486 349.172ZM324.198 350.504C323.55 350.504 323.028 350.63 322.632 350.882C322.236 351.122 321.948 351.488 321.768 351.98C321.588 352.472 321.492 353.096 321.48 353.852V354.158C321.48 354.95 321.564 355.622 321.732 356.174C321.9 356.726 322.182 357.146 322.578 357.434C322.986 357.722 323.538 357.866 324.234 357.866C324.822 357.866 325.302 357.704 325.674 357.38C326.058 357.056 326.34 356.618 326.52 356.066C326.712 355.502 326.808 354.86 326.808 354.14C326.808 353.036 326.592 352.154 326.16 351.494C325.74 350.834 325.086 350.504 324.198 350.504ZM334.624 349.19C335.8 349.19 336.67 349.448 337.234 349.964C337.798 350.48 338.08 351.302 338.08 352.43V359H336.928L336.622 357.632H336.55C336.274 357.98 335.986 358.274 335.686 358.514C335.398 358.742 335.062 358.91 334.678 359.018C334.306 359.126 333.85 359.18 333.31 359.18C332.734 359.18 332.212 359.078 331.744 358.874C331.288 358.67 330.928 358.358 330.664 357.938C330.4 357.506 330.268 356.966 330.268 356.318C330.268 355.358 330.646 354.62 331.402 354.104C332.158 353.576 333.322 353.288 334.894 353.24L336.532 353.186V352.61C336.532 351.806 336.358 351.248 336.01 350.936C335.662 350.624 335.17 350.468 334.534 350.468C334.03 350.468 333.55 350.546 333.094 350.702C332.638 350.846 332.212 351.014 331.816 351.206L331.33 350.018C331.75 349.79 332.248 349.598 332.824 349.442C333.4 349.274 334 349.19 334.624 349.19ZM335.092 354.338C333.892 354.386 333.058 354.578 332.59 354.914C332.134 355.25 331.906 355.724 331.906 356.336C331.906 356.876 332.068 357.272 332.392 357.524C332.728 357.776 333.154 357.902 333.67 357.902C334.486 357.902 335.164 357.68 335.704 357.236C336.244 356.78 336.514 356.084 336.514 355.148V354.284L335.092 354.338ZM346.766 349.352H348.494L344.372 353.996L348.836 359H347L342.644 354.104V359H341.06V349.352H342.644V354.032L346.766 349.352ZM354.242 349.19C355.418 349.19 356.288 349.448 356.852 349.964C357.416 350.48 357.698 351.302 357.698 352.43V359H356.546L356.24 357.632H356.168C355.892 357.98 355.604 358.274 355.304 358.514C355.016 358.742 354.68 358.91 354.296 359.018C353.924 359.126 353.468 359.18 352.928 359.18C352.352 359.18 351.83 359.078 351.362 358.874C350.906 358.67 350.546 358.358 350.282 357.938C350.018 357.506 349.886 356.966 349.886 356.318C349.886 355.358 350.264 354.62 351.02 354.104C351.776 353.576 352.94 353.288 354.512 353.24L356.15 353.186V352.61C356.15 351.806 355.976 351.248 355.628 350.936C355.28 350.624 354.788 350.468 354.152 350.468C353.648 350.468 353.168 350.546 352.712 350.702C352.256 350.846 351.83 351.014 351.434 351.206L350.948 350.018C351.368 349.79 351.866 349.598 352.442 349.442C353.018 349.274 353.618 349.19 354.242 349.19ZM354.71 354.338C353.51 354.386 352.676 354.578 352.208 354.914C351.752 355.25 351.524 355.724 351.524 356.336C351.524 356.876 351.686 357.272 352.01 357.524C352.346 357.776 352.772 357.902 353.288 357.902C354.104 357.902 354.782 357.68 355.322 357.236C355.862 356.78 356.132 356.084 356.132 355.148V354.284L354.71 354.338ZM207.647 382H206.045V373.666H203.201C203.081 375.19 202.931 376.492 202.751 377.572C202.571 378.64 202.343 379.51 202.067 380.182C201.791 380.854 201.461 381.346 201.077 381.658C200.693 381.97 200.243 382.126 199.727 382.126C199.571 382.126 199.415 382.114 199.259 382.09C199.115 382.078 198.995 382.048 198.899 382V380.812C198.971 380.836 199.049 380.854 199.133 380.866C199.217 380.878 199.301 380.884 199.385 380.884C199.649 380.884 199.889 380.776 200.105 380.56C200.321 380.344 200.513 380.014 200.681 379.57C200.861 379.126 201.023 378.568 201.167 377.896C201.311 377.212 201.437 376.408 201.545 375.484C201.653 374.56 201.749 373.516 201.833 372.352H207.647V382ZM214.436 372.172C215.264 372.172 215.972 372.352 216.56 372.712C217.16 373.072 217.616 373.582 217.928 374.242C218.252 374.89 218.414 375.652 218.414 376.528V377.482H211.808C211.832 378.574 212.108 379.408 212.636 379.984C213.176 380.548 213.926 380.83 214.886 380.83C215.498 380.83 216.038 380.776 216.506 380.668C216.986 380.548 217.478 380.38 217.982 380.164V381.55C217.49 381.766 217.004 381.922 216.524 382.018C216.044 382.126 215.474 382.18 214.814 382.18C213.902 382.18 213.092 381.994 212.384 381.622C211.688 381.25 211.142 380.698 210.746 379.966C210.362 379.222 210.17 378.316 210.17 377.248C210.17 376.192 210.344 375.286 210.692 374.53C211.052 373.774 211.55 373.192 212.186 372.784C212.834 372.376 213.584 372.172 214.436 372.172ZM214.418 373.468C213.662 373.468 213.062 373.714 212.618 374.206C212.186 374.686 211.928 375.358 211.844 376.222H216.758C216.758 375.67 216.674 375.19 216.506 374.782C216.338 374.374 216.08 374.056 215.732 373.828C215.396 373.588 214.958 373.468 214.418 373.468ZM211.772 369.742C211.772 369.43 211.856 369.208 212.024 369.076C212.192 368.932 212.39 368.86 212.618 368.86C212.846 368.86 213.044 368.932 213.212 369.076C213.38 369.208 213.464 369.43 213.464 369.742C213.464 370.042 213.38 370.27 213.212 370.426C213.044 370.57 212.846 370.642 212.618 370.642C212.39 370.642 212.192 370.57 212.024 370.426C211.856 370.27 211.772 370.042 211.772 369.742ZM215.156 369.742C215.156 369.43 215.234 369.208 215.39 369.076C215.558 368.932 215.756 368.86 215.984 368.86C216.212 368.86 216.41 368.932 216.578 369.076C216.746 369.208 216.83 369.43 216.83 369.742C216.83 370.042 216.746 370.27 216.578 370.426C216.41 370.57 216.212 370.642 215.984 370.642C215.756 370.642 215.558 370.57 215.39 370.426C215.234 370.27 215.156 370.042 215.156 369.742ZM226.756 372.352V373.684H222.454V382H220.87V372.352H226.756ZM234.363 372.352H236.091L231.969 376.996L236.433 382H234.597L230.241 377.104V382H228.657V372.352H230.241V377.032L234.363 372.352ZM246.221 377.158C246.221 377.962 246.113 378.676 245.897 379.3C245.693 379.912 245.393 380.434 244.997 380.866C244.613 381.298 244.139 381.628 243.575 381.856C243.023 382.072 242.405 382.18 241.721 382.18C241.085 382.18 240.497 382.072 239.957 381.856C239.417 381.628 238.949 381.298 238.553 380.866C238.157 380.434 237.845 379.912 237.617 379.3C237.401 378.676 237.293 377.962 237.293 377.158C237.293 376.09 237.473 375.19 237.833 374.458C238.193 373.714 238.709 373.15 239.381 372.766C240.053 372.37 240.851 372.172 241.775 372.172C242.651 372.172 243.419 372.37 244.079 372.766C244.751 373.15 245.273 373.714 245.645 374.458C246.029 375.19 246.221 376.09 246.221 377.158ZM238.931 377.158C238.931 377.914 239.027 378.574 239.219 379.138C239.423 379.69 239.735 380.116 240.155 380.416C240.575 380.716 241.109 380.866 241.757 380.866C242.405 380.866 242.939 380.716 243.359 380.416C243.779 380.116 244.085 379.69 244.277 379.138C244.481 378.574 244.583 377.914 244.583 377.158C244.583 376.39 244.481 375.736 244.277 375.196C244.073 374.656 243.761 374.242 243.341 373.954C242.933 373.654 242.399 373.504 241.739 373.504C240.755 373.504 240.041 373.828 239.597 374.476C239.153 375.124 238.931 376.018 238.931 377.158ZM254.617 372.352V373.684H250.315V382H248.731V372.352H254.617ZM264.73 377.158C264.73 377.962 264.623 378.676 264.407 379.3C264.203 379.912 263.903 380.434 263.507 380.866C263.123 381.298 262.649 381.628 262.085 381.856C261.533 382.072 260.915 382.18 260.231 382.18C259.595 382.18 259.007 382.072 258.467 381.856C257.927 381.628 257.459 381.298 257.062 380.866C256.667 380.434 256.355 379.912 256.127 379.3C255.911 378.676 255.803 377.962 255.803 377.158C255.803 376.09 255.983 375.19 256.343 374.458C256.703 373.714 257.219 373.15 257.891 372.766C258.563 372.37 259.361 372.172 260.285 372.172C261.161 372.172 261.929 372.37 262.589 372.766C263.261 373.15 263.783 373.714 264.155 374.458C264.539 375.19 264.73 376.09 264.73 377.158ZM257.441 377.158C257.441 377.914 257.537 378.574 257.729 379.138C257.933 379.69 258.245 380.116 258.665 380.416C259.085 380.716 259.619 380.866 260.267 380.866C260.915 380.866 261.449 380.716 261.869 380.416C262.289 380.116 262.595 379.69 262.787 379.138C262.991 378.574 263.093 377.914 263.093 377.158C263.093 376.39 262.991 375.736 262.787 375.196C262.583 374.656 262.271 374.242 261.851 373.954C261.443 373.654 260.909 373.504 260.249 373.504C259.265 373.504 258.551 373.828 258.107 374.476C257.663 375.124 257.441 376.018 257.441 377.158ZM267.475 382.09C267.175 382.09 266.923 381.994 266.719 381.802C266.527 381.598 266.431 381.352 266.431 381.064C266.431 380.776 266.527 380.536 266.719 380.344C266.923 380.14 267.175 380.038 267.475 380.038C267.763 380.038 268.003 380.14 268.195 380.344C268.399 380.536 268.501 380.776 268.501 381.064C268.501 381.352 268.399 381.598 268.195 381.802C268.003 381.994 267.763 382.09 267.475 382.09Z" fill="black"/>
<path d="M212.041 189V184.84H201.001V181.576L211.497 166.6H216.137V181.288H219.081V184.84H216.137V189H212.041ZM205.385 181.288H212.297V171.112L205.385 181.288ZM232.541 189V184.84H221.501V181.576L231.997 166.6H236.637V181.288H239.581V184.84H236.637V189H232.541ZM225.885 181.288H232.797V171.112L225.885 181.288ZM246.878 177.608C245.854 177.608 244.926 177.384 244.094 176.936C243.262 176.467 242.6 175.805 242.11 174.952C241.619 174.099 241.374 173.085 241.374 171.912C241.374 170.739 241.619 169.725 242.11 168.872C242.6 168.019 243.262 167.368 244.094 166.92C244.926 166.451 245.864 166.216 246.91 166.216C247.934 166.216 248.851 166.451 249.662 166.92C250.494 167.368 251.155 168.019 251.646 168.872C252.136 169.725 252.382 170.739 252.382 171.912C252.382 173.085 252.136 174.099 251.646 174.952C251.155 175.805 250.494 176.467 249.662 176.936C248.83 177.384 247.902 177.608 246.878 177.608ZM245.662 189L258.302 166.6H262.302L249.662 189H245.662ZM246.878 174.76C247.496 174.76 248.03 174.525 248.478 174.056C248.926 173.565 249.15 172.851 249.15 171.912C249.15 170.973 248.926 170.259 248.478 169.768C248.051 169.277 247.518 169.032 246.878 169.032C246.238 169.032 245.694 169.277 245.246 169.768C244.819 170.259 244.606 170.973 244.606 171.912C244.606 172.851 244.819 173.565 245.246 174.056C245.694 174.525 246.238 174.76 246.878 174.76ZM261.214 189.384C260.19 189.384 259.262 189.16 258.43 188.712C257.598 188.243 256.936 187.581 256.446 186.728C255.955 185.875 255.71 184.861 255.71 183.688C255.71 182.515 255.955 181.512 256.446 180.68C256.936 179.827 257.598 179.176 258.43 178.728C259.262 178.259 260.2 178.024 261.246 178.024C262.27 178.024 263.187 178.259 263.998 178.728C264.83 179.176 265.491 179.827 265.982 180.68C266.472 181.512 266.718 182.515 266.718 183.688C266.718 184.861 266.472 185.875 265.982 186.728C265.491 187.581 264.83 188.243 263.998 188.712C263.187 189.16 262.259 189.384 261.214 189.384ZM261.214 186.536C261.854 186.536 262.387 186.301 262.814 185.832C263.262 185.341 263.486 184.627 263.486 183.688C263.486 182.749 263.262 182.035 262.814 181.544C262.387 181.053 261.854 180.808 261.214 180.808C260.574 180.808 260.03 181.053 259.582 181.544C259.155 182.035 258.942 182.749 258.942 183.688C258.942 184.627 259.155 185.341 259.582 185.832C260.03 186.301 260.574 186.536 261.214 186.536Z" fill="#1B1642"/>
<circle cx="226.224" cy="97.6873" r="9.70681" transform="rotate(127.754 226.224 97.6873)" fill="#EA5858"/>
<path d="M208.674 274.423C204.436 271.141 203.661 264.913 206.943 260.675C210.226 256.436 216.323 255.661 220.561 258.943C224.8 262.226 225.575 268.453 222.292 272.692C219.01 276.93 212.913 277.705 208.674 274.423Z" fill="#EA5858"/>
<mask id="mask0_1397_798" style="mask-type:alpha" maskUnits="userSpaceOnUse" x="93" y="66" width="134" height="220">
<path d="M220.346 182.911L214.5 285.5L93.0635 226.656L170.579 66.9841L226.082 80.2421L226.749 147.16L220.346 182.911Z" fill="#C4C4C4"/>
</mask>
<g mask="url(#mask0_1397_798)">
<path fill-rule="evenodd" clip-rule="evenodd" d="M146.614 124.437C114.686 165.667 122.226 224.973 163.456 256.901C204.686 288.83 263.993 281.289 295.921 240.059C327.849 198.829 320.309 139.523 279.079 107.594C237.849 75.6661 178.542 83.2067 146.614 124.437ZM161.963 136.323C136.6 169.076 142.59 216.188 175.343 241.552C208.096 266.916 255.208 260.925 280.572 228.173C305.935 195.42 299.945 148.307 267.192 122.944C234.44 97.5801 187.327 103.57 161.963 136.323Z" fill="#EA5858"/>
</g>
</g>
</g>
<defs>
<filter id="filter0_dd_1397_798" x="0" y="0" width="468" height="529" filterUnits="userSpaceOnUse" color-interpolation-filters="sRGB">
<feFlood flood-opacity="0" result="BackgroundImageFix"/>
<feColorMatrix in="SourceAlpha" type="matrix" values="0 0 0 0 0 0 0 0 0 0 0 0 0 0 0 0 0 0 127 0" result="hardAlpha"/>
<feOffset dy="44"/>
<feGaussianBlur stdDeviation="37"/>
<feColorMatrix type="matrix" values="0 0 0 0 0.103299 0 0 0 0 0.0836699 0 0 0 0 0.277995 0 0 0 0.06 0"/>
<feBlend mode="normal" in2="BackgroundImageFix" result="effect1_dropShadow_1397_798"/>
<feColorMatrix in="SourceAlpha" type="matrix" values="0 0 0 0 0 0 0 0 0 0 0 0 0 0 0 0 0 0 127 0" result="hardAlpha"/>
<feOffset/>
<feGaussianBlur stdDeviation="12"/>
<feColorMatrix type="matrix" values="0 0 0 0 0 0 0 0 0 0 0 0 0 0 0 0 0 0 0.04 0"/>
<feBlend mode="normal" in2="effect1_dropShadow_1397_798" result="effect2_dropShadow_1397_798"/>
<feBlend mode="normal" in="SourceGraphic" in2="effect2_dropShadow_1397_798" result="shape"/>
</filter>
<clipPath id="clip0_1397_798">
<path d="M74 46C74 37.1634 81.1634 30 90 30H394V395C394 403.837 386.837 411 378 411H74V46Z" fill="white"/>
</clipPath>
</defs>
</svg>
