<svg width="468" height="529" viewBox="0 0 468 529" fill="none" xmlns="http://www.w3.org/2000/svg">
<g filter="url(#filter0_dd_1397_845)">
<path d="M74 46C74 37.1634 81.1634 30 90 30H394V395C394 403.837 386.837 411 378 411H74V46Z" fill="white"/>
<path d="M208.33 189.384C206.794 189.384 205.407 189.117 204.17 188.584C202.933 188.029 201.941 187.251 201.194 186.248C200.469 185.245 200.106 184.083 200.106 182.76C200.106 181.395 200.458 180.2 201.162 179.176C201.887 178.152 202.837 177.416 204.01 176.968C202.986 176.52 202.175 175.88 201.578 175.048C200.981 174.195 200.682 173.245 200.682 172.2C200.682 171.133 200.97 170.152 201.546 169.256C202.122 168.339 202.975 167.603 204.106 167.048C205.258 166.493 206.666 166.216 208.33 166.216C209.994 166.216 211.391 166.493 212.522 167.048C213.653 167.603 214.506 168.339 215.082 169.256C215.658 170.152 215.946 171.133 215.946 172.2C215.946 173.224 215.637 174.173 215.018 175.048C214.421 175.901 213.621 176.541 212.618 176.968C213.813 177.416 214.762 178.152 215.466 179.176C216.17 180.2 216.522 181.395 216.522 182.76C216.522 184.083 216.159 185.245 215.434 186.248C214.709 187.251 213.717 188.029 212.458 188.584C211.221 189.117 209.845 189.384 208.33 189.384ZM208.33 175.752C209.439 175.752 210.314 175.464 210.954 174.888C211.594 174.312 211.914 173.576 211.914 172.68C211.914 171.699 211.594 170.931 210.954 170.376C210.335 169.821 209.461 169.544 208.33 169.544C207.178 169.544 206.293 169.821 205.674 170.376C205.055 170.931 204.746 171.699 204.746 172.68C204.746 173.597 205.055 174.344 205.674 174.92C206.314 175.475 207.199 175.752 208.33 175.752ZM208.33 185.96C209.695 185.96 210.73 185.629 211.434 184.968C212.138 184.285 212.49 183.432 212.49 182.408C212.49 181.277 212.117 180.392 211.37 179.752C210.645 179.112 209.631 178.792 208.33 178.792C207.029 178.792 205.994 179.112 205.226 179.752C204.479 180.392 204.106 181.277 204.106 182.408C204.106 183.432 204.458 184.285 205.162 184.968C205.887 185.629 206.943 185.96 208.33 185.96ZM229.735 189.384C227.666 189.384 225.895 188.904 224.423 187.944C222.951 186.963 221.81 185.608 220.999 183.88C220.21 182.131 219.815 180.104 219.815 177.8C219.815 175.517 220.21 173.501 220.999 171.752C221.81 170.003 222.951 168.648 224.423 167.688C225.895 166.707 227.666 166.216 229.735 166.216C231.804 166.216 233.575 166.707 235.047 167.688C236.519 168.648 237.65 170.003 238.439 171.752C239.25 173.501 239.655 175.517 239.655 177.8C239.655 180.104 239.25 182.131 238.439 183.88C237.65 185.608 236.519 186.963 235.047 187.944C233.575 188.904 231.804 189.384 229.735 189.384ZM229.735 185.704C231.42 185.704 232.796 185 233.863 183.592C234.93 182.184 235.463 180.253 235.463 177.8C235.463 175.347 234.93 173.416 233.863 172.008C232.796 170.6 231.42 169.896 229.735 169.896C228.028 169.896 226.642 170.6 225.575 172.008C224.53 173.416 224.007 175.347 224.007 177.8C224.007 180.253 224.53 182.184 225.575 183.592C226.642 185 228.028 185.704 229.735 185.704ZM247.878 177.608C246.854 177.608 245.926 177.384 245.094 176.936C244.262 176.467 243.6 175.805 243.11 174.952C242.619 174.099 242.374 173.085 242.374 171.912C242.374 170.739 242.619 169.725 243.11 168.872C243.6 168.019 244.262 167.368 245.094 166.92C245.926 166.451 246.864 166.216 247.91 166.216C248.934 166.216 249.851 166.451 250.662 166.92C251.494 167.368 252.155 168.019 252.646 168.872C253.136 169.725 253.382 170.739 253.382 171.912C253.382 173.085 253.136 174.099 252.646 174.952C252.155 175.805 251.494 176.467 250.662 176.936C249.83 177.384 248.902 177.608 247.878 177.608ZM246.662 189L259.302 166.6H263.302L250.662 189H246.662ZM247.878 174.76C248.496 174.76 249.03 174.525 249.478 174.056C249.926 173.565 250.15 172.851 250.15 171.912C250.15 170.973 249.926 170.259 249.478 169.768C249.051 169.277 248.518 169.032 247.878 169.032C247.238 169.032 246.694 169.277 246.246 169.768C245.819 170.259 245.606 170.973 245.606 171.912C245.606 172.851 245.819 173.565 246.246 174.056C246.694 174.525 247.238 174.76 247.878 174.76ZM262.214 189.384C261.19 189.384 260.262 189.16 259.43 188.712C258.598 188.243 257.936 187.581 257.446 186.728C256.955 185.875 256.71 184.861 256.71 183.688C256.71 182.515 256.955 181.512 257.446 180.68C257.936 179.827 258.598 179.176 259.43 178.728C260.262 178.259 261.2 178.024 262.246 178.024C263.27 178.024 264.187 178.259 264.998 178.728C265.83 179.176 266.491 179.827 266.982 180.68C267.472 181.512 267.718 182.515 267.718 183.688C267.718 184.861 267.472 185.875 266.982 186.728C266.491 187.581 265.83 188.243 264.998 188.712C264.187 189.16 263.259 189.384 262.214 189.384ZM262.214 186.536C262.854 186.536 263.387 186.301 263.814 185.832C264.262 185.341 264.486 184.627 264.486 183.688C264.486 182.749 264.262 182.035 263.814 181.544C263.387 181.053 262.854 180.808 262.214 180.808C261.574 180.808 261.03 181.053 260.582 181.544C260.155 182.035 259.942 182.749 259.942 183.688C259.942 184.627 260.155 185.341 260.582 185.832C261.03 186.301 261.574 186.536 262.214 186.536Z" fill="#1B1642"/>
<path d="M130.065 54.39C129.381 54.39 128.763 54.51 128.211 54.75C127.659 54.978 127.191 55.32 126.807 55.776C126.423 56.22 126.129 56.766 125.925 57.414C125.721 58.05 125.619 58.77 125.619 59.574C125.619 60.63 125.781 61.548 126.105 62.328C126.441 63.108 126.933 63.708 127.581 64.128C128.241 64.548 129.063 64.758 130.047 64.758C130.611 64.758 131.145 64.71 131.649 64.614C132.153 64.518 132.645 64.398 133.125 64.254V65.658C132.645 65.838 132.147 65.97 131.631 66.054C131.127 66.138 130.521 66.18 129.813 66.18C128.505 66.18 127.413 65.91 126.537 65.37C125.661 64.83 125.001 64.062 124.557 63.066C124.125 62.07 123.909 60.9 123.909 59.556C123.909 58.584 124.041 57.696 124.305 56.892C124.581 56.088 124.977 55.392 125.493 54.804C126.021 54.216 126.669 53.766 127.437 53.454C128.205 53.13 129.087 52.968 130.083 52.968C130.743 52.968 131.379 53.034 131.991 53.166C132.603 53.298 133.149 53.484 133.629 53.724L132.981 55.092C132.585 54.912 132.141 54.75 131.649 54.606C131.169 54.462 130.641 54.39 130.065 54.39ZM141.42 56.352H143.148L139.026 60.996L143.49 66H141.654L137.298 61.104V66H135.714V56.352H137.298V61.032L141.42 56.352ZM149.831 56.172C151.019 56.172 151.973 56.586 152.693 57.414C153.425 58.242 153.791 59.49 153.791 61.158C153.791 62.25 153.623 63.174 153.287 63.93C152.963 64.674 152.501 65.238 151.901 65.622C151.313 65.994 150.617 66.18 149.813 66.18C149.321 66.18 148.883 66.114 148.499 65.982C148.115 65.85 147.785 65.682 147.509 65.478C147.245 65.262 147.017 65.028 146.825 64.776H146.717C146.741 64.98 146.765 65.238 146.789 65.55C146.813 65.862 146.825 66.132 146.825 66.36V70.32H145.241V56.352H146.537L146.753 57.666H146.825C147.017 57.39 147.245 57.138 147.509 56.91C147.785 56.682 148.109 56.502 148.481 56.37C148.865 56.238 149.315 56.172 149.831 56.172ZM149.543 57.504C148.895 57.504 148.373 57.63 147.977 57.882C147.581 58.122 147.293 58.488 147.113 58.98C146.933 59.472 146.837 60.096 146.825 60.852V61.158C146.825 61.95 146.909 62.622 147.077 63.174C147.245 63.726 147.527 64.146 147.923 64.434C148.331 64.722 148.883 64.866 149.579 64.866C150.167 64.866 150.647 64.704 151.019 64.38C151.403 64.056 151.685 63.618 151.865 63.066C152.057 62.502 152.153 61.86 152.153 61.14C152.153 60.036 151.937 59.154 151.505 58.494C151.085 57.834 150.431 57.504 149.543 57.504ZM157.809 62.238C157.809 62.346 157.803 62.502 157.791 62.706C157.791 62.898 157.785 63.108 157.773 63.336C157.761 63.552 157.749 63.762 157.737 63.966C157.725 64.158 157.713 64.314 157.701 64.434L162.867 56.352H164.811V66H163.335V60.312C163.335 60.12 163.335 59.868 163.335 59.556C163.347 59.244 163.359 58.938 163.371 58.638C163.383 58.326 163.395 58.092 163.407 57.936L158.277 66H156.315V56.352H157.809V62.238ZM169.466 56.352V60.366H174.704V56.352H176.288V66H174.704V61.698H169.466V66H167.882V56.352H169.466ZM180.837 62.238C180.837 62.346 180.831 62.502 180.819 62.706C180.819 62.898 180.813 63.108 180.801 63.336C180.789 63.552 180.777 63.762 180.765 63.966C180.753 64.158 180.741 64.314 180.729 64.434L185.895 56.352H187.839V66H186.363V60.312C186.363 60.12 186.363 59.868 186.363 59.556C186.375 59.244 186.387 58.938 186.399 58.638C186.411 58.326 186.423 58.092 186.435 57.936L181.305 66H179.343V56.352H180.837V62.238ZM192.493 56.352V60.366H197.731V56.352H199.315V66H197.731V61.698H192.493V66H190.909V56.352H192.493ZM208.256 56.352V57.684H203.954V66H202.37V56.352H208.256ZM218.562 66.18C217.71 66.18 216.948 66.006 216.276 65.658C215.616 65.31 215.094 64.77 214.71 64.038C214.338 63.306 214.152 62.37 214.152 61.23C214.152 60.042 214.35 59.076 214.746 58.332C215.142 57.588 215.676 57.042 216.348 56.694C217.032 56.346 217.806 56.172 218.67 56.172C219.162 56.172 219.636 56.226 220.092 56.334C220.548 56.43 220.92 56.55 221.208 56.694L220.722 58.008C220.434 57.9 220.098 57.798 219.714 57.702C219.33 57.606 218.97 57.558 218.634 57.558C217.986 57.558 217.452 57.696 217.032 57.972C216.612 58.248 216.3 58.656 216.096 59.196C215.892 59.736 215.79 60.408 215.79 61.212C215.79 61.98 215.892 62.634 216.096 63.174C216.3 63.714 216.606 64.122 217.014 64.398C217.422 64.674 217.932 64.812 218.544 64.812C219.072 64.812 219.534 64.758 219.93 64.65C220.338 64.542 220.71 64.41 221.046 64.254V65.658C220.722 65.826 220.362 65.952 219.966 66.036C219.582 66.132 219.114 66.18 218.562 66.18ZM231.495 56.352V66H229.911V57.702H224.925V66H223.341V56.352H231.495ZM238.227 56.19C239.403 56.19 240.273 56.448 240.837 56.964C241.401 57.48 241.683 58.302 241.683 59.43V66H240.531L240.225 64.632H240.153C239.877 64.98 239.589 65.274 239.289 65.514C239.001 65.742 238.665 65.91 238.281 66.018C237.909 66.126 237.453 66.18 236.913 66.18C236.337 66.18 235.815 66.078 235.347 65.874C234.891 65.67 234.531 65.358 234.267 64.938C234.003 64.506 233.871 63.966 233.871 63.318C233.871 62.358 234.249 61.62 235.005 61.104C235.761 60.576 236.925 60.288 238.497 60.24L240.135 60.186V59.61C240.135 58.806 239.961 58.248 239.613 57.936C239.265 57.624 238.773 57.468 238.137 57.468C237.633 57.468 237.153 57.546 236.697 57.702C236.241 57.846 235.815 58.014 235.419 58.206L234.933 57.018C235.353 56.79 235.851 56.598 236.427 56.442C237.003 56.274 237.603 56.19 238.227 56.19ZM238.695 61.338C237.495 61.386 236.661 61.578 236.193 61.914C235.737 62.25 235.509 62.724 235.509 63.336C235.509 63.876 235.671 64.272 235.995 64.524C236.331 64.776 236.757 64.902 237.273 64.902C238.089 64.902 238.767 64.68 239.307 64.236C239.847 63.78 240.117 63.084 240.117 62.148V61.284L238.695 61.338ZM248.533 66.18C247.681 66.18 246.919 66.006 246.247 65.658C245.587 65.31 245.065 64.77 244.681 64.038C244.309 63.306 244.123 62.37 244.123 61.23C244.123 60.042 244.321 59.076 244.717 58.332C245.113 57.588 245.647 57.042 246.319 56.694C247.003 56.346 247.777 56.172 248.641 56.172C249.133 56.172 249.607 56.226 250.063 56.334C250.519 56.43 250.891 56.55 251.179 56.694L250.693 58.008C250.405 57.9 250.069 57.798 249.685 57.702C249.301 57.606 248.941 57.558 248.605 57.558C247.957 57.558 247.423 57.696 247.003 57.972C246.583 58.248 246.271 58.656 246.067 59.196C245.863 59.736 245.761 60.408 245.761 61.212C245.761 61.98 245.863 62.634 246.067 63.174C246.271 63.714 246.577 64.122 246.985 64.398C247.393 64.674 247.903 64.812 248.515 64.812C249.043 64.812 249.505 64.758 249.901 64.65C250.309 64.542 250.681 64.41 251.017 64.254V65.658C250.693 65.826 250.333 65.952 249.937 66.036C249.553 66.132 249.085 66.18 248.533 66.18ZM256.965 56.19C258.141 56.19 259.011 56.448 259.575 56.964C260.139 57.48 260.421 58.302 260.421 59.43V66H259.269L258.963 64.632H258.891C258.615 64.98 258.327 65.274 258.027 65.514C257.739 65.742 257.403 65.91 257.019 66.018C256.647 66.126 256.191 66.18 255.651 66.18C255.075 66.18 254.553 66.078 254.085 65.874C253.629 65.67 253.269 65.358 253.005 64.938C252.741 64.506 252.609 63.966 252.609 63.318C252.609 62.358 252.987 61.62 253.743 61.104C254.499 60.576 255.663 60.288 257.235 60.24L258.873 60.186V59.61C258.873 58.806 258.699 58.248 258.351 57.936C258.003 57.624 257.511 57.468 256.875 57.468C256.371 57.468 255.891 57.546 255.435 57.702C254.979 57.846 254.553 58.014 254.157 58.206L253.671 57.018C254.091 56.79 254.589 56.598 255.165 56.442C255.741 56.274 256.341 56.19 256.965 56.19ZM257.433 61.338C256.233 61.386 255.399 61.578 254.931 61.914C254.475 62.25 254.247 62.724 254.247 63.336C254.247 63.876 254.409 64.272 254.733 64.524C255.069 64.776 255.495 64.902 256.011 64.902C256.827 64.902 257.505 64.68 258.045 64.236C258.585 63.78 258.855 63.084 258.855 62.148V61.284L257.433 61.338ZM267.127 56.172C267.955 56.172 268.663 56.352 269.251 56.712C269.851 57.072 270.307 57.582 270.619 58.242C270.943 58.89 271.105 59.652 271.105 60.528V61.482H264.499C264.523 62.574 264.799 63.408 265.327 63.984C265.867 64.548 266.617 64.83 267.577 64.83C268.189 64.83 268.729 64.776 269.197 64.668C269.677 64.548 270.169 64.38 270.673 64.164V65.55C270.181 65.766 269.695 65.922 269.215 66.018C268.735 66.126 268.165 66.18 267.505 66.18C266.593 66.18 265.783 65.994 265.075 65.622C264.379 65.25 263.833 64.698 263.437 63.966C263.053 63.222 262.861 62.316 262.861 61.248C262.861 60.192 263.035 59.286 263.383 58.53C263.743 57.774 264.241 57.192 264.877 56.784C265.525 56.376 266.275 56.172 267.127 56.172ZM267.109 57.468C266.353 57.468 265.753 57.714 265.309 58.206C264.877 58.686 264.619 59.358 264.535 60.222H269.449C269.449 59.67 269.365 59.19 269.197 58.782C269.029 58.374 268.771 58.056 268.423 57.828C268.087 57.588 267.649 57.468 267.109 57.468ZM280.221 57.684H277.071V66H275.505V57.684H272.391V56.352H280.221V57.684ZM298.231 56.352L294.253 61.032L298.573 66H296.773L292.597 61.104V66H291.121V61.104L286.945 66H285.145L289.465 61.032L285.487 56.352H287.215L291.121 61.032V56.352H292.597V61.032L296.521 56.352H298.231ZM301.651 62.238C301.651 62.346 301.645 62.502 301.633 62.706C301.633 62.898 301.627 63.108 301.615 63.336C301.603 63.552 301.591 63.762 301.579 63.966C301.567 64.158 301.555 64.314 301.543 64.434L306.709 56.352H308.653V66H307.177V60.312C307.177 60.12 307.177 59.868 307.177 59.556C307.189 59.244 307.201 58.938 307.213 58.638C307.225 58.326 307.237 58.092 307.249 57.936L302.119 66H300.157V56.352H301.651V62.238ZM314.261 56.172C314.993 56.172 315.629 56.274 316.169 56.478C316.709 56.67 317.129 56.958 317.429 57.342C317.729 57.714 317.879 58.17 317.879 58.71C317.879 59.298 317.717 59.766 317.393 60.114C317.069 60.45 316.625 60.696 316.061 60.852V60.924C316.445 61.032 316.799 61.182 317.123 61.374C317.447 61.566 317.705 61.818 317.897 62.13C318.101 62.442 318.203 62.844 318.203 63.336C318.203 63.864 318.053 64.344 317.753 64.776C317.465 65.208 317.015 65.55 316.403 65.802C315.803 66.054 315.029 66.18 314.081 66.18C313.625 66.18 313.187 66.156 312.767 66.108C312.359 66.06 311.987 65.988 311.651 65.892C311.327 65.796 311.039 65.682 310.787 65.55V64.128C311.195 64.32 311.675 64.494 312.227 64.65C312.791 64.806 313.403 64.884 314.063 64.884C314.543 64.884 314.975 64.83 315.359 64.722C315.755 64.614 316.067 64.446 316.295 64.218C316.523 63.978 316.637 63.654 316.637 63.246C316.637 62.874 316.535 62.574 316.331 62.346C316.127 62.106 315.821 61.926 315.413 61.806C315.017 61.686 314.507 61.626 313.883 61.626H312.587V60.33H313.631C314.459 60.33 315.119 60.222 315.611 60.006C316.115 59.778 316.367 59.394 316.367 58.854C316.367 58.398 316.175 58.056 315.791 57.828C315.419 57.6 314.879 57.486 314.171 57.486C313.643 57.486 313.175 57.54 312.767 57.648C312.371 57.744 311.933 57.894 311.453 58.098L310.895 56.838C311.411 56.61 311.951 56.442 312.515 56.334C313.079 56.226 313.661 56.172 314.261 56.172ZM322.132 56.352V60.366H327.37V56.352H328.954V66H327.37V61.698H322.132V66H320.548V56.352H322.132ZM333.503 62.238C333.503 62.346 333.497 62.502 333.485 62.706C333.485 62.898 333.479 63.108 333.467 63.336C333.455 63.552 333.443 63.762 333.431 63.966C333.419 64.158 333.407 64.314 333.395 64.434L338.561 56.352H340.505V66H339.029V60.312C339.029 60.12 339.029 59.868 339.029 59.556C339.041 59.244 339.053 58.938 339.065 58.638C339.077 58.326 339.089 58.092 339.101 57.936L333.971 66H332.009V56.352H333.503V62.238ZM344.007 66.108C343.647 66.108 343.347 65.994 343.107 65.766C342.879 65.526 342.765 65.244 342.765 64.92C342.765 64.584 342.879 64.302 343.107 64.074C343.347 63.834 343.647 63.714 344.007 63.714C344.367 63.714 344.661 63.834 344.889 64.074C345.117 64.302 345.231 64.584 345.231 64.92C345.231 65.244 345.117 65.526 344.889 65.766C344.661 65.994 344.367 66.108 344.007 66.108ZM344.007 59.25C343.647 59.25 343.347 59.136 343.107 58.908C342.879 58.668 342.765 58.386 342.765 58.062C342.765 57.726 342.879 57.444 343.107 57.216C343.347 56.976 343.647 56.856 344.007 56.856C344.367 56.856 344.661 56.976 344.889 57.216C345.117 57.444 345.231 57.726 345.231 58.062C345.231 58.386 345.117 58.668 344.889 58.908C344.661 59.136 344.367 59.25 344.007 59.25Z" fill="#1B1642"/>
<path d="M211.163 194.97C210.09 194.97 209.245 195.329 208.629 196.048C208.013 196.767 207.705 197.751 207.705 199.002C207.705 200.243 207.99 201.228 208.559 201.956C209.138 202.675 210.001 203.034 211.149 203.034C211.588 203.034 212.003 202.997 212.395 202.922C212.787 202.847 213.17 202.754 213.543 202.642V203.734C213.17 203.874 212.783 203.977 212.381 204.042C211.989 204.107 211.518 204.14 210.967 204.14C209.95 204.14 209.101 203.93 208.419 203.51C207.738 203.09 207.225 202.493 206.879 201.718C206.543 200.943 206.375 200.033 206.375 198.988C206.375 197.98 206.557 197.093 206.921 196.328C207.295 195.553 207.841 194.951 208.559 194.522C209.278 194.083 210.151 193.864 211.177 193.864C212.232 193.864 213.151 194.06 213.935 194.452L213.431 195.516C213.123 195.376 212.778 195.25 212.395 195.138C212.022 195.026 211.611 194.97 211.163 194.97ZM221.269 204H220.023V197.518H217.811C217.69 199.095 217.522 200.369 217.307 201.34C217.093 202.301 216.808 203.001 216.453 203.44C216.099 203.879 215.651 204.098 215.109 204.098C214.988 204.098 214.867 204.089 214.745 204.07C214.633 204.061 214.54 204.037 214.465 204V203.076C214.521 203.095 214.582 203.109 214.647 203.118C214.713 203.127 214.778 203.132 214.843 203.132C215.347 203.132 215.749 202.595 216.047 201.522C216.355 200.449 216.589 198.773 216.747 196.496H221.269V204ZM222.475 196.496H223.791L225.415 200.766C225.555 201.139 225.681 201.499 225.793 201.844C225.905 202.18 225.989 202.502 226.045 202.81H226.101C226.157 202.577 226.246 202.273 226.367 201.9C226.488 201.517 226.614 201.135 226.745 200.752L228.271 196.496H229.601L226.367 205.036C226.106 205.745 225.765 206.31 225.345 206.73C224.934 207.15 224.365 207.36 223.637 207.36C223.413 207.36 223.217 207.346 223.049 207.318C222.881 207.299 222.736 207.276 222.615 207.248V206.268C222.718 206.287 222.839 206.305 222.979 206.324C223.128 206.343 223.282 206.352 223.441 206.352C223.87 206.352 224.216 206.231 224.477 205.988C224.748 205.745 224.958 205.423 225.107 205.022L225.499 204.028L222.475 196.496ZM231.866 196.496V199.226C231.866 200.085 232.346 200.514 233.308 200.514C233.774 200.514 234.199 200.444 234.582 200.304C234.964 200.155 235.356 199.959 235.758 199.716V196.496H236.99V204H235.758V200.654C235.338 200.925 234.922 201.139 234.512 201.298C234.11 201.447 233.625 201.522 233.056 201.522C232.29 201.522 231.693 201.321 231.264 200.92C230.844 200.519 230.634 199.982 230.634 199.31V196.496H231.866ZM242.216 196.37C243.13 196.37 243.807 196.571 244.246 196.972C244.684 197.373 244.904 198.013 244.904 198.89V204H244.008L243.77 202.936H243.714C243.387 203.347 243.042 203.65 242.678 203.846C242.323 204.042 241.828 204.14 241.194 204.14C240.512 204.14 239.948 203.963 239.5 203.608C239.052 203.244 238.828 202.679 238.828 201.914C238.828 201.167 239.122 200.593 239.71 200.192C240.298 199.781 241.203 199.557 242.426 199.52L243.7 199.478V199.03C243.7 198.405 243.564 197.971 243.294 197.728C243.023 197.485 242.64 197.364 242.146 197.364C241.754 197.364 241.38 197.425 241.026 197.546C240.671 197.658 240.34 197.789 240.032 197.938L239.654 197.014C239.98 196.837 240.368 196.687 240.816 196.566C241.264 196.435 241.73 196.37 242.216 196.37ZM243.686 200.332L242.58 200.374C241.646 200.411 240.998 200.561 240.634 200.822C240.279 201.083 240.102 201.452 240.102 201.928C240.102 202.348 240.228 202.656 240.48 202.852C240.741 203.048 241.072 203.146 241.474 203.146C242.108 203.146 242.636 202.973 243.056 202.628C243.476 202.273 243.686 201.732 243.686 201.004V200.332ZM250.119 196.356C250.763 196.356 251.314 196.496 251.771 196.776C252.238 197.056 252.593 197.453 252.835 197.966C253.087 198.47 253.213 199.063 253.213 199.744V200.486H248.075C248.094 201.335 248.309 201.984 248.719 202.432C249.139 202.871 249.723 203.09 250.469 203.09C250.945 203.09 251.365 203.048 251.729 202.964C252.103 202.871 252.485 202.74 252.877 202.572V203.65C252.495 203.818 252.117 203.939 251.743 204.014C251.37 204.098 250.927 204.14 250.413 204.14C249.704 204.14 249.074 203.995 248.523 203.706C247.982 203.417 247.557 202.987 247.249 202.418C246.951 201.839 246.801 201.135 246.801 200.304C246.801 199.483 246.937 198.778 247.207 198.19C247.487 197.602 247.875 197.149 248.369 196.832C248.873 196.515 249.457 196.356 250.119 196.356ZM250.105 197.364C249.517 197.364 249.051 197.555 248.705 197.938C248.369 198.311 248.169 198.834 248.103 199.506H251.925C251.916 198.871 251.767 198.358 251.477 197.966C251.188 197.565 250.731 197.364 250.105 197.364ZM261.158 198.386C261.158 198.853 261.018 199.217 260.738 199.478C260.458 199.739 260.098 199.917 259.66 200.01V200.066C260.126 200.131 260.532 200.299 260.878 200.57C261.223 200.831 261.396 201.242 261.396 201.802C261.396 202.437 261.158 202.964 260.682 203.384C260.215 203.795 259.44 204 258.358 204H255.124V196.496H258.344C258.876 196.496 259.352 196.557 259.772 196.678C260.201 196.79 260.537 196.986 260.78 197.266C261.032 197.537 261.158 197.91 261.158 198.386ZM259.912 198.54C259.912 198.185 259.781 197.929 259.52 197.77C259.268 197.602 258.852 197.518 258.274 197.518H256.356V199.576H258.05C259.291 199.576 259.912 199.231 259.912 198.54ZM260.122 201.802C260.122 201.373 259.958 201.065 259.632 200.878C259.305 200.691 258.824 200.598 258.19 200.598H256.356V203.006H258.218C258.834 203.006 259.305 202.917 259.632 202.74C259.958 202.553 260.122 202.241 260.122 201.802Z" fill="#8D9AAE"/>
<path d="M114.727 301.39C114.043 301.39 113.425 301.51 112.873 301.75C112.321 301.978 111.853 302.32 111.469 302.776C111.085 303.22 110.791 303.766 110.587 304.414C110.383 305.05 110.281 305.77 110.281 306.574C110.281 307.63 110.443 308.548 110.767 309.328C111.103 310.108 111.595 310.708 112.243 311.128C112.903 311.548 113.725 311.758 114.709 311.758C115.273 311.758 115.807 311.71 116.311 311.614C116.815 311.518 117.307 311.398 117.787 311.254V312.658C117.307 312.838 116.809 312.97 116.293 313.054C115.789 313.138 115.183 313.18 114.475 313.18C113.167 313.18 112.075 312.91 111.199 312.37C110.323 311.83 109.663 311.062 109.219 310.066C108.787 309.07 108.571 307.9 108.571 306.556C108.571 305.584 108.703 304.696 108.967 303.892C109.243 303.088 109.639 302.392 110.155 301.804C110.683 301.216 111.331 300.766 112.099 300.454C112.867 300.13 113.749 299.968 114.745 299.968C115.405 299.968 116.041 300.034 116.653 300.166C117.265 300.298 117.811 300.484 118.291 300.724L117.643 302.092C117.247 301.912 116.803 301.75 116.311 301.606C115.831 301.462 115.303 301.39 114.727 301.39ZM126.082 303.352H127.81L123.688 307.996L128.152 313H126.316L121.96 308.104V313H120.376V303.352H121.96V308.032L126.082 303.352ZM134.493 303.172C135.681 303.172 136.635 303.586 137.355 304.414C138.087 305.242 138.453 306.49 138.453 308.158C138.453 309.25 138.285 310.174 137.949 310.93C137.625 311.674 137.163 312.238 136.563 312.622C135.975 312.994 135.279 313.18 134.475 313.18C133.983 313.18 133.545 313.114 133.161 312.982C132.777 312.85 132.447 312.682 132.171 312.478C131.907 312.262 131.679 312.028 131.487 311.776H131.379C131.403 311.98 131.427 312.238 131.451 312.55C131.475 312.862 131.487 313.132 131.487 313.36V317.32H129.903V303.352H131.199L131.415 304.666H131.487C131.679 304.39 131.907 304.138 132.171 303.91C132.447 303.682 132.771 303.502 133.143 303.37C133.527 303.238 133.977 303.172 134.493 303.172ZM134.205 304.504C133.557 304.504 133.035 304.63 132.639 304.882C132.243 305.122 131.955 305.488 131.775 305.98C131.595 306.472 131.499 307.096 131.487 307.852V308.158C131.487 308.95 131.571 309.622 131.739 310.174C131.907 310.726 132.189 311.146 132.585 311.434C132.993 311.722 133.545 311.866 134.241 311.866C134.829 311.866 135.309 311.704 135.681 311.38C136.065 311.056 136.347 310.618 136.527 310.066C136.719 309.502 136.815 308.86 136.815 308.14C136.815 307.036 136.599 306.154 136.167 305.494C135.747 304.834 135.093 304.504 134.205 304.504ZM142.471 309.238C142.471 309.346 142.465 309.502 142.453 309.706C142.453 309.898 142.447 310.108 142.435 310.336C142.423 310.552 142.411 310.762 142.399 310.966C142.387 311.158 142.375 311.314 142.363 311.434L147.529 303.352H149.473V313H147.997V307.312C147.997 307.12 147.997 306.868 147.997 306.556C148.009 306.244 148.021 305.938 148.033 305.638C148.045 305.326 148.057 305.092 148.069 304.936L142.939 313H140.977V303.352H142.471V309.238ZM154.128 303.352V307.366H159.366V303.352H160.95V313H159.366V308.698H154.128V313H152.544V303.352H154.128ZM165.499 309.238C165.499 309.346 165.493 309.502 165.481 309.706C165.481 309.898 165.475 310.108 165.463 310.336C165.451 310.552 165.439 310.762 165.427 310.966C165.415 311.158 165.403 311.314 165.391 311.434L170.557 303.352H172.501V313H171.025V307.312C171.025 307.12 171.025 306.868 171.025 306.556C171.037 306.244 171.049 305.938 171.061 305.638C171.073 305.326 171.085 305.092 171.097 304.936L165.967 313H164.005V303.352H165.499V309.238ZM177.155 303.352V307.366H182.393V303.352H183.977V313H182.393V308.698H177.155V313H175.571V303.352H177.155ZM192.918 303.352V304.684H188.616V313H187.032V303.352H192.918ZM204.173 303.172C205.361 303.172 206.315 303.586 207.035 304.414C207.767 305.242 208.133 306.49 208.133 308.158C208.133 309.25 207.965 310.174 207.629 310.93C207.305 311.674 206.843 312.238 206.243 312.622C205.655 312.994 204.959 313.18 204.155 313.18C203.663 313.18 203.225 313.114 202.841 312.982C202.457 312.85 202.127 312.682 201.851 312.478C201.587 312.262 201.359 312.028 201.167 311.776H201.059C201.083 311.98 201.107 312.238 201.131 312.55C201.155 312.862 201.167 313.132 201.167 313.36V317.32H199.583V303.352H200.879L201.095 304.666H201.167C201.359 304.39 201.587 304.138 201.851 303.91C202.127 303.682 202.451 303.502 202.823 303.37C203.207 303.238 203.657 303.172 204.173 303.172ZM203.885 304.504C203.237 304.504 202.715 304.63 202.319 304.882C201.923 305.122 201.635 305.488 201.455 305.98C201.275 306.472 201.179 307.096 201.167 307.852V308.158C201.167 308.95 201.251 309.622 201.419 310.174C201.587 310.726 201.869 311.146 202.265 311.434C202.673 311.722 203.225 311.866 203.921 311.866C204.509 311.866 204.989 311.704 205.361 311.38C205.745 311.056 206.027 310.618 206.207 310.066C206.399 309.502 206.495 308.86 206.495 308.14C206.495 307.036 206.279 306.154 205.847 305.494C205.427 304.834 204.773 304.504 203.885 304.504ZM214.311 303.19C215.487 303.19 216.357 303.448 216.921 303.964C217.485 304.48 217.767 305.302 217.767 306.43V313H216.615L216.309 311.632H216.237C215.961 311.98 215.673 312.274 215.373 312.514C215.085 312.742 214.749 312.91 214.365 313.018C213.993 313.126 213.537 313.18 212.997 313.18C212.421 313.18 211.899 313.078 211.431 312.874C210.975 312.67 210.615 312.358 210.351 311.938C210.087 311.506 209.955 310.966 209.955 310.318C209.955 309.358 210.333 308.62 211.089 308.104C211.845 307.576 213.009 307.288 214.581 307.24L216.219 307.186V306.61C216.219 305.806 216.045 305.248 215.697 304.936C215.349 304.624 214.857 304.468 214.221 304.468C213.717 304.468 213.237 304.546 212.781 304.702C212.325 304.846 211.899 305.014 211.503 305.206L211.017 304.018C211.437 303.79 211.935 303.598 212.511 303.442C213.087 303.274 213.687 303.19 214.311 303.19ZM214.779 308.338C213.579 308.386 212.745 308.578 212.277 308.914C211.821 309.25 211.593 309.724 211.593 310.336C211.593 310.876 211.755 311.272 212.079 311.524C212.415 311.776 212.841 311.902 213.357 311.902C214.173 311.902 214.851 311.68 215.391 311.236C215.931 310.78 216.201 310.084 216.201 309.148V308.284L214.779 308.338ZM226.453 303.352H228.181L224.059 307.996L228.523 313H226.687L222.331 308.104V313H220.747V303.352H222.331V308.032L226.453 303.352ZM233.928 303.19C235.104 303.19 235.974 303.448 236.538 303.964C237.102 304.48 237.384 305.302 237.384 306.43V313H236.232L235.926 311.632H235.854C235.578 311.98 235.29 312.274 234.99 312.514C234.702 312.742 234.366 312.91 233.982 313.018C233.61 313.126 233.154 313.18 232.614 313.18C232.038 313.18 231.516 313.078 231.048 312.874C230.592 312.67 230.232 312.358 229.968 311.938C229.704 311.506 229.572 310.966 229.572 310.318C229.572 309.358 229.95 308.62 230.706 308.104C231.462 307.576 232.626 307.288 234.198 307.24L235.836 307.186V306.61C235.836 305.806 235.662 305.248 235.314 304.936C234.966 304.624 234.474 304.468 233.838 304.468C233.334 304.468 232.854 304.546 232.398 304.702C231.942 304.846 231.516 305.014 231.12 305.206L230.634 304.018C231.054 303.79 231.552 303.598 232.128 303.442C232.704 303.274 233.304 303.19 233.928 303.19ZM234.396 308.338C233.196 308.386 232.362 308.578 231.894 308.914C231.438 309.25 231.21 309.724 231.21 310.336C231.21 310.876 231.372 311.272 231.696 311.524C232.032 311.776 232.458 311.902 232.974 311.902C233.79 311.902 234.468 311.68 235.008 311.236C235.548 310.78 235.818 310.084 235.818 309.148V308.284L234.396 308.338ZM258.214 303.352V313H245.128V303.352H246.712V311.668H250.87V303.352H252.454V311.668H256.63V303.352H258.214ZM265.026 303.172C265.854 303.172 266.562 303.352 267.15 303.712C267.75 304.072 268.206 304.582 268.518 305.242C268.842 305.89 269.004 306.652 269.004 307.528V308.482H262.398C262.422 309.574 262.698 310.408 263.226 310.984C263.766 311.548 264.516 311.83 265.476 311.83C266.088 311.83 266.628 311.776 267.096 311.668C267.576 311.548 268.068 311.38 268.572 311.164V312.55C268.08 312.766 267.594 312.922 267.114 313.018C266.634 313.126 266.064 313.18 265.404 313.18C264.492 313.18 263.682 312.994 262.974 312.622C262.278 312.25 261.732 311.698 261.336 310.966C260.952 310.222 260.76 309.316 260.76 308.248C260.76 307.192 260.934 306.286 261.282 305.53C261.642 304.774 262.14 304.192 262.776 303.784C263.424 303.376 264.174 303.172 265.026 303.172ZM265.008 304.468C264.252 304.468 263.652 304.714 263.208 305.206C262.776 305.686 262.518 306.358 262.434 307.222H267.348C267.348 306.67 267.264 306.19 267.096 305.782C266.928 305.374 266.67 305.056 266.322 304.828C265.986 304.588 265.548 304.468 265.008 304.468ZM279.272 299.356C279.224 299.956 279.074 300.46 278.822 300.868C278.582 301.276 278.222 301.582 277.742 301.786C277.262 301.99 276.638 302.092 275.87 302.092C275.09 302.092 274.46 301.99 273.98 301.786C273.512 301.582 273.17 301.282 272.954 300.886C272.738 300.478 272.606 299.968 272.558 299.356H274.034C274.094 300.004 274.262 300.442 274.538 300.67C274.826 300.886 275.282 300.994 275.906 300.994C276.458 300.994 276.89 300.88 277.202 300.652C277.526 300.412 277.718 299.98 277.778 299.356H279.272ZM272.954 309.238C272.954 309.346 272.948 309.502 272.936 309.706C272.936 309.898 272.93 310.108 272.918 310.336C272.906 310.552 272.894 310.762 272.882 310.966C272.87 311.158 272.858 311.314 272.846 311.434L278.012 303.352H279.956V313H278.48V307.312C278.48 307.12 278.48 306.868 278.48 306.556C278.492 306.244 278.504 305.938 278.516 305.638C278.528 305.326 278.54 305.092 278.552 304.936L273.422 313H271.46V303.352H272.954V309.238ZM288.732 303.352H290.46L286.338 307.996L290.802 313H288.966L284.61 308.104V313H283.026V303.352H284.61V308.032L288.732 303.352ZM294.047 309.238C294.047 309.346 294.041 309.502 294.029 309.706C294.029 309.898 294.023 310.108 294.011 310.336C293.999 310.552 293.987 310.762 293.975 310.966C293.963 311.158 293.951 311.314 293.939 311.434L299.105 303.352H301.049V313H299.573V307.312C299.573 307.12 299.573 306.868 299.573 306.556C299.585 306.244 299.597 305.938 299.609 305.638C299.621 305.326 299.633 305.092 299.645 304.936L294.515 313H292.553V303.352H294.047V309.238ZM319.234 303.352V313H317.812V306.844C317.812 306.592 317.818 306.328 317.83 306.052C317.854 305.776 317.878 305.506 317.902 305.242H317.848L314.698 313H313.366L310.306 305.242H310.252C310.276 305.506 310.288 305.776 310.288 306.052C310.3 306.328 310.306 306.61 310.306 306.898V313H308.884V303.352H310.99L314.032 311.11L317.128 303.352H319.234ZM325.967 303.19C327.143 303.19 328.013 303.448 328.577 303.964C329.141 304.48 329.423 305.302 329.423 306.43V313H328.271L327.965 311.632H327.893C327.617 311.98 327.329 312.274 327.029 312.514C326.741 312.742 326.405 312.91 326.021 313.018C325.649 313.126 325.193 313.18 324.653 313.18C324.077 313.18 323.555 313.078 323.087 312.874C322.631 312.67 322.271 312.358 322.007 311.938C321.743 311.506 321.611 310.966 321.611 310.318C321.611 309.358 321.989 308.62 322.745 308.104C323.501 307.576 324.665 307.288 326.237 307.24L327.875 307.186V306.61C327.875 305.806 327.701 305.248 327.353 304.936C327.005 304.624 326.513 304.468 325.877 304.468C325.373 304.468 324.893 304.546 324.437 304.702C323.981 304.846 323.555 305.014 323.159 305.206L322.673 304.018C323.093 303.79 323.591 303.598 324.167 303.442C324.743 303.274 325.343 303.19 325.967 303.19ZM326.435 308.338C325.235 308.386 324.401 308.578 323.933 308.914C323.477 309.25 323.249 309.724 323.249 310.336C323.249 310.876 323.411 311.272 323.735 311.524C324.071 311.776 324.497 311.902 325.013 311.902C325.829 311.902 326.507 311.68 327.047 311.236C327.587 310.78 327.857 310.084 327.857 309.148V308.284L326.435 308.338ZM339.063 304.684H335.913V313H334.347V304.684H331.233V303.352H339.063V304.684ZM346.67 303.352H348.398L344.276 307.996L348.74 313H346.904L342.548 308.104V313H340.964V303.352H342.548V308.032L346.67 303.352ZM351.985 309.238C351.985 309.346 351.979 309.502 351.967 309.706C351.967 309.898 351.961 310.108 351.949 310.336C351.937 310.552 351.925 310.762 351.913 310.966C351.901 311.158 351.889 311.314 351.877 311.434L357.043 303.352H358.987V313H357.511V307.312C357.511 307.12 357.511 306.868 357.511 306.556C357.523 306.244 357.535 305.938 357.547 305.638C357.559 305.326 357.571 305.092 357.583 304.936L352.453 313H350.491V303.352H351.985V309.238ZM159.942 326.352V336H158.358V327.702H153.372V336H151.788V326.352H159.942ZM171.408 331.158C171.408 331.962 171.3 332.676 171.084 333.3C170.88 333.912 170.58 334.434 170.184 334.866C169.8 335.298 169.326 335.628 168.762 335.856C168.21 336.072 167.592 336.18 166.908 336.18C166.272 336.18 165.684 336.072 165.144 335.856C164.604 335.628 164.136 335.298 163.74 334.866C163.344 334.434 163.032 333.912 162.804 333.3C162.588 332.676 162.48 331.962 162.48 331.158C162.48 330.09 162.66 329.19 163.02 328.458C163.38 327.714 163.896 327.15 164.568 326.766C165.24 326.37 166.038 326.172 166.962 326.172C167.838 326.172 168.606 326.37 169.266 326.766C169.938 327.15 170.46 327.714 170.832 328.458C171.216 329.19 171.408 330.09 171.408 331.158ZM164.118 331.158C164.118 331.914 164.214 332.574 164.406 333.138C164.61 333.69 164.922 334.116 165.342 334.416C165.762 334.716 166.296 334.866 166.944 334.866C167.592 334.866 168.126 334.716 168.546 334.416C168.966 334.116 169.272 333.69 169.464 333.138C169.668 332.574 169.77 331.914 169.77 331.158C169.77 330.39 169.668 329.736 169.464 329.196C169.26 328.656 168.948 328.242 168.528 327.954C168.12 327.654 167.586 327.504 166.926 327.504C165.942 327.504 165.228 327.828 164.784 328.476C164.34 329.124 164.118 330.018 164.118 331.158ZM176.457 326.172C177.189 326.172 177.825 326.274 178.365 326.478C178.905 326.67 179.325 326.958 179.625 327.342C179.925 327.714 180.075 328.17 180.075 328.71C180.075 329.298 179.913 329.766 179.589 330.114C179.265 330.45 178.821 330.696 178.257 330.852V330.924C178.641 331.032 178.995 331.182 179.319 331.374C179.643 331.566 179.901 331.818 180.093 332.13C180.297 332.442 180.399 332.844 180.399 333.336C180.399 333.864 180.249 334.344 179.949 334.776C179.661 335.208 179.211 335.55 178.599 335.802C177.999 336.054 177.225 336.18 176.277 336.18C175.821 336.18 175.383 336.156 174.963 336.108C174.555 336.06 174.183 335.988 173.847 335.892C173.523 335.796 173.235 335.682 172.983 335.55V334.128C173.391 334.32 173.871 334.494 174.423 334.65C174.987 334.806 175.599 334.884 176.259 334.884C176.739 334.884 177.171 334.83 177.555 334.722C177.951 334.614 178.263 334.446 178.491 334.218C178.719 333.978 178.833 333.654 178.833 333.246C178.833 332.874 178.731 332.574 178.527 332.346C178.323 332.106 178.017 331.926 177.609 331.806C177.213 331.686 176.703 331.626 176.079 331.626H174.783V330.33H175.827C176.655 330.33 177.315 330.222 177.807 330.006C178.311 329.778 178.563 329.394 178.563 328.854C178.563 328.398 178.371 328.056 177.987 327.828C177.615 327.6 177.075 327.486 176.367 327.486C175.839 327.486 175.371 327.54 174.963 327.648C174.567 327.744 174.129 327.894 173.649 328.098L173.091 326.838C173.607 326.61 174.147 326.442 174.711 326.334C175.275 326.226 175.857 326.172 176.457 326.172ZM190.501 328.782C190.501 329.382 190.321 329.85 189.961 330.186C189.601 330.522 189.139 330.75 188.575 330.87V330.942C189.175 331.026 189.697 331.242 190.141 331.59C190.585 331.926 190.807 332.454 190.807 333.174C190.807 333.582 190.729 333.96 190.573 334.308C190.429 334.656 190.201 334.956 189.889 335.208C189.577 335.46 189.175 335.658 188.683 335.802C188.191 335.934 187.597 336 186.901 336H182.743V326.352H186.883C187.567 326.352 188.179 326.43 188.719 326.586C189.271 326.73 189.703 326.982 190.015 327.342C190.339 327.69 190.501 328.17 190.501 328.782ZM189.169 333.174C189.169 332.622 188.959 332.226 188.539 331.986C188.119 331.746 187.501 331.626 186.685 331.626H184.327V334.722H186.721C187.513 334.722 188.119 334.608 188.539 334.38C188.959 334.14 189.169 333.738 189.169 333.174ZM188.899 328.98C188.899 328.524 188.731 328.194 188.395 327.99C188.071 327.774 187.537 327.666 186.793 327.666H184.327V330.312H186.505C187.285 330.312 187.879 330.204 188.287 329.988C188.695 329.772 188.899 329.436 188.899 328.98ZM201.502 331.158C201.502 331.962 201.394 332.676 201.178 333.3C200.974 333.912 200.674 334.434 200.278 334.866C199.894 335.298 199.42 335.628 198.856 335.856C198.304 336.072 197.686 336.18 197.002 336.18C196.366 336.18 195.778 336.072 195.238 335.856C194.698 335.628 194.23 335.298 193.834 334.866C193.438 334.434 193.126 333.912 192.898 333.3C192.682 332.676 192.574 331.962 192.574 331.158C192.574 330.09 192.754 329.19 193.114 328.458C193.474 327.714 193.99 327.15 194.662 326.766C195.334 326.37 196.132 326.172 197.056 326.172C197.932 326.172 198.7 326.37 199.36 326.766C200.032 327.15 200.554 327.714 200.926 328.458C201.31 329.19 201.502 330.09 201.502 331.158ZM194.212 331.158C194.212 331.914 194.308 332.574 194.5 333.138C194.704 333.69 195.016 334.116 195.436 334.416C195.856 334.716 196.39 334.866 197.038 334.866C197.686 334.866 198.22 334.716 198.64 334.416C199.06 334.116 199.366 333.69 199.558 333.138C199.762 332.574 199.864 331.914 199.864 331.158C199.864 330.39 199.762 329.736 199.558 329.196C199.354 328.656 199.042 328.242 198.622 327.954C198.214 327.654 197.68 327.504 197.02 327.504C196.036 327.504 195.322 327.828 194.878 328.476C194.434 329.124 194.212 330.018 194.212 331.158ZM211.356 336H209.754V327.666H206.91C206.79 329.19 206.64 330.492 206.46 331.572C206.28 332.64 206.052 333.51 205.776 334.182C205.5 334.854 205.17 335.346 204.786 335.658C204.402 335.97 203.952 336.126 203.436 336.126C203.28 336.126 203.124 336.114 202.968 336.09C202.824 336.078 202.704 336.048 202.608 336V334.812C202.68 334.836 202.758 334.854 202.842 334.866C202.926 334.878 203.01 334.884 203.094 334.884C203.358 334.884 203.598 334.776 203.814 334.56C204.03 334.344 204.222 334.014 204.39 333.57C204.57 333.126 204.732 332.568 204.876 331.896C205.02 331.212 205.146 330.408 205.254 329.484C205.362 328.56 205.458 327.516 205.542 326.352H211.356V336ZM215.013 336H213.177L215.931 331.95C215.559 331.854 215.199 331.704 214.851 331.5C214.503 331.284 214.221 330.99 214.005 330.618C213.789 330.234 213.681 329.76 213.681 329.196C213.681 328.272 213.993 327.57 214.617 327.09C215.241 326.598 216.069 326.352 217.101 326.352H221.421V336H219.837V332.166H217.497L215.013 336ZM215.211 329.214C215.211 329.766 215.415 330.18 215.823 330.456C216.243 330.72 216.825 330.852 217.569 330.852H219.837V327.666H217.263C216.531 327.666 216.003 327.81 215.679 328.098C215.367 328.386 215.211 328.758 215.211 329.214ZM228.199 326.172C229.027 326.172 229.735 326.352 230.323 326.712C230.923 327.072 231.379 327.582 231.691 328.242C232.015 328.89 232.177 329.652 232.177 330.528V331.482H225.571C225.595 332.574 225.871 333.408 226.399 333.984C226.939 334.548 227.689 334.83 228.649 334.83C229.261 334.83 229.801 334.776 230.269 334.668C230.749 334.548 231.241 334.38 231.745 334.164V335.55C231.253 335.766 230.767 335.922 230.287 336.018C229.807 336.126 229.237 336.18 228.577 336.18C227.665 336.18 226.855 335.994 226.147 335.622C225.451 335.25 224.905 334.698 224.509 333.966C224.125 333.222 223.933 332.316 223.933 331.248C223.933 330.192 224.107 329.286 224.455 328.53C224.815 327.774 225.313 327.192 225.949 326.784C226.597 326.376 227.347 326.172 228.199 326.172ZM228.181 327.468C227.425 327.468 226.825 327.714 226.381 328.206C225.949 328.686 225.691 329.358 225.607 330.222H230.521C230.521 329.67 230.437 329.19 230.269 328.782C230.101 328.374 229.843 328.056 229.495 327.828C229.159 327.588 228.721 327.468 228.181 327.468ZM241.294 327.684H238.144V336H236.578V327.684H233.464V326.352H241.294V327.684ZM251.828 336.18C250.976 336.18 250.214 336.006 249.542 335.658C248.882 335.31 248.36 334.77 247.976 334.038C247.604 333.306 247.418 332.37 247.418 331.23C247.418 330.042 247.616 329.076 248.012 328.332C248.408 327.588 248.942 327.042 249.614 326.694C250.298 326.346 251.072 326.172 251.936 326.172C252.428 326.172 252.902 326.226 253.358 326.334C253.814 326.43 254.186 326.55 254.474 326.694L253.988 328.008C253.7 327.9 253.364 327.798 252.98 327.702C252.596 327.606 252.236 327.558 251.9 327.558C251.252 327.558 250.718 327.696 250.298 327.972C249.878 328.248 249.566 328.656 249.362 329.196C249.158 329.736 249.056 330.408 249.056 331.212C249.056 331.98 249.158 332.634 249.362 333.174C249.566 333.714 249.872 334.122 250.28 334.398C250.688 334.674 251.198 334.812 251.81 334.812C252.338 334.812 252.8 334.758 253.196 334.65C253.604 334.542 253.976 334.41 254.312 334.254V335.658C253.988 335.826 253.628 335.952 253.232 336.036C252.848 336.132 252.38 336.18 251.828 336.18ZM258.19 326.352V330.366H263.428V326.352H265.012V336H263.428V331.698H258.19V336H256.606V326.352H258.19ZM269.561 332.238C269.561 332.346 269.555 332.502 269.543 332.706C269.543 332.898 269.537 333.108 269.525 333.336C269.513 333.552 269.501 333.762 269.489 333.966C269.477 334.158 269.465 334.314 269.453 334.434L274.619 326.352H276.563V336H275.087V330.312C275.087 330.12 275.087 329.868 275.087 329.556C275.099 329.244 275.111 328.938 275.123 328.638C275.135 328.326 275.147 328.092 275.159 327.936L270.029 336H268.067V326.352H269.561V332.238ZM282.172 326.172C282.904 326.172 283.54 326.274 284.08 326.478C284.62 326.67 285.04 326.958 285.34 327.342C285.64 327.714 285.79 328.17 285.79 328.71C285.79 329.298 285.628 329.766 285.304 330.114C284.98 330.45 284.536 330.696 283.972 330.852V330.924C284.356 331.032 284.71 331.182 285.034 331.374C285.358 331.566 285.616 331.818 285.808 332.13C286.012 332.442 286.114 332.844 286.114 333.336C286.114 333.864 285.964 334.344 285.664 334.776C285.376 335.208 284.926 335.55 284.314 335.802C283.714 336.054 282.94 336.18 281.992 336.18C281.536 336.18 281.098 336.156 280.678 336.108C280.27 336.06 279.898 335.988 279.562 335.892C279.238 335.796 278.95 335.682 278.698 335.55V334.128C279.106 334.32 279.586 334.494 280.138 334.65C280.702 334.806 281.314 334.884 281.974 334.884C282.454 334.884 282.886 334.83 283.27 334.722C283.666 334.614 283.978 334.446 284.206 334.218C284.434 333.978 284.548 333.654 284.548 333.246C284.548 332.874 284.446 332.574 284.242 332.346C284.038 332.106 283.732 331.926 283.324 331.806C282.928 331.686 282.418 331.626 281.794 331.626H280.498V330.33H281.542C282.37 330.33 283.03 330.222 283.522 330.006C284.026 329.778 284.278 329.394 284.278 328.854C284.278 328.398 284.086 328.056 283.702 327.828C283.33 327.6 282.79 327.486 282.082 327.486C281.554 327.486 281.086 327.54 280.678 327.648C280.282 327.744 279.844 327.894 279.364 328.098L278.806 326.838C279.322 326.61 279.862 326.442 280.426 326.334C280.99 326.226 281.572 326.172 282.172 326.172ZM289.952 332.238C289.952 332.346 289.946 332.502 289.934 332.706C289.934 332.898 289.928 333.108 289.916 333.336C289.904 333.552 289.892 333.762 289.88 333.966C289.868 334.158 289.856 334.314 289.844 334.434L295.01 326.352H296.954V336H295.478V330.312C295.478 330.12 295.478 329.868 295.478 329.556C295.49 329.244 295.502 328.938 295.514 328.638C295.526 328.326 295.538 328.092 295.55 327.936L290.42 336H288.458V326.352H289.952V332.238ZM306.684 327.684H303.534V336H301.968V327.684H298.854V326.352H306.684V327.684ZM313.031 330.312C313.871 330.312 314.567 330.414 315.119 330.618C315.671 330.822 316.085 331.128 316.361 331.536C316.649 331.932 316.793 332.436 316.793 333.048C316.793 333.648 316.655 334.17 316.379 334.614C316.115 335.058 315.701 335.4 315.137 335.64C314.573 335.88 313.847 336 312.959 336H308.585V326.352H310.169V330.312H313.031ZM315.209 333.138C315.209 332.55 314.999 332.154 314.579 331.95C314.171 331.734 313.595 331.626 312.851 331.626H310.169V334.722H312.887C313.559 334.722 314.111 334.602 314.543 334.362C314.987 334.122 315.209 333.714 315.209 333.138ZM166.068 349.172C166.8 349.172 167.436 349.274 167.976 349.478C168.516 349.67 168.936 349.958 169.236 350.342C169.536 350.714 169.686 351.17 169.686 351.71C169.686 352.298 169.524 352.766 169.2 353.114C168.876 353.45 168.432 353.696 167.868 353.852V353.924C168.252 354.032 168.606 354.182 168.93 354.374C169.254 354.566 169.512 354.818 169.704 355.13C169.908 355.442 170.01 355.844 170.01 356.336C170.01 356.864 169.86 357.344 169.56 357.776C169.272 358.208 168.822 358.55 168.21 358.802C167.61 359.054 166.836 359.18 165.888 359.18C165.432 359.18 164.994 359.156 164.574 359.108C164.166 359.06 163.794 358.988 163.458 358.892C163.134 358.796 162.846 358.682 162.594 358.55V357.128C163.002 357.32 163.482 357.494 164.034 357.65C164.598 357.806 165.21 357.884 165.87 357.884C166.35 357.884 166.782 357.83 167.166 357.722C167.562 357.614 167.874 357.446 168.102 357.218C168.33 356.978 168.444 356.654 168.444 356.246C168.444 355.874 168.342 355.574 168.138 355.346C167.934 355.106 167.628 354.926 167.22 354.806C166.824 354.686 166.314 354.626 165.69 354.626H164.394V353.33H165.438C166.266 353.33 166.926 353.222 167.418 353.006C167.922 352.778 168.174 352.394 168.174 351.854C168.174 351.398 167.982 351.056 167.598 350.828C167.226 350.6 166.686 350.486 165.978 350.486C165.45 350.486 164.982 350.54 164.574 350.648C164.178 350.744 163.74 350.894 163.26 351.098L162.702 349.838C163.218 349.61 163.758 349.442 164.322 349.334C164.886 349.226 165.468 349.172 166.068 349.172ZM176.008 349.19C177.184 349.19 178.054 349.448 178.618 349.964C179.182 350.48 179.464 351.302 179.464 352.43V359H178.312L178.006 357.632H177.934C177.658 357.98 177.37 358.274 177.07 358.514C176.782 358.742 176.446 358.91 176.062 359.018C175.69 359.126 175.234 359.18 174.694 359.18C174.118 359.18 173.596 359.078 173.128 358.874C172.672 358.67 172.312 358.358 172.048 357.938C171.784 357.506 171.652 356.966 171.652 356.318C171.652 355.358 172.03 354.62 172.786 354.104C173.542 353.576 174.706 353.288 176.278 353.24L177.916 353.186V352.61C177.916 351.806 177.742 351.248 177.394 350.936C177.046 350.624 176.554 350.468 175.918 350.468C175.414 350.468 174.934 350.546 174.478 350.702C174.022 350.846 173.596 351.014 173.2 351.206L172.714 350.018C173.134 349.79 173.632 349.598 174.208 349.442C174.784 349.274 175.384 349.19 176.008 349.19ZM176.476 354.338C175.276 354.386 174.442 354.578 173.974 354.914C173.518 355.25 173.29 355.724 173.29 356.336C173.29 356.876 173.452 357.272 173.776 357.524C174.112 357.776 174.538 357.902 175.054 357.902C175.87 357.902 176.548 357.68 177.088 357.236C177.628 356.78 177.898 356.084 177.898 355.148V354.284L176.476 354.338ZM181.94 353.204C181.94 351.8 182.078 350.606 182.354 349.622C182.642 348.626 183.08 347.834 183.668 347.246C184.268 346.646 185.036 346.244 185.972 346.04C186.752 345.872 187.514 345.722 188.258 345.59C189.002 345.458 189.698 345.338 190.346 345.23L190.616 346.616C190.304 346.664 189.956 346.724 189.572 346.796C189.188 346.856 188.798 346.922 188.402 346.994C188.006 347.054 187.622 347.12 187.25 347.192C186.89 347.252 186.572 347.312 186.296 347.372C185.9 347.456 185.546 347.6 185.234 347.804C184.922 347.996 184.652 348.26 184.424 348.596C184.208 348.932 184.034 349.346 183.902 349.838C183.77 350.33 183.692 350.912 183.668 351.584H183.776C183.944 351.356 184.172 351.122 184.46 350.882C184.76 350.642 185.114 350.438 185.522 350.27C185.942 350.102 186.416 350.018 186.944 350.018C187.784 350.018 188.48 350.204 189.032 350.576C189.596 350.936 190.016 351.44 190.292 352.088C190.58 352.736 190.724 353.492 190.724 354.356C190.724 355.424 190.538 356.318 190.166 357.038C189.794 357.758 189.278 358.298 188.618 358.658C187.958 359.006 187.19 359.18 186.314 359.18C185.654 359.18 185.054 359.054 184.514 358.802C183.974 358.538 183.512 358.154 183.128 357.65C182.744 357.146 182.45 356.522 182.246 355.778C182.042 355.034 181.94 354.176 181.94 353.204ZM186.44 357.866C186.968 357.866 187.424 357.758 187.808 357.542C188.204 357.326 188.51 356.972 188.726 356.48C188.942 355.988 189.05 355.334 189.05 354.518C189.05 353.534 188.864 352.76 188.492 352.196C188.132 351.62 187.532 351.332 186.692 351.332C186.164 351.332 185.684 351.452 185.252 351.692C184.82 351.92 184.46 352.184 184.172 352.484C183.884 352.784 183.68 353.036 183.56 353.24C183.56 353.828 183.602 354.398 183.686 354.95C183.77 355.502 183.914 356 184.118 356.444C184.334 356.876 184.628 357.224 185 357.488C185.384 357.74 185.864 357.866 186.44 357.866ZM201.607 354.158C201.607 354.962 201.499 355.676 201.283 356.3C201.079 356.912 200.779 357.434 200.383 357.866C199.999 358.298 199.525 358.628 198.961 358.856C198.409 359.072 197.791 359.18 197.107 359.18C196.471 359.18 195.883 359.072 195.343 358.856C194.803 358.628 194.335 358.298 193.939 357.866C193.543 357.434 193.231 356.912 193.003 356.3C192.787 355.676 192.679 354.962 192.679 354.158C192.679 353.09 192.859 352.19 193.219 351.458C193.579 350.714 194.095 350.15 194.767 349.766C195.439 349.37 196.237 349.172 197.161 349.172C198.037 349.172 198.805 349.37 199.465 349.766C200.137 350.15 200.659 350.714 201.031 351.458C201.415 352.19 201.607 353.09 201.607 354.158ZM194.317 354.158C194.317 354.914 194.413 355.574 194.605 356.138C194.809 356.69 195.121 357.116 195.541 357.416C195.961 357.716 196.495 357.866 197.143 357.866C197.791 357.866 198.325 357.716 198.745 357.416C199.165 357.116 199.471 356.69 199.663 356.138C199.867 355.574 199.969 354.914 199.969 354.158C199.969 353.39 199.867 352.736 199.663 352.196C199.459 351.656 199.147 351.242 198.727 350.954C198.319 350.654 197.785 350.504 197.125 350.504C196.141 350.504 195.427 350.828 194.983 351.476C194.539 352.124 194.317 353.018 194.317 354.158ZM211.462 359H209.86V350.666H207.016C206.896 352.19 206.746 353.492 206.566 354.572C206.386 355.64 206.158 356.51 205.882 357.182C205.606 357.854 205.276 358.346 204.892 358.658C204.508 358.97 204.058 359.126 203.542 359.126C203.386 359.126 203.23 359.114 203.074 359.09C202.93 359.078 202.81 359.048 202.714 359V357.812C202.786 357.836 202.864 357.854 202.948 357.866C203.032 357.878 203.116 357.884 203.2 357.884C203.464 357.884 203.704 357.776 203.92 357.56C204.136 357.344 204.328 357.014 204.496 356.57C204.676 356.126 204.838 355.568 204.982 354.896C205.126 354.212 205.252 353.408 205.36 352.484C205.468 351.56 205.564 350.516 205.648 349.352H211.462V359ZM218.25 349.172C219.078 349.172 219.786 349.352 220.374 349.712C220.974 350.072 221.43 350.582 221.742 351.242C222.066 351.89 222.228 352.652 222.228 353.528V354.482H215.622C215.646 355.574 215.922 356.408 216.45 356.984C216.99 357.548 217.74 357.83 218.7 357.83C219.312 357.83 219.852 357.776 220.32 357.668C220.8 357.548 221.292 357.38 221.796 357.164V358.55C221.304 358.766 220.818 358.922 220.338 359.018C219.858 359.126 219.288 359.18 218.628 359.18C217.716 359.18 216.906 358.994 216.198 358.622C215.502 358.25 214.956 357.698 214.56 356.966C214.176 356.222 213.984 355.316 213.984 354.248C213.984 353.192 214.158 352.286 214.506 351.53C214.866 350.774 215.364 350.192 216 349.784C216.648 349.376 217.398 349.172 218.25 349.172ZM218.232 350.468C217.476 350.468 216.876 350.714 216.432 351.206C216 351.686 215.742 352.358 215.658 353.222H220.572C220.572 352.67 220.488 352.19 220.32 351.782C220.152 351.374 219.894 351.056 219.546 350.828C219.21 350.588 218.772 350.468 218.232 350.468ZM232.442 351.782C232.442 352.382 232.262 352.85 231.902 353.186C231.542 353.522 231.08 353.75 230.516 353.87V353.942C231.116 354.026 231.638 354.242 232.082 354.59C232.526 354.926 232.748 355.454 232.748 356.174C232.748 356.582 232.67 356.96 232.514 357.308C232.37 357.656 232.142 357.956 231.83 358.208C231.518 358.46 231.116 358.658 230.624 358.802C230.132 358.934 229.538 359 228.842 359H224.684V349.352H228.824C229.508 349.352 230.12 349.43 230.66 349.586C231.212 349.73 231.644 349.982 231.956 350.342C232.28 350.69 232.442 351.17 232.442 351.782ZM231.11 356.174C231.11 355.622 230.9 355.226 230.48 354.986C230.06 354.746 229.442 354.626 228.626 354.626H226.268V357.722H228.662C229.454 357.722 230.06 357.608 230.48 357.38C230.9 357.14 231.11 356.738 231.11 356.174ZM230.84 351.98C230.84 351.524 230.672 351.194 230.336 350.99C230.012 350.774 229.478 350.666 228.734 350.666H226.268V353.312H228.446C229.226 353.312 229.82 353.204 230.228 352.988C230.636 352.772 230.84 352.436 230.84 351.98ZM238.709 349.19C239.885 349.19 240.755 349.448 241.319 349.964C241.883 350.48 242.165 351.302 242.165 352.43V359H241.013L240.707 357.632H240.635C240.359 357.98 240.071 358.274 239.771 358.514C239.483 358.742 239.147 358.91 238.763 359.018C238.391 359.126 237.935 359.18 237.395 359.18C236.819 359.18 236.297 359.078 235.829 358.874C235.373 358.67 235.013 358.358 234.749 357.938C234.485 357.506 234.353 356.966 234.353 356.318C234.353 355.358 234.731 354.62 235.487 354.104C236.243 353.576 237.407 353.288 238.979 353.24L240.617 353.186V352.61C240.617 351.806 240.443 351.248 240.095 350.936C239.747 350.624 239.255 350.468 238.619 350.468C238.115 350.468 237.635 350.546 237.179 350.702C236.723 350.846 236.297 351.014 235.901 351.206L235.415 350.018C235.835 349.79 236.333 349.598 236.909 349.442C237.485 349.274 238.085 349.19 238.709 349.19ZM239.177 354.338C237.977 354.386 237.143 354.578 236.675 354.914C236.219 355.25 235.991 355.724 235.991 356.336C235.991 356.876 236.153 357.272 236.477 357.524C236.813 357.776 237.239 357.902 237.755 357.902C238.571 357.902 239.249 357.68 239.789 357.236C240.329 356.78 240.599 356.084 240.599 355.148V354.284L239.177 354.338ZM248.871 349.172C249.699 349.172 250.407 349.352 250.995 349.712C251.595 350.072 252.051 350.582 252.363 351.242C252.687 351.89 252.849 352.652 252.849 353.528V354.482H246.243C246.267 355.574 246.543 356.408 247.071 356.984C247.611 357.548 248.361 357.83 249.321 357.83C249.933 357.83 250.473 357.776 250.941 357.668C251.421 357.548 251.913 357.38 252.417 357.164V358.55C251.925 358.766 251.439 358.922 250.959 359.018C250.479 359.126 249.909 359.18 249.249 359.18C248.337 359.18 247.527 358.994 246.819 358.622C246.123 358.25 245.577 357.698 245.181 356.966C244.797 356.222 244.605 355.316 244.605 354.248C244.605 353.192 244.779 352.286 245.127 351.53C245.487 350.774 245.985 350.192 246.621 349.784C247.269 349.376 248.019 349.172 248.871 349.172ZM248.853 350.468C248.097 350.468 247.497 350.714 247.053 351.206C246.621 351.686 246.363 352.358 246.279 353.222H251.193C251.193 352.67 251.109 352.19 250.941 351.782C250.773 351.374 250.515 351.056 250.167 350.828C249.831 350.588 249.393 350.468 248.853 350.468ZM265.655 349.352V359H264.233V352.844C264.233 352.592 264.239 352.328 264.251 352.052C264.275 351.776 264.299 351.506 264.323 351.242H264.269L261.119 359H259.787L256.727 351.242H256.673C256.697 351.506 256.709 351.776 256.709 352.052C256.721 352.328 256.727 352.61 256.727 352.898V359H255.305V349.352H257.411L260.453 357.11L263.549 349.352H265.655ZM277.123 354.158C277.123 354.962 277.015 355.676 276.799 356.3C276.595 356.912 276.295 357.434 275.899 357.866C275.515 358.298 275.041 358.628 274.477 358.856C273.925 359.072 273.307 359.18 272.623 359.18C271.987 359.18 271.399 359.072 270.859 358.856C270.319 358.628 269.851 358.298 269.455 357.866C269.059 357.434 268.747 356.912 268.519 356.3C268.303 355.676 268.195 354.962 268.195 354.158C268.195 353.09 268.375 352.19 268.735 351.458C269.095 350.714 269.611 350.15 270.283 349.766C270.955 349.37 271.753 349.172 272.677 349.172C273.553 349.172 274.321 349.37 274.981 349.766C275.653 350.15 276.175 350.714 276.547 351.458C276.931 352.19 277.123 353.09 277.123 354.158ZM269.833 354.158C269.833 354.914 269.929 355.574 270.121 356.138C270.325 356.69 270.637 357.116 271.057 357.416C271.477 357.716 272.011 357.866 272.659 357.866C273.307 357.866 273.841 357.716 274.261 357.416C274.681 357.116 274.987 356.69 275.179 356.138C275.383 355.574 275.485 354.914 275.485 354.158C275.485 353.39 275.383 352.736 275.179 352.196C274.975 351.656 274.663 351.242 274.243 350.954C273.835 350.654 273.301 350.504 272.641 350.504C271.657 350.504 270.943 350.828 270.499 351.476C270.055 352.124 269.833 353.018 269.833 354.158ZM283.504 359.18C282.652 359.18 281.89 359.006 281.218 358.658C280.558 358.31 280.036 357.77 279.652 357.038C279.28 356.306 279.094 355.37 279.094 354.23C279.094 353.042 279.292 352.076 279.688 351.332C280.084 350.588 280.618 350.042 281.29 349.694C281.974 349.346 282.748 349.172 283.612 349.172C284.104 349.172 284.578 349.226 285.034 349.334C285.49 349.43 285.862 349.55 286.15 349.694L285.664 351.008C285.376 350.9 285.04 350.798 284.656 350.702C284.272 350.606 283.912 350.558 283.576 350.558C282.928 350.558 282.394 350.696 281.974 350.972C281.554 351.248 281.242 351.656 281.038 352.196C280.834 352.736 280.732 353.408 280.732 354.212C280.732 354.98 280.834 355.634 281.038 356.174C281.242 356.714 281.548 357.122 281.956 357.398C282.364 357.674 282.874 357.812 283.486 357.812C284.014 357.812 284.476 357.758 284.872 357.65C285.28 357.542 285.652 357.41 285.988 357.254V358.658C285.664 358.826 285.304 358.952 284.908 359.036C284.524 359.132 284.056 359.18 283.504 359.18ZM294.942 350.684H291.792V359H290.226V350.684H287.112V349.352H294.942V350.684ZM301.289 353.312C302.129 353.312 302.825 353.414 303.377 353.618C303.929 353.822 304.343 354.128 304.619 354.536C304.907 354.932 305.051 355.436 305.051 356.048C305.051 356.648 304.913 357.17 304.637 357.614C304.373 358.058 303.959 358.4 303.395 358.64C302.831 358.88 302.105 359 301.217 359H296.843V349.352H298.427V353.312H301.289ZM303.467 356.138C303.467 355.55 303.257 355.154 302.837 354.95C302.429 354.734 301.853 354.626 301.109 354.626H298.427V357.722H301.145C301.817 357.722 302.369 357.602 302.801 357.362C303.245 357.122 303.467 356.714 303.467 356.138Z" fill="black"/>
<circle cx="235.191" cy="99.6111" r="9.70681" fill="#EA5858"/>
<circle cx="306.191" cy="154.611" r="9.70681" fill="#EA5858"/>
<mask id="mask0_1397_845" style="mask-type:alpha" maskUnits="userSpaceOnUse" x="109" y="61" width="232" height="242">
<path d="M227.687 184.174L320.91 148.78L340.205 258.025L163.724 302.848L109.017 133.896L236.984 61.9044L227.687 184.174Z" fill="#C4C4C4"/>
</mask>
<g mask="url(#mask0_1397_845)">
<path fill-rule="evenodd" clip-rule="evenodd" d="M226.598 278.272C278.745 278.272 321.019 235.998 321.019 183.851C321.019 131.704 278.745 89.4302 226.598 89.4302C174.451 89.4302 132.177 131.704 132.177 183.851C132.177 235.998 174.451 278.272 226.598 278.272ZM226.598 258.858C268.023 258.858 301.605 225.276 301.605 183.851C301.605 142.426 268.023 108.844 226.598 108.844C185.173 108.844 151.591 142.426 151.591 183.851C151.591 225.276 185.173 258.858 226.598 258.858Z" fill="#EA5858"/>
</g>
</g>
<defs>
<filter id="filter0_dd_1397_845" x="0" y="0" width="468" height="529" filterUnits="userSpaceOnUse" color-interpolation-filters="sRGB">
<feFlood flood-opacity="0" result="BackgroundImageFix"/>
<feColorMatrix in="SourceAlpha" type="matrix" values="0 0 0 0 0 0 0 0 0 0 0 0 0 0 0 0 0 0 127 0" result="hardAlpha"/>
<feOffset dy="44"/>
<feGaussianBlur stdDeviation="37"/>
<feColorMatrix type="matrix" values="0 0 0 0 0.103299 0 0 0 0 0.0836699 0 0 0 0 0.277995 0 0 0 0.06 0"/>
<feBlend mode="normal" in2="BackgroundImageFix" result="effect1_dropShadow_1397_845"/>
<feColorMatrix in="SourceAlpha" type="matrix" values="0 0 0 0 0 0 0 0 0 0 0 0 0 0 0 0 0 0 127 0" result="hardAlpha"/>
<feOffset/>
<feGaussianBlur stdDeviation="12"/>
<feColorMatrix type="matrix" values="0 0 0 0 0 0 0 0 0 0 0 0 0 0 0 0 0 0 0.04 0"/>
<feBlend mode="normal" in2="effect1_dropShadow_1397_845" result="effect2_dropShadow_1397_845"/>
<feBlend mode="normal" in="SourceGraphic" in2="effect2_dropShadow_1397_845" result="shape"/>
</filter>
</defs>
</svg>
