<svg width="282" height="501" viewBox="0 0 282 501" fill="none" xmlns="http://www.w3.org/2000/svg">
<path d="M0.561035 16.1177C0.561035 7.28112 7.72448 0.117676 16.561 0.117676H281.561V484.118C281.561 492.954 274.398 500.118 265.561 500.118H0.561035V16.1177Z" fill="white"/>
<path d="M117.144 34.8003H113.289L112.482 37.1177H110.684L114.444 27.1646H115.996L119.762 37.1177H117.958L117.144 34.8003ZM113.774 33.4058H116.659L115.216 29.2769L113.774 33.4058ZM126.673 37.1177H125.012V34.1304H122.134V37.1177H120.473V29.7212H122.134V32.8042H125.012V29.7212H126.673V37.1177ZM131.076 34.1919H130.235V37.1177H128.574V29.7212H130.235V32.6743H130.966L133.01 29.7212H135.061L132.388 33.2622L135.287 37.1177H133.126L131.076 34.1919ZM139.347 37.2544C138.294 37.2544 137.44 36.924 136.784 36.2632C136.132 35.5978 135.806 34.7137 135.806 33.6108V33.4058C135.806 32.6675 135.947 32.009 136.23 31.4302C136.517 30.8468 136.918 30.3934 137.433 30.0698C137.948 29.7463 138.522 29.5845 139.156 29.5845C140.163 29.5845 140.94 29.9058 141.487 30.5483C142.038 31.1909 142.314 32.1001 142.314 33.2759V33.9458H137.481C137.531 34.5565 137.734 35.0396 138.089 35.395C138.449 35.7505 138.901 35.9282 139.443 35.9282C140.204 35.9282 140.824 35.6206 141.302 35.0054L142.198 35.8599C141.902 36.3019 141.505 36.646 141.008 36.8921C140.516 37.1336 139.962 37.2544 139.347 37.2544ZM139.149 30.9175C138.693 30.9175 138.324 31.077 138.042 31.396C137.764 31.715 137.586 32.1593 137.508 32.729H140.673V32.606C140.637 32.05 140.489 31.6307 140.229 31.3481C139.969 31.061 139.609 30.9175 139.149 30.9175ZM149.348 31.0405H146.949V37.1177H145.288V31.0405H142.916V29.7212H149.348V31.0405ZM152.247 32.0728H153.874C154.48 32.0728 155.008 32.1776 155.459 32.3872C155.911 32.5968 156.252 32.8908 156.485 33.269C156.722 33.6473 156.84 34.0871 156.84 34.5884C156.84 35.3494 156.571 35.9601 156.034 36.4204C155.496 36.8807 154.78 37.1131 153.887 37.1177H150.585V29.7212H152.247V32.0728ZM159.732 37.1177H158.071V29.7212H159.732V37.1177ZM152.247 33.4058V35.7915H153.867C154.272 35.7915 154.591 35.6912 154.824 35.4907C155.061 35.2856 155.179 34.9963 155.179 34.6226C155.179 34.2489 155.063 33.9549 154.831 33.7407C154.603 33.522 154.293 33.4103 153.901 33.4058H152.247Z" fill="#1B1642"/>
<circle opacity="0.2" cx="55.561" cy="92.1177" r="20" fill="#6658EA"/>
<circle opacity="0.2" cx="55.561" cy="308.118" r="20" fill="#6658EA"/>
<circle opacity="0.2" cx="55.561" cy="164.118" r="20" fill="#2CD4A2"/>
<circle opacity="0.2" cx="55.561" cy="380.118" r="20" fill="#2CD4A2"/>
<circle opacity="0.2" cx="55.561" cy="453.118" r="20" fill="#6658EA"/>
<circle opacity="0.2" cx="55.561" cy="236.118" r="20" fill="#8D9AAE"/>
<path d="M53.8543 86.0668C53.7725 85.9845 53.5008 85.3855 53.2561 84.8193C53.0507 84.3442 52.7473 83.9171 52.3587 83.5752V83.5752C51.9538 83.2189 51.4698 82.9645 50.9468 82.833L50.477 82.7149C49.9298 82.5773 49.3518 82.6331 48.8411 82.8728V82.8728C48.6147 82.979 48.406 83.1193 48.2222 83.2887L47.9501 83.5396C47.7137 83.7575 47.4995 83.9985 47.3107 84.2589L45.4828 86.7812M53.8543 86.0668L53.8317 86.7951C53.7978 87.8866 53.3506 88.9246 52.5805 89.699L51.271 91.0159C51.0026 91.2858 50.8975 91.6779 50.9951 92.0458L51.0036 92.078C51.0885 92.3982 51.3254 92.6563 51.6372 92.7682V92.7682C51.9816 92.8919 52.3659 92.8193 52.6414 92.5784L53.9298 91.4517M53.8543 86.0668V80.4106C53.8543 79.4195 54.1459 77.9899 55.1279 78.1237V78.1237C55.8858 78.227 56.0479 79.2722 56.0599 80.0371L56.1543 86.0668M42.9186 91.4517L44.0235 89.054C44.2417 88.5805 44.5056 88.1296 44.8115 87.7075L45.4828 86.7812M42.9186 91.4517L43.2957 92.9686L43.6871 94.6414C43.8279 95.2433 44.038 95.8269 44.3132 96.3804L45.4828 98.7328M42.9186 91.4517L42.2398 93.9546L41.7119 96.8367M45.4828 98.7328L46.482 99.9203C46.9141 100.434 47.4763 100.822 48.1097 101.043V101.043C48.6151 101.22 49.1526 101.286 49.6858 101.237L52.1951 101.008M45.4828 98.7328L45.1156 98.979C44.7609 99.2168 44.4591 99.5252 44.2291 99.885V99.885C44.0111 100.226 43.862 100.606 43.79 101.004L43.4465 102.904M52.1951 101.008L52.5366 100.538C53.2488 99.5581 53.2054 98.1871 53.9298 97.2159V97.2159C53.9906 97.1343 54.019 96.6623 54.0272 96.0024M52.1951 101.008V101.008C52.0476 101.453 51.7718 101.845 51.4024 102.134L50.6361 102.733C50.17 103.098 49.6491 103.386 49.0927 103.587L48.8066 103.691C48.3023 103.874 47.7767 103.991 47.2426 104.04L47.0288 104.059C46.6035 104.098 46.1748 104.079 45.7547 104.002V104.002C45.0789 103.878 44.4383 103.608 43.8781 103.211L43.4465 102.904M53.9298 91.4517V91.4517C54.5903 90.9203 55.5317 90.9203 56.1923 91.4517V91.4517M53.9298 91.4517C53.9798 92.6604 54.0432 94.6983 54.0272 96.0024M43.4465 102.904L42.9263 102.381C42.6212 102.074 42.3636 101.724 42.162 101.341V101.341C41.9143 100.87 41.755 100.358 41.692 99.8302L41.561 98.7328M45.4828 86.7812L46.0751 87.0135C46.7828 87.2911 47.4473 87.6681 48.0486 88.1333L48.1225 88.1905M48.1225 88.1905L48.8767 89.5556M48.1225 88.1905L46.9912 90.0107M56.1923 91.4517L56.6735 91.9611C57.2747 92.5975 58.3745 93.1955 58.9137 92.5057V92.5057C59.3568 91.9388 58.852 91.1685 58.3446 90.6582L57.6867 89.9967C56.728 89.0325 56.1804 87.7342 56.1591 86.3747L56.1543 86.0668M56.1923 91.4517V95.7748M61.4716 82.7297L62.4521 83.7157L63.4483 84.8757C63.739 85.2141 64.0008 85.5763 64.2311 85.9584L64.6392 86.6357M56.1543 86.0668L56.7143 84.5263C56.8183 84.24 56.9605 83.969 57.1369 83.7207L57.1751 83.6669C57.4707 83.2507 57.8638 82.9132 58.3199 82.6838V82.6838C58.7558 82.4646 59.2369 82.3505 59.7248 82.3505H59.9633M64.6392 86.6357L65.3934 87.8871L66.1817 89.261C66.4099 89.6589 66.6036 90.0758 66.7604 90.5069L66.911 90.9208M64.6392 86.6357L63.9042 86.8684C63.0622 87.1349 62.3368 87.6818 61.8487 88.418V88.418M61.0946 89.5556L61.8487 88.418M61.8487 88.418L63.0554 89.859M56.1923 95.7748V96.4708C56.1923 96.8659 56.2205 97.2605 56.2835 97.6505C56.3611 98.1307 56.4525 98.6493 56.494 98.7328C56.5435 98.8323 56.9344 99.6866 57.2261 100.325M56.1923 95.7748L58.5303 96.2299M58.5303 96.2299L59.4353 95.3198M58.5303 96.2299C59.2228 97.7334 59.9302 97.8313 61.3962 97.5193M54.0272 96.0024L51.4409 96.5333M51.4409 96.5333L50.5359 95.5473M51.4409 96.5333C50.6534 97.8916 50.0783 98.307 48.575 97.8226M57.2261 100.325V100.325C57.3408 100.577 57.4924 100.81 57.6761 101.016L58.0044 101.385C58.4524 101.889 58.9816 102.314 59.57 102.642L59.8504 102.799C60.4256 103.12 61.0432 103.359 61.6849 103.508L61.7372 103.52C62.3613 103.665 63.0032 103.719 63.6428 103.68V103.68C64.646 103.619 65.6222 103.331 66.4979 102.837L66.5247 102.822M57.2261 100.325L57.7703 100.579C58.2734 100.813 58.8122 100.961 59.3643 101.016V101.016C59.8118 101.061 60.2633 101.045 60.7065 100.968L61.4882 100.833C61.9749 100.748 62.4393 100.566 62.8534 100.296V100.296C63.2849 100.016 63.652 99.6466 63.9306 99.2136L64.3376 98.5811C64.4064 98.4357 64.4964 98.2482 64.5932 98.0502M66.911 90.9208L67.656 92.9686L68.3348 96.0024L68.4386 97.0814C68.5197 97.9242 68.4665 98.7744 68.2811 99.6005L68.1789 100.055C68.0822 100.486 67.9269 100.902 67.7176 101.291L67.34 101.992C67.1523 102.34 66.8696 102.628 66.5247 102.822V102.822M66.911 90.9208L66.2795 94.058C66.1917 94.4939 66.0689 94.9221 65.9051 95.3354C65.6457 95.99 65.3317 96.747 65.2426 96.8367C65.1716 96.908 64.958 97.3154 64.7429 97.7468C64.6924 97.8479 64.6419 97.9504 64.5932 98.0502M64.5932 98.0502L65.0589 98.3598C65.4278 98.6052 65.7353 98.9321 65.9576 99.3153V99.3153C66.0838 99.5328 66.1809 99.7657 66.2467 100.008L66.3739 100.477L66.5247 101.615V102.822" stroke="#61D8C5" stroke-width="1.2"/>
<path d="M41.561 168.958V162.79C41.561 162.498 41.5916 162.206 41.661 161.922C42.8172 157.207 44.9927 156.201 49.157 155.22C49.449 155.151 49.7483 155.118 50.0483 155.118H59.0876M63.2441 155.118H59.0876M59.0876 155.118C62.205 157.135 61.0966 163.811 57.6328 167.358M57.6328 167.358H59.2679C59.5166 167.358 59.7671 167.335 60.0112 167.287C65.7862 166.154 68.3473 164.552 70.3395 159.353C70.4609 159.036 70.539 158.702 70.5537 158.363C70.6292 156.629 70.1279 155.87 68.6616 155.311C68.29 155.169 67.8911 155.118 67.4934 155.118H65.1838M57.6328 167.358C56.9991 167.362 56.4295 167.409 55.9009 167.513M42.1152 170.766C42.5305 171.713 42.9108 172.152 43.5756 172.535C43.8858 172.714 44.234 172.818 44.5882 172.871C46.5195 173.159 47.8274 173.017 49.7744 172.051C50.257 171.811 50.6659 171.45 51.0074 171.033C51.904 169.939 52.687 169.14 53.4763 168.572M53.4763 168.572C52.4803 171.252 52.5258 175.669 52.9914 175.983C53.1639 176.099 53.4588 176.15 53.7646 176.096C54.4777 175.969 54.654 175.107 54.654 174.383V174.383M53.4763 168.572C54.2421 168.021 55.0138 167.687 55.9009 167.513M54.654 172.575C54.7464 170.508 55.0437 169.405 55.9009 167.513" stroke="#61D8C5" stroke-width="1.2"/>
<path d="M42.8318 234.411L42.9685 234.261C43.2504 233.95 43.3039 233.497 43.1259 233.117C42.1975 231.135 42.3715 230.122 43.9617 229.05C44.1431 228.927 44.2878 228.755 44.3704 228.552C45.4696 225.853 46.5342 225.448 48.5447 225.986C48.8505 226.068 49.1767 226.013 49.444 225.843C50.6803 225.059 51.5728 225.088 52.9491 225.857C53.2389 226.018 53.5871 226.044 53.8935 225.916C55.0794 225.421 55.9093 225.26 56.9015 225.842C57.3538 226.108 57.9294 226.097 58.3359 225.766C59.3722 224.921 60.2862 224.79 61.988 226.049C62.2685 226.257 62.6343 226.32 62.9664 226.213C67.0243 224.903 67.7917 226.322 67.5085 230.71C67.4935 230.942 67.5594 231.174 67.6883 231.368C68.0739 231.949 68.2266 232.338 68.2916 232.942M68.561 235.213C68.4965 235.586 68.4147 235.838 68.2747 236.086C68.1028 236.391 68.0362 236.748 68.1386 237.082C68.6353 238.704 68.3118 239.753 66.6951 241.297C66.4734 241.508 66.3532 241.807 66.3611 242.113C66.4302 244.77 65.4638 245.714 62.8724 246.451C62.5942 246.53 62.3601 246.722 62.2191 246.974C61.2872 248.642 60.3525 248.986 58.9254 248.685C58.2161 248.535 57.5217 249.06 57.4759 249.783C57.4002 250.979 57.0458 251.791 56.327 252.744C56.146 252.984 55.8587 253.118 55.5582 253.118H55.5176C55.0989 253.118 54.7231 252.856 54.5829 252.462C53.7597 250.146 53.4674 248.74 53.5411 246.571C53.6117 245.884 53.7831 245.303 54.0358 244.833M48.1527 230.069C49.5442 230.807 50.3868 230.884 51.7794 230.597C51.9627 230.56 52.1527 230.57 52.3306 230.628C52.722 230.756 53.0763 230.852 53.4066 230.914M48.1527 230.069C48.0665 230.926 47.9332 231.473 47.5743 231.913C47.2258 232.341 47.0412 232.921 47.2891 233.413C47.7095 234.248 47.8838 234.911 47.7489 235.614M48.1527 230.069L49.096 234.011M49.0283 243.03C49.9463 248.006 47.085 247.69 47.007 244.436C46.993 243.856 46.5757 243.341 46.0154 243.189C44.1632 242.685 43.2481 241.237 43.9016 239.472C44.0634 239.035 44.0059 238.527 43.667 238.207L42.8318 237.418M49.0283 243.03C49.8776 241.027 50.1603 239.766 48.4347 238.153M49.0283 243.03C50.5888 244.495 51.7068 244.858 54.0358 244.833M47.7489 235.614C47.7036 235.85 47.5886 236.091 47.4546 236.345C47.2294 236.77 47.3661 237.278 47.7473 237.572C48.0053 237.772 48.2336 237.965 48.4347 238.153M47.7489 235.614C49.7356 236.883 51.6699 235.521 51.4868 233.944C51.386 233.075 51.3187 231.271 53.4066 230.914M53.4066 230.914C54.5077 231.121 55.3424 230.953 56.397 230.343C56.6801 230.179 57.0212 230.145 57.3283 230.257C57.9932 230.5 58.5724 230.651 59.1317 230.708M59.1317 230.708C57.8161 232.739 56.7649 233.238 54.6362 233.399C54.5359 233.406 54.4357 233.427 54.3436 233.467C53.1523 233.985 53.2116 234.814 53.9455 236.683M59.1317 230.708C59.6479 230.76 60.147 230.734 60.6809 230.627M53.9455 236.683L57.4479 238.42M53.9455 236.683C51.9385 236.485 51.331 236.955 50.9145 238.554M50.9145 238.554C50.0732 237.595 49.5607 237.309 48.4347 238.153M50.9145 238.554C51.6121 241.318 52.5803 241.642 54.619 241.56M54.7537 239.355C56.3974 240.222 57.4139 240.892 57.8461 241.627M57.7846 243.644C57.8644 243.673 57.9446 243.705 58.0253 243.74C58.6851 244.022 59.4793 243.695 59.8505 243.08C60.1125 242.647 60.4476 242.38 60.9015 242.209C61.4927 241.986 61.9 241.399 61.7999 240.775C61.6223 239.67 61.8796 239.006 62.6341 238.494M57.7846 243.644C56.1663 243.044 54.7636 243.48 54.0358 244.833M57.7846 243.644C58.1636 242.841 58.1913 242.213 57.8461 241.627M57.8461 241.627C61.2152 240.731 61.7915 236.731 58.1888 235.48C57.2958 235.17 57.1948 234.515 58.0541 234.278C60.2121 233.383 60.9285 232.649 60.6809 230.627M60.6809 230.627C60.799 230.603 60.9188 230.576 61.0409 230.544C61.7244 230.368 62.4147 230.842 62.5673 231.531C62.7149 232.198 63.0008 232.696 63.5097 233.168M62.6341 238.494C62.7296 238.43 62.8331 238.367 62.9446 238.307C63.4493 238.033 63.7026 237.444 63.5775 236.884C63.3988 236.084 63.5024 235.404 63.8649 234.549C64.0634 234.081 63.9199 233.541 63.5434 233.199C63.5321 233.189 63.5208 233.178 63.5097 233.168M62.6341 238.494C62.6165 237.569 62.4288 236.944 62.0273 236.336C61.6129 235.707 61.8519 234.87 62.4763 234.45C62.8839 234.175 63.205 233.794 63.5097 233.168" stroke="#61D8C5" stroke-width="1.3"/>
<path d="M49.561 295.118H54.7912C55.2162 295.118 55.5923 295.388 55.7439 295.785C56.4974 297.76 57.2913 298.931 59.1578 300.655C63.5129 305.01 65.3155 307.446 66.2677 310.718M49.561 295.118V320.118C49.561 320.67 50.0087 321.118 50.561 321.118H51.2679M49.561 295.118C51.1031 303.893 51.6857 309.256 51.2679 321.118M49.561 295.118C51.8035 303.297 53.858 305.921 53.2478 321.118M66.561 311.866C65.5976 318.371 63.5535 319.843 59.0443 321.082C58.9591 321.106 58.8697 321.118 58.7813 321.118H53.2478M66.561 311.866C66.4725 311.47 66.3756 311.088 66.2677 310.718M66.561 311.866L62.3281 311.731M66.561 311.866L63.2054 314.702M51.2679 321.118H53.2478M66.2677 310.718L63.2839 308.287M63.2839 308.287C62.9793 307.599 62.7128 307.254 62.3183 307.003C62.0065 306.804 61.781 306.494 61.6469 306.149C61.0734 304.676 58.9819 304.631 58.3479 306.053C58.2527 306.267 58.1251 306.469 57.9485 306.622C57.0531 307.398 56.9838 308.155 57.2658 309.393C57.3479 309.753 57.2314 310.123 57.0056 310.415C56.4531 311.129 56.4658 311.834 56.9385 313.015C57.058 313.314 57.0355 313.648 56.9066 313.943C56.509 314.851 56.5824 315.645 57.3462 316.19C57.6233 316.388 57.8364 316.669 57.9619 316.986C58.5526 318.477 60.477 318.348 61.3437 317.441C61.5156 317.261 61.7117 317.098 61.9398 316.998C62.9865 316.541 63.4609 315.676 63.2054 314.702M63.2839 308.287L62.4579 309.746C62.3728 309.896 62.3281 310.066 62.3281 310.238V311.731M62.3281 311.731V313.013C62.3281 313.313 62.4685 313.591 62.6811 313.802C62.9847 314.103 63.1662 314.391 63.2054 314.702" stroke="#61D8C5"/>
<path d="M42.8044 370.878C39.9081 373.455 40.0835 375.446 41.8169 379.43M41.8169 379.43C43.1811 383.099 44.2508 383.781 46.141 384.333C46.3135 384.383 46.4932 384.409 46.6728 384.403C47.8267 384.368 48.3934 384.056 48.7141 382.773C48.7793 382.512 48.7726 382.238 48.7072 381.977C48.1675 379.825 47.278 378.798 44.4268 377.747M41.8169 379.43C42.5479 378.304 42.9822 377.713 44.4268 377.747M44.4268 377.747C43.2389 375.119 43.3573 374.084 45.3417 373.497C45.574 373.428 45.8221 373.41 46.058 373.465C47.9371 373.905 48.8038 375.848 48.8621 377.095C48.882 377.522 48.8779 377.962 49.0325 378.361C49.529 379.642 50.7598 382.655 52.1156 384.757C53.1681 386.389 53.5925 388.695 53.7636 390.289C53.8716 391.296 54.7001 392.118 55.7128 392.118V392.118C56.5772 392.118 57.3256 391.514 57.4402 390.657C57.7112 388.631 57.7807 386.622 58.5347 385.879C59.3777 385.048 61.989 379.346 62.2715 377.353C62.3196 377.014 62.3121 376.66 62.4134 376.332C63.1472 373.964 64.5349 373.189 66.3928 373.582C66.6557 373.638 66.906 373.761 67.0692 373.975C67.6514 374.737 67.8705 376.174 67.07 377.747M67.07 377.747C64.677 378.503 63.3925 379.068 62.4077 381.408C62.3153 381.627 62.2698 381.865 62.2759 382.103C62.3184 383.78 62.8159 384.341 64.427 384.402C64.5428 384.407 64.6591 384.398 64.773 384.377C65.763 384.196 66.2792 383.869 67.07 383.075L68.6219 381.182C68.904 380.734 69.0537 380.278 69.0873 379.85M67.07 377.747C68.3942 377.72 69.1799 378.675 69.0873 379.85M69.0873 379.85C70.9095 377.313 71.4215 372.695 68.4034 370.658C68.2701 370.568 68.1231 370.503 67.9674 370.463C67.0943 370.24 63.9043 369.582 61.0742 371.018C57.7588 372.7 51.4808 371.719 50.1405 371.298C48.8003 370.878 46.926 369.941 44.4268 370.177M54.8667 386.86V386.86C54.9992 387.606 56.0986 387.623 56.2864 386.889C56.8234 384.79 57.2392 383.988 57.8293 383.075C59.1919 381.251 59.8352 379.946 60.6509 376.836V376.836C60.7971 375.903 58.9439 373.317 58.0038 373.411C56.6461 373.548 55.3712 373.561 54.0596 373.458C52.5582 373.34 50.7424 376.011 50.9002 377.509C50.9311 377.802 50.9552 378.113 50.9732 378.444C50.9834 378.632 51.0227 378.818 51.0937 378.993C52.1331 381.544 52.8751 382.772 54.2318 384.757" stroke="#61D8C5"/>
<path d="M47.1777 440.309C48.3838 441.623 48.5855 442.492 48.6323 444.131M48.6323 444.131C49.0751 445.323 49.4274 445.774 50.1037 446.478M48.6323 444.131C48.1869 444.76 47.8646 445.354 47.6504 445.915M50.1037 446.478C49.663 447.091 49.4347 447.576 49.4033 448.096C49.3394 449.156 50.2286 450.092 51.2679 450.309C51.7867 450.417 52.2902 450.385 52.8861 450.237C53.4272 450.103 53.9525 449.848 54.3022 449.413C54.6559 448.974 54.7419 448.516 54.5216 447.849C54.2986 447.174 53.8023 446.596 53.1494 446.315C52.7596 446.147 52.37 446.077 51.9209 446.105M50.1037 446.478L51.3517 446.185M51.3517 446.185L51.4466 447.547M51.3517 446.185C51.5534 446.143 51.7419 446.116 51.9209 446.105M51.5414 448.909C51.6141 448.411 51.6609 448.133 51.4466 447.547M51.4466 447.547C52.3636 447.826 53.0592 447.635 53.0592 447.635M51.9209 446.105C51.1077 445.551 49.9719 443.678 50.3398 443.239C50.4129 443.152 50.4333 442.968 50.411 442.73M49.2647 440.181C49.858 440.712 50.3417 441.986 50.411 442.73M50.411 442.73C54.5481 441.22 56.7611 441.353 60.5851 442.921M60.5851 442.921C60.7423 441.371 61.0041 440.838 61.7867 440.245M60.5851 442.921C60.4388 444.241 60.0878 444.896 59.1937 445.978M59.1937 445.978C57.82 446.106 57.1756 446.461 56.7957 447.2C56.4167 447.937 56.4327 448.874 56.9024 449.557C57.193 449.979 57.5956 450.227 58.2486 450.353C58.7031 450.441 59.1728 450.397 59.6211 450.282C60.3172 450.103 60.8291 449.882 61.1733 449.4C61.7789 448.551 61.4997 447.28 60.6821 446.633C60.6283 446.59 60.5735 446.551 60.5172 446.513M59.1937 445.978C59.3756 446.027 59.5434 446.076 59.6997 446.128M59.6997 446.128C59.5222 446.763 59.4264 447.239 59.4147 447.762M59.6997 446.128C60.0109 446.233 60.2766 446.352 60.5172 446.513M59.5099 448.972C59.4382 448.502 59.4067 448.121 59.4147 447.762M59.4147 447.762C59.1806 447.94 58.2191 447.787 57.9289 447.507M60.5172 446.513C61.3488 445.803 61.8179 445.292 62.2077 444.258M64.0001 440.118C62.9162 441.561 62.4317 442.365 62.4083 443.288C62.4027 443.508 62.3889 443.73 62.3198 443.94V443.94M62.3198 443.94C65.0227 444.011 66.4159 444.569 67.8273 446.616C68.2485 447.228 68.4641 447.955 68.5089 448.695C68.5818 449.904 68.5791 450.838 68.4953 452.022C68.4562 452.576 68.3157 453.12 68.0732 453.619C67.65 454.49 67.2641 455.122 66.6803 455.825C66.3413 456.233 66.0279 456.668 65.8375 457.163C65.2399 458.718 65.1913 459.978 65.5179 462.223M62.3198 443.94C62.283 444.051 62.2457 444.157 62.2077 444.258M65.5179 462.223C64.8132 460.878 64.4099 460.445 63.6839 459.993M65.5179 462.223C65.4663 463.287 65.3753 463.996 64.7866 464.88C64.3627 465.517 63.7051 466.01 62.9454 466.1C62.212 466.187 61.6986 465.947 61.1812 465.434C60.6576 464.915 60.3495 464.208 60.2815 463.475C60.1977 462.571 60.325 461.87 60.7388 461.117C61.1465 460.376 61.8702 459.745 62.7161 459.758C63.0291 459.763 63.3243 459.846 63.6839 459.993M62.2077 444.258C62.7326 444.724 63.0908 445.244 63.3113 445.787M63.3113 445.787C64.003 447.493 63.338 449.436 62.2077 450.692C61.1228 451.747 59.509 452.464 57.6759 452.751M63.3113 445.787C64.9405 446 65.8199 446.358 66.5606 448.322C66.7214 448.749 66.7938 449.204 66.7953 449.66C66.7982 450.553 66.7333 451.23 66.4997 452.171C66.4386 452.417 66.352 452.657 66.2468 452.888C65.8422 453.776 65.5025 454.417 64.9785 455.047C64.4307 455.707 63.8828 456.398 63.6993 457.235C63.485 458.213 63.5258 458.948 63.6839 459.993M48.6323 443.749C45.3198 444.103 43.8787 444.89 42.8514 447.369C42.6416 447.875 42.561 448.424 42.561 448.972V451.301C42.561 451.868 42.655 452.433 42.853 452.964C43.3889 454.402 43.771 455.164 44.215 455.741C44.517 456.134 44.8398 456.517 45.0449 456.967C45.8314 458.696 45.6959 459.785 45.5967 461.586M45.5967 461.586C46.1882 460.735 46.577 460.352 47.4307 459.929M45.5967 461.586V462.811C45.5967 463.433 45.6914 464.06 45.9761 464.612C46.3881 465.412 46.8581 465.86 47.6361 466.016C48.5217 466.194 49.457 465.83 50.0908 465.186C50.6778 464.59 50.9393 463.826 50.5867 462.113C50.5143 461.761 50.3963 461.417 50.204 461.113C49.6333 460.213 48.9329 459.935 47.4307 459.929M47.6504 445.915C46.7655 448.229 47.7233 449.959 49.4544 451.138C50.732 451.91 52.1162 452.412 53.5019 452.674M47.6504 445.915C45.9642 446.048 45.2093 446.549 44.6109 447.964C44.4036 448.454 44.3318 448.989 44.3318 449.521V450.527C44.3318 451.059 44.4138 451.588 44.5875 452.09C45.147 453.709 45.4207 454.098 46.4188 455.215C47.5572 456.489 47.4307 459.827 47.4307 459.929M57.6759 452.751L57.5766 456.137C57.5586 456.749 57.6481 457.362 57.907 457.917C58.0842 458.296 58.3251 458.762 58.6246 459.229C59.1149 459.992 58.8826 461.388 58.7027 462.146C58.6195 462.497 58.4698 462.826 58.2882 463.137L56.8538 465.599M57.6759 452.751C56.965 452.863 56.2212 452.91 55.4624 452.887M56.8538 465.599C55.8622 466.104 55.2689 466.191 54.0711 465.599M56.8538 465.599L55.4624 462.541M54.0711 465.599L52.4901 462.669C51.9669 461.34 51.8576 460.057 52.1738 459.229C52.3883 458.667 52.708 458.397 53.0372 457.925C53.4076 457.393 53.5019 456.73 53.5019 456.082V452.674M54.0711 465.599L55.4624 462.541M53.5019 452.674C54.1588 452.798 54.816 452.868 55.4624 452.887M55.4624 452.887V462.541" stroke="#61D8C5"/>
<path d="M102.002 74.5864V83.1177H100.877V75.5122H97.8188L97.6665 78.8931C97.6079 80.0259 97.4907 80.8774 97.3149 81.4478C97.1431 82.0181 96.8892 82.438 96.5532 82.7075C96.2173 82.9731 95.7681 83.1099 95.2056 83.1177H94.8364V82.1978L95.0708 82.186C95.4341 82.1587 95.7134 82.0415 95.9087 81.8345C96.104 81.6235 96.2524 81.2896 96.354 80.8325C96.4556 80.3755 96.5278 79.6724 96.5708 78.7231L96.7466 74.5864H102.002ZM106.508 83.2349C105.649 83.2349 104.95 82.9536 104.411 82.3911C103.872 81.8247 103.602 81.0688 103.602 80.1235V79.9243C103.602 79.2954 103.721 78.7349 103.959 78.2427C104.202 77.7466 104.538 77.3599 104.967 77.0825C105.401 76.8013 105.87 76.6606 106.374 76.6606C107.198 76.6606 107.838 76.9321 108.295 77.4751C108.752 78.0181 108.981 78.7954 108.981 79.8071V80.2583H104.686C104.702 80.8833 104.883 81.3892 105.231 81.7759C105.583 82.1587 106.028 82.3501 106.567 82.3501C106.95 82.3501 107.274 82.272 107.54 82.1157C107.805 81.9595 108.038 81.7524 108.237 81.4946L108.899 82.0103C108.368 82.8267 107.571 83.2349 106.508 83.2349ZM106.374 77.5513C105.936 77.5513 105.569 77.7114 105.272 78.0317C104.975 78.3481 104.792 78.7935 104.721 79.3677H107.897V79.2856C107.866 78.7349 107.717 78.3091 107.452 78.0083C107.186 77.7036 106.827 77.5513 106.374 77.5513ZM114.336 77.6743H111.413V83.1177H110.323V76.7778H114.336V77.6743ZM117.254 80.4165H116.463V83.1177H115.374V76.7778H116.463V79.4614H117.172L119.305 76.7778H120.618L118.11 79.8247L120.829 83.1177H119.452L117.254 80.4165ZM125.862 76.7778H126.946V83.1177H125.862V78.4946L122.938 83.1177H121.854V76.7778H122.938V81.4067L125.862 76.7778ZM131.317 83.2349C130.458 83.2349 129.758 82.9536 129.219 82.3911C128.68 81.8247 128.411 81.0688 128.411 80.1235V79.9243C128.411 79.2954 128.53 78.7349 128.768 78.2427C129.01 77.7466 129.346 77.3599 129.776 77.0825C130.209 76.8013 130.678 76.6606 131.182 76.6606C132.006 76.6606 132.647 76.9321 133.104 77.4751C133.561 78.0181 133.79 78.7954 133.79 79.8071V80.2583H129.495C129.51 80.8833 129.692 81.3892 130.04 81.7759C130.391 82.1587 130.836 82.3501 131.375 82.3501C131.758 82.3501 132.083 82.272 132.348 82.1157C132.614 81.9595 132.846 81.7524 133.045 81.4946L133.708 82.0103C133.176 82.8267 132.379 83.2349 131.317 83.2349ZM131.182 77.5513C130.745 77.5513 130.377 77.7114 130.081 78.0317C129.784 78.3481 129.6 78.7935 129.53 79.3677H132.706V79.2856C132.674 78.7349 132.526 78.3091 132.26 78.0083C131.995 77.7036 131.635 77.5513 131.182 77.5513Z" fill="black"/>
<path d="M102.067 159.118H100.936V151.512H96.729V159.118H95.604V150.586H102.067V159.118ZM106.579 159.235C105.719 159.235 105.02 158.954 104.481 158.391C103.942 157.825 103.672 157.069 103.672 156.124V155.924C103.672 155.295 103.792 154.735 104.03 154.243C104.272 153.747 104.608 153.36 105.038 153.083C105.471 152.801 105.94 152.661 106.444 152.661C107.268 152.661 107.909 152.932 108.366 153.475C108.823 154.018 109.051 154.795 109.051 155.807V156.258H104.756C104.772 156.883 104.954 157.389 105.301 157.776C105.653 158.159 106.098 158.35 106.637 158.35C107.02 158.35 107.344 158.272 107.61 158.116C107.875 157.959 108.108 157.752 108.307 157.495L108.969 158.01C108.438 158.827 107.641 159.235 106.579 159.235ZM106.444 153.551C106.006 153.551 105.639 153.711 105.342 154.032C105.045 154.348 104.862 154.793 104.792 155.368H107.967V155.286C107.936 154.735 107.788 154.309 107.522 154.008C107.256 153.704 106.897 153.551 106.444 153.551ZM115.098 159.118H114.008V156.821C113.532 156.946 113.043 157.008 112.543 157.008C111.75 157.008 111.145 156.805 110.727 156.399C110.313 155.993 110.102 155.415 110.094 154.665V152.772H111.178V154.7C111.198 155.645 111.653 156.118 112.543 156.118C113.043 156.118 113.532 156.055 114.008 155.93V152.778H115.098V159.118ZM119.469 159.235C118.61 159.235 117.911 158.954 117.372 158.391C116.833 157.825 116.563 157.069 116.563 156.124V155.924C116.563 155.295 116.682 154.735 116.92 154.243C117.163 153.747 117.499 153.36 117.928 153.083C118.362 152.801 118.831 152.661 119.334 152.661C120.159 152.661 120.799 152.932 121.256 153.475C121.713 154.018 121.942 154.795 121.942 155.807V156.258H117.647C117.663 156.883 117.844 157.389 118.192 157.776C118.543 158.159 118.989 158.35 119.528 158.35C119.911 158.35 120.235 158.272 120.5 158.116C120.766 157.959 120.999 157.752 121.198 157.495L121.86 158.01C121.329 158.827 120.532 159.235 119.469 159.235ZM119.334 153.551C118.897 153.551 118.53 153.711 118.233 154.032C117.936 154.348 117.752 154.793 117.682 155.368H120.858V155.286C120.827 154.735 120.678 154.309 120.413 154.008C120.147 153.704 119.788 153.551 119.334 153.551ZM128.381 159.118H127.297V156.411H124.385V159.118H123.295V152.778H124.385V155.526H127.297V152.778H128.381V159.118ZM131.311 154.963H132.958C133.676 154.971 134.245 155.159 134.663 155.526C135.081 155.893 135.29 156.391 135.29 157.02C135.29 157.653 135.075 158.161 134.645 158.543C134.215 158.926 133.637 159.118 132.911 159.118H130.227V152.778H131.311V154.963ZM131.311 155.848V158.233H132.922C133.329 158.233 133.643 158.129 133.866 157.922C134.088 157.711 134.2 157.424 134.2 157.061C134.2 156.709 134.09 156.422 133.872 156.2C133.657 155.973 133.354 155.856 132.963 155.848H131.311Z" fill="black"/>
<path d="M97.7661 225.286H96.729V229.118H95.604V220.586H96.729V224.348H97.6079L100.59 220.586H101.991L98.7329 224.723L102.231 229.118H100.854L97.7661 225.286ZM107.053 222.778H108.137V229.118H107.053V224.495L104.129 229.118H103.045V222.778H104.129V227.407L107.053 222.778ZM111.061 222.778V228.233H113.381V222.778H114.465V228.233H116.78V222.778H117.87V229.118H109.971V222.778H111.061ZM122.211 229.235C121.352 229.235 120.653 228.954 120.114 228.391C119.575 227.825 119.305 227.069 119.305 226.124V225.924C119.305 225.295 119.424 224.735 119.663 224.243C119.905 223.747 120.241 223.36 120.67 223.083C121.104 222.801 121.573 222.661 122.077 222.661C122.901 222.661 123.542 222.932 123.999 223.475C124.456 224.018 124.684 224.795 124.684 225.807V226.258H120.389C120.405 226.883 120.586 227.389 120.934 227.776C121.286 228.159 121.731 228.35 122.27 228.35C122.653 228.35 122.977 228.272 123.243 228.116C123.508 227.959 123.741 227.752 123.94 227.495L124.602 228.01C124.071 228.827 123.274 229.235 122.211 229.235ZM122.077 223.551C121.639 223.551 121.272 223.711 120.975 224.032C120.678 224.348 120.495 224.793 120.424 225.368H123.6V225.286C123.569 224.735 123.42 224.309 123.155 224.008C122.889 223.704 122.53 223.551 122.077 223.551ZM130.731 229.118H129.641V226.821C129.165 226.946 128.676 227.008 128.176 227.008C127.383 227.008 126.778 226.805 126.36 226.399C125.946 225.993 125.735 225.415 125.727 224.665V222.772H126.811V224.7C126.831 225.645 127.286 226.118 128.176 226.118C128.676 226.118 129.165 226.055 129.641 225.93V222.778H130.731V229.118ZM137.651 229.118H136.567V226.411H133.655V229.118H132.565V222.778H133.655V225.526H136.567V222.778H137.651V229.118ZM143.499 222.778H144.583V229.118H143.499V224.495L140.575 229.118H139.491V222.778H140.575V227.407L143.499 222.778ZM148.297 226.417H147.506V229.118H146.417V222.778H147.506V225.461H148.215L150.348 222.778H151.661L149.153 225.825L151.872 229.118H150.495L148.297 226.417Z" fill="black"/>
<path d="M97.0044 295.586L99.7935 302.547L102.583 295.586H104.042V304.118H102.917V300.795L103.022 297.209L100.221 304.118H99.3599L96.5649 297.227L96.6763 300.795V304.118H95.5513V295.586H97.0044ZM105.571 300.889C105.571 300.268 105.692 299.709 105.934 299.213C106.18 298.717 106.52 298.334 106.954 298.065C107.391 297.795 107.889 297.661 108.448 297.661C109.311 297.661 110.008 297.959 110.54 298.557C111.075 299.155 111.342 299.95 111.342 300.942V301.018C111.342 301.635 111.223 302.19 110.985 302.682C110.75 303.17 110.413 303.551 109.971 303.825C109.534 304.098 109.03 304.235 108.459 304.235C107.6 304.235 106.903 303.936 106.368 303.338C105.836 302.741 105.571 301.95 105.571 300.965V300.889ZM106.661 301.018C106.661 301.721 106.823 302.286 107.147 302.711C107.475 303.137 107.913 303.35 108.459 303.35C109.01 303.35 109.448 303.135 109.772 302.706C110.096 302.272 110.258 301.667 110.258 300.889C110.258 300.194 110.092 299.631 109.76 299.202C109.432 298.768 108.995 298.551 108.448 298.551C107.913 298.551 107.481 298.764 107.153 299.19C106.825 299.616 106.661 300.225 106.661 301.018ZM117.805 297.778V304.118H116.715V298.674H114.559L114.43 301.047C114.36 302.137 114.176 302.917 113.879 303.385C113.586 303.854 113.12 304.098 112.479 304.118H112.045V303.163L112.356 303.139C112.708 303.1 112.959 302.897 113.112 302.53C113.264 302.163 113.362 301.483 113.405 300.491L113.522 297.778H117.805ZM119.258 300.889C119.258 300.268 119.379 299.709 119.622 299.213C119.868 298.717 120.208 298.334 120.641 298.065C121.079 297.795 121.577 297.661 122.135 297.661C122.999 297.661 123.696 297.959 124.227 298.557C124.762 299.155 125.03 299.95 125.03 300.942V301.018C125.03 301.635 124.911 302.19 124.672 302.682C124.438 303.17 124.1 303.551 123.659 303.825C123.221 304.098 122.717 304.235 122.147 304.235C121.288 304.235 120.59 303.936 120.055 303.338C119.524 302.741 119.258 301.95 119.258 300.965V300.889ZM120.348 301.018C120.348 301.721 120.51 302.286 120.834 302.711C121.163 303.137 121.6 303.35 122.147 303.35C122.698 303.35 123.135 303.135 123.459 302.706C123.784 302.272 123.946 301.667 123.946 300.889C123.946 300.194 123.78 299.631 123.448 299.202C123.12 298.768 122.682 298.551 122.135 298.551C121.6 298.551 121.168 298.764 120.84 299.19C120.512 299.616 120.348 300.225 120.348 301.018ZM131.176 304.118H130.086V301.821C129.61 301.946 129.122 302.008 128.622 302.008C127.829 302.008 127.223 301.805 126.805 301.399C126.391 300.993 126.18 300.415 126.172 299.665V297.772H127.256V299.7C127.276 300.645 127.731 301.118 128.622 301.118C129.122 301.118 129.61 301.055 130.086 300.93V297.778H131.176V304.118ZM138.096 304.118H137.012V301.411H134.1V304.118H133.01V297.778H134.1V300.526H137.012V297.778H138.096V304.118ZM143.756 304.118C143.694 303.993 143.643 303.77 143.604 303.45C143.1 303.973 142.499 304.235 141.799 304.235C141.174 304.235 140.661 304.059 140.258 303.708C139.86 303.352 139.661 302.903 139.661 302.36C139.661 301.7 139.911 301.188 140.411 300.825C140.915 300.458 141.622 300.274 142.532 300.274H143.586V299.776C143.586 299.397 143.473 299.096 143.247 298.874C143.02 298.647 142.686 298.534 142.245 298.534C141.858 298.534 141.534 298.631 141.272 298.827C141.01 299.022 140.879 299.258 140.879 299.536H139.79C139.79 299.219 139.901 298.915 140.124 298.622C140.35 298.325 140.655 298.09 141.038 297.918C141.424 297.747 141.848 297.661 142.309 297.661C143.04 297.661 143.612 297.844 144.026 298.211C144.44 298.575 144.655 299.077 144.67 299.717V302.635C144.67 303.217 144.745 303.68 144.893 304.024V304.118H143.756ZM141.958 303.292C142.297 303.292 142.62 303.204 142.924 303.028C143.229 302.852 143.45 302.624 143.586 302.342V301.042H142.737C141.409 301.042 140.745 301.43 140.745 302.208C140.745 302.547 140.858 302.813 141.084 303.004C141.311 303.196 141.602 303.292 141.958 303.292ZM151.215 297.778V304.118H150.125V301.651H148.491L146.997 304.118H145.825L147.418 301.487C147.012 301.338 146.7 301.11 146.481 300.801C146.266 300.489 146.159 300.125 146.159 299.711C146.159 299.133 146.375 298.668 146.809 298.317C147.243 297.961 147.823 297.782 148.549 297.778H151.215ZM147.249 299.723C147.249 300.032 147.354 300.282 147.565 300.473C147.776 300.661 148.055 300.756 148.403 300.76H150.125V298.657H148.567C148.165 298.657 147.844 298.756 147.606 298.956C147.368 299.151 147.249 299.407 147.249 299.723ZM160.989 301.364H160.227V304.118H159.143V301.364H158.381L156.606 304.118H155.235L157.502 300.836L155.452 297.778H156.764L158.399 300.403H159.143V297.778H160.227V300.403H160.965L162.612 297.778H163.924L161.868 300.842L164.135 304.118H162.764L160.989 301.364ZM167.633 304.235C166.774 304.235 166.075 303.954 165.536 303.391C164.997 302.825 164.727 302.069 164.727 301.124V300.924C164.727 300.295 164.846 299.735 165.084 299.243C165.327 298.747 165.663 298.36 166.092 298.083C166.526 297.801 166.995 297.661 167.499 297.661C168.323 297.661 168.963 297.932 169.42 298.475C169.877 299.018 170.106 299.795 170.106 300.807V301.258H165.811C165.827 301.883 166.008 302.389 166.356 302.776C166.708 303.159 167.153 303.35 167.692 303.35C168.075 303.35 168.399 303.272 168.665 303.116C168.93 302.959 169.163 302.752 169.362 302.495L170.024 303.01C169.493 303.827 168.696 304.235 167.633 304.235ZM167.499 298.551C167.061 298.551 166.694 298.711 166.397 299.032C166.1 299.348 165.917 299.793 165.846 300.368H169.022V300.286C168.991 299.735 168.842 299.309 168.577 299.008C168.311 298.704 167.952 298.551 167.499 298.551ZM176.563 297.778V304.118H175.473V298.674H173.317L173.188 301.047C173.118 302.137 172.934 302.917 172.637 303.385C172.344 303.854 171.877 304.098 171.237 304.118H170.803V303.163L171.114 303.139C171.465 303.1 171.717 302.897 171.87 302.53C172.022 302.163 172.12 301.483 172.163 300.491L172.28 297.778H176.563ZM180.934 304.235C180.075 304.235 179.375 303.954 178.836 303.391C178.297 302.825 178.028 302.069 178.028 301.124V300.924C178.028 300.295 178.147 299.735 178.385 299.243C178.627 298.747 178.963 298.36 179.393 298.083C179.827 297.801 180.295 297.661 180.799 297.661C181.624 297.661 182.264 297.932 182.721 298.475C183.178 299.018 183.407 299.795 183.407 300.807V301.258H179.112C179.127 301.883 179.309 302.389 179.657 302.776C180.008 303.159 180.454 303.35 180.993 303.35C181.375 303.35 181.7 303.272 181.965 303.116C182.231 302.959 182.463 302.752 182.663 302.495L183.325 303.01C182.793 303.827 181.997 304.235 180.934 304.235ZM180.799 298.551C180.362 298.551 179.995 298.711 179.698 299.032C179.401 299.348 179.217 299.793 179.147 300.368H182.323V300.286C182.292 299.735 182.143 299.309 181.877 299.008C181.612 298.704 181.252 298.551 180.799 298.551ZM188.153 299.512C188.153 299.215 188.04 298.981 187.813 298.809C187.586 298.633 187.276 298.545 186.881 298.545C186.499 298.545 186.178 298.645 185.92 298.844C185.667 299.043 185.54 299.278 185.54 299.547H184.461C184.461 298.997 184.692 298.545 185.153 298.194C185.614 297.842 186.19 297.667 186.881 297.667C187.624 297.667 188.202 297.827 188.616 298.147C189.03 298.463 189.237 298.917 189.237 299.506C189.237 299.792 189.151 300.053 188.979 300.292C188.807 300.53 188.563 300.719 188.247 300.86C188.985 301.11 189.354 301.602 189.354 302.336C189.354 302.918 189.129 303.379 188.68 303.719C188.231 304.059 187.631 304.229 186.881 304.229C186.151 304.229 185.547 304.051 185.071 303.696C184.598 303.336 184.362 302.852 184.362 302.243H185.44C185.44 302.551 185.577 302.817 185.85 303.04C186.127 303.258 186.471 303.368 186.881 303.368C187.295 303.368 187.629 303.272 187.883 303.081C188.137 302.889 188.264 302.641 188.264 302.336C188.264 301.981 188.157 301.727 187.942 301.575C187.731 301.418 187.401 301.34 186.952 301.34H185.868V300.426H187.045C187.784 300.407 188.153 300.102 188.153 299.512ZM194.674 304.118C194.612 303.993 194.561 303.77 194.522 303.45C194.018 303.973 193.417 304.235 192.717 304.235C192.092 304.235 191.579 304.059 191.176 303.708C190.778 303.352 190.579 302.903 190.579 302.36C190.579 301.7 190.829 301.188 191.329 300.825C191.833 300.458 192.54 300.274 193.45 300.274H194.504V299.776C194.504 299.397 194.391 299.096 194.165 298.874C193.938 298.647 193.604 298.534 193.163 298.534C192.776 298.534 192.452 298.631 192.19 298.827C191.928 299.022 191.797 299.258 191.797 299.536H190.708C190.708 299.219 190.819 298.915 191.042 298.622C191.268 298.325 191.573 298.09 191.956 297.918C192.342 297.747 192.766 297.661 193.227 297.661C193.958 297.661 194.53 297.844 194.944 298.211C195.358 298.575 195.573 299.077 195.588 299.717V302.635C195.588 303.217 195.663 303.68 195.811 304.024V304.118H194.674ZM192.875 303.292C193.215 303.292 193.538 303.204 193.842 303.028C194.147 302.852 194.368 302.624 194.504 302.342V301.042H193.655C192.327 301.042 191.663 301.43 191.663 302.208C191.663 302.547 191.776 302.813 192.002 303.004C192.229 303.196 192.52 303.292 192.875 303.292Z" fill="black"/>
<path d="M96.7231 370.586V378.198H99.6587V370.586H100.778V378.198H103.696V370.586H104.821V379.118H95.5923V370.586H96.7231ZM109.309 379.235C108.45 379.235 107.75 378.954 107.211 378.391C106.672 377.825 106.403 377.069 106.403 376.124V375.924C106.403 375.295 106.522 374.735 106.76 374.243C107.002 373.747 107.338 373.36 107.768 373.083C108.202 372.801 108.67 372.661 109.174 372.661C109.999 372.661 110.639 372.932 111.096 373.475C111.553 374.018 111.782 374.795 111.782 375.807V376.258H107.487C107.502 376.883 107.684 377.389 108.032 377.776C108.383 378.159 108.829 378.35 109.368 378.35C109.75 378.35 110.075 378.272 110.34 378.116C110.606 377.959 110.838 377.752 111.038 377.495L111.7 378.01C111.168 378.827 110.372 379.235 109.309 379.235ZM109.174 373.551C108.737 373.551 108.37 373.711 108.073 374.032C107.776 374.348 107.592 374.793 107.522 375.368H110.698V375.286C110.667 374.735 110.518 374.309 110.252 374.008C109.987 373.704 109.627 373.551 109.174 373.551ZM117.143 372.778H118.227V379.118H117.143V374.495L114.219 379.118H113.135V372.778H114.219V377.407L117.143 372.778ZM117.436 370.469C117.436 370.942 117.274 371.323 116.95 371.612C116.629 371.897 116.208 372.04 115.684 372.04C115.161 372.04 114.737 371.895 114.413 371.606C114.088 371.317 113.926 370.938 113.926 370.469H114.811C114.811 370.743 114.885 370.958 115.034 371.114C115.182 371.266 115.399 371.342 115.684 371.342C115.958 371.342 116.17 371.266 116.323 371.114C116.479 370.961 116.557 370.747 116.557 370.469H117.436ZM121.942 376.417H121.151V379.118H120.061V372.778H121.151V375.461H121.86L123.993 372.778H125.305L122.797 375.825L125.516 379.118H124.139L121.942 376.417ZM130.362 379.118C130.299 378.993 130.249 378.77 130.209 378.45C129.706 378.973 129.104 379.235 128.405 379.235C127.78 379.235 127.266 379.059 126.864 378.708C126.465 378.352 126.266 377.903 126.266 377.36C126.266 376.7 126.516 376.188 127.016 375.825C127.52 375.458 128.227 375.274 129.137 375.274H130.192V374.776C130.192 374.397 130.079 374.096 129.852 373.874C129.625 373.647 129.292 373.534 128.85 373.534C128.463 373.534 128.139 373.631 127.877 373.827C127.616 374.022 127.485 374.258 127.485 374.536H126.395C126.395 374.219 126.506 373.915 126.729 373.622C126.956 373.325 127.26 373.09 127.643 372.918C128.03 372.747 128.454 372.661 128.915 372.661C129.645 372.661 130.217 372.844 130.631 373.211C131.045 373.575 131.26 374.077 131.276 374.717V377.635C131.276 378.217 131.35 378.68 131.499 379.024V379.118H130.362ZM128.563 378.292C128.903 378.292 129.225 378.204 129.53 378.028C129.834 377.852 130.055 377.624 130.192 377.342V376.042H129.342C128.014 376.042 127.35 376.43 127.35 377.208C127.35 377.547 127.463 377.813 127.69 378.004C127.917 378.196 128.208 378.292 128.563 378.292ZM139.602 377.682L141.758 372.778H143.112V379.118H142.028V374.506L139.977 379.118H139.227L137.135 374.407V379.118H136.051V372.778H137.458L139.602 377.682ZM148.772 379.118C148.709 378.993 148.659 378.77 148.62 378.45C148.116 378.973 147.514 379.235 146.815 379.235C146.19 379.235 145.676 379.059 145.274 378.708C144.875 378.352 144.676 377.903 144.676 377.36C144.676 376.7 144.926 376.188 145.426 375.825C145.93 375.458 146.637 375.274 147.547 375.274H148.602V374.776C148.602 374.397 148.489 374.096 148.262 373.874C148.036 373.647 147.702 373.534 147.26 373.534C146.874 373.534 146.549 373.631 146.288 373.827C146.026 374.022 145.895 374.258 145.895 374.536H144.805C144.805 374.219 144.917 373.915 145.139 373.622C145.366 373.325 145.67 373.09 146.053 372.918C146.44 372.747 146.864 372.661 147.325 372.661C148.055 372.661 148.627 372.844 149.042 373.211C149.456 373.575 149.67 374.077 149.686 374.717V377.635C149.686 378.217 149.76 378.68 149.909 379.024V379.118H148.772ZM146.973 378.292C147.313 378.292 147.635 378.204 147.94 378.028C148.245 377.852 148.465 377.624 148.602 377.342V376.042H147.752C146.424 376.042 145.76 376.43 145.76 377.208C145.76 377.547 145.874 377.813 146.1 378.004C146.327 378.196 146.618 378.292 146.973 378.292ZM156.002 373.657H153.875V379.118H152.792V373.657H150.706V372.778H156.002V373.657ZM159.032 376.417H158.241V379.118H157.151V372.778H158.241V375.461H158.95L161.083 372.778H162.395L159.887 375.825L162.606 379.118H161.229L159.032 376.417ZM167.639 372.778H168.723V379.118H167.639V374.495L164.715 379.118H163.631V372.778H164.715V377.407L167.639 372.778Z" fill="black"/>
<path d="M102.176 444.118H101.045V436.512H96.8384V444.118H95.7134V435.586H102.176V444.118ZM109.413 441.018C109.413 441.983 109.192 442.76 108.75 443.35C108.309 443.94 107.711 444.235 106.958 444.235C106.188 444.235 105.583 443.991 105.141 443.502V446.555H104.057V437.778H105.047L105.1 438.481C105.542 437.934 106.155 437.661 106.94 437.661C107.702 437.661 108.303 437.948 108.745 438.522C109.19 439.096 109.413 439.895 109.413 440.918V441.018ZM108.329 440.895C108.329 440.18 108.176 439.616 107.872 439.202C107.567 438.788 107.149 438.581 106.618 438.581C105.961 438.581 105.469 438.872 105.141 439.454V442.483C105.465 443.061 105.961 443.35 106.629 443.35C107.149 443.35 107.561 443.145 107.866 442.735C108.174 442.321 108.329 441.708 108.329 440.895ZM113.426 444.235C112.567 444.235 111.868 443.954 111.329 443.391C110.79 442.825 110.52 442.069 110.52 441.124V440.924C110.52 440.295 110.639 439.735 110.877 439.243C111.12 438.747 111.456 438.36 111.885 438.083C112.319 437.801 112.788 437.661 113.292 437.661C114.116 437.661 114.756 437.932 115.213 438.475C115.67 439.018 115.899 439.795 115.899 440.807V441.258H111.604C111.62 441.883 111.801 442.389 112.149 442.776C112.5 443.159 112.946 443.35 113.485 443.35C113.868 443.35 114.192 443.272 114.458 443.116C114.723 442.959 114.956 442.752 115.155 442.495L115.817 443.01C115.286 443.827 114.489 444.235 113.426 444.235ZM113.292 438.551C112.854 438.551 112.487 438.711 112.19 439.032C111.893 439.348 111.709 439.793 111.639 440.368H114.815V440.286C114.784 439.735 114.635 439.309 114.37 439.008C114.104 438.704 113.745 438.551 113.292 438.551ZM117.106 443.233L117.481 442.77C117.903 442.223 118.143 441.403 118.202 440.309L118.301 437.778H122.385V443.233H123.2V445.981H122.116V444.118H117.692V445.981H116.608L116.614 443.233H117.106ZM118.389 443.233H121.301V438.78H119.35L119.286 440.292C119.219 441.553 118.92 442.534 118.389 443.233ZM126.944 443.35C127.331 443.35 127.668 443.233 127.958 442.999C128.247 442.764 128.407 442.471 128.438 442.12H129.463C129.444 442.483 129.319 442.829 129.088 443.157C128.858 443.485 128.549 443.747 128.163 443.942C127.78 444.137 127.374 444.235 126.944 444.235C126.081 444.235 125.393 443.948 124.881 443.374C124.374 442.795 124.12 442.006 124.12 441.006V440.825C124.12 440.208 124.233 439.659 124.459 439.178C124.686 438.698 125.01 438.325 125.432 438.059C125.858 437.793 126.36 437.661 126.938 437.661C127.649 437.661 128.239 437.874 128.708 438.299C129.18 438.725 129.432 439.278 129.463 439.958H128.438C128.407 439.547 128.25 439.211 127.969 438.95C127.692 438.684 127.348 438.551 126.938 438.551C126.387 438.551 125.959 438.75 125.655 439.149C125.354 439.543 125.204 440.116 125.204 440.866V441.071C125.204 441.801 125.354 442.364 125.655 442.758C125.956 443.153 126.385 443.35 126.944 443.35ZM135.393 438.657H133.266V444.118H132.182V438.657H130.096V437.778H135.393V438.657ZM140.268 444.118C140.206 443.993 140.155 443.77 140.116 443.45C139.612 443.973 139.01 444.235 138.311 444.235C137.686 444.235 137.172 444.059 136.77 443.708C136.372 443.352 136.172 442.903 136.172 442.36C136.172 441.7 136.422 441.188 136.922 440.825C137.426 440.458 138.133 440.274 139.043 440.274H140.098V439.776C140.098 439.397 139.985 439.096 139.758 438.874C139.532 438.647 139.198 438.534 138.756 438.534C138.37 438.534 138.045 438.631 137.784 438.827C137.522 439.022 137.391 439.258 137.391 439.536H136.301C136.301 439.219 136.413 438.915 136.635 438.622C136.862 438.325 137.167 438.09 137.549 437.918C137.936 437.747 138.36 437.661 138.821 437.661C139.551 437.661 140.124 437.844 140.538 438.211C140.952 438.575 141.167 439.077 141.182 439.717V442.635C141.182 443.217 141.256 443.68 141.405 444.024V444.118H140.268ZM138.469 443.292C138.809 443.292 139.131 443.204 139.436 443.028C139.741 442.852 139.961 442.624 140.098 442.342V441.042H139.249C137.92 441.042 137.256 441.43 137.256 442.208C137.256 442.547 137.37 442.813 137.596 443.004C137.823 443.196 138.114 443.292 138.469 443.292ZM147.499 438.657H145.372V444.118H144.288V438.657H142.202V437.778H147.499V438.657ZM150.715 444.235C149.856 444.235 149.157 443.954 148.618 443.391C148.079 442.825 147.809 442.069 147.809 441.124V440.924C147.809 440.295 147.928 439.735 148.167 439.243C148.409 438.747 148.745 438.36 149.174 438.083C149.608 437.801 150.077 437.661 150.581 437.661C151.405 437.661 152.045 437.932 152.502 438.475C152.959 439.018 153.188 439.795 153.188 440.807V441.258H148.893C148.909 441.883 149.09 442.389 149.438 442.776C149.79 443.159 150.235 443.35 150.774 443.35C151.157 443.35 151.481 443.272 151.747 443.116C152.012 442.959 152.245 442.752 152.444 442.495L153.106 443.01C152.575 443.827 151.778 444.235 150.715 444.235ZM150.581 438.551C150.143 438.551 149.776 438.711 149.479 439.032C149.182 439.348 148.999 439.793 148.928 440.368H152.104V440.286C152.073 439.735 151.924 439.309 151.659 439.008C151.393 438.704 151.034 438.551 150.581 438.551ZM159.645 437.778V444.118H158.555V438.674H156.399L156.27 441.047C156.2 442.137 156.016 442.917 155.719 443.385C155.426 443.854 154.959 444.098 154.319 444.118H153.885V443.163L154.196 443.139C154.547 443.1 154.799 442.897 154.952 442.53C155.104 442.163 155.202 441.483 155.245 440.491L155.362 437.778H159.645ZM162.569 439.963H164.215C164.934 439.971 165.502 440.159 165.92 440.526C166.338 440.893 166.547 441.391 166.547 442.02C166.547 442.653 166.333 443.161 165.903 443.543C165.473 443.926 164.895 444.118 164.168 444.118H161.485V437.778H162.569V439.963ZM162.569 440.848V443.233H164.18C164.586 443.233 164.901 443.129 165.124 442.922C165.346 442.711 165.458 442.424 165.458 442.061C165.458 441.709 165.348 441.422 165.129 441.2C164.915 440.973 164.612 440.856 164.221 440.848H162.569ZM173.081 444.118H171.997V441.411H169.084V444.118H167.995V437.778H169.084V440.526H171.997V437.778H173.081V444.118ZM178.741 444.118C178.678 443.993 178.627 443.77 178.588 443.45C178.084 443.973 177.483 444.235 176.784 444.235C176.159 444.235 175.645 444.059 175.243 443.708C174.844 443.352 174.645 442.903 174.645 442.36C174.645 441.7 174.895 441.188 175.395 440.825C175.899 440.458 176.606 440.274 177.516 440.274H178.571V439.776C178.571 439.397 178.458 439.096 178.231 438.874C178.004 438.647 177.67 438.534 177.229 438.534C176.842 438.534 176.518 438.631 176.256 438.827C175.995 439.022 175.864 439.258 175.864 439.536H174.774C174.774 439.219 174.885 438.915 175.108 438.622C175.334 438.325 175.639 438.09 176.022 437.918C176.409 437.747 176.833 437.661 177.293 437.661C178.024 437.661 178.596 437.844 179.01 438.211C179.424 438.575 179.639 439.077 179.655 439.717V442.635C179.655 443.217 179.729 443.68 179.877 444.024V444.118H178.741ZM176.942 443.292C177.282 443.292 177.604 443.204 177.909 443.028C178.213 442.852 178.434 442.624 178.571 442.342V441.042H177.721C176.393 441.042 175.729 441.43 175.729 442.208C175.729 442.547 175.842 442.813 176.069 443.004C176.295 443.196 176.586 443.292 176.942 443.292ZM186.2 437.778V444.118H185.11V441.651H183.475L181.981 444.118H180.809L182.403 441.487C181.997 441.338 181.684 441.11 181.465 440.801C181.25 440.489 181.143 440.125 181.143 439.711C181.143 439.133 181.36 438.668 181.793 438.317C182.227 437.961 182.807 437.782 183.534 437.778H186.2ZM182.233 439.723C182.233 440.032 182.338 440.282 182.549 440.473C182.76 440.661 183.04 440.756 183.387 440.76H185.11V438.657H183.551C183.149 438.657 182.829 438.756 182.59 438.956C182.352 439.151 182.233 439.407 182.233 439.723ZM195.973 441.364H195.211V444.118H194.127V441.364H193.366L191.59 444.118H190.219L192.487 440.836L190.436 437.778H191.749L193.383 440.403H194.127V437.778H195.211V440.403H195.95L197.596 437.778H198.909L196.852 440.842L199.12 444.118H197.749L195.973 441.364ZM202.618 444.235C201.758 444.235 201.059 443.954 200.52 443.391C199.981 442.825 199.711 442.069 199.711 441.124V440.924C199.711 440.295 199.831 439.735 200.069 439.243C200.311 438.747 200.647 438.36 201.077 438.083C201.51 437.801 201.979 437.661 202.483 437.661C203.307 437.661 203.948 437.932 204.405 438.475C204.862 439.018 205.09 439.795 205.09 440.807V441.258H200.795C200.811 441.883 200.993 442.389 201.34 442.776C201.692 443.159 202.137 443.35 202.676 443.35C203.059 443.35 203.383 443.272 203.649 443.116C203.915 442.959 204.147 442.752 204.346 442.495L205.008 443.01C204.477 443.827 203.68 444.235 202.618 444.235ZM202.483 438.551C202.045 438.551 201.678 438.711 201.381 439.032C201.084 439.348 200.901 439.793 200.831 440.368H204.006V440.286C203.975 439.735 203.827 439.309 203.561 439.008C203.295 438.704 202.936 438.551 202.483 438.551ZM211.547 437.778V444.118H210.458V438.674H208.301L208.172 441.047C208.102 442.137 207.918 442.917 207.622 443.385C207.329 443.854 206.862 444.098 206.221 444.118H205.788V443.163L206.098 443.139C206.45 443.1 206.702 442.897 206.854 442.53C207.006 442.163 207.104 441.483 207.147 440.491L207.264 437.778H211.547ZM215.918 444.235C215.059 444.235 214.36 443.954 213.821 443.391C213.282 442.825 213.012 442.069 213.012 441.124V440.924C213.012 440.295 213.131 439.735 213.37 439.243C213.612 438.747 213.948 438.36 214.377 438.083C214.811 437.801 215.28 437.661 215.784 437.661C216.608 437.661 217.249 437.932 217.706 438.475C218.163 439.018 218.391 439.795 218.391 440.807V441.258H214.096C214.112 441.883 214.293 442.389 214.641 442.776C214.993 443.159 215.438 443.35 215.977 443.35C216.36 443.35 216.684 443.272 216.95 443.116C217.215 442.959 217.448 442.752 217.647 442.495L218.309 443.01C217.778 443.827 216.981 444.235 215.918 444.235ZM215.784 438.551C215.346 438.551 214.979 438.711 214.682 439.032C214.385 439.348 214.202 439.793 214.131 440.368H217.307V440.286C217.276 439.735 217.127 439.309 216.862 439.008C216.596 438.704 216.237 438.551 215.784 438.551ZM223.137 439.512C223.137 439.215 223.024 438.981 222.797 438.809C222.571 438.633 222.26 438.545 221.866 438.545C221.483 438.545 221.163 438.645 220.905 438.844C220.651 439.043 220.524 439.278 220.524 439.547H219.446C219.446 438.997 219.676 438.545 220.137 438.194C220.598 437.842 221.174 437.667 221.866 437.667C222.608 437.667 223.186 437.827 223.6 438.147C224.014 438.463 224.221 438.917 224.221 439.506C224.221 439.792 224.135 440.053 223.963 440.292C223.792 440.53 223.547 440.719 223.231 440.86C223.969 441.11 224.338 441.602 224.338 442.336C224.338 442.918 224.114 443.379 223.665 443.719C223.215 444.059 222.616 444.229 221.866 444.229C221.135 444.229 220.532 444.051 220.055 443.696C219.583 443.336 219.346 442.852 219.346 442.243H220.424C220.424 442.551 220.561 442.817 220.834 443.04C221.112 443.258 221.456 443.368 221.866 443.368C222.28 443.368 222.614 443.272 222.868 443.081C223.122 442.889 223.249 442.641 223.249 442.336C223.249 441.981 223.141 441.727 222.926 441.575C222.715 441.418 222.385 441.34 221.936 441.34H220.852V440.426H222.03C222.768 440.407 223.137 440.102 223.137 439.512ZM229.659 444.118C229.596 443.993 229.545 443.77 229.506 443.45C229.002 443.973 228.401 444.235 227.702 444.235C227.077 444.235 226.563 444.059 226.161 443.708C225.762 443.352 225.563 442.903 225.563 442.36C225.563 441.7 225.813 441.188 226.313 440.825C226.817 440.458 227.524 440.274 228.434 440.274H229.489V439.776C229.489 439.397 229.375 439.096 229.149 438.874C228.922 438.647 228.588 438.534 228.147 438.534C227.76 438.534 227.436 438.631 227.174 438.827C226.913 439.022 226.782 439.258 226.782 439.536H225.692C225.692 439.219 225.803 438.915 226.026 438.622C226.252 438.325 226.557 438.09 226.94 437.918C227.327 437.747 227.75 437.661 228.211 437.661C228.942 437.661 229.514 437.844 229.928 438.211C230.342 438.575 230.557 439.077 230.573 439.717V442.635C230.573 443.217 230.647 443.68 230.795 444.024V444.118H229.659ZM227.86 443.292C228.2 443.292 228.522 443.204 228.827 443.028C229.131 442.852 229.352 442.624 229.489 442.342V441.042H228.639C227.311 441.042 226.647 441.43 226.647 442.208C226.647 442.547 226.76 442.813 226.987 443.004C227.213 443.196 227.504 443.292 227.86 443.292Z" fill="black"/>
<path d="M100.066 102.118H99.0728V97.1279H96.3979V102.118H95.3989V96.3062H100.066V102.118ZM104.073 102.225C103.285 102.225 102.645 101.967 102.15 101.452C101.656 100.932 101.409 100.24 101.409 99.373V99.1904C101.409 98.6139 101.518 98.1001 101.737 97.6489C101.959 97.1942 102.267 96.8397 102.661 96.5854C103.058 96.3276 103.488 96.1987 103.95 96.1987C104.705 96.1987 105.292 96.4476 105.711 96.9453C106.13 97.443 106.34 98.1556 106.34 99.083V99.4966H102.403C102.417 100.069 102.584 100.533 102.902 100.888C103.225 101.239 103.633 101.414 104.127 101.414C104.478 101.414 104.775 101.342 105.019 101.199C105.262 101.056 105.475 100.866 105.658 100.63L106.265 101.103C105.778 101.851 105.047 102.225 104.073 102.225ZM103.95 97.0151C103.549 97.0151 103.212 97.1619 102.94 97.4556C102.668 97.7456 102.5 98.1538 102.435 98.6802H105.346V98.605C105.318 98.1001 105.181 97.7098 104.938 97.4341C104.694 97.1548 104.365 97.0151 103.95 97.0151ZM112.404 99.2764C112.404 100.161 112.201 100.873 111.797 101.414C111.392 101.955 110.844 102.225 110.153 102.225C109.448 102.225 108.893 102.001 108.488 101.554V104.352H107.495V96.3062H108.402L108.451 96.9507C108.855 96.4494 109.417 96.1987 110.137 96.1987C110.835 96.1987 111.387 96.4619 111.792 96.9883C112.2 97.5146 112.404 98.2469 112.404 99.1851V99.2764ZM111.41 99.1636C111.41 98.5083 111.271 97.9909 110.991 97.6113C110.712 97.2318 110.329 97.042 109.842 97.042C109.24 97.042 108.789 97.3088 108.488 97.8423V100.619C108.785 101.149 109.24 101.414 109.853 101.414C110.329 101.414 110.707 101.226 110.986 100.85C111.269 100.471 111.41 99.9084 111.41 99.1636ZM116.083 102.225C115.295 102.225 114.654 101.967 114.16 101.452C113.666 100.932 113.419 100.24 113.419 99.373V99.1904C113.419 98.6139 113.528 98.1001 113.747 97.6489C113.969 97.1942 114.277 96.8397 114.67 96.5854C115.068 96.3276 115.498 96.1987 115.959 96.1987C116.715 96.1987 117.302 96.4476 117.721 96.9453C118.14 97.443 118.35 98.1556 118.35 99.083V99.4966H114.413C114.427 100.069 114.593 100.533 114.912 100.888C115.234 101.239 115.643 101.414 116.137 101.414C116.488 101.414 116.785 101.342 117.028 101.199C117.272 101.056 117.485 100.866 117.667 100.63L118.274 101.103C117.787 101.851 117.057 102.225 116.083 102.225ZM115.959 97.0151C115.558 97.0151 115.222 97.1619 114.95 97.4556C114.678 97.7456 114.509 98.1538 114.445 98.6802H117.356V98.605C117.327 98.1001 117.191 97.7098 116.948 97.4341C116.704 97.1548 116.375 97.0151 115.959 97.0151ZM123.264 96.3062H124.258V102.118H123.264V97.8799L120.584 102.118H119.59V96.3062H120.584V100.549L123.264 96.3062ZM123.533 94.1899C123.533 94.6232 123.384 94.9723 123.087 95.2373C122.793 95.4987 122.407 95.6294 121.927 95.6294C121.447 95.6294 121.058 95.4969 120.761 95.2319C120.464 94.967 120.315 94.6196 120.315 94.1899H121.126C121.126 94.4406 121.194 94.6375 121.331 94.7808C121.467 94.9204 121.665 94.9902 121.927 94.9902C122.177 94.9902 122.373 94.9204 122.512 94.7808C122.655 94.6411 122.727 94.4442 122.727 94.1899H123.533ZM130.171 97.1118H128.222V102.118H127.228V97.1118H125.316V96.3062H130.171V97.1118ZM134.898 96.3062H135.892V102.118H134.898V97.8799L132.218 102.118H131.224V96.3062H132.218V100.549L134.898 96.3062Z" fill="#6658EA"/>
<path d="M100.066 176.118H99.0728V171.128H96.3979V176.118H95.3989V170.306H100.066V176.118ZM104.073 176.225C103.285 176.225 102.645 175.967 102.15 175.452C101.656 174.932 101.409 174.24 101.409 173.373V173.19C101.409 172.614 101.518 172.1 101.737 171.649C101.959 171.194 102.267 170.84 102.661 170.585C103.058 170.328 103.488 170.199 103.95 170.199C104.705 170.199 105.292 170.448 105.711 170.945C106.13 171.443 106.34 172.156 106.34 173.083V173.497H102.403C102.417 174.069 102.584 174.533 102.902 174.888C103.225 175.239 103.633 175.414 104.127 175.414C104.478 175.414 104.775 175.342 105.019 175.199C105.262 175.056 105.475 174.866 105.658 174.63L106.265 175.103C105.778 175.851 105.047 176.225 104.073 176.225ZM103.95 171.015C103.549 171.015 103.212 171.162 102.94 171.456C102.668 171.746 102.5 172.154 102.435 172.68H105.346V172.605C105.318 172.1 105.181 171.71 104.938 171.434C104.694 171.155 104.365 171.015 103.95 171.015ZM112.404 173.276C112.404 174.161 112.201 174.873 111.797 175.414C111.392 175.955 110.844 176.225 110.153 176.225C109.448 176.225 108.893 176.001 108.488 175.554V178.352H107.495V170.306H108.402L108.451 170.951C108.855 170.449 109.417 170.199 110.137 170.199C110.835 170.199 111.387 170.462 111.792 170.988C112.2 171.515 112.404 172.247 112.404 173.185V173.276ZM111.41 173.164C111.41 172.508 111.271 171.991 110.991 171.611C110.712 171.232 110.329 171.042 109.842 171.042C109.24 171.042 108.789 171.309 108.488 171.842V174.619C108.785 175.149 109.24 175.414 109.853 175.414C110.329 175.414 110.707 175.226 110.986 174.85C111.269 174.471 111.41 173.908 111.41 173.164ZM116.083 176.225C115.295 176.225 114.654 175.967 114.16 175.452C113.666 174.932 113.419 174.24 113.419 173.373V173.19C113.419 172.614 113.528 172.1 113.747 171.649C113.969 171.194 114.277 170.84 114.67 170.585C115.068 170.328 115.498 170.199 115.959 170.199C116.715 170.199 117.302 170.448 117.721 170.945C118.14 171.443 118.35 172.156 118.35 173.083V173.497H114.413C114.427 174.069 114.593 174.533 114.912 174.888C115.234 175.239 115.643 175.414 116.137 175.414C116.488 175.414 116.785 175.342 117.028 175.199C117.272 175.056 117.485 174.866 117.667 174.63L118.274 175.103C117.787 175.851 117.057 176.225 116.083 176.225ZM115.959 171.015C115.558 171.015 115.222 171.162 114.95 171.456C114.678 171.746 114.509 172.154 114.445 172.68H117.356V172.605C117.327 172.1 117.191 171.71 116.948 171.434C116.704 171.155 116.375 171.015 115.959 171.015ZM123.264 170.306H124.258V176.118H123.264V171.88L120.584 176.118H119.59V170.306H120.584V174.549L123.264 170.306ZM123.533 168.19C123.533 168.623 123.384 168.972 123.087 169.237C122.793 169.499 122.407 169.629 121.927 169.629C121.447 169.629 121.058 169.497 120.761 169.232C120.464 168.967 120.315 168.62 120.315 168.19H121.126C121.126 168.441 121.194 168.638 121.331 168.781C121.467 168.92 121.665 168.99 121.927 168.99C122.177 168.99 122.373 168.92 122.512 168.781C122.655 168.641 122.727 168.444 122.727 168.19H123.533ZM130.171 171.112H128.222V176.118H127.228V171.112H125.316V170.306H130.171V171.112ZM134.898 170.306H135.892V176.118H134.898V171.88L132.218 176.118H131.224V170.306H132.218V174.549L134.898 170.306Z" fill="#6658EA"/>
<path d="M100.066 250.118H99.0728V245.128H96.3979V250.118H95.3989V244.306H100.066V250.118ZM104.073 250.225C103.285 250.225 102.645 249.967 102.15 249.452C101.656 248.932 101.409 248.24 101.409 247.373V247.19C101.409 246.614 101.518 246.1 101.737 245.649C101.959 245.194 102.267 244.84 102.661 244.585C103.058 244.328 103.488 244.199 103.95 244.199C104.705 244.199 105.292 244.448 105.711 244.945C106.13 245.443 106.34 246.156 106.34 247.083V247.497H102.403C102.417 248.069 102.584 248.533 102.902 248.888C103.225 249.239 103.633 249.414 104.127 249.414C104.478 249.414 104.775 249.342 105.019 249.199C105.262 249.056 105.475 248.866 105.658 248.63L106.265 249.103C105.778 249.851 105.047 250.225 104.073 250.225ZM103.95 245.015C103.549 245.015 103.212 245.162 102.94 245.456C102.668 245.746 102.5 246.154 102.435 246.68H105.346V246.605C105.318 246.1 105.181 245.71 104.938 245.434C104.694 245.155 104.365 245.015 103.95 245.015ZM112.404 247.276C112.404 248.161 112.201 248.873 111.797 249.414C111.392 249.955 110.844 250.225 110.153 250.225C109.448 250.225 108.893 250.001 108.488 249.554V252.352H107.495V244.306H108.402L108.451 244.951C108.855 244.449 109.417 244.199 110.137 244.199C110.835 244.199 111.387 244.462 111.792 244.988C112.2 245.515 112.404 246.247 112.404 247.185V247.276ZM111.41 247.164C111.41 246.508 111.271 245.991 110.991 245.611C110.712 245.232 110.329 245.042 109.842 245.042C109.24 245.042 108.789 245.309 108.488 245.842V248.619C108.785 249.149 109.24 249.414 109.853 249.414C110.329 249.414 110.707 249.226 110.986 248.85C111.269 248.471 111.41 247.908 111.41 247.164ZM116.083 250.225C115.295 250.225 114.654 249.967 114.16 249.452C113.666 248.932 113.419 248.24 113.419 247.373V247.19C113.419 246.614 113.528 246.1 113.747 245.649C113.969 245.194 114.277 244.84 114.67 244.585C115.068 244.328 115.498 244.199 115.959 244.199C116.715 244.199 117.302 244.448 117.721 244.945C118.14 245.443 118.35 246.156 118.35 247.083V247.497H114.413C114.427 248.069 114.593 248.533 114.912 248.888C115.234 249.239 115.643 249.414 116.137 249.414C116.488 249.414 116.785 249.342 117.028 249.199C117.272 249.056 117.485 248.866 117.667 248.63L118.274 249.103C117.787 249.851 117.057 250.225 116.083 250.225ZM115.959 245.015C115.558 245.015 115.222 245.162 114.95 245.456C114.678 245.746 114.509 246.154 114.445 246.68H117.356V246.605C117.327 246.1 117.191 245.71 116.948 245.434C116.704 245.155 116.375 245.015 115.959 245.015ZM123.264 244.306H124.258V250.118H123.264V245.88L120.584 250.118H119.59V244.306H120.584V248.549L123.264 244.306ZM123.533 242.19C123.533 242.623 123.384 242.972 123.087 243.237C122.793 243.499 122.407 243.629 121.927 243.629C121.447 243.629 121.058 243.497 120.761 243.232C120.464 242.967 120.315 242.62 120.315 242.19H121.126C121.126 242.441 121.194 242.638 121.331 242.781C121.467 242.92 121.665 242.99 121.927 242.99C122.177 242.99 122.373 242.92 122.512 242.781C122.655 242.641 122.727 242.444 122.727 242.19H123.533ZM130.171 245.112H128.222V250.118H127.228V245.112H125.316V244.306H130.171V245.112ZM134.898 244.306H135.892V250.118H134.898V245.88L132.218 250.118H131.224V244.306H132.218V248.549L134.898 244.306Z" fill="#6658EA"/>
<path d="M100.066 321.118H99.0728V316.128H96.3979V321.118H95.3989V315.306H100.066V321.118ZM104.073 321.225C103.285 321.225 102.645 320.967 102.15 320.452C101.656 319.932 101.409 319.24 101.409 318.373V318.19C101.409 317.614 101.518 317.1 101.737 316.649C101.959 316.194 102.267 315.84 102.661 315.585C103.058 315.328 103.488 315.199 103.95 315.199C104.705 315.199 105.292 315.448 105.711 315.945C106.13 316.443 106.34 317.156 106.34 318.083V318.497H102.403C102.417 319.069 102.584 319.533 102.902 319.888C103.225 320.239 103.633 320.414 104.127 320.414C104.478 320.414 104.775 320.342 105.019 320.199C105.262 320.056 105.475 319.866 105.658 319.63L106.265 320.103C105.778 320.851 105.047 321.225 104.073 321.225ZM103.95 316.015C103.549 316.015 103.212 316.162 102.94 316.456C102.668 316.746 102.5 317.154 102.435 317.68H105.346V317.605C105.318 317.1 105.181 316.71 104.938 316.434C104.694 316.155 104.365 316.015 103.95 316.015ZM112.404 318.276C112.404 319.161 112.201 319.873 111.797 320.414C111.392 320.955 110.844 321.225 110.153 321.225C109.448 321.225 108.893 321.001 108.488 320.554V323.352H107.495V315.306H108.402L108.451 315.951C108.855 315.449 109.417 315.199 110.137 315.199C110.835 315.199 111.387 315.462 111.792 315.988C112.2 316.515 112.404 317.247 112.404 318.185V318.276ZM111.41 318.164C111.41 317.508 111.271 316.991 110.991 316.611C110.712 316.232 110.329 316.042 109.842 316.042C109.24 316.042 108.789 316.309 108.488 316.842V319.619C108.785 320.149 109.24 320.414 109.853 320.414C110.329 320.414 110.707 320.226 110.986 319.85C111.269 319.471 111.41 318.908 111.41 318.164ZM116.083 321.225C115.295 321.225 114.654 320.967 114.16 320.452C113.666 319.932 113.419 319.24 113.419 318.373V318.19C113.419 317.614 113.528 317.1 113.747 316.649C113.969 316.194 114.277 315.84 114.67 315.585C115.068 315.328 115.498 315.199 115.959 315.199C116.715 315.199 117.302 315.448 117.721 315.945C118.14 316.443 118.35 317.156 118.35 318.083V318.497H114.413C114.427 319.069 114.593 319.533 114.912 319.888C115.234 320.239 115.643 320.414 116.137 320.414C116.488 320.414 116.785 320.342 117.028 320.199C117.272 320.056 117.485 319.866 117.667 319.63L118.274 320.103C117.787 320.851 117.057 321.225 116.083 321.225ZM115.959 316.015C115.558 316.015 115.222 316.162 114.95 316.456C114.678 316.746 114.509 317.154 114.445 317.68H117.356V317.605C117.327 317.1 117.191 316.71 116.948 316.434C116.704 316.155 116.375 316.015 115.959 316.015ZM123.264 315.306H124.258V321.118H123.264V316.88L120.584 321.118H119.59V315.306H120.584V319.549L123.264 315.306ZM123.533 313.19C123.533 313.623 123.384 313.972 123.087 314.237C122.793 314.499 122.407 314.629 121.927 314.629C121.447 314.629 121.058 314.497 120.761 314.232C120.464 313.967 120.315 313.62 120.315 313.19H121.126C121.126 313.441 121.194 313.638 121.331 313.781C121.467 313.92 121.665 313.99 121.927 313.99C122.177 313.99 122.373 313.92 122.512 313.781C122.655 313.641 122.727 313.444 122.727 313.19H123.533ZM130.171 316.112H128.222V321.118H127.228V316.112H125.316V315.306H130.171V316.112ZM134.898 315.306H135.892V321.118H134.898V316.88L132.218 321.118H131.224V315.306H132.218V319.549L134.898 315.306Z" fill="#6658EA"/>
<path d="M100.066 395.118H99.0728V390.128H96.3979V395.118H95.3989V389.306H100.066V395.118ZM104.073 395.225C103.285 395.225 102.645 394.967 102.15 394.452C101.656 393.932 101.409 393.24 101.409 392.373V392.19C101.409 391.614 101.518 391.1 101.737 390.649C101.959 390.194 102.267 389.84 102.661 389.585C103.058 389.328 103.488 389.199 103.95 389.199C104.705 389.199 105.292 389.448 105.711 389.945C106.13 390.443 106.34 391.156 106.34 392.083V392.497H102.403C102.417 393.069 102.584 393.533 102.902 393.888C103.225 394.239 103.633 394.414 104.127 394.414C104.478 394.414 104.775 394.342 105.019 394.199C105.262 394.056 105.475 393.866 105.658 393.63L106.265 394.103C105.778 394.851 105.047 395.225 104.073 395.225ZM103.95 390.015C103.549 390.015 103.212 390.162 102.94 390.456C102.668 390.746 102.5 391.154 102.435 391.68H105.346V391.605C105.318 391.1 105.181 390.71 104.938 390.434C104.694 390.155 104.365 390.015 103.95 390.015ZM112.404 392.276C112.404 393.161 112.201 393.873 111.797 394.414C111.392 394.955 110.844 395.225 110.153 395.225C109.448 395.225 108.893 395.001 108.488 394.554V397.352H107.495V389.306H108.402L108.451 389.951C108.855 389.449 109.417 389.199 110.137 389.199C110.835 389.199 111.387 389.462 111.792 389.988C112.2 390.515 112.404 391.247 112.404 392.185V392.276ZM111.41 392.164C111.41 391.508 111.271 390.991 110.991 390.611C110.712 390.232 110.329 390.042 109.842 390.042C109.24 390.042 108.789 390.309 108.488 390.842V393.619C108.785 394.149 109.24 394.414 109.853 394.414C110.329 394.414 110.707 394.226 110.986 393.85C111.269 393.471 111.41 392.908 111.41 392.164ZM116.083 395.225C115.295 395.225 114.654 394.967 114.16 394.452C113.666 393.932 113.419 393.24 113.419 392.373V392.19C113.419 391.614 113.528 391.1 113.747 390.649C113.969 390.194 114.277 389.84 114.67 389.585C115.068 389.328 115.498 389.199 115.959 389.199C116.715 389.199 117.302 389.448 117.721 389.945C118.14 390.443 118.35 391.156 118.35 392.083V392.497H114.413C114.427 393.069 114.593 393.533 114.912 393.888C115.234 394.239 115.643 394.414 116.137 394.414C116.488 394.414 116.785 394.342 117.028 394.199C117.272 394.056 117.485 393.866 117.667 393.63L118.274 394.103C117.787 394.851 117.057 395.225 116.083 395.225ZM115.959 390.015C115.558 390.015 115.222 390.162 114.95 390.456C114.678 390.746 114.509 391.154 114.445 391.68H117.356V391.605C117.327 391.1 117.191 390.71 116.948 390.434C116.704 390.155 116.375 390.015 115.959 390.015ZM123.264 389.306H124.258V395.118H123.264V390.88L120.584 395.118H119.59V389.306H120.584V393.549L123.264 389.306ZM123.533 387.19C123.533 387.623 123.384 387.972 123.087 388.237C122.793 388.499 122.407 388.629 121.927 388.629C121.447 388.629 121.058 388.497 120.761 388.232C120.464 387.967 120.315 387.62 120.315 387.19H121.126C121.126 387.441 121.194 387.638 121.331 387.781C121.467 387.92 121.665 387.99 121.927 387.99C122.177 387.99 122.373 387.92 122.512 387.781C122.655 387.641 122.727 387.444 122.727 387.19H123.533ZM130.171 390.112H128.222V395.118H127.228V390.112H125.316V389.306H130.171V390.112ZM134.898 389.306H135.892V395.118H134.898V390.88L132.218 395.118H131.224V389.306H132.218V393.549L134.898 389.306Z" fill="#6658EA"/>
<path d="M100.066 463.118H99.0728V458.128H96.3979V463.118H95.3989V457.306H100.066V463.118ZM104.073 463.225C103.285 463.225 102.645 462.967 102.15 462.452C101.656 461.932 101.409 461.24 101.409 460.373V460.19C101.409 459.614 101.518 459.1 101.737 458.649C101.959 458.194 102.267 457.84 102.661 457.585C103.058 457.328 103.488 457.199 103.95 457.199C104.705 457.199 105.292 457.448 105.711 457.945C106.13 458.443 106.34 459.156 106.34 460.083V460.497H102.403C102.417 461.069 102.584 461.533 102.902 461.888C103.225 462.239 103.633 462.414 104.127 462.414C104.478 462.414 104.775 462.342 105.019 462.199C105.262 462.056 105.475 461.866 105.658 461.63L106.265 462.103C105.778 462.851 105.047 463.225 104.073 463.225ZM103.95 458.015C103.549 458.015 103.212 458.162 102.94 458.456C102.668 458.746 102.5 459.154 102.435 459.68H105.346V459.605C105.318 459.1 105.181 458.71 104.938 458.434C104.694 458.155 104.365 458.015 103.95 458.015ZM112.404 460.276C112.404 461.161 112.201 461.873 111.797 462.414C111.392 462.955 110.844 463.225 110.153 463.225C109.448 463.225 108.893 463.001 108.488 462.554V465.352H107.495V457.306H108.402L108.451 457.951C108.855 457.449 109.417 457.199 110.137 457.199C110.835 457.199 111.387 457.462 111.792 457.988C112.2 458.515 112.404 459.247 112.404 460.185V460.276ZM111.41 460.164C111.41 459.508 111.271 458.991 110.991 458.611C110.712 458.232 110.329 458.042 109.842 458.042C109.24 458.042 108.789 458.309 108.488 458.842V461.619C108.785 462.149 109.24 462.414 109.853 462.414C110.329 462.414 110.707 462.226 110.986 461.85C111.269 461.471 111.41 460.908 111.41 460.164ZM116.083 463.225C115.295 463.225 114.654 462.967 114.16 462.452C113.666 461.932 113.419 461.24 113.419 460.373V460.19C113.419 459.614 113.528 459.1 113.747 458.649C113.969 458.194 114.277 457.84 114.67 457.585C115.068 457.328 115.498 457.199 115.959 457.199C116.715 457.199 117.302 457.448 117.721 457.945C118.14 458.443 118.35 459.156 118.35 460.083V460.497H114.413C114.427 461.069 114.593 461.533 114.912 461.888C115.234 462.239 115.643 462.414 116.137 462.414C116.488 462.414 116.785 462.342 117.028 462.199C117.272 462.056 117.485 461.866 117.667 461.63L118.274 462.103C117.787 462.851 117.057 463.225 116.083 463.225ZM115.959 458.015C115.558 458.015 115.222 458.162 114.95 458.456C114.678 458.746 114.509 459.154 114.445 459.68H117.356V459.605C117.327 459.1 117.191 458.71 116.948 458.434C116.704 458.155 116.375 458.015 115.959 458.015ZM123.264 457.306H124.258V463.118H123.264V458.88L120.584 463.118H119.59V457.306H120.584V461.549L123.264 457.306ZM123.533 455.19C123.533 455.623 123.384 455.972 123.087 456.237C122.793 456.499 122.407 456.629 121.927 456.629C121.447 456.629 121.058 456.497 120.761 456.232C120.464 455.967 120.315 455.62 120.315 455.19H121.126C121.126 455.441 121.194 455.638 121.331 455.781C121.467 455.92 121.665 455.99 121.927 455.99C122.177 455.99 122.373 455.92 122.512 455.781C122.655 455.641 122.727 455.444 122.727 455.19H123.533ZM130.171 458.112H128.222V463.118H127.228V458.112H125.316V457.306H130.171V458.112ZM134.898 457.306H135.892V463.118H134.898V458.88L132.218 463.118H131.224V457.306H132.218V461.549L134.898 457.306Z" fill="#6658EA"/>
</svg>
