<svg width="468" height="529" viewBox="0 0 468 529" fill="none" xmlns="http://www.w3.org/2000/svg">
<g filter="url(#filter0_dd_1397_857)">
<g clip-path="url(#clip0_1397_857)">
<path d="M74 46C74 37.1634 81.1634 30 90 30H394V395C394 403.837 386.837 411 378 411H74V46Z" fill="white"/>
<path d="M130.065 54.39C129.381 54.39 128.763 54.51 128.211 54.75C127.659 54.978 127.191 55.32 126.807 55.776C126.423 56.22 126.129 56.766 125.925 57.414C125.721 58.05 125.619 58.77 125.619 59.574C125.619 60.63 125.781 61.548 126.105 62.328C126.441 63.108 126.933 63.708 127.581 64.128C128.241 64.548 129.063 64.758 130.047 64.758C130.611 64.758 131.145 64.71 131.649 64.614C132.153 64.518 132.645 64.398 133.125 64.254V65.658C132.645 65.838 132.147 65.97 131.631 66.054C131.127 66.138 130.521 66.18 129.813 66.18C128.505 66.18 127.413 65.91 126.537 65.37C125.661 64.83 125.001 64.062 124.557 63.066C124.125 62.07 123.909 60.9 123.909 59.556C123.909 58.584 124.041 57.696 124.305 56.892C124.581 56.088 124.977 55.392 125.493 54.804C126.021 54.216 126.669 53.766 127.437 53.454C128.205 53.13 129.087 52.968 130.083 52.968C130.743 52.968 131.379 53.034 131.991 53.166C132.603 53.298 133.149 53.484 133.629 53.724L132.981 55.092C132.585 54.912 132.141 54.75 131.649 54.606C131.169 54.462 130.641 54.39 130.065 54.39ZM141.42 56.352H143.148L139.026 60.996L143.49 66H141.654L137.298 61.104V66H135.714V56.352H137.298V61.032L141.42 56.352ZM149.831 56.172C151.019 56.172 151.973 56.586 152.693 57.414C153.425 58.242 153.791 59.49 153.791 61.158C153.791 62.25 153.623 63.174 153.287 63.93C152.963 64.674 152.501 65.238 151.901 65.622C151.313 65.994 150.617 66.18 149.813 66.18C149.321 66.18 148.883 66.114 148.499 65.982C148.115 65.85 147.785 65.682 147.509 65.478C147.245 65.262 147.017 65.028 146.825 64.776H146.717C146.741 64.98 146.765 65.238 146.789 65.55C146.813 65.862 146.825 66.132 146.825 66.36V70.32H145.241V56.352H146.537L146.753 57.666H146.825C147.017 57.39 147.245 57.138 147.509 56.91C147.785 56.682 148.109 56.502 148.481 56.37C148.865 56.238 149.315 56.172 149.831 56.172ZM149.543 57.504C148.895 57.504 148.373 57.63 147.977 57.882C147.581 58.122 147.293 58.488 147.113 58.98C146.933 59.472 146.837 60.096 146.825 60.852V61.158C146.825 61.95 146.909 62.622 147.077 63.174C147.245 63.726 147.527 64.146 147.923 64.434C148.331 64.722 148.883 64.866 149.579 64.866C150.167 64.866 150.647 64.704 151.019 64.38C151.403 64.056 151.685 63.618 151.865 63.066C152.057 62.502 152.153 61.86 152.153 61.14C152.153 60.036 151.937 59.154 151.505 58.494C151.085 57.834 150.431 57.504 149.543 57.504ZM157.809 62.238C157.809 62.346 157.803 62.502 157.791 62.706C157.791 62.898 157.785 63.108 157.773 63.336C157.761 63.552 157.749 63.762 157.737 63.966C157.725 64.158 157.713 64.314 157.701 64.434L162.867 56.352H164.811V66H163.335V60.312C163.335 60.12 163.335 59.868 163.335 59.556C163.347 59.244 163.359 58.938 163.371 58.638C163.383 58.326 163.395 58.092 163.407 57.936L158.277 66H156.315V56.352H157.809V62.238ZM169.466 56.352V60.366H174.704V56.352H176.288V66H174.704V61.698H169.466V66H167.882V56.352H169.466ZM180.837 62.238C180.837 62.346 180.831 62.502 180.819 62.706C180.819 62.898 180.813 63.108 180.801 63.336C180.789 63.552 180.777 63.762 180.765 63.966C180.753 64.158 180.741 64.314 180.729 64.434L185.895 56.352H187.839V66H186.363V60.312C186.363 60.12 186.363 59.868 186.363 59.556C186.375 59.244 186.387 58.938 186.399 58.638C186.411 58.326 186.423 58.092 186.435 57.936L181.305 66H179.343V56.352H180.837V62.238ZM192.493 56.352V60.366H197.731V56.352H199.315V66H197.731V61.698H192.493V66H190.909V56.352H192.493ZM208.256 56.352V57.684H203.954V66H202.37V56.352H208.256ZM218.562 66.18C217.71 66.18 216.948 66.006 216.276 65.658C215.616 65.31 215.094 64.77 214.71 64.038C214.338 63.306 214.152 62.37 214.152 61.23C214.152 60.042 214.35 59.076 214.746 58.332C215.142 57.588 215.676 57.042 216.348 56.694C217.032 56.346 217.806 56.172 218.67 56.172C219.162 56.172 219.636 56.226 220.092 56.334C220.548 56.43 220.92 56.55 221.208 56.694L220.722 58.008C220.434 57.9 220.098 57.798 219.714 57.702C219.33 57.606 218.97 57.558 218.634 57.558C217.986 57.558 217.452 57.696 217.032 57.972C216.612 58.248 216.3 58.656 216.096 59.196C215.892 59.736 215.79 60.408 215.79 61.212C215.79 61.98 215.892 62.634 216.096 63.174C216.3 63.714 216.606 64.122 217.014 64.398C217.422 64.674 217.932 64.812 218.544 64.812C219.072 64.812 219.534 64.758 219.93 64.65C220.338 64.542 220.71 64.41 221.046 64.254V65.658C220.722 65.826 220.362 65.952 219.966 66.036C219.582 66.132 219.114 66.18 218.562 66.18ZM231.495 56.352V66H229.911V57.702H224.925V66H223.341V56.352H231.495ZM238.227 56.19C239.403 56.19 240.273 56.448 240.837 56.964C241.401 57.48 241.683 58.302 241.683 59.43V66H240.531L240.225 64.632H240.153C239.877 64.98 239.589 65.274 239.289 65.514C239.001 65.742 238.665 65.91 238.281 66.018C237.909 66.126 237.453 66.18 236.913 66.18C236.337 66.18 235.815 66.078 235.347 65.874C234.891 65.67 234.531 65.358 234.267 64.938C234.003 64.506 233.871 63.966 233.871 63.318C233.871 62.358 234.249 61.62 235.005 61.104C235.761 60.576 236.925 60.288 238.497 60.24L240.135 60.186V59.61C240.135 58.806 239.961 58.248 239.613 57.936C239.265 57.624 238.773 57.468 238.137 57.468C237.633 57.468 237.153 57.546 236.697 57.702C236.241 57.846 235.815 58.014 235.419 58.206L234.933 57.018C235.353 56.79 235.851 56.598 236.427 56.442C237.003 56.274 237.603 56.19 238.227 56.19ZM238.695 61.338C237.495 61.386 236.661 61.578 236.193 61.914C235.737 62.25 235.509 62.724 235.509 63.336C235.509 63.876 235.671 64.272 235.995 64.524C236.331 64.776 236.757 64.902 237.273 64.902C238.089 64.902 238.767 64.68 239.307 64.236C239.847 63.78 240.117 63.084 240.117 62.148V61.284L238.695 61.338ZM248.533 66.18C247.681 66.18 246.919 66.006 246.247 65.658C245.587 65.31 245.065 64.77 244.681 64.038C244.309 63.306 244.123 62.37 244.123 61.23C244.123 60.042 244.321 59.076 244.717 58.332C245.113 57.588 245.647 57.042 246.319 56.694C247.003 56.346 247.777 56.172 248.641 56.172C249.133 56.172 249.607 56.226 250.063 56.334C250.519 56.43 250.891 56.55 251.179 56.694L250.693 58.008C250.405 57.9 250.069 57.798 249.685 57.702C249.301 57.606 248.941 57.558 248.605 57.558C247.957 57.558 247.423 57.696 247.003 57.972C246.583 58.248 246.271 58.656 246.067 59.196C245.863 59.736 245.761 60.408 245.761 61.212C245.761 61.98 245.863 62.634 246.067 63.174C246.271 63.714 246.577 64.122 246.985 64.398C247.393 64.674 247.903 64.812 248.515 64.812C249.043 64.812 249.505 64.758 249.901 64.65C250.309 64.542 250.681 64.41 251.017 64.254V65.658C250.693 65.826 250.333 65.952 249.937 66.036C249.553 66.132 249.085 66.18 248.533 66.18ZM256.965 56.19C258.141 56.19 259.011 56.448 259.575 56.964C260.139 57.48 260.421 58.302 260.421 59.43V66H259.269L258.963 64.632H258.891C258.615 64.98 258.327 65.274 258.027 65.514C257.739 65.742 257.403 65.91 257.019 66.018C256.647 66.126 256.191 66.18 255.651 66.18C255.075 66.18 254.553 66.078 254.085 65.874C253.629 65.67 253.269 65.358 253.005 64.938C252.741 64.506 252.609 63.966 252.609 63.318C252.609 62.358 252.987 61.62 253.743 61.104C254.499 60.576 255.663 60.288 257.235 60.24L258.873 60.186V59.61C258.873 58.806 258.699 58.248 258.351 57.936C258.003 57.624 257.511 57.468 256.875 57.468C256.371 57.468 255.891 57.546 255.435 57.702C254.979 57.846 254.553 58.014 254.157 58.206L253.671 57.018C254.091 56.79 254.589 56.598 255.165 56.442C255.741 56.274 256.341 56.19 256.965 56.19ZM257.433 61.338C256.233 61.386 255.399 61.578 254.931 61.914C254.475 62.25 254.247 62.724 254.247 63.336C254.247 63.876 254.409 64.272 254.733 64.524C255.069 64.776 255.495 64.902 256.011 64.902C256.827 64.902 257.505 64.68 258.045 64.236C258.585 63.78 258.855 63.084 258.855 62.148V61.284L257.433 61.338ZM267.127 56.172C267.955 56.172 268.663 56.352 269.251 56.712C269.851 57.072 270.307 57.582 270.619 58.242C270.943 58.89 271.105 59.652 271.105 60.528V61.482H264.499C264.523 62.574 264.799 63.408 265.327 63.984C265.867 64.548 266.617 64.83 267.577 64.83C268.189 64.83 268.729 64.776 269.197 64.668C269.677 64.548 270.169 64.38 270.673 64.164V65.55C270.181 65.766 269.695 65.922 269.215 66.018C268.735 66.126 268.165 66.18 267.505 66.18C266.593 66.18 265.783 65.994 265.075 65.622C264.379 65.25 263.833 64.698 263.437 63.966C263.053 63.222 262.861 62.316 262.861 61.248C262.861 60.192 263.035 59.286 263.383 58.53C263.743 57.774 264.241 57.192 264.877 56.784C265.525 56.376 266.275 56.172 267.127 56.172ZM267.109 57.468C266.353 57.468 265.753 57.714 265.309 58.206C264.877 58.686 264.619 59.358 264.535 60.222H269.449C269.449 59.67 269.365 59.19 269.197 58.782C269.029 58.374 268.771 58.056 268.423 57.828C268.087 57.588 267.649 57.468 267.109 57.468ZM280.221 57.684H277.071V66H275.505V57.684H272.391V56.352H280.221V57.684ZM298.231 56.352L294.253 61.032L298.573 66H296.773L292.597 61.104V66H291.121V61.104L286.945 66H285.145L289.465 61.032L285.487 56.352H287.215L291.121 61.032V56.352H292.597V61.032L296.521 56.352H298.231ZM301.651 62.238C301.651 62.346 301.645 62.502 301.633 62.706C301.633 62.898 301.627 63.108 301.615 63.336C301.603 63.552 301.591 63.762 301.579 63.966C301.567 64.158 301.555 64.314 301.543 64.434L306.709 56.352H308.653V66H307.177V60.312C307.177 60.12 307.177 59.868 307.177 59.556C307.189 59.244 307.201 58.938 307.213 58.638C307.225 58.326 307.237 58.092 307.249 57.936L302.119 66H300.157V56.352H301.651V62.238ZM314.261 56.172C314.993 56.172 315.629 56.274 316.169 56.478C316.709 56.67 317.129 56.958 317.429 57.342C317.729 57.714 317.879 58.17 317.879 58.71C317.879 59.298 317.717 59.766 317.393 60.114C317.069 60.45 316.625 60.696 316.061 60.852V60.924C316.445 61.032 316.799 61.182 317.123 61.374C317.447 61.566 317.705 61.818 317.897 62.13C318.101 62.442 318.203 62.844 318.203 63.336C318.203 63.864 318.053 64.344 317.753 64.776C317.465 65.208 317.015 65.55 316.403 65.802C315.803 66.054 315.029 66.18 314.081 66.18C313.625 66.18 313.187 66.156 312.767 66.108C312.359 66.06 311.987 65.988 311.651 65.892C311.327 65.796 311.039 65.682 310.787 65.55V64.128C311.195 64.32 311.675 64.494 312.227 64.65C312.791 64.806 313.403 64.884 314.063 64.884C314.543 64.884 314.975 64.83 315.359 64.722C315.755 64.614 316.067 64.446 316.295 64.218C316.523 63.978 316.637 63.654 316.637 63.246C316.637 62.874 316.535 62.574 316.331 62.346C316.127 62.106 315.821 61.926 315.413 61.806C315.017 61.686 314.507 61.626 313.883 61.626H312.587V60.33H313.631C314.459 60.33 315.119 60.222 315.611 60.006C316.115 59.778 316.367 59.394 316.367 58.854C316.367 58.398 316.175 58.056 315.791 57.828C315.419 57.6 314.879 57.486 314.171 57.486C313.643 57.486 313.175 57.54 312.767 57.648C312.371 57.744 311.933 57.894 311.453 58.098L310.895 56.838C311.411 56.61 311.951 56.442 312.515 56.334C313.079 56.226 313.661 56.172 314.261 56.172ZM322.132 56.352V60.366H327.37V56.352H328.954V66H327.37V61.698H322.132V66H320.548V56.352H322.132ZM333.503 62.238C333.503 62.346 333.497 62.502 333.485 62.706C333.485 62.898 333.479 63.108 333.467 63.336C333.455 63.552 333.443 63.762 333.431 63.966C333.419 64.158 333.407 64.314 333.395 64.434L338.561 56.352H340.505V66H339.029V60.312C339.029 60.12 339.029 59.868 339.029 59.556C339.041 59.244 339.053 58.938 339.065 58.638C339.077 58.326 339.089 58.092 339.101 57.936L333.971 66H332.009V56.352H333.503V62.238ZM344.007 66.108C343.647 66.108 343.347 65.994 343.107 65.766C342.879 65.526 342.765 65.244 342.765 64.92C342.765 64.584 342.879 64.302 343.107 64.074C343.347 63.834 343.647 63.714 344.007 63.714C344.367 63.714 344.661 63.834 344.889 64.074C345.117 64.302 345.231 64.584 345.231 64.92C345.231 65.244 345.117 65.526 344.889 65.766C344.661 65.994 344.367 66.108 344.007 66.108ZM344.007 59.25C343.647 59.25 343.347 59.136 343.107 58.908C342.879 58.668 342.765 58.386 342.765 58.062C342.765 57.726 342.879 57.444 343.107 57.216C343.347 56.976 343.647 56.856 344.007 56.856C344.367 56.856 344.661 56.976 344.889 57.216C345.117 57.444 345.231 57.726 345.231 58.062C345.231 58.386 345.117 58.668 344.889 58.908C344.661 59.136 344.367 59.25 344.007 59.25Z" fill="#1B1642"/>
<path d="M211.163 194.97C210.09 194.97 209.245 195.329 208.629 196.048C208.013 196.767 207.705 197.751 207.705 199.002C207.705 200.243 207.99 201.228 208.559 201.956C209.138 202.675 210.001 203.034 211.149 203.034C211.588 203.034 212.003 202.997 212.395 202.922C212.787 202.847 213.17 202.754 213.543 202.642V203.734C213.17 203.874 212.783 203.977 212.381 204.042C211.989 204.107 211.518 204.14 210.967 204.14C209.95 204.14 209.101 203.93 208.419 203.51C207.738 203.09 207.225 202.493 206.879 201.718C206.543 200.943 206.375 200.033 206.375 198.988C206.375 197.98 206.557 197.093 206.921 196.328C207.295 195.553 207.841 194.951 208.559 194.522C209.278 194.083 210.151 193.864 211.177 193.864C212.232 193.864 213.151 194.06 213.935 194.452L213.431 195.516C213.123 195.376 212.778 195.25 212.395 195.138C212.022 195.026 211.611 194.97 211.163 194.97ZM221.269 204H220.023V197.518H217.811C217.69 199.095 217.522 200.369 217.307 201.34C217.093 202.301 216.808 203.001 216.453 203.44C216.099 203.879 215.651 204.098 215.109 204.098C214.988 204.098 214.867 204.089 214.745 204.07C214.633 204.061 214.54 204.037 214.465 204V203.076C214.521 203.095 214.582 203.109 214.647 203.118C214.713 203.127 214.778 203.132 214.843 203.132C215.347 203.132 215.749 202.595 216.047 201.522C216.355 200.449 216.589 198.773 216.747 196.496H221.269V204ZM222.475 196.496H223.791L225.415 200.766C225.555 201.139 225.681 201.499 225.793 201.844C225.905 202.18 225.989 202.502 226.045 202.81H226.101C226.157 202.577 226.246 202.273 226.367 201.9C226.488 201.517 226.614 201.135 226.745 200.752L228.271 196.496H229.601L226.367 205.036C226.106 205.745 225.765 206.31 225.345 206.73C224.934 207.15 224.365 207.36 223.637 207.36C223.413 207.36 223.217 207.346 223.049 207.318C222.881 207.299 222.736 207.276 222.615 207.248V206.268C222.718 206.287 222.839 206.305 222.979 206.324C223.128 206.343 223.282 206.352 223.441 206.352C223.87 206.352 224.216 206.231 224.477 205.988C224.748 205.745 224.958 205.423 225.107 205.022L225.499 204.028L222.475 196.496ZM231.866 196.496V199.226C231.866 200.085 232.346 200.514 233.308 200.514C233.774 200.514 234.199 200.444 234.582 200.304C234.964 200.155 235.356 199.959 235.758 199.716V196.496H236.99V204H235.758V200.654C235.338 200.925 234.922 201.139 234.512 201.298C234.11 201.447 233.625 201.522 233.056 201.522C232.29 201.522 231.693 201.321 231.264 200.92C230.844 200.519 230.634 199.982 230.634 199.31V196.496H231.866ZM242.216 196.37C243.13 196.37 243.807 196.571 244.246 196.972C244.684 197.373 244.904 198.013 244.904 198.89V204H244.008L243.77 202.936H243.714C243.387 203.347 243.042 203.65 242.678 203.846C242.323 204.042 241.828 204.14 241.194 204.14C240.512 204.14 239.948 203.963 239.5 203.608C239.052 203.244 238.828 202.679 238.828 201.914C238.828 201.167 239.122 200.593 239.71 200.192C240.298 199.781 241.203 199.557 242.426 199.52L243.7 199.478V199.03C243.7 198.405 243.564 197.971 243.294 197.728C243.023 197.485 242.64 197.364 242.146 197.364C241.754 197.364 241.38 197.425 241.026 197.546C240.671 197.658 240.34 197.789 240.032 197.938L239.654 197.014C239.98 196.837 240.368 196.687 240.816 196.566C241.264 196.435 241.73 196.37 242.216 196.37ZM243.686 200.332L242.58 200.374C241.646 200.411 240.998 200.561 240.634 200.822C240.279 201.083 240.102 201.452 240.102 201.928C240.102 202.348 240.228 202.656 240.48 202.852C240.741 203.048 241.072 203.146 241.474 203.146C242.108 203.146 242.636 202.973 243.056 202.628C243.476 202.273 243.686 201.732 243.686 201.004V200.332ZM250.119 196.356C250.763 196.356 251.314 196.496 251.771 196.776C252.238 197.056 252.593 197.453 252.835 197.966C253.087 198.47 253.213 199.063 253.213 199.744V200.486H248.075C248.094 201.335 248.309 201.984 248.719 202.432C249.139 202.871 249.723 203.09 250.469 203.09C250.945 203.09 251.365 203.048 251.729 202.964C252.103 202.871 252.485 202.74 252.877 202.572V203.65C252.495 203.818 252.117 203.939 251.743 204.014C251.37 204.098 250.927 204.14 250.413 204.14C249.704 204.14 249.074 203.995 248.523 203.706C247.982 203.417 247.557 202.987 247.249 202.418C246.951 201.839 246.801 201.135 246.801 200.304C246.801 199.483 246.937 198.778 247.207 198.19C247.487 197.602 247.875 197.149 248.369 196.832C248.873 196.515 249.457 196.356 250.119 196.356ZM250.105 197.364C249.517 197.364 249.051 197.555 248.705 197.938C248.369 198.311 248.169 198.834 248.103 199.506H251.925C251.916 198.871 251.767 198.358 251.477 197.966C251.188 197.565 250.731 197.364 250.105 197.364ZM261.158 198.386C261.158 198.853 261.018 199.217 260.738 199.478C260.458 199.739 260.098 199.917 259.66 200.01V200.066C260.126 200.131 260.532 200.299 260.878 200.57C261.223 200.831 261.396 201.242 261.396 201.802C261.396 202.437 261.158 202.964 260.682 203.384C260.215 203.795 259.44 204 258.358 204H255.124V196.496H258.344C258.876 196.496 259.352 196.557 259.772 196.678C260.201 196.79 260.537 196.986 260.78 197.266C261.032 197.537 261.158 197.91 261.158 198.386ZM259.912 198.54C259.912 198.185 259.781 197.929 259.52 197.77C259.268 197.602 258.852 197.518 258.274 197.518H256.356V199.576H258.05C259.291 199.576 259.912 199.231 259.912 198.54ZM260.122 201.802C260.122 201.373 259.958 201.065 259.632 200.878C259.305 200.691 258.824 200.598 258.19 200.598H256.356V203.006H258.218C258.834 203.006 259.305 202.917 259.632 202.74C259.958 202.553 260.122 202.241 260.122 201.802Z" fill="#8D9AAE"/>
<path d="M120.762 309.346C120.378 310.198 119.988 310.912 119.592 311.488C119.208 312.052 118.752 312.478 118.224 312.766C117.696 313.042 117.024 313.18 116.208 313.18C115.872 313.18 115.554 313.156 115.254 313.108C114.966 313.06 114.702 312.994 114.462 312.91V311.308C114.702 311.416 114.96 311.506 115.236 311.578C115.512 311.638 115.8 311.668 116.1 311.668C116.544 311.668 116.922 311.608 117.234 311.488C117.558 311.356 117.84 311.146 118.08 310.858C118.332 310.57 118.566 310.186 118.782 309.706L113.832 300.148H115.614L119.196 307.222C119.244 307.306 119.292 307.408 119.34 307.528C119.388 307.636 119.436 307.75 119.484 307.87C119.544 307.99 119.592 308.104 119.628 308.212H119.7C119.736 308.128 119.772 308.032 119.808 307.924C119.856 307.804 119.898 307.69 119.934 307.582C119.982 307.462 120.024 307.36 120.06 307.276L123.156 300.148H124.866L120.762 309.346ZM128.934 303.172C129.666 303.172 130.302 303.274 130.842 303.478C131.382 303.67 131.802 303.958 132.102 304.342C132.402 304.714 132.552 305.17 132.552 305.71C132.552 306.298 132.39 306.766 132.066 307.114C131.742 307.45 131.298 307.696 130.734 307.852V307.924C131.118 308.032 131.472 308.182 131.796 308.374C132.12 308.566 132.378 308.818 132.57 309.13C132.774 309.442 132.876 309.844 132.876 310.336C132.876 310.864 132.726 311.344 132.426 311.776C132.138 312.208 131.688 312.55 131.076 312.802C130.476 313.054 129.702 313.18 128.754 313.18C128.298 313.18 127.86 313.156 127.44 313.108C127.032 313.06 126.66 312.988 126.324 312.892C126 312.796 125.712 312.682 125.46 312.55V311.128C125.868 311.32 126.348 311.494 126.9 311.65C127.464 311.806 128.076 311.884 128.736 311.884C129.216 311.884 129.648 311.83 130.032 311.722C130.428 311.614 130.74 311.446 130.968 311.218C131.196 310.978 131.31 310.654 131.31 310.246C131.31 309.874 131.208 309.574 131.004 309.346C130.8 309.106 130.494 308.926 130.086 308.806C129.69 308.686 129.18 308.626 128.556 308.626H127.26V307.33H128.304C129.132 307.33 129.792 307.222 130.284 307.006C130.788 306.778 131.04 306.394 131.04 305.854C131.04 305.398 130.848 305.056 130.464 304.828C130.092 304.6 129.552 304.486 128.844 304.486C128.316 304.486 127.848 304.54 127.44 304.648C127.044 304.744 126.606 304.894 126.126 305.098L125.568 303.838C126.084 303.61 126.624 303.442 127.188 303.334C127.752 303.226 128.334 303.172 128.934 303.172ZM136.714 309.238C136.714 309.346 136.708 309.502 136.696 309.706C136.696 309.898 136.69 310.108 136.678 310.336C136.666 310.552 136.654 310.762 136.642 310.966C136.63 311.158 136.618 311.314 136.606 311.434L141.772 303.352H143.716V313H142.24V307.312C142.24 307.12 142.24 306.868 142.24 306.556C142.252 306.244 142.264 305.938 142.276 305.638C142.288 305.326 142.3 305.092 142.312 304.936L137.182 313H135.22V303.352H136.714V309.238ZM159.705 303.352V313H158.121V304.702H153.135V313H151.551V303.352H159.705ZM166.509 303.172C167.337 303.172 168.045 303.352 168.633 303.712C169.233 304.072 169.689 304.582 170.001 305.242C170.325 305.89 170.487 306.652 170.487 307.528V308.482H163.881C163.905 309.574 164.181 310.408 164.709 310.984C165.249 311.548 165.999 311.83 166.959 311.83C167.571 311.83 168.111 311.776 168.579 311.668C169.059 311.548 169.551 311.38 170.055 311.164V312.55C169.563 312.766 169.077 312.922 168.597 313.018C168.117 313.126 167.547 313.18 166.887 313.18C165.975 313.18 165.165 312.994 164.457 312.622C163.761 312.25 163.215 311.698 162.819 310.966C162.435 310.222 162.243 309.316 162.243 308.248C162.243 307.192 162.417 306.286 162.765 305.53C163.125 304.774 163.623 304.192 164.259 303.784C164.907 303.376 165.657 303.172 166.509 303.172ZM166.491 304.468C165.735 304.468 165.135 304.714 164.691 305.206C164.259 305.686 164.001 306.358 163.917 307.222H168.831C168.831 306.67 168.747 306.19 168.579 305.782C168.411 305.374 168.153 305.056 167.805 304.828C167.469 304.588 167.031 304.468 166.491 304.468ZM174.329 306.862C174.329 307.426 174.485 307.846 174.797 308.122C175.121 308.386 175.583 308.518 176.183 308.518C176.783 308.518 177.329 308.428 177.821 308.248C178.313 308.056 178.817 307.804 179.333 307.492V303.352H180.917V313H179.333V308.698C178.793 309.046 178.259 309.322 177.731 309.526C177.215 309.718 176.591 309.814 175.859 309.814C174.875 309.814 174.107 309.556 173.555 309.04C173.015 308.524 172.745 307.834 172.745 306.97V303.352H174.329V306.862ZM187.708 303.172C188.536 303.172 189.244 303.352 189.832 303.712C190.432 304.072 190.888 304.582 191.2 305.242C191.524 305.89 191.686 306.652 191.686 307.528V308.482H185.08C185.104 309.574 185.38 310.408 185.908 310.984C186.448 311.548 187.198 311.83 188.158 311.83C188.77 311.83 189.31 311.776 189.778 311.668C190.258 311.548 190.75 311.38 191.254 311.164V312.55C190.762 312.766 190.276 312.922 189.796 313.018C189.316 313.126 188.746 313.18 188.086 313.18C187.174 313.18 186.364 312.994 185.656 312.622C184.96 312.25 184.414 311.698 184.018 310.966C183.634 310.222 183.442 309.316 183.442 308.248C183.442 307.192 183.616 306.286 183.964 305.53C184.324 304.774 184.822 304.192 185.458 303.784C186.106 303.376 186.856 303.172 187.708 303.172ZM187.69 304.468C186.934 304.468 186.334 304.714 185.89 305.206C185.458 305.686 185.2 306.358 185.116 307.222H190.03C190.03 306.67 189.946 306.19 189.778 305.782C189.61 305.374 189.352 305.056 189.004 304.828C188.668 304.588 188.23 304.468 187.69 304.468ZM195.726 303.352V307.366H200.964V303.352H202.548V313H200.964V308.698H195.726V313H194.142V303.352H195.726ZM207.097 309.238C207.097 309.346 207.091 309.502 207.079 309.706C207.079 309.898 207.073 310.108 207.061 310.336C207.049 310.552 207.037 310.762 207.025 310.966C207.013 311.158 207.001 311.314 206.989 311.434L212.155 303.352H214.099V313H212.623V307.312C212.623 307.12 212.623 306.868 212.623 306.556C212.635 306.244 212.647 305.938 212.659 305.638C212.671 305.326 212.683 305.092 212.695 304.936L207.565 313H205.603V303.352H207.097V309.238ZM223.427 309.238C223.427 309.346 223.421 309.502 223.409 309.706C223.409 309.898 223.403 310.108 223.391 310.336C223.379 310.552 223.367 310.762 223.355 310.966C223.343 311.158 223.331 311.314 223.319 311.434L228.485 303.352H230.429V313H228.953V307.312C228.953 307.12 228.953 306.868 228.953 306.556C228.965 306.244 228.977 305.938 228.989 305.638C229.001 305.326 229.013 305.092 229.025 304.936L223.895 313H221.933V303.352H223.427V309.238ZM246.651 308.158C246.651 308.962 246.543 309.676 246.327 310.3C246.123 310.912 245.823 311.434 245.427 311.866C245.043 312.298 244.569 312.628 244.005 312.856C243.453 313.072 242.835 313.18 242.151 313.18C241.515 313.18 240.927 313.072 240.387 312.856C239.847 312.628 239.379 312.298 238.983 311.866C238.587 311.434 238.275 310.912 238.047 310.3C237.831 309.676 237.723 308.962 237.723 308.158C237.723 307.09 237.903 306.19 238.263 305.458C238.623 304.714 239.139 304.15 239.811 303.766C240.483 303.37 241.281 303.172 242.205 303.172C243.081 303.172 243.849 303.37 244.509 303.766C245.181 304.15 245.703 304.714 246.075 305.458C246.459 306.19 246.651 307.09 246.651 308.158ZM239.361 308.158C239.361 308.914 239.457 309.574 239.649 310.138C239.853 310.69 240.165 311.116 240.585 311.416C241.005 311.716 241.539 311.866 242.187 311.866C242.835 311.866 243.369 311.716 243.789 311.416C244.209 311.116 244.515 310.69 244.707 310.138C244.911 309.574 245.013 308.914 245.013 308.158C245.013 307.39 244.911 306.736 244.707 306.196C244.503 305.656 244.191 305.242 243.771 304.954C243.363 304.654 242.829 304.504 242.169 304.504C241.185 304.504 240.471 304.828 240.027 305.476C239.583 306.124 239.361 307.018 239.361 308.158ZM257.316 303.352V313H255.732V304.702H250.746V313H249.162V303.352H257.316ZM264.984 303.172C266.172 303.172 267.126 303.586 267.846 304.414C268.578 305.242 268.944 306.49 268.944 308.158C268.944 309.25 268.776 310.174 268.44 310.93C268.116 311.674 267.654 312.238 267.054 312.622C266.466 312.994 265.77 313.18 264.966 313.18C264.474 313.18 264.036 313.114 263.652 312.982C263.268 312.85 262.938 312.682 262.662 312.478C262.398 312.262 262.17 312.028 261.978 311.776H261.87C261.894 311.98 261.918 312.238 261.942 312.55C261.966 312.862 261.978 313.132 261.978 313.36V317.32H260.394V303.352H261.69L261.906 304.666H261.978C262.17 304.39 262.398 304.138 262.662 303.91C262.938 303.682 263.262 303.502 263.634 303.37C264.018 303.238 264.468 303.172 264.984 303.172ZM264.696 304.504C264.048 304.504 263.526 304.63 263.13 304.882C262.734 305.122 262.446 305.488 262.266 305.98C262.086 306.472 261.99 307.096 261.978 307.852V308.158C261.978 308.95 262.062 309.622 262.23 310.174C262.398 310.726 262.68 311.146 263.076 311.434C263.484 311.722 264.036 311.866 264.732 311.866C265.32 311.866 265.8 311.704 266.172 311.38C266.556 311.056 266.838 310.618 267.018 310.066C267.21 309.502 267.306 308.86 267.306 308.14C267.306 307.036 267.09 306.154 266.658 305.494C266.238 304.834 265.584 304.504 264.696 304.504ZM275.194 303.172C276.022 303.172 276.73 303.352 277.318 303.712C277.918 304.072 278.374 304.582 278.686 305.242C279.01 305.89 279.172 306.652 279.172 307.528V308.482H272.566C272.59 309.574 272.866 310.408 273.394 310.984C273.934 311.548 274.684 311.83 275.644 311.83C276.256 311.83 276.796 311.776 277.264 311.668C277.744 311.548 278.236 311.38 278.74 311.164V312.55C278.248 312.766 277.762 312.922 277.282 313.018C276.802 313.126 276.232 313.18 275.572 313.18C274.66 313.18 273.85 312.994 273.142 312.622C272.446 312.25 271.9 311.698 271.504 310.966C271.12 310.222 270.928 309.316 270.928 308.248C270.928 307.192 271.102 306.286 271.45 305.53C271.81 304.774 272.308 304.192 272.944 303.784C273.592 303.376 274.342 303.172 275.194 303.172ZM275.176 304.468C274.42 304.468 273.82 304.714 273.376 305.206C272.944 305.686 272.686 306.358 272.602 307.222H277.516C277.516 306.67 277.432 306.19 277.264 305.782C277.096 305.374 276.838 305.056 276.49 304.828C276.154 304.588 275.716 304.468 275.176 304.468ZM288.793 303.352V311.668H290.197V316.348H288.667V313H281.953V316.348H280.441V311.668H281.215C281.767 310.9 282.223 310.066 282.583 309.166C282.955 308.254 283.231 307.306 283.411 306.322C283.603 305.326 283.705 304.336 283.717 303.352H288.793ZM285.121 304.594C285.073 305.41 284.947 306.256 284.743 307.132C284.539 307.996 284.275 308.824 283.951 309.616C283.639 310.408 283.273 311.092 282.853 311.668H287.263V304.594H285.121ZM295.814 303.172C296.642 303.172 297.35 303.352 297.938 303.712C298.538 304.072 298.994 304.582 299.306 305.242C299.63 305.89 299.792 306.652 299.792 307.528V308.482H293.186C293.21 309.574 293.486 310.408 294.014 310.984C294.554 311.548 295.304 311.83 296.264 311.83C296.876 311.83 297.416 311.776 297.884 311.668C298.364 311.548 298.856 311.38 299.36 311.164V312.55C298.868 312.766 298.382 312.922 297.902 313.018C297.422 313.126 296.852 313.18 296.192 313.18C295.28 313.18 294.47 312.994 293.762 312.622C293.066 312.25 292.52 311.698 292.124 310.966C291.74 310.222 291.548 309.316 291.548 308.248C291.548 307.192 291.722 306.286 292.07 305.53C292.43 304.774 292.928 304.192 293.564 303.784C294.212 303.376 294.962 303.172 295.814 303.172ZM295.796 304.468C295.04 304.468 294.44 304.714 293.996 305.206C293.564 305.686 293.306 306.358 293.222 307.222H298.136C298.136 306.67 298.052 306.19 297.884 305.782C297.716 305.374 297.458 305.056 297.11 304.828C296.774 304.588 296.336 304.468 295.796 304.468ZM309.592 313H307.99V304.666H305.146C305.026 306.19 304.876 307.492 304.696 308.572C304.516 309.64 304.288 310.51 304.012 311.182C303.736 311.854 303.406 312.346 303.022 312.658C302.638 312.97 302.188 313.126 301.672 313.126C301.516 313.126 301.36 313.114 301.204 313.09C301.06 313.078 300.94 313.048 300.844 313V311.812C300.916 311.836 300.994 311.854 301.078 311.866C301.162 311.878 301.246 311.884 301.33 311.884C301.594 311.884 301.834 311.776 302.05 311.56C302.266 311.344 302.458 311.014 302.626 310.57C302.806 310.126 302.968 309.568 303.112 308.896C303.256 308.212 303.382 307.408 303.49 306.484C303.598 305.56 303.694 304.516 303.778 303.352H309.592V313ZM316.38 303.172C317.208 303.172 317.916 303.352 318.504 303.712C319.104 304.072 319.56 304.582 319.872 305.242C320.196 305.89 320.358 306.652 320.358 307.528V308.482H313.752C313.776 309.574 314.052 310.408 314.58 310.984C315.12 311.548 315.87 311.83 316.83 311.83C317.442 311.83 317.982 311.776 318.45 311.668C318.93 311.548 319.422 311.38 319.926 311.164V312.55C319.434 312.766 318.948 312.922 318.468 313.018C317.988 313.126 317.418 313.18 316.758 313.18C315.846 313.18 315.036 312.994 314.328 312.622C313.632 312.25 313.086 311.698 312.69 310.966C312.306 310.222 312.114 309.316 312.114 308.248C312.114 307.192 312.288 306.286 312.636 305.53C312.996 304.774 313.494 304.192 314.13 303.784C314.778 303.376 315.528 303.172 316.38 303.172ZM316.362 304.468C315.606 304.468 315.006 304.714 314.562 305.206C314.13 305.686 313.872 306.358 313.788 307.222H318.702C318.702 306.67 318.618 306.19 318.45 305.782C318.282 305.374 318.024 305.056 317.676 304.828C317.34 304.588 316.902 304.468 316.362 304.468ZM324.398 303.352V307.366H329.636V303.352H331.22V313H329.636V308.698H324.398V313H322.814V303.352H324.398ZM335.769 309.238C335.769 309.346 335.763 309.502 335.751 309.706C335.751 309.898 335.745 310.108 335.733 310.336C335.721 310.552 335.709 310.762 335.697 310.966C335.685 311.158 335.673 311.314 335.661 311.434L340.827 303.352H342.771V313H341.295V307.312C341.295 307.12 341.295 306.868 341.295 306.556C341.307 306.244 341.319 305.938 341.331 305.638C341.343 305.326 341.355 305.092 341.367 304.936L336.237 313H334.275V303.352H335.769V309.238ZM346.436 313H344.6L347.354 308.95C346.982 308.854 346.622 308.704 346.274 308.5C345.926 308.284 345.644 307.99 345.428 307.618C345.212 307.234 345.104 306.76 345.104 306.196C345.104 305.272 345.416 304.57 346.04 304.09C346.664 303.598 347.492 303.352 348.524 303.352H352.844V313H351.26V309.166H348.92L346.436 313ZM346.634 306.214C346.634 306.766 346.838 307.18 347.246 307.456C347.666 307.72 348.248 307.852 348.992 307.852H351.26V304.666H348.686C347.954 304.666 347.426 304.81 347.102 305.098C346.79 305.386 346.634 305.758 346.634 306.214ZM142.446 336L140.898 332.022H135.804L134.274 336H132.636L137.658 323.094H139.116L144.12 336H142.446ZM138.972 326.694C138.936 326.598 138.876 326.424 138.792 326.172C138.708 325.92 138.624 325.662 138.54 325.398C138.468 325.122 138.408 324.912 138.36 324.768C138.3 325.008 138.234 325.254 138.162 325.506C138.102 325.746 138.036 325.968 137.964 326.172C137.904 326.376 137.85 326.55 137.802 326.694L136.344 330.582H140.412L138.972 326.694ZM152.16 322.968V324.552C153.552 324.576 154.65 324.804 155.454 325.236C156.258 325.668 156.828 326.244 157.164 326.964C157.5 327.672 157.668 328.464 157.668 329.34C157.668 329.916 157.578 330.492 157.398 331.068C157.23 331.632 156.936 332.148 156.516 332.616C156.096 333.072 155.532 333.444 154.824 333.732C154.116 334.02 153.228 334.176 152.16 334.2V336.18H150.558V334.2C149.466 334.176 148.56 334.02 147.84 333.732C147.132 333.432 146.574 333.048 146.166 332.58C145.758 332.1 145.47 331.578 145.302 331.014C145.134 330.45 145.05 329.892 145.05 329.34C145.05 328.704 145.14 328.104 145.32 327.54C145.512 326.964 145.818 326.46 146.238 326.028C146.67 325.584 147.24 325.23 147.948 324.966C148.656 324.702 149.526 324.564 150.558 324.552V322.968H152.16ZM150.558 325.92C149.598 325.944 148.83 326.1 148.254 326.388C147.69 326.676 147.288 327.072 147.048 327.576C146.808 328.068 146.688 328.65 146.688 329.322C146.688 330.03 146.82 330.648 147.084 331.176C147.36 331.692 147.78 332.094 148.344 332.382C148.92 332.67 149.658 332.832 150.558 332.868V325.92ZM152.16 332.868C153.084 332.832 153.828 332.664 154.392 332.364C154.968 332.064 155.382 331.656 155.634 331.14C155.898 330.612 156.03 330.006 156.03 329.322C156.03 328.638 155.91 328.05 155.67 327.558C155.43 327.054 155.028 326.664 154.464 326.388C153.9 326.1 153.132 325.944 152.16 325.92V332.868ZM160.345 336V323.148H169.993V336H168.391V324.57H161.965V336H160.345ZM186.212 326.352V336H184.628V327.702H179.642V336H178.058V326.352H186.212ZM197.679 331.158C197.679 331.962 197.571 332.676 197.355 333.3C197.151 333.912 196.851 334.434 196.455 334.866C196.071 335.298 195.597 335.628 195.033 335.856C194.481 336.072 193.863 336.18 193.179 336.18C192.543 336.18 191.955 336.072 191.415 335.856C190.875 335.628 190.407 335.298 190.011 334.866C189.615 334.434 189.303 333.912 189.075 333.3C188.859 332.676 188.751 331.962 188.751 331.158C188.751 330.09 188.931 329.19 189.291 328.458C189.651 327.714 190.167 327.15 190.839 326.766C191.511 326.37 192.309 326.172 193.233 326.172C194.109 326.172 194.877 326.37 195.537 326.766C196.209 327.15 196.731 327.714 197.103 328.458C197.487 329.19 197.679 330.09 197.679 331.158ZM190.389 331.158C190.389 331.914 190.485 332.574 190.677 333.138C190.881 333.69 191.193 334.116 191.613 334.416C192.033 334.716 192.567 334.866 193.215 334.866C193.863 334.866 194.397 334.716 194.817 334.416C195.237 334.116 195.543 333.69 195.735 333.138C195.939 332.574 196.041 331.914 196.041 331.158C196.041 330.39 195.939 329.736 195.735 329.196C195.531 328.656 195.219 328.242 194.799 327.954C194.391 327.654 193.857 327.504 193.197 327.504C192.213 327.504 191.499 327.828 191.055 328.476C190.611 329.124 190.389 330.018 190.389 331.158ZM202.727 326.172C203.459 326.172 204.095 326.274 204.635 326.478C205.175 326.67 205.595 326.958 205.895 327.342C206.195 327.714 206.345 328.17 206.345 328.71C206.345 329.298 206.183 329.766 205.859 330.114C205.535 330.45 205.091 330.696 204.527 330.852V330.924C204.911 331.032 205.265 331.182 205.589 331.374C205.913 331.566 206.171 331.818 206.363 332.13C206.567 332.442 206.669 332.844 206.669 333.336C206.669 333.864 206.519 334.344 206.219 334.776C205.931 335.208 205.481 335.55 204.869 335.802C204.269 336.054 203.495 336.18 202.547 336.18C202.091 336.18 201.653 336.156 201.233 336.108C200.825 336.06 200.453 335.988 200.117 335.892C199.793 335.796 199.505 335.682 199.253 335.55V334.128C199.661 334.32 200.141 334.494 200.693 334.65C201.257 334.806 201.869 334.884 202.529 334.884C203.009 334.884 203.441 334.83 203.825 334.722C204.221 334.614 204.533 334.446 204.761 334.218C204.989 333.978 205.103 333.654 205.103 333.246C205.103 332.874 205.001 332.574 204.797 332.346C204.593 332.106 204.287 331.926 203.879 331.806C203.483 331.686 202.973 331.626 202.349 331.626H201.053V330.33H202.097C202.925 330.33 203.585 330.222 204.077 330.006C204.581 329.778 204.833 329.394 204.833 328.854C204.833 328.398 204.641 328.056 204.257 327.828C203.885 327.6 203.345 327.486 202.637 327.486C202.109 327.486 201.641 327.54 201.233 327.648C200.837 327.744 200.399 327.894 199.919 328.098L199.361 326.838C199.877 326.61 200.417 326.442 200.981 326.334C201.545 326.226 202.127 326.172 202.727 326.172ZM216.771 328.782C216.771 329.382 216.591 329.85 216.231 330.186C215.871 330.522 215.409 330.75 214.845 330.87V330.942C215.445 331.026 215.967 331.242 216.411 331.59C216.855 331.926 217.077 332.454 217.077 333.174C217.077 333.582 216.999 333.96 216.843 334.308C216.699 334.656 216.471 334.956 216.159 335.208C215.847 335.46 215.445 335.658 214.953 335.802C214.461 335.934 213.867 336 213.171 336H209.013V326.352H213.153C213.837 326.352 214.449 326.43 214.989 326.586C215.541 326.73 215.973 326.982 216.285 327.342C216.609 327.69 216.771 328.17 216.771 328.782ZM215.439 333.174C215.439 332.622 215.229 332.226 214.809 331.986C214.389 331.746 213.771 331.626 212.955 331.626H210.597V334.722H212.991C213.783 334.722 214.389 334.608 214.809 334.38C215.229 334.14 215.439 333.738 215.439 333.174ZM215.169 328.98C215.169 328.524 215.001 328.194 214.665 327.99C214.341 327.774 213.807 327.666 213.063 327.666H210.597V330.312H212.775C213.555 330.312 214.149 330.204 214.557 329.988C214.965 329.772 215.169 329.436 215.169 328.98ZM227.772 331.158C227.772 331.962 227.664 332.676 227.448 333.3C227.244 333.912 226.944 334.434 226.548 334.866C226.164 335.298 225.69 335.628 225.126 335.856C224.574 336.072 223.956 336.18 223.272 336.18C222.636 336.18 222.048 336.072 221.508 335.856C220.968 335.628 220.5 335.298 220.104 334.866C219.708 334.434 219.396 333.912 219.168 333.3C218.952 332.676 218.844 331.962 218.844 331.158C218.844 330.09 219.024 329.19 219.384 328.458C219.744 327.714 220.26 327.15 220.932 326.766C221.604 326.37 222.402 326.172 223.326 326.172C224.202 326.172 224.97 326.37 225.63 326.766C226.302 327.15 226.824 327.714 227.196 328.458C227.58 329.19 227.772 330.09 227.772 331.158ZM220.482 331.158C220.482 331.914 220.578 332.574 220.77 333.138C220.974 333.69 221.286 334.116 221.706 334.416C222.126 334.716 222.66 334.866 223.308 334.866C223.956 334.866 224.49 334.716 224.91 334.416C225.33 334.116 225.636 333.69 225.828 333.138C226.032 332.574 226.134 331.914 226.134 331.158C226.134 330.39 226.032 329.736 225.828 329.196C225.624 328.656 225.312 328.242 224.892 327.954C224.484 327.654 223.95 327.504 223.29 327.504C222.306 327.504 221.592 327.828 221.148 328.476C220.704 329.124 220.482 330.018 220.482 331.158ZM237.627 336H236.025V327.666H233.181C233.061 329.19 232.911 330.492 232.731 331.572C232.551 332.64 232.323 333.51 232.047 334.182C231.771 334.854 231.441 335.346 231.057 335.658C230.673 335.97 230.223 336.126 229.707 336.126C229.551 336.126 229.395 336.114 229.239 336.09C229.095 336.078 228.975 336.048 228.879 336V334.812C228.951 334.836 229.029 334.854 229.113 334.866C229.197 334.878 229.281 334.884 229.365 334.884C229.629 334.884 229.869 334.776 230.085 334.56C230.301 334.344 230.493 334.014 230.661 333.57C230.841 333.126 231.003 332.568 231.147 331.896C231.291 331.212 231.417 330.408 231.525 329.484C231.633 328.56 231.729 327.516 231.813 326.352H237.627V336ZM242.183 332.238C242.183 332.346 242.177 332.502 242.165 332.706C242.165 332.898 242.159 333.108 242.147 333.336C242.135 333.552 242.123 333.762 242.111 333.966C242.099 334.158 242.087 334.314 242.075 334.434L247.241 326.352H249.185V336H247.709V330.312C247.709 330.12 247.709 329.868 247.709 329.556C247.721 329.244 247.733 328.938 247.745 328.638C247.757 328.326 247.769 328.092 247.781 327.936L242.651 336H240.689V326.352H242.183V332.238ZM258.916 327.684H255.766V336H254.2V327.684H251.086V326.352H258.916V327.684ZM269.45 336.18C268.598 336.18 267.836 336.006 267.164 335.658C266.504 335.31 265.982 334.77 265.598 334.038C265.226 333.306 265.04 332.37 265.04 331.23C265.04 330.042 265.238 329.076 265.634 328.332C266.03 327.588 266.564 327.042 267.236 326.694C267.92 326.346 268.694 326.172 269.558 326.172C270.05 326.172 270.524 326.226 270.98 326.334C271.436 326.43 271.808 326.55 272.096 326.694L271.61 328.008C271.322 327.9 270.986 327.798 270.602 327.702C270.218 327.606 269.858 327.558 269.522 327.558C268.874 327.558 268.34 327.696 267.92 327.972C267.5 328.248 267.188 328.656 266.984 329.196C266.78 329.736 266.678 330.408 266.678 331.212C266.678 331.98 266.78 332.634 266.984 333.174C267.188 333.714 267.494 334.122 267.902 334.398C268.31 334.674 268.82 334.812 269.432 334.812C269.96 334.812 270.422 334.758 270.818 334.65C271.226 334.542 271.598 334.41 271.934 334.254V335.658C271.61 335.826 271.25 335.952 270.854 336.036C270.47 336.132 270.002 336.18 269.45 336.18ZM275.812 326.352V330.366H281.05V326.352H282.634V336H281.05V331.698H275.812V336H274.228V326.352H275.812ZM287.183 332.238C287.183 332.346 287.177 332.502 287.165 332.706C287.165 332.898 287.159 333.108 287.147 333.336C287.135 333.552 287.123 333.762 287.111 333.966C287.099 334.158 287.087 334.314 287.075 334.434L292.241 326.352H294.185V336H292.709V330.312C292.709 330.12 292.709 329.868 292.709 329.556C292.721 329.244 292.733 328.938 292.745 328.638C292.757 328.326 292.769 328.092 292.781 327.936L287.651 336H285.689V326.352H287.183V332.238ZM299.794 326.172C300.526 326.172 301.162 326.274 301.702 326.478C302.242 326.67 302.662 326.958 302.962 327.342C303.262 327.714 303.412 328.17 303.412 328.71C303.412 329.298 303.25 329.766 302.926 330.114C302.602 330.45 302.158 330.696 301.594 330.852V330.924C301.978 331.032 302.332 331.182 302.656 331.374C302.98 331.566 303.238 331.818 303.43 332.13C303.634 332.442 303.736 332.844 303.736 333.336C303.736 333.864 303.586 334.344 303.286 334.776C302.998 335.208 302.548 335.55 301.936 335.802C301.336 336.054 300.562 336.18 299.614 336.18C299.158 336.18 298.72 336.156 298.3 336.108C297.892 336.06 297.52 335.988 297.184 335.892C296.86 335.796 296.572 335.682 296.32 335.55V334.128C296.728 334.32 297.208 334.494 297.76 334.65C298.324 334.806 298.936 334.884 299.596 334.884C300.076 334.884 300.508 334.83 300.892 334.722C301.288 334.614 301.6 334.446 301.828 334.218C302.056 333.978 302.17 333.654 302.17 333.246C302.17 332.874 302.068 332.574 301.864 332.346C301.66 332.106 301.354 331.926 300.946 331.806C300.55 331.686 300.04 331.626 299.416 331.626H298.12V330.33H299.164C299.992 330.33 300.652 330.222 301.144 330.006C301.648 329.778 301.9 329.394 301.9 328.854C301.9 328.398 301.708 328.056 301.324 327.828C300.952 327.6 300.412 327.486 299.704 327.486C299.176 327.486 298.708 327.54 298.3 327.648C297.904 327.744 297.466 327.894 296.986 328.098L296.428 326.838C296.944 326.61 297.484 326.442 298.048 326.334C298.612 326.226 299.194 326.172 299.794 326.172ZM307.574 332.238C307.574 332.346 307.568 332.502 307.556 332.706C307.556 332.898 307.55 333.108 307.538 333.336C307.526 333.552 307.514 333.762 307.502 333.966C307.49 334.158 307.478 334.314 307.466 334.434L312.632 326.352H314.576V336H313.1V330.312C313.1 330.12 313.1 329.868 313.1 329.556C313.112 329.244 313.124 328.938 313.136 328.638C313.148 328.326 313.16 328.092 313.172 327.936L308.042 336H306.08V326.352H307.574V332.238ZM324.306 327.684H321.156V336H319.59V327.684H316.476V326.352H324.306V327.684ZM330.653 330.312C331.493 330.312 332.189 330.414 332.741 330.618C333.293 330.822 333.707 331.128 333.983 331.536C334.271 331.932 334.415 332.436 334.415 333.048C334.415 333.648 334.277 334.17 334.001 334.614C333.737 335.058 333.323 335.4 332.759 335.64C332.195 335.88 331.469 336 330.581 336H326.207V326.352H327.791V330.312H330.653ZM332.831 333.138C332.831 332.55 332.621 332.154 332.201 331.95C331.793 331.734 331.217 331.626 330.473 331.626H327.791V334.722H330.509C331.181 334.722 331.733 334.602 332.165 334.362C332.609 334.122 332.831 333.714 332.831 333.138ZM118.436 359.18C117.584 359.18 116.822 359.006 116.15 358.658C115.49 358.31 114.968 357.77 114.584 357.038C114.212 356.306 114.026 355.37 114.026 354.23C114.026 353.042 114.224 352.076 114.62 351.332C115.016 350.588 115.55 350.042 116.222 349.694C116.906 349.346 117.68 349.172 118.544 349.172C119.036 349.172 119.51 349.226 119.966 349.334C120.422 349.43 120.794 349.55 121.082 349.694L120.596 351.008C120.308 350.9 119.972 350.798 119.588 350.702C119.204 350.606 118.844 350.558 118.508 350.558C117.86 350.558 117.326 350.696 116.906 350.972C116.486 351.248 116.174 351.656 115.97 352.196C115.766 352.736 115.664 353.408 115.664 354.212C115.664 354.98 115.766 355.634 115.97 356.174C116.174 356.714 116.48 357.122 116.888 357.398C117.296 357.674 117.806 357.812 118.418 357.812C118.946 357.812 119.408 357.758 119.804 357.65C120.212 357.542 120.584 357.41 120.92 357.254V358.658C120.596 358.826 120.236 358.952 119.84 359.036C119.456 359.132 118.988 359.18 118.436 359.18ZM133.565 349.352V359H132.143V352.844C132.143 352.592 132.149 352.328 132.161 352.052C132.185 351.776 132.209 351.506 132.233 351.242H132.179L129.029 359H127.697L124.637 351.242H124.583C124.607 351.506 124.619 351.776 124.619 352.052C124.631 352.328 124.637 352.61 124.637 352.898V359H123.215V349.352H125.321L128.363 357.11L131.459 349.352H133.565ZM140.37 349.172C141.198 349.172 141.906 349.352 142.494 349.712C143.094 350.072 143.55 350.582 143.862 351.242C144.186 351.89 144.348 352.652 144.348 353.528V354.482H137.742C137.766 355.574 138.042 356.408 138.57 356.984C139.11 357.548 139.86 357.83 140.82 357.83C141.432 357.83 141.972 357.776 142.44 357.668C142.92 357.548 143.412 357.38 143.916 357.164V358.55C143.424 358.766 142.938 358.922 142.458 359.018C141.978 359.126 141.408 359.18 140.748 359.18C139.836 359.18 139.026 358.994 138.318 358.622C137.622 358.25 137.076 357.698 136.68 356.966C136.296 356.222 136.104 355.316 136.104 354.248C136.104 353.192 136.278 352.286 136.626 351.53C136.986 350.774 137.484 350.192 138.12 349.784C138.768 349.376 139.518 349.172 140.37 349.172ZM140.352 350.468C139.596 350.468 138.996 350.714 138.552 351.206C138.12 351.686 137.862 352.358 137.778 353.222H142.692C142.692 352.67 142.608 352.19 142.44 351.782C142.272 351.374 142.014 351.056 141.666 350.828C141.33 350.588 140.892 350.468 140.352 350.468ZM151.394 349.172C152.582 349.172 153.536 349.586 154.256 350.414C154.988 351.242 155.354 352.49 155.354 354.158C155.354 355.25 155.186 356.174 154.85 356.93C154.526 357.674 154.064 358.238 153.464 358.622C152.876 358.994 152.18 359.18 151.376 359.18C150.884 359.18 150.446 359.114 150.062 358.982C149.678 358.85 149.348 358.682 149.072 358.478C148.808 358.262 148.58 358.028 148.388 357.776H148.28C148.304 357.98 148.328 358.238 148.352 358.55C148.376 358.862 148.388 359.132 148.388 359.36V363.32H146.804V349.352H148.1L148.316 350.666H148.388C148.58 350.39 148.808 350.138 149.072 349.91C149.348 349.682 149.672 349.502 150.044 349.37C150.428 349.238 150.878 349.172 151.394 349.172ZM151.106 350.504C150.458 350.504 149.936 350.63 149.54 350.882C149.144 351.122 148.856 351.488 148.676 351.98C148.496 352.472 148.4 353.096 148.388 353.852V354.158C148.388 354.95 148.472 355.622 148.64 356.174C148.808 356.726 149.09 357.146 149.486 357.434C149.894 357.722 150.446 357.866 151.142 357.866C151.73 357.866 152.21 357.704 152.582 357.38C152.966 357.056 153.248 356.618 153.428 356.066C153.62 355.502 153.716 354.86 153.716 354.14C153.716 353.036 153.5 352.154 153.068 351.494C152.648 350.834 151.994 350.504 151.106 350.504ZM164.363 350.684H161.213V359H159.647V350.684H156.533V349.352H164.363V350.684ZM167.847 349.352V353.366H173.085V349.352H174.669V359H173.085V354.698H167.847V359H166.263V349.352H167.847ZM186.112 354.158C186.112 354.962 186.004 355.676 185.788 356.3C185.584 356.912 185.284 357.434 184.888 357.866C184.504 358.298 184.03 358.628 183.466 358.856C182.914 359.072 182.296 359.18 181.612 359.18C180.976 359.18 180.388 359.072 179.848 358.856C179.308 358.628 178.84 358.298 178.444 357.866C178.048 357.434 177.736 356.912 177.508 356.3C177.292 355.676 177.184 354.962 177.184 354.158C177.184 353.09 177.364 352.19 177.724 351.458C178.084 350.714 178.6 350.15 179.272 349.766C179.944 349.37 180.742 349.172 181.666 349.172C182.542 349.172 183.31 349.37 183.97 349.766C184.642 350.15 185.164 350.714 185.536 351.458C185.92 352.19 186.112 353.09 186.112 354.158ZM178.822 354.158C178.822 354.914 178.918 355.574 179.11 356.138C179.314 356.69 179.626 357.116 180.046 357.416C180.466 357.716 181 357.866 181.648 357.866C182.296 357.866 182.83 357.716 183.25 357.416C183.67 357.116 183.976 356.69 184.168 356.138C184.372 355.574 184.474 354.914 184.474 354.158C184.474 353.39 184.372 352.736 184.168 352.196C183.964 351.656 183.652 351.242 183.232 350.954C182.824 350.654 182.29 350.504 181.63 350.504C180.646 350.504 179.932 350.828 179.488 351.476C179.044 352.124 178.822 353.018 178.822 354.158ZM192.493 359.18C191.641 359.18 190.879 359.006 190.207 358.658C189.547 358.31 189.025 357.77 188.641 357.038C188.269 356.306 188.083 355.37 188.083 354.23C188.083 353.042 188.281 352.076 188.677 351.332C189.073 350.588 189.607 350.042 190.279 349.694C190.963 349.346 191.737 349.172 192.601 349.172C193.093 349.172 193.567 349.226 194.023 349.334C194.479 349.43 194.851 349.55 195.139 349.694L194.653 351.008C194.365 350.9 194.029 350.798 193.645 350.702C193.261 350.606 192.901 350.558 192.565 350.558C191.917 350.558 191.383 350.696 190.963 350.972C190.543 351.248 190.231 351.656 190.027 352.196C189.823 352.736 189.721 353.408 189.721 354.212C189.721 354.98 189.823 355.634 190.027 356.174C190.231 356.714 190.537 357.122 190.945 357.398C191.353 357.674 191.863 357.812 192.475 357.812C193.003 357.812 193.465 357.758 193.861 357.65C194.269 357.542 194.641 357.41 194.977 357.254V358.658C194.653 358.826 194.293 358.952 193.897 359.036C193.513 359.132 193.045 359.18 192.493 359.18ZM203.931 350.684H200.781V359H199.215V350.684H196.101V349.352H203.931V350.684ZM210.278 353.312C211.118 353.312 211.814 353.414 212.366 353.618C212.918 353.822 213.332 354.128 213.608 354.536C213.896 354.932 214.04 355.436 214.04 356.048C214.04 356.648 213.902 357.17 213.626 357.614C213.362 358.058 212.948 358.4 212.384 358.64C211.82 358.88 211.094 359 210.206 359H205.832V349.352H207.416V353.312H210.278ZM212.456 356.138C212.456 355.55 212.246 355.154 211.826 354.95C211.418 354.734 210.842 354.626 210.098 354.626H207.416V357.722H210.134C210.806 357.722 211.358 357.602 211.79 357.362C212.234 357.122 212.456 356.714 212.456 356.138ZM229.671 354.158C229.671 354.962 229.563 355.676 229.347 356.3C229.143 356.912 228.843 357.434 228.447 357.866C228.063 358.298 227.589 358.628 227.025 358.856C226.473 359.072 225.855 359.18 225.171 359.18C224.535 359.18 223.947 359.072 223.407 358.856C222.867 358.628 222.399 358.298 222.003 357.866C221.607 357.434 221.295 356.912 221.067 356.3C220.851 355.676 220.743 354.962 220.743 354.158C220.743 353.09 220.923 352.19 221.283 351.458C221.643 350.714 222.159 350.15 222.831 349.766C223.503 349.37 224.301 349.172 225.225 349.172C226.101 349.172 226.869 349.37 227.529 349.766C228.201 350.15 228.723 350.714 229.095 351.458C229.479 352.19 229.671 353.09 229.671 354.158ZM222.381 354.158C222.381 354.914 222.477 355.574 222.669 356.138C222.873 356.69 223.185 357.116 223.605 357.416C224.025 357.716 224.559 357.866 225.207 357.866C225.855 357.866 226.389 357.716 226.809 357.416C227.229 357.116 227.535 356.69 227.727 356.138C227.931 355.574 228.033 354.914 228.033 354.158C228.033 353.39 227.931 352.736 227.727 352.196C227.523 351.656 227.211 351.242 226.791 350.954C226.383 350.654 225.849 350.504 225.189 350.504C224.205 350.504 223.491 350.828 223.047 351.476C222.603 352.124 222.381 353.018 222.381 354.158ZM238.666 350.684H235.516V359H233.95V350.684H230.836V349.352H238.666V350.684ZM249.92 349.172C251.108 349.172 252.062 349.586 252.782 350.414C253.514 351.242 253.88 352.49 253.88 354.158C253.88 355.25 253.712 356.174 253.376 356.93C253.052 357.674 252.59 358.238 251.99 358.622C251.402 358.994 250.706 359.18 249.902 359.18C249.41 359.18 248.972 359.114 248.588 358.982C248.204 358.85 247.874 358.682 247.598 358.478C247.334 358.262 247.106 358.028 246.914 357.776H246.806C246.83 357.98 246.854 358.238 246.878 358.55C246.902 358.862 246.914 359.132 246.914 359.36V363.32H245.33V349.352H246.626L246.842 350.666H246.914C247.106 350.39 247.334 350.138 247.598 349.91C247.874 349.682 248.198 349.502 248.57 349.37C248.954 349.238 249.404 349.172 249.92 349.172ZM249.632 350.504C248.984 350.504 248.462 350.63 248.066 350.882C247.67 351.122 247.382 351.488 247.202 351.98C247.022 352.472 246.926 353.096 246.914 353.852V354.158C246.914 354.95 246.998 355.622 247.166 356.174C247.334 356.726 247.616 357.146 248.012 357.434C248.42 357.722 248.972 357.866 249.668 357.866C250.256 357.866 250.736 357.704 251.108 357.38C251.492 357.056 251.774 356.618 251.954 356.066C252.146 355.502 252.242 354.86 252.242 354.14C252.242 353.036 252.026 352.154 251.594 351.494C251.174 350.834 250.52 350.504 249.632 350.504ZM260.058 349.19C261.234 349.19 262.104 349.448 262.668 349.964C263.232 350.48 263.514 351.302 263.514 352.43V359H262.362L262.056 357.632H261.984C261.708 357.98 261.42 358.274 261.12 358.514C260.832 358.742 260.496 358.91 260.112 359.018C259.74 359.126 259.284 359.18 258.744 359.18C258.168 359.18 257.646 359.078 257.178 358.874C256.722 358.67 256.362 358.358 256.098 357.938C255.834 357.506 255.702 356.966 255.702 356.318C255.702 355.358 256.08 354.62 256.836 354.104C257.592 353.576 258.756 353.288 260.328 353.24L261.966 353.186V352.61C261.966 351.806 261.792 351.248 261.444 350.936C261.096 350.624 260.604 350.468 259.968 350.468C259.464 350.468 258.984 350.546 258.528 350.702C258.072 350.846 257.646 351.014 257.25 351.206L256.764 350.018C257.184 349.79 257.682 349.598 258.258 349.442C258.834 349.274 259.434 349.19 260.058 349.19ZM260.526 354.338C259.326 354.386 258.492 354.578 258.024 354.914C257.568 355.25 257.34 355.724 257.34 356.336C257.34 356.876 257.502 357.272 257.826 357.524C258.162 357.776 258.588 357.902 259.104 357.902C259.92 357.902 260.598 357.68 261.138 357.236C261.678 356.78 261.948 356.084 261.948 355.148V354.284L260.526 354.338ZM272.2 349.352H273.928L269.806 353.996L274.27 359H272.434L268.078 354.104V359H266.494V349.352H268.078V354.032L272.2 349.352ZM279.675 349.19C280.851 349.19 281.721 349.448 282.285 349.964C282.849 350.48 283.131 351.302 283.131 352.43V359H281.979L281.673 357.632H281.601C281.325 357.98 281.037 358.274 280.737 358.514C280.449 358.742 280.113 358.91 279.729 359.018C279.357 359.126 278.901 359.18 278.361 359.18C277.785 359.18 277.263 359.078 276.795 358.874C276.339 358.67 275.979 358.358 275.715 357.938C275.451 357.506 275.319 356.966 275.319 356.318C275.319 355.358 275.697 354.62 276.453 354.104C277.209 353.576 278.373 353.288 279.945 353.24L281.583 353.186V352.61C281.583 351.806 281.409 351.248 281.061 350.936C280.713 350.624 280.221 350.468 279.585 350.468C279.081 350.468 278.601 350.546 278.145 350.702C277.689 350.846 277.263 351.014 276.867 351.206L276.381 350.018C276.801 349.79 277.299 349.598 277.875 349.442C278.451 349.274 279.051 349.19 279.675 349.19ZM280.143 354.338C278.943 354.386 278.109 354.578 277.641 354.914C277.185 355.25 276.957 355.724 276.957 356.336C276.957 356.876 277.119 357.272 277.443 357.524C277.779 357.776 278.205 357.902 278.721 357.902C279.537 357.902 280.215 357.68 280.755 357.236C281.295 356.78 281.565 356.084 281.565 355.148V354.284L280.143 354.338ZM299.029 349.352V359H297.445V350.702H292.459V359H290.875V349.352H299.029ZM305.833 349.172C306.661 349.172 307.369 349.352 307.957 349.712C308.557 350.072 309.013 350.582 309.325 351.242C309.649 351.89 309.811 352.652 309.811 353.528V354.482H303.205C303.229 355.574 303.505 356.408 304.033 356.984C304.573 357.548 305.323 357.83 306.283 357.83C306.895 357.83 307.435 357.776 307.903 357.668C308.383 357.548 308.875 357.38 309.379 357.164V358.55C308.887 358.766 308.401 358.922 307.921 359.018C307.441 359.126 306.871 359.18 306.211 359.18C305.299 359.18 304.489 358.994 303.781 358.622C303.085 358.25 302.539 357.698 302.143 356.966C301.759 356.222 301.567 355.316 301.567 354.248C301.567 353.192 301.741 352.286 302.089 351.53C302.449 350.774 302.947 350.192 303.583 349.784C304.231 349.376 304.981 349.172 305.833 349.172ZM305.815 350.468C305.059 350.468 304.459 350.714 304.015 351.206C303.583 351.686 303.325 352.358 303.241 353.222H308.155C308.155 352.67 308.071 352.19 307.903 351.782C307.735 351.374 307.477 351.056 307.129 350.828C306.793 350.588 306.355 350.468 305.815 350.468ZM313.653 352.862C313.653 353.426 313.809 353.846 314.121 354.122C314.445 354.386 314.907 354.518 315.507 354.518C316.107 354.518 316.653 354.428 317.145 354.248C317.637 354.056 318.141 353.804 318.657 353.492V349.352H320.241V359H318.657V354.698C318.117 355.046 317.583 355.322 317.055 355.526C316.539 355.718 315.915 355.814 315.183 355.814C314.199 355.814 313.431 355.556 312.879 355.04C312.339 354.524 312.069 353.834 312.069 352.97V349.352H313.653V352.862ZM327.032 349.172C327.86 349.172 328.568 349.352 329.156 349.712C329.756 350.072 330.212 350.582 330.524 351.242C330.848 351.89 331.01 352.652 331.01 353.528V354.482H324.404C324.428 355.574 324.704 356.408 325.232 356.984C325.772 357.548 326.522 357.83 327.482 357.83C328.094 357.83 328.634 357.776 329.102 357.668C329.582 357.548 330.074 357.38 330.578 357.164V358.55C330.086 358.766 329.6 358.922 329.12 359.018C328.64 359.126 328.07 359.18 327.41 359.18C326.498 359.18 325.688 358.994 324.98 358.622C324.284 358.25 323.738 357.698 323.342 356.966C322.958 356.222 322.766 355.316 322.766 354.248C322.766 353.192 322.94 352.286 323.288 351.53C323.648 350.774 324.146 350.192 324.782 349.784C325.43 349.376 326.18 349.172 327.032 349.172ZM327.014 350.468C326.258 350.468 325.658 350.714 325.214 351.206C324.782 351.686 324.524 352.358 324.44 353.222H329.354C329.354 352.67 329.27 352.19 329.102 351.782C328.934 351.374 328.676 351.056 328.328 350.828C327.992 350.588 327.554 350.468 327.014 350.468ZM335.051 349.352V353.366H340.289V349.352H341.873V359H340.289V354.698H335.051V359H333.467V349.352H335.051ZM346.421 355.238C346.421 355.346 346.415 355.502 346.403 355.706C346.403 355.898 346.397 356.108 346.385 356.336C346.373 356.552 346.361 356.762 346.349 356.966C346.337 357.158 346.325 357.314 346.313 357.434L351.479 349.352H353.423V359H351.947V353.312C351.947 353.12 351.947 352.868 351.947 352.556C351.959 352.244 351.971 351.938 351.983 351.638C351.995 351.326 352.007 351.092 352.019 350.936L346.889 359H344.927V349.352H346.421V355.238Z" fill="black"/>
<path d="M209.754 189.384C208.282 189.384 206.949 189.128 205.754 188.616C204.559 188.083 203.599 187.272 202.874 186.184C202.149 185.096 201.765 183.731 201.722 182.088H205.754C205.775 183.176 206.127 184.093 206.81 184.84C207.514 185.565 208.495 185.928 209.754 185.928C210.949 185.928 211.866 185.597 212.506 184.936C213.146 184.275 213.466 183.443 213.466 182.44C213.466 181.267 213.039 180.381 212.186 179.784C211.354 179.165 210.277 178.856 208.954 178.856H207.29V175.496H208.986C210.074 175.496 210.981 175.24 211.706 174.728C212.431 174.216 212.794 173.459 212.794 172.456C212.794 171.624 212.517 170.963 211.962 170.472C211.429 169.96 210.682 169.704 209.722 169.704C208.677 169.704 207.855 170.013 207.258 170.632C206.682 171.251 206.362 172.008 206.298 172.904H202.298C202.383 170.835 203.098 169.203 204.442 168.008C205.807 166.813 207.567 166.216 209.722 166.216C211.258 166.216 212.549 166.493 213.594 167.048C214.661 167.581 215.461 168.296 215.994 169.192C216.549 170.088 216.826 171.08 216.826 172.168C216.826 173.427 216.474 174.493 215.77 175.368C215.087 176.221 214.234 176.797 213.21 177.096C214.469 177.352 215.493 177.971 216.282 178.952C217.071 179.912 217.466 181.128 217.466 182.6C217.466 183.837 217.167 184.968 216.57 185.992C215.973 187.016 215.098 187.837 213.946 188.456C212.815 189.075 211.418 189.384 209.754 189.384ZM228.817 189.384C227.345 189.384 226.011 189.128 224.817 188.616C223.622 188.083 222.662 187.272 221.937 186.184C221.211 185.096 220.827 183.731 220.785 182.088H224.817C224.838 183.176 225.19 184.093 225.873 184.84C226.577 185.565 227.558 185.928 228.817 185.928C230.011 185.928 230.929 185.597 231.569 184.936C232.209 184.275 232.529 183.443 232.529 182.44C232.529 181.267 232.102 180.381 231.249 179.784C230.417 179.165 229.339 178.856 228.017 178.856H226.353V175.496H228.049C229.137 175.496 230.043 175.24 230.769 174.728C231.494 174.216 231.857 173.459 231.857 172.456C231.857 171.624 231.579 170.963 231.025 170.472C230.491 169.96 229.745 169.704 228.785 169.704C227.739 169.704 226.918 170.013 226.321 170.632C225.745 171.251 225.425 172.008 225.361 172.904H221.361C221.446 170.835 222.161 169.203 223.505 168.008C224.87 166.813 226.63 166.216 228.785 166.216C230.321 166.216 231.611 166.493 232.657 167.048C233.723 167.581 234.523 168.296 235.057 169.192C235.611 170.088 235.889 171.08 235.889 172.168C235.889 173.427 235.537 174.493 234.833 175.368C234.15 176.221 233.297 176.797 232.273 177.096C233.531 177.352 234.555 177.971 235.345 178.952C236.134 179.912 236.529 181.128 236.529 182.6C236.529 183.837 236.23 184.968 235.633 185.992C235.035 187.016 234.161 187.837 233.009 188.456C231.878 189.075 230.481 189.384 228.817 189.384ZM244.878 177.608C243.854 177.608 242.926 177.384 242.094 176.936C241.262 176.467 240.6 175.805 240.11 174.952C239.619 174.099 239.374 173.085 239.374 171.912C239.374 170.739 239.619 169.725 240.11 168.872C240.6 168.019 241.262 167.368 242.094 166.92C242.926 166.451 243.864 166.216 244.91 166.216C245.934 166.216 246.851 166.451 247.662 166.92C248.494 167.368 249.155 168.019 249.646 168.872C250.136 169.725 250.382 170.739 250.382 171.912C250.382 173.085 250.136 174.099 249.646 174.952C249.155 175.805 248.494 176.467 247.662 176.936C246.83 177.384 245.902 177.608 244.878 177.608ZM243.662 189L256.302 166.6H260.302L247.662 189H243.662ZM244.878 174.76C245.496 174.76 246.03 174.525 246.478 174.056C246.926 173.565 247.15 172.851 247.15 171.912C247.15 170.973 246.926 170.259 246.478 169.768C246.051 169.277 245.518 169.032 244.878 169.032C244.238 169.032 243.694 169.277 243.246 169.768C242.819 170.259 242.606 170.973 242.606 171.912C242.606 172.851 242.819 173.565 243.246 174.056C243.694 174.525 244.238 174.76 244.878 174.76ZM259.214 189.384C258.19 189.384 257.262 189.16 256.43 188.712C255.598 188.243 254.936 187.581 254.446 186.728C253.955 185.875 253.71 184.861 253.71 183.688C253.71 182.515 253.955 181.512 254.446 180.68C254.936 179.827 255.598 179.176 256.43 178.728C257.262 178.259 258.2 178.024 259.246 178.024C260.27 178.024 261.187 178.259 261.998 178.728C262.83 179.176 263.491 179.827 263.982 180.68C264.472 181.512 264.718 182.515 264.718 183.688C264.718 184.861 264.472 185.875 263.982 186.728C263.491 187.581 262.83 188.243 261.998 188.712C261.187 189.16 260.259 189.384 259.214 189.384ZM259.214 186.536C259.854 186.536 260.387 186.301 260.814 185.832C261.262 185.341 261.486 184.627 261.486 183.688C261.486 182.749 261.262 182.035 260.814 181.544C260.387 181.053 259.854 180.808 259.214 180.808C258.574 180.808 258.03 181.053 257.582 181.544C257.155 182.035 256.942 182.749 256.942 183.688C256.942 184.627 257.155 185.341 257.582 185.832C258.03 186.301 258.574 186.536 259.214 186.536Z" fill="#1B1642"/>
<circle cx="226.224" cy="97.6873" r="9.70681" transform="rotate(127.754 226.224 97.6873)" fill="#EA5858"/>
<path d="M208.674 274.423C204.436 271.141 203.661 264.913 206.943 260.675C210.226 256.436 216.323 255.661 220.561 258.943C224.8 262.226 225.575 268.453 222.292 272.692C219.01 276.93 212.913 277.705 208.674 274.423Z" fill="#EA5858"/>
<mask id="mask0_1397_857" style="mask-type:alpha" maskUnits="userSpaceOnUse" x="93" y="66" width="134" height="220">
<path d="M220.346 182.911L214.5 285.5L93.0635 226.656L170.579 66.9841L226.082 80.2421L226.749 147.16L220.346 182.911Z" fill="#C4C4C4"/>
</mask>
<g mask="url(#mask0_1397_857)">
<path fill-rule="evenodd" clip-rule="evenodd" d="M146.614 124.437C114.686 165.667 122.226 224.973 163.456 256.901C204.686 288.83 263.993 281.289 295.921 240.059C327.849 198.829 320.309 139.523 279.079 107.594C237.849 75.6661 178.542 83.2067 146.614 124.437ZM161.963 136.323C136.6 169.076 142.59 216.188 175.343 241.552C208.096 266.916 255.208 260.925 280.572 228.173C305.935 195.42 299.945 148.307 267.192 122.944C234.44 97.5801 187.327 103.57 161.963 136.323Z" fill="#EA5858"/>
</g>
</g>
</g>
<defs>
<filter id="filter0_dd_1397_857" x="0" y="0" width="468" height="529" filterUnits="userSpaceOnUse" color-interpolation-filters="sRGB">
<feFlood flood-opacity="0" result="BackgroundImageFix"/>
<feColorMatrix in="SourceAlpha" type="matrix" values="0 0 0 0 0 0 0 0 0 0 0 0 0 0 0 0 0 0 127 0" result="hardAlpha"/>
<feOffset dy="44"/>
<feGaussianBlur stdDeviation="37"/>
<feColorMatrix type="matrix" values="0 0 0 0 0.103299 0 0 0 0 0.0836699 0 0 0 0 0.277995 0 0 0 0.06 0"/>
<feBlend mode="normal" in2="BackgroundImageFix" result="effect1_dropShadow_1397_857"/>
<feColorMatrix in="SourceAlpha" type="matrix" values="0 0 0 0 0 0 0 0 0 0 0 0 0 0 0 0 0 0 127 0" result="hardAlpha"/>
<feOffset/>
<feGaussianBlur stdDeviation="12"/>
<feColorMatrix type="matrix" values="0 0 0 0 0 0 0 0 0 0 0 0 0 0 0 0 0 0 0.04 0"/>
<feBlend mode="normal" in2="effect1_dropShadow_1397_857" result="effect2_dropShadow_1397_857"/>
<feBlend mode="normal" in="SourceGraphic" in2="effect2_dropShadow_1397_857" result="shape"/>
</filter>
<clipPath id="clip0_1397_857">
<path d="M74 46C74 37.1634 81.1634 30 90 30H394V395C394 403.837 386.837 411 378 411H74V46Z" fill="white"/>
</clipPath>
</defs>
</svg>
