<svg width="468" height="529" viewBox="0 0 468 529" fill="none" xmlns="http://www.w3.org/2000/svg">
<g filter="url(#filter0_dd_1397_821)">
<g clip-path="url(#clip0_1397_821)">
<path d="M74 46C74 37.1634 81.1634 30 90 30H394V395C394 403.837 386.837 411 378 411H74V46Z" fill="white"/>
<path d="M129.659 54.39C128.975 54.39 128.357 54.51 127.805 54.75C127.253 54.978 126.785 55.32 126.401 55.776C126.017 56.22 125.723 56.766 125.519 57.414C125.315 58.05 125.213 58.77 125.213 59.574C125.213 60.63 125.375 61.548 125.699 62.328C126.035 63.108 126.527 63.708 127.175 64.128C127.835 64.548 128.657 64.758 129.641 64.758C130.205 64.758 130.739 64.71 131.243 64.614C131.747 64.518 132.239 64.398 132.719 64.254V65.658C132.239 65.838 131.741 65.97 131.225 66.054C130.721 66.138 130.115 66.18 129.407 66.18C128.099 66.18 127.007 65.91 126.131 65.37C125.255 64.83 124.595 64.062 124.151 63.066C123.719 62.07 123.503 60.9 123.503 59.556C123.503 58.584 123.635 57.696 123.899 56.892C124.175 56.088 124.571 55.392 125.087 54.804C125.615 54.216 126.263 53.766 127.031 53.454C127.799 53.13 128.681 52.968 129.677 52.968C130.337 52.968 130.973 53.034 131.585 53.166C132.197 53.298 132.743 53.484 133.223 53.724L132.575 55.092C132.179 54.912 131.735 54.75 131.243 54.606C130.763 54.462 130.235 54.39 129.659 54.39ZM141.014 56.352H142.742L138.62 60.996L143.084 66H141.248L136.892 61.104V66H135.308V56.352H136.892V61.032L141.014 56.352ZM149.426 56.172C150.614 56.172 151.568 56.586 152.288 57.414C153.02 58.242 153.386 59.49 153.386 61.158C153.386 62.25 153.218 63.174 152.882 63.93C152.558 64.674 152.096 65.238 151.496 65.622C150.908 65.994 150.212 66.18 149.408 66.18C148.916 66.18 148.478 66.114 148.094 65.982C147.71 65.85 147.38 65.682 147.104 65.478C146.84 65.262 146.612 65.028 146.42 64.776H146.312C146.336 64.98 146.36 65.238 146.384 65.55C146.408 65.862 146.42 66.132 146.42 66.36V70.32H144.836V56.352H146.132L146.348 57.666H146.42C146.612 57.39 146.84 57.138 147.104 56.91C147.38 56.682 147.704 56.502 148.076 56.37C148.46 56.238 148.91 56.172 149.426 56.172ZM149.138 57.504C148.49 57.504 147.968 57.63 147.572 57.882C147.176 58.122 146.888 58.488 146.708 58.98C146.528 59.472 146.432 60.096 146.42 60.852V61.158C146.42 61.95 146.504 62.622 146.672 63.174C146.84 63.726 147.122 64.146 147.518 64.434C147.926 64.722 148.478 64.866 149.174 64.866C149.762 64.866 150.242 64.704 150.614 64.38C150.998 64.056 151.28 63.618 151.46 63.066C151.652 62.502 151.748 61.86 151.748 61.14C151.748 60.036 151.532 59.154 151.1 58.494C150.68 57.834 150.026 57.504 149.138 57.504ZM157.404 62.238C157.404 62.346 157.398 62.502 157.386 62.706C157.386 62.898 157.38 63.108 157.368 63.336C157.356 63.552 157.344 63.762 157.332 63.966C157.32 64.158 157.308 64.314 157.296 64.434L162.462 56.352H164.406V66H162.93V60.312C162.93 60.12 162.93 59.868 162.93 59.556C162.942 59.244 162.954 58.938 162.966 58.638C162.978 58.326 162.99 58.092 163.002 57.936L157.872 66H155.91V56.352H157.404V62.238ZM169.06 56.352V60.366H174.298V56.352H175.882V66H174.298V61.698H169.06V66H167.476V56.352H169.06ZM180.431 62.238C180.431 62.346 180.425 62.502 180.413 62.706C180.413 62.898 180.407 63.108 180.395 63.336C180.383 63.552 180.371 63.762 180.359 63.966C180.347 64.158 180.335 64.314 180.323 64.434L185.489 56.352H187.433V66H185.957V60.312C185.957 60.12 185.957 59.868 185.957 59.556C185.969 59.244 185.981 58.938 185.993 58.638C186.005 58.326 186.017 58.092 186.029 57.936L180.899 66H178.937V56.352H180.431V62.238ZM192.088 56.352V60.366H197.326V56.352H198.91V66H197.326V61.698H192.088V66H190.504V56.352H192.088ZM207.851 56.352V57.684H203.549V66H201.965V56.352H207.851ZM218.157 66.18C217.305 66.18 216.543 66.006 215.871 65.658C215.211 65.31 214.689 64.77 214.305 64.038C213.933 63.306 213.747 62.37 213.747 61.23C213.747 60.042 213.945 59.076 214.341 58.332C214.737 57.588 215.271 57.042 215.943 56.694C216.627 56.346 217.401 56.172 218.265 56.172C218.757 56.172 219.231 56.226 219.687 56.334C220.143 56.43 220.515 56.55 220.803 56.694L220.317 58.008C220.029 57.9 219.693 57.798 219.309 57.702C218.925 57.606 218.565 57.558 218.229 57.558C217.581 57.558 217.047 57.696 216.627 57.972C216.207 58.248 215.895 58.656 215.691 59.196C215.487 59.736 215.385 60.408 215.385 61.212C215.385 61.98 215.487 62.634 215.691 63.174C215.895 63.714 216.201 64.122 216.609 64.398C217.017 64.674 217.527 64.812 218.139 64.812C218.667 64.812 219.129 64.758 219.525 64.65C219.933 64.542 220.305 64.41 220.641 64.254V65.658C220.317 65.826 219.957 65.952 219.561 66.036C219.177 66.132 218.709 66.18 218.157 66.18ZM231.089 56.352V66H229.505V57.702H224.519V66H222.935V56.352H231.089ZM237.822 56.19C238.998 56.19 239.868 56.448 240.432 56.964C240.996 57.48 241.278 58.302 241.278 59.43V66H240.126L239.82 64.632H239.748C239.472 64.98 239.184 65.274 238.884 65.514C238.596 65.742 238.26 65.91 237.876 66.018C237.504 66.126 237.048 66.18 236.508 66.18C235.932 66.18 235.41 66.078 234.942 65.874C234.486 65.67 234.126 65.358 233.862 64.938C233.598 64.506 233.466 63.966 233.466 63.318C233.466 62.358 233.844 61.62 234.6 61.104C235.356 60.576 236.52 60.288 238.092 60.24L239.73 60.186V59.61C239.73 58.806 239.556 58.248 239.208 57.936C238.86 57.624 238.368 57.468 237.732 57.468C237.228 57.468 236.748 57.546 236.292 57.702C235.836 57.846 235.41 58.014 235.014 58.206L234.528 57.018C234.948 56.79 235.446 56.598 236.022 56.442C236.598 56.274 237.198 56.19 237.822 56.19ZM238.29 61.338C237.09 61.386 236.256 61.578 235.788 61.914C235.332 62.25 235.104 62.724 235.104 63.336C235.104 63.876 235.266 64.272 235.59 64.524C235.926 64.776 236.352 64.902 236.868 64.902C237.684 64.902 238.362 64.68 238.902 64.236C239.442 63.78 239.712 63.084 239.712 62.148V61.284L238.29 61.338ZM248.128 66.18C247.276 66.18 246.514 66.006 245.842 65.658C245.182 65.31 244.66 64.77 244.276 64.038C243.904 63.306 243.718 62.37 243.718 61.23C243.718 60.042 243.916 59.076 244.312 58.332C244.708 57.588 245.242 57.042 245.914 56.694C246.598 56.346 247.372 56.172 248.236 56.172C248.728 56.172 249.202 56.226 249.658 56.334C250.114 56.43 250.486 56.55 250.774 56.694L250.288 58.008C250 57.9 249.664 57.798 249.28 57.702C248.896 57.606 248.536 57.558 248.2 57.558C247.552 57.558 247.018 57.696 246.598 57.972C246.178 58.248 245.866 58.656 245.662 59.196C245.458 59.736 245.356 60.408 245.356 61.212C245.356 61.98 245.458 62.634 245.662 63.174C245.866 63.714 246.172 64.122 246.58 64.398C246.988 64.674 247.498 64.812 248.11 64.812C248.638 64.812 249.1 64.758 249.496 64.65C249.904 64.542 250.276 64.41 250.612 64.254V65.658C250.288 65.826 249.928 65.952 249.532 66.036C249.148 66.132 248.68 66.18 248.128 66.18ZM256.56 56.19C257.736 56.19 258.606 56.448 259.17 56.964C259.734 57.48 260.016 58.302 260.016 59.43V66H258.864L258.558 64.632H258.486C258.21 64.98 257.922 65.274 257.622 65.514C257.334 65.742 256.998 65.91 256.614 66.018C256.242 66.126 255.786 66.18 255.246 66.18C254.67 66.18 254.148 66.078 253.68 65.874C253.224 65.67 252.864 65.358 252.6 64.938C252.336 64.506 252.204 63.966 252.204 63.318C252.204 62.358 252.582 61.62 253.338 61.104C254.094 60.576 255.258 60.288 256.83 60.24L258.468 60.186V59.61C258.468 58.806 258.294 58.248 257.946 57.936C257.598 57.624 257.106 57.468 256.47 57.468C255.966 57.468 255.486 57.546 255.03 57.702C254.574 57.846 254.148 58.014 253.752 58.206L253.266 57.018C253.686 56.79 254.184 56.598 254.76 56.442C255.336 56.274 255.936 56.19 256.56 56.19ZM257.028 61.338C255.828 61.386 254.994 61.578 254.526 61.914C254.07 62.25 253.842 62.724 253.842 63.336C253.842 63.876 254.004 64.272 254.328 64.524C254.664 64.776 255.09 64.902 255.606 64.902C256.422 64.902 257.1 64.68 257.64 64.236C258.18 63.78 258.45 63.084 258.45 62.148V61.284L257.028 61.338ZM266.722 56.172C267.55 56.172 268.258 56.352 268.846 56.712C269.446 57.072 269.902 57.582 270.214 58.242C270.538 58.89 270.7 59.652 270.7 60.528V61.482H264.094C264.118 62.574 264.394 63.408 264.922 63.984C265.462 64.548 266.212 64.83 267.172 64.83C267.784 64.83 268.324 64.776 268.792 64.668C269.272 64.548 269.764 64.38 270.268 64.164V65.55C269.776 65.766 269.29 65.922 268.81 66.018C268.33 66.126 267.76 66.18 267.1 66.18C266.188 66.18 265.378 65.994 264.67 65.622C263.974 65.25 263.428 64.698 263.032 63.966C262.648 63.222 262.456 62.316 262.456 61.248C262.456 60.192 262.63 59.286 262.978 58.53C263.338 57.774 263.836 57.192 264.472 56.784C265.12 56.376 265.87 56.172 266.722 56.172ZM266.704 57.468C265.948 57.468 265.348 57.714 264.904 58.206C264.472 58.686 264.214 59.358 264.13 60.222H269.044C269.044 59.67 268.96 59.19 268.792 58.782C268.624 58.374 268.366 58.056 268.018 57.828C267.682 57.588 267.244 57.468 266.704 57.468ZM279.816 57.684H276.666V66H275.1V57.684H271.986V56.352H279.816V57.684ZM297.826 56.352L293.848 61.032L298.168 66H296.368L292.192 61.104V66H290.716V61.104L286.54 66H284.74L289.06 61.032L285.082 56.352H286.81L290.716 61.032V56.352H292.192V61.032L296.116 56.352H297.826ZM301.246 62.238C301.246 62.346 301.24 62.502 301.228 62.706C301.228 62.898 301.222 63.108 301.21 63.336C301.198 63.552 301.186 63.762 301.174 63.966C301.162 64.158 301.15 64.314 301.138 64.434L306.304 56.352H308.248V66H306.772V60.312C306.772 60.12 306.772 59.868 306.772 59.556C306.784 59.244 306.796 58.938 306.808 58.638C306.82 58.326 306.832 58.092 306.844 57.936L301.714 66H299.752V56.352H301.246V62.238ZM313.856 56.172C314.588 56.172 315.224 56.274 315.764 56.478C316.304 56.67 316.724 56.958 317.024 57.342C317.324 57.714 317.474 58.17 317.474 58.71C317.474 59.298 317.312 59.766 316.988 60.114C316.664 60.45 316.22 60.696 315.656 60.852V60.924C316.04 61.032 316.394 61.182 316.718 61.374C317.042 61.566 317.3 61.818 317.492 62.13C317.696 62.442 317.798 62.844 317.798 63.336C317.798 63.864 317.648 64.344 317.348 64.776C317.06 65.208 316.61 65.55 315.998 65.802C315.398 66.054 314.624 66.18 313.676 66.18C313.22 66.18 312.782 66.156 312.362 66.108C311.954 66.06 311.582 65.988 311.246 65.892C310.922 65.796 310.634 65.682 310.382 65.55V64.128C310.79 64.32 311.27 64.494 311.822 64.65C312.386 64.806 312.998 64.884 313.658 64.884C314.138 64.884 314.57 64.83 314.954 64.722C315.35 64.614 315.662 64.446 315.89 64.218C316.118 63.978 316.232 63.654 316.232 63.246C316.232 62.874 316.13 62.574 315.926 62.346C315.722 62.106 315.416 61.926 315.008 61.806C314.612 61.686 314.102 61.626 313.478 61.626H312.182V60.33H313.226C314.054 60.33 314.714 60.222 315.206 60.006C315.71 59.778 315.962 59.394 315.962 58.854C315.962 58.398 315.77 58.056 315.386 57.828C315.014 57.6 314.474 57.486 313.766 57.486C313.238 57.486 312.77 57.54 312.362 57.648C311.966 57.744 311.528 57.894 311.048 58.098L310.49 56.838C311.006 56.61 311.546 56.442 312.11 56.334C312.674 56.226 313.256 56.172 313.856 56.172ZM321.726 56.352V60.366H326.964V56.352H328.548V66H326.964V61.698H321.726V66H320.142V56.352H321.726ZM333.097 62.238C333.097 62.346 333.091 62.502 333.079 62.706C333.079 62.898 333.073 63.108 333.061 63.336C333.049 63.552 333.037 63.762 333.025 63.966C333.013 64.158 333.001 64.314 332.989 64.434L338.155 56.352H340.099V66H338.623V60.312C338.623 60.12 338.623 59.868 338.623 59.556C338.635 59.244 338.647 58.938 338.659 58.638C338.671 58.326 338.683 58.092 338.695 57.936L333.565 66H331.603V56.352H333.097V62.238ZM343.602 66.108C343.242 66.108 342.942 65.994 342.702 65.766C342.474 65.526 342.36 65.244 342.36 64.92C342.36 64.584 342.474 64.302 342.702 64.074C342.942 63.834 343.242 63.714 343.602 63.714C343.962 63.714 344.256 63.834 344.484 64.074C344.712 64.302 344.826 64.584 344.826 64.92C344.826 65.244 344.712 65.526 344.484 65.766C344.256 65.994 343.962 66.108 343.602 66.108ZM343.602 59.25C343.242 59.25 342.942 59.136 342.702 58.908C342.474 58.668 342.36 58.386 342.36 58.062C342.36 57.726 342.474 57.444 342.702 57.216C342.942 56.976 343.242 56.856 343.602 56.856C343.962 56.856 344.256 56.976 344.484 57.216C344.712 57.444 344.826 57.726 344.826 58.062C344.826 58.386 344.712 58.668 344.484 58.908C344.256 59.136 343.962 59.25 343.602 59.25Z" fill="#1B1642"/>
<path d="M211.163 194.97C210.09 194.97 209.245 195.329 208.629 196.048C208.013 196.767 207.705 197.751 207.705 199.002C207.705 200.243 207.99 201.228 208.559 201.956C209.138 202.675 210.001 203.034 211.149 203.034C211.588 203.034 212.003 202.997 212.395 202.922C212.787 202.847 213.17 202.754 213.543 202.642V203.734C213.17 203.874 212.783 203.977 212.381 204.042C211.989 204.107 211.518 204.14 210.967 204.14C209.95 204.14 209.101 203.93 208.419 203.51C207.738 203.09 207.225 202.493 206.879 201.718C206.543 200.943 206.375 200.033 206.375 198.988C206.375 197.98 206.557 197.093 206.921 196.328C207.295 195.553 207.841 194.951 208.559 194.522C209.278 194.083 210.151 193.864 211.177 193.864C212.232 193.864 213.151 194.06 213.935 194.452L213.431 195.516C213.123 195.376 212.778 195.25 212.395 195.138C212.022 195.026 211.611 194.97 211.163 194.97ZM221.269 204H220.023V197.518H217.811C217.69 199.095 217.522 200.369 217.307 201.34C217.093 202.301 216.808 203.001 216.453 203.44C216.099 203.879 215.651 204.098 215.109 204.098C214.988 204.098 214.867 204.089 214.745 204.07C214.633 204.061 214.54 204.037 214.465 204V203.076C214.521 203.095 214.582 203.109 214.647 203.118C214.713 203.127 214.778 203.132 214.843 203.132C215.347 203.132 215.749 202.595 216.047 201.522C216.355 200.449 216.589 198.773 216.747 196.496H221.269V204ZM222.475 196.496H223.791L225.415 200.766C225.555 201.139 225.681 201.499 225.793 201.844C225.905 202.18 225.989 202.502 226.045 202.81H226.101C226.157 202.577 226.246 202.273 226.367 201.9C226.488 201.517 226.614 201.135 226.745 200.752L228.271 196.496H229.601L226.367 205.036C226.106 205.745 225.765 206.31 225.345 206.73C224.934 207.15 224.365 207.36 223.637 207.36C223.413 207.36 223.217 207.346 223.049 207.318C222.881 207.299 222.736 207.276 222.615 207.248V206.268C222.718 206.287 222.839 206.305 222.979 206.324C223.128 206.343 223.282 206.352 223.441 206.352C223.87 206.352 224.216 206.231 224.477 205.988C224.748 205.745 224.958 205.423 225.107 205.022L225.499 204.028L222.475 196.496ZM231.866 196.496V199.226C231.866 200.085 232.346 200.514 233.308 200.514C233.774 200.514 234.199 200.444 234.582 200.304C234.964 200.155 235.356 199.959 235.758 199.716V196.496H236.99V204H235.758V200.654C235.338 200.925 234.922 201.139 234.512 201.298C234.11 201.447 233.625 201.522 233.056 201.522C232.29 201.522 231.693 201.321 231.264 200.92C230.844 200.519 230.634 199.982 230.634 199.31V196.496H231.866ZM242.216 196.37C243.13 196.37 243.807 196.571 244.246 196.972C244.684 197.373 244.904 198.013 244.904 198.89V204H244.008L243.77 202.936H243.714C243.387 203.347 243.042 203.65 242.678 203.846C242.323 204.042 241.828 204.14 241.194 204.14C240.512 204.14 239.948 203.963 239.5 203.608C239.052 203.244 238.828 202.679 238.828 201.914C238.828 201.167 239.122 200.593 239.71 200.192C240.298 199.781 241.203 199.557 242.426 199.52L243.7 199.478V199.03C243.7 198.405 243.564 197.971 243.294 197.728C243.023 197.485 242.64 197.364 242.146 197.364C241.754 197.364 241.38 197.425 241.026 197.546C240.671 197.658 240.34 197.789 240.032 197.938L239.654 197.014C239.98 196.837 240.368 196.687 240.816 196.566C241.264 196.435 241.73 196.37 242.216 196.37ZM243.686 200.332L242.58 200.374C241.646 200.411 240.998 200.561 240.634 200.822C240.279 201.083 240.102 201.452 240.102 201.928C240.102 202.348 240.228 202.656 240.48 202.852C240.741 203.048 241.072 203.146 241.474 203.146C242.108 203.146 242.636 202.973 243.056 202.628C243.476 202.273 243.686 201.732 243.686 201.004V200.332ZM250.119 196.356C250.763 196.356 251.314 196.496 251.771 196.776C252.238 197.056 252.593 197.453 252.835 197.966C253.087 198.47 253.213 199.063 253.213 199.744V200.486H248.075C248.094 201.335 248.309 201.984 248.719 202.432C249.139 202.871 249.723 203.09 250.469 203.09C250.945 203.09 251.365 203.048 251.729 202.964C252.103 202.871 252.485 202.74 252.877 202.572V203.65C252.495 203.818 252.117 203.939 251.743 204.014C251.37 204.098 250.927 204.14 250.413 204.14C249.704 204.14 249.074 203.995 248.523 203.706C247.982 203.417 247.557 202.987 247.249 202.418C246.951 201.839 246.801 201.135 246.801 200.304C246.801 199.483 246.937 198.778 247.207 198.19C247.487 197.602 247.875 197.149 248.369 196.832C248.873 196.515 249.457 196.356 250.119 196.356ZM250.105 197.364C249.517 197.364 249.051 197.555 248.705 197.938C248.369 198.311 248.169 198.834 248.103 199.506H251.925C251.916 198.871 251.767 198.358 251.477 197.966C251.188 197.565 250.731 197.364 250.105 197.364ZM261.158 198.386C261.158 198.853 261.018 199.217 260.738 199.478C260.458 199.739 260.098 199.917 259.66 200.01V200.066C260.126 200.131 260.532 200.299 260.878 200.57C261.223 200.831 261.396 201.242 261.396 201.802C261.396 202.437 261.158 202.964 260.682 203.384C260.215 203.795 259.44 204 258.358 204H255.124V196.496H258.344C258.876 196.496 259.352 196.557 259.772 196.678C260.201 196.79 260.537 196.986 260.78 197.266C261.032 197.537 261.158 197.91 261.158 198.386ZM259.912 198.54C259.912 198.185 259.781 197.929 259.52 197.77C259.268 197.602 258.852 197.518 258.274 197.518H256.356V199.576H258.05C259.291 199.576 259.912 199.231 259.912 198.54ZM260.122 201.802C260.122 201.373 259.958 201.065 259.632 200.878C259.305 200.691 258.824 200.598 258.19 200.598H256.356V203.006H258.218C258.834 203.006 259.305 202.917 259.632 202.74C259.958 202.553 260.122 202.241 260.122 201.802Z" fill="#8D9AAE"/>
<path d="M96.4222 300.148H97.9342V307.204C97.9342 307.504 97.9282 307.834 97.9162 308.194C97.9162 308.542 97.9102 308.89 97.8982 309.238C97.8862 309.586 97.8682 309.898 97.8442 310.174C97.8322 310.438 97.8202 310.642 97.8082 310.786H97.8802L104.954 300.148H106.754V313H105.242V306.016C105.242 305.692 105.248 305.344 105.26 304.972C105.272 304.588 105.284 304.222 105.296 303.874C105.32 303.514 105.338 303.196 105.35 302.92C105.362 302.644 105.374 302.44 105.386 302.308H105.314L98.2222 313H96.4222V300.148ZM113.875 313.18C113.023 313.18 112.261 313.006 111.589 312.658C110.929 312.31 110.407 311.77 110.023 311.038C109.651 310.306 109.465 309.37 109.465 308.23C109.465 307.042 109.663 306.076 110.059 305.332C110.455 304.588 110.989 304.042 111.661 303.694C112.345 303.346 113.119 303.172 113.983 303.172C114.475 303.172 114.949 303.226 115.405 303.334C115.861 303.43 116.233 303.55 116.521 303.694L116.035 305.008C115.747 304.9 115.411 304.798 115.027 304.702C114.643 304.606 114.283 304.558 113.947 304.558C113.299 304.558 112.765 304.696 112.345 304.972C111.925 305.248 111.613 305.656 111.409 306.196C111.205 306.736 111.103 307.408 111.103 308.212C111.103 308.98 111.205 309.634 111.409 310.174C111.613 310.714 111.919 311.122 112.327 311.398C112.735 311.674 113.245 311.812 113.857 311.812C114.385 311.812 114.847 311.758 115.243 311.65C115.651 311.542 116.023 311.41 116.359 311.254V312.658C116.035 312.826 115.675 312.952 115.279 313.036C114.895 313.132 114.427 313.18 113.875 313.18ZM122.523 313.18C121.671 313.18 120.909 313.006 120.237 312.658C119.577 312.31 119.055 311.77 118.671 311.038C118.299 310.306 118.113 309.37 118.113 308.23C118.113 307.042 118.311 306.076 118.707 305.332C119.103 304.588 119.637 304.042 120.309 303.694C120.993 303.346 121.767 303.172 122.631 303.172C123.123 303.172 123.597 303.226 124.053 303.334C124.509 303.43 124.881 303.55 125.169 303.694L124.683 305.008C124.395 304.9 124.059 304.798 123.675 304.702C123.291 304.606 122.931 304.558 122.595 304.558C121.947 304.558 121.413 304.696 120.993 304.972C120.573 305.248 120.261 305.656 120.057 306.196C119.853 306.736 119.751 307.408 119.751 308.212C119.751 308.98 119.853 309.634 120.057 310.174C120.261 310.714 120.567 311.122 120.975 311.398C121.383 311.674 121.893 311.812 122.505 311.812C123.033 311.812 123.495 311.758 123.891 311.65C124.299 311.542 124.671 311.41 125.007 311.254V312.658C124.683 312.826 124.323 312.952 123.927 313.036C123.543 313.132 123.075 313.18 122.523 313.18ZM134.645 313H133.043V304.666H130.199C130.079 306.19 129.929 307.492 129.749 308.572C129.569 309.64 129.341 310.51 129.065 311.182C128.789 311.854 128.459 312.346 128.075 312.658C127.691 312.97 127.241 313.126 126.725 313.126C126.569 313.126 126.413 313.114 126.257 313.09C126.113 313.078 125.993 313.048 125.897 313V311.812C125.969 311.836 126.047 311.854 126.131 311.866C126.215 311.878 126.299 311.884 126.383 311.884C126.647 311.884 126.887 311.776 127.103 311.56C127.319 311.344 127.511 311.014 127.679 310.57C127.859 310.126 128.021 309.568 128.165 308.896C128.309 308.212 128.435 307.408 128.543 306.484C128.651 305.56 128.747 304.516 128.831 303.352H134.645V313ZM141.434 303.172C142.262 303.172 142.97 303.352 143.558 303.712C144.158 304.072 144.614 304.582 144.926 305.242C145.25 305.89 145.412 306.652 145.412 307.528V308.482H138.806C138.83 309.574 139.106 310.408 139.634 310.984C140.174 311.548 140.924 311.83 141.884 311.83C142.496 311.83 143.036 311.776 143.504 311.668C143.984 311.548 144.476 311.38 144.98 311.164V312.55C144.488 312.766 144.002 312.922 143.522 313.018C143.042 313.126 142.472 313.18 141.812 313.18C140.9 313.18 140.09 312.994 139.382 312.622C138.686 312.25 138.14 311.698 137.744 310.966C137.36 310.222 137.168 309.316 137.168 308.248C137.168 307.192 137.342 306.286 137.69 305.53C138.05 304.774 138.548 304.192 139.184 303.784C139.832 303.376 140.582 303.172 141.434 303.172ZM141.416 304.468C140.66 304.468 140.06 304.714 139.616 305.206C139.184 305.686 138.926 306.358 138.842 307.222H143.756C143.756 306.67 143.672 306.19 143.504 305.782C143.336 305.374 143.078 305.056 142.73 304.828C142.394 304.588 141.956 304.468 141.416 304.468ZM155.032 303.352V311.668H156.436V316.348H154.906V313H148.192V316.348H146.68V311.668H147.454C148.006 310.9 148.462 310.066 148.822 309.166C149.194 308.254 149.47 307.306 149.65 306.322C149.842 305.326 149.944 304.336 149.956 303.352H155.032ZM151.36 304.594C151.312 305.41 151.186 306.256 150.982 307.132C150.778 307.996 150.514 308.824 150.19 309.616C149.878 310.408 149.512 311.092 149.092 311.668H153.502V304.594H151.36ZM166.715 308.158C166.715 308.962 166.607 309.676 166.391 310.3C166.187 310.912 165.887 311.434 165.491 311.866C165.107 312.298 164.633 312.628 164.069 312.856C163.517 313.072 162.899 313.18 162.215 313.18C161.579 313.18 160.991 313.072 160.451 312.856C159.911 312.628 159.443 312.298 159.047 311.866C158.651 311.434 158.339 310.912 158.111 310.3C157.895 309.676 157.787 308.962 157.787 308.158C157.787 307.09 157.967 306.19 158.327 305.458C158.687 304.714 159.203 304.15 159.875 303.766C160.547 303.37 161.345 303.172 162.269 303.172C163.145 303.172 163.913 303.37 164.573 303.766C165.245 304.15 165.767 304.714 166.139 305.458C166.523 306.19 166.715 307.09 166.715 308.158ZM159.425 308.158C159.425 308.914 159.521 309.574 159.713 310.138C159.917 310.69 160.229 311.116 160.649 311.416C161.069 311.716 161.603 311.866 162.251 311.866C162.899 311.866 163.433 311.716 163.853 311.416C164.273 311.116 164.579 310.69 164.771 310.138C164.975 309.574 165.077 308.914 165.077 308.158C165.077 307.39 164.975 306.736 164.771 306.196C164.567 305.656 164.255 305.242 163.835 304.954C163.427 304.654 162.893 304.504 162.233 304.504C161.249 304.504 160.535 304.828 160.091 305.476C159.647 306.124 159.425 307.018 159.425 308.158ZM176.983 305.782C176.983 306.382 176.803 306.85 176.443 307.186C176.083 307.522 175.621 307.75 175.057 307.87V307.942C175.657 308.026 176.179 308.242 176.623 308.59C177.067 308.926 177.289 309.454 177.289 310.174C177.289 310.582 177.211 310.96 177.055 311.308C176.911 311.656 176.683 311.956 176.371 312.208C176.059 312.46 175.657 312.658 175.165 312.802C174.673 312.934 174.079 313 173.383 313H169.225V303.352H173.365C174.049 303.352 174.661 303.43 175.201 303.586C175.753 303.73 176.185 303.982 176.497 304.342C176.821 304.69 176.983 305.17 176.983 305.782ZM175.651 310.174C175.651 309.622 175.441 309.226 175.021 308.986C174.601 308.746 173.983 308.626 173.167 308.626H170.809V311.722H173.203C173.995 311.722 174.601 311.608 175.021 311.38C175.441 311.14 175.651 310.738 175.651 310.174ZM175.381 305.98C175.381 305.524 175.213 305.194 174.877 304.99C174.553 304.774 174.019 304.666 173.275 304.666H170.809V307.312H172.987C173.767 307.312 174.361 307.204 174.769 306.988C175.177 306.772 175.381 306.436 175.381 305.98ZM183.25 303.19C184.426 303.19 185.296 303.448 185.86 303.964C186.424 304.48 186.706 305.302 186.706 306.43V313H185.554L185.248 311.632H185.176C184.9 311.98 184.612 312.274 184.312 312.514C184.024 312.742 183.688 312.91 183.304 313.018C182.932 313.126 182.476 313.18 181.936 313.18C181.36 313.18 180.838 313.078 180.37 312.874C179.914 312.67 179.554 312.358 179.29 311.938C179.026 311.506 178.894 310.966 178.894 310.318C178.894 309.358 179.272 308.62 180.028 308.104C180.784 307.576 181.948 307.288 183.52 307.24L185.158 307.186V306.61C185.158 305.806 184.984 305.248 184.636 304.936C184.288 304.624 183.796 304.468 183.16 304.468C182.656 304.468 182.176 304.546 181.72 304.702C181.264 304.846 180.838 305.014 180.442 305.206L179.956 304.018C180.376 303.79 180.874 303.598 181.45 303.442C182.026 303.274 182.626 303.19 183.25 303.19ZM183.718 308.338C182.518 308.386 181.684 308.578 181.216 308.914C180.76 309.25 180.532 309.724 180.532 310.336C180.532 310.876 180.694 311.272 181.018 311.524C181.354 311.776 181.78 311.902 182.296 311.902C183.112 311.902 183.79 311.68 184.33 311.236C184.87 310.78 185.14 310.084 185.14 309.148V308.284L183.718 308.338ZM191.27 303.352V307.366H196.508V303.352H198.092V313H196.508V308.698H191.27V313H189.686V303.352H191.27ZM202.641 309.238C202.641 309.346 202.635 309.502 202.623 309.706C202.623 309.898 202.617 310.108 202.605 310.336C202.593 310.552 202.581 310.762 202.569 310.966C202.557 311.158 202.545 311.314 202.533 311.434L207.699 303.352H209.643V313H208.167V307.312C208.167 307.12 208.167 306.868 208.167 306.556C208.179 306.244 208.191 305.938 208.203 305.638C208.215 305.326 208.227 305.092 208.239 304.936L203.109 313H201.147V303.352H202.641V309.238ZM216.44 303.172C217.268 303.172 217.976 303.352 218.564 303.712C219.164 304.072 219.62 304.582 219.932 305.242C220.256 305.89 220.418 306.652 220.418 307.528V308.482H213.812C213.836 309.574 214.112 310.408 214.64 310.984C215.18 311.548 215.93 311.83 216.89 311.83C217.502 311.83 218.042 311.776 218.51 311.668C218.99 311.548 219.482 311.38 219.986 311.164V312.55C219.494 312.766 219.008 312.922 218.528 313.018C218.048 313.126 217.478 313.18 216.818 313.18C215.906 313.18 215.096 312.994 214.388 312.622C213.692 312.25 213.146 311.698 212.75 310.966C212.366 310.222 212.174 309.316 212.174 308.248C212.174 307.192 212.348 306.286 212.696 305.53C213.056 304.774 213.554 304.192 214.19 303.784C214.838 303.376 215.588 303.172 216.44 303.172ZM216.422 304.468C215.666 304.468 215.066 304.714 214.622 305.206C214.19 305.686 213.932 306.358 213.848 307.222H218.762C218.762 306.67 218.678 306.19 218.51 305.782C218.342 305.374 218.084 305.056 217.736 304.828C217.4 304.588 216.962 304.468 216.422 304.468ZM233.343 303.352H235.071L230.949 307.996L235.413 313H233.577L229.221 308.104V313H227.637V303.352H229.221V308.032L233.343 303.352ZM240.819 303.19C241.995 303.19 242.865 303.448 243.429 303.964C243.993 304.48 244.275 305.302 244.275 306.43V313H243.123L242.817 311.632H242.745C242.469 311.98 242.181 312.274 241.881 312.514C241.593 312.742 241.257 312.91 240.873 313.018C240.501 313.126 240.045 313.18 239.505 313.18C238.929 313.18 238.407 313.078 237.939 312.874C237.483 312.67 237.123 312.358 236.859 311.938C236.595 311.506 236.463 310.966 236.463 310.318C236.463 309.358 236.841 308.62 237.597 308.104C238.353 307.576 239.517 307.288 241.089 307.24L242.727 307.186V306.61C242.727 305.806 242.553 305.248 242.205 304.936C241.857 304.624 241.365 304.468 240.729 304.468C240.225 304.468 239.745 304.546 239.289 304.702C238.833 304.846 238.407 305.014 238.011 305.206L237.525 304.018C237.945 303.79 238.443 303.598 239.019 303.442C239.595 303.274 240.195 303.19 240.819 303.19ZM241.287 308.338C240.087 308.386 239.253 308.578 238.785 308.914C238.329 309.25 238.101 309.724 238.101 310.336C238.101 310.876 238.263 311.272 238.587 311.524C238.923 311.776 239.349 311.902 239.865 311.902C240.681 311.902 241.359 311.68 241.899 311.236C242.439 310.78 242.709 310.084 242.709 309.148V308.284L241.287 308.338ZM254.599 313H252.997V304.666H250.153C250.033 306.19 249.883 307.492 249.703 308.572C249.523 309.64 249.295 310.51 249.019 311.182C248.743 311.854 248.413 312.346 248.029 312.658C247.645 312.97 247.195 313.126 246.679 313.126C246.523 313.126 246.367 313.114 246.211 313.09C246.067 313.078 245.947 313.048 245.851 313V311.812C245.923 311.836 246.001 311.854 246.085 311.866C246.169 311.878 246.253 311.884 246.337 311.884C246.601 311.884 246.841 311.776 247.057 311.56C247.273 311.344 247.465 311.014 247.633 310.57C247.813 310.126 247.975 309.568 248.119 308.896C248.263 308.212 248.389 307.408 248.497 306.484C248.605 305.56 248.701 304.516 248.785 303.352H254.599V313ZM261.315 303.19C262.491 303.19 263.361 303.448 263.925 303.964C264.489 304.48 264.771 305.302 264.771 306.43V313H263.619L263.313 311.632H263.241C262.965 311.98 262.677 312.274 262.377 312.514C262.089 312.742 261.753 312.91 261.369 313.018C260.997 313.126 260.541 313.18 260.001 313.18C259.425 313.18 258.903 313.078 258.435 312.874C257.979 312.67 257.619 312.358 257.355 311.938C257.091 311.506 256.959 310.966 256.959 310.318C256.959 309.358 257.337 308.62 258.093 308.104C258.849 307.576 260.013 307.288 261.585 307.24L263.223 307.186V306.61C263.223 305.806 263.049 305.248 262.701 304.936C262.353 304.624 261.861 304.468 261.225 304.468C260.721 304.468 260.241 304.546 259.785 304.702C259.329 304.846 258.903 305.014 258.507 305.206L258.021 304.018C258.441 303.79 258.939 303.598 259.515 303.442C260.091 303.274 260.691 303.19 261.315 303.19ZM261.783 308.338C260.583 308.386 259.749 308.578 259.281 308.914C258.825 309.25 258.597 309.724 258.597 310.336C258.597 310.876 258.759 311.272 259.083 311.524C259.419 311.776 259.845 311.902 260.361 311.902C261.177 311.902 261.855 311.68 262.395 311.236C262.935 310.78 263.205 310.084 263.205 309.148V308.284L261.783 308.338ZM274.098 303.352V307.366H279.336V303.352H280.92V313H279.336V308.698H274.098V313H272.514V303.352H274.098ZM287.629 303.19C288.805 303.19 289.675 303.448 290.239 303.964C290.803 304.48 291.085 305.302 291.085 306.43V313H289.933L289.627 311.632H289.555C289.279 311.98 288.991 312.274 288.691 312.514C288.403 312.742 288.067 312.91 287.683 313.018C287.311 313.126 286.855 313.18 286.315 313.18C285.739 313.18 285.217 313.078 284.749 312.874C284.293 312.67 283.933 312.358 283.669 311.938C283.405 311.506 283.273 310.966 283.273 310.318C283.273 309.358 283.651 308.62 284.407 308.104C285.163 307.576 286.327 307.288 287.899 307.24L289.537 307.186V306.61C289.537 305.806 289.363 305.248 289.015 304.936C288.667 304.624 288.175 304.468 287.539 304.468C287.035 304.468 286.555 304.546 286.099 304.702C285.643 304.846 285.217 305.014 284.821 305.206L284.335 304.018C284.755 303.79 285.253 303.598 285.829 303.442C286.405 303.274 287.005 303.19 287.629 303.19ZM288.097 308.338C286.897 308.386 286.063 308.578 285.595 308.914C285.139 309.25 284.911 309.724 284.911 310.336C284.911 310.876 285.073 311.272 285.397 311.524C285.733 311.776 286.159 311.902 286.675 311.902C287.491 311.902 288.169 311.68 288.709 311.236C289.249 310.78 289.519 310.084 289.519 309.148V308.284L288.097 308.338ZM302.699 313.18C301.847 313.18 301.085 313.006 300.413 312.658C299.753 312.31 299.231 311.77 298.847 311.038C298.475 310.306 298.289 309.37 298.289 308.23C298.289 307.042 298.487 306.076 298.883 305.332C299.279 304.588 299.813 304.042 300.485 303.694C301.169 303.346 301.943 303.172 302.807 303.172C303.299 303.172 303.773 303.226 304.229 303.334C304.685 303.43 305.057 303.55 305.345 303.694L304.859 305.008C304.571 304.9 304.235 304.798 303.851 304.702C303.467 304.606 303.107 304.558 302.771 304.558C302.123 304.558 301.589 304.696 301.169 304.972C300.749 305.248 300.437 305.656 300.233 306.196C300.029 306.736 299.927 307.408 299.927 308.212C299.927 308.98 300.029 309.634 300.233 310.174C300.437 310.714 300.743 311.122 301.151 311.398C301.559 311.674 302.069 311.812 302.681 311.812C303.209 311.812 303.671 311.758 304.067 311.65C304.475 311.542 304.847 311.41 305.183 311.254V312.658C304.859 312.826 304.499 312.952 304.103 313.036C303.719 313.132 303.251 313.18 302.699 313.18ZM313.183 303.352H314.911L310.789 307.996L315.253 313H313.417L309.061 308.104V313H307.477V303.352H309.061V308.032L313.183 303.352ZM321.595 303.172C322.783 303.172 323.737 303.586 324.457 304.414C325.189 305.242 325.555 306.49 325.555 308.158C325.555 309.25 325.387 310.174 325.051 310.93C324.727 311.674 324.265 312.238 323.665 312.622C323.077 312.994 322.381 313.18 321.577 313.18C321.085 313.18 320.647 313.114 320.263 312.982C319.879 312.85 319.549 312.682 319.273 312.478C319.009 312.262 318.781 312.028 318.589 311.776H318.481C318.505 311.98 318.529 312.238 318.553 312.55C318.577 312.862 318.589 313.132 318.589 313.36V317.32H317.005V303.352H318.301L318.517 304.666H318.589C318.781 304.39 319.009 304.138 319.273 303.91C319.549 303.682 319.873 303.502 320.245 303.37C320.629 303.238 321.079 303.172 321.595 303.172ZM321.307 304.504C320.659 304.504 320.137 304.63 319.741 304.882C319.345 305.122 319.057 305.488 318.877 305.98C318.697 306.472 318.601 307.096 318.589 307.852V308.158C318.589 308.95 318.673 309.622 318.841 310.174C319.009 310.726 319.291 311.146 319.687 311.434C320.095 311.722 320.647 311.866 321.343 311.866C321.931 311.866 322.411 311.704 322.783 311.38C323.167 311.056 323.449 310.618 323.629 310.066C323.821 309.502 323.917 308.86 323.917 308.14C323.917 307.036 323.701 306.154 323.269 305.494C322.849 304.834 322.195 304.504 321.307 304.504ZM328.079 313V303.352H329.663V307.312H332.165C333.005 307.312 333.695 307.414 334.235 307.618C334.775 307.822 335.177 308.128 335.441 308.536C335.705 308.932 335.837 309.436 335.837 310.048C335.837 310.648 335.705 311.17 335.441 311.614C335.189 312.058 334.787 312.4 334.235 312.64C333.695 312.88 332.981 313 332.093 313H328.079ZM331.949 311.722C332.633 311.722 333.191 311.608 333.623 311.38C334.055 311.14 334.271 310.726 334.271 310.138C334.271 309.55 334.073 309.154 333.677 308.95C333.281 308.734 332.711 308.626 331.967 308.626H329.663V311.722H331.949ZM337.439 313V303.352H339.023V313H337.439ZM348.749 304.684H345.599V313H344.033V304.684H340.919V303.352H348.749V304.684ZM349.137 303.352H350.829L352.917 308.842C353.037 309.166 353.145 309.478 353.241 309.778C353.349 310.078 353.445 310.372 353.529 310.66C353.613 310.936 353.679 311.206 353.727 311.47H353.799C353.871 311.17 353.985 310.78 354.141 310.3C354.297 309.808 354.459 309.316 354.627 308.824L356.589 303.352H358.299L354.141 314.332C353.913 314.932 353.643 315.454 353.331 315.898C353.031 316.354 352.659 316.702 352.215 316.942C351.783 317.194 351.255 317.32 350.631 317.32C350.343 317.32 350.091 317.302 349.875 317.266C349.659 317.242 349.473 317.212 349.317 317.176V315.916C349.449 315.94 349.605 315.964 349.785 315.988C349.977 316.012 350.175 316.024 350.379 316.024C350.751 316.024 351.069 315.952 351.333 315.808C351.609 315.676 351.843 315.478 352.035 315.214C352.227 314.962 352.389 314.662 352.521 314.314L353.025 313.036L349.137 303.352ZM372.353 308.158C372.353 309.226 372.179 310.138 371.831 310.894C371.483 311.638 370.991 312.208 370.355 312.604C369.719 312.988 368.963 313.18 368.087 313.18C367.271 313.18 366.557 313.012 365.945 312.676C365.333 312.328 364.847 311.824 364.487 311.164C364.127 310.492 363.917 309.67 363.857 308.698H361.409V313H359.825V303.352H361.409V307.366H363.875C363.959 306.454 364.181 305.692 364.541 305.08C364.913 304.456 365.399 303.982 365.999 303.658C366.611 303.334 367.319 303.172 368.123 303.172C368.951 303.172 369.683 303.37 370.319 303.766C370.955 304.15 371.453 304.714 371.813 305.458C372.173 306.19 372.353 307.09 372.353 308.158ZM365.477 308.158C365.477 308.962 365.567 309.64 365.747 310.192C365.939 310.744 366.227 311.164 366.611 311.452C366.995 311.728 367.493 311.866 368.105 311.866C368.717 311.866 369.215 311.728 369.599 311.452C369.983 311.164 370.265 310.744 370.445 310.192C370.625 309.64 370.715 308.962 370.715 308.158C370.715 307.354 370.625 306.682 370.445 306.142C370.265 305.602 369.983 305.194 369.599 304.918C369.215 304.642 368.717 304.504 368.105 304.504C367.493 304.504 366.995 304.642 366.611 304.918C366.227 305.194 365.939 305.602 365.747 306.142C365.567 306.682 365.477 307.354 365.477 308.158ZM143.141 326.352H144.869L140.747 330.996L145.211 336H143.375L139.019 331.104V336H137.435V326.352H139.019V331.032L143.141 326.352ZM151.553 326.172C152.741 326.172 153.695 326.586 154.415 327.414C155.147 328.242 155.513 329.49 155.513 331.158C155.513 332.25 155.345 333.174 155.009 333.93C154.685 334.674 154.223 335.238 153.623 335.622C153.035 335.994 152.339 336.18 151.535 336.18C151.043 336.18 150.605 336.114 150.221 335.982C149.837 335.85 149.507 335.682 149.231 335.478C148.967 335.262 148.739 335.028 148.547 334.776H148.439C148.463 334.98 148.487 335.238 148.511 335.55C148.535 335.862 148.547 336.132 148.547 336.36V340.32H146.963V326.352H148.259L148.475 327.666H148.547C148.739 327.39 148.967 327.138 149.231 326.91C149.507 326.682 149.831 326.502 150.203 326.37C150.587 326.238 151.037 326.172 151.553 326.172ZM151.265 327.504C150.617 327.504 150.095 327.63 149.699 327.882C149.303 328.122 149.015 328.488 148.835 328.98C148.655 329.472 148.559 330.096 148.547 330.852V331.158C148.547 331.95 148.631 332.622 148.799 333.174C148.967 333.726 149.249 334.146 149.645 334.434C150.053 334.722 150.605 334.866 151.301 334.866C151.889 334.866 152.369 334.704 152.741 334.38C153.125 334.056 153.407 333.618 153.587 333.066C153.779 332.502 153.875 331.86 153.875 331.14C153.875 330.036 153.659 329.154 153.227 328.494C152.807 327.834 152.153 327.504 151.265 327.504ZM166.425 331.158C166.425 331.962 166.317 332.676 166.101 333.3C165.897 333.912 165.597 334.434 165.201 334.866C164.817 335.298 164.343 335.628 163.779 335.856C163.227 336.072 162.609 336.18 161.925 336.18C161.289 336.18 160.701 336.072 160.161 335.856C159.621 335.628 159.153 335.298 158.757 334.866C158.361 334.434 158.049 333.912 157.821 333.3C157.605 332.676 157.497 331.962 157.497 331.158C157.497 330.09 157.677 329.19 158.037 328.458C158.397 327.714 158.913 327.15 159.585 326.766C160.257 326.37 161.055 326.172 161.979 326.172C162.855 326.172 163.623 326.37 164.283 326.766C164.955 327.15 165.477 327.714 165.849 328.458C166.233 329.19 166.425 330.09 166.425 331.158ZM159.135 331.158C159.135 331.914 159.231 332.574 159.423 333.138C159.627 333.69 159.939 334.116 160.359 334.416C160.779 334.716 161.313 334.866 161.961 334.866C162.609 334.866 163.143 334.716 163.563 334.416C163.983 334.116 164.289 333.69 164.481 333.138C164.685 332.574 164.787 331.914 164.787 331.158C164.787 330.39 164.685 329.736 164.481 329.196C164.277 328.656 163.965 328.242 163.545 327.954C163.137 327.654 162.603 327.504 161.943 327.504C160.959 327.504 160.245 327.828 159.801 328.476C159.357 329.124 159.135 330.018 159.135 331.158ZM176.693 328.782C176.693 329.382 176.513 329.85 176.153 330.186C175.793 330.522 175.331 330.75 174.767 330.87V330.942C175.367 331.026 175.889 331.242 176.333 331.59C176.777 331.926 176.999 332.454 176.999 333.174C176.999 333.582 176.921 333.96 176.765 334.308C176.621 334.656 176.393 334.956 176.081 335.208C175.769 335.46 175.367 335.658 174.875 335.802C174.383 335.934 173.789 336 173.093 336H168.935V326.352H173.075C173.759 326.352 174.371 326.43 174.911 326.586C175.463 326.73 175.895 326.982 176.207 327.342C176.531 327.69 176.693 328.17 176.693 328.782ZM175.361 333.174C175.361 332.622 175.151 332.226 174.731 331.986C174.311 331.746 173.693 331.626 172.877 331.626H170.519V334.722H172.913C173.705 334.722 174.311 334.608 174.731 334.38C175.151 334.14 175.361 333.738 175.361 333.174ZM175.091 328.98C175.091 328.524 174.923 328.194 174.587 327.99C174.263 327.774 173.729 327.666 172.985 327.666H170.519V330.312H172.697C173.477 330.312 174.071 330.204 174.479 329.988C174.887 329.772 175.091 329.436 175.091 328.98ZM183.752 330.312C184.592 330.312 185.288 330.414 185.84 330.618C186.392 330.822 186.806 331.128 187.082 331.536C187.37 331.932 187.514 332.436 187.514 333.048C187.514 333.648 187.376 334.17 187.1 334.614C186.836 335.058 186.422 335.4 185.858 335.64C185.294 335.88 184.568 336 183.68 336H179.306V326.352H180.89V330.312H183.752ZM185.93 333.138C185.93 332.55 185.72 332.154 185.3 331.95C184.892 331.734 184.316 331.626 183.572 331.626H180.89V334.722H183.608C184.28 334.722 184.832 334.602 185.264 334.362C185.708 334.122 185.93 333.714 185.93 333.138ZM202.912 326.352V336H201.328V327.702H196.342V336H194.758V326.352H202.912ZM210.58 326.172C211.768 326.172 212.722 326.586 213.442 327.414C214.174 328.242 214.54 329.49 214.54 331.158C214.54 332.25 214.372 333.174 214.036 333.93C213.712 334.674 213.25 335.238 212.65 335.622C212.062 335.994 211.366 336.18 210.562 336.18C210.07 336.18 209.632 336.114 209.248 335.982C208.864 335.85 208.534 335.682 208.258 335.478C207.994 335.262 207.766 335.028 207.574 334.776H207.466C207.49 334.98 207.514 335.238 207.538 335.55C207.562 335.862 207.574 336.132 207.574 336.36V340.32H205.99V326.352H207.286L207.502 327.666H207.574C207.766 327.39 207.994 327.138 208.258 326.91C208.534 326.682 208.858 326.502 209.23 326.37C209.614 326.238 210.064 326.172 210.58 326.172ZM210.292 327.504C209.644 327.504 209.122 327.63 208.726 327.882C208.33 328.122 208.042 328.488 207.862 328.98C207.682 329.472 207.586 330.096 207.574 330.852V331.158C207.574 331.95 207.658 332.622 207.826 333.174C207.994 333.726 208.276 334.146 208.672 334.434C209.08 334.722 209.632 334.866 210.328 334.866C210.916 334.866 211.396 334.704 211.768 334.38C212.152 334.056 212.434 333.618 212.614 333.066C212.806 332.502 212.902 331.86 212.902 331.14C212.902 330.036 212.686 329.154 212.254 328.494C211.834 327.834 211.18 327.504 210.292 327.504ZM220.79 326.172C221.618 326.172 222.326 326.352 222.914 326.712C223.514 327.072 223.97 327.582 224.282 328.242C224.606 328.89 224.768 329.652 224.768 330.528V331.482H218.162C218.186 332.574 218.462 333.408 218.99 333.984C219.53 334.548 220.28 334.83 221.24 334.83C221.852 334.83 222.392 334.776 222.86 334.668C223.34 334.548 223.832 334.38 224.336 334.164V335.55C223.844 335.766 223.358 335.922 222.878 336.018C222.398 336.126 221.828 336.18 221.168 336.18C220.256 336.18 219.446 335.994 218.738 335.622C218.042 335.25 217.496 334.698 217.1 333.966C216.716 333.222 216.524 332.316 216.524 331.248C216.524 330.192 216.698 329.286 217.046 328.53C217.406 327.774 217.904 327.192 218.54 326.784C219.188 326.376 219.938 326.172 220.79 326.172ZM220.772 327.468C220.016 327.468 219.416 327.714 218.972 328.206C218.54 328.686 218.282 329.358 218.198 330.222H223.112C223.112 329.67 223.028 329.19 222.86 328.782C222.692 328.374 222.434 328.056 222.086 327.828C221.75 327.588 221.312 327.468 220.772 327.468ZM234.388 326.352V334.668H235.792V339.348H234.262V336H227.548V339.348H226.036V334.668H226.81C227.362 333.9 227.818 333.066 228.178 332.166C228.55 331.254 228.826 330.306 229.006 329.322C229.198 328.326 229.3 327.336 229.312 326.352H234.388ZM230.716 327.594C230.668 328.41 230.542 329.256 230.338 330.132C230.134 330.996 229.87 331.824 229.546 332.616C229.234 333.408 228.868 334.092 228.448 334.668H232.858V327.594H230.716ZM246.071 331.158C246.071 331.962 245.963 332.676 245.747 333.3C245.543 333.912 245.243 334.434 244.847 334.866C244.463 335.298 243.989 335.628 243.425 335.856C242.873 336.072 242.255 336.18 241.571 336.18C240.935 336.18 240.347 336.072 239.807 335.856C239.267 335.628 238.799 335.298 238.403 334.866C238.007 334.434 237.695 333.912 237.467 333.3C237.251 332.676 237.143 331.962 237.143 331.158C237.143 330.09 237.323 329.19 237.683 328.458C238.043 327.714 238.559 327.15 239.231 326.766C239.903 326.37 240.701 326.172 241.625 326.172C242.501 326.172 243.269 326.37 243.929 326.766C244.601 327.15 245.123 327.714 245.495 328.458C245.879 329.19 246.071 330.09 246.071 331.158ZM238.781 331.158C238.781 331.914 238.877 332.574 239.069 333.138C239.273 333.69 239.585 334.116 240.005 334.416C240.425 334.716 240.959 334.866 241.607 334.866C242.255 334.866 242.789 334.716 243.209 334.416C243.629 334.116 243.935 333.69 244.127 333.138C244.331 332.574 244.433 331.914 244.433 331.158C244.433 330.39 244.331 329.736 244.127 329.196C243.923 328.656 243.611 328.242 243.191 327.954C242.783 327.654 242.249 327.504 241.589 327.504C240.605 327.504 239.891 327.828 239.447 328.476C239.003 329.124 238.781 330.018 238.781 331.158ZM255.066 327.684H251.916V336H250.35V327.684H247.236V326.352H255.066V327.684ZM264.725 328.782C264.725 329.382 264.545 329.85 264.185 330.186C263.825 330.522 263.363 330.75 262.799 330.87V330.942C263.399 331.026 263.921 331.242 264.365 331.59C264.809 331.926 265.031 332.454 265.031 333.174C265.031 333.582 264.953 333.96 264.797 334.308C264.653 334.656 264.425 334.956 264.113 335.208C263.801 335.46 263.399 335.658 262.907 335.802C262.415 335.934 261.821 336 261.125 336H256.967V326.352H261.107C261.791 326.352 262.403 326.43 262.943 326.586C263.495 326.73 263.927 326.982 264.239 327.342C264.563 327.69 264.725 328.17 264.725 328.782ZM263.393 333.174C263.393 332.622 263.183 332.226 262.763 331.986C262.343 331.746 261.725 331.626 260.909 331.626H258.551V334.722H260.945C261.737 334.722 262.343 334.608 262.763 334.38C263.183 334.14 263.393 333.738 263.393 333.174ZM263.123 328.98C263.123 328.524 262.955 328.194 262.619 327.99C262.295 327.774 261.761 327.666 261.017 327.666H258.551V330.312H260.729C261.509 330.312 262.103 330.204 262.511 329.988C262.919 329.772 263.123 329.436 263.123 328.98ZM271.928 326.172C273.116 326.172 274.07 326.586 274.79 327.414C275.522 328.242 275.888 329.49 275.888 331.158C275.888 332.25 275.72 333.174 275.384 333.93C275.06 334.674 274.598 335.238 273.998 335.622C273.41 335.994 272.714 336.18 271.91 336.18C271.418 336.18 270.98 336.114 270.596 335.982C270.212 335.85 269.882 335.682 269.606 335.478C269.342 335.262 269.114 335.028 268.922 334.776H268.814C268.838 334.98 268.862 335.238 268.886 335.55C268.91 335.862 268.922 336.132 268.922 336.36V340.32H267.338V326.352H268.634L268.85 327.666H268.922C269.114 327.39 269.342 327.138 269.606 326.91C269.882 326.682 270.206 326.502 270.578 326.37C270.962 326.238 271.412 326.172 271.928 326.172ZM271.64 327.504C270.992 327.504 270.47 327.63 270.074 327.882C269.678 328.122 269.39 328.488 269.21 328.98C269.03 329.472 268.934 330.096 268.922 330.852V331.158C268.922 331.95 269.006 332.622 269.174 333.174C269.342 333.726 269.624 334.146 270.02 334.434C270.428 334.722 270.98 334.866 271.676 334.866C272.264 334.866 272.744 334.704 273.116 334.38C273.5 334.056 273.782 333.618 273.962 333.066C274.154 332.502 274.25 331.86 274.25 331.14C274.25 330.036 274.034 329.154 273.602 328.494C273.182 327.834 272.528 327.504 271.64 327.504ZM282.066 326.19C283.242 326.19 284.112 326.448 284.676 326.964C285.24 327.48 285.522 328.302 285.522 329.43V336H284.37L284.064 334.632H283.992C283.716 334.98 283.428 335.274 283.128 335.514C282.84 335.742 282.504 335.91 282.12 336.018C281.748 336.126 281.292 336.18 280.752 336.18C280.176 336.18 279.654 336.078 279.186 335.874C278.73 335.67 278.37 335.358 278.106 334.938C277.842 334.506 277.71 333.966 277.71 333.318C277.71 332.358 278.088 331.62 278.844 331.104C279.6 330.576 280.764 330.288 282.336 330.24L283.974 330.186V329.61C283.974 328.806 283.8 328.248 283.452 327.936C283.104 327.624 282.612 327.468 281.976 327.468C281.472 327.468 280.992 327.546 280.536 327.702C280.08 327.846 279.654 328.014 279.258 328.206L278.772 327.018C279.192 326.79 279.69 326.598 280.266 326.442C280.842 326.274 281.442 326.19 282.066 326.19ZM282.534 331.338C281.334 331.386 280.5 331.578 280.032 331.914C279.576 332.25 279.348 332.724 279.348 333.336C279.348 333.876 279.51 334.272 279.834 334.524C280.17 334.776 280.596 334.902 281.112 334.902C281.928 334.902 282.606 334.68 283.146 334.236C283.686 333.78 283.956 333.084 283.956 332.148V331.284L282.534 331.338ZM301.57 326.352V334.686H302.974V339.33H301.39V336H288.502V326.352H290.086V334.668H294.244V326.352H295.828V334.668H300.004V326.352H301.57ZM308.468 326.19C309.644 326.19 310.514 326.448 311.078 326.964C311.642 327.48 311.924 328.302 311.924 329.43V336H310.772L310.466 334.632H310.394C310.118 334.98 309.83 335.274 309.53 335.514C309.242 335.742 308.906 335.91 308.522 336.018C308.15 336.126 307.694 336.18 307.154 336.18C306.578 336.18 306.056 336.078 305.588 335.874C305.132 335.67 304.772 335.358 304.508 334.938C304.244 334.506 304.112 333.966 304.112 333.318C304.112 332.358 304.49 331.62 305.246 331.104C306.002 330.576 307.166 330.288 308.738 330.24L310.376 330.186V329.61C310.376 328.806 310.202 328.248 309.854 327.936C309.506 327.624 309.014 327.468 308.378 327.468C307.874 327.468 307.394 327.546 306.938 327.702C306.482 327.846 306.056 328.014 305.66 328.206L305.174 327.018C305.594 326.79 306.092 326.598 306.668 326.442C307.244 326.274 307.844 326.19 308.468 326.19ZM308.936 331.338C307.736 331.386 306.902 331.578 306.434 331.914C305.978 332.25 305.75 332.724 305.75 333.336C305.75 333.876 305.912 334.272 306.236 334.524C306.572 334.776 306.998 334.902 307.514 334.902C308.33 334.902 309.008 334.68 309.548 334.236C310.088 333.78 310.358 333.084 310.358 332.148V331.284L308.936 331.338ZM318.63 326.172C319.458 326.172 320.166 326.352 320.754 326.712C321.354 327.072 321.81 327.582 322.122 328.242C322.446 328.89 322.608 329.652 322.608 330.528V331.482H316.002C316.026 332.574 316.302 333.408 316.83 333.984C317.37 334.548 318.12 334.83 319.08 334.83C319.692 334.83 320.232 334.776 320.7 334.668C321.18 334.548 321.672 334.38 322.176 334.164V335.55C321.684 335.766 321.198 335.922 320.718 336.018C320.238 336.126 319.668 336.18 319.008 336.18C318.096 336.18 317.286 335.994 316.578 335.622C315.882 335.25 315.336 334.698 314.94 333.966C314.556 333.222 314.364 332.316 314.364 331.248C314.364 330.192 314.538 329.286 314.886 328.53C315.246 327.774 315.744 327.192 316.38 326.784C317.028 326.376 317.778 326.172 318.63 326.172ZM318.612 327.468C317.856 327.468 317.256 327.714 316.812 328.206C316.38 328.686 316.122 329.358 316.038 330.222H320.952C320.952 329.67 320.868 329.19 320.7 328.782C320.532 328.374 320.274 328.056 319.926 327.828C319.59 327.588 319.152 327.468 318.612 327.468ZM331.724 327.684H328.574V336H327.008V327.684H323.894V326.352H331.724V327.684ZM101.886 359.18C101.034 359.18 100.272 359.006 99.6003 358.658C98.9403 358.31 98.4183 357.77 98.0343 357.038C97.6623 356.306 97.4763 355.37 97.4763 354.23C97.4763 353.042 97.6743 352.076 98.0703 351.332C98.4663 350.588 99.0003 350.042 99.6723 349.694C100.356 349.346 101.13 349.172 101.994 349.172C102.486 349.172 102.96 349.226 103.416 349.334C103.872 349.43 104.244 349.55 104.532 349.694L104.046 351.008C103.758 350.9 103.422 350.798 103.038 350.702C102.654 350.606 102.294 350.558 101.958 350.558C101.31 350.558 100.776 350.696 100.356 350.972C99.9363 351.248 99.6243 351.656 99.4203 352.196C99.2163 352.736 99.1143 353.408 99.1143 354.212C99.1143 354.98 99.2163 355.634 99.4203 356.174C99.6243 356.714 99.9303 357.122 100.338 357.398C100.746 357.674 101.256 357.812 101.868 357.812C102.396 357.812 102.858 357.758 103.254 357.65C103.662 357.542 104.034 357.41 104.37 357.254V358.658C104.046 358.826 103.686 358.952 103.29 359.036C102.906 359.132 102.438 359.18 101.886 359.18ZM117.015 349.352V359H115.593V352.844C115.593 352.592 115.599 352.328 115.611 352.052C115.635 351.776 115.659 351.506 115.683 351.242H115.629L112.479 359H111.147L108.087 351.242H108.033C108.057 351.506 108.069 351.776 108.069 352.052C108.081 352.328 108.087 352.61 108.087 352.898V359H106.665V349.352H108.771L111.813 357.11L114.909 349.352H117.015ZM123.82 349.172C124.648 349.172 125.356 349.352 125.944 349.712C126.544 350.072 127 350.582 127.312 351.242C127.636 351.89 127.798 352.652 127.798 353.528V354.482H121.192C121.216 355.574 121.492 356.408 122.02 356.984C122.56 357.548 123.31 357.83 124.27 357.83C124.882 357.83 125.422 357.776 125.89 357.668C126.37 357.548 126.862 357.38 127.366 357.164V358.55C126.874 358.766 126.388 358.922 125.908 359.018C125.428 359.126 124.858 359.18 124.198 359.18C123.286 359.18 122.476 358.994 121.768 358.622C121.072 358.25 120.526 357.698 120.13 356.966C119.746 356.222 119.554 355.316 119.554 354.248C119.554 353.192 119.728 352.286 120.076 351.53C120.436 350.774 120.934 350.192 121.57 349.784C122.218 349.376 122.968 349.172 123.82 349.172ZM123.802 350.468C123.046 350.468 122.446 350.714 122.002 351.206C121.57 351.686 121.312 352.358 121.228 353.222H126.142C126.142 352.67 126.058 352.19 125.89 351.782C125.722 351.374 125.464 351.056 125.116 350.828C124.78 350.588 124.342 350.468 123.802 350.468ZM134.845 349.172C136.033 349.172 136.987 349.586 137.707 350.414C138.439 351.242 138.805 352.49 138.805 354.158C138.805 355.25 138.637 356.174 138.301 356.93C137.977 357.674 137.515 358.238 136.915 358.622C136.327 358.994 135.631 359.18 134.827 359.18C134.335 359.18 133.897 359.114 133.513 358.982C133.129 358.85 132.799 358.682 132.523 358.478C132.259 358.262 132.031 358.028 131.839 357.776H131.731C131.755 357.98 131.779 358.238 131.803 358.55C131.827 358.862 131.839 359.132 131.839 359.36V363.32H130.255V349.352H131.551L131.767 350.666H131.839C132.031 350.39 132.259 350.138 132.523 349.91C132.799 349.682 133.123 349.502 133.495 349.37C133.879 349.238 134.329 349.172 134.845 349.172ZM134.557 350.504C133.909 350.504 133.387 350.63 132.991 350.882C132.595 351.122 132.307 351.488 132.127 351.98C131.947 352.472 131.851 353.096 131.839 353.852V354.158C131.839 354.95 131.923 355.622 132.091 356.174C132.259 356.726 132.541 357.146 132.937 357.434C133.345 357.722 133.897 357.866 134.593 357.866C135.181 357.866 135.661 357.704 136.033 357.38C136.417 357.056 136.699 356.618 136.879 356.066C137.071 355.502 137.167 354.86 137.167 354.14C137.167 353.036 136.951 352.154 136.519 351.494C136.099 350.834 135.445 350.504 134.557 350.504ZM147.813 350.684H144.663V359H143.097V350.684H139.983V349.352H147.813V350.684ZM151.298 349.352V353.366H156.536V349.352H158.12V359H156.536V354.698H151.298V359H149.714V349.352H151.298ZM169.563 354.158C169.563 354.962 169.455 355.676 169.239 356.3C169.035 356.912 168.735 357.434 168.339 357.866C167.955 358.298 167.481 358.628 166.917 358.856C166.365 359.072 165.747 359.18 165.063 359.18C164.427 359.18 163.839 359.072 163.299 358.856C162.759 358.628 162.291 358.298 161.895 357.866C161.499 357.434 161.187 356.912 160.959 356.3C160.743 355.676 160.635 354.962 160.635 354.158C160.635 353.09 160.815 352.19 161.175 351.458C161.535 350.714 162.051 350.15 162.723 349.766C163.395 349.37 164.193 349.172 165.117 349.172C165.993 349.172 166.761 349.37 167.421 349.766C168.093 350.15 168.615 350.714 168.987 351.458C169.371 352.19 169.563 353.09 169.563 354.158ZM162.273 354.158C162.273 354.914 162.369 355.574 162.561 356.138C162.765 356.69 163.077 357.116 163.497 357.416C163.917 357.716 164.451 357.866 165.099 357.866C165.747 357.866 166.281 357.716 166.701 357.416C167.121 357.116 167.427 356.69 167.619 356.138C167.823 355.574 167.925 354.914 167.925 354.158C167.925 353.39 167.823 352.736 167.619 352.196C167.415 351.656 167.103 351.242 166.683 350.954C166.275 350.654 165.741 350.504 165.081 350.504C164.097 350.504 163.383 350.828 162.939 351.476C162.495 352.124 162.273 353.018 162.273 354.158ZM175.943 359.18C175.091 359.18 174.329 359.006 173.657 358.658C172.997 358.31 172.475 357.77 172.091 357.038C171.719 356.306 171.533 355.37 171.533 354.23C171.533 353.042 171.731 352.076 172.127 351.332C172.523 350.588 173.057 350.042 173.729 349.694C174.413 349.346 175.187 349.172 176.051 349.172C176.543 349.172 177.017 349.226 177.473 349.334C177.929 349.43 178.301 349.55 178.589 349.694L178.103 351.008C177.815 350.9 177.479 350.798 177.095 350.702C176.711 350.606 176.351 350.558 176.015 350.558C175.367 350.558 174.833 350.696 174.413 350.972C173.993 351.248 173.681 351.656 173.477 352.196C173.273 352.736 173.171 353.408 173.171 354.212C173.171 354.98 173.273 355.634 173.477 356.174C173.681 356.714 173.987 357.122 174.395 357.398C174.803 357.674 175.313 357.812 175.925 357.812C176.453 357.812 176.915 357.758 177.311 357.65C177.719 357.542 178.091 357.41 178.427 357.254V358.658C178.103 358.826 177.743 358.952 177.347 359.036C176.963 359.132 176.495 359.18 175.943 359.18ZM187.381 350.684H184.231V359H182.665V350.684H179.551V349.352H187.381V350.684ZM193.728 353.312C194.568 353.312 195.264 353.414 195.816 353.618C196.368 353.822 196.782 354.128 197.058 354.536C197.346 354.932 197.49 355.436 197.49 356.048C197.49 356.648 197.352 357.17 197.076 357.614C196.812 358.058 196.398 358.4 195.834 358.64C195.27 358.88 194.544 359 193.656 359H189.282V349.352H190.866V353.312H193.728ZM195.906 356.138C195.906 355.55 195.696 355.154 195.276 354.95C194.868 354.734 194.292 354.626 193.548 354.626H190.866V357.722H193.584C194.256 357.722 194.808 357.602 195.24 357.362C195.684 357.122 195.906 356.714 195.906 356.138ZM213.121 354.158C213.121 354.962 213.013 355.676 212.797 356.3C212.593 356.912 212.293 357.434 211.897 357.866C211.513 358.298 211.039 358.628 210.475 358.856C209.923 359.072 209.305 359.18 208.621 359.18C207.985 359.18 207.397 359.072 206.857 358.856C206.317 358.628 205.849 358.298 205.453 357.866C205.057 357.434 204.745 356.912 204.517 356.3C204.301 355.676 204.193 354.962 204.193 354.158C204.193 353.09 204.373 352.19 204.733 351.458C205.093 350.714 205.609 350.15 206.281 349.766C206.953 349.37 207.751 349.172 208.675 349.172C209.551 349.172 210.319 349.37 210.979 349.766C211.651 350.15 212.173 350.714 212.545 351.458C212.929 352.19 213.121 353.09 213.121 354.158ZM205.831 354.158C205.831 354.914 205.927 355.574 206.119 356.138C206.323 356.69 206.635 357.116 207.055 357.416C207.475 357.716 208.009 357.866 208.657 357.866C209.305 357.866 209.839 357.716 210.259 357.416C210.679 357.116 210.985 356.69 211.177 356.138C211.381 355.574 211.483 354.914 211.483 354.158C211.483 353.39 211.381 352.736 211.177 352.196C210.973 351.656 210.661 351.242 210.241 350.954C209.833 350.654 209.299 350.504 208.639 350.504C207.655 350.504 206.941 350.828 206.497 351.476C206.053 352.124 205.831 353.018 205.831 354.158ZM222.116 350.684H218.966V359H217.4V350.684H214.286V349.352H222.116V350.684ZM233.37 349.172C234.558 349.172 235.512 349.586 236.232 350.414C236.964 351.242 237.33 352.49 237.33 354.158C237.33 355.25 237.162 356.174 236.826 356.93C236.502 357.674 236.04 358.238 235.44 358.622C234.852 358.994 234.156 359.18 233.352 359.18C232.86 359.18 232.422 359.114 232.038 358.982C231.654 358.85 231.324 358.682 231.048 358.478C230.784 358.262 230.556 358.028 230.364 357.776H230.256C230.28 357.98 230.304 358.238 230.328 358.55C230.352 358.862 230.364 359.132 230.364 359.36V363.32H228.78V349.352H230.076L230.292 350.666H230.364C230.556 350.39 230.784 350.138 231.048 349.91C231.324 349.682 231.648 349.502 232.02 349.37C232.404 349.238 232.854 349.172 233.37 349.172ZM233.082 350.504C232.434 350.504 231.912 350.63 231.516 350.882C231.12 351.122 230.832 351.488 230.652 351.98C230.472 352.472 230.376 353.096 230.364 353.852V354.158C230.364 354.95 230.448 355.622 230.616 356.174C230.784 356.726 231.066 357.146 231.462 357.434C231.87 357.722 232.422 357.866 233.118 357.866C233.706 357.866 234.186 357.704 234.558 357.38C234.942 357.056 235.224 356.618 235.404 356.066C235.596 355.502 235.692 354.86 235.692 354.14C235.692 353.036 235.476 352.154 235.044 351.494C234.624 350.834 233.97 350.504 233.082 350.504ZM243.508 349.19C244.684 349.19 245.554 349.448 246.118 349.964C246.682 350.48 246.964 351.302 246.964 352.43V359H245.812L245.506 357.632H245.434C245.158 357.98 244.87 358.274 244.57 358.514C244.282 358.742 243.946 358.91 243.562 359.018C243.19 359.126 242.734 359.18 242.194 359.18C241.618 359.18 241.096 359.078 240.628 358.874C240.172 358.67 239.812 358.358 239.548 357.938C239.284 357.506 239.152 356.966 239.152 356.318C239.152 355.358 239.53 354.62 240.286 354.104C241.042 353.576 242.206 353.288 243.778 353.24L245.416 353.186V352.61C245.416 351.806 245.242 351.248 244.894 350.936C244.546 350.624 244.054 350.468 243.418 350.468C242.914 350.468 242.434 350.546 241.978 350.702C241.522 350.846 241.096 351.014 240.7 351.206L240.214 350.018C240.634 349.79 241.132 349.598 241.708 349.442C242.284 349.274 242.884 349.19 243.508 349.19ZM243.976 354.338C242.776 354.386 241.942 354.578 241.474 354.914C241.018 355.25 240.79 355.724 240.79 356.336C240.79 356.876 240.952 357.272 241.276 357.524C241.612 357.776 242.038 357.902 242.554 357.902C243.37 357.902 244.048 357.68 244.588 357.236C245.128 356.78 245.398 356.084 245.398 355.148V354.284L243.976 354.338ZM255.65 349.352H257.378L253.256 353.996L257.72 359H255.884L251.528 354.104V359H249.944V349.352H251.528V354.032L255.65 349.352ZM263.125 349.19C264.301 349.19 265.171 349.448 265.735 349.964C266.299 350.48 266.581 351.302 266.581 352.43V359H265.429L265.123 357.632H265.051C264.775 357.98 264.487 358.274 264.187 358.514C263.899 358.742 263.563 358.91 263.179 359.018C262.807 359.126 262.351 359.18 261.811 359.18C261.235 359.18 260.713 359.078 260.245 358.874C259.789 358.67 259.429 358.358 259.165 357.938C258.901 357.506 258.769 356.966 258.769 356.318C258.769 355.358 259.147 354.62 259.903 354.104C260.659 353.576 261.823 353.288 263.395 353.24L265.033 353.186V352.61C265.033 351.806 264.859 351.248 264.511 350.936C264.163 350.624 263.671 350.468 263.035 350.468C262.531 350.468 262.051 350.546 261.595 350.702C261.139 350.846 260.713 351.014 260.317 351.206L259.831 350.018C260.251 349.79 260.749 349.598 261.325 349.442C261.901 349.274 262.501 349.19 263.125 349.19ZM263.593 354.338C262.393 354.386 261.559 354.578 261.091 354.914C260.635 355.25 260.407 355.724 260.407 356.336C260.407 356.876 260.569 357.272 260.893 357.524C261.229 357.776 261.655 357.902 262.171 357.902C262.987 357.902 263.665 357.68 264.205 357.236C264.745 356.78 265.015 356.084 265.015 355.148V354.284L263.593 354.338ZM282.713 354.158C282.713 354.962 282.605 355.676 282.389 356.3C282.185 356.912 281.885 357.434 281.489 357.866C281.105 358.298 280.631 358.628 280.067 358.856C279.515 359.072 278.897 359.18 278.213 359.18C277.577 359.18 276.989 359.072 276.449 358.856C275.909 358.628 275.441 358.298 275.045 357.866C274.649 357.434 274.337 356.912 274.109 356.3C273.893 355.676 273.785 354.962 273.785 354.158C273.785 353.09 273.965 352.19 274.325 351.458C274.685 350.714 275.201 350.15 275.873 349.766C276.545 349.37 277.343 349.172 278.267 349.172C279.143 349.172 279.911 349.37 280.571 349.766C281.243 350.15 281.765 350.714 282.137 351.458C282.521 352.19 282.713 353.09 282.713 354.158ZM275.423 354.158C275.423 354.914 275.519 355.574 275.711 356.138C275.915 356.69 276.227 357.116 276.647 357.416C277.067 357.716 277.601 357.866 278.249 357.866C278.897 357.866 279.431 357.716 279.851 357.416C280.271 357.116 280.577 356.69 280.769 356.138C280.973 355.574 281.075 354.914 281.075 354.158C281.075 353.39 280.973 352.736 280.769 352.196C280.565 351.656 280.253 351.242 279.833 350.954C279.425 350.654 278.891 350.504 278.231 350.504C277.247 350.504 276.533 350.828 276.089 351.476C275.645 352.124 275.423 353.018 275.423 354.158ZM284.719 353.204C284.719 351.8 284.857 350.606 285.133 349.622C285.421 348.626 285.859 347.834 286.447 347.246C287.047 346.646 287.815 346.244 288.751 346.04C289.531 345.872 290.293 345.722 291.037 345.59C291.781 345.458 292.477 345.338 293.125 345.23L293.395 346.616C293.083 346.664 292.735 346.724 292.351 346.796C291.967 346.856 291.577 346.922 291.181 346.994C290.785 347.054 290.401 347.12 290.029 347.192C289.669 347.252 289.351 347.312 289.075 347.372C288.679 347.456 288.325 347.6 288.013 347.804C287.701 347.996 287.431 348.26 287.203 348.596C286.987 348.932 286.813 349.346 286.681 349.838C286.549 350.33 286.471 350.912 286.447 351.584H286.555C286.723 351.356 286.951 351.122 287.239 350.882C287.539 350.642 287.893 350.438 288.301 350.27C288.721 350.102 289.195 350.018 289.723 350.018C290.563 350.018 291.259 350.204 291.811 350.576C292.375 350.936 292.795 351.44 293.071 352.088C293.359 352.736 293.503 353.492 293.503 354.356C293.503 355.424 293.317 356.318 292.945 357.038C292.573 357.758 292.057 358.298 291.397 358.658C290.737 359.006 289.969 359.18 289.093 359.18C288.433 359.18 287.833 359.054 287.293 358.802C286.753 358.538 286.291 358.154 285.907 357.65C285.523 357.146 285.229 356.522 285.025 355.778C284.821 355.034 284.719 354.176 284.719 353.204ZM289.219 357.866C289.747 357.866 290.203 357.758 290.587 357.542C290.983 357.326 291.289 356.972 291.505 356.48C291.721 355.988 291.829 355.334 291.829 354.518C291.829 353.534 291.643 352.76 291.271 352.196C290.911 351.62 290.311 351.332 289.471 351.332C288.943 351.332 288.463 351.452 288.031 351.692C287.599 351.92 287.239 352.184 286.951 352.484C286.663 352.784 286.459 353.036 286.339 353.24C286.339 353.828 286.381 354.398 286.465 354.95C286.549 355.502 286.693 356 286.897 356.444C287.113 356.876 287.407 357.224 287.779 357.488C288.163 357.74 288.643 357.866 289.219 357.866ZM304.387 354.158C304.387 354.962 304.279 355.676 304.063 356.3C303.859 356.912 303.559 357.434 303.163 357.866C302.779 358.298 302.305 358.628 301.741 358.856C301.189 359.072 300.571 359.18 299.887 359.18C299.251 359.18 298.663 359.072 298.123 358.856C297.583 358.628 297.115 358.298 296.719 357.866C296.323 357.434 296.011 356.912 295.783 356.3C295.567 355.676 295.459 354.962 295.459 354.158C295.459 353.09 295.639 352.19 295.999 351.458C296.359 350.714 296.875 350.15 297.547 349.766C298.219 349.37 299.017 349.172 299.941 349.172C300.817 349.172 301.585 349.37 302.245 349.766C302.917 350.15 303.439 350.714 303.811 351.458C304.195 352.19 304.387 353.09 304.387 354.158ZM297.097 354.158C297.097 354.914 297.193 355.574 297.385 356.138C297.589 356.69 297.901 357.116 298.321 357.416C298.741 357.716 299.275 357.866 299.923 357.866C300.571 357.866 301.105 357.716 301.525 357.416C301.945 357.116 302.251 356.69 302.443 356.138C302.647 355.574 302.749 354.914 302.749 354.158C302.749 353.39 302.647 352.736 302.443 352.196C302.239 351.656 301.927 351.242 301.507 350.954C301.099 350.654 300.565 350.504 299.905 350.504C298.921 350.504 298.207 350.828 297.763 351.476C297.319 352.124 297.097 353.018 297.097 354.158ZM314.061 349.352V357.668H315.465V362.348H313.935V359H307.221V362.348H305.709V357.668H306.483C307.035 356.9 307.491 356.066 307.851 355.166C308.223 354.254 308.499 353.306 308.679 352.322C308.871 351.326 308.973 350.336 308.985 349.352H314.061ZM310.389 350.594C310.341 351.41 310.215 352.256 310.011 353.132C309.807 353.996 309.543 354.824 309.219 355.616C308.907 356.408 308.541 357.092 308.121 357.668H312.531V350.594H310.389ZM325.744 354.158C325.744 354.962 325.636 355.676 325.42 356.3C325.216 356.912 324.916 357.434 324.52 357.866C324.136 358.298 323.662 358.628 323.098 358.856C322.546 359.072 321.928 359.18 321.244 359.18C320.608 359.18 320.02 359.072 319.48 358.856C318.94 358.628 318.472 358.298 318.076 357.866C317.68 357.434 317.368 356.912 317.14 356.3C316.924 355.676 316.816 354.962 316.816 354.158C316.816 353.09 316.996 352.19 317.356 351.458C317.716 350.714 318.232 350.15 318.904 349.766C319.576 349.37 320.374 349.172 321.298 349.172C322.174 349.172 322.942 349.37 323.602 349.766C324.274 350.15 324.796 350.714 325.168 351.458C325.552 352.19 325.744 353.09 325.744 354.158ZM318.454 354.158C318.454 354.914 318.55 355.574 318.742 356.138C318.946 356.69 319.258 357.116 319.678 357.416C320.098 357.716 320.632 357.866 321.28 357.866C321.928 357.866 322.462 357.716 322.882 357.416C323.302 357.116 323.608 356.69 323.8 356.138C324.004 355.574 324.106 354.914 324.106 354.158C324.106 353.39 324.004 352.736 323.8 352.196C323.596 351.656 323.284 351.242 322.864 350.954C322.456 350.654 321.922 350.504 321.262 350.504C320.278 350.504 319.564 350.828 319.12 351.476C318.676 352.124 318.454 353.018 318.454 354.158ZM329.465 352.862C329.465 353.426 329.621 353.846 329.933 354.122C330.257 354.386 330.719 354.518 331.319 354.518C331.919 354.518 332.465 354.428 332.957 354.248C333.449 354.056 333.953 353.804 334.469 353.492V349.352H336.053V359H334.469V354.698C333.929 355.046 333.395 355.322 332.867 355.526C332.351 355.718 331.727 355.814 330.995 355.814C330.011 355.814 329.243 355.556 328.691 355.04C328.151 354.524 327.881 353.834 327.881 352.97V349.352H329.465V352.862ZM340.702 349.352V353.366H345.94V349.352H347.524V359H345.94V354.698H340.702V359H339.118V349.352H340.702ZM358.967 354.158C358.967 354.962 358.859 355.676 358.643 356.3C358.439 356.912 358.139 357.434 357.743 357.866C357.359 358.298 356.885 358.628 356.321 358.856C355.769 359.072 355.151 359.18 354.467 359.18C353.831 359.18 353.243 359.072 352.703 358.856C352.163 358.628 351.695 358.298 351.299 357.866C350.903 357.434 350.591 356.912 350.363 356.3C350.147 355.676 350.039 354.962 350.039 354.158C350.039 353.09 350.219 352.19 350.579 351.458C350.939 350.714 351.455 350.15 352.127 349.766C352.799 349.37 353.597 349.172 354.521 349.172C355.397 349.172 356.165 349.37 356.825 349.766C357.497 350.15 358.019 350.714 358.391 351.458C358.775 352.19 358.967 353.09 358.967 354.158ZM351.677 354.158C351.677 354.914 351.773 355.574 351.965 356.138C352.169 356.69 352.481 357.116 352.901 357.416C353.321 357.716 353.855 357.866 354.503 357.866C355.151 357.866 355.685 357.716 356.105 357.416C356.525 357.116 356.831 356.69 357.023 356.138C357.227 355.574 357.329 354.914 357.329 354.158C357.329 353.39 357.227 352.736 357.023 352.196C356.819 351.656 356.507 351.242 356.087 350.954C355.679 350.654 355.145 350.504 354.485 350.504C353.501 350.504 352.787 350.828 352.343 351.476C351.899 352.124 351.677 353.018 351.677 354.158ZM369.289 345.356C369.241 345.956 369.091 346.46 368.839 346.868C368.599 347.276 368.239 347.582 367.759 347.786C367.279 347.99 366.655 348.092 365.887 348.092C365.107 348.092 364.477 347.99 363.997 347.786C363.529 347.582 363.187 347.282 362.971 346.886C362.755 346.478 362.623 345.968 362.575 345.356H364.051C364.111 346.004 364.279 346.442 364.555 346.67C364.843 346.886 365.299 346.994 365.923 346.994C366.475 346.994 366.907 346.88 367.219 346.652C367.543 346.412 367.735 345.98 367.795 345.356H369.289ZM362.971 355.238C362.971 355.346 362.965 355.502 362.953 355.706C362.953 355.898 362.947 356.108 362.935 356.336C362.923 356.552 362.911 356.762 362.899 356.966C362.887 357.158 362.875 357.314 362.863 357.434L368.029 349.352H369.973V359H368.497V353.312C368.497 353.12 368.497 352.868 368.497 352.556C368.509 352.244 368.521 351.938 368.533 351.638C368.545 351.326 368.557 351.092 368.569 350.936L363.439 359H361.477V349.352H362.971V355.238ZM160.946 378.238C160.946 378.346 160.94 378.502 160.928 378.706C160.928 378.898 160.922 379.108 160.91 379.336C160.898 379.552 160.886 379.762 160.874 379.966C160.862 380.158 160.85 380.314 160.838 380.434L166.004 372.352H167.948V382H166.472V376.312C166.472 376.12 166.472 375.868 166.472 375.556C166.484 375.244 166.496 374.938 166.508 374.638C166.52 374.326 166.532 374.092 166.544 373.936L161.414 382H159.452V372.352H160.946V378.238ZM182.442 373.684H179.292V382H177.726V373.684H174.612V372.352H182.442V373.684ZM192.555 377.158C192.555 377.962 192.447 378.676 192.231 379.3C192.027 379.912 191.727 380.434 191.331 380.866C190.947 381.298 190.473 381.628 189.909 381.856C189.357 382.072 188.739 382.18 188.055 382.18C187.419 382.18 186.831 382.072 186.291 381.856C185.751 381.628 185.283 381.298 184.887 380.866C184.491 380.434 184.179 379.912 183.951 379.3C183.735 378.676 183.627 377.962 183.627 377.158C183.627 376.09 183.807 375.19 184.167 374.458C184.527 373.714 185.043 373.15 185.715 372.766C186.387 372.37 187.185 372.172 188.109 372.172C188.985 372.172 189.753 372.37 190.413 372.766C191.085 373.15 191.607 373.714 191.979 374.458C192.363 375.19 192.555 376.09 192.555 377.158ZM185.265 377.158C185.265 377.914 185.361 378.574 185.553 379.138C185.757 379.69 186.069 380.116 186.489 380.416C186.909 380.716 187.443 380.866 188.091 380.866C188.739 380.866 189.273 380.716 189.693 380.416C190.113 380.116 190.419 379.69 190.611 379.138C190.815 378.574 190.917 377.914 190.917 377.158C190.917 376.39 190.815 375.736 190.611 375.196C190.407 374.656 190.095 374.242 189.675 373.954C189.267 373.654 188.733 373.504 188.073 373.504C187.089 373.504 186.375 373.828 185.931 374.476C185.487 375.124 185.265 376.018 185.265 377.158ZM202.409 382H200.807V373.666H197.963C197.843 375.19 197.693 376.492 197.513 377.572C197.333 378.64 197.105 379.51 196.829 380.182C196.553 380.854 196.223 381.346 195.839 381.658C195.455 381.97 195.005 382.126 194.489 382.126C194.333 382.126 194.177 382.114 194.021 382.09C193.877 382.078 193.757 382.048 193.661 382V380.812C193.733 380.836 193.811 380.854 193.895 380.866C193.979 380.878 194.063 380.884 194.147 380.884C194.411 380.884 194.651 380.776 194.867 380.56C195.083 380.344 195.275 380.014 195.443 379.57C195.623 379.126 195.785 378.568 195.929 377.896C196.073 377.212 196.199 376.408 196.307 375.484C196.415 374.56 196.511 373.516 196.595 372.352H202.409V382ZM209.341 382.18C208.489 382.18 207.727 382.006 207.055 381.658C206.395 381.31 205.873 380.77 205.489 380.038C205.117 379.306 204.931 378.37 204.931 377.23C204.931 376.042 205.129 375.076 205.525 374.332C205.921 373.588 206.455 373.042 207.127 372.694C207.811 372.346 208.585 372.172 209.449 372.172C209.941 372.172 210.415 372.226 210.871 372.334C211.327 372.43 211.699 372.55 211.987 372.694L211.501 374.008C211.213 373.9 210.877 373.798 210.493 373.702C210.109 373.606 209.749 373.558 209.413 373.558C208.765 373.558 208.231 373.696 207.811 373.972C207.391 374.248 207.079 374.656 206.875 375.196C206.671 375.736 206.569 376.408 206.569 377.212C206.569 377.98 206.671 378.634 206.875 379.174C207.079 379.714 207.385 380.122 207.793 380.398C208.201 380.674 208.711 380.812 209.323 380.812C209.851 380.812 210.313 380.758 210.709 380.65C211.117 380.542 211.489 380.41 211.825 380.254V381.658C211.501 381.826 211.141 381.952 210.745 382.036C210.361 382.132 209.893 382.18 209.341 382.18ZM220.78 373.684H217.63V382H216.064V373.684H212.95V372.352H220.78V373.684ZM230.893 377.158C230.893 377.962 230.785 378.676 230.569 379.3C230.365 379.912 230.065 380.434 229.669 380.866C229.285 381.298 228.811 381.628 228.247 381.856C227.695 382.072 227.077 382.18 226.393 382.18C225.757 382.18 225.169 382.072 224.629 381.856C224.089 381.628 223.621 381.298 223.225 380.866C222.829 380.434 222.517 379.912 222.289 379.3C222.073 378.676 221.965 377.962 221.965 377.158C221.965 376.09 222.145 375.19 222.505 374.458C222.865 373.714 223.381 373.15 224.053 372.766C224.725 372.37 225.523 372.172 226.447 372.172C227.323 372.172 228.091 372.37 228.751 372.766C229.423 373.15 229.945 373.714 230.317 374.458C230.701 375.19 230.893 376.09 230.893 377.158ZM223.603 377.158C223.603 377.914 223.699 378.574 223.891 379.138C224.095 379.69 224.407 380.116 224.827 380.416C225.247 380.716 225.781 380.866 226.429 380.866C227.077 380.866 227.611 380.716 228.031 380.416C228.451 380.116 228.757 379.69 228.949 379.138C229.153 378.574 229.255 377.914 229.255 377.158C229.255 376.39 229.153 375.736 228.949 375.196C228.745 374.656 228.433 374.242 228.013 373.954C227.605 373.654 227.071 373.504 226.411 373.504C225.427 373.504 224.713 373.828 224.269 374.476C223.825 375.124 223.603 376.018 223.603 377.158ZM241.215 368.356C241.167 368.956 241.017 369.46 240.765 369.868C240.525 370.276 240.165 370.582 239.685 370.786C239.205 370.99 238.581 371.092 237.813 371.092C237.033 371.092 236.403 370.99 235.923 370.786C235.455 370.582 235.113 370.282 234.897 369.886C234.681 369.478 234.549 368.968 234.501 368.356H235.977C236.037 369.004 236.205 369.442 236.481 369.67C236.769 369.886 237.225 369.994 237.849 369.994C238.401 369.994 238.833 369.88 239.145 369.652C239.469 369.412 239.661 368.98 239.721 368.356H241.215ZM234.897 378.238C234.897 378.346 234.891 378.502 234.879 378.706C234.879 378.898 234.873 379.108 234.861 379.336C234.849 379.552 234.837 379.762 234.825 379.966C234.813 380.158 234.801 380.314 234.789 380.434L239.955 372.352H241.899V382H240.423V376.312C240.423 376.12 240.423 375.868 240.423 375.556C240.435 375.244 240.447 374.938 240.459 374.638C240.471 374.326 240.483 374.092 240.495 373.936L235.365 382H233.403V372.352H234.897V378.238ZM255.439 372.352H257.167L253.045 376.996L257.509 382H255.673L251.317 377.104V382H249.733V372.352H251.317V377.032L255.439 372.352ZM260.754 378.238C260.754 378.346 260.748 378.502 260.736 378.706C260.736 378.898 260.73 379.108 260.718 379.336C260.706 379.552 260.694 379.762 260.682 379.966C260.67 380.158 260.658 380.314 260.646 380.434L265.812 372.352H267.756V382H266.28V376.312C266.28 376.12 266.28 375.868 266.28 375.556C266.292 375.244 266.304 374.938 266.316 374.638C266.328 374.326 266.34 374.092 266.352 373.936L261.222 382H259.26V372.352H260.754V378.238ZM283.913 372.352V382H270.827V372.352H272.411V380.668H276.569V372.352H278.153V380.668H282.329V372.352H283.913ZM292.705 372.352H294.433L290.311 376.996L294.775 382H292.939L288.583 377.104V382H286.999V372.352H288.583V377.032L292.705 372.352ZM298.02 378.238C298.02 378.346 298.014 378.502 298.002 378.706C298.002 378.898 297.996 379.108 297.984 379.336C297.972 379.552 297.96 379.762 297.948 379.966C297.936 380.158 297.924 380.314 297.912 380.434L303.078 372.352H305.022V382H303.546V376.312C303.546 376.12 303.546 375.868 303.546 375.556C303.558 375.244 303.57 374.938 303.582 374.638C303.594 374.326 303.606 374.092 303.618 373.936L298.488 382H296.526V372.352H298.02V378.238ZM308.327 382.09C308.027 382.09 307.775 381.994 307.571 381.802C307.379 381.598 307.283 381.352 307.283 381.064C307.283 380.776 307.379 380.536 307.571 380.344C307.775 380.14 308.027 380.038 308.327 380.038C308.615 380.038 308.855 380.14 309.047 380.344C309.251 380.536 309.353 380.776 309.353 381.064C309.353 381.352 309.251 381.598 309.047 381.802C308.855 381.994 308.615 382.09 308.327 382.09Z" fill="black"/>
<path d="M209.754 189.384C208.282 189.384 206.949 189.128 205.754 188.616C204.559 188.083 203.599 187.272 202.874 186.184C202.149 185.096 201.765 183.731 201.722 182.088H205.754C205.775 183.176 206.127 184.093 206.81 184.84C207.514 185.565 208.495 185.928 209.754 185.928C210.949 185.928 211.866 185.597 212.506 184.936C213.146 184.275 213.466 183.443 213.466 182.44C213.466 181.267 213.039 180.381 212.186 179.784C211.354 179.165 210.277 178.856 208.954 178.856H207.29V175.496H208.986C210.074 175.496 210.981 175.24 211.706 174.728C212.431 174.216 212.794 173.459 212.794 172.456C212.794 171.624 212.517 170.963 211.962 170.472C211.429 169.96 210.682 169.704 209.722 169.704C208.677 169.704 207.855 170.013 207.258 170.632C206.682 171.251 206.362 172.008 206.298 172.904H202.298C202.383 170.835 203.098 169.203 204.442 168.008C205.807 166.813 207.567 166.216 209.722 166.216C211.258 166.216 212.549 166.493 213.594 167.048C214.661 167.581 215.461 168.296 215.994 169.192C216.549 170.088 216.826 171.08 216.826 172.168C216.826 173.427 216.474 174.493 215.77 175.368C215.087 176.221 214.234 176.797 213.21 177.096C214.469 177.352 215.493 177.971 216.282 178.952C217.071 179.912 217.466 181.128 217.466 182.6C217.466 183.837 217.167 184.968 216.57 185.992C215.973 187.016 215.098 187.837 213.946 188.456C212.815 189.075 211.418 189.384 209.754 189.384ZM228.817 189.384C227.345 189.384 226.011 189.128 224.817 188.616C223.622 188.083 222.662 187.272 221.937 186.184C221.211 185.096 220.827 183.731 220.785 182.088H224.817C224.838 183.176 225.19 184.093 225.873 184.84C226.577 185.565 227.558 185.928 228.817 185.928C230.011 185.928 230.929 185.597 231.569 184.936C232.209 184.275 232.529 183.443 232.529 182.44C232.529 181.267 232.102 180.381 231.249 179.784C230.417 179.165 229.339 178.856 228.017 178.856H226.353V175.496H228.049C229.137 175.496 230.043 175.24 230.769 174.728C231.494 174.216 231.857 173.459 231.857 172.456C231.857 171.624 231.579 170.963 231.025 170.472C230.491 169.96 229.745 169.704 228.785 169.704C227.739 169.704 226.918 170.013 226.321 170.632C225.745 171.251 225.425 172.008 225.361 172.904H221.361C221.446 170.835 222.161 169.203 223.505 168.008C224.87 166.813 226.63 166.216 228.785 166.216C230.321 166.216 231.611 166.493 232.657 167.048C233.723 167.581 234.523 168.296 235.057 169.192C235.611 170.088 235.889 171.08 235.889 172.168C235.889 173.427 235.537 174.493 234.833 175.368C234.15 176.221 233.297 176.797 232.273 177.096C233.531 177.352 234.555 177.971 235.345 178.952C236.134 179.912 236.529 181.128 236.529 182.6C236.529 183.837 236.23 184.968 235.633 185.992C235.035 187.016 234.161 187.837 233.009 188.456C231.878 189.075 230.481 189.384 228.817 189.384ZM244.878 177.608C243.854 177.608 242.926 177.384 242.094 176.936C241.262 176.467 240.6 175.805 240.11 174.952C239.619 174.099 239.374 173.085 239.374 171.912C239.374 170.739 239.619 169.725 240.11 168.872C240.6 168.019 241.262 167.368 242.094 166.92C242.926 166.451 243.864 166.216 244.91 166.216C245.934 166.216 246.851 166.451 247.662 166.92C248.494 167.368 249.155 168.019 249.646 168.872C250.136 169.725 250.382 170.739 250.382 171.912C250.382 173.085 250.136 174.099 249.646 174.952C249.155 175.805 248.494 176.467 247.662 176.936C246.83 177.384 245.902 177.608 244.878 177.608ZM243.662 189L256.302 166.6H260.302L247.662 189H243.662ZM244.878 174.76C245.496 174.76 246.03 174.525 246.478 174.056C246.926 173.565 247.15 172.851 247.15 171.912C247.15 170.973 246.926 170.259 246.478 169.768C246.051 169.277 245.518 169.032 244.878 169.032C244.238 169.032 243.694 169.277 243.246 169.768C242.819 170.259 242.606 170.973 242.606 171.912C242.606 172.851 242.819 173.565 243.246 174.056C243.694 174.525 244.238 174.76 244.878 174.76ZM259.214 189.384C258.19 189.384 257.262 189.16 256.43 188.712C255.598 188.243 254.936 187.581 254.446 186.728C253.955 185.875 253.71 184.861 253.71 183.688C253.71 182.515 253.955 181.512 254.446 180.68C254.936 179.827 255.598 179.176 256.43 178.728C257.262 178.259 258.2 178.024 259.246 178.024C260.27 178.024 261.187 178.259 261.998 178.728C262.83 179.176 263.491 179.827 263.982 180.68C264.472 181.512 264.718 182.515 264.718 183.688C264.718 184.861 264.472 185.875 263.982 186.728C263.491 187.581 262.83 188.243 261.998 188.712C261.187 189.16 260.259 189.384 259.214 189.384ZM259.214 186.536C259.854 186.536 260.387 186.301 260.814 185.832C261.262 185.341 261.486 184.627 261.486 183.688C261.486 182.749 261.262 182.035 260.814 181.544C260.387 181.053 259.854 180.808 259.214 180.808C258.574 180.808 258.03 181.053 257.582 181.544C257.155 182.035 256.942 182.749 256.942 183.688C256.942 184.627 257.155 185.341 257.582 185.832C258.03 186.301 258.574 186.536 259.214 186.536Z" fill="#1B1642"/>
<circle cx="226.224" cy="97.6873" r="9.70681" transform="rotate(127.754 226.224 97.6873)" fill="#EA5858"/>
<circle cx="195.655" cy="263.08" r="9.70681" transform="rotate(127.754 195.655 263.08)" fill="#EA5858"/>
<mask id="mask0_1397_821" style="mask-type:alpha" maskUnits="userSpaceOnUse" x="93" y="66" width="134" height="213">
<path d="M220.346 182.911L191.252 278.288L93.0635 226.656L170.579 66.9841L226.082 80.2421L226.749 147.16L220.346 182.911Z" fill="#C4C4C4"/>
</mask>
<g mask="url(#mask0_1397_821)">
<path fill-rule="evenodd" clip-rule="evenodd" d="M146.614 124.437C114.685 165.667 122.226 224.973 163.456 256.901C204.686 288.83 263.992 281.289 295.921 240.059C327.849 198.829 320.308 139.523 279.078 107.594C237.848 75.6661 178.542 83.2067 146.614 124.437ZM161.963 136.323C136.599 169.076 142.59 216.188 175.342 241.552C208.095 266.916 255.208 260.925 280.571 228.173C305.935 195.42 299.945 148.307 267.192 122.944C234.439 97.5801 187.327 103.57 161.963 136.323Z" fill="#EA5858"/>
</g>
</g>
</g>
<defs>
<filter id="filter0_dd_1397_821" x="0" y="0" width="468" height="529" filterUnits="userSpaceOnUse" color-interpolation-filters="sRGB">
<feFlood flood-opacity="0" result="BackgroundImageFix"/>
<feColorMatrix in="SourceAlpha" type="matrix" values="0 0 0 0 0 0 0 0 0 0 0 0 0 0 0 0 0 0 127 0" result="hardAlpha"/>
<feOffset dy="44"/>
<feGaussianBlur stdDeviation="37"/>
<feColorMatrix type="matrix" values="0 0 0 0 0.103299 0 0 0 0 0.0836699 0 0 0 0 0.277995 0 0 0 0.06 0"/>
<feBlend mode="normal" in2="BackgroundImageFix" result="effect1_dropShadow_1397_821"/>
<feColorMatrix in="SourceAlpha" type="matrix" values="0 0 0 0 0 0 0 0 0 0 0 0 0 0 0 0 0 0 127 0" result="hardAlpha"/>
<feOffset/>
<feGaussianBlur stdDeviation="12"/>
<feColorMatrix type="matrix" values="0 0 0 0 0 0 0 0 0 0 0 0 0 0 0 0 0 0 0.04 0"/>
<feBlend mode="normal" in2="effect1_dropShadow_1397_821" result="effect2_dropShadow_1397_821"/>
<feBlend mode="normal" in="SourceGraphic" in2="effect2_dropShadow_1397_821" result="shape"/>
</filter>
<clipPath id="clip0_1397_821">
<path d="M74 46C74 37.1634 81.1634 30 90 30H394V395C394 403.837 386.837 411 378 411H74V46Z" fill="white"/>
</clipPath>
</defs>
</svg>
